<svg width="14" height="14" viewBox="0 0 14 14" fill="none" xmlns="http://www.w3.org/2000/svg">
<path d="M7 2.19167C9.65096 2.19167 11.8083 4.34904 11.8083 7C11.8083 9.65096 9.65096 11.8083 7 11.8083C4.34904 11.8083 2.19167 9.65096 2.19167 7C2.19167 4.34904 4.34904 2.19167 7 2.19167ZM7 0.875C3.61096 0.875 0.875 3.61096 0.875 7C0.875 10.389 3.61096 13.125 7 13.125C10.389 13.125 13.125 10.389 13.125 7C13.125 3.61096 10.389 0.875 7 0.875ZM9.30727 6.74212H7.37894V4.54712C7.37894 4.18475 7.08297 3.88879 6.7206 3.88879C6.35824 3.88879 6.06227 4.18475 6.06227 4.54712V7.13379C6.06227 7.1707 6.06695 7.2021 6.07039 7.22446C6.07249 7.23812 6.07385 7.24708 6.07465 7.25375C6.0621 7.30701 6.06221 7.36369 6.06226 7.39483C6.06227 7.39681 6.06227 7.39869 6.06227 7.40045C6.06227 7.76282 6.35824 8.05879 6.7206 8.05879H9.30727C9.66964 8.05879 9.9656 7.76282 9.9656 7.40045C9.9656 7.03808 9.66964 6.74212 9.30727 6.74212Z" fill="white" stroke="white" stroke-width="0.25"/>
</svg>
