<svg width="12" height="12" viewBox="0 0 12 12" version="1.1" xmlns="http://www.w3.org/2000/svg" xmlns:xlink="http://www.w3.org/1999/xlink">
    <g id="Canvas" transform="translate(-5054 -2478)">
        <g id="Vector">
            <use xlink:href="#path0_fill" transform="translate(5054 2478)" fill="#A5A7AA"/>
        </g>
    </g>
    <defs>
        <path id="path0_fill" fill-rule="evenodd" d="M 4.52371 5.93771L 0.280712 10.1807C 0.0985538 10.3693 -0.00224062 10.6219 3.78026e-05 10.8841C 0.00231622 11.1463 0.107485 11.3971 0.292893 11.5825C 0.478301 11.7679 0.729114 11.8731 0.991311 11.8754C 1.25351 11.8777 1.50611 11.7769 1.69471 11.5947L 5.93771 7.35171L 10.1807 11.5947C 10.3693 11.7769 10.6219 11.8777 10.8841 11.8754C 11.1463 11.8731 11.3971 11.7679 11.5825 11.5825C 11.7679 11.3971 11.8731 11.1463 11.8754 10.8841C 11.8777 10.6219 11.7769 10.3693 11.5947 10.1807L 7.35171 5.93771L 11.5947 1.69471C 11.7769 1.50611 11.8777 1.25351 11.8754 0.991311C 11.8731 0.729114 11.7679 0.478301 11.5825 0.292893C 11.3971 0.107485 11.1463 0.00231622 10.8841 3.78026e-05C 10.6219 -0.00224062 10.3693 0.0985538 10.1807 0.280712L 5.93771 4.52371L 1.69471 0.280712C 1.50611 0.0985538 1.25351 -0.00224062 0.991311 3.78026e-05C 0.729114 0.00231622 0.478301 0.107485 0.292893 0.292893C 0.107485 0.478301 0.00231622 0.729114 3.78026e-05 0.991311C -0.00224062 1.25351 0.0985538 1.50611 0.280712 1.69471L 4.52371 5.93771Z"/>
    </defs>
</svg>
