<svg width="13" height="15" viewBox="0 0 13 15" fill="none" xmlns="http://www.w3.org/2000/svg">
<path fill-rule="evenodd" clip-rule="evenodd" d="M6.45888 15C6.45888 15 0 9.93928 0 9.93167C0 8.25203 1.40783 7.08252 3.12509 6.60741C3.92411 7.6551 5.1206 8.43934 6.45794 8.43934C7.8031 8.43934 9.00555 7.64596 9.80503 6.58914C11.5538 7.05207 13 8.22918 13 9.93167C13 9.96669 6.45888 15 6.45888 15ZM6.45825 6.3592C5.24923 6.3592 4.2691 4.83184 4.2691 3.60294V2.22633C4.2691 0.99743 5.24923 0 6.45825 0C7.66727 0 8.6474 0.99743 8.6474 2.22633V3.60294C8.6474 4.83184 7.66743 6.3592 6.45888 6.3592H6.45825Z" fill="#9BC3D4"/>
</svg>
