<svg width="932" height="160" viewBox="0 0 932 160" fill="none" xmlns="http://www.w3.org/2000/svg">
<g clip-path="url(#clip0_6875_23855)">
<path d="M932 0V2.65015C932 3.47958 932 2.46807 932 5.2396V5.40144C932 8.98217 931.45 11.6121 931.3 12.7652C931.05 14.7073 931.3 16.6898 931.25 17.0135C931.225 17.3372 931.175 17.6407 931.125 17.9441C931.075 18.288 931 18.6522 930.9 18.9961C930.85 19.2793 930.75 19.5625 930.65 19.8457C930.4 20.6347 930.05 21.4237 929.675 22.2127C929.575 22.3947 929.475 22.597 929.35 22.7993C927.899 25.4293 925.824 27.9783 923.624 30.6082C923.249 31.0735 922.849 31.5388 922.473 32.004C922.098 32.4289 921.723 32.8739 921.373 33.319C921.023 33.7438 920.673 34.1687 920.348 34.5935C919.523 35.6455 918.723 36.6974 917.973 37.8101C917.573 38.3968 917.173 39.0037 916.823 39.6106C916.723 39.7926 916.598 39.9949 916.498 40.177C916.222 40.6423 915.972 41.1278 915.747 41.6134C915.622 41.8561 915.522 42.0989 915.397 42.3619C915.347 42.4428 915.297 42.5237 915.272 42.6046C915.197 42.7665 915.122 42.9485 915.072 43.1104C914.922 43.4745 914.797 43.8589 914.647 44.223C914.522 44.6074 914.422 44.9918 914.297 45.3559C914.172 45.7605 914.072 46.1651 913.997 46.5697C913.922 46.9541 913.847 47.3587 913.797 47.7835C913.622 48.7748 913.572 49.8268 913.597 50.899C913.972 62.3897 915.772 76.3282 916.097 88.2842C916.122 88.6888 916.122 89.0732 916.122 89.4576C916.122 90.5702 916.122 91.6627 916.122 92.7349V93.2406C916.122 93.8678 916.122 94.4949 916.072 95.1018C916.047 95.8908 916.022 96.6393 915.972 97.3878C915.922 98.1363 915.872 98.8646 915.797 99.5929C915.722 100.301 915.647 101.009 915.547 101.677C915.572 101.697 915.572 101.717 915.547 101.737C915.397 102.627 915.247 103.457 915.097 104.266C914.947 105.075 914.747 105.864 914.497 106.592C914.197 107.584 913.847 108.494 913.447 109.344C912.247 111.852 910.522 113.673 908.196 114.583C895.019 119.661 900.895 71.5539 884.392 65.8895C883.717 65.667 883.142 65.5861 882.617 65.6872C882.517 65.6872 882.417 65.7277 882.317 65.7479C882.017 65.8288 881.742 65.9704 881.492 66.1525C881.292 66.2941 881.092 66.4762 880.942 66.6987C880.717 66.9617 880.542 67.2854 880.367 67.6495C880.292 67.8114 880.217 67.9732 880.142 68.135C880.067 68.3171 880.017 68.5194 879.942 68.7217C879.892 68.924 879.817 69.1263 879.767 69.3488C879.667 69.7737 879.567 70.239 879.492 70.7245C879.367 71.3719 879.292 72.0799 879.242 72.8284C878.191 86.6658 884.392 117.497 883.467 138.536C883.492 138.151 883.492 137.747 883.492 137.363C883.492 137.888 883.467 138.394 883.442 138.9C883.442 139.062 883.417 139.224 883.417 139.365C883.392 140.053 883.342 140.721 883.292 141.388C883.292 141.55 883.292 141.712 883.242 141.874C883.217 142.117 883.217 142.359 883.192 142.602C883.067 143.796 882.917 144.949 882.742 146.041C882.692 146.304 882.642 146.567 882.592 146.83C882.492 147.356 882.392 147.842 882.292 148.347C881.942 149.905 881.517 151.342 880.967 152.656C880.867 152.919 880.767 153.182 880.642 153.425C879.517 155.914 877.991 157.795 875.991 158.887C875.391 159.231 874.741 159.494 874.066 159.676C873.266 159.899 872.54 160 871.815 160C871.14 160 870.515 159.899 869.915 159.717C867.54 158.988 865.739 156.844 864.364 153.749C863.839 152.596 863.414 151.301 863.014 149.905C862.739 148.995 862.514 148.004 862.314 146.992C862.189 146.486 862.089 145.96 861.989 145.434C861.514 142.804 861.164 139.952 860.889 136.998C860.638 134.025 860.489 130.97 860.388 127.915C860.263 124.253 860.238 120.632 860.238 117.213C860.238 112.156 860.289 107.604 860.238 104.185C860.238 103.801 860.238 103.437 860.213 103.093C860.213 102.789 860.188 102.506 860.188 102.243C860.163 101.798 860.138 101.373 860.113 100.989C860.063 100.382 860.013 99.8559 859.938 99.431C859.913 99.2287 859.863 99.0264 859.813 98.8646C859.813 98.8241 859.813 98.8039 859.788 98.7634C859.788 98.7028 859.763 98.6421 859.738 98.6016C859.713 98.5207 859.688 98.46 859.663 98.3993C859.638 98.2981 859.588 98.2375 859.538 98.1768C858.963 97.3271 857.888 99.1276 855.988 104.873C845.186 137.484 834.034 113.734 830.184 86.2208C826.358 58.7078 814.456 57.757 804.354 66.375C794.253 74.9728 785.851 43.96 766.423 39.5701C747.02 35.1802 746.52 66.3952 732.018 76.2878C718.066 85.8162 703.438 75.3572 687.811 73.8197C687.811 73.8197 687.811 73.8197 687.736 73.7995C687.611 73.7792 687.486 73.759 687.336 73.7793C686.886 73.7186 686.435 73.6781 685.985 73.6579C684.935 73.5972 684.035 73.9613 683.285 74.6694C683.185 74.7705 683.085 74.8717 682.985 74.9728C682.21 75.863 681.56 77.1779 681.085 78.8772C681.085 78.8772 681.085 78.8907 681.085 78.9177C679.409 81.7094 677.084 84.8451 670.633 85.1081C662.032 85.452 659.481 80.0304 657.056 78.331C657.056 78.331 657.039 78.3175 657.006 78.2906C657.006 78.2906 656.931 78.2501 656.906 78.2096C656.856 78.1692 656.781 78.1287 656.706 78.068C656.631 77.9871 656.556 77.9466 656.481 77.886C644.354 69.7332 650.93 89.9836 622.975 96.5786C595.021 103.153 560.49 43.8994 541.012 37.102C540.762 37.0211 540.537 36.9402 540.312 36.8795C539.862 36.7581 539.462 36.6772 539.087 36.657C539.037 36.6367 539.012 36.6367 538.962 36.6367C538.162 36.5558 537.462 36.6367 536.861 36.8795C536.711 36.92 536.561 37.0009 536.411 37.102C536.261 37.1425 536.111 37.2436 536.011 37.3448C535.736 37.5269 535.486 37.7696 535.286 38.0326C534.936 38.417 534.661 38.8823 534.461 39.4285C534.386 39.5903 534.286 39.7926 534.211 39.9949C534.136 40.177 534.086 40.3995 534.036 40.6018C534.036 40.6625 534.011 40.7232 533.986 40.7839C533.886 41.1278 533.811 41.492 533.736 41.8966C533.736 41.9977 533.686 42.1191 533.661 42.2405C533.436 43.1711 533.211 44.223 532.736 45.801C531.936 48.5927 529.16 49.4222 526.535 48.4714C524.884 47.8847 523.234 47.5205 522.234 47.3385C522.184 47.3385 522.134 47.3182 522.109 47.3182C522.084 47.3182 522.059 47.3182 522.034 47.3182C521.909 47.2778 521.759 47.2576 521.609 47.2373C521.584 47.2373 521.534 47.2171 521.484 47.2171C521.409 47.2171 521.359 47.2171 521.284 47.2171C521.109 47.1766 520.909 47.1766 520.734 47.1766H520.584C520.459 47.1766 520.334 47.1766 520.209 47.2171C520.134 47.2171 520.084 47.2171 520.009 47.2576C519.859 47.2778 519.709 47.3182 519.559 47.3789C519.409 47.4194 519.284 47.4801 519.159 47.561C519.009 47.6419 518.884 47.7229 518.758 47.8442C518.633 47.9454 518.483 48.0465 518.383 48.1881C518.258 48.3095 517.983 48.7748 517.883 48.9367C517.683 49.2401 517.558 49.5031 517.458 49.847C517.433 49.8672 517.408 49.9077 517.408 49.9482C516.358 52.2342 515.433 55.8149 508.682 56.2802C500.781 56.7859 497.305 53.0029 494.73 50.7978C494.705 50.7776 494.68 50.7574 494.655 50.7371C494.455 50.5146 494.255 50.3123 494.03 50.1302C493.854 49.9482 493.654 49.8066 493.454 49.6649C493.254 49.5031 493.004 49.3413 492.779 49.1996C492.479 49.0176 492.179 48.8355 491.854 48.6939C491.679 48.5927 491.504 48.5118 491.304 48.4309C489.204 47.561 486.628 47.3587 483.528 47.9454C457.874 52.8411 449.022 46.0235 444.847 38.7204C443.696 38.7002 442.646 38.8014 441.671 39.0239C441.421 39.0846 441.196 39.1453 440.971 39.206C440.646 39.3071 440.321 39.4083 440.021 39.5499C439.821 39.6106 439.646 39.6915 439.471 39.8129C439.446 39.8129 439.396 39.8331 439.371 39.8533C439.046 39.9949 438.721 40.177 438.446 40.3793C438.246 40.5007 438.046 40.6221 437.87 40.7839C437.07 41.3706 436.545 41.937 436.045 42.5035C435.82 42.726 435.62 42.9688 435.42 43.1913C434.395 44.3444 431.669 48.087 425.769 47.9049C419.868 47.7431 415.242 43.2115 414.817 42.2607C414.492 41.5324 413.692 40.1568 412.916 39.3071C412.791 39.1655 412.666 39.0441 412.541 38.9227C412.391 38.8216 412.291 38.7407 412.166 38.6598C412.041 38.5788 411.916 38.4575 411.766 38.417C411.441 38.2956 411.116 38.2147 410.741 38.2147C410.341 38.2147 409.966 38.2147 409.616 38.2956C409.366 38.3158 409.066 38.4372 408.841 38.5182C408.341 38.7205 407.916 38.8823 407.066 39.6915C405.39 41.2088 404.165 41.7347 402.09 41.1683C399.889 40.5816 398.189 36.92 397.689 33.6831C397.689 33.6225 397.664 33.5415 397.664 33.4808C397.614 33.3392 397.639 33.1976 397.614 33.056C397.564 32.6716 397.514 32.3884 397.414 32.0647C397.339 31.822 397.239 31.4983 397.189 31.2758C397.114 31.0735 397.039 30.8712 396.964 30.6891C396.914 30.5475 396.839 30.4261 396.789 30.3047C396.739 30.2238 396.714 30.1024 396.664 30.0215C396.589 29.8597 396.464 29.718 396.364 29.5764C396.289 29.4348 396.139 29.3134 396.039 29.1921C395.814 28.9088 395.639 28.7065 395.364 28.5245C395.364 28.5245 395.264 28.4031 395.264 28.3829C395.114 28.2817 394.989 28.221 394.814 28.1401C394.689 28.0592 394.539 27.9985 394.363 27.9378C394.288 27.9176 394.163 27.8771 394.063 27.8569C394.013 27.8366 393.938 27.7962 393.863 27.776C393.738 27.7355 393.563 27.7153 393.413 27.7153C392.538 27.6141 391.513 27.8164 390.288 28.2412C370.81 35.0386 336.279 94.2926 308.325 87.6976C300.273 85.7959 295.098 82.7816 291.497 79.6257C290.847 79.0593 290.247 78.4726 289.697 77.9062C289.122 77.3195 288.621 76.7328 288.121 76.1664C287.796 75.7618 287.496 75.3774 287.196 74.993C285.146 72.3024 283.846 69.9153 282.395 68.479C282.095 68.1755 281.795 67.9327 281.495 67.7102C281.345 67.6091 281.17 67.5281 281.02 67.427C280.895 67.3663 280.77 67.3258 280.645 67.2651C279.245 66.7189 277.495 67.1438 274.819 69.0049C274.644 69.1263 274.469 69.2477 274.319 69.4095C274.194 69.5107 274.069 69.6321 273.969 69.7737C273.769 69.9962 273.594 70.239 273.394 70.502C273.294 70.6638 273.194 70.8256 273.119 70.9875C271.744 73.496 271.094 77.623 270.844 82.8019V83.0042C270.844 83.0042 270.869 83.1256 270.844 83.166C270.994 89.7206 269.868 95.3243 264.868 97.1248C264.843 97.145 264.818 97.145 264.793 97.1653C263.792 97.5901 262.617 97.7924 261.217 97.7519C260.942 97.7519 260.667 97.7519 260.417 97.7115C256.316 97.5496 254.066 95.2636 252.891 91.8043C252.866 91.7638 252.841 91.7436 252.841 91.7031C252.741 91.3795 252.641 91.0558 252.541 90.7321C251.115 85.9982 251.39 79.7067 251.115 74.5075V74.3861C250.34 68.7419 248.79 65.141 245.965 64.8173C245.74 64.7971 245.54 64.7768 245.314 64.7971C232.262 65.404 219.935 73.0307 208.109 71.0482C207.583 70.947 207.058 70.8459 206.533 70.7245C205.058 70.3604 203.608 69.8344 202.158 69.1263C201.457 68.7824 200.757 68.3778 200.057 67.953C199.782 67.7911 199.532 67.6091 199.257 67.427C184.755 57.5142 184.28 26.3194 164.852 30.7093C145.448 35.0993 137.022 66.112 126.92 57.5142C116.819 48.8962 104.942 49.847 101.091 77.36C97.2407 104.873 86.0889 128.623 75.2871 96.0121C73.3868 90.2668 72.3116 88.4461 71.7365 89.316C71.6865 89.3767 71.6365 89.4374 71.6115 89.5183C71.5615 89.5992 71.5365 89.7206 71.5115 89.842C71.3615 90.3073 71.2615 90.9951 71.1865 91.8852C71.1865 92.1077 71.1615 92.3303 71.1365 92.573C71.1365 92.8158 71.1115 93.099 71.1115 93.362C71.1115 93.625 71.0864 93.888 71.0864 94.1712C71.0614 94.4544 71.0364 94.7579 71.0364 95.0613V96.3763C70.9864 98.6825 71.0114 101.434 71.0364 104.468V105.075C71.0614 109.566 71.0614 114.624 70.8614 119.702C70.8614 120.126 70.8614 120.572 70.8114 120.996C70.8114 121.522 70.7864 122.048 70.7364 122.574C70.6864 123.566 70.6364 124.557 70.5614 125.548C70.5113 126.56 70.4363 127.571 70.3363 128.562C70.2613 129.473 70.1613 130.383 70.0613 131.273C69.7862 133.721 69.4112 136.088 68.9361 138.253C68.636 139.709 68.286 141.085 67.8609 142.359C67.6859 142.906 67.4859 143.432 67.2858 143.958C67.0108 144.706 66.6857 145.374 66.3607 146.021C66.0106 146.709 65.6106 147.356 65.2105 147.923C64.1353 149.379 62.8601 150.391 61.3599 150.856C60.7598 151.038 60.1347 151.139 59.4596 151.139C58.7345 151.139 58.0093 151.038 57.2092 150.816C56.059 150.492 55.0589 149.966 54.1587 149.278C53.6086 148.853 53.1085 148.368 52.6585 147.821H52.6335C52.1834 147.255 51.7583 146.648 51.3583 145.981C50.9832 145.313 50.6581 144.585 50.3331 143.816C50.2081 143.553 50.1081 143.29 50.008 143.007C49.833 142.541 49.683 142.036 49.533 141.53C49.483 141.368 49.433 141.206 49.408 141.044C49.3079 140.741 49.2329 140.397 49.1579 140.094C49.0579 139.729 48.9829 139.386 48.9079 139.001C48.8079 138.597 48.7328 138.172 48.6578 137.747C48.6078 137.443 48.5578 137.14 48.5078 136.837C48.4328 136.351 48.3578 135.865 48.2828 135.36C48.2578 135.117 48.2078 134.854 48.2078 134.611C48.1578 134.126 48.1077 133.64 48.0577 133.134C48.0327 132.73 47.9827 132.305 47.9577 131.9C47.9327 131.678 47.9077 131.455 47.9077 131.233V131.152C47.8827 130.889 47.8827 130.606 47.8577 130.322V130.039C47.8327 129.533 47.8077 129.028 47.7827 128.502V128.421C47.7327 127.308 47.7327 126.216 47.7327 125.063C47.7327 124.051 47.7327 123.019 47.7827 121.988V121.32C48.3328 101.312 52.8585 76.5103 52.0584 64.2913V64.1092C52.0334 63.8665 52.0084 63.6642 51.9834 63.4417C51.8834 62.329 51.7333 61.3377 51.5083 60.4881C51.4583 60.2655 51.4083 60.0632 51.3333 59.8609C51.0832 59.0315 50.7582 58.3437 50.3331 57.8379C50.1831 57.6154 49.983 57.4333 49.783 57.2917C49.533 57.1096 49.2579 56.968 48.9579 56.8871C48.8579 56.8669 48.7578 56.8264 48.6578 56.8264C48.1327 56.7253 47.5577 56.8062 46.8825 57.0287C30.3799 62.6729 36.2558 110.78 23.0787 105.723C16.2276 103.072 14.8524 92.4112 15.2024 79.4234C15.5275 67.4674 17.3278 53.5289 17.7028 42.0382C17.7028 40.9458 17.6778 39.914 17.5278 38.9025C17.4778 38.4979 17.4028 38.0933 17.3028 37.6887C17.2278 37.2841 17.1278 36.8997 17.0277 36.5154C16.6027 34.9576 15.9776 33.4606 15.2275 32.0445L14.8524 31.3162C13.1521 28.3222 10.9018 25.5709 8.7014 22.9207C8.22632 22.3543 7.77625 21.8283 7.30118 21.2821C7.05114 20.9584 6.80109 20.655 6.55105 20.3515C6.12599 19.8457 5.70092 19.3198 5.30085 18.814C5.07582 18.5106 4.82578 18.2273 4.62574 17.9239C4.40071 17.6407 4.20068 17.3574 4.00064 17.0944C3.80061 16.8112 3.60058 16.5482 3.42555 16.2852C3.22552 16.002 3.02549 15.6986 2.85046 15.4154C2.67543 15.1524 2.5004 14.8691 2.35038 14.5859C1.8503 13.7363 1.40023 12.9068 1.05017 12.0369C0.875141 11.6323 0.750121 11.2479 0.625101 10.8433C0.50008 10.4994 0.400064 10.1353 0.325052 9.77115C0.300048 9.69023 0.300048 9.60931 0.275044 9.54862C0.200032 9.2047 0.150024 8.84056 0.12502 8.47642C0 7.42445 0 6.39272 0.175028 5.34075C0.175028 5.30029 0.175028 5.28006 0.200032 5.2396H0V0H932Z" fill="#FAFEFF"/>
<path d="M916.097 88.2631C916.447 101.271 915.072 111.932 908.221 114.562C895.044 119.64 900.92 71.5328 884.417 65.8886C883.742 65.6661 883.167 65.5851 882.642 65.6863C882.542 65.6863 882.442 65.7065 882.367 65.747C882.267 65.747 882.192 65.7874 882.092 65.8279C882.092 65.8279 882.067 65.8279 882.042 65.8481C881.917 65.9088 881.767 65.9695 881.642 66.0707H881.617C881.617 66.0707 881.442 66.2123 881.342 66.2932C881.017 66.5764 880.742 66.9406 880.517 67.3856C880.417 67.5475 880.342 67.7093 880.267 67.8914C879.792 69.004 879.492 70.4808 879.317 72.3015C879.292 72.5241 879.267 72.7264 879.242 72.9691V73.1512C878.441 85.35 882.992 110.193 883.517 130.18V130.443C883.542 131.677 883.567 132.891 883.567 134.084C883.567 136.107 883.517 138.049 883.392 139.911C883.367 140.558 883.317 141.185 883.267 141.812C883.142 143.329 882.967 144.786 882.742 146.162C882.692 146.344 882.667 146.546 882.642 146.728C882.417 147.881 882.192 148.953 881.892 149.985C881.867 150.107 881.817 150.248 881.767 150.39C881.667 150.815 881.517 151.239 881.367 151.644C879.917 155.832 877.591 158.704 874.091 159.675C873.266 159.898 872.49 159.999 871.765 159.999C871.215 159.999 870.715 159.918 870.215 159.777C869.815 159.696 869.44 159.554 869.065 159.372C868.515 159.109 868.015 158.765 867.515 158.32C866.539 157.491 865.664 156.317 864.939 154.881C864.614 154.234 864.314 153.546 864.014 152.817C863.814 152.291 863.614 151.765 863.439 151.219C863.239 150.572 863.039 149.925 862.864 149.216C862.689 148.529 862.514 147.821 862.364 147.092C862.339 147.032 862.314 146.971 862.314 146.91C862.114 145.939 861.914 144.928 861.764 143.876C861.539 142.621 861.364 141.327 861.214 139.992C861.139 139.182 861.039 138.373 860.989 137.544C860.738 135.035 860.589 132.446 860.488 129.836C860.464 129.391 860.438 128.946 860.438 128.501C860.238 123.443 860.238 118.406 860.263 113.935V113.328C860.288 110.294 860.313 107.542 860.263 105.216V104.852C860.263 104.427 860.238 104.022 860.238 103.638C860.238 103.132 860.213 102.667 860.188 102.222C860.188 101.939 860.188 101.676 860.188 101.433C860.163 101.17 860.138 100.947 860.138 100.725C860.113 100.624 860.113 100.523 860.113 100.421C860.063 100.098 860.038 99.8145 859.988 99.5515C859.888 98.803 859.738 98.3175 859.538 98.0949C859.413 97.9331 859.238 97.9129 859.038 98.0747C858.988 98.0949 858.938 98.1354 858.888 98.1961C858.263 98.8435 857.338 100.927 856.038 104.872C845.236 137.483 834.084 113.713 830.234 86.2199C826.383 58.7069 814.506 57.7561 804.404 66.3539C794.303 74.9719 785.876 43.9591 766.473 39.5692C747.07 35.1793 746.57 66.3741 732.068 76.2666C718.116 85.795 703.513 75.3563 687.861 73.7986C687.786 73.7783 687.711 73.7581 687.611 73.7783C687.086 73.6974 686.535 73.657 686.01 73.6367C684.96 73.576 684.085 73.9402 683.335 74.6482C683.235 74.7494 683.135 74.8505 683.035 74.9517C682.685 75.3361 682.36 75.8216 682.06 76.388C681.985 76.5499 681.885 76.7319 681.835 76.914C681.56 77.5007 681.335 78.148 681.135 78.8763C681.135 78.8763 681.135 78.8898 681.135 78.9168C679.459 81.7085 677.134 84.8442 670.683 85.1072C662.082 85.4511 659.531 80.0294 657.106 78.3301C657.106 78.3301 657.089 78.3166 657.056 78.2897C656.906 78.1885 656.756 78.0671 656.606 77.9053C656.581 77.9053 656.556 77.9053 656.531 77.8648C644.404 69.7323 650.98 89.9624 623.025 96.5574C595.071 103.132 560.54 43.8782 541.062 37.1011C539.837 36.6763 538.787 36.5347 537.912 36.6358C537.762 36.6358 537.612 36.6561 537.487 36.6965C537.411 36.7168 537.362 36.7168 537.311 36.737C537.211 36.7572 537.111 36.7977 537.036 36.8179C536.861 36.8786 536.711 36.9393 536.586 37.0202C535.511 37.5462 534.761 38.5779 534.261 39.994C534.111 40.4189 533.986 40.8842 533.886 41.3697C533.836 41.6529 533.761 41.9361 533.711 42.2396C533.486 43.1702 533.261 44.2221 532.786 45.8001C531.986 48.5918 529.21 49.4213 526.585 48.4705C524.935 47.8838 523.284 47.5196 522.284 47.3376C522.109 47.2769 521.909 47.2364 521.734 47.2162C521.609 47.196 521.484 47.1555 521.334 47.1555C521.109 47.115 520.859 47.115 520.609 47.115C520.484 47.115 520.359 47.115 520.259 47.1555C520.059 47.1555 519.909 47.2162 519.734 47.2566C519.634 47.2971 519.559 47.3376 519.459 47.378C519.234 47.4589 519.009 47.6006 518.809 47.7826C518.708 47.8433 518.608 47.9445 518.533 48.0456C518.233 48.3693 517.958 48.7739 517.758 49.2594C517.708 49.3201 517.683 49.401 517.658 49.4617C516.508 51.7073 515.933 55.7533 508.732 56.2388C500.831 56.7446 497.355 52.9615 494.78 50.7565C494.68 50.6553 494.555 50.5542 494.48 50.453C494.28 50.2709 494.105 50.0889 493.879 49.927C493.729 49.7854 493.554 49.664 493.379 49.5426C493.229 49.4213 493.079 49.2999 492.904 49.219C492.729 49.0774 492.529 48.9762 492.329 48.8548C492.154 48.7537 491.954 48.6525 491.729 48.5716C489.554 47.5399 486.878 47.2769 483.578 47.904C457.924 52.7795 449.072 45.9619 444.897 38.6791C443.596 38.6386 442.421 38.7802 441.346 39.0634C441.096 39.1241 440.871 39.2051 440.621 39.286C440.346 39.3669 440.046 39.4883 439.771 39.6299C439.496 39.731 439.221 39.8727 438.971 40.0345C438.721 40.1559 438.471 40.3177 438.221 40.4998C437.97 40.6819 437.72 40.8437 437.495 41.046C437.295 41.2078 437.07 41.4101 436.895 41.6124C436.595 41.8957 436.345 42.1789 436.095 42.4621H436.07C435.87 42.7049 435.67 42.9274 435.47 43.1499C434.445 44.303 431.719 48.0456 425.819 47.8635C419.918 47.7017 415.292 43.1702 414.867 42.2193C414.542 41.4911 413.742 40.1154 412.966 39.2657C412.916 39.2253 412.891 39.1848 412.866 39.1444C412.791 39.0432 412.691 38.9421 412.591 38.8814C412.466 38.7802 412.341 38.6791 412.216 38.6184C412.141 38.5577 412.041 38.5172 411.941 38.4768C411.841 38.4363 411.766 38.3959 411.666 38.3554C411.391 38.2745 411.116 38.2138 410.791 38.2138C410.391 38.2138 410.016 38.2138 409.666 38.2745C409.441 38.2947 409.216 38.3554 408.991 38.4363C408.916 38.4363 408.816 38.5172 408.741 38.5375C408.566 38.5982 408.416 38.6386 408.266 38.7398C408.191 38.76 408.066 38.8409 408.016 38.8814C407.866 38.9421 407.766 39.023 407.641 39.1444C407.541 39.2051 407.416 39.3264 407.341 39.4074C405.565 41.1269 404.34 41.7338 402.14 41.1269C399.939 40.5402 398.239 36.8786 397.739 33.6418C397.689 33.4192 397.689 33.2372 397.639 33.0146C397.614 32.8528 397.589 32.7112 397.539 32.5494C397.489 32.2459 397.439 31.9222 397.339 31.639C397.314 31.4569 397.239 31.2749 397.164 31.113C397.139 31.0321 397.114 30.9107 397.089 30.85C397.039 30.7084 396.989 30.587 396.939 30.4656C396.864 30.3038 396.739 30.142 396.639 29.9801C396.564 29.8385 396.464 29.6767 396.364 29.5351C396.264 29.3935 396.164 29.2721 396.089 29.1507C396.064 29.1102 396.039 29.09 396.014 29.0495C395.914 28.9484 395.814 28.8472 395.714 28.7461C395.614 28.6247 395.489 28.5438 395.339 28.4426C395.164 28.301 395.014 28.1594 394.839 28.0785C394.689 27.9976 394.563 27.9369 394.388 27.8762C394.313 27.856 394.213 27.8357 394.113 27.8155C394.063 27.7953 393.988 27.775 393.913 27.7548C393.788 27.7144 393.588 27.6941 393.438 27.6941C392.563 27.593 391.563 27.775 390.338 28.1999C370.86 34.977 336.329 94.231 308.375 87.6562C299.573 85.5725 294.197 82.1536 290.597 78.6943C289.997 78.1278 289.447 77.5614 288.947 76.9949C288.171 76.125 287.471 75.2551 286.846 74.4257C286.396 73.8188 285.971 73.2119 285.571 72.6454C285.371 72.342 285.196 72.079 284.996 71.7958C284.096 70.4404 283.296 69.267 282.445 68.4376C282.045 68.0128 281.595 67.6688 281.145 67.4463C279.77 66.6776 278.12 66.8596 275.594 68.4983C275.344 68.6399 275.119 68.8017 274.869 68.9636C274.694 69.0849 274.544 69.2063 274.369 69.3682C274.219 69.5098 274.069 69.6716 273.919 69.8537C273.769 70.0155 273.619 70.2178 273.494 70.4201C273.394 70.582 273.294 70.7438 273.169 70.9259C271.819 73.394 271.144 77.5614 270.894 82.7403V82.9426C270.894 82.9426 270.919 83.064 270.894 83.1246C271.044 89.7197 269.918 95.3436 264.818 97.1037H264.793C263.817 97.5487 262.642 97.751 261.242 97.7106C260.967 97.7106 260.717 97.7106 260.467 97.6701C256.616 97.5285 254.366 95.4853 253.166 92.3496C253.091 92.2484 253.066 92.1473 253.016 92.0259C251.09 87.2314 251.465 80.2722 251.165 74.5673C250.415 68.7815 248.865 65.0996 245.99 64.7557C245.79 64.7557 245.59 64.7152 245.364 64.7557C243.914 64.8366 242.489 64.9782 241.064 65.2008C239.088 65.5042 237.163 65.929 235.238 66.3943C234.513 66.5764 233.788 66.7585 233.062 66.9608C230.912 67.5272 228.762 68.1746 226.636 68.7613C225.936 68.9636 225.236 69.1659 224.536 69.3479C223.136 69.7121 221.736 70.0762 220.335 70.3594C219.635 70.5213 218.96 70.6427 218.26 70.764C217.585 70.8854 216.91 70.9866 216.235 71.0675C214.385 71.3103 212.534 71.4114 210.709 71.29C210.634 71.29 210.559 71.29 210.484 71.2698C208.909 71.1686 207.333 70.9057 205.758 70.4606C204.583 70.1167 203.383 69.6716 202.208 69.0849C201.782 68.8624 201.332 68.6399 200.907 68.3971C200.382 68.0937 199.832 67.7498 199.307 67.3856C184.805 57.4931 184.305 26.2982 164.902 30.6882C145.473 35.0781 137.072 66.0909 126.97 57.4729C116.869 48.8751 104.967 49.8259 101.141 77.3186C97.2906 104.832 86.1389 128.602 75.3371 95.9708C73.4368 90.2457 72.3616 88.4249 71.7865 89.2746C71.7365 89.3353 71.6865 89.396 71.6615 89.4769C71.6115 89.5781 71.5865 89.6792 71.5615 89.8006C71.5365 89.8006 71.5365 89.841 71.5365 89.8613C71.4615 90.0636 71.4115 90.3063 71.3865 90.5896C71.3615 90.63 71.3615 90.6503 71.3865 90.6705C71.3115 90.9335 71.2865 91.2167 71.2615 91.5404C71.2365 91.8438 71.2114 92.1675 71.1864 92.5317C71.1614 92.9767 71.1364 93.4825 71.1114 94.0287C71.1114 94.3321 71.0864 94.6761 71.0864 95.02C71.0364 97.569 71.0614 100.806 71.0864 104.427V105.034C71.1114 109.525 71.1114 114.562 70.9114 119.64C70.9114 120.085 70.9114 120.51 70.8614 120.955C70.8614 121.481 70.8364 122.007 70.7864 122.533C70.7614 123.16 70.7364 123.767 70.6864 124.374C70.6114 125.77 70.5113 127.145 70.3863 128.521C70.3113 129.452 70.2113 130.342 70.1113 131.232C69.9613 132.527 69.7862 133.781 69.5862 134.995C69.4362 136.026 69.2361 137.038 69.0361 138.009C69.0361 138.09 69.0361 138.151 68.9861 138.211C68.6861 139.668 68.336 141.043 67.9109 142.318C67.7359 142.864 67.5359 143.41 67.3358 143.916C67.0608 144.665 66.7357 145.332 66.4107 145.98C66.0606 146.688 65.6606 147.315 65.2605 147.881C64.1853 149.338 62.9101 150.349 61.4099 150.815C60.8098 150.997 60.1847 151.098 59.5096 151.098C58.7845 151.098 58.0593 150.997 57.2592 150.774C56.5841 150.592 55.934 150.329 55.3339 149.985C53.3336 148.893 51.8083 147.011 50.6832 144.523C50.5581 144.28 50.4581 144.017 50.3581 143.754C49.558 141.832 49.0079 139.607 48.5828 137.139C48.4828 136.492 48.3828 135.824 48.3078 135.157C48.2578 134.691 48.2078 134.226 48.1577 133.74C48.1327 133.68 48.1327 133.639 48.1327 133.599C48.1077 133.396 48.0827 133.194 48.0827 132.992C48.0827 132.871 48.0827 132.749 48.0827 132.628C48.0077 131.94 47.9827 131.232 47.9327 130.504C47.9327 130.342 47.9077 130.18 47.9077 130.018C47.9077 129.876 47.9077 129.755 47.8827 129.613C46.9575 108.574 53.1585 77.7637 52.1084 63.9263C52.0584 63.1777 51.9834 62.4697 51.8583 61.8223C51.7833 61.3166 51.6833 60.8715 51.5833 60.4467C51.5333 60.2242 51.4833 60.0219 51.4083 59.8195C51.3333 59.6172 51.2832 59.4149 51.2082 59.2329C51.1332 59.071 51.0582 58.9092 50.9832 58.7474C50.8082 58.3832 50.6331 58.0595 50.4081 57.7965C50.2581 57.574 50.058 57.3919 49.858 57.2503C49.608 57.0683 49.3329 56.9266 49.0329 56.8457C48.9329 56.8255 48.8329 56.785 48.7328 56.785C48.2077 56.7041 47.6077 56.7648 46.9576 56.9873C30.4549 62.6518 36.3308 110.759 23.1537 105.681C16.3026 103.051 14.9274 92.3698 15.2774 79.3821C15.6025 67.4261 17.4028 53.4875 17.7779 41.9968C17.7779 40.9246 17.7528 39.8929 17.6028 38.8814C17.5528 38.4768 17.4778 38.0722 17.3778 37.6676C17.3028 37.3034 17.2278 36.9595 17.1277 36.6156C17.1027 36.5145 17.0777 36.4133 17.0527 36.2919C16.9527 35.9885 16.8527 35.685 16.7527 35.3816C15.9776 33.0753 14.7774 30.9309 13.4021 28.9079C13.2021 28.564 12.9521 28.2403 12.702 27.8964C11.4518 26.1566 10.1016 24.4978 8.72639 22.8794C8.27632 22.3331 7.82625 21.7869 7.35117 21.2407C6.35101 20.0067 5.35085 18.7929 4.4257 17.5791C4.10065 17.134 3.7756 16.6889 3.47555 16.2439C3.27552 15.9607 3.10049 15.6774 2.92546 15.3942C2.5504 14.8075 2.20034 14.2411 1.90029 13.6544C1.77527 13.3914 1.62525 13.1082 1.50023 12.825C1.37521 12.562 4.12565 11.1257 4.12565 10.802C5.17582 12.0967 5.75091 12.3395 6.60105 13.0677C16.2276 21.2812 68.336 19.3391 98.4658 11.5707C116.369 6.12881 138.772 1.71865 165.677 10.6199C184.505 16.8508 230.662 29.3935 266.468 18.5299C309 5.84559 352.107 9.12287 394.639 16.3653C439.421 21.8072 499.055 14.2816 526.235 7.0594C551.139 0.464381 573.192 16.7092 595.571 20.3304C653.78 31.1939 709.739 29.3935 763.473 9.46678C797.053 -5.01798 835.109 29.3935 870.94 38.4363C883.467 41.2078 897.769 40.6616 904.846 38.1733C911.147 35.9682 916.522 32.1245 919.173 28.4224C918.548 30.0206 915.322 42.6442 915.322 42.6644C915.197 42.9476 915.072 43.2309 914.972 43.5141C914.847 43.8175 914.747 44.121 914.647 44.4244C914.472 44.9302 914.322 45.4562 914.197 45.9821C914.147 46.1844 914.097 46.3665 914.072 46.5688C913.997 46.9127 913.922 47.2566 913.872 47.6006C913.872 47.6613 913.872 47.7219 913.872 47.7826C913.722 48.7941 913.672 49.8259 913.697 50.8981C914.072 62.3888 915.872 76.3273 916.197 88.2833L916.097 88.2631Z" fill="#DCF8FF"/>
<path d="M17.7028 34.7359C17.6528 36.0711 17.5778 37.4468 17.5028 38.8224C17.4278 38.2357 17.3278 37.6288 17.1778 37.0624C17.0277 36.4959 16.8777 35.9295 16.6777 35.3833C16.4026 34.5943 16.0776 33.8256 15.7275 33.0771C15.5775 32.7129 15.4025 32.369 15.2024 32.0049C15.0024 31.6205 14.8024 31.2563 14.6024 30.8922C14.2273 30.2651 13.8272 29.6379 13.4272 29.031C13.1521 28.6467 12.9021 28.2623 12.627 27.8779C12.402 27.5542 12.152 27.2306 11.9019 26.9069C11.6769 26.5832 11.4268 26.2595 11.1518 25.9358C11.0268 25.774 10.9018 25.6121 10.7767 25.4503C10.4267 25.0052 10.0766 24.5804 9.72657 24.1353C9.37651 23.7105 9.02645 23.2857 8.6764 22.8811C8.20132 22.3146 7.75125 21.7684 7.27617 21.2222C4.72576 18.1472 2.35038 15.1734 1.02516 11.9973C0.700113 11.1476 0.425068 10.3182 0.25004 9.44828C0.175028 9.14483 0.12502 8.80092 0.100016 8.47723C0 7.78941 0 7.34435 0 6.5756C0 6.31261 0 5.03811 0 4.61328C1.82529 8.15355 3.47556 10.6419 6.52605 13.0492C13.1771 18.3293 17.9779 25.7942 17.7028 34.7562V34.7359Z" fill="#B0E1FF"/>
<path d="M52.0333 64.0901C52.0333 63.8676 51.9833 63.6451 51.9583 63.4225C51.9333 62.9572 51.8833 62.5122 51.8083 62.1076C51.7333 61.4804 51.6333 60.9342 51.4832 60.4082C51.4082 60.1048 51.3332 59.8216 51.2332 59.5586C51.1832 59.3765 51.1082 59.1944 51.0082 59.0124C50.9332 58.7898 50.8331 58.6077 50.7331 58.4257C50.6581 58.2436 50.5581 58.102 50.4331 57.9604C50.3331 57.8188 50.2331 57.6772 50.108 57.5558C50.083 57.5558 50.083 57.5558 50.058 57.5153C49.933 57.3939 49.808 57.2928 49.658 57.1916H49.633C49.633 57.1916 49.4079 57.0298 49.2829 56.9893C49.2829 56.9893 49.2079 56.9489 49.1829 56.9489C49.1079 56.9084 49.0079 56.8882 48.9328 56.868C48.3327 56.6859 47.6576 56.7466 46.8575 57.0096C30.3799 62.6538 36.2558 110.781 23.0787 105.703C16.1526 103.053 14.8023 92.2707 15.2024 79.1413C15.5275 88.8315 17.4778 96.2965 23.0787 98.4409C36.2558 103.519 30.3799 55.3912 46.8575 49.747C51.4832 48.1488 52.4834 54.2785 52.0333 64.0699V64.0901Z" fill="#B0E1FF"/>
<path d="M70.7355 122.797C70.6855 123.971 70.6105 125.124 70.5355 126.257C70.5355 126.378 70.5355 126.52 70.5355 126.661C70.4605 127.491 70.3855 128.3 70.3105 129.109C70.2104 130.04 70.1104 130.97 70.0104 131.881C69.8604 132.993 69.7104 134.066 69.5603 135.118V135.178C69.4603 135.704 69.3853 136.19 69.2853 136.696C69.1853 137.201 69.0853 137.687 68.9852 138.172C68.8102 138.982 68.6352 139.75 68.4352 140.499C68.2601 141.166 68.0601 141.814 67.8601 142.441C67.56 143.311 67.26 144.12 66.9349 144.869C66.8349 145.051 66.7599 145.233 66.6849 145.415C66.4598 145.9 66.2098 146.345 65.9348 146.79C65.7347 147.155 65.5347 147.478 65.3097 147.782C65.1596 147.984 65.0096 148.186 64.8346 148.389C64.6846 148.591 64.5095 148.773 64.3345 148.955C64.0845 149.198 63.8594 149.441 63.6094 149.643C63.2593 149.906 62.9343 150.149 62.5592 150.331C62.3842 150.432 62.2342 150.513 62.0591 150.594C61.8341 150.695 61.6091 150.796 61.384 150.857C60.7839 151.039 60.1588 151.14 59.4837 151.14C58.7586 151.14 58.0335 151.039 57.2334 150.816C57.0083 150.756 56.7833 150.675 56.5582 150.594C54.933 150.007 53.5828 148.975 52.4826 147.559C52.2576 147.296 52.0575 147.013 51.8575 146.709C51.7825 146.608 51.7075 146.507 51.6575 146.406C51.4074 146.042 51.2074 145.658 51.0073 145.253C50.7573 144.788 50.5323 144.282 50.3072 143.756C50.1322 143.311 49.9572 142.846 49.8072 142.36C49.8072 142.279 49.7571 142.198 49.7321 142.137C49.5821 141.733 49.4571 141.308 49.3571 140.863C49.2321 140.398 49.107 139.932 49.007 139.427C48.932 139.123 48.857 138.799 48.807 138.476C48.532 137.181 48.3319 135.805 48.1819 134.369C48.1319 134.005 48.1069 133.641 48.0819 133.277C47.7318 129.676 47.6818 125.69 47.7818 121.483C48.1819 132.973 50.5823 141.713 57.2334 143.574C69.3853 146.932 70.9106 123.445 71.0356 104.469C71.0356 110.032 71.0856 116.486 70.7605 122.797H70.7355Z" fill="#B0E1FF"/>
<path d="M860.289 104.873C860.264 103.74 860.239 102.729 860.189 101.859C860.189 101.555 860.189 101.272 860.139 101.009C860.114 100.584 860.064 100.2 860.014 99.8559C859.989 99.6536 859.964 99.4715 859.939 99.3097C859.914 99.1479 859.889 98.986 859.839 98.8646C859.839 98.7837 859.814 98.723 859.789 98.6826C859.739 98.46 859.664 98.278 859.564 98.1768C859.564 98.1364 859.514 98.0959 859.464 98.0959C859.414 98.0352 859.339 98.015 859.289 98.015C859.239 98.015 859.189 98.0352 859.114 98.0757C858.914 98.1566 858.689 98.4398 858.414 98.9253C858.289 99.1276 858.164 99.3704 858.039 99.6536C857.889 99.9166 857.764 100.24 857.614 100.604C857.539 100.766 857.464 100.948 857.388 101.151C857.313 101.353 857.213 101.555 857.138 101.778C856.813 102.668 856.438 103.7 856.038 104.913C845.211 137.545 834.085 113.774 830.234 86.2613C826.383 58.7281 814.507 57.7773 804.405 66.3953C794.278 74.9931 785.877 43.9803 766.474 39.5702C747.046 35.1802 746.571 66.3953 732.068 76.3081C717.841 86.0185 702.939 74.9931 686.986 73.7591C686.786 73.7591 686.611 73.7793 686.436 73.7995C685.386 73.9614 683.811 74.7706 682.685 76.3081C682.16 77.0364 681.685 77.9062 681.16 78.8166C681.135 78.8368 681.11 78.8368 681.135 78.8571C680.71 79.5247 680.285 80.2125 679.76 80.8598C678.11 83.0042 675.584 84.9059 670.633 85.1082C665.358 85.3105 662.357 83.3482 660.282 81.4061C658.932 80.172 657.956 78.938 657.006 78.2906C656.856 78.1895 656.706 78.0681 656.556 77.9062C656.556 77.9062 656.539 77.9062 656.506 77.9062C644.379 69.7737 650.955 90.0443 623.001 96.6191C595.021 103.214 560.516 43.9399 541.013 37.1223C539.612 36.6368 538.437 36.5154 537.462 36.7177C537.337 36.738 537.212 36.7784 537.087 36.8189C536.962 36.8189 536.837 36.8998 536.737 36.9403C536.387 37.1021 536.062 37.3044 535.787 37.5472C535.662 37.6483 535.537 37.7697 535.437 37.8911C535.337 37.972 535.262 38.0731 535.212 38.1743C535.087 38.3159 534.987 38.4575 534.912 38.5991C534.762 38.8014 534.637 39.024 534.562 39.2667C534.411 39.5297 534.311 39.7927 534.211 40.0962C534.211 40.1164 534.211 40.1366 534.211 40.1568C534.136 40.4401 534.061 40.7031 533.986 40.9458C533.811 41.573 533.686 42.1596 533.536 42.8475C533.361 43.6364 533.136 44.567 532.761 45.8213C531.986 48.5523 529.311 49.402 526.735 48.5523C526.685 48.5321 526.61 48.5119 526.56 48.4917C524.735 47.8443 522.935 47.5004 521.984 47.3183C521.809 47.2778 521.484 47.2172 521.309 47.1969C520.884 47.1565 520.609 47.1767 520.609 47.1767C520.484 47.1767 520.359 47.1767 520.234 47.1969C520.234 47.1969 519.984 47.2374 519.684 47.3183C519.559 47.379 519.309 47.4802 519.184 47.5611C519.059 47.642 518.909 47.7229 518.784 47.8443C518.659 47.9454 518.509 48.0668 518.409 48.2084C518.309 48.3298 518.209 48.4714 518.109 48.6333C517.984 48.8153 517.859 49.0379 517.759 49.2604C517.709 49.3413 517.659 49.402 517.634 49.4829C517.334 50.0696 517.084 50.7574 516.734 51.4857C515.759 53.5694 514.058 55.8959 508.707 56.26C504.557 56.523 501.631 55.6127 499.431 54.3584C497.406 53.2255 495.98 51.8296 494.755 50.7777C494.755 50.7777 494.738 50.7642 494.705 50.7372L494.255 50.3124C494.005 50.0696 493.73 49.8471 493.455 49.665C493.205 49.4425 492.93 49.2604 492.63 49.0986C492.33 48.9165 492.03 48.7344 491.705 48.613C491.355 48.431 491.005 48.2894 490.629 48.168C490.254 48.0466 489.854 47.9454 489.454 47.8645C489.154 47.7836 488.854 47.7431 488.554 47.7229C488.329 47.6825 488.104 47.6622 487.854 47.642C487.554 47.6218 487.254 47.6015 486.954 47.6015C485.904 47.6015 484.779 47.7229 483.553 47.9454C457.899 52.8411 449.023 46.0033 444.872 38.7003H444.447C444.072 38.7003 443.722 38.7205 443.372 38.761C443.272 38.7407 443.147 38.761 443.047 38.7812C442.872 38.7812 442.697 38.8014 442.547 38.8419C442.322 38.8419 442.097 38.9026 441.897 38.9633C441.697 38.9633 441.497 39.0442 441.297 39.1049C441.021 39.1656 440.771 39.2465 440.496 39.3476C440.271 39.4083 440.021 39.5095 439.771 39.6309H439.746C439.746 39.6309 439.671 39.6916 439.646 39.6916C439.446 39.8129 439.246 39.9141 439.046 40.0152C439.021 40.0152 438.971 40.0355 438.946 40.0557C438.796 40.1366 438.646 40.2175 438.496 40.3389C438.396 40.3591 438.321 40.4198 438.246 40.4805C438.171 40.521 438.096 40.5817 438.021 40.6626C437.946 40.7031 437.846 40.7638 437.771 40.8244C437.696 40.8649 437.646 40.9256 437.596 40.9863C437.521 41.047 437.471 41.0874 437.396 41.1481C437.346 41.1886 437.296 41.229 437.221 41.2897C437.171 41.3504 437.121 41.3909 437.096 41.4313C436.746 41.7348 436.471 42.0382 436.196 42.3417C435.946 42.6249 435.696 42.8879 435.446 43.1711C434.87 43.8387 433.72 45.3358 431.745 46.4686C430.27 47.3183 428.319 47.9657 425.794 47.8848C419.893 47.7229 416.217 44.2029 414.842 42.2405C414.117 41.2088 413.742 40.258 413.167 39.5702C412.992 39.3274 412.817 39.1251 412.617 38.9633C412.492 38.8419 412.367 38.761 412.267 38.7003C412.242 38.6598 412.217 38.6598 412.192 38.6396C411.792 38.3766 411.292 38.2552 410.742 38.235C410.191 38.235 409.691 38.2754 409.216 38.4171C409.116 38.4373 408.991 38.4777 408.891 38.5182C408.666 38.5991 408.441 38.7003 408.241 38.8217C407.966 38.9633 407.716 39.1251 407.491 39.3274C407.441 39.3679 407.416 39.4083 407.391 39.4286C407.191 39.6106 407.016 39.7927 406.841 39.9748C406.016 40.6626 405.266 41.1077 404.466 41.2897C403.765 41.4516 403.015 41.3909 402.115 41.1481C400.015 40.5817 398.365 37.2437 397.815 34.1283C397.765 33.9664 397.74 33.8248 397.714 33.663C397.389 31.3567 396.839 30.1632 396.189 29.3337C396.114 29.2528 396.064 29.1921 396.014 29.1314C395.964 29.0707 395.914 29.0101 395.864 28.9494C395.814 28.9089 395.764 28.8482 395.689 28.8078C395.564 28.6864 395.439 28.565 395.314 28.4638C395.239 28.3829 395.139 28.3222 395.039 28.2818C394.964 28.2211 394.864 28.1604 394.764 28.1402C394.639 28.0592 394.514 27.9985 394.364 27.9379C393.314 27.5737 391.989 27.6344 390.313 28.2211C370.81 34.9982 336.305 94.2926 308.35 87.7179C306.975 87.3942 305.7 87.03 304.474 86.6457C304.074 86.5243 303.674 86.3827 303.299 86.2613C302.949 86.1399 302.624 86.0388 302.299 85.9174C301.724 85.6948 301.174 85.4723 300.649 85.2498C300.074 85.0272 299.549 84.7845 299.024 84.5013C298.624 84.3394 298.248 84.1371 297.898 83.9348C297.523 83.7528 297.173 83.5504 296.823 83.3481C296.423 83.1256 296.023 82.9031 295.648 82.6603C295.123 82.3366 294.623 82.013 294.148 81.669C294.098 81.6488 294.023 81.6084 293.973 81.5477C293.473 81.2038 292.998 80.8396 292.548 80.4755C292.072 80.0911 291.622 79.7067 291.197 79.3224C290.772 78.938 290.372 78.5738 289.997 78.1895C289.822 78.0479 289.672 77.886 289.547 77.7242C288.497 76.6317 287.622 75.5393 286.847 74.5076C285.471 72.6464 284.421 70.9269 283.396 69.6321C283.396 69.5917 283.371 69.5714 283.346 69.5512C283.121 69.2478 282.896 68.9848 282.646 68.742C282.421 68.4588 282.196 68.2565 281.946 68.0542C281.746 67.8721 281.521 67.7103 281.321 67.6091L281.271 67.5687C281.046 67.4473 280.846 67.3461 280.621 67.2652C279.345 66.7797 277.795 67.0831 275.57 68.5397C275.32 68.6813 275.095 68.8432 274.845 69.005C274.47 69.268 274.095 69.5917 273.77 70.0165C273.644 70.1581 273.519 70.32 273.444 70.4818C273.344 70.6436 273.244 70.8055 273.119 70.9875C272.944 71.3112 272.769 71.6551 272.619 72.0193C272.544 72.2216 272.444 72.4643 272.369 72.6869C272.294 72.9094 272.244 73.1522 272.169 73.3747C271.419 75.8832 271.019 79.2212 270.869 83.1661V83.4493C270.969 89.9634 269.819 95.4458 264.768 97.1855C264.693 97.226 264.618 97.2462 264.543 97.2665C263.593 97.6306 262.493 97.8127 261.217 97.7722C260.942 97.7722 260.692 97.7722 260.442 97.7318C256.417 97.5699 254.166 95.3851 252.991 92.0471C252.841 91.7234 252.741 91.3593 252.616 90.9951C251.091 86.2006 251.441 79.6865 251.116 74.366C251.116 74.2851 251.091 74.2041 251.091 74.1232C250.291 68.6206 248.74 65.1208 245.94 64.7971C245.74 64.7769 245.54 64.7567 245.315 64.7769C244.59 64.8174 243.865 64.8781 243.14 64.959C240.864 65.1815 238.614 65.6063 236.363 66.1525C235.613 66.3144 234.863 66.5167 234.113 66.6988C232.913 67.0224 231.688 67.3664 230.463 67.7103C228.662 68.216 226.862 68.742 225.062 69.2275C223.286 69.7131 221.511 70.1581 219.736 70.5223C218.561 70.7448 217.385 70.9471 216.21 71.0887C214.885 71.2708 213.585 71.3517 212.285 71.3517C211.76 71.3517 211.259 71.3517 210.734 71.3112C210.734 71.3315 210.684 71.3315 210.659 71.3112C210.184 71.291 209.734 71.2505 209.284 71.1898C208.634 71.1089 207.984 71.0078 207.359 70.8864C207.259 70.8662 207.134 70.8257 207.009 70.8055C206.659 70.7246 206.334 70.6436 205.984 70.5425C205.634 70.4413 205.283 70.3402 204.933 70.239C203.958 69.9154 203.008 69.5107 202.033 69.0252C201.833 68.9241 201.658 68.8229 201.458 68.7218C200.733 68.3374 200.008 67.9126 199.283 67.4068C184.755 57.5143 184.28 26.2992 164.877 30.6892C145.449 35.0791 137.048 66.1121 126.946 57.4941C116.844 48.8963 104.942 49.8471 101.092 77.36C97.2411 104.873 86.1143 128.664 75.2876 96.0324C75.1125 95.466 74.9125 94.94 74.7375 94.4545C74.7125 94.3331 74.6625 94.2117 74.6124 94.0903C74.2124 92.917 73.8373 91.9459 73.5123 91.2177C73.3122 90.7726 73.1372 90.3882 72.9622 90.105C72.5871 89.4172 72.2621 89.1137 72.037 89.134C71.962 89.134 71.862 89.1744 71.812 89.2553C71.737 89.3565 71.662 89.4779 71.587 89.6397C71.5119 89.8016 71.4619 90.0039 71.4119 90.2264C71.4369 90.2466 71.4119 90.2466 71.4119 90.2668C71.3619 90.5096 71.3119 90.7928 71.2869 91.0963C71.2369 91.3997 71.2119 91.7639 71.1869 92.1482C71.1869 92.5326 71.1369 92.9372 71.1119 93.3823C71.1119 93.6048 71.0869 93.8273 71.0869 94.0701V94.3533C71.0619 94.4949 71.0619 94.6366 71.0619 94.7984C71.0369 94.8793 71.0369 94.9602 71.0369 95.0412C70.9869 82.6199 71.0619 75.9844 75.2876 88.79C86.1143 121.401 97.2411 97.6306 101.092 70.1176C104.942 42.6047 116.844 41.6336 126.946 50.2517C137.048 58.8697 145.449 27.8367 164.877 23.4468C184.28 19.0568 184.755 50.2719 199.283 60.1644C213.785 70.0772 228.987 58.4044 245.315 57.5345C250.791 57.2513 251.916 67.9935 251.841 82.3973C252.266 89.3363 254.391 94.5556 261.217 94.4342C266.568 94.3533 269.119 91.5009 270.194 87.3335C270.519 86.0387 270.719 84.6024 270.794 83.0649V82.3164C270.794 82.3164 270.769 82.2962 270.794 82.2759C270.769 82.2557 270.769 82.2355 270.794 82.195C270.794 82.195 270.794 82.1815 270.794 82.1546C270.794 82.1546 270.769 82.1343 270.794 82.1141C270.794 82.1141 270.794 82.1006 270.794 82.0737C270.794 82.0737 270.769 82.0534 270.794 82.0332C270.794 82.0332 270.794 82.0197 270.794 81.9927C270.794 81.9927 270.769 81.9523 270.794 81.932C270.694 71.7563 271.544 63.9677 274.845 61.7626C286.972 53.6301 280.371 73.8602 308.35 80.4552C336.305 87.0503 370.81 27.7558 390.313 20.9787C395.039 19.3198 397.114 21.8486 397.714 26.6634V26.7038C397.764 26.9668 397.815 27.25 397.84 27.6142C398.265 31.822 399.84 33.6023 402.015 34.3103C403.64 34.8363 404.891 34.5936 406.416 33.0763C406.691 32.7931 406.966 32.5503 407.216 32.348C407.491 32.085 407.766 31.903 407.991 31.7411C408.091 31.6602 408.191 31.5995 408.291 31.5388C408.291 31.5388 408.308 31.5388 408.341 31.5388C408.491 31.4579 408.641 31.377 408.816 31.3163C408.916 31.2758 408.966 31.2758 408.966 31.2758C409.491 31.0938 410.091 30.9926 410.742 31.0128C412.267 31.0533 413.292 32.0446 413.892 33.8248C415.692 37.0414 417.668 39.287 422.593 39.6713C428.669 40.1366 431.895 38.4171 435.221 35.7669C435.846 35.2612 436.446 34.7554 436.821 34.452C436.846 34.3913 436.896 34.371 436.921 34.3508C437.021 34.2497 437.121 34.1485 437.221 34.0676L437.271 34.0271C439.221 32.3076 441.697 31.3972 444.872 31.4781C449.023 38.761 457.899 45.5988 483.553 40.7031C485.604 40.3187 487.429 40.2782 489.029 40.5412C489.029 40.5412 489.046 40.548 489.079 40.5614C490.704 40.9863 492.18 41.5527 493.43 42.4226C493.605 42.544 493.78 42.6654 493.955 42.8272C494.155 42.9688 494.33 43.1307 494.505 43.3127C494.68 43.4746 494.855 43.6567 495.03 43.859C495.18 44.0208 495.33 44.2029 495.455 44.3849C495.53 44.5063 495.63 44.6277 495.755 44.7491C497.556 46.8126 502.131 49.3211 508.282 48.613C514.783 47.8848 516.934 42.9081 517.984 41.5325C518.584 40.5412 519.384 39.995 520.484 39.9343H520.909C521.559 39.9343 522.76 40.0152 524.41 40.6424C528.11 42.0382 530.486 40.4401 532.136 37.9518C533.286 36.2524 533.636 34.6138 534.161 33.1572C534.286 32.8133 534.387 32.4896 534.512 32.1862C534.512 32.1457 534.512 32.1255 534.562 32.085C535.662 29.6776 537.662 28.7268 541.038 29.9002C560.541 36.6773 595.046 95.992 623.026 89.3969C647.955 83.51 645.429 66.7797 653.181 69.005C653.231 69.005 653.281 69.0252 653.356 69.0455C656.081 69.8142 660.482 72.6262 663.407 76.1867C666.408 79.8281 675.034 79.8888 677.76 75.7619C680.485 71.6349 680.96 68.3981 683.961 66.982C684.586 66.5976 685.261 66.4155 686.036 66.456C702.364 67.3259 717.566 78.9987 732.093 69.1061C746.596 59.1934 747.071 27.9783 766.499 32.3683C785.902 36.7582 794.303 67.7912 804.43 59.1732C814.532 50.5754 826.408 51.5262 830.259 79.0391C834.11 106.572 845.237 130.343 856.063 97.7115C860.389 84.5822 860.389 91.9055 860.314 104.913L860.289 104.873Z" fill="#B0E1FF"/>
<path d="M916.122 94.7579C916.122 95.2839 916.097 95.8098 916.072 96.3358C916.072 96.882 916.022 97.4282 915.972 97.9542C915.922 98.6016 915.872 99.249 915.797 99.8559C915.672 101.11 915.522 102.283 915.297 103.416C915.197 103.983 915.097 104.529 914.947 105.055C914.872 105.399 914.796 105.763 914.671 106.107C914.596 106.39 914.521 106.653 914.421 106.916C914.271 107.381 914.121 107.827 913.946 108.251C913.946 108.292 913.946 108.332 913.896 108.373C913.821 108.616 913.721 108.838 913.621 109.061C913.621 109.101 913.571 109.162 913.546 109.202C913.471 109.384 913.371 109.566 913.271 109.748C913.096 110.092 912.921 110.416 912.721 110.74C912.521 111.063 912.321 111.367 912.096 111.65C911.571 112.318 910.996 112.904 910.371 113.41C909.721 113.896 909.021 114.3 908.245 114.604C895.068 119.681 900.919 71.5539 884.442 65.9097C883.666 65.6467 882.991 65.586 882.391 65.7681C882.291 65.7883 882.216 65.8086 882.116 65.849C882.116 65.849 882.091 65.849 882.066 65.849C881.941 65.9097 881.791 65.9704 881.666 66.0716H881.641C881.641 66.0716 881.466 66.2132 881.366 66.2941C880.391 67.164 879.766 68.8835 879.466 71.2505C879.466 71.4123 879.416 71.5742 879.391 71.7562C879.391 71.9383 879.391 72.1204 879.341 72.3024C879.341 72.5047 879.291 72.7475 879.266 72.97C878.816 63.1787 879.816 57.0489 884.442 58.6471C900.919 64.2913 895.068 112.419 908.245 107.341C913.771 105.217 915.722 97.8733 916.122 88.3247C916.197 90.55 916.197 92.6944 916.122 94.7376V94.7579Z" fill="#B0E1FF"/>
<path d="M931.125 18.0259C931 18.6935 930.85 19.3409 930.625 19.968C930.4 20.6154 930.15 21.2627 929.849 21.8899C929.574 22.4361 929.274 22.9621 928.974 23.4881C927.799 25.4504 926.299 27.3925 924.674 29.3346C924.224 29.901 923.723 30.4674 923.248 31.0541C922.823 31.5396 922.423 32.0454 922.023 32.5309C921.698 32.9153 921.398 33.2794 921.098 33.6436C920.373 34.5135 919.698 35.4036 919.023 36.314C918.823 36.5972 918.598 36.8804 918.423 37.1636C918.023 37.7098 917.672 38.256 917.322 38.8023C917.247 38.9034 917.197 38.9843 917.147 39.0855C916.772 39.6721 916.422 40.2791 916.097 40.9062C915.822 41.4524 915.547 42.0188 915.297 42.5853C915.297 42.5853 915.297 42.6257 915.297 42.646C915.172 42.9494 915.047 43.2529 914.922 43.5563C914.797 43.8598 914.697 44.1632 914.597 44.4667C914.597 44.5274 914.547 44.5881 914.547 44.6488C914.447 44.932 914.347 45.2354 914.297 45.5389C914.247 45.5996 914.247 45.6603 914.247 45.7412C914.147 46.0042 914.097 46.2672 914.047 46.5504C913.947 46.8943 913.897 47.2584 913.847 47.6226C913.847 47.663 913.847 47.7237 913.847 47.7642C913.772 46.3683 913.697 44.9927 913.672 43.6372C913.672 43.3136 913.672 42.9899 913.672 42.6662C913.897 29.7999 928.774 19.0172 931.8 9.36743C931.75 10.4599 931.7 11.795 931.65 12.6852C931.475 15.7804 931.3 17.0751 931.15 18.0259H931.125Z" fill="#B0E1FF"/>
<path d="M874.065 152.435C861.913 155.793 860.413 132.326 860.263 113.391C860.188 132.852 860.288 163.46 874.065 159.657C882.066 157.452 883.891 145.192 883.491 130.202C883.116 141.753 880.741 150.574 874.065 152.415V152.435Z" fill="#B0E1FF"/>
</g>
<defs>
<clipPath id="clip0_6875_23855">
<rect width="932" height="160" fill="white"/>
</clipPath>
</defs>
</svg>
