<svg width="30" height="30" viewBox="0 0 30 30" fill="none" xmlns="http://www.w3.org/2000/svg">
<path d="M19.6104 0C28.016 6.53509e-05 30 2.00039 30 10.4062V19.6104C30 28.0162 27.9997 30 19.5938 30H10.3896C1.98389 30 0 27.9997 0 19.5938V10.3906C0 2.00062 2.00025 0 10.4062 0H19.6104ZM15.1465 6.03906C10.1868 6.03906 6.00024 9.87703 6 14.9785C6 17.1146 6.39504 18.5893 6.74316 19.9131C7.03543 20.9876 7.29395 21.972 7.29395 23.1367C7.41886 24.6878 10.2759 23.7813 11.1787 22.6211C12.6056 23.6526 13.4269 23.9102 15.1934 23.9102C20.0764 23.8841 24.0166 19.9094 24 15.0264C24 10.0666 20.1104 6.0393 15.1465 6.03906ZM15.2666 10.4492V10.4531C17.7696 10.5966 19.6963 12.7185 19.5986 15.2236C19.4306 17.7237 17.2919 19.6292 14.7891 19.5088C14.0056 19.4459 13.2521 19.1782 12.6055 18.7314C12.2143 19.1225 11.5871 19.6295 11.3379 19.5693C10.8179 19.4315 10.208 16.7885 10.5518 14.6182C10.9687 11.9964 12.8511 10.3246 15.2666 10.4492Z" fill="white"/>
</svg>
