<svg width="40" height="40" viewBox="0 0 40 40" fill="none" xmlns="http://www.w3.org/2000/svg">
<path fill-rule="evenodd" clip-rule="evenodd" d="M20 36C28.8366 36 36 28.8366 36 20C36 11.1634 28.8366 4 20 4C11.1634 4 4 11.1634 4 20C4 28.8366 11.1634 36 20 36ZM19.6256 9.83548C18.4546 9.98905 17.6676 10.2386 16.775 10.9297C16.3815 11.2368 16.1127 11.5151 15.8056 11.9183C15.5272 12.2734 15.2681 12.7533 15.0953 13.1852C14.4043 14.9896 14.7786 16.8037 15.8728 18.3106C16.3527 18.9633 17.3797 19.7215 18.1379 19.9807C18.8962 20.2398 19.5104 20.3646 20.3935 20.3166C24.0983 20.0862 26.4211 16.055 24.6742 12.6477C24.511 12.331 24.3479 12.1102 24.1559 11.8511C23.1865 10.5265 21.2189 9.62432 19.6256 9.83548ZM19.6448 12.9357C18.4163 13.1852 17.6772 14.2602 17.8596 15.4216C18.0323 16.487 19.0689 17.4564 20.3839 17.226C22.2939 16.8901 22.793 14.4618 21.3533 13.3676C20.9502 13.0604 20.2975 12.8013 19.6448 12.9357ZM17.4326 29.4104C17.3808 29.4624 17.3429 29.5003 17.3221 29.5212C16.3047 30.5482 14.7978 30.4138 14.5194 28.9741C14.3497 28.1167 14.8283 27.6582 15.1972 27.3047C15.2248 27.2783 15.2517 27.2526 15.2777 27.2272C15.3095 27.1953 15.4068 27.0993 15.546 26.9617C16.2036 26.3121 17.7979 24.737 17.8692 24.6261C16.8902 24.3862 15.9975 24.0407 15.2105 23.5799L15.1877 23.5671C14.758 23.3243 14.4486 23.1495 14.2411 22.6873C13.838 21.7659 14.4234 20.5757 15.5656 20.5182C16.0281 20.4883 16.3515 20.6788 16.6664 20.8643C16.7566 20.9175 16.8462 20.9702 16.9381 21.0173C18.9249 22.0155 20.9693 22.0059 22.9849 21.0748C23.113 21.0136 23.2266 20.9443 23.338 20.8762C23.6106 20.7097 23.8706 20.551 24.2999 20.5374C25.3365 20.5086 26.1715 21.5356 25.778 22.6201C25.6052 23.1192 25.2789 23.3208 24.8374 23.5607C24.0215 24.0215 23.1769 24.3766 22.1595 24.6261C22.2304 24.7443 23.7824 26.2725 24.437 26.917C24.5798 27.0576 24.6799 27.1562 24.7126 27.1888C24.7466 27.2237 24.7826 27.2596 24.82 27.2966C25.1729 27.6474 25.6376 28.1092 25.49 28.9165C25.4612 29.0892 25.3941 29.2524 25.3173 29.3868C25.0773 29.8379 24.6934 30.0395 24.1751 30.1738C23.4936 30.2026 23.1193 29.9723 22.8026 29.6459L20.4894 27.3232C20.4578 27.2916 20.4225 27.2547 20.3851 27.2156C20.2634 27.0884 20.1196 26.9382 20.0095 26.8721C19.8873 26.9507 17.9544 28.8876 17.4326 29.4104Z" fill="white"/>
</svg>
