<svg width="12" height="12" viewBox="0 0 12 12" version="1.1" xmlns="http://www.w3.org/2000/svg" xmlns:xlink="http://www.w3.org/1999/xlink">
<title>Vector</title>
<desc>Created using Figma</desc>
<g id="Canvas" transform="translate(8902 -20152)">
<g id="Vector">
<use xlink:href="#path0_fill" transform="translate(-8901 20153)" fill="#9AC2D4"/>
<use xlink:href="#path1_fill" transform="translate(-8901 20153)" fill="#9AC2D4"/>
<mask id="mask0_outline_out">
<rect id="mask0_outline_inv" fill="white" x="-1" y="-1" width="12" height="12" transform="translate(-8901 20153)"/>
<use xlink:href="#path0_fill" fill="black" transform="translate(-8901 20153)"/>
<use xlink:href="#path1_fill" fill="black" transform="translate(-8901 20153)"/>
</mask>
<g mask="url(#mask0_outline_out)">
<use xlink:href="#path2_stroke_2x" transform="translate(-8901 20153)" fill="#9AC2D4"/>
</g>
</g>
</g>
<defs>
<path id="path0_fill" d="M 5 0.888889C 7.26667 0.888889 9.11111 2.73333 9.11111 5C 9.11111 7.26667 7.26667 9.11111 5 9.11111C 2.73333 9.11111 0.888889 7.26667 0.888889 5C 0.888889 2.73333 2.73333 0.888889 5 0.888889ZM 5 0C 2.23333 0 0 2.23333 0 5C 0 7.76667 2.23333 10 5 10C 7.76667 10 10 7.76667 10 5C 10 2.23333 7.76667 0 5 0Z"/>
<path id="path1_fill" d="M 6.92227 4.8895L 5.21115 4.8895L 5.21115 2.95616C 5.21115 2.71172 5.01115 2.51172 4.76671 2.51172C 4.52227 2.51172 4.32227 2.71172 4.32227 2.95616L 4.32227 5.11172C 4.32227 5.15616 4.33338 5.1895 4.33338 5.22283C 4.32227 5.25616 4.32227 5.30061 4.32227 5.33394C 4.32227 5.57839 4.52227 5.77839 4.76671 5.77839L 6.92227 5.77839C 7.16671 5.77839 7.36671 5.57839 7.36671 5.33394C 7.36671 5.0895 7.16671 4.8895 6.92227 4.8895Z"/>
<path id="path2_stroke_2x" d="M 5.21115 4.8895L 4.96115 4.8895L 4.96115 5.1395L 5.21115 5.1395L 5.21115 4.8895ZM 4.33338 5.22283L 4.57055 5.30189L 4.58338 5.2634L 4.58338 5.22283L 4.33338 5.22283ZM 5 1.13889C 7.1286 1.13889 8.86111 2.8714 8.86111 5L 9.36111 5C 9.36111 2.59526 7.40474 0.638889 5 0.638889L 5 1.13889ZM 8.86111 5C 8.86111 7.1286 7.1286 8.86111 5 8.86111L 5 9.36111C 7.40474 9.36111 9.36111 7.40474 9.36111 5L 8.86111 5ZM 5 8.86111C 2.8714 8.86111 1.13889 7.1286 1.13889 5L 0.638889 5C 0.638889 7.40474 2.59526 9.36111 5 9.36111L 5 8.86111ZM 1.13889 5C 1.13889 2.8714 2.8714 1.13889 5 1.13889L 5 0.638889C 2.59526 0.638889 0.638889 2.59526 0.638889 5L 1.13889 5ZM 5 -0.25C 2.09526 -0.25 -0.25 2.09526 -0.25 5L 0.25 5C 0.25 2.3714 2.3714 0.25 5 0.25L 5 -0.25ZM -0.25 5C -0.25 7.90474 2.09526 10.25 5 10.25L 5 9.75C 2.3714 9.75 0.25 7.6286 0.25 5L -0.25 5ZM 5 10.25C 7.90474 10.25 10.25 7.90474 10.25 5L 9.75 5C 9.75 7.6286 7.6286 9.75 5 9.75L 5 10.25ZM 10.25 5C 10.25 2.09526 7.90474 -0.25 5 -0.25L 5 0.25C 7.6286 0.25 9.75 2.3714 9.75 5L 10.25 5ZM 6.92227 4.6395L 5.21115 4.6395L 5.21115 5.1395L 6.92227 5.1395L 6.92227 4.6395ZM 5.46115 4.8895L 5.46115 2.95616L 4.96115 2.95616L 4.96115 4.8895L 5.46115 4.8895ZM 5.46115 2.95616C 5.46115 2.57365 5.14923 2.26172 4.76671 2.26172L 4.76671 2.76172C 4.87308 2.76172 4.96115 2.84979 4.96115 2.95616L 5.46115 2.95616ZM 4.76671 2.26172C 4.38419 2.26172 4.07227 2.57365 4.07227 2.95616L 4.57227 2.95616C 4.57227 2.84979 4.66034 2.76172 4.76671 2.76172L 4.76671 2.26172ZM 4.07227 2.95616L 4.07227 5.11172L 4.57227 5.11172L 4.57227 2.95616L 4.07227 2.95616ZM 4.07227 5.11172C 4.07227 5.15443 4.07774 5.19002 4.08073 5.20946C 4.08248 5.22082 4.08305 5.22442 4.08349 5.22804C 4.08381 5.23064 4.08338 5.22813 4.08338 5.22283L 4.58338 5.22283C 4.58338 5.20086 4.58155 5.18169 4.57979 5.16727C 4.57815 5.15388 4.57594 5.14012 4.57491 5.13343C 4.57235 5.11676 4.57227 5.11345 4.57227 5.11172L 4.07227 5.11172ZM 4.09621 5.14377C 4.06968 5.22334 4.07227 5.31228 4.07227 5.33394L 4.57227 5.33394C 4.57227 5.32533 4.57227 5.31855 4.5724 5.31183C 4.57252 5.30527 4.57273 5.30019 4.57302 5.2962C 4.57331 5.29212 4.57359 5.29045 4.57355 5.29067C 4.57355 5.29069 4.57288 5.29488 4.57055 5.30189L 4.09621 5.14377ZM 4.07227 5.33394C 4.07227 5.71646 4.38419 6.02839 4.76671 6.02839L 4.76671 5.52839C 4.66034 5.52839 4.57227 5.44031 4.57227 5.33394L 4.07227 5.33394ZM 4.76671 6.02839L 6.92227 6.02839L 6.92227 5.52839L 4.76671 5.52839L 4.76671 6.02839ZM 6.92227 6.02839C 7.30478 6.02839 7.61671 5.71646 7.61671 5.33394L 7.11671 5.33394C 7.11671 5.44031 7.02864 5.52839 6.92227 5.52839L 6.92227 6.02839ZM 7.61671 5.33394C 7.61671 4.95143 7.30478 4.6395 6.92227 4.6395L 6.92227 5.1395C 7.02864 5.1395 7.11671 5.22757 7.11671 5.33394L 7.61671 5.33394Z"/>
</defs>
</svg>
