<svg width="48" height="42" viewBox="0 0 48 42" version="1.1" xmlns="http://www.w3.org/2000/svg" xmlns:xlink="http://www.w3.org/1999/xlink">
<title>Vector</title>
<desc>Created using Figma</desc>
<g id="Canvas" transform="translate(-17386 -13687)">
<g id="Vector">
<use xlink:href="#path0_fill" transform="translate(17386 13687)" fill="#DA773B"/>
<use xlink:href="#path1_fill" transform="translate(17386 13687)" fill="#DA773B"/>
<use xlink:href="#path2_fill" transform="translate(17386 13687)" fill="#DA773B"/>
<use xlink:href="#path3_fill" transform="translate(17386 13687)" fill="#DA773B"/>
<use xlink:href="#path4_fill" transform="translate(17386 13687)" fill="#DA773B"/>
<use xlink:href="#path5_fill" transform="translate(17386 13687)" fill="#DA773B"/>
<use xlink:href="#path6_fill" transform="translate(17386 13687)" fill="#DA773B"/>
<use xlink:href="#path7_fill" transform="translate(17386 13687)" fill="#DA773B"/>
<use xlink:href="#path8_fill" transform="translate(17386 13687)" fill="#DA773B"/>
<use xlink:href="#path9_fill" transform="translate(17386 13687)" fill="#DA773B"/>
</g>
</g>
<defs>
<path id="path0_fill" d="M 30.3532 32.3992C 34.0455 28.0855 40.3271 26.8005 45.8896 27.6266L 47.0404 27.8101L 46.3211 28.728C 42.7727 33.1793 36.2512 34.602 30.7368 33.5006L 29.5859 33.2711L 30.3532 32.3992Z"/>
<path id="path1_fill" d="M 31.7933 0.642469C 35.6774 3.62536 38.0271 8.58155 37.0201 13.3542L 36.8283 14.4097L 35.9172 13.7672C 31.9372 10.922 29.2519 5.69044 30.6425 0.963703L 30.9302 0L 31.7933 0.642469Z"/>
<path id="path2_fill" d="M 47.8067 15.9695C 47.0394 21.2011 43.1553 26.4326 37.5929 27.6258L 36.5859 27.8552L 36.7777 26.8456C 37.7847 21.66 41.5729 16.8874 46.9435 15.2353L 47.9985 14.9141L 47.8067 15.9695Z"/>
<path id="path3_fill" d="M 42.0056 4.5887C 44.0675 9.13187 43.4441 14.6387 40.2793 18.5853L 39.5121 19.5032L 39.0326 18.4018C 37.1145 13.8586 37.594 8.35173 40.8068 4.45102L 41.5261 3.5791L 42.0056 4.5887Z"/>
<path id="path4_fill" d="M 7.14647 4.45199C 10.3592 8.39859 10.8388 13.8596 8.92068 18.4027L 8.44117 19.5041L 7.67394 18.5863C 4.50912 14.6397 3.88574 9.13284 5.94767 4.58966L 6.42719 3.53418L 7.14647 4.45199Z"/>
<path id="path5_fill" d="M 17.2138 33.4997C 11.6993 34.6011 5.17787 33.1785 1.62943 28.7271L 0.910156 27.8093L 2.061 27.6257C 7.62341 26.7997 13.9051 28.0387 17.5974 32.3983L 18.3167 33.2702L 17.2138 33.4997Z"/>
<path id="path6_fill" d="M 17.3097 0.963703C 18.7482 5.69044 16.0629 10.922 12.035 13.7672L 11.1239 14.4097L 10.9321 13.3542C 9.97302 8.58155 12.2747 3.62536 16.1588 0.642469L 17.0219 0L 17.3097 0.963703Z"/>
<path id="path7_fill" d="M 1.05494 15.2353C 6.42554 16.8415 10.2137 21.6141 11.2207 26.8456L 11.4125 27.8552L 10.4055 27.6258C 4.79518 26.4326 0.911084 21.2011 0.143855 15.9695L 0 14.9141L 1.05494 15.2353Z"/>
<path id="path8_fill" d="M 27.8611 37.2177C 28.7722 38.1355 29.6832 39.0074 30.7861 39.7417L 31.5534 40.2006L 30.882 40.7972C 30.5943 41.0266 30.3546 41.2561 30.0669 41.5314L 29.7312 41.8068L 29.2996 41.6232C 26.7102 40.5677 25.9909 37.9061 23.977 36.667C 21.963 37.9061 21.2437 40.5677 18.6543 41.6232L 18.2228 41.8068L 17.8871 41.4855C 17.5994 41.2561 17.3596 41.0266 17.0719 40.7513L 16.4006 40.1547L 17.1678 39.6958C 18.2707 39.0074 19.1818 38.0896 20.0929 37.1718C 18.8461 37.7684 17.6473 38.4568 16.2088 38.6862C 13.7153 39.0992 10.982 39.2369 8.58444 38.2273L 7.43359 37.7225L 8.48853 37.0341C 10.8382 35.4739 13.3796 34.0054 16.3526 33.7759C 18.6543 33.6382 21.004 33.73 23.3056 34.1889L 23.4015 34.1889C 23.8331 34.3266 24.2647 34.3266 24.6962 34.1889L 24.7922 34.1889C 27.0459 33.6841 29.3955 33.6382 31.7452 33.7759C 34.6702 34.0054 37.2117 35.4739 39.6093 37.0341L 40.6642 37.7225L 39.5134 38.2273C 37.1158 39.2369 34.4305 39.0992 31.889 38.6862C 30.3546 38.5027 29.1078 37.8143 27.8611 37.2177Z"/>
<path id="path9_fill" d="M 22.4219 18.2764L 23.7598 18.2764C 24.2676 18.2764 24.6387 18.1006 24.873 17.749C 25.1139 17.391 25.2344 16.9157 25.2344 16.3232C 25.2344 15.7568 25.1107 15.3174 24.8633 15.0049C 24.6224 14.6859 24.2969 14.5264 23.8867 14.5264C 23.5026 14.5264 23.1868 14.6761 22.9395 14.9756C 22.6986 15.2751 22.5781 15.6527 22.5781 16.1084L 19.8145 16.1084C 19.8145 15.3662 19.9837 14.7021 20.3223 14.1162C 20.6673 13.5238 21.1458 13.0615 21.7578 12.7295C 22.3763 12.3975 23.0599 12.2314 23.8086 12.2314C 25.1172 12.2314 26.1426 12.5928 26.8848 13.3154C 27.627 14.0381 27.998 15.0277 27.998 16.2842C 27.998 16.9287 27.8288 17.5277 27.4902 18.0811C 27.1582 18.6279 26.7188 19.0479 26.1719 19.3408C 26.8424 19.6273 27.3405 20.057 27.666 20.6299C 27.998 21.2028 28.1641 21.8799 28.1641 22.6611C 28.1641 23.9242 27.7604 24.9365 26.9531 25.6982C 26.1523 26.46 25.0977 26.8408 23.7891 26.8408C 22.5716 26.8408 21.582 26.4665 20.8203 25.7178C 20.0651 24.9626 19.6875 23.973 19.6875 22.749L 22.4512 22.749C 22.4512 23.2568 22.5846 23.6833 22.8516 24.0283C 23.1185 24.3734 23.457 24.5459 23.8672 24.5459C 24.3424 24.5459 24.7168 24.3701 24.9902 24.0186C 25.2702 23.667 25.4102 23.1982 25.4102 22.6123C 25.4102 21.2126 24.8665 20.5094 23.7793 20.5029L 22.4219 20.5029L 22.4219 18.2764Z"/>
</defs>
</svg>
