<svg width="21" height="21" viewBox="0 0 21 21" fill="none" xmlns="http://www.w3.org/2000/svg">
<path d="M17.6351 10.0607C17.392 9.8329 17.097 9.71908 16.7496 9.71908H16.3331V7.37597C16.3331 5.87909 15.7604 4.59382 14.6145 3.51996C13.4687 2.44604 12.0974 1.90909 10.4999 1.90909C8.90253 1.90909 7.53097 2.44604 6.38525 3.51991C5.23935 4.59382 4.66659 5.87905 4.66659 7.37597V9.71908H4.24997C3.90287 9.71908 3.60766 9.8329 3.36458 10.0607C3.12149 10.2883 3 10.565 3 10.8906V17.9195C3 18.2448 3.12154 18.5215 3.36458 18.7494C3.60766 18.977 3.90287 19.0909 4.24997 19.0909H16.7499C17.0973 19.0909 17.3923 18.9771 17.6354 18.7494C17.8783 18.5215 18 18.2448 18 17.9195V10.8905C18.0002 10.5651 17.8783 10.2885 17.6351 10.0607ZM13.8332 9.71908H7.16662V7.37597C7.16662 6.51367 7.49221 5.77737 8.14323 5.16732C8.79435 4.5572 9.57987 4.2522 10.5001 4.2522C11.4204 4.2522 12.2057 4.55715 12.8569 5.16732C13.5077 5.77732 13.8332 6.51367 13.8332 7.37597V9.71908Z" fill="#838B8D"/>
</svg>
