<svg width="65" height="65" viewBox="0 0 65 65" fill="none" xmlns="http://www.w3.org/2000/svg">
<path d="M36.0729 9.11105e-05L41.3533 6.54133L49.5947 4.88348L51.514 13.068L59.6586 15.1502L57.8367 23.3569L64.2713 28.7667L59.0691 35.3702L62.5193 43.0361L54.967 46.7285L54.7494 55.1322L46.343 55.1822L42.5007 62.6593L34.9052 59.0569L28.1992 64.1264L22.9188 57.5851L14.6774 59.243L12.7581 51.0585L4.61348 48.9763L6.43538 40.7696L0.000763323 35.3598L5.20301 28.7563L1.75283 21.0904L9.30506 17.398L9.52267 8.99423L17.9291 8.94428L21.7714 1.4672L29.3669 5.06959L36.0729 9.11105e-05Z" fill="white"/>
</svg>
