<svg width="88" height="106" viewBox="0 0 88 106" version="1.1" xmlns="http://www.w3.org/2000/svg" xmlns:xlink="http://www.w3.org/1999/xlink">
<title>shield top copy 2</title>
<desc>Created using Figma</desc>
<g id="Canvas" transform="translate(2407 -19890)">
<g id="shield top copy 2">
<use xlink:href="#path0_fill" transform="translate(-2407 19890)" fill="#CED6D5" fill-opacity="0.8"/>
</g>
</g>
<defs>
<path id="path0_fill" fill-rule="evenodd" d="M 84.7265 72.1943L 44.0892 106L 44 105.926L 44 105.696L 43.9108 105.769L 3.27346 71.9636C 3.27346 71.9636 0.931217 30.2034 0 17.7614L 43.8347 0L 44 0.064587L 44 0.295254L 44.1653 0.230667L 88 17.9921C 87.0688 30.434 84.7265 72.1943 84.7265 72.1943ZM 81.0159 20.0681C 81.0115 20.0095 79.8519 19.6067 79.8519 19.6067L 44 5.34456L 44 5.1139L 8.14815 19.3761C 8.14815 19.3761 6.98855 19.7788 6.98413 19.8374L 5.44622 20.5294C 6.17117 27.8577 8.42169 69.2233 8.42169 69.2233L 43.9849 99.0597L 44.0002 99.0468L 44.0002 99.2774L 44.0156 99.2903L 79.5785 69.454C 79.5785 69.454 81.8291 28.0884 82.554 20.7601L 81.0159 20.0681ZM 53.2046 49.1634L 52.1353 43.7197L 33.3727 43.7197L 29.0791 27.3716L 48.9839 27.3716L 49.8539 31.4436L 65.1056 31.4436L 62.0977 40.2629L 69.4446 49.1634L 53.2046 49.1634ZM 38.4867 77.005L 36.3019 77.596C 36.1516 77.6305 35.9959 77.6352 35.8437 77.6098C 35.6916 77.5843 35.5461 77.5293 35.4155 77.4478C 35.285 77.3663 35.1721 77.2599 35.0833 77.1349C 34.9945 77.0099 34.9316 76.8687 34.8983 76.7194L 20.8811 26.7338C 20.7909 26.4365 20.8222 26.1159 20.9683 25.8413C 21.1145 25.5666 21.3636 25.3599 21.6622 25.2656L 23.8471 24.6741C 23.9974 24.6396 24.1531 24.6349 24.3052 24.6604C 24.4573 24.6858 24.6028 24.7409 24.7333 24.8224C 24.8638 24.9039 24.9768 25.0102 25.0656 25.1353C 25.1543 25.2603 25.2173 25.4015 25.2506 25.5507L 39.2678 75.5363C 39.3579 75.8335 39.3266 76.154 39.1805 76.4285C 39.0343 76.703 38.7852 76.9097 38.4867 77.0038L 38.4867 77.005Z"/>
</defs>
</svg>
