<svg opacity="0.3" width="314" height="133" viewBox="0 0 314 133" fill="none" xmlns="http://www.w3.org/2000/svg">
<path d="M70.0784 12.6294L70.3364 13.3091L77.2325 12.9727L72.4173 16.8437L71.8509 17.2986L72.109 17.9783L74.3022 23.7543L69.1321 20.3703L68.5241 19.9727L67.9587 20.4275L63.1416 24.2987L64.7632 18.3366L64.9538 17.6351L64.3459 17.2375L59.1758 13.8535L66.0729 13.5171L66.2636 12.8155L67.8841 6.85156L70.0784 12.6294Z" stroke="white" stroke-width="2"/>
<path d="M15.0784 78.6294L15.3364 79.3091L22.2325 78.9727L17.4173 82.8437L16.8509 83.2986L17.109 83.9783L19.3022 89.7543L14.1321 86.3703L13.5241 85.9727L12.9587 86.4275L8.14154 90.2987L9.76314 84.3366L9.9538 83.6351L9.34581 83.2375L4.17578 79.8535L11.0729 79.5171L11.2636 78.8155L12.8841 72.8516L15.0784 78.6294Z" stroke="white" stroke-width="2"/>
<path d="M90.0784 105.63L90.3364 106.31L97.2325 105.973L92.4173 109.844L91.8509 110.299L92.109 110.979L94.3022 116.755L89.1321 113.371L88.5241 112.973L87.9587 113.428L83.1416 117.299L84.7632 111.337L84.9538 110.636L84.3459 110.238L79.1758 106.854L86.0729 106.518L86.2636 105.816L87.8841 99.8516L90.0784 105.63Z" stroke="white" stroke-width="2"/>
<path d="M206.079 26.6294L206.337 27.3091L213.233 26.9727L208.418 30.8437L207.852 31.2986L208.11 31.9783L210.303 37.7543L205.133 34.3703L204.525 33.9727L203.959 34.4275L199.142 38.2987L200.764 32.3366L200.954 31.6351L200.346 31.2375L195.176 27.8535L202.074 27.5171L202.264 26.8155L203.885 20.8516L206.079 26.6294Z" stroke="white" stroke-width="2"/>
<path d="M277.079 10.6295L277.337 11.3091L284.233 10.9727L279.418 14.8437L278.852 15.2986L279.11 15.9783L281.303 21.7543L276.133 18.3703L275.525 17.9727L274.959 18.4275L270.142 22.2987L271.764 16.3366L271.954 15.6351L271.346 15.2375L266.176 11.8535L273.074 11.5171L273.264 10.8155L274.885 4.85156L277.079 10.6295Z" stroke="white" stroke-width="2"/>
<path d="M220.079 98.6294L220.337 99.3091L227.233 98.9727L222.418 102.843L221.852 103.298L222.11 103.978L224.303 109.754L219.133 106.37L218.525 105.972L217.959 106.427L213.142 110.298L214.764 104.336L214.954 103.635L214.346 103.237L209.176 99.8535L216.074 99.5171L216.264 98.8155L217.885 92.8516L220.079 98.6294Z" stroke="white" stroke-width="2"/>
<path d="M151.079 46.6294L151.337 47.3091L158.233 46.9727L153.418 50.8437L152.852 51.2986L153.11 51.9783L155.303 57.7543L150.133 54.3703L149.525 53.9727L148.959 54.4275L144.142 58.2987L145.764 52.3366L145.954 51.6351L145.346 51.2375L140.176 47.8535L147.074 47.5171L147.264 46.8155L148.885 40.8516L151.079 46.6294Z" stroke="white" stroke-width="2"/>
<path d="M288.079 65.6294L288.337 66.3091L295.233 65.9727L290.418 69.8437L289.852 70.2986L290.11 70.9783L292.303 76.7543L287.133 73.3703L286.525 72.9727L285.959 73.4275L281.142 77.2987L282.764 71.3366L282.954 70.6351L282.346 70.2375L277.176 66.8535L284.074 66.5171L284.264 65.8155L285.885 59.8516L288.079 65.6294Z" stroke="white" stroke-width="2"/>
<path d="M126.317 19.5551L126.575 20.2348L128.414 20.1451L127.546 20.8435L126.979 21.2984L127.237 21.978L127.633 23.0205L126.7 22.41L126.092 22.0114L125.526 22.4673L124.656 23.1657L124.949 22.0897L125.14 21.3881L124.532 20.9905L123.598 20.38L125.438 20.2903L125.629 19.5887L125.921 18.5117L126.317 19.5551Z" stroke="white" stroke-width="2"/>
<path d="M57.3166 85.5551L57.5746 86.2348L59.4133 86.1451L58.5449 86.8435L57.9785 87.2984L58.2365 87.978L58.6325 89.0205L57.6992 88.41L57.0913 88.0114L56.5249 88.4673L55.6556 89.1657L55.9482 88.0897L56.1389 87.3881L55.5309 86.9905L54.5977 86.38L56.4373 86.2903L56.628 85.5887L56.9206 84.5117L57.3166 85.5551Z" stroke="white" stroke-width="2"/>
<path d="M10.3166 35.5551L10.5746 36.2348L12.4133 36.1451L11.5449 36.8435L10.9785 37.2984L11.2365 37.978L11.6325 39.0205L10.6993 38.41L10.0913 38.0114L9.52486 38.4673L8.65556 39.1657L8.94816 38.0897L9.13885 37.3881L8.53086 36.9905L7.59766 36.38L9.43726 36.2903L9.62796 35.5887L9.92056 34.5117L10.3166 35.5551Z" stroke="white" stroke-width="2"/>
<path d="M95.3167 54.5551L95.5747 55.2348L97.4137 55.1451L96.5457 55.8435L95.9787 56.2984L96.2367 56.978L96.6327 58.0205L95.6997 57.41L95.0917 57.0114L94.5257 57.4673L93.6557 58.1657L93.9487 57.0897L94.1397 56.3881L93.5317 55.9905L92.5977 55.38L94.4377 55.2903L94.6287 54.5887L94.9207 53.5117L95.3167 54.5551Z" stroke="white" stroke-width="2"/>
<path d="M23.3166 124.557L23.5746 125.237L25.4133 125.147L24.5449 125.845L23.9785 126.3L24.2365 126.98L24.6325 128.022L23.6993 127.412L23.0913 127.013L22.5249 127.469L21.6556 128.168L21.9482 127.092L22.1389 126.39L21.5309 125.992L20.5977 125.382L22.4373 125.292L22.628 124.591L22.9206 123.514L23.3166 124.557Z" stroke="white" stroke-width="2"/>
<path d="M125.317 99.5551L125.575 100.235L127.414 100.145L126.546 100.844L125.979 101.298L126.237 101.978L126.633 103.02L125.7 102.41L125.092 102.011L124.526 102.467L123.656 103.166L123.949 102.09L124.14 101.388L123.532 100.991L122.598 100.38L124.438 100.29L124.629 99.5887L124.921 98.5117L125.317 99.5551Z" stroke="white" stroke-width="2"/>
<path d="M169.317 118.557L169.575 119.237L171.414 119.147L170.546 119.845L169.979 120.3L170.237 120.98L170.633 122.022L169.7 121.412L169.092 121.013L168.526 121.469L167.656 122.168L167.949 121.092L168.14 120.39L167.532 119.992L166.598 119.382L168.438 119.292L168.629 118.591L168.921 117.514L169.317 118.557Z" stroke="white" stroke-width="2"/>
<path d="M248.317 54.5551L248.575 55.2348L250.414 55.1451L249.546 55.8435L248.979 56.2984L249.237 56.978L249.633 58.0205L248.7 57.41L248.092 57.0114L247.526 57.4673L246.656 58.1657L246.949 57.0897L247.14 56.3881L246.532 55.9905L245.598 55.38L247.438 55.2903L247.629 54.5887L247.921 53.5117L248.317 54.5551Z" stroke="white" stroke-width="2"/>
<path d="M190.317 68.5551L190.575 69.2348L192.414 69.1451L191.546 69.8435L190.979 70.2984L191.237 70.978L191.633 72.0205L190.7 71.41L190.092 71.0114L189.526 71.4673L188.656 72.1657L188.949 71.0897L189.14 70.3881L188.532 69.9905L187.598 69.38L189.438 69.2903L189.629 68.5887L189.921 67.5117L190.317 68.5551Z" stroke="white" stroke-width="2"/>
<path d="M261.317 104.557L261.575 105.237L263.414 105.147L262.546 105.846L261.979 106.301L262.237 106.98L262.633 108.023L261.7 107.412L261.092 107.014L260.526 107.469L259.656 108.168L259.949 107.092L260.14 106.39L259.532 105.993L258.598 105.382L260.438 105.292L260.629 104.591L260.921 103.514L261.317 104.557Z" stroke="white" stroke-width="2"/>
</svg>
