<svg width="88" height="40" viewBox="0 0 88 40" fill="none" xmlns="http://www.w3.org/2000/svg">
<path fill-rule="evenodd" clip-rule="evenodd" d="M12.7177 21.5964L8.42719 12.9118L19.5521 6.25147H8.93247L5.32301 10.0832V24.4942L8.0691 27.3988L12.7177 21.5897V21.5964ZM27.384 24.0541V10.0452L25.1651 7.71267L26.5975 5.42255L29.9785 8.97726V25.5108L16.3381 40L10.802 34.1127L13.5767 33.2436L16.3491 36.1861L26.4437 25.4617L0 37.4999L6.41925 29.4722L2.72851 25.5466V9.01301L7.82525 3.60163H23.9613L29.9807 0L18.2714 14.6545L27.3862 24.0585L27.384 24.0541ZM45.785 27.3094C45.785 26.4648 45.0512 26.3643 44.6865 26.3643H42.36V28.259H44.6865C45.0468 28.259 45.785 28.1539 45.785 27.3094ZM42.3732 23.9826L44.5196 23.9982C45.3478 23.9982 45.4686 23.3793 45.4686 23.1336C45.4686 22.8878 45.4049 22.2845 44.5196 22.2689H42.3732V23.9826ZM49.7349 27.7585C49.7349 29.0409 49.2143 31.1099 45.0732 31.0853H37.5467V27.7339H38.5946V22.8185H37.5467V19.4671H45.2204C46.6505 19.4671 49.278 19.6906 49.278 22.4096C49.278 24.1725 48.2235 24.6886 47.6413 24.9254C48.3157 25.131 49.7547 25.7856 49.7349 27.7853V27.7585ZM77.7164 22.8006H82.6089L77.455 28.641V31.0853H88V27.7339H82.6396L87.1279 22.8185H87.9912V19.4671H77.7164V22.8185V22.8006ZM65.6535 22.8006H69.1684V31.0853H72.9295V22.7984H76.4554V19.447H65.6425V22.7984L65.6535 22.8006ZM60.6007 31.0853H64.3793V19.4358H60.6007V31.0831V31.0853ZM54.4626 27.7339H59.3528V31.0853H50.684V19.4381H54.4626V27.7227V27.7339Z" fill="white"/>
<path d="M40.4068 7.3H42.2658V15H40.4068V7.3ZM41.5728 8.829V7.3H43.0798C43.7324 7.3 44.2788 7.40267 44.7188 7.608C45.1661 7.806 45.5034 8.092 45.7308 8.466C45.9581 8.84 46.0718 9.291 46.0718 9.819C46.0718 10.3323 45.9581 10.7797 45.7308 11.161C45.5034 11.535 45.1661 11.8247 44.7188 12.03C44.2788 12.228 43.7324 12.327 43.0798 12.327H41.5728V10.798H43.0798C43.4538 10.798 43.7471 10.7137 43.9598 10.545C44.1724 10.3763 44.2788 10.1343 44.2788 9.819C44.2788 9.49633 44.1724 9.25067 43.9598 9.082C43.7471 8.91333 43.4538 8.829 43.0798 8.829H41.5728ZM49.1743 11.513H51.1103L53.5193 15H51.3413L49.1743 11.513ZM47.2603 7.3H49.1193V15H47.2603V7.3ZM48.4263 8.873V7.3H50.0653C50.7253 7.3 51.2753 7.40633 51.7153 7.619C52.1553 7.83167 52.489 8.12867 52.7163 8.51C52.9436 8.884 53.0573 9.32033 53.0573 9.819C53.0573 10.3103 52.9436 10.7467 52.7163 11.128C52.489 11.502 52.1553 11.7953 51.7153 12.008C51.2753 12.2207 50.7253 12.327 50.0653 12.327H48.4263V10.886H49.9333C50.1826 10.886 50.3953 10.8493 50.5713 10.776C50.7546 10.6953 50.894 10.5817 50.9893 10.435C51.0846 10.281 51.1323 10.0977 51.1323 9.885C51.1323 9.67233 51.0846 9.49267 50.9893 9.346C50.894 9.192 50.7546 9.07467 50.5713 8.994C50.3953 8.91333 50.1826 8.873 49.9333 8.873H48.4263ZM55.9114 11.15C55.9114 11.6047 55.9994 12.008 56.1754 12.36C56.3587 12.7047 56.6117 12.976 56.9344 13.174C57.2644 13.372 57.6494 13.471 58.0894 13.471C58.522 13.471 58.8997 13.372 59.2224 13.174C59.5524 12.976 59.8054 12.7047 59.9814 12.36C60.1647 12.008 60.2564 11.6047 60.2564 11.15C60.2564 10.6953 60.1684 10.2957 59.9924 9.951C59.8164 9.599 59.567 9.324 59.2444 9.126C58.9217 8.928 58.5367 8.829 58.0894 8.829C57.6494 8.829 57.2644 8.928 56.9344 9.126C56.6117 9.324 56.3587 9.599 56.1754 9.951C55.9994 10.2957 55.9114 10.6953 55.9114 11.15ZM53.9424 11.15C53.9424 10.556 54.045 10.0133 54.2504 9.522C54.463 9.03067 54.7564 8.60533 55.1304 8.246C55.5044 7.88667 55.9444 7.61167 56.4504 7.421C56.9564 7.223 57.5027 7.124 58.0894 7.124C58.6834 7.124 59.2297 7.223 59.7284 7.421C60.2344 7.61167 60.6744 7.88667 61.0484 8.246C61.4224 8.60533 61.712 9.03067 61.9174 9.522C62.1227 10.0133 62.2254 10.556 62.2254 11.15C62.2254 11.744 62.1227 12.2903 61.9174 12.789C61.7194 13.2877 61.4334 13.7203 61.0594 14.087C60.6927 14.4537 60.2564 14.7397 59.7504 14.945C59.2444 15.143 58.6907 15.242 58.0894 15.242C57.4807 15.242 56.9234 15.143 56.4174 14.945C55.9114 14.7397 55.4714 14.4537 55.0974 14.087C54.7307 13.7203 54.4447 13.2877 54.2394 12.789C54.0414 12.2903 53.9424 11.744 53.9424 11.15ZM61.8105 15.704C61.9205 15.7993 62.0562 15.8837 62.2175 15.957C62.3789 16.0303 62.5402 16.067 62.7015 16.067C62.8702 16.067 63.0315 15.9973 63.1855 15.858C63.3395 15.726 63.4165 15.4987 63.4165 15.176V7.3H65.4185V15.594C65.4185 15.9607 65.3525 16.2723 65.2205 16.529C65.0885 16.793 64.9052 17.002 64.6705 17.156C64.4359 17.3173 64.1645 17.4347 63.8565 17.508C63.5485 17.5887 63.2259 17.629 62.8885 17.629C62.6025 17.629 62.3275 17.596 62.0635 17.53C61.7995 17.464 61.5612 17.3833 61.3485 17.288C61.1359 17.2 60.9525 17.1047 60.7985 17.002L61.8105 15.704ZM68.2794 15V13.471H72.1624V15H68.2794ZM68.2794 8.829V7.3H72.1624V8.829H68.2794ZM68.2794 11.7V10.204H71.9424V11.7H68.2794ZM67.0474 7.3H68.8294V15H67.0474V7.3ZM75.2593 11.15C75.2593 11.6193 75.3657 12.0263 75.5783 12.371C75.791 12.7083 76.0697 12.965 76.4143 13.141C76.7663 13.317 77.1513 13.405 77.5693 13.405C77.936 13.405 78.2587 13.3573 78.5373 13.262C78.816 13.1667 79.0653 13.042 79.2853 12.888C79.5053 12.734 79.6997 12.569 79.8683 12.393V14.395C79.5603 14.637 79.223 14.8277 78.8563 14.967C78.4897 15.1063 78.024 15.176 77.4593 15.176C76.8433 15.176 76.275 15.0807 75.7543 14.89C75.2337 14.6993 74.7863 14.4243 74.4123 14.065C74.0383 13.7057 73.7487 13.2803 73.5433 12.789C73.338 12.2977 73.2353 11.7513 73.2353 11.15C73.2353 10.5487 73.338 10.0023 73.5433 9.511C73.7487 9.01967 74.0383 8.59433 74.4123 8.235C74.7863 7.87567 75.2337 7.60067 75.7543 7.41C76.275 7.21933 76.8433 7.124 77.4593 7.124C78.024 7.124 78.4897 7.19367 78.8563 7.333C79.223 7.47233 79.5603 7.663 79.8683 7.905V9.907C79.6997 9.731 79.5053 9.566 79.2853 9.412C79.0653 9.25067 78.816 9.126 78.5373 9.038C78.2587 8.94267 77.936 8.895 77.5693 8.895C77.1513 8.895 76.7663 8.983 76.4143 9.159C76.0697 9.335 75.791 9.59167 75.5783 9.929C75.3657 10.2663 75.2593 10.6733 75.2593 11.15ZM80.2852 7.3H86.3792V8.961H84.2562V15H82.3972V8.961H80.2852V7.3Z" fill="white"/>
</svg>
