<svg width="88" height="40" viewBox="0 0 88 40" fill="none" xmlns="http://www.w3.org/2000/svg">
<path fill-rule="evenodd" clip-rule="evenodd" d="M12.7177 21.5964L8.42719 12.9118L19.5521 6.25147H8.93247L5.32301 10.0832V24.4942L8.0691 27.3988L12.7177 21.5897V21.5964ZM27.384 24.0541V10.0452L25.1651 7.71267L26.5975 5.42255L29.9785 8.97726V25.5108L16.3381 40L10.802 34.1127L13.5767 33.2436L16.3491 36.1861L26.4437 25.4617L0 37.4999L6.41925 29.4722L2.72851 25.5466V9.01301L7.82525 3.60163H23.9613L29.9807 0L18.2714 14.6545L27.3862 24.0585L27.384 24.0541ZM83.2987 16.1336C82.3453 16.1336 81.8048 15.7784 81.6708 15.0656H78.5293C78.7182 17.2895 80.3036 18.4006 83.2855 18.3992C86.4241 18.3992 87.9934 17.3781 87.9934 15.336C87.9934 12.9431 85.768 12.5431 83.8699 12.2929C82.4837 12.1097 81.8927 12.027 81.8927 11.5891C81.8927 11.1512 82.5825 11.0037 83.2108 11.0104C84.2126 11.0216 84.4652 11.4193 84.63 11.7522H87.7781C87.587 9.44199 85.6406 8.7449 83.3361 8.7449C79.3575 8.7449 78.7644 10.6976 78.7644 11.6785C78.7644 13.9708 81.2578 14.5406 82.699 14.7059C84.3554 14.8981 84.8255 14.9964 84.8255 15.4522C84.8255 15.9079 84.3158 16.1336 83.2877 16.1336H83.2987ZM71.7959 15.5929L72.8394 14.6277L75.1703 18.1735H78.7973L74.9726 12.5208L78.4656 8.97503H74.9023L71.7959 12.1164V8.97503H68.5797V18.1735H71.7849V15.5929H71.7959ZM67.0748 18.1735V8.97503H64.0563V13.8167L60.1547 8.97503H57.3471V18.1735H60.3656V13.3274L64.2672 18.1735H67.0748ZM50.0183 14.3752H52.068L51.0508 11.4394L50.0183 14.3752ZM45.4972 18.1735L49.1747 8.9795H52.9995L56.677 18.1735H53.3817L52.9094 16.8218H49.1967L48.7354 18.1735H45.4972ZM40.6794 18.1735H43.8847V11.6405H47.0262V8.97503H37.5379V11.6405H40.6794V18.1735ZM45.785 27.3094C45.785 26.4648 45.0512 26.3643 44.6865 26.3643H42.36V28.259H44.6865C45.0468 28.259 45.785 28.1539 45.785 27.3094ZM42.3732 23.9826L44.5196 23.9982C45.3478 23.9982 45.4686 23.3793 45.4686 23.1336C45.4686 22.8878 45.4049 22.2845 44.5196 22.2689H42.3732V23.9826ZM49.7349 27.7585C49.7349 29.0409 49.2143 31.1099 45.0732 31.0853H37.5467V27.7339H38.5946V22.8185H37.5467V19.4671H45.2204C46.6505 19.4671 49.278 19.6906 49.278 22.4096C49.278 24.1725 48.2235 24.6886 47.6413 24.9254C48.3157 25.131 49.7547 25.7856 49.7349 27.7853V27.7585ZM77.7164 22.8006H82.6089L77.455 28.641V31.0853H88V27.7339H82.6396L87.1279 22.8185H87.9912V19.4671H77.7164V22.8185V22.8006ZM65.6535 22.8006H69.1684V31.0853H72.9295V22.7984H76.4554V19.447H65.6425V22.7984L65.6535 22.8006ZM60.6007 31.0853H64.3793V19.4358H60.6007V31.0831V31.0853ZM54.4626 27.7339H59.3528V31.0853H50.684V19.4381H54.4626V27.7227V27.7339Z" fill="white"/>
</svg>
