<svg width="41" height="40" viewBox="0 0 41 40" fill="none" xmlns="http://www.w3.org/2000/svg">
<path d="M24.9436 5C33.3493 5.00006 35.3333 7.00037 35.3333 15.4062V24.6104C35.3332 33.0161 33.3329 35 24.927 35H15.7229C7.3172 34.9999 5.33325 32.9996 5.33325 24.5938V15.3896C5.33331 6.99994 7.33362 5 15.7395 5H24.9436ZM28.8958 14.3594C29.1667 13.2685 28.4788 12.775 27.7659 13.0967L12.1555 19.1172C11.0907 19.5442 11.0972 20.1383 11.9622 20.4033L15.8567 21.6191L17.3459 26.1865C17.3858 26.2942 17.4128 26.3889 17.4358 26.4688C17.5178 26.7627 17.5531 26.8828 17.9641 26.8828C18.3588 26.8827 18.5411 26.7071 18.759 26.4932L18.7737 26.4795C18.9177 26.3385 19.7689 25.5099 20.7209 24.5859L24.7708 27.5781C25.5167 27.9911 26.0535 27.7757 26.2395 26.8857L28.8958 14.3594ZM25.2405 15.8018C25.6785 15.5368 26.0802 15.6797 25.7502 15.9717L18.2375 22.752L17.9417 25.8721L16.4661 21.3389L25.2405 15.8027V15.8018Z" fill="white"/>
</svg>
