<svg width="63" height="53" viewBox="0 0 63 53" fill="none" xmlns="http://www.w3.org/2000/svg">
<path fill-rule="evenodd" clip-rule="evenodd" d="M30.6328 0.65332C39.1207 0.654846 43.9831 7.32996 41.5004 14.6533C41.5478 14.723 41.501 16.6362 41.5004 16.6533C41.5503 16.6533 41.6014 16.6529 41.6536 16.6525C42.5068 16.6461 43.6289 16.6377 43.563 18.2738C43.4747 20.4941 42.3692 24.5507 41.3162 24.5507C41.2924 24.5507 41.1231 24.493 40.9732 24.4419L40.9731 24.4419C40.8585 24.4028 40.7553 24.3676 40.7373 24.3651C40.1134 27.3189 38.7152 30.4708 36.5013 32.1192V38.5688C36.9844 36.4167 37.5004 35.3109 38.5524 35.5727C40.2041 35.9837 45.5201 37.0105 54.5004 38.6533L58.5004 42.6533L30.5004 52.6533L2.50041 42.6533L6.50041 38.6533C18.5147 36.8422 24.5218 35.3504 24.5218 34.1779V32.1192C22.3078 30.4708 21.1523 27.2885 20.5284 24.3347C20.5105 24.3371 20.4078 24.3721 20.2936 24.411L20.293 24.4112L20.2926 24.4114C20.1427 24.4625 19.9733 24.5202 19.9494 24.5202C18.8965 24.5202 17.791 20.4636 17.7027 18.2433C17.6378 16.6317 18.4973 16.642 19.3126 16.6518C19.3756 16.6526 19.4384 16.6533 19.5004 16.6533C19.4774 16.5834 19.4936 16.2894 19.5065 16.0533C19.5122 15.9492 19.5173 15.8564 19.5181 15.7991C18.2879 14.7072 18.2184 12.7506 18.2058 11.8626C18.1079 4.93836 23.1076 0.65332 30.6328 0.65332ZM27.7004 25.2386C26.6909 26.0701 25.4936 26.6547 23.5004 26.6534C24.9333 28.5717 28.9692 28.6568 30.503 26.6534C32.0339 28.6581 36.0672 28.5735 37.5004 26.6547C35.4992 26.6534 34.3125 26.0714 33.303 25.2399C32.5848 24.6484 31.6339 24.6513 30.6995 24.6543L30.5992 24.6546L30.503 24.6547C30.4355 24.6547 30.3679 24.6545 30.3002 24.6543H30.3001H30.3001C29.3612 24.6512 28.4174 24.6481 27.7004 25.2386ZM36.4936 8.65332C33.1614 12.8389 22.5004 15.6533 22.5004 15.6533C22.5004 15.6533 32.3966 15.6533 36.4936 11.6533C37.2303 12.0594 40.5004 13.6533 40.5004 13.6533C40.5004 13.6533 37.3976 9.45139 36.4936 8.65332ZM11.9642 6.65333C13.7252 6.65333 15.3289 6.99084 16.7385 7.56923C16.3668 8.89314 16.1841 10.3395 16.206 11.8908C16.2181 12.7486 16.2761 13.4347 16.4581 14.2109C16.4904 14.3483 16.4115 14.5838 16.294 14.9344C16.0696 15.6043 15.7043 16.6946 15.7043 18.3238C15.7043 18.8511 15.7364 19.3915 15.7987 19.9309C12.7415 20.8616 7.73399 18.5094 4.50041 16.6533C3.05382 17.2827 1.65045 19.1307 1.65045 20.2772C2.50041 19.392 3.5048 18.9677 4.50445 18.6533C10.2461 22.2411 13.4357 23.5412 15.9952 21.1667C16.4697 23.5009 17.5038 25.6083 18.9398 26.2902C19.3517 27.8219 19.8708 29.1947 20.5212 30.3838C20.8074 31.4017 20.928 32.4601 20.5394 33.1683C19.704 34.6911 16.8597 35.1402 14.5197 34.6531C16.9851 33.2477 18.395 29.9872 18.9693 28.3573L18.9209 28.4306C16.9235 31.459 14.799 34.6799 8.42863 34.6913C5.26119 33.107 3.54347 30.6374 2.60764 28.0697C2.82867 30.1768 3.50464 33.5979 5.57023 34.2842C3.71928 34.7538 1.3123 35.0191 0.537641 33.8122C0.521039 30.7351 1.6935 27.9963 2.23389 26.8989C1.7195 25.0414 1.55814 23.1949 1.50041 21.6533C-0.246783 18.8596 0.696491 14.1892 1.65045 12.6013C3.37252 9.735 6.95204 6.65333 11.9642 6.65333ZM41.7539 28.0964L41.7221 28.0484C41.9404 27.4938 42.1355 26.9194 42.3066 26.3297C44.3312 25.3891 45.267 21.6097 45.5614 18.3532C45.7371 16.41 44.8081 15.5704 44.197 15.0181C43.875 14.7271 43.6412 14.5158 43.7039 14.2649L43.794 13.9045C43.7911 13.9158 43.7893 13.9224 43.7909 13.9148C43.7916 13.9116 43.7929 13.9059 43.795 13.8969C44.2691 11.8682 44.2634 9.9004 43.8463 8.08862C45.4957 7.19779 47.4739 6.65333 49.7055 6.65333C55.3026 6.65333 57.329 9.07798 58.7393 10.7654C59.7236 11.9431 60.4077 12.7617 61.7963 12.1459C62.4065 13.1215 63.1958 16.107 61.3623 17.7789C58.8901 20.0331 55.7508 18.9841 52.8639 18.0195C50.3222 17.1703 47.9763 16.3864 46.4538 17.98C48.1709 17.9028 49.8068 18.6917 51.4886 19.5026C54.1878 20.8043 57.0052 22.1629 60.4662 20.0894C60.4662 20.0894 60.4662 32.8961 50.7993 34.6533C45.2722 33.6986 44.0965 31.8181 42.5002 29.2651C42.2656 28.8898 42.0219 28.5 41.7539 28.0964Z" fill="white"/>
</svg>
