<svg width="26" height="26" viewBox="0 0 26 26" fill="none" xmlns="http://www.w3.org/2000/svg">
<path fill-rule="evenodd" clip-rule="evenodd" d="M23.7786 14.08C23.2703 19.1965 19.2009 23.2639 14.0833 23.7722V25.9938H11.9167V23.7722C6.79911 23.2639 2.72967 19.1965 2.22137 14.08H0V11.9138H2.22137C2.72967 6.79726 6.79911 2.72989 11.9167 2.2216V0H14.0833V2.2216C19.2009 2.72989 23.2703 6.79726 23.7786 11.9138H26V14.08H23.7786ZM11.9167 21.5605V19.3971C9.2014 18.9387 7.06777 16.7975 6.6092 14.08H4.40819C4.89764 17.9948 8.00291 21.0676 11.9167 21.5605ZM11.9167 4.43323C8.00291 4.92614 4.89764 7.99893 4.40819 11.9138H6.6092C7.06777 9.19627 9.2014 7.05503 11.9167 6.59667V4.43323ZM11.9167 10.8307V8.81773C10.4032 9.21251 9.21288 10.3969 8.81985 11.9138H10.8333V14.08H8.81985C9.21288 15.5969 10.4032 16.7812 11.9167 17.176V15.163H14.0833V17.176C15.5968 16.7812 16.7871 15.5969 17.1802 14.08H15.1667V11.9138H17.1802C16.7871 10.3969 15.5968 9.21251 14.0833 8.81773V10.8307H11.9167ZM14.0833 4.43323V6.59667C16.7986 7.05503 18.9322 9.19627 19.3908 11.9138H21.5918C21.1024 7.99893 17.9971 4.92614 14.0833 4.43323ZM19.3908 14.08C18.9322 16.7975 16.7986 18.9387 14.0833 19.3971V21.5605C17.9971 21.0676 21.1024 17.9948 21.5918 14.08H19.3908Z" fill="#9CC3D4"/>
</svg>
