<svg width="30" height="30" viewBox="0 0 30 30" fill="none" xmlns="http://www.w3.org/2000/svg">
<path d="M16.5163 18.5647H13.4224L13.275 6.71367H16.6751L16.5163 18.5647Z" fill="#EC5858"/>
<path d="M13.2 22.2171C13.2 21.7029 13.3479 21.2743 13.6438 20.9314C13.9507 20.5771 14.4 20.4 14.9918 20.4C15.5836 20.4 16.0329 20.5771 16.3397 20.9314C16.6466 21.2743 16.8 21.7029 16.8 22.2171C16.8 22.7314 16.6466 23.16 16.3397 23.5029C16.0329 23.8343 15.5836 24 14.9918 24C14.4 24 13.9507 23.8343 13.6438 23.5029C13.3479 23.16 13.2 22.7314 13.2 22.2171Z" fill="#EC5858"/>
<path fill-rule="evenodd" clip-rule="evenodd" d="M15 27.6C21.9588 27.6 27.6 21.9588 27.6 15C27.6 8.04121 21.9588 2.4 15 2.4C8.04121 2.4 2.4 8.04121 2.4 15C2.4 21.9588 8.04121 27.6 15 27.6ZM15 30C23.2843 30 30 23.2843 30 15C30 6.71573 23.2843 0 15 0C6.71573 0 0 6.71573 0 15C0 23.2843 6.71573 30 15 30Z" fill="#EC5858"/>
</svg>
