<?xml version="1.0" encoding="UTF-8"?>
<svg width="24px" height="22px" viewBox="0 0 24 22" version="1.1" xmlns="http://www.w3.org/2000/svg" xmlns:xlink="http://www.w3.org/1999/xlink">
    <!-- Generator: sketchtool 52.5 (67469) - http://www.bohemiancoding.com/sketch -->
    <title>D8927FC2-EC11-4266-9CFC-AE129BF592AB</title>
    <desc>Created with sketchtool.</desc>
    <defs>
        <filter x="-77.7%" y="-34.4%" width="263.1%" height="169.3%" filterUnits="objectBoundingBox" id="filter-1">
            <feOffset dx="0" dy="1" in="SourceAlpha" result="shadowOffsetOuter1"></feOffset>
            <feGaussianBlur stdDeviation="1" in="shadowOffsetOuter1" result="shadowBlurOuter1"></feGaussianBlur>
            <feColorMatrix values="0 0 0 0 0   0 0 0 0 0   0 0 0 0 0  0 0 0 0.5 0" type="matrix" in="shadowBlurOuter1" result="shadowMatrixOuter1"></feColorMatrix>
            <feMerge>
                <feMergeNode in="shadowMatrixOuter1"></feMergeNode>
                <feMergeNode in="SourceGraphic"></feMergeNode>
            </feMerge>
        </filter>
        <path d="M8.17086163,16.3099982 C7.74601045,17.297309 7.11271249,17.9366605 6.27096774,18.2280529 C5.429223,18.5194453 4.21562706,18.5194453 2.63017993,18.2280529 C3.86100962,16.9495522 4.79004188,16.2017348 5.4172767,15.9846008 C6.04451153,15.7674667 6.96237317,15.8759325 8.17086163,16.3099982 Z" id="path-2"></path>
        <filter x="-9.0%" y="-58.4%" width="118.0%" height="177.8%" filterUnits="objectBoundingBox" id="filter-3">
            <feOffset dx="0" dy="-1" in="SourceAlpha" result="shadowOffsetOuter1"></feOffset>
            <feColorMatrix values="0 0 0 0 0   0 0 0 0 0   0 0 0 0 0  0 0 0 0.198963995 0" type="matrix" in="shadowOffsetOuter1"></feColorMatrix>
        </filter>
        <path d="M7.06597011,13.8295156 C6.66558305,14.7818525 6.040516,15.385373 5.19076898,15.6400771 C4.34102196,15.8947811 3.10163711,15.8501134 1.47261443,15.5060739 C2.68622911,14.297915 3.60963535,13.5989379 4.24283316,13.4091425 C4.87603096,13.2193471 5.81707661,13.3594715 7.06597011,13.8295156 Z" id="path-4"></path>
        <filter x="-8.9%" y="-60.6%" width="117.9%" height="180.8%" filterUnits="objectBoundingBox" id="filter-5">
            <feOffset dx="0" dy="-1" in="SourceAlpha" result="shadowOffsetOuter1"></feOffset>
            <feColorMatrix values="0 0 0 0 0   0 0 0 0 0   0 0 0 0 0  0 0 0 0.198963995 0" type="matrix" in="shadowOffsetOuter1"></feColorMatrix>
        </filter>
        <path d="M5.89752717,10.6796925 C5.47908393,11.5933559 4.82710172,12.1718327 3.94158055,12.4151228 C3.05605938,12.6584129 1.7650967,12.6137451 0.0686925106,12.2811197 C1.33461745,11.1230402 2.29750757,10.4533555 2.95736285,10.2720653 C3.61721814,10.0907752 4.59727291,10.2266509 5.89752717,10.6796925 Z" id="path-6"></path>
        <filter x="-8.6%" y="-63.2%" width="117.2%" height="184.2%" filterUnits="objectBoundingBox" id="filter-7">
            <feOffset dx="0" dy="-1" in="SourceAlpha" result="shadowOffsetOuter1"></feOffset>
            <feColorMatrix values="0 0 0 0 0   0 0 0 0 0   0 0 0 0 0  0 0 0 0.198963995 0" type="matrix" in="shadowOffsetOuter1"></feColorMatrix>
        </filter>
        <path d="M6.00185797,6.75721119 C5.54089444,7.667175 4.85376615,8.25643912 3.9404731,8.52500353 C3.02718005,8.79356794 1.71042846,8.79356794 -0.00978167346,8.52500353 C1.32566854,7.34666186 2.33366854,6.65742925 3.01421833,6.45730569 C3.69476811,6.25718214 4.690648,6.35715064 6.00185797,6.75721119 Z" id="path-8"></path>
        <filter x="-8.3%" y="-63.3%" width="116.6%" height="184.4%" filterUnits="objectBoundingBox" id="filter-9">
            <feOffset dx="0" dy="-1" in="SourceAlpha" result="shadowOffsetOuter1"></feOffset>
            <feColorMatrix values="0 0 0 0 0   0 0 0 0 0   0 0 0 0 0  0 0 0 0.198963995 0" type="matrix" in="shadowOffsetOuter1"></feColorMatrix>
        </filter>
        <path d="M8.04768866,2.97055842 C7.56226102,3.91549607 6.86690181,4.54059126 5.96161103,4.84584399 C5.05632026,5.15109672 3.76535758,5.19576443 2.088723,4.97984712 C3.44138822,3.73116367 4.45501423,2.99309083 5.12960104,2.7656286 C5.80418785,2.53816636 6.77688373,2.6064763 8.04768866,2.97055842 Z" id="path-10"></path>
        <filter x="-8.4%" y="-60.5%" width="116.8%" height="180.7%" filterUnits="objectBoundingBox" id="filter-11">
            <feOffset dx="0" dy="-1" in="SourceAlpha" result="shadowOffsetOuter1"></feOffset>
            <feColorMatrix values="0 0 0 0 0   0 0 0 0 0   0 0 0 0 0  0 0 0 0.198963995 0" type="matrix" in="shadowOffsetOuter1"></feColorMatrix>
        </filter>
        <filter x="-77.7%" y="-34.4%" width="263.1%" height="169.3%" filterUnits="objectBoundingBox" id="filter-12">
            <feOffset dx="0" dy="1" in="SourceAlpha" result="shadowOffsetOuter1"></feOffset>
            <feGaussianBlur stdDeviation="1" in="shadowOffsetOuter1" result="shadowBlurOuter1"></feGaussianBlur>
            <feColorMatrix values="0 0 0 0 0   0 0 0 0 0   0 0 0 0 0  0 0 0 0.5 0" type="matrix" in="shadowBlurOuter1" result="shadowMatrixOuter1"></feColorMatrix>
            <feMerge>
                <feMergeNode in="shadowMatrixOuter1"></feMergeNode>
                <feMergeNode in="SourceGraphic"></feMergeNode>
            </feMerge>
        </filter>
        <path d="M8.17086163,16.3099982 C7.74601045,17.297309 7.11271249,17.9366605 6.27096774,18.2280529 C5.429223,18.5194453 4.21562706,18.5194453 2.63017993,18.2280529 C3.86100962,16.9495522 4.79004188,16.2017348 5.4172767,15.9846008 C6.04451153,15.7674667 6.96237317,15.8759325 8.17086163,16.3099982 Z" id="path-13"></path>
        <filter x="-9.0%" y="-58.4%" width="118.0%" height="177.8%" filterUnits="objectBoundingBox" id="filter-14">
            <feOffset dx="0" dy="-1" in="SourceAlpha" result="shadowOffsetOuter1"></feOffset>
            <feColorMatrix values="0 0 0 0 0   0 0 0 0 0   0 0 0 0 0  0 0 0 0.198963995 0" type="matrix" in="shadowOffsetOuter1"></feColorMatrix>
        </filter>
        <path d="M7.06597011,13.8295156 C6.66558305,14.7818525 6.040516,15.385373 5.19076898,15.6400771 C4.34102196,15.8947811 3.10163711,15.8501134 1.47261443,15.5060739 C2.68622911,14.297915 3.60963535,13.5989379 4.24283316,13.4091425 C4.87603096,13.2193471 5.81707661,13.3594715 7.06597011,13.8295156 Z" id="path-15"></path>
        <filter x="-8.9%" y="-60.6%" width="117.9%" height="180.8%" filterUnits="objectBoundingBox" id="filter-16">
            <feOffset dx="0" dy="-1" in="SourceAlpha" result="shadowOffsetOuter1"></feOffset>
            <feColorMatrix values="0 0 0 0 0   0 0 0 0 0   0 0 0 0 0  0 0 0 0.198963995 0" type="matrix" in="shadowOffsetOuter1"></feColorMatrix>
        </filter>
        <path d="M5.89752717,10.6796925 C5.47908393,11.5933559 4.82710172,12.1718327 3.94158055,12.4151228 C3.05605938,12.6584129 1.7650967,12.6137451 0.0686925106,12.2811197 C1.33461745,11.1230402 2.29750757,10.4533555 2.95736285,10.2720653 C3.61721814,10.0907752 4.59727291,10.2266509 5.89752717,10.6796925 Z" id="path-17"></path>
        <filter x="-8.6%" y="-63.2%" width="117.2%" height="184.2%" filterUnits="objectBoundingBox" id="filter-18">
            <feOffset dx="0" dy="-1" in="SourceAlpha" result="shadowOffsetOuter1"></feOffset>
            <feColorMatrix values="0 0 0 0 0   0 0 0 0 0   0 0 0 0 0  0 0 0 0.198963995 0" type="matrix" in="shadowOffsetOuter1"></feColorMatrix>
        </filter>
        <path d="M6.00185797,6.75721119 C5.54089444,7.667175 4.85376615,8.25643912 3.9404731,8.52500353 C3.02718005,8.79356794 1.71042846,8.79356794 -0.00978167346,8.52500353 C1.32566854,7.34666186 2.33366854,6.65742925 3.01421833,6.45730569 C3.69476811,6.25718214 4.690648,6.35715064 6.00185797,6.75721119 Z" id="path-19"></path>
        <filter x="-8.3%" y="-63.3%" width="116.6%" height="184.4%" filterUnits="objectBoundingBox" id="filter-20">
            <feOffset dx="0" dy="-1" in="SourceAlpha" result="shadowOffsetOuter1"></feOffset>
            <feColorMatrix values="0 0 0 0 0   0 0 0 0 0   0 0 0 0 0  0 0 0 0.198963995 0" type="matrix" in="shadowOffsetOuter1"></feColorMatrix>
        </filter>
        <path d="M8.04768866,2.97055842 C7.56226102,3.91549607 6.86690181,4.54059126 5.96161103,4.84584399 C5.05632026,5.15109672 3.76535758,5.19576443 2.088723,4.97984712 C3.44138822,3.73116367 4.45501423,2.99309083 5.12960104,2.7656286 C5.80418785,2.53816636 6.77688373,2.6064763 8.04768866,2.97055842 Z" id="path-21"></path>
        <filter x="-8.4%" y="-60.5%" width="116.8%" height="180.7%" filterUnits="objectBoundingBox" id="filter-22">
            <feOffset dx="0" dy="-1" in="SourceAlpha" result="shadowOffsetOuter1"></feOffset>
            <feColorMatrix values="0 0 0 0 0   0 0 0 0 0   0 0 0 0 0  0 0 0 0.198963995 0" type="matrix" in="shadowOffsetOuter1"></feColorMatrix>
        </filter>
        <filter x="-35.9%" y="-44.1%" width="171.8%" height="179.4%" filterUnits="objectBoundingBox" id="filter-23">
            <feOffset dx="0" dy="0" in="SourceAlpha" result="shadowOffsetOuter1"></feOffset>
            <feGaussianBlur stdDeviation="1" in="shadowOffsetOuter1" result="shadowBlurOuter1"></feGaussianBlur>
            <feColorMatrix values="0 0 0 0 0   0 0 0 0 0   0 0 0 0 0  0 0 0 1 0" type="matrix" in="shadowBlurOuter1" result="shadowMatrixOuter1"></feColorMatrix>
            <feMerge>
                <feMergeNode in="shadowMatrixOuter1"></feMergeNode>
                <feMergeNode in="SourceGraphic"></feMergeNode>
            </feMerge>
        </filter>
        <linearGradient x1="50%" y1="93.7937565%" x2="50%" y2="50%" id="linearGradient-24">
            <stop stop-color="#52A6C4" offset="0%"></stop>
            <stop stop-color="#00B3D9" offset="79.556539%"></stop>
            <stop stop-color="#36DBFF" offset="100%"></stop>
        </linearGradient>
        <path d="M10.8771986,1.46677519 L6.45865525,9.83837197 C6.20086243,10.3267993 5.59593143,10.5137656 5.10750405,10.2559728 C4.92943657,10.1619885 4.78388756,10.0164394 4.68990324,9.83837197 L0.27135989,1.46677519 C0.0135670686,0.978347814 0.20053332,0.373416817 0.6889607,0.115623995 C0.832831335,0.0396888237 0.993055503,4.73973113e-16 1.15573589,4.4408921e-16 L9.99282259,0 C10.5451073,-1.01453063e-16 10.9928226,0.44771525 10.9928226,1 C10.9928226,1.16268039 10.9531338,1.32290456 10.8771986,1.46677519 Z" id="path-25"></path>
        <filter x="-3.1%" y="-14.0%" width="106.2%" height="115.1%" filterUnits="objectBoundingBox" id="filter-26">
            <feOffset dx="0" dy="-1" in="SourceAlpha" result="shadowOffsetOuter1"></feOffset>
            <feColorMatrix values="0 0 0 0 0   0 0 0 0 0   0 0 0 0 0  0 0 0 0.198963995 0" type="matrix" in="shadowOffsetOuter1"></feColorMatrix>
        </filter>
    </defs>
    <g id="Symbols" stroke="none" stroke-width="1" fill="none" fill-rule="evenodd">
        <g id="Type-/-Collection_lavr_SAU" transform="translate(0.000000, -1.000000)" fill-rule="nonzero">
            <g transform="translate(1.000000, 1.000000)">
                <g id="vetka" filter="url(#filter-1)">
                    <g id="Path-2">
                        <use fill="black" fill-opacity="1" filter="url(#filter-3)" xlink:href="#path-2"></use>
                        <use fill="#35DBFF" xlink:href="#path-2"></use>
                    </g>
                    <g id="Path-2" transform="translate(4.269292, 14.564928) rotate(30.000000) translate(-4.269292, -14.564928) ">
                        <use fill="black" fill-opacity="1" filter="url(#filter-5)" xlink:href="#path-4"></use>
                        <use fill="#35DBFF" xlink:href="#path-4"></use>
                    </g>
                    <g id="Path-2" transform="translate(2.983110, 11.381817) rotate(60.000000) translate(-2.983110, -11.381817) ">
                        <use fill="black" fill-opacity="1" filter="url(#filter-7)" xlink:href="#path-6"></use>
                        <use fill="#35DBFF" xlink:href="#path-6"></use>
                    </g>
                    <g id="Path-2" transform="translate(2.996038, 7.541820) rotate(90.000000) translate(-2.996038, -7.541820) ">
                        <use fill="black" fill-opacity="1" filter="url(#filter-9)" xlink:href="#path-8"></use>
                        <use fill="#35DBFF" xlink:href="#path-8"></use>
                    </g>
                    <g id="Path-2" transform="translate(5.068206, 3.874229) rotate(120.000000) translate(-5.068206, -3.874229) ">
                        <use fill="black" fill-opacity="1" filter="url(#filter-11)" xlink:href="#path-10"></use>
                        <use fill="#35DBFF" xlink:href="#path-10"></use>
                    </g>
                </g>
                <g id="vetka" filter="url(#filter-12)" transform="translate(17.419355, 9.450000) scale(-1, 1) translate(-17.419355, -9.450000) translate(13.238710, 0.000000)">
                    <g id="Path-2">
                        <use fill="black" fill-opacity="1" filter="url(#filter-14)" xlink:href="#path-13"></use>
                        <use fill="#35DBFF" xlink:href="#path-13"></use>
                    </g>
                    <g id="Path-2" transform="translate(4.269292, 14.564928) rotate(30.000000) translate(-4.269292, -14.564928) ">
                        <use fill="black" fill-opacity="1" filter="url(#filter-16)" xlink:href="#path-15"></use>
                        <use fill="#35DBFF" xlink:href="#path-15"></use>
                    </g>
                    <g id="Path-2" transform="translate(2.983110, 11.381817) rotate(60.000000) translate(-2.983110, -11.381817) ">
                        <use fill="black" fill-opacity="1" filter="url(#filter-18)" xlink:href="#path-17"></use>
                        <use fill="#35DBFF" xlink:href="#path-17"></use>
                    </g>
                    <g id="Path-2" transform="translate(2.996038, 7.541820) rotate(90.000000) translate(-2.996038, -7.541820) ">
                        <use fill="black" fill-opacity="1" filter="url(#filter-20)" xlink:href="#path-19"></use>
                        <use fill="#35DBFF" xlink:href="#path-19"></use>
                    </g>
                    <g id="Path-2" transform="translate(5.068206, 3.874229) rotate(120.000000) translate(-5.068206, -3.874229) ">
                        <use fill="black" fill-opacity="1" filter="url(#filter-22)" xlink:href="#path-21"></use>
                        <use fill="#35DBFF" xlink:href="#path-21"></use>
                    </g>
                </g>
                <g id="Group-2" filter="url(#filter-23)" transform="translate(5.086452, 6.048000)">
                    <g id="Combined-Shape">
                        <use fill="black" fill-opacity="1" filter="url(#filter-26)" xlink:href="#path-25"></use>
                        <use fill="url(#linearGradient-24)" xlink:href="#path-25"></use>
                    </g>
                </g>
            </g>
        </g>
    </g>
</svg>