<svg width="15" height="12" viewBox="0 0 15 12" fill="none" xmlns="http://www.w3.org/2000/svg">
<path fill-rule="evenodd" clip-rule="evenodd" d="M13.2784 9.36C11.8622 11.2873 9.34403 12 9.34403 12C8.67698 11.767 6.80411 10.9231 5.65562 9.36C5.54698 9.21218 5.44546 9.06005 5.35011 8.90493L6.86202 8.27253L6.63917 9.36L7.86866 8.64V9.84L9.34403 8.4V11.0171C9.71918 10.8975 11.5113 10.2667 12.5716 8.8224C14.0737 6.77607 14.016 3.7824 14.016 3.7824C14.016 3.7824 13.2975 3.50231 12.9843 2.976C12.6105 2.34785 12.5716 1.5648 12.5716 1.5648C12.5716 1.5648 11.941 1.02584 9.68233 0.966L9.6826 0.96H9.34403V3.6L7.62277 1.68L7.86866 3.6L5.9944 2.45667C5.98159 2.49491 5.96643 2.53304 5.95175 2.57171L6.38203 4.04155L4.20446 3.23187C4.48784 3.08187 4.92422 2.80222 5.16379 2.4C5.60928 1.65218 5.65562 0.72 5.65562 0.72C5.65562 0.72 6.40699 0.0783819 9.09847 0.00714553L9.09815 0H9.83586L9.83554 0.00714553C12.527 0.0783819 13.2784 0.72 13.2784 0.72C13.2784 0.72 13.3247 1.65218 13.7702 2.4C14.1434 3.02656 14.9997 3.36 14.9997 3.36C14.9997 3.36 15.0684 6.92389 13.2784 9.36ZM6.88511 4.8H7.37688C7.37688 4.8 11.5571 5.03209 11.5571 6.25527C11.5571 7.41305 7.44583 7.67564 7.38261 7.67962V7.68753H1.53674e-08V4.80682H6.88511V4.8ZM6.80743 5.52H6.39328V6.96H6.80743C6.80743 6.96 10.3276 6.831 10.3276 6.24764C10.3276 5.63607 6.80743 5.52 6.80743 5.52Z" fill="white" fill-opacity="0.8"/>
</svg>
