<svg width="231" height="231" viewBox="0 0 231 231" fill="none" xmlns="http://www.w3.org/2000/svg">
<path d="M205.678 62.0537L176.364 65.4176L178.767 44.2732H51.9004L54.3032 65.4176L24.9893 61.5732L19.2227 71.1843L29.7949 107.226L61.031 121.162L66.7976 132.695L94.6699 149.995L97.0726 168.737L75.9282 180.27L73.5254 196.609H156.181L153.778 180.27L132.634 168.737L135.037 149.995L162.909 132.695L168.675 121.162L200.392 107.226L211.445 71.1843L205.678 62.0537ZM61.5115 107.226L39.406 101.459L32.1977 74.5482L55.2643 76.951L61.5115 107.226ZM164.35 63.976L162.909 77.4315L157.623 105.304L153.778 124.526L129.27 139.904L124.464 143.268H107.164L102.359 139.904L77.8504 124.526L74.006 104.823L68.2393 75.5093L66.7976 63.976L65.8365 56.7676H164.831L164.35 63.976ZM191.742 101.459L169.637 107.707L175.403 76.951L198.47 74.5482L191.742 101.459Z" fill="white" fill-opacity="0.1"/>
<path d="M94.6685 64.9373H80.7324L88.4213 118.279L104.76 131.734L97.0713 114.434L94.6685 64.9373Z" fill="white" fill-opacity="0.1"/>
</svg>
