<svg width="30" height="30" viewBox="0 0 30 30" fill="none" xmlns="http://www.w3.org/2000/svg">
<path d="M19.6104 0C28.0161 5.56697e-05 30 2.00037 30 10.4062V19.6104C29.9999 28.0161 27.9996 30 19.5938 30H10.3896C1.98394 29.9999 0 27.9996 0 19.5938V10.3896C5.59274e-05 1.99994 2.00037 0 10.4062 0H19.6104ZM15 7.22168C15 7.22168 8.05075 7.22219 6.31738 7.68652C5.84642 7.81316 5.41712 8.0614 5.07227 8.40625C4.72741 8.7511 4.47918 9.1804 4.35254 9.65137C3.88892 11.3837 3.88867 14.998 3.88867 15C3.88867 15 3.88823 18.6158 4.35254 20.3486C4.4792 20.8195 4.72756 21.2489 5.07227 21.5938C5.41712 21.9386 5.84741 22.1868 6.31836 22.3135C8.05115 22.7777 15 22.7783 15 22.7783C15.0165 22.7783 21.9513 22.7773 23.6826 22.3135C24.1536 22.1868 24.5829 21.9386 24.9277 21.5938C25.2726 21.2489 25.5208 20.8196 25.6475 20.3486C26.1112 18.6159 26.1113 15 26.1113 15C26.1113 14.998 26.1107 11.3837 25.6465 9.65137C25.5199 9.18058 25.2724 8.75103 24.9277 8.40625C24.5829 8.06139 24.1526 7.81316 23.6816 7.68652C21.951 7.22282 15.0165 7.22168 15 7.22168ZM18.5508 15L12.7773 18.333V11.667L18.5508 15Z" fill="white"/>
</svg>
