<svg width="17" height="18" viewBox="0 0 17 18" fill="none" xmlns="http://www.w3.org/2000/svg">
<path fill-rule="evenodd" clip-rule="evenodd" d="M7.43764 13.4842C10.3659 13.4842 12.8753 10.9898 12.8753 7.74211C12.8753 4.49445 10.3659 2 7.43764 2C4.50938 2 2 4.49445 2 7.74211C2 10.9898 4.50938 13.4842 7.43764 13.4842ZM7.43764 15.4842C11.5453 15.4842 14.8753 12.018 14.8753 7.74211C14.8753 3.46626 11.5453 0 7.43764 0C3.32994 0 0 3.46626 0 7.74211C0 12.018 3.32994 15.4842 7.43764 15.4842Z" fill="#ffffff"/>
<path d="M11.6314 12.3344C12.014 11.9361 12.6344 11.9361 13.017 12.3344L16.3063 15.7584C16.6889 16.1566 16.6889 16.8024 16.3063 17.2006L16.231 17.2791C15.8483 17.6773 15.228 17.6773 14.8454 17.2791L11.5561 13.8551C11.1735 13.4568 11.1735 12.8111 11.5561 12.4128L11.6314 12.3344Z" fill="#ffffff"/>
</svg>
