<svg width="14" height="12" viewBox="0 0 14 12" fill="none" xmlns="http://www.w3.org/2000/svg">
<path fill-rule="evenodd" clip-rule="evenodd" d="M13.6435 10.8915L11.7998 9.14118C11.7373 9.08937 11.6572 9.06298 11.5757 9.06738C11.4943 9.07178 11.4176 9.10664 11.3612 9.16488L10.902 9.60331C10.8717 9.62862 10.8471 9.65978 10.8296 9.69486C10.812 9.72995 10.802 9.76822 10.8 9.8073C10.7986 9.84651 10.8055 9.88558 10.8203 9.922C10.835 9.95844 10.8573 9.99143 10.8857 10.0189L12.7294 11.7735C12.7904 11.8243 12.8687 11.8501 12.9483 11.8457C13.0279 11.8413 13.1029 11.807 13.1577 11.7498L13.6221 11.308C13.6518 11.2824 13.6759 11.2511 13.6931 11.2161C13.7102 11.181 13.7201 11.143 13.722 11.1041C13.7239 11.0652 13.7179 11.0263 13.7042 10.9898C13.6906 10.9533 13.6697 10.9199 13.6426 10.8915H13.6435ZM3.06454 7.1462L10.4222 0H12.337V1.84347L4.89281 8.90672L6.06568 10.0367C6.09837 10.0714 6.12365 10.1123 6.14002 10.1569C6.15638 10.2016 6.1635 10.249 6.16094 10.2963C6.15838 10.3437 6.1462 10.3901 6.12513 10.4327C6.10406 10.4754 6.07452 10.5134 6.03827 10.5445L5.4831 11.0794C5.41724 11.1505 5.32581 11.1932 5.22843 11.1985C5.13104 11.2037 5.03547 11.171 4.96221 11.1074L0.78134 7.08018C0.748759 7.04536 0.723576 7.00445 0.707278 6.95985C0.690981 6.91526 0.683901 6.86788 0.686457 6.82054C0.689013 6.77319 0.701153 6.72683 0.722159 6.6842C0.743166 6.64157 0.772612 6.60353 0.808756 6.57234L1.36392 6.03825C1.4299 5.96746 1.5212 5.92485 1.61846 5.91947C1.71571 5.9141 1.81126 5.94639 1.88482 6.00948L3.06454 7.1462ZM9.40695 5.94176L10.6372 7.1352L11.8229 6.00948C11.899 5.9462 11.9966 5.91388 12.0958 5.91907C12.1951 5.92426 12.2887 5.96657 12.3575 6.03741L12.9196 6.57149C12.9564 6.60221 12.9866 6.64006 13.0081 6.68273C13.0296 6.72539 13.042 6.77196 13.0445 6.81955C13.0471 6.86714 13.0398 6.91474 13.023 6.95943C13.0062 7.00411 12.9803 7.04492 12.947 7.07933L8.70443 11.1065C8.62847 11.17 8.53086 11.2024 8.43152 11.1972C8.33218 11.1921 8.23859 11.1496 8.16983 11.0786L7.61466 10.5445C7.5773 10.5143 7.54662 10.4768 7.52451 10.4344C7.5024 10.392 7.48934 10.3455 7.48612 10.2979C7.48291 10.2503 7.48962 10.2026 7.50583 10.1576C7.52205 10.1127 7.54742 10.0715 7.58039 10.0367L8.79096 8.88725L7.55126 7.71075L8.3189 6.97861L9.2733 7.90119C9.28274 7.90972 9.29381 7.9163 9.30586 7.92055C9.31791 7.92479 9.33069 7.92661 9.34346 7.9259C9.35623 7.92519 9.36873 7.92197 9.38023 7.91641C9.39172 7.91086 9.40197 7.9031 9.41038 7.89358L9.56116 7.74884C9.58021 7.7314 9.5916 7.70729 9.59288 7.68166C9.59416 7.65603 9.58524 7.63093 9.56802 7.61172L9.57487 7.60834L8.62304 6.68914L9.40609 5.94261L9.40695 5.94176ZM6.22332 2.85577L5.43256 3.60907L3.7268 1.95943C3.71731 1.951 3.70622 1.94451 3.69419 1.94034C3.68215 1.93616 3.66939 1.93437 3.65665 1.93508C3.64392 1.93579 3.63144 1.93897 3.61996 1.94446C3.60847 1.94995 3.59819 1.95762 3.58972 1.96705L3.43893 2.11517C3.41988 2.13182 3.40801 2.15506 3.40578 2.18009C3.40355 2.20513 3.41112 2.23006 3.42694 2.24974L5.13013 3.896L4.33251 4.65608L1.37077 1.84601V0H3.28044L6.22332 2.85577ZM0.079674 10.8915L1.92337 9.14118C1.98586 9.08937 2.06597 9.06298 2.14743 9.06738C2.2289 9.07178 2.30561 9.10664 2.36202 9.16488L2.82123 9.60331C2.85124 9.62844 2.87583 9.65927 2.89353 9.69398C2.91122 9.7287 2.92166 9.76657 2.92422 9.80536C2.92678 9.84414 2.9214 9.88304 2.90842 9.91972C2.89543 9.95641 2.8751 9.99014 2.84864 10.0189L1.00495 11.7701C0.942453 11.8219 0.862346 11.8483 0.780883 11.8439C0.69942 11.8395 0.622703 11.8046 0.5663 11.7464L0.100236 11.308C0.0705661 11.2824 0.0464283 11.2511 0.0292655 11.2161C0.0121027 11.181 0.00226749 11.143 0.000348001 11.1041C-0.00157149 11.0652 0.00446416 11.0263 0.018094 10.9898C0.0317239 10.9533 0.052668 10.9199 0.079674 10.8915ZM4.15345 7.60918L4.15088 7.61257C4.14155 7.62176 4.13428 7.63278 4.12953 7.64492C4.12478 7.65706 4.12266 7.67005 4.1233 7.68305C4.12395 7.69605 4.12735 7.70878 4.13328 7.7204C4.13921 7.73202 4.14754 7.74229 4.15773 7.75053L4.30167 7.89442C4.32008 7.9137 4.3453 7.92524 4.37209 7.92666C4.39888 7.92808 4.4252 7.91926 4.4456 7.90204L10.2371 2.27006C10.2464 2.26094 10.2537 2.24999 10.2584 2.23792C10.2632 2.22585 10.2653 2.21292 10.2647 2.19999C10.264 2.18706 10.2606 2.1744 10.2547 2.16285C10.2488 2.1513 10.2404 2.14111 10.2303 2.13294L10.0821 1.98736C10.0634 1.96839 10.0382 1.95713 10.0114 1.95587C9.98472 1.95461 9.9585 1.96345 9.93813 1.98059L4.15345 7.60918Z" transform="translate(0 0.0761719)" fill="white" fill-opacity="0.8"/>
</svg>
