<svg width="41" height="40" viewBox="0 0 41 40" fill="none" xmlns="http://www.w3.org/2000/svg">
<path d="M25.277 5C33.6827 5.00006 35.6666 7.00037 35.6666 15.4062V24.6104C35.6666 33.0161 33.6663 35 25.2604 35H16.0563C7.65057 34.9999 5.66663 32.9996 5.66663 24.5938V15.3896C5.66668 6.99994 7.66699 5 16.0729 5H25.277ZM12.2125 14.1104V26.6172H16.3942V30.0908L19.8785 26.6172H22.6666L28.9391 20.3633V10.6367H15.6969L12.2125 14.1104ZM27.5455 19.6689L24.7574 22.4482H21.9694L19.5299 24.8799V22.4482H16.3942V12.0264H27.5455V19.6689ZM20.2272 18.627H21.6207V14.458H20.2272V18.627ZM24.0612 18.627H25.4547V14.458H24.0612V18.627Z" fill="white"/>
</svg>
