<svg width="31" height="28" viewBox="0 0 31 28" version="1.1" xmlns="http://www.w3.org/2000/svg" xmlns:xlink="http://www.w3.org/1999/xlink">
<title>Position</title>
<desc>Created using Figma</desc>
<g id="Canvas" transform="translate(-10464 -1084)">
<g id="Position">
<g id="Group">
<g id="Vector">
<use xlink:href="#path0_fill" transform="translate(10483.1 1101.94)" fill="#DA773B"/>
</g>
<g id="Vector">
<use xlink:href="#path1_fill" transform="translate(10483.6 1084)" fill="#DA773B"/>
</g>
<g id="Vector">
<use xlink:href="#path2_fill" transform="translate(10487.6 1093.77)" fill="#DA773B"/>
</g>
<g id="Vector">
<use xlink:href="#path3_fill" transform="translate(10488.5 1086.34)" fill="#DA773B"/>
</g>
<g id="Vector">
<use xlink:href="#path4_fill" transform="translate(10467.1 1086.31)" fill="#DA773B"/>
</g>
<g id="Vector">
<use xlink:href="#path5_fill" transform="translate(10464.6 1101.94)" fill="#DA773B"/>
</g>
<g id="Vector">
<use xlink:href="#path6_fill" transform="translate(10470.9 1084)" fill="#DA773B"/>
</g>
<g id="Vector">
<use xlink:href="#path7_fill" transform="translate(10464 1093.77)" fill="#DA773B"/>
</g>
<g id="Vector">
<use xlink:href="#path8_fill" transform="translate(10468.8 1106.08)" fill="#DA773B"/>
</g>
</g>
<g id="3">
<use xlink:href="#path9_fill" transform="translate(10475.5 1087.04)" fill="#DA773B"/>
</g>
</g>
</g>
<defs>
<path id="path0_fill" d="M 0.495502 3.28084C 2.8801 0.455163 6.93702 -0.386527 10.5294 0.15456L 11.2727 0.2748L 10.8081 0.876007C 8.51644 3.79186 4.30467 4.72373 0.743252 4.00229L 2.36274e-07 3.85198L 0.495502 3.28084Z"/>
<path id="path1_fill" d="M 0.982861 0.420845C 3.49134 2.37477 5.00881 5.62129 4.35847 8.74757L 4.23459 9.43895L 3.64618 9.01811C 1.07577 7.15437 -0.658489 3.72749 0.239608 0.631268L 0.425421 0L 0.982861 0.420845Z"/>
<path id="path2_fill" d="M 7.24671 0.691388C 6.75121 4.11827 4.24273 7.54515 0.650347 8.32672L 9.45095e-07 8.47702L 0.123875 7.81569C 0.774221 4.41887 3.22076 1.2926 6.68927 0.210423L 7.37059 0L 7.24671 0.691388Z"/>
<path id="path3_fill" d="M 2.65 0.661328C 3.98166 3.6373 3.57907 7.24455 1.53512 9.82974L 1.03962 10.4309L 0.729931 9.7095C -0.508823 6.73352 -0.199136 3.12628 1.87578 0.571147L 2.34031 5.73356e-08L 2.65 0.661328Z"/>
<path id="path4_fill" d="M 1.54646 0.601207C 3.62137 3.1864 3.93106 6.76358 2.6923 9.73956L 2.38262 10.461L 1.88711 9.8598C -0.156831 7.27461 -0.559427 3.66736 0.772234 0.691388L 1.08192 -5.73356e-08L 1.54646 0.601207Z"/>
<path id="path5_fill" d="M 10.5294 4.00491C 6.96799 4.72636 2.75623 3.79448 0.464533 0.878628L -7.38355e-09 0.277421L 0.743253 0.15718C 4.33564 -0.383906 8.39256 0.427723 10.7772 3.28346L 11.2417 3.85461L 10.5294 4.00491Z"/>
<path id="path6_fill" d="M 4.25914 0.631268C 5.18821 3.72749 3.45395 7.15437 0.85257 9.01811L 0.264162 9.43895L 0.140286 8.74757C -0.479091 5.62129 1.00741 2.37477 3.51589 0.420845L 4.07333 0L 4.25914 0.631268Z"/>
<path id="path7_fill" d="M 0.681315 0.210423C 4.14983 1.26254 6.59637 4.38881 7.24671 7.81569L 7.37059 8.47702L 6.72024 8.32672C 3.09689 7.54515 0.588408 4.11827 0.0929066 0.691388L 0 0L 0.681315 0.210423Z"/>
<path id="path8_fill" d="M 13.1927 2.29837C 13.7811 2.89958 14.3696 3.47072 15.0818 3.95169L 15.5773 4.25229L 15.1438 4.64308C 14.958 4.79338 14.8031 4.94368 14.6173 5.12404L 14.4005 5.3044L 14.1218 5.18416C 12.4495 4.49277 11.985 2.74927 10.6843 1.93765C 9.38357 2.74927 8.91903 4.49277 7.24671 5.18416L 6.96799 5.3044L 6.75121 5.09398C 6.5654 4.94368 6.41055 4.79338 6.22474 4.61302L 5.79118 4.22223L 6.28668 3.92163C 6.99896 3.47072 7.58737 2.86952 8.17578 2.26831C 7.37059 2.65909 6.59637 3.11 5.6673 3.2603C 4.05692 3.53084 2.2917 3.62103 0.743253 2.9597L 5.50118e-16 2.62903L 0.681315 2.17813C 2.19879 1.15607 3.84014 0.194143 5.76021 0.0438415C 7.24671 -0.0463396 8.76419 0.0137816 10.2507 0.314385L 10.2817 0.314385L 10.3126 0.314385C 10.5914 0.404566 10.8701 0.404566 11.1488 0.314385L 11.1798 0.314385L 11.2107 0.314385C 12.6663 -0.0162788 14.1837 -0.0463396 15.7012 0.0438415C 17.5903 0.194143 19.2317 1.15607 20.7801 2.17813L 21.4614 2.62903L 20.7182 2.9597C 19.1697 3.62103 17.4355 3.53084 15.7941 3.2603C 14.8031 3.14006 13.9979 2.68915 13.1927 2.29837Z"/>
<path id="path9_fill" d="M 2.67969 8.60938L 3.5625 8.60938C 4.13021 8.60938 4.56771 8.4349 4.875 8.08594C 5.18229 7.73698 5.33594 7.26042 5.33594 6.65625C 5.33594 5.32292 4.82031 4.65625 3.78906 4.65625C 3.29427 4.65625 2.90625 4.83594 2.625 5.19531C 2.34375 5.55469 2.20312 6.02604 2.20312 6.60938L 0.828125 6.60938C 0.828125 5.69792 1.10417 4.94792 1.65625 4.35938C 2.21354 3.76562 2.92448 3.46875 3.78906 3.46875C 4.6849 3.46875 5.39583 3.75 5.92188 4.3125C 6.44792 4.86979 6.71094 5.66146 6.71094 6.6875C 6.71094 7.21354 6.57292 7.70573 6.29688 8.16406C 6.02604 8.61719 5.67188 8.95052 5.23438 9.16406C 6.30729 9.5599 6.84375 10.4479 6.84375 11.8281C 6.84375 12.8438 6.5599 13.6536 5.99219 14.2578C 5.42969 14.8568 4.69271 15.1562 3.78125 15.1562C 2.88021 15.1562 2.15104 14.8724 1.59375 14.3047C 1.04167 13.7318 0.765625 12.9635 0.765625 12L 2.14844 12C 2.14844 12.6042 2.29427 13.0859 2.58594 13.4453C 2.8776 13.7995 3.27604 13.9766 3.78125 13.9766C 4.29688 13.9766 4.70573 13.8021 5.00781 13.4531C 5.3151 13.1042 5.46875 12.5729 5.46875 11.8594C 5.46875 10.4792 4.8151 9.78906 3.50781 9.78906L 2.67969 9.78906L 2.67969 8.60938Z"/>
</defs>
</svg>
