<svg width="310" height="130" opacity="0.2" viewBox="0 0 310 130" fill="none" xmlns="http://www.w3.org/2000/svg">
<path d="M62.5 3L65.4049 9.59511L72 12.5L65.4049 15.4049L62.5 22L59.5951 15.4049L53 12.5L59.5951 9.59511L62.5 3Z" fill="white"/>
<path d="M69.5 81L72.4049 87.595L79 90.5L72.4049 93.405L69.5 100L66.5951 93.405L60 90.5L66.5951 87.595L69.5 81Z" fill="white"/>
<path d="M9.5 70L12.4049 76.5951L19 79.5L12.4049 82.4049L9.5 89L6.59511 82.4049L0 79.5L6.59511 76.5951L9.5 70Z" fill="white"/>
<path d="M16.5 119L18.1818 122.818L22 124.5L18.1818 126.182L16.5 130L14.8182 126.182L11 124.5L14.8182 122.818L16.5 119Z" fill="white"/>
<path d="M120.5 93L122.182 96.8182L126 98.5L122.182 100.182L120.5 104L118.818 100.182L115 98.5L118.818 96.8182L120.5 93Z" fill="white"/>
<path d="M120.5 13L122.182 16.8182L126 18.5L122.182 20.1818L120.5 24L118.818 20.1818L115 18.5L118.818 16.8182L120.5 13Z" fill="white"/>
<path d="M242.5 43L244.182 46.8182L248 48.5L244.182 50.1818L242.5 54L240.818 50.1818L237 48.5L240.818 46.8182L242.5 43Z" fill="white"/>
<path d="M260.5 97L262.182 100.818L266 102.5L262.182 104.182L260.5 108L258.818 104.182L255 102.5L258.818 100.818L260.5 97Z" fill="white"/>
<path d="M175.5 113L177.182 116.818L181 118.5L177.182 120.182L175.5 124L173.818 120.182L170 118.5L173.818 116.818L175.5 113Z" fill="white"/>
<path d="M92.5 46L94.1818 49.8182L98 51.5L94.1818 53.1818L92.5 57L90.8182 53.1818L87 51.5L90.8182 49.8182L92.5 46Z" fill="white"/>
<path d="M35.5 31L37.1818 34.8182L41 36.5L37.1818 38.1818L35.5 42L33.8182 38.1818L30 36.5L33.8182 34.8182L35.5 31Z" fill="white"/>
<path d="M287.5 43L290.405 49.5951L297 52.5L290.405 55.4049L287.5 62L284.595 55.4049L278 52.5L284.595 49.5951L287.5 43Z" fill="white"/>
<path d="M199.5 19L202.405 25.5951L209 28.5L202.405 31.4049L199.5 38L196.595 31.4049L190 28.5L196.595 25.5951L199.5 19Z" fill="white"/>
<path d="M264.5 0L267.405 6.59511L274 9.5L267.405 12.4049L264.5 19L261.595 12.4049L255 9.5L261.595 6.59511L264.5 0Z" fill="white"/>
<path d="M208.5 86L211.405 92.5951L218 95.5L211.405 98.405L208.5 105L205.595 98.405L199 95.5L205.595 92.5951L208.5 86Z" fill="white"/>
<path d="M153.5 48L156.405 54.5951L163 57.5L156.405 60.4049L153.5 67L150.595 60.4049L144 57.5L150.595 54.5951L153.5 48Z" fill="white"/>
</svg>
