<svg width="40" height="40" viewBox="0 0 40 40" fill="none" xmlns="http://www.w3.org/2000/svg">
<path d="M24.6094 5H15.4062C6.99997 5 5 6.99997 5 15.3906V24.5938C5 32.9999 6.98441 35 15.3906 35H24.5938C33 35 35 33.0156 35 24.6093V15.4062C35 6.99997 33.0156 5 24.6094 5ZM29.2187 26.4062H27.0312C26.2032 26.4062 25.9531 25.7343 24.4688 24.25C23.1718 23 22.625 22.8437 22.2969 22.8437C21.8438 22.8437 21.7187 22.9687 21.7187 23.5937V25.5625C21.7187 26.0938 21.5469 26.4062 20.1563 26.4062C18.8069 26.3155 17.4983 25.9056 16.3383 25.2102C15.1784 24.5147 14.2002 23.5537 13.4844 22.4062C11.785 20.2911 10.6027 17.8086 10.0313 15.1562C10.0313 14.8281 10.1562 14.5312 10.7813 14.5312H12.9688C13.5312 14.5312 13.7344 14.7812 13.9531 15.3594C15.0156 18.4843 16.8282 21.2031 17.5625 21.2031C17.8438 21.2031 17.9687 21.0781 17.9687 20.375V17.1562C17.875 15.6875 17.0938 15.5624 17.0938 15.0312C17.104 14.8911 17.1685 14.7605 17.2736 14.6671C17.3786 14.5738 17.5159 14.525 17.6562 14.5312H21.0938C21.5625 14.5312 21.7187 14.7656 21.7187 15.3281V19.6719C21.7187 20.1406 21.9219 20.2968 22.0625 20.2968C22.3438 20.2968 22.5625 20.1406 23.0781 19.625C24.1861 18.2738 25.0915 16.7684 25.7656 15.1562C25.8344 14.9622 25.9649 14.7961 26.137 14.6832C26.3091 14.5704 26.5135 14.517 26.7188 14.5312H28.9062C29.5625 14.5312 29.7031 14.8593 29.5625 15.3281C28.7666 17.1105 27.7818 18.8025 26.625 20.375C26.3907 20.7343 26.2969 20.9218 26.625 21.3437C26.8438 21.6718 27.6094 22.3124 28.125 22.9218C28.875 23.6699 29.4978 24.5355 29.9687 25.4844C30.1562 26.0938 29.8437 26.4062 29.2187 26.4062Z" fill="white"/>
</svg>
