<?xml version="1.0" encoding="utf-8"?>
<!-- Generator: Adobe Illustrator 18.0.0, SVG Export Plug-In . SVG Version: 6.00 Build 0)  -->
<!DOCTYPE svg PUBLIC "-//W3C//DTD SVG 1.1//EN" "http://www.w3.org/Graphics/SVG/1.1/DTD/svg11.dtd">
<svg version="1.1" id="Layer_1" xmlns="http://www.w3.org/2000/svg" xmlns:xlink="http://www.w3.org/1999/xlink" x="0px" y="0px"
	 viewBox="0 0 14 10" enable-background="new 0 0 14 10" xml:space="preserve">
<g>
	<g>
		<defs>
			<rect id="SVGID_15_" x="0.1" width="14" height="10"/>
		</defs>
		<use xlink:href="#SVGID_15_"  overflow="visible" fill="#FFFFFF"/>
		<clipPath id="SVGID_2_">
			<use xlink:href="#SVGID_15_"  overflow="visible"/>
		</clipPath>
		<rect y="0" clip-path="url(#SVGID_2_)" fill="#FFFFFF" width="14" height="9.8"/>
	</g>
</g>
<g>
	<polygon fill="#010202" points="9.8,1.7 10.4,2.6 10.1,2.9 9.5,1.9 	"/>
	<polygon fill="#010202" points="10.5,2.8 11.1,3.7 10.8,4 10.2,3 	"/>
	<polygon fill="#010202" points="10.3,1.3 11.6,3.4 11.3,3.6 10,1.6 	"/>
	<polygon fill="#010202" points="10.8,1 11.4,1.9 11.1,2.2 10.5,1.2 	"/>
	<polygon fill="#010202" points="11.5,2.1 12.1,3.1 11.8,3.3 11.2,2.3 	"/>
	<polygon fill="#010202" points="3.5,6 4.8,8.1 4.5,8.3 3.1,6.3 	"/>
	<polygon fill="#010202" points="3,6.4 3.6,7.3 3.2,7.5 2.6,6.6 	"/>
	<polygon fill="#010202" points="3.7,7.5 4.3,8.4 4,8.7 3.3,7.7 	"/>
	<polygon fill="#010202" points="2.5,6.7 3.8,8.8 3.5,9 2.1,6.9 	"/>
	<polygon fill="#010202" points="3.1,3.7 4.5,1.7 4.8,1.9 3.5,4 	"/>
	<polygon fill="#010202" points="2.6,3.4 4,1.3 4.3,1.6 3,3.6 	"/>
	<polygon fill="#010202" points="2.1,3.1 3.5,1 3.8,1.2 2.5,3.3 	"/>
	<polygon fill="#010202" points="9.5,8.1 10.1,7.1 10.4,7.4 9.8,8.3 	"/>
	<polygon fill="#010202" points="10.2,7 10.8,6 11.1,6.3 10.5,7.2 	"/>
	<polygon fill="#010202" points="10,8.4 10.6,7.5 10.9,7.7 10.3,8.7 	"/>
	<polygon fill="#010202" points="10.7,7.3 11.3,6.4 11.6,6.6 11,7.5 	"/>
	<polygon fill="#010202" points="10.5,8.8 11.1,7.8 11.4,8.1 10.8,9 	"/>
	<polygon fill="#010202" points="11.2,7.7 11.8,6.7 12.1,6.9 11.5,7.9 	"/>
	<path fill="#B6163B" d="M5.1,3.6C5.1,3.6,5.1,3.7,5.1,3.6C5.1,3.7,5.1,3.6,5.1,3.6"/>
	<path fill="#B6163B" d="M8.5,2.9C7.4,2.2,5.9,2.5,5.1,3.6C4.8,4.2,4.9,5,5.5,5.3C6,5.7,6.8,5.6,7.1,5c0.4-0.6,1.1-0.7,1.7-0.3
		C9.3,5,9.5,5.8,9.1,6.4C9.9,5.2,9.6,3.7,8.5,2.9"/>
	<path fill="#233772" d="M5.1,3.6C4.8,4.2,4.9,5,5.5,5.3C6,5.7,6.8,5.6,7.1,5c0.4-0.6,1.1-0.7,1.7-0.3C9.3,5,9.5,5.8,9.1,6.4
		C8.4,7.5,6.9,7.8,5.8,7.1C4.7,6.3,4.4,4.8,5.1,3.6"/>
</g>
</svg>
