<svg width="48" height="48" viewBox="0 0 48 48" fill="none" xmlns="http://www.w3.org/2000/svg">
<path fill-rule="evenodd" clip-rule="evenodd" d="M21.6 37.3C15.1 33.8 14 27.5 19.6 19.6C19.7 21.7 19.8 23.7 20.9 24.9C20.6 23 19.2 16.5 26.5 11C24.3 22.5 40 25.8 27.6 37.2C30.9 29.7 25.3 30 25.2 23C22.7 25.7 22.4 28.6 23.4 31.8C22.4 31.4 21.4 30.2 20.7 28.7C19.6 31.9 20.6 35.1 21.6 37.3Z" fill="white"/>
<path d="M24 44C13 44 4 35 4 24C4 13 13 4 24 4C35 4 44 13 44 24C44 35 35 44 24 44ZM24 7.4C14.9 7.4 7.4 14.9 7.4 24C7.4 33.1 14.8 40.6 24 40.6C33.1 40.6 40.6 33.2 40.6 24C40.6 14.9 33.1 7.4 24 7.4Z" fill="white"/>
</svg>
