<svg width="14" height="14" viewBox="0 0 14 14" fill="none" xmlns="http://www.w3.org/2000/svg">
<path fill-rule="evenodd" clip-rule="evenodd" d="M6.86116 14C3.07185 14 0 10.866 0 7C0 3.13401 3.07185 0 6.86116 0C10.6505 0 13.7223 3.13401 13.7223 7C13.7223 10.866 10.6505 14 6.86116 14ZM12.2649 9.15385H9.36733C9.18989 10.6019 8.84314 11.8472 8.38418 12.7102C10.1635 12.217 11.6002 10.8834 12.2649 9.15385ZM6.86116 12.9231C7.53414 12.9231 8.10794 11.3588 8.33911 9.15385H5.38322C5.61438 11.3588 6.18819 12.9231 6.86116 12.9231ZM8.44899 7C8.44899 6.63169 8.43881 6.27275 8.42155 5.92308H5.30078C5.28352 6.27275 5.27333 6.63169 5.27333 7C5.27333 7.36831 5.28352 7.72725 5.30078 8.07692H8.42155C8.43881 7.72725 8.44899 7.36831 8.44899 7ZM5.33814 12.7102C4.87918 11.8472 4.53243 10.6019 4.35499 9.15385H1.45747C2.12216 10.8834 3.55883 12.217 5.33814 12.7102ZM1.05556 7C1.05556 7.3682 1.09108 7.72752 1.15415 8.07692H4.25709C4.23645 7.72493 4.22225 7.36745 4.22225 7C4.22225 6.63255 4.23645 6.27507 4.25709 5.92308H1.15415C1.09108 6.27248 1.05556 6.6318 1.05556 7ZM1.45747 4.84615H4.35499C4.53243 3.39812 4.87918 2.15282 5.33814 1.28983C3.55883 1.78295 2.12216 3.11656 1.45747 4.84615ZM6.86116 1.07692C6.18819 1.07692 5.61438 2.64121 5.38322 4.84615H8.33911C8.10794 2.64121 7.53414 1.07692 6.86116 1.07692ZM8.38418 1.28983C8.84314 2.15282 9.18989 3.39812 9.36733 4.84615H12.2649C11.6002 3.11656 10.1635 1.78295 8.38418 1.28983ZM12.5682 5.92308H9.46524C9.48587 6.27507 9.50007 6.63255 9.50007 7C9.50007 7.36745 9.48587 7.72493 9.46524 8.07692H12.5682C12.6312 7.72752 12.6668 7.3682 12.6668 7C12.6668 6.6318 12.6312 6.27248 12.5682 5.92308Z" fill="white" fill-opacity="0.8"/>
</svg>
