<svg width="21" height="23" viewBox="0 0 21 23" fill="none" xmlns="http://www.w3.org/2000/svg">
<path fill-rule="evenodd" clip-rule="evenodd" d="M20.2119 3.44791C19.9749 6.02535 19.3939 15.6404 19.3939 15.6404L10.0383 23L0.758924 15.6563C0.758924 15.6563 0.178883 5.37373 0 3.44698C2.50839 1.32796 6.10718 0 10.1052 0C14.1041 0 17.7035 1.32837 20.2119 3.44791ZM18.3844 15.1442L10.0402 21.7082L1.77016 15.1632L1.76874 15.1369C1.75252 14.8381 1.72915 14.4092 1.70055 13.8885C1.64336 12.8471 1.56522 11.4384 1.48149 9.96927C1.33763 7.44523 1.1758 5.21652 1.07534 3.88226C3.36045 2.11712 6.54742 1 10.1052 1C13.6629 1 16.8497 2.11693 19.1348 3.88175C19.0124 5.39568 18.8337 7.68421 18.6793 10.2016C18.5918 11.6281 18.5117 12.9739 18.4535 13.963C18.4244 14.4572 18.4008 14.8624 18.3844 15.1442ZM4.14604 13.4389C4.14604 13.4457 10.0683 18.0004 10.0683 18.0004C10.0683 18.0004 16.0659 13.4704 16.0659 13.4389C16.0659 11.9066 14.7398 10.8472 13.1364 10.4306C12.4033 11.3817 11.3008 12.0958 10.0674 12.0958C8.84117 12.0958 7.7441 11.3899 7.01147 10.447C5.4369 10.8746 4.14604 11.9272 4.14604 13.4389ZM8.06042 7.743C8.06042 8.84901 8.95912 10.2236 10.0677 10.2236H10.0683C11.1764 10.2236 12.0749 8.84901 12.0749 7.743V6.50405C12.0749 5.39804 11.1762 4.50036 10.0677 4.50036C8.95912 4.50036 8.06042 5.39804 8.06042 6.50405V7.743Z" fill="white"/>
</svg>
