<svg width="866" height="383" viewBox="0 0 866 383" fill="none" xmlns="http://www.w3.org/2000/svg">
<path d="M410.632 11.0945C529.637 -3.57208 639.738 3.66727 721.499 27.0962C762.387 38.8127 796.018 54.5297 820.127 73.4329C844.222 92.3238 858.61 114.225 861.588 138.39C864.567 162.556 855.926 187.295 837.14 211.471C818.341 235.662 789.533 259.074 752.713 280.367C679.087 322.947 574.038 356.702 455.033 371.369C336.028 386.035 225.927 378.796 144.165 355.367C103.278 343.651 69.647 327.934 45.5371 309.03C21.4429 290.139 7.05445 268.239 4.07619 244.073C1.09793 219.907 9.73836 195.168 28.5248 170.993C47.3236 146.801 76.1318 123.389 112.951 102.096C186.578 59.5163 291.626 25.7612 410.632 11.0945Z" stroke="#00FFFD" stroke-width="7"/>
</svg>
