<svg width="16" height="16" viewBox="0 0 16 16" fill="none" xmlns="http://www.w3.org/2000/svg">
<circle cx="8" cy="8" r="7.375" stroke="#9BC3D4" stroke-width="1.25"/>
<path d="M1.8149 6.18389C1.8149 5.623 1.88301 5.17628 2.01923 4.84375C2.15545 4.51122 2.40385 4.1847 2.76442 3.86418C3.12901 3.53966 3.37139 3.27724 3.49159 3.07692C3.61178 2.8726 3.67188 2.65825 3.67188 2.43389C3.67188 1.75681 3.35938 1.41827 2.73438 1.41827C2.4379 1.41827 2.19952 1.51042 2.01923 1.69471C1.84295 1.875 1.7508 2.1254 1.74279 2.44591H0C0.00801282 1.68069 0.254407 1.08173 0.739183 0.649038C1.22796 0.216346 1.89303 0 2.73438 0C3.58373 0 4.24279 0.20633 4.71154 0.61899C5.18029 1.02764 5.41466 1.60657 5.41466 2.35577C5.41466 2.69631 5.33854 3.01883 5.1863 3.32332C5.03405 3.6238 4.76763 3.95833 4.38702 4.32692L3.90024 4.78966C3.59575 5.08213 3.42147 5.42468 3.3774 5.81731L3.35337 6.18389H1.8149ZM1.64062 8.02885C1.64062 7.76042 1.73077 7.54006 1.91106 7.36779C2.09535 7.19151 2.32973 7.10337 2.61418 7.10337C2.89864 7.10337 3.13101 7.19151 3.3113 7.36779C3.49559 7.54006 3.58774 7.76042 3.58774 8.02885C3.58774 8.29327 3.4976 8.51162 3.31731 8.68389C3.14103 8.85617 2.90665 8.94231 2.61418 8.94231C2.32171 8.94231 2.08534 8.85617 1.90505 8.68389C1.72877 8.51162 1.64062 8.29327 1.64062 8.02885Z" transform="translate(5.44531 3.4375)" fill="#9BC3D4"/>
</svg>
