<svg width="444" height="60" viewBox="0 0 444 60" fill="none" xmlns="http://www.w3.org/2000/svg">
<path d="M28.9162 3.72006C29.6415 3.89073 30.1749 4.31739 30.5162 5.00006C30.9002 5.64006 30.9855 6.32273 30.7722 7.04806C30.6869 7.34673 30.5589 7.66673 30.3882 8.00806C30.2602 8.30673 30.1322 8.64806 30.0042 9.03206C29.7055 9.58673 29.3215 10.4401 28.8522 11.5921C28.3829 12.7014 27.8709 13.8961 27.3162 15.1761C26.8042 16.4134 26.3349 17.5227 25.9082 18.5041C25.4815 19.4854 25.1829 20.1254 25.0122 20.4241C24.5855 21.2774 24.1375 22.1307 23.6682 22.9841C23.1989 23.8374 22.7082 24.6907 22.1962 25.5441C21.5135 26.7814 20.7882 28.0187 20.0202 29.2561C19.2522 30.4934 18.4629 31.7307 17.6522 32.9681C17.3962 33.3947 16.9269 34.0774 16.2442 35.0161C15.6042 35.9121 14.9429 36.8081 14.2602 37.7041C13.5775 38.5574 13.0655 39.1761 12.7242 39.5601C11.9562 40.7121 11.0815 41.8001 10.1002 42.8241C9.16152 43.8054 8.20152 44.7867 7.22019 45.7681C6.87886 46.1521 6.51619 46.5361 6.13219 46.9201C5.74819 47.3041 5.36419 47.6881 4.98019 48.0721C4.63885 48.4987 4.25485 48.9041 3.82819 49.2881C3.23085 50.0134 2.50552 50.1201 1.65219 49.6081C1.22552 49.3521 0.884188 49.0747 0.628188 48.7761C0.372188 48.4774 0.329521 48.0934 0.500188 47.6241C0.542855 47.4961 0.820188 47.1761 1.33219 46.6641C1.84419 46.1094 2.42019 45.4907 3.06019 44.8081C3.74286 44.1254 4.36152 43.5067 4.91619 42.9521C5.51352 42.3547 5.91886 41.9707 6.13219 41.8001C6.72952 41.1174 7.34819 40.4347 7.98819 39.7521C8.62819 39.0267 9.22552 38.2374 9.78019 37.3841C8.75619 36.5307 7.94552 35.5494 7.34819 34.4401C6.79352 33.3307 6.34552 32.1787 6.00419 30.9841C5.91886 30.6001 5.79085 30.2374 5.62019 29.8961C5.49219 29.5547 5.44952 29.1921 5.49219 28.8081L4.40419 23.1761C4.53219 22.8347 4.55352 22.4934 4.46819 22.1521C4.38285 21.8107 4.31885 21.4694 4.27619 21.1281L4.08419 9.99206C4.08419 10.1201 4.08419 9.97073 4.08419 9.54406C4.12686 9.07473 4.16952 8.49873 4.21219 7.81606C4.25485 7.09073 4.29752 6.40806 4.34019 5.76806C4.42552 5.12806 4.48952 4.68006 4.53219 4.42406C4.57486 4.16806 4.57486 3.84806 4.53219 3.46406C4.53219 3.08006 4.59619 2.76006 4.72419 2.50406C4.89485 2.20539 5.17219 2.05606 5.55619 2.05606C6.15352 1.97073 6.70819 2.12006 7.22019 2.50406C7.73219 2.88806 8.11619 3.31473 8.37219 3.78406C8.67086 4.25339 8.73486 4.61606 8.56419 4.87206C8.30819 5.34139 8.20152 5.83206 8.24419 6.34406C8.28685 6.85606 8.26552 7.34673 8.18019 7.81606C8.13752 8.15739 8.09485 8.81873 8.05219 9.80006C8.00952 10.7387 7.96685 11.8054 7.92419 13.0001C7.88152 14.1521 7.86019 15.2827 7.86019 16.3921C7.86019 17.4587 7.88152 18.2907 7.92419 18.8881C7.88152 18.5467 7.88152 18.6321 7.92419 19.1441C7.96685 19.6134 8.03085 20.2534 8.11619 21.0641C8.20152 21.8747 8.28686 22.6427 8.37219 23.3681C8.45752 24.0934 8.52152 24.5414 8.56419 24.7121C8.56419 25.2667 8.67085 26.0347 8.88419 27.0161C9.09752 27.9547 9.37486 28.9574 9.71619 30.0241C10.0575 31.0907 10.3989 32.0721 10.7402 32.9681C11.0815 33.8641 11.3802 34.5681 11.6362 35.0801L12.5322 33.9921C12.9162 33.3947 13.3215 32.8614 13.7482 32.3921C14.1749 31.8801 14.5162 31.3254 14.7722 30.7281C15.1135 29.9601 15.5189 29.2347 15.9882 28.5521C16.4575 27.8694 16.8842 27.1654 17.2682 26.4401C17.6522 25.6721 18.0789 24.9467 18.5482 24.2641C19.0175 23.5387 19.4229 22.8134 19.7642 22.0881L23.9242 14.2161C24.3509 12.8507 24.8842 11.2721 25.5242 9.48006C26.2069 7.68806 26.6549 6.00273 26.8682 4.42406C26.9962 3.95473 27.2735 3.72006 27.7002 3.72006C27.9135 3.72006 28.1269 3.69873 28.3402 3.65606C28.5535 3.61339 28.7455 3.63473 28.9162 3.72006ZM31.1182 45.9601C29.8809 46.1734 28.7502 46.1094 27.7262 45.7681C26.7022 45.3841 25.8702 44.7654 25.2302 43.9121C24.6329 43.0161 24.3342 41.8854 24.3342 40.5201C24.2062 39.2401 24.3555 37.7681 24.7822 36.1041C25.2089 34.3974 25.8275 32.6907 26.6382 30.9841C27.4915 29.2774 28.4089 27.8054 29.3902 26.5681C30.2435 25.5441 31.0969 24.6054 31.9502 23.7521C32.8035 22.8987 33.5715 22.3227 34.2542 22.0241C34.8515 21.7681 35.4062 21.6187 35.9182 21.5761C36.4729 21.4907 36.9209 21.4481 37.2622 21.4481C37.9449 21.6187 38.6702 21.9387 39.4382 22.4081C40.2489 22.8347 40.6542 23.3041 40.6542 23.8161C40.6542 23.8161 40.6969 23.8801 40.7822 24.0081C40.9102 24.0934 40.9742 24.1361 40.9742 24.1361C41.2302 24.1361 41.4435 24.4134 41.6142 24.9681C41.8275 25.5227 41.9555 26.1627 41.9982 26.8881C42.0409 27.5707 41.9342 28.1467 41.6782 28.6161C41.5075 29.4267 41.2089 30.1307 40.7822 30.7281C40.3555 31.3254 39.9715 31.6241 39.6302 31.6241C39.4595 31.6241 39.2889 31.6454 39.1182 31.6881C38.9902 31.6881 38.9262 31.7947 38.9262 32.0081C38.9262 32.2214 38.7982 32.3067 38.5422 32.2641C38.3289 32.2214 38.0942 32.0934 37.8382 31.8801C37.5822 31.6241 37.3902 31.3254 37.2622 30.9841C37.2622 30.7707 37.3475 30.4081 37.5182 29.8961C37.6889 29.3841 37.8595 28.7227 38.0302 27.9121C38.2862 26.7174 38.2649 25.9494 37.9662 25.6081C37.6675 25.2241 37.0915 25.2027 36.2382 25.5441C35.1715 26.1414 34.1475 26.9734 33.1662 28.0401C32.2275 29.1067 31.3529 30.4934 30.5422 32.2001C29.7315 33.8641 29.0062 35.9547 28.3662 38.4721C28.1102 39.4534 28.0035 40.3067 28.0462 41.0321C28.1315 41.7574 28.2382 42.1414 28.3662 42.1841C28.9635 42.3547 29.7742 42.3974 30.7982 42.3121C31.8222 42.1841 32.5689 41.9921 33.0382 41.7361C33.7209 41.3947 34.4889 40.9467 35.3422 40.3921C36.1955 39.7947 36.9422 39.2614 37.5822 38.7921C37.7955 38.6641 38.0515 38.4507 38.3502 38.1521C38.6489 37.8534 38.9689 37.6187 39.3102 37.4481C39.6515 36.9361 39.9502 36.6374 40.2062 36.5521C40.4622 36.4667 40.8462 36.4241 41.3582 36.4241C41.6995 36.5094 42.0195 36.6374 42.3182 36.8081C42.6169 36.9787 42.8089 37.1494 42.8942 37.3201C43.0222 37.4907 42.9582 37.6401 42.7022 37.7681C42.5315 37.7681 42.4249 37.8321 42.3822 37.9601C42.3822 38.0454 42.3822 38.0881 42.3822 38.0881C42.4675 38.2587 42.2755 38.6214 41.8062 39.1761C41.3795 39.6881 40.8249 40.2641 40.1422 40.9041C39.4595 41.5441 38.7982 42.0987 38.1582 42.5681C37.5609 42.9947 37.1342 43.2081 36.8782 43.2081C36.4515 43.2081 36.2382 43.3361 36.2382 43.5921C36.2382 43.6774 35.9182 43.8907 35.2782 44.2321C34.6809 44.5734 33.9769 44.9147 33.1662 45.2561C32.3982 45.5974 31.7155 45.8321 31.1182 45.9601ZM63.2762 44.2961C62.7215 44.1681 62.2309 43.9334 61.8042 43.5921C61.3775 43.2081 61.0789 42.7387 60.9082 42.1841C60.7375 41.6294 60.7375 41.0747 60.9082 40.5201C61.1215 39.7947 61.3135 39.0907 61.4842 38.4081C61.6975 37.6827 61.8469 36.9787 61.9322 36.2961C61.9749 35.9121 62.1242 35.3574 62.3802 34.6321C62.6789 33.8641 62.9775 33.0321 63.2762 32.1361C63.5749 31.2401 63.7242 30.4081 63.7242 29.6401C63.7242 29.1281 63.6602 28.6801 63.5322 28.2961C63.4042 27.8694 63.1482 27.5494 62.7642 27.3361C61.9535 26.8241 61.1215 26.5041 60.2682 26.3761C59.4575 26.2481 58.6042 26.0987 57.7082 25.9281C57.6229 25.8854 57.3242 25.8854 56.8122 25.9281C56.3429 25.9707 55.9375 25.9707 55.5962 25.9281C55.4682 26.3974 55.3402 26.8667 55.2122 27.3361C55.0842 27.8054 54.9775 28.2747 54.8922 28.7441C54.7215 29.2561 54.5295 29.8534 54.3162 30.5361C54.1029 31.2187 53.9109 31.8801 53.7402 32.5201C53.4842 33.5867 53.2922 34.3761 53.1642 34.8881C53.0362 35.4001 52.8869 35.9121 52.7162 36.4241C52.5882 36.9361 52.3535 37.7254 52.0122 38.7921C51.8842 39.2187 51.7775 39.6241 51.6922 40.0081C51.6069 40.3921 51.4575 40.7761 51.2442 41.1601C51.1589 41.3307 51.1162 41.4801 51.1162 41.6081C51.1162 41.6934 51.1162 41.8427 51.1162 42.0561C51.1162 42.3547 51.0309 42.6321 50.8602 42.8881C50.7322 43.1014 50.5615 43.2934 50.3482 43.4641C50.1775 43.5921 49.9642 43.6987 49.7082 43.7841C49.4522 43.8694 49.2175 43.9761 49.0042 44.1041C48.5775 43.7627 48.2789 43.4427 48.1082 43.1441C47.9375 42.8454 47.6815 42.4827 47.3402 42.0561C47.5962 40.9894 47.8309 39.9654 48.0442 38.9841C48.3002 38.0027 48.5135 37.1707 48.6842 36.4881C48.8975 35.7627 49.0682 35.3147 49.1962 35.1441C49.4095 34.8881 49.5375 34.3974 49.5802 33.6721C49.6655 32.9467 49.8575 32.2427 50.1562 31.5601C50.1135 31.0907 50.1775 30.6641 50.3482 30.2801C50.5189 29.8534 50.6895 29.4267 50.8602 29.0001C51.1589 28.2321 51.3295 27.4427 51.3722 26.6321C51.4575 25.7787 51.5855 24.9467 51.7562 24.1361C52.2255 23.7947 52.5882 23.6027 52.8442 23.5601C53.1002 23.4747 53.5055 23.4107 54.0602 23.3681C54.1029 23.2401 54.1455 23.1121 54.1882 22.9841C54.2309 22.8134 54.2735 22.6641 54.3162 22.5361C54.9989 22.0667 55.8949 21.8321 57.0042 21.8321C58.1135 21.8321 59.0309 21.9814 59.7562 22.2801C59.8842 22.3227 59.9909 22.3441 60.0762 22.3441C60.1615 22.3441 60.2895 22.3654 60.4602 22.4081C60.8869 22.4507 61.3989 22.6001 61.9962 22.8561C62.5935 23.0694 63.1695 23.3467 63.7242 23.6881C64.2789 24.0294 64.7055 24.3494 65.0042 24.6481C65.9002 25.4587 66.4975 26.3761 66.7962 27.4001C67.1375 28.4241 67.3082 29.4694 67.3082 30.5361C67.2655 32.0294 67.0095 33.5014 66.5402 34.9521C66.0709 36.3601 65.7082 37.5121 65.4522 38.4081C65.3242 38.9627 65.2389 39.4321 65.1962 39.8161C65.1962 40.2001 65.2815 40.5627 65.4522 40.9041C65.6229 41.2454 65.8575 41.6294 66.1562 42.0561C66.1135 42.2694 65.9429 42.5894 65.6442 43.0161C65.3882 43.4001 65.0895 43.5921 64.7482 43.5921C64.4495 43.5921 64.1935 43.6987 63.9802 43.9121C63.8095 44.0827 63.5749 44.2107 63.2762 44.2961ZM84.7187 44.4241C83.8227 45.1921 82.7774 45.6401 81.5827 45.7681C80.4307 45.8961 79.3 45.7254 78.1907 45.2561C77.0814 44.7441 76.164 43.9761 75.4387 42.9521C74.7134 42.0134 74.244 40.9467 74.0307 39.7521C73.8174 38.5147 73.796 36.9147 73.9667 34.9521C74.0947 33.2881 74.628 31.6241 75.5667 29.9601C76.5054 28.2534 77.636 26.7387 78.9587 25.4161C80.324 24.0934 81.668 23.1761 82.9907 22.6641C83.6307 22.2374 84.164 22.0454 84.5907 22.0881C85.06 22.0881 85.764 22.1307 86.7027 22.2161C87.684 22.3441 88.4094 22.5361 88.8787 22.7921C89.3907 23.0481 89.796 23.3894 90.0947 23.8161C90.7347 24.4561 91.1614 25.0961 91.3747 25.7361C91.588 26.3334 91.6947 26.9307 91.6947 27.5281C91.524 28.4667 90.884 29.6187 89.7747 30.9841C88.708 32.3067 87.3 33.3947 85.5507 34.2481C84.612 34.5467 83.588 34.6747 82.4787 34.6321C81.3694 34.5894 80.452 34.3121 79.7267 33.8001C78.916 33.4587 78.3827 33.5227 78.1267 33.9921C77.8707 34.4187 77.636 35.4854 77.4227 37.1921C77.252 38.8134 77.38 40.0081 77.8067 40.7761C78.2334 41.5014 78.8094 41.9281 79.5347 42.0561C80.388 42.2267 81.0494 42.3547 81.5187 42.4401C82.0307 42.4827 82.6494 42.2907 83.3747 41.8641C84.0574 41.4374 84.484 41.2027 84.6547 41.1601C84.8254 41.0747 84.9534 40.9894 85.0387 40.9041C85.1667 40.7761 85.444 40.4987 85.8707 40.0721C86.1694 39.7734 86.404 39.5601 86.5747 39.4321C86.7454 39.2614 86.9374 39.1761 87.1507 39.1761C87.364 39.1761 87.556 39.2827 87.7267 39.4961C87.8974 39.6667 88.068 39.7947 88.2387 39.8801C88.6654 39.8801 88.7507 40.1361 88.4947 40.6481C88.2814 41.1601 87.8334 41.7787 87.1507 42.5041C86.468 43.1867 85.6574 43.8267 84.7187 44.4241ZM84.6547 30.8561C85.124 30.6427 85.6147 30.3441 86.1267 29.9601C86.6387 29.5334 87.0654 29.0854 87.4067 28.6161C87.7907 28.1041 87.9827 27.6774 87.9827 27.3361C87.9827 26.7387 87.7054 26.2481 87.1507 25.8641C86.596 25.4374 85.764 25.3734 84.6547 25.6721C84.1854 25.8001 83.652 26.1201 83.0547 26.6321C82.4574 27.1014 81.8814 27.6347 81.3267 28.2321C80.8147 28.8294 80.388 29.3627 80.0467 29.8321C79.748 30.3014 79.6414 30.5787 79.7267 30.6641C79.8547 30.8774 80.2174 31.0481 80.8147 31.1761C81.412 31.2614 82.0734 31.2827 82.7987 31.2401C83.5667 31.1974 84.1854 31.0694 84.6547 30.8561ZM109.563 46.5361C109.265 46.7067 108.859 46.6427 108.347 46.3441C107.878 46.0454 107.409 45.5974 106.939 45.0001C106.641 44.4881 106.427 43.9334 106.299 43.3361C106.214 42.7387 106.171 41.9067 106.171 40.8401C106.214 39.9867 106.171 39.4321 106.043 39.1761C105.958 38.9201 105.723 38.9627 105.339 39.3041C104.955 39.6027 104.294 40.2214 103.355 41.1601C102.289 42.2267 101.265 43.0587 100.283 43.6561C99.3445 44.2534 98.5765 44.5307 97.9792 44.4881C97.6805 44.4881 97.3392 44.3387 96.9552 44.0401C96.6139 43.6987 96.2939 43.2934 95.9952 42.8241C95.6965 42.3121 95.4405 41.8001 95.2272 41.2881C94.9712 40.3494 94.9285 39.1547 95.0992 37.7041C95.3125 36.2107 95.6539 34.6534 96.1232 33.0321C96.5925 31.4107 97.1259 29.8747 97.7232 28.4241C98.3632 26.9734 99.0032 25.8001 99.6432 24.9041C100.326 24.0081 100.923 23.5601 101.435 23.5601C101.777 23.5601 102.075 23.7307 102.331 24.0721C102.63 24.4134 102.929 24.9467 103.227 25.6721C103.398 25.9707 103.462 26.2267 103.419 26.4401C103.419 26.6534 103.249 26.9094 102.907 27.2081C102.523 27.7201 102.075 28.4881 101.563 29.5121C101.094 30.5361 100.625 31.6454 100.155 32.8401C99.7285 34.0347 99.3445 35.1867 99.0032 36.2961C98.6619 37.4054 98.4272 38.3227 98.2992 39.0481C98.1712 39.7307 98.1925 40.0721 98.3632 40.0721C98.9605 40.0721 99.6645 39.8374 100.475 39.3681C101.329 38.8561 102.139 38.2374 102.907 37.5121C103.803 36.6161 104.593 35.6347 105.275 34.5681C106.001 33.5014 106.726 32.3707 107.451 31.1761C108.006 30.3227 108.582 29.3841 109.179 28.3601C109.819 27.3361 110.225 26.6107 110.395 26.1841C110.993 25.0747 111.441 24.3281 111.739 23.9441C112.038 23.5174 112.401 23.2401 112.827 23.1121C113.041 23.1121 113.233 23.1121 113.403 23.1121C113.617 23.1121 113.723 23.1121 113.723 23.1121C113.979 23.1547 114.278 23.3467 114.619 23.6881C114.961 23.8587 115.153 24.0294 115.195 24.2001C115.238 24.3281 115.259 24.4987 115.259 24.7121C115.089 25.1387 114.811 25.7787 114.427 26.6321C114.086 27.4427 113.83 28.0401 113.659 28.4241C112.849 30.2587 112.038 32.0721 111.227 33.8641C110.459 35.6134 109.905 37.4054 109.563 39.2401C109.478 39.8374 109.457 40.5414 109.499 41.3521C109.585 42.1201 109.713 42.6747 109.883 43.0161C110.011 43.2721 110.161 43.5707 110.331 43.9121C110.545 44.2107 110.779 44.4667 111.035 44.6801C111.419 44.9361 111.483 45.2134 111.227 45.5121C111.014 45.8107 110.715 46.0667 110.331 46.2801C109.947 46.4507 109.691 46.5361 109.563 46.5361ZM108.731 19.9761C107.409 20.1467 106.299 19.7627 105.403 18.8241C104.507 17.8854 103.825 16.4987 103.355 14.6641C103.27 14.3227 103.227 14.0241 103.227 13.7681C103.27 13.4694 103.355 13.2134 103.483 13.0001C103.569 12.8294 103.739 12.7014 103.995 12.6161C104.251 12.4881 104.465 12.4667 104.635 12.5521C105.233 12.7654 105.659 13.0427 105.915 13.3841C106.214 13.6827 106.406 14.0667 106.491 14.5361C106.577 14.7494 106.619 14.9627 106.619 15.1761C106.662 15.3894 106.683 15.4747 106.683 15.4321C106.897 16.1147 107.174 16.5841 107.515 16.8401C107.857 17.0961 108.369 17.0747 109.051 16.7761C109.777 16.4774 110.481 16.1361 111.163 15.7521C111.889 15.3681 112.529 14.8987 113.083 14.3441C113.553 13.8747 114.001 13.4481 114.427 13.0641C114.897 12.6801 115.345 12.2747 115.771 11.8481L115.835 11.7841C116.006 11.6561 116.219 11.6134 116.475 11.6561C116.731 11.6987 116.881 11.7627 116.923 11.8481C117.222 12.1467 117.371 12.4454 117.371 12.7441C117.371 13.0427 117.371 13.3627 117.371 13.7041L117.307 13.8321C117.393 14.0881 117.179 14.5787 116.667 15.3041C116.198 16.0294 115.622 16.6481 114.939 17.1601C114.342 17.6294 113.702 18.0561 113.019 18.4401C112.337 18.8241 111.633 19.1867 110.907 19.5281C110.609 19.6987 110.289 19.8054 109.947 19.8481C109.649 19.8481 109.243 19.8907 108.731 19.9761ZM151.623 45.5121C150.94 45.2987 150.343 44.9787 149.831 44.5521C149.319 44.0827 148.828 43.5707 148.359 43.0161C148.145 42.7601 147.783 42.2481 147.271 41.4801C146.759 40.7121 146.204 39.8587 145.607 38.9201C145.052 37.9814 144.519 37.1067 144.007 36.2961C143.495 35.4427 143.111 34.8027 142.855 34.3761C142.641 35.0161 142.407 35.5494 142.151 35.9761C141.937 36.3601 141.831 36.9787 141.831 37.8321C141.404 38.4294 141.084 39.1121 140.871 39.8801C140.7 40.6054 140.508 41.3307 140.295 42.0561C140.167 42.5254 139.953 42.9521 139.655 43.3361C139.399 43.7201 139.057 44.0614 138.631 44.3601C138.119 44.3174 137.671 44.1467 137.287 43.8481C136.945 43.5494 136.647 43.2507 136.391 42.9521C136.135 42.4401 136.028 41.9494 136.071 41.4801C136.113 41.0107 136.22 40.5627 136.391 40.1361C136.476 39.7521 136.711 39.0054 137.095 37.8961C137.521 36.7867 137.969 35.5921 138.439 34.3121C138.908 32.9894 139.335 31.8161 139.719 30.7921C140.103 29.7254 140.316 29.0641 140.359 28.8081C140.615 27.9547 141.063 27.0374 141.703 26.0561C142.385 25.0321 142.855 23.9227 143.111 22.7281C143.196 22.4294 143.409 22.1521 143.751 21.8961C144.092 21.5974 144.476 21.4481 144.903 21.4481C145.372 21.4054 145.756 21.6401 146.055 22.1521C146.14 22.1947 146.268 22.2587 146.439 22.3441C146.609 22.3867 146.737 22.4721 146.823 22.6001C147.164 22.9841 147.356 23.3894 147.399 23.8161C147.484 24.2427 147.399 24.6907 147.143 25.1601C146.588 26.1414 146.119 26.9521 145.735 27.5921C145.393 28.1894 145.052 28.8507 144.711 29.5761C144.369 30.3014 143.985 31.3041 143.559 32.5841C144.284 32.4134 144.817 32.2854 145.159 32.2001C145.5 32.0721 145.82 31.8801 146.119 31.6241C146.46 31.3254 146.908 30.8774 147.463 30.2801C147.676 30.0667 148.103 29.6614 148.743 29.0641C149.425 28.4241 150.129 27.7414 150.855 27.0161C151.623 26.2907 152.284 25.6507 152.839 25.0961C153.436 24.5414 153.756 24.2214 153.799 24.1361C154.055 23.7521 154.311 23.4107 154.567 23.1121C154.865 22.7707 155.249 22.5147 155.719 22.3441C156.359 22.4294 156.807 22.5574 157.063 22.7281C157.319 22.8561 157.809 23.2187 158.535 23.8161C158.748 23.9867 158.833 24.3921 158.791 25.0321C158.748 25.6294 158.513 26.0987 158.087 26.4401C157.319 27.0374 156.359 27.8054 155.207 28.7441C154.055 29.6827 152.817 30.6641 151.495 31.6881C150.215 32.7121 148.935 33.6721 147.655 34.5681C148.252 35.5494 148.785 36.4881 149.255 37.3841C149.724 38.2374 150.108 38.9627 150.407 39.5601C150.492 40.6267 150.876 41.3521 151.559 41.7361C152.284 42.0774 153.159 42.2481 154.183 42.2481C154.524 42.4187 154.737 42.6321 154.823 42.8881C154.951 43.1014 155.015 43.3574 155.015 43.6561C155.057 43.9121 155.1 44.1681 155.143 44.4241C154.545 44.8081 154.119 45.1494 153.863 45.4481C153.649 45.7041 153.393 45.8534 153.095 45.8961C152.839 45.8961 152.348 45.7681 151.623 45.5121ZM158.736 59.4001C157.712 59.6987 156.581 59.7414 155.344 59.5281C154.149 59.3574 153.104 58.9947 152.208 58.4401C151.269 57.8854 150.736 57.2667 150.608 56.5841C150.565 56.3281 150.65 56.0507 150.864 55.7521C151.034 55.4534 151.269 55.2401 151.568 55.1121C151.824 55.0267 152.058 55.1121 152.272 55.3681C152.613 55.5814 153.232 55.8374 154.128 56.1361C155.024 56.4774 156.026 56.5414 157.136 56.3281C158.117 56.1147 159.077 55.5387 160.016 54.6001C160.997 53.6614 161.786 52.7867 162.384 51.9761C162.725 51.4641 163.301 50.5467 164.112 49.2241C164.922 47.9014 165.754 46.4507 166.608 44.8721C167.504 43.2507 168.25 41.7574 168.848 40.3921C168.976 40.0507 169.125 39.6454 169.296 39.1761C169.466 38.7067 169.68 38.3227 169.936 38.0241C170.192 37.5121 170.405 37.0427 170.576 36.6161C170.789 36.1467 170.917 35.8267 170.96 35.6561C171.002 35.4427 171.194 35.0161 171.536 34.3761C171.877 33.7361 172.197 33.0961 172.496 32.4561C172.709 31.8161 173.029 30.8774 173.456 29.6401C173.882 28.4027 174.309 27.4001 174.736 26.6321C175.248 25.6507 175.653 24.8614 175.952 24.2641C176.293 23.6241 176.656 23.2401 177.04 23.1121C177.424 22.8134 177.68 22.6641 177.808 22.6641C177.978 22.6641 178.298 22.7921 178.768 23.0481C179.28 23.5601 179.6 24.0721 179.728 24.5841C179.856 25.0534 179.792 25.6507 179.536 26.3761C179.322 27.0587 178.896 27.9974 178.256 29.1921C177.914 30.2161 177.53 31.1547 177.104 32.0081C176.72 32.8187 176.421 33.3521 176.208 33.6081C175.994 34.1201 175.738 34.6961 175.44 35.3361C175.184 35.9334 174.949 36.4881 174.736 37.0001C173.968 38.7067 173.306 40.0934 172.752 41.1601C172.197 42.2267 171.706 43.2081 171.28 44.1041C170.853 45.0001 170.405 46.0454 169.936 47.2401C168.954 48.8187 167.994 50.3121 167.056 51.7201C166.16 53.1707 165.2 54.5147 164.176 55.7521C163.749 56.1361 163.216 56.5841 162.576 57.0961C161.936 57.6081 161.274 58.0774 160.592 58.5041C159.952 58.9307 159.333 59.2294 158.736 59.4001ZM167.376 44.0401C166.736 43.9547 166.096 43.5707 165.456 42.8881C164.858 42.2054 164.389 41.4801 164.048 40.7121C163.706 39.9441 163.578 39.3894 163.664 39.0481C163.664 38.8347 163.664 38.6641 163.664 38.5361C163.664 38.4081 163.664 38.3441 163.664 38.3441C163.408 38.3441 163.173 38.0241 162.96 37.3841C162.789 36.7441 162.661 35.9121 162.576 34.8881C162.49 33.8641 162.426 32.7761 162.384 31.6241C162.384 30.4721 162.426 29.3841 162.512 28.3601C162.682 27.6347 162.768 26.8454 162.768 25.9921C162.768 25.0961 162.789 24.3921 162.832 23.8801C162.789 23.1974 162.853 22.7494 163.024 22.5361C163.194 22.2801 163.365 22.0881 163.536 21.9601C164.73 21.4481 165.52 21.7681 165.904 22.9201C166.33 24.0294 166.437 26.1201 166.224 29.1921C166.138 30.8987 166.138 32.6054 166.224 34.3121C166.309 36.0187 166.544 37.5121 166.928 38.7921C167.354 40.0721 167.93 40.9467 168.656 41.4161C168.954 41.5867 169.104 41.8214 169.104 42.1201C169.104 42.4187 169.018 42.7387 168.848 43.0801C168.677 43.3787 168.442 43.6347 168.144 43.8481C167.888 44.0187 167.632 44.0827 167.376 44.0401ZM198.276 44.2961C197.722 44.1681 197.231 43.9334 196.804 43.5921C196.378 43.2081 196.079 42.7387 195.908 42.1841C195.738 41.6294 195.738 41.0747 195.908 40.5201C196.122 39.7947 196.314 39.0907 196.484 38.4081C196.698 37.6827 196.847 36.9787 196.932 36.2961C196.975 35.9121 197.124 35.3574 197.38 34.6321C197.679 33.8641 197.978 33.0321 198.276 32.1361C198.575 31.2401 198.724 30.4081 198.724 29.6401C198.724 29.1281 198.66 28.6801 198.532 28.2961C198.404 27.8694 198.148 27.5494 197.764 27.3361C196.954 26.8241 196.122 26.5041 195.268 26.3761C194.458 26.2481 193.604 26.0987 192.708 25.9281C192.623 25.8854 192.324 25.8854 191.812 25.9281C191.343 25.9707 190.938 25.9707 190.596 25.9281C190.468 26.3974 190.34 26.8667 190.212 27.3361C190.084 27.8054 189.978 28.2747 189.892 28.7441C189.722 29.2561 189.53 29.8534 189.316 30.5361C189.103 31.2187 188.911 31.8801 188.74 32.5201C188.484 33.5867 188.292 34.3761 188.164 34.8881C188.036 35.4001 187.887 35.9121 187.716 36.4241C187.588 36.9361 187.354 37.7254 187.012 38.7921C186.884 39.2187 186.778 39.6241 186.692 40.0081C186.607 40.3921 186.458 40.7761 186.244 41.1601C186.159 41.3307 186.116 41.4801 186.116 41.6081C186.116 41.6934 186.116 41.8427 186.116 42.0561C186.116 42.3547 186.031 42.6321 185.86 42.8881C185.732 43.1014 185.562 43.2934 185.348 43.4641C185.178 43.5921 184.964 43.6987 184.708 43.7841C184.452 43.8694 184.218 43.9761 184.004 44.1041C183.578 43.7627 183.279 43.4427 183.108 43.1441C182.938 42.8454 182.682 42.4827 182.34 42.0561C182.596 40.9894 182.831 39.9654 183.044 38.9841C183.3 38.0027 183.514 37.1707 183.684 36.4881C183.898 35.7627 184.068 35.3147 184.196 35.1441C184.41 34.8881 184.538 34.3974 184.58 33.6721C184.666 32.9467 184.858 32.2427 185.156 31.5601C185.114 31.0907 185.178 30.6641 185.348 30.2801C185.519 29.8534 185.69 29.4267 185.86 29.0001C186.159 28.2321 186.33 27.4427 186.372 26.6321C186.458 25.7787 186.586 24.9467 186.756 24.1361C187.226 23.7947 187.588 23.6027 187.844 23.5601C188.1 23.4747 188.506 23.4107 189.06 23.3681C189.103 23.2401 189.146 23.1121 189.188 22.9841C189.231 22.8134 189.274 22.6641 189.316 22.5361C189.999 22.0667 190.895 21.8321 192.004 21.8321C193.114 21.8321 194.031 21.9814 194.756 22.2801C194.884 22.3227 194.991 22.3441 195.076 22.3441C195.162 22.3441 195.29 22.3654 195.46 22.4081C195.887 22.4507 196.399 22.6001 196.996 22.8561C197.594 23.0694 198.17 23.3467 198.724 23.6881C199.279 24.0294 199.706 24.3494 200.004 24.6481C200.9 25.4587 201.498 26.3761 201.796 27.4001C202.138 28.4241 202.308 29.4694 202.308 30.5361C202.266 32.0294 202.01 33.5014 201.54 34.9521C201.071 36.3601 200.708 37.5121 200.452 38.4081C200.324 38.9627 200.239 39.4321 200.196 39.8161C200.196 40.2001 200.282 40.5627 200.452 40.9041C200.623 41.2454 200.858 41.6294 201.156 42.0561C201.114 42.2694 200.943 42.5894 200.644 43.0161C200.388 43.4001 200.09 43.5921 199.748 43.5921C199.45 43.5921 199.194 43.6987 198.98 43.9121C198.81 44.0827 198.575 44.2107 198.276 44.2961ZM226.375 45.8961C224.967 45.3841 223.879 44.4241 223.111 43.0161C222.343 41.5654 221.852 40.1574 221.639 38.7921C221.596 38.7921 221.468 38.8774 221.255 39.0481C221.084 39.1761 220.871 39.3894 220.615 39.6881C220.017 40.2854 219.271 41.0321 218.375 41.9281C217.479 42.7814 216.54 43.5494 215.559 44.2321C214.62 44.8721 213.724 45.1494 212.871 45.0641C212.529 44.8507 212.167 44.6161 211.783 44.3601C211.441 44.0614 211.1 43.7627 210.759 43.4641C210.588 43.2934 210.439 43.1227 210.311 42.9521C210.225 42.7814 210.14 42.5894 210.055 42.3761C209.585 41.0961 209.329 39.9654 209.287 38.9841C209.244 37.9601 209.351 36.9574 209.607 35.9761C209.905 34.9521 210.247 33.8214 210.631 32.5841C210.673 32.4561 210.823 31.9227 211.079 30.9841C211.377 30.0454 211.719 28.9787 212.103 27.7841C212.487 26.5894 212.849 25.5227 213.191 24.5841C213.575 23.6454 213.852 23.0907 214.023 22.9201C214.151 22.9201 214.279 22.9201 214.407 22.9201C214.577 22.8774 214.727 22.8561 214.855 22.8561C215.281 22.8561 215.601 23.0054 215.815 23.3041C215.985 23.5601 216.199 23.7521 216.455 23.8801C216.753 24.0081 216.967 24.1787 217.095 24.3921C217.308 24.8187 217.159 25.7361 216.647 27.1441C216.135 28.5094 215.58 30.0667 214.983 31.8161C214.428 33.3947 213.959 34.9947 213.575 36.6161C213.191 38.1947 213.169 39.5174 213.511 40.5841C213.809 40.5841 214.215 40.3281 214.727 39.8161C215.281 39.2614 215.708 38.8774 216.007 38.6641C216.433 38.4081 216.988 37.9174 217.671 37.1921C218.396 36.4241 219.1 35.6561 219.783 34.8881C220.465 34.0774 220.935 33.4587 221.191 33.0321C221.361 32.7761 221.617 32.3067 221.959 31.6241C222.3 30.8987 222.641 30.1307 222.983 29.3201C223.367 28.4667 223.665 27.6774 223.879 26.9521C224.135 26.2267 224.241 25.7147 224.199 25.4161C224.156 24.9894 224.199 24.6694 224.327 24.4561C224.497 24.2001 224.753 23.9654 225.095 23.7521C225.308 23.7521 225.543 23.7521 225.799 23.7521C226.055 23.7521 226.289 23.7734 226.503 23.8161C226.759 24.1147 227.036 24.3921 227.335 24.6481C227.633 24.9041 227.932 25.1814 228.231 25.4801C228.444 26.2907 228.316 27.3787 227.847 28.7441C227.377 30.1094 226.908 31.5814 226.439 33.1601C225.969 34.7387 225.671 36.3387 225.543 37.9601C225.415 39.5387 225.841 40.9254 226.823 42.1201C227.719 41.7361 228.401 41.3734 228.871 41.0321C229.383 40.6481 229.873 40.2641 230.343 39.8801C230.812 39.4534 231.409 39.0267 232.135 38.6001C232.561 38.8561 232.881 39.3681 233.095 40.1361C233.308 40.9041 233.415 41.5227 233.415 41.9921C233.244 42.1201 233.073 42.2481 232.903 42.3761C232.775 42.4614 232.668 42.5894 232.583 42.7601C232.327 43.3147 231.815 43.8694 231.047 44.4241C230.279 44.9787 229.468 45.4267 228.615 45.7681C227.761 46.0667 227.015 46.1094 226.375 45.8961ZM239.9 43.5281C239.431 43.2294 239.004 42.8454 238.62 42.3761C238.236 41.8641 238.044 41.2241 238.044 40.4561C238.044 40.0294 238.13 39.3041 238.3 38.2801C238.471 37.2561 238.706 36.1041 239.004 34.8241C239.303 33.5441 239.602 32.3494 239.9 31.2401C240.327 30.4721 240.69 29.7041 240.988 28.9361C241.287 28.1681 241.436 27.6987 241.436 27.5281C241.522 27.0161 241.628 26.4187 241.756 25.7361C241.927 25.0534 242.098 24.4347 242.268 23.8801C242.439 23.3254 242.567 23.0054 242.652 22.9201C242.866 22.7067 243.122 22.5787 243.42 22.5361C243.719 22.4507 244.018 22.4934 244.316 22.6641C244.658 22.7921 244.914 23.0694 245.084 23.4961C245.554 24.0081 245.788 24.6267 245.788 25.3521C245.788 26.0347 245.554 27.0587 245.084 28.4241C244.7 29.2774 244.316 30.2801 243.932 31.4321C243.548 32.5841 243.207 33.6507 242.908 34.6321C242.652 35.5707 242.503 36.2107 242.46 36.5521L241.18 36.9361C241.906 36.2534 242.588 35.5494 243.228 34.8241C243.868 34.0561 244.338 33.4587 244.636 33.0321C245.362 32.0507 245.98 31.2401 246.492 30.6001C247.047 29.9174 247.751 29.1067 248.604 28.1681C249.458 27.1867 250.29 26.5894 251.1 26.3761C251.954 26.1201 252.615 25.9921 253.084 25.9921C254.023 26.1627 254.77 26.6534 255.324 27.4641C255.922 28.2321 256.306 29.3841 256.476 30.9201C256.476 31.5174 256.412 32.2214 256.284 33.0321C256.199 33.8427 256.156 34.2481 256.156 34.2481C256.156 34.2481 256.498 33.8001 257.18 32.9041C257.906 32.0081 258.866 31.0267 260.06 29.9601C260.871 29.3627 261.66 29.0214 262.428 28.9361C263.196 28.8081 263.879 29.0641 264.476 29.7041C265.586 30.3014 266.311 31.2187 266.652 32.4561C266.994 33.6507 267.079 35.1867 266.908 37.0641C266.78 38.1734 266.759 39.0054 266.844 39.5601C266.93 40.0721 267.058 40.5841 267.228 41.0961C267.57 41.2667 267.634 41.6294 267.42 42.1841C267.207 42.6961 266.951 42.9521 266.652 42.9521C266.226 42.9521 265.735 42.8667 265.18 42.6961C264.668 42.5254 264.199 42.2481 263.772 41.8641C263.388 41.4374 263.196 40.8614 263.196 40.1361V36.1681C263.196 35.2294 263.154 34.4614 263.068 33.8641C263.026 33.2667 262.919 32.9041 262.748 32.7761C262.279 32.5201 261.596 32.7974 260.7 33.6081C259.804 34.4187 258.844 35.5067 257.82 36.8721C256.796 38.2374 255.836 39.6454 254.94 41.0961C254.13 42.4187 253.618 43.1867 253.404 43.4001C253.234 43.5707 252.914 43.5067 252.444 43.2081C251.506 42.9094 250.908 42.5041 250.652 41.9921C250.439 41.4374 250.418 40.8187 250.588 40.1361C250.802 39.4107 251.058 38.4294 251.356 37.1921C251.698 35.9547 252.018 34.7601 252.316 33.6081C252.615 32.4134 252.807 31.5601 252.892 31.0481C252.722 30.7067 252.423 30.6001 251.996 30.7281C251.612 30.8134 251.207 31.0054 250.78 31.3041C250.268 31.6454 249.65 32.2854 248.924 33.2241C248.199 34.1627 247.452 35.2507 246.684 36.4881C246.172 37.2987 245.639 38.1094 245.084 38.9201C244.53 39.6881 244.018 40.3707 243.548 40.9681C243.079 41.5654 242.674 42.0134 242.332 42.3121C241.735 43.2507 241.33 43.7627 241.116 43.8481C240.903 43.9334 240.498 43.8267 239.9 43.5281ZM272.513 41.2241C272.47 40.3707 272.577 39.3681 272.833 38.2161C273.131 37.0641 273.494 35.9334 273.921 34.8241C274.347 33.7147 274.731 32.8187 275.073 32.1361C275.115 31.6241 275.265 31.1761 275.521 30.7921C275.819 30.4081 276.054 29.9814 276.225 29.5121C276.353 29.1281 276.651 28.5094 277.121 27.6561C277.59 26.7601 278.102 25.8641 278.657 24.9681C279.211 24.0721 279.659 23.4321 280.001 23.0481C280.086 22.5361 280.278 22.1094 280.577 21.7681C280.875 21.3841 281.153 21.0001 281.409 20.6161C281.75 20.7867 282.027 20.9147 282.241 21.0001C282.454 21.0854 282.71 21.2987 283.009 21.6401C283.222 21.9387 283.457 22.2161 283.713 22.4721C284.011 22.6854 284.225 23.0267 284.353 23.4961C284.353 23.8801 284.203 24.2641 283.905 24.6481C283.649 24.9894 283.393 25.3307 283.137 25.6721C282.71 26.1841 282.39 26.5894 282.177 26.8881C282.006 27.1441 281.793 27.4641 281.537 27.8481C281.323 28.1894 280.961 28.7441 280.449 29.5121C280.662 29.5974 280.897 29.7041 281.153 29.8321C281.409 29.9174 281.643 29.9601 281.857 29.9601C282.241 29.9174 282.603 29.9601 282.945 30.0881C283.286 30.2161 283.627 30.3654 283.969 30.5361C284.31 30.6641 284.651 30.7707 284.993 30.8561C285.505 31.0267 286.038 31.3681 286.593 31.8801C287.19 32.3921 287.723 32.9467 288.193 33.5441C288.662 34.1414 288.961 34.6321 289.089 35.0161C289.217 35.2294 289.387 35.6347 289.601 36.2321C289.857 36.7867 289.899 37.2987 289.729 37.7681C289.686 37.9387 289.643 38.1307 289.601 38.3441C289.558 38.5574 289.537 38.7707 289.537 38.9841C288.897 39.8801 288.385 40.5841 288.001 41.0961C287.617 41.6081 286.955 42.1627 286.017 42.7601C284.609 43.5707 283.201 44.1894 281.793 44.6161C280.427 45.0427 279.041 45.2347 277.633 45.1921C277.419 45.1921 277.206 45.2561 276.993 45.3841C276.822 45.4694 276.63 45.4267 276.417 45.2561C275.563 45.2561 274.923 45.0214 274.497 44.5521C274.07 44.0827 273.622 43.5494 273.153 42.9521C272.811 42.4827 272.598 41.9067 272.513 41.2241ZM276.097 41.4161C276.865 41.5014 277.569 41.4587 278.209 41.2881C278.891 41.1174 279.553 40.9681 280.193 40.8401C280.918 40.7121 281.686 40.4347 282.497 40.0081C283.307 39.5387 284.033 38.9841 284.673 38.3441C285.355 37.6614 285.803 36.9787 286.017 36.2961C286.145 35.9547 286.166 35.5707 286.081 35.1441C285.995 34.7174 285.803 34.4187 285.505 34.2481C285.078 33.9494 284.651 33.6507 284.225 33.3521C283.798 33.0534 283.286 32.9254 282.689 32.9681C282.561 33.0107 282.411 33.0107 282.241 32.9681C282.113 32.8827 281.985 32.8187 281.857 32.7761C281.515 32.6907 281.174 32.6481 280.833 32.6481C280.534 32.6481 280.214 32.6907 279.873 32.7761C279.489 32.9041 279.126 33.0321 278.785 33.1601C278.443 33.2881 278.294 33.6294 278.337 34.1841C278.337 34.2694 278.23 34.4187 278.017 34.6321C277.931 34.7174 277.739 35.1441 277.441 35.9121C277.185 36.6801 276.929 37.4907 276.673 38.3441C276.417 39.1974 276.225 39.8161 276.097 40.2001C276.054 40.3707 276.033 40.5627 276.033 40.7761C276.075 40.9467 276.097 41.1601 276.097 41.4161ZM309.336 34.0561C309.89 32.2641 310.573 30.5361 311.384 28.8721C312.237 27.1654 313.154 25.6721 314.136 24.3921C315.117 23.1121 316.077 22.1947 317.016 21.6401C317.485 21.5547 317.89 21.5334 318.232 21.5761C318.616 21.5761 319.042 21.6187 319.512 21.7041C319.682 21.1921 319.576 20.4454 319.192 19.4641C318.808 18.4827 318.338 17.5227 317.784 16.5841C317.272 15.6027 316.866 14.9201 316.568 14.5361C316.269 14.1521 315.949 13.7894 315.608 13.4481C315.266 13.0641 314.968 12.6801 314.712 12.2961C314.541 11.9547 314.477 11.5921 314.52 11.2081C314.562 10.8241 314.797 10.5681 315.224 10.4401C315.821 10.2267 316.397 9.99206 316.952 9.73606C317.549 9.43739 318.146 9.18139 318.744 8.96806C319 8.88273 319.49 8.75473 320.216 8.58406C320.941 8.41339 321.666 8.26406 322.392 8.13606C323.16 7.96539 323.672 7.88006 323.928 7.88006C324.44 7.79473 324.952 7.77339 325.464 7.81606C325.976 7.85873 326.488 7.9014 327 7.94406C327.938 7.98673 328.536 8.20006 328.792 8.58406C329.048 8.96806 329.41 9.50139 329.88 10.1841C329.794 10.4827 329.688 10.9307 329.56 11.5281C329.474 12.0827 329.282 12.4667 328.984 12.6801C328.813 12.6374 328.621 12.6161 328.408 12.6161C328.194 12.6161 327.981 12.5734 327.768 12.4881C327.341 12.2747 326.68 12.1041 325.784 11.9761C324.888 11.8054 323.992 11.7201 323.096 11.7201C322.2 11.6774 321.538 11.7627 321.112 11.9761C320.898 12.0614 320.642 12.1467 320.344 12.2321C320.045 12.2747 319.746 12.3174 319.448 12.3601C319.192 12.4027 318.978 12.5094 318.808 12.6801C319.149 13.3627 319.661 14.1947 320.344 15.1761C321.026 16.1147 321.56 16.9467 321.944 17.6721C322.029 17.8427 322.05 18.0134 322.008 18.1841C321.965 18.3547 322.029 18.5041 322.2 18.6321C322.413 19.2294 322.626 19.8481 322.84 20.4881C323.053 21.1281 323.16 21.7894 323.16 22.4721C323.288 22.7707 323.416 23.2614 323.544 23.9441C323.714 24.5841 323.821 25.2454 323.864 25.9281C323.949 26.5681 323.928 27.0374 323.8 27.3361C324.013 27.9334 324.013 28.4454 323.8 28.8721C323.629 29.2561 323.501 29.7254 323.416 30.2801C323.416 30.3654 323.394 30.4507 323.352 30.5361C323.352 30.6214 323.352 30.7067 323.352 30.7921C323.352 31.6454 323.288 32.3281 323.16 32.8401C323.032 33.3521 322.797 34.0134 322.456 34.8241C322.242 35.5067 322.008 36.1894 321.752 36.8721C321.538 37.5121 321.325 38.1734 321.112 38.8561C320.088 40.6907 319.128 42.2267 318.232 43.4641C317.378 44.6587 316.61 45.5334 315.928 46.0881C315.288 46.6001 314.69 46.7494 314.136 46.5361C313.581 46.5787 313.048 46.5147 312.536 46.3441C312.024 46.1307 311.533 45.8747 311.064 45.5761C310.04 44.9361 309.314 44.0401 308.888 42.8881C308.504 41.6934 308.354 40.3281 308.44 38.7921C308.568 37.2561 308.866 35.6774 309.336 34.0561ZM312.344 38.6001C312.258 39.4107 312.216 39.9867 312.216 40.3281C312.258 40.6267 312.365 41.1814 312.536 41.9921C312.749 42.1627 312.962 42.3547 313.176 42.5681C313.389 42.7387 313.602 42.9307 313.816 43.1441C314.626 42.1201 315.245 41.2667 315.672 40.5841C316.098 39.8587 316.482 39.1334 316.824 38.4081C317.208 37.6827 317.698 36.8294 318.296 35.8481C318.381 35.5067 318.466 35.1654 318.552 34.8241C318.68 34.4401 318.808 34.0987 318.936 33.8001C319.277 33.0747 319.554 32.0721 319.768 30.7921C320.024 29.4694 320.109 28.1894 320.024 26.9521C319.981 25.6721 319.64 24.7121 319 24.0721C318.957 24.4987 318.701 25.0747 318.232 25.8001C317.762 26.5254 317.357 27.0587 317.016 27.4001C316.29 28.1254 315.586 29.1921 314.904 30.6001C314.264 31.9654 313.709 33.3947 313.24 34.8881C312.77 36.3387 312.472 37.5761 312.344 38.6001ZM342.586 46.7281C342.159 46.9414 341.668 46.8134 341.114 46.3441C340.559 45.8747 340.175 45.4907 339.962 45.1921C339.578 44.6801 339.3 43.9761 339.13 43.0801C338.959 42.1841 338.874 41.4374 338.874 40.8401C338.874 39.7307 338.788 39.0907 338.618 38.9201C338.49 38.7494 338.212 38.8987 337.786 39.3681C337.402 39.7947 336.826 40.3921 336.058 41.1601C335.716 41.5014 335.162 41.9494 334.394 42.5041C333.626 43.0587 332.836 43.5281 332.026 43.9121C331.215 44.2961 330.532 44.4881 329.978 44.4881C329.594 44.4454 329.21 44.2321 328.826 43.8481C328.442 43.4641 328.1 43.0374 327.802 42.5681C327.546 42.0561 327.354 41.6294 327.226 41.2881C327.012 40.6481 326.991 39.6027 327.162 38.1521C327.375 36.6587 327.716 35.0161 328.186 33.2241C328.698 31.3894 329.274 29.6401 329.914 27.9761C330.596 26.2694 331.279 24.8827 331.962 23.8161C332.687 22.7067 333.391 22.1521 334.074 22.1521C334.543 22.1521 334.906 22.4294 335.162 22.9841C335.46 23.4961 335.695 23.9227 335.866 24.2641C336.079 24.6907 336.143 24.9681 336.058 25.0961C336.015 25.2241 335.844 25.4587 335.546 25.8001C335.204 26.2267 334.799 26.9521 334.33 27.9761C333.86 28.9574 333.37 30.0454 332.858 31.2401C332.388 32.3921 331.962 33.5014 331.578 34.5681C331.194 35.6347 330.916 36.4454 330.746 37.0001C330.66 37.3414 330.532 37.8107 330.362 38.4081C330.234 39.0054 330.191 39.4747 330.234 39.8161C330.234 39.8587 330.255 39.9654 330.298 40.1361C330.34 40.2641 330.511 40.3281 330.81 40.3281C331.748 40.3281 332.687 39.9441 333.626 39.1761C334.607 38.3654 335.567 37.3201 336.506 36.0401C337.487 34.7601 338.404 33.4161 339.258 32.0081C340.111 30.6001 340.9 29.2561 341.626 27.9761C342.394 26.6961 343.055 25.6507 343.61 24.8401C344.164 23.9867 344.612 23.5387 344.954 23.4961C345.252 23.4534 345.594 23.4961 345.978 23.6241C346.404 23.7094 346.767 23.8587 347.066 24.0721C347.364 24.2854 347.492 24.5841 347.45 24.9681C346.938 26.5467 346.319 28.1254 345.594 29.7041C344.868 31.2401 344.186 32.7974 343.546 34.3761C342.948 35.9547 342.522 37.5761 342.266 39.2401C342.095 40.2641 342.159 41.2667 342.458 42.2481C342.799 43.2294 343.332 44.1041 344.058 44.8721C344.484 45.2987 344.442 45.7041 343.93 46.0881C343.418 46.4721 342.97 46.6854 342.586 46.7281ZM350.569 44.6801C350.228 44.9361 349.737 45.0001 349.097 44.8721C348.457 44.7441 347.945 44.6161 347.561 44.4881C347.476 44.3174 347.391 44.1254 347.305 43.9121C347.22 43.6987 347.156 43.5067 347.113 43.3361C347.071 43.1227 347.028 42.9094 346.985 42.6961C346.985 42.4827 346.943 42.2907 346.857 42.1201C346.985 41.9921 347.092 41.8641 347.177 41.7361C347.305 41.6081 347.433 41.5014 347.561 41.4161C347.775 41.4161 348.009 41.4161 348.265 41.4161C348.521 41.4161 348.756 41.4161 348.969 41.4161C349.183 41.3307 349.353 41.2027 349.481 41.0321C349.652 40.8187 349.865 40.7121 350.121 40.7121C351.06 40.1147 351.977 39.1761 352.873 37.8961C353.812 36.6161 354.708 35.1867 355.561 33.6081C356.457 32.0294 357.247 30.4934 357.929 29.0001C358.655 27.4641 359.252 26.1841 359.721 25.1601C359.721 25.0747 359.721 25.0107 359.721 24.9681C359.721 24.9254 359.7 24.8827 359.657 24.8401C359.359 24.9254 359.039 25.0107 358.697 25.0961C358.356 25.1387 358.015 25.2241 357.673 25.3521C357.631 25.3947 357.567 25.4374 357.481 25.4801C357.396 25.5227 357.332 25.5654 357.289 25.6081C356.82 25.9921 356.201 26.0987 355.433 25.9281C354.708 25.7574 354.196 25.3947 353.897 24.8401C353.812 24.6694 353.727 24.5201 353.641 24.3921C353.556 24.2641 353.449 24.1147 353.321 23.9441C353.492 23.5601 353.748 23.1974 354.089 22.8561C354.473 22.4721 354.879 22.2374 355.305 22.1521C356.457 21.8961 357.588 21.7041 358.697 21.5761C359.849 21.4054 361.001 21.3627 362.153 21.4481C363.305 21.5334 364.436 21.7894 365.545 22.2161C365.759 22.2587 365.951 22.3014 366.121 22.3441C366.292 22.3867 366.463 22.4721 366.633 22.6001C366.889 22.7707 367.145 22.9627 367.401 23.1761C367.657 23.3894 367.892 23.6027 368.105 23.8161C368.404 24.0721 368.639 24.3494 368.809 24.6481C368.98 24.9467 369.087 25.2881 369.129 25.6721C369.215 26.0987 369.257 26.5467 369.257 27.0161C369.3 27.4854 369.279 27.9547 369.193 28.4241C368.98 29.4907 368.639 30.7707 368.169 32.2641C367.743 33.7147 367.359 34.9734 367.017 36.0401C366.505 37.7041 366.057 39.1974 365.673 40.5201C365.289 41.8001 364.927 43.0587 364.585 44.2961C364.031 44.4667 363.497 44.4454 362.985 44.2321C362.473 44.0187 362.025 43.6987 361.641 43.2721C361.471 42.6747 361.385 42.1201 361.385 41.6081C361.385 41.0534 361.535 40.4987 361.833 39.9441C362.132 39.3467 362.345 38.5787 362.473 37.6401C362.601 36.7014 362.879 35.9547 363.305 35.4001C363.391 35.2294 363.433 35.0801 363.433 34.9521C363.433 34.6961 363.519 34.2054 363.689 33.4801C363.903 32.7547 364.137 31.9441 364.393 31.0481C364.649 30.1094 364.884 29.2347 365.097 28.4241C365.353 27.6134 365.524 26.9947 365.609 26.5681C365.695 26.3121 365.695 26.0774 365.609 25.8641C365.567 25.6507 365.545 25.4161 365.545 25.1601C365.204 24.9894 364.713 24.8614 364.073 24.7761C363.476 24.6907 363.071 24.9041 362.857 25.4161C362.815 25.5014 362.772 25.6081 362.729 25.7361C362.729 25.8214 362.708 25.9067 362.665 25.9921C362.324 27.0587 361.855 28.0827 361.257 29.0641C360.703 30.0454 360.191 31.3894 359.721 33.0961C359.593 33.5654 359.401 34.0134 359.145 34.4401C358.932 34.8241 358.74 35.2507 358.569 35.7201C358.569 35.7627 358.548 35.8054 358.505 35.8481C358.505 35.8907 358.484 35.9334 358.441 35.9761C358.441 36.0187 358.42 36.0614 358.377 36.1041C358.079 36.4881 357.801 36.8934 357.545 37.3201C357.332 37.7041 357.097 38.1094 356.841 38.5361C356.116 39.7307 355.156 40.8401 353.961 41.8641C352.809 42.8881 351.679 43.8267 350.569 44.6801ZM382.906 44.4241C382.01 45.1921 380.965 45.6401 379.77 45.7681C378.618 45.8961 377.488 45.7254 376.378 45.2561C375.269 44.7441 374.352 43.9761 373.626 42.9521C372.901 42.0134 372.432 40.9467 372.218 39.7521C372.005 38.5147 371.984 36.9147 372.154 34.9521C372.282 33.2881 372.816 31.6241 373.754 29.9601C374.693 28.2534 375.824 26.7387 377.146 25.4161C378.512 24.0934 379.856 23.1761 381.178 22.6641C381.818 22.2374 382.352 22.0454 382.778 22.0881C383.248 22.0881 383.952 22.1307 384.89 22.2161C385.872 22.3441 386.597 22.5361 387.066 22.7921C387.578 23.0481 387.984 23.3894 388.282 23.8161C388.922 24.4561 389.349 25.0961 389.562 25.7361C389.776 26.3334 389.882 26.9307 389.882 27.5281C389.712 28.4667 389.072 29.6187 387.962 30.9841C386.896 32.3067 385.488 33.3947 383.738 34.2481C382.8 34.5467 381.776 34.6747 380.666 34.6321C379.557 34.5894 378.64 34.3121 377.914 33.8001C377.104 33.4587 376.57 33.5227 376.314 33.9921C376.058 34.4187 375.824 35.4854 375.61 37.1921C375.44 38.8134 375.568 40.0081 375.994 40.7761C376.421 41.5014 376.997 41.9281 377.722 42.0561C378.576 42.2267 379.237 42.3547 379.706 42.4401C380.218 42.4827 380.837 42.2907 381.562 41.8641C382.245 41.4374 382.672 41.2027 382.842 41.1601C383.013 41.0747 383.141 40.9894 383.226 40.9041C383.354 40.7761 383.632 40.4987 384.058 40.0721C384.357 39.7734 384.592 39.5601 384.762 39.4321C384.933 39.2614 385.125 39.1761 385.338 39.1761C385.552 39.1761 385.744 39.2827 385.914 39.4961C386.085 39.6667 386.256 39.7947 386.426 39.8801C386.853 39.8801 386.938 40.1361 386.682 40.6481C386.469 41.1601 386.021 41.7787 385.338 42.5041C384.656 43.1867 383.845 43.8267 382.906 44.4241ZM382.842 30.8561C383.312 30.6427 383.802 30.3441 384.314 29.9601C384.826 29.5334 385.253 29.0854 385.594 28.6161C385.978 28.1041 386.17 27.6774 386.17 27.3361C386.17 26.7387 385.893 26.2481 385.338 25.8641C384.784 25.4374 383.952 25.3734 382.842 25.6721C382.373 25.8001 381.84 26.1201 381.242 26.6321C380.645 27.1014 380.069 27.6347 379.514 28.2321C379.002 28.8294 378.576 29.3627 378.234 29.8321C377.936 30.3014 377.829 30.5787 377.914 30.6641C378.042 30.8774 378.405 31.0481 379.002 31.1761C379.6 31.2614 380.261 31.2827 380.986 31.2401C381.754 31.1974 382.373 31.0694 382.842 30.8561ZM394.503 43.5281C394.033 43.2294 393.607 42.8454 393.223 42.3761C392.839 41.8641 392.647 41.2241 392.647 40.4561C392.647 40.0294 392.732 39.3041 392.903 38.2801C393.073 37.2561 393.308 36.1041 393.607 34.8241C393.905 33.5441 394.204 32.3494 394.503 31.2401C394.929 30.4721 395.292 29.7041 395.591 28.9361C395.889 28.1681 396.039 27.6987 396.039 27.5281C396.124 27.0161 396.231 26.4187 396.359 25.7361C396.529 25.0534 396.7 24.4347 396.871 23.8801C397.041 23.3254 397.169 23.0054 397.255 22.9201C397.468 22.7067 397.724 22.5787 398.023 22.5361C398.321 22.4507 398.62 22.4934 398.919 22.6641C399.26 22.7921 399.516 23.0694 399.687 23.4961C400.156 24.0081 400.391 24.6267 400.391 25.3521C400.391 26.0347 400.156 27.0587 399.687 28.4241C399.303 29.2774 398.919 30.2801 398.535 31.4321C398.151 32.5841 397.809 33.6507 397.511 34.6321C397.255 35.5707 397.105 36.2107 397.063 36.5521L395.783 36.9361C396.508 36.2534 397.191 35.5494 397.831 34.8241C398.471 34.0561 398.94 33.4587 399.239 33.0321C399.964 32.0507 400.583 31.2401 401.095 30.6001C401.649 29.9174 402.353 29.1067 403.207 28.1681C404.06 27.1867 404.892 26.5894 405.703 26.3761C406.556 26.1201 407.217 25.9921 407.687 25.9921C408.625 26.1627 409.372 26.6534 409.927 27.4641C410.524 28.2321 410.908 29.3841 411.079 30.9201C411.079 31.5174 411.015 32.2214 410.887 33.0321C410.801 33.8427 410.759 34.2481 410.759 34.2481C410.759 34.2481 411.1 33.8001 411.783 32.9041C412.508 32.0081 413.468 31.0267 414.663 29.9601C415.473 29.3627 416.263 29.0214 417.031 28.9361C417.799 28.8081 418.481 29.0641 419.079 29.7041C420.188 30.3014 420.913 31.2187 421.255 32.4561C421.596 33.6507 421.681 35.1867 421.511 37.0641C421.383 38.1734 421.361 39.0054 421.447 39.5601C421.532 40.0721 421.66 40.5841 421.831 41.0961C422.172 41.2667 422.236 41.6294 422.023 42.1841C421.809 42.6961 421.553 42.9521 421.255 42.9521C420.828 42.9521 420.337 42.8667 419.783 42.6961C419.271 42.5254 418.801 42.2481 418.375 41.8641C417.991 41.4374 417.799 40.8614 417.799 40.1361V36.1681C417.799 35.2294 417.756 34.4614 417.671 33.8641C417.628 33.2667 417.521 32.9041 417.351 32.7761C416.881 32.5201 416.199 32.7974 415.303 33.6081C414.407 34.4187 413.447 35.5067 412.423 36.8721C411.399 38.2374 410.439 39.6454 409.543 41.0961C408.732 42.4187 408.22 43.1867 408.007 43.4001C407.836 43.5707 407.516 43.5067 407.047 43.2081C406.108 42.9094 405.511 42.5041 405.255 41.9921C405.041 41.4374 405.02 40.8187 405.191 40.1361C405.404 39.4107 405.66 38.4294 405.959 37.1921C406.3 35.9547 406.62 34.7601 406.919 33.6081C407.217 32.4134 407.409 31.5601 407.495 31.0481C407.324 30.7067 407.025 30.6001 406.599 30.7281C406.215 30.8134 405.809 31.0054 405.383 31.3041C404.871 31.6454 404.252 32.2854 403.527 33.2241C402.801 34.1627 402.055 35.2507 401.287 36.4881C400.775 37.2987 400.241 38.1094 399.687 38.9201C399.132 39.6881 398.62 40.3707 398.151 40.9681C397.681 41.5654 397.276 42.0134 396.935 42.3121C396.337 43.2507 395.932 43.7627 395.719 43.8481C395.505 43.9334 395.1 43.8267 394.503 43.5281ZM431.225 35.7841C430.031 35.9974 429.241 35.4214 428.857 34.0561C428.473 32.6907 428.58 30.8134 429.177 28.4241C429.433 27.9121 429.647 27.4214 429.817 26.9521C429.988 26.4401 430.073 26.0347 430.073 25.7361C430.244 25.1814 430.457 24.5414 430.713 23.8161C431.012 23.0481 431.311 22.3441 431.609 21.7041C431.908 21.0214 432.121 20.5734 432.249 20.3601C432.42 20.3601 432.591 20.2107 432.761 19.9121C432.975 19.6134 433.081 19.3147 433.081 19.0161C433.081 18.6747 433.145 18.2907 433.273 17.8641C433.444 17.4374 433.615 17.1387 433.785 16.9681C433.785 16.7547 433.871 16.5201 434.041 16.2641C434.212 16.0081 434.297 15.7947 434.297 15.6241C434.297 15.4534 434.34 15.3041 434.425 15.1761C434.553 15.0481 434.617 14.8987 434.617 14.7281C435.001 14.0454 435.492 13.0427 436.089 11.7201C436.729 10.3547 437.348 8.92539 437.945 7.43206C438.585 5.93873 439.119 4.61606 439.545 3.46406C439.972 2.31206 440.185 1.60806 440.185 1.35206C440.271 1.01073 440.399 0.754728 440.569 0.584061C440.74 0.413394 440.996 0.370726 441.337 0.456059C441.508 0.32806 441.679 0.264061 441.849 0.264061C442.02 0.221395 442.191 0.200062 442.361 0.200062C442.361 0.200062 442.425 0.285394 442.553 0.456059C442.724 0.626726 442.959 0.882726 443.257 1.22406C443.599 1.52273 443.791 1.86406 443.833 2.24806C443.876 2.63206 443.897 3.08006 443.897 3.59206C443.855 4.40273 443.556 5.32006 443.001 6.34406C442.447 7.36806 441.828 8.49873 441.145 9.73606C440.719 10.5467 440.292 11.3147 439.865 12.0401C439.481 12.7654 439.289 13.2134 439.289 13.3841C439.289 13.5547 439.204 13.8107 439.033 14.1521C438.863 14.4934 438.671 14.9201 438.457 15.4321C438.201 15.8587 437.924 16.3707 437.625 16.9681C437.327 17.5654 437.049 18.1201 436.793 18.6321C436.58 19.1014 436.473 19.4001 436.473 19.5281C436.431 19.6987 436.367 19.8694 436.281 20.0401C436.239 20.2107 436.132 20.3814 435.961 20.5521C435.791 20.5521 435.684 20.6801 435.641 20.9361C435.641 21.1494 435.641 21.2561 435.641 21.2561C435.641 21.4267 435.535 21.8321 435.321 22.4721C435.151 23.0694 434.852 23.7947 434.425 24.6481C433.615 26.9094 433.039 28.7227 432.697 30.0881C432.356 31.4107 432.143 32.5414 432.057 33.4801C431.972 34.5041 431.887 35.1014 431.801 35.2721C431.759 35.4427 431.567 35.6134 431.225 35.7841ZM427.769 46.0241C426.959 46.3227 426.276 46.4721 425.721 46.4721C425.209 46.4294 424.633 46.1734 423.993 45.7041C423.183 44.9361 422.905 44.1681 423.161 43.4001C423.46 42.5894 424.164 41.8001 425.273 41.0321C426.041 40.5627 426.596 40.3067 426.937 40.2641C427.321 40.2214 427.897 40.3707 428.665 40.7121C429.945 41.5227 430.5 42.4187 430.329 43.4001C430.201 44.3814 429.348 45.2561 427.769 46.0241Z" fill="#43CAFF"/>
</svg>
