<svg width="16" height="12" viewBox="0 0 16 12" fill="none" xmlns="http://www.w3.org/2000/svg">
<path fill-rule="evenodd" clip-rule="evenodd" d="M15.6996 6.33721L12.2577 10.974C12.0924 11.1967 11.8244 11.1967 11.6591 10.974L10.9039 9.95658L13.5906 6.33721C13.7559 6.1145 13.7559 5.75346 13.5906 5.53081L13.2567 5.08103L14.2612 3.59294L15.6996 5.53081C15.8649 5.75346 15.8649 6.1145 15.6996 6.33721ZM10.9039 1.91143L11.6591 0.894008C11.8244 0.671354 12.0924 0.671354 12.2577 0.894008L13.6997 2.83662L12.6953 4.32471L10.9039 1.91143ZM6.39229 9.95771L5.19481 8.36306L9.60443 1.83002L10.8019 3.42467L6.39229 9.95771ZM3.71544 6.39299C3.52491 6.13921 3.52491 5.72783 3.71544 5.47405L7.68309 0.190292C7.87367 -0.0634307 8.18258 -0.0634307 8.37311 0.190292L9.12594 1.19285L4.71638 7.72595L3.71544 6.39299ZM2.21812 6.16964L4.45486 9.19649L3.66361 10.2672C3.51821 10.464 3.28245 10.464 3.13704 10.2672L0.109053 6.16964C-0.036351 5.97283 -0.036351 5.65379 0.109053 5.45698L3.13704 1.3594C3.28245 1.16259 3.51821 1.16259 3.66361 1.3594L4.45486 2.43013L2.21812 5.45698C2.07272 5.65379 2.07272 5.97283 2.21812 6.16964ZM12.3408 5.47405C12.5313 5.72783 12.5313 6.13921 12.3408 6.39299L8.37311 11.6768C8.18258 11.9305 7.87367 11.9305 7.68309 11.6768L6.87073 10.5949L11.2803 4.06183L12.3408 5.47405Z" transform="translate(0 0.0761719)" fill="white" fill-opacity="0.8"/>
</svg>
