<svg width="24" height="24" viewBox="0 0 24 24" fill="none" xmlns="http://www.w3.org/2000/svg">
<path d="M14.3531 6.99233C14.1414 6.65416 13.8295 6.39321 13.414 6.21184C12.9997 6.03046 12.5083 5.93919 11.9386 5.93919C11.1905 5.93919 10.4759 6.12524 9.79339 6.49736C9.11092 6.86947 8.54124 7.40189 8.08664 8.0958L5.59961 6.01291C6.16814 5.33538 6.7781 4.75732 7.42835 4.27756C8.07859 3.79896 8.79443 3.43036 9.57357 3.1741C10.3539 2.91783 11.2228 2.79028 12.1826 2.79028C12.979 2.79028 13.7466 2.91081 14.4866 3.14952C15.2267 3.38941 15.8884 3.74396 16.4742 4.21554C17.06 4.68712 17.5261 5.25698 17.876 5.92632C18.2258 6.59565 18.3996 7.35976 18.3996 8.21983C18.3996 9.22851 18.1441 10.1038 17.632 10.848C17.1198 11.5922 16.465 12.1914 15.6697 12.6454C14.8733 13.1006 14.0367 13.4013 13.1585 13.5499L13.0607 15.6328H10.0857L9.59774 11.2201H10.378C11.3528 11.2201 12.1573 11.0586 12.7914 10.7369C13.4255 10.4151 13.8962 10.0219 14.2058 9.55967C14.5143 9.09745 14.6696 8.65045 14.6696 8.221C14.6696 7.74241 14.5638 7.33285 14.352 6.9935L14.3531 6.99233ZM9.93955 17.7145C10.378 17.3015 10.9224 17.0943 11.5726 17.0943C12.2551 17.0943 12.8121 17.3015 13.2426 17.7145C13.673 18.1276 13.8882 18.6074 13.8882 19.1527C13.8882 19.6979 13.673 20.1976 13.2426 20.6025C12.8121 21.0074 12.2551 21.2098 11.5726 21.2098C10.8902 21.2098 10.378 21.0074 9.93955 20.6025C9.50107 20.1976 9.28125 19.7143 9.28125 19.1527C9.28125 18.591 9.50107 18.1288 9.93955 17.7145Z" fill="white" fill-opacity="0.25"/>
</svg>
