<svg width="30" height="16" viewBox="0 0 30 16" fill="none" xmlns="http://www.w3.org/2000/svg">
<path fill-rule="evenodd" clip-rule="evenodd" d="M21.2407 5.31941C21.2407 5.31941 21.2407 5.63656 21.2407 6.38119C21.2407 7.12581 20.2752 7.59013 20.2752 7.59013C20.2752 7.59013 21.0794 7.59013 21.7234 7.59013C22.3675 7.59013 22.4476 8.3492 22.4476 8.3492H26.7923C26.7923 8.3492 28.2405 7.46134 28.2405 10.6262C28.2405 13.7911 22.4476 15.9393 22.4476 15.9393H4.34468C4.34468 15.9393 2.56556 15.0953 1.44819 14.4213C0.33093 13.7474 1.08981e-07 11.3852 1.08981e-07 11.3852V6.38119H1.06203C1.06203 6.38119 1.61259 5.31941 2.12407 5.31941C2.48421 5.31941 4.15075 5.31941 5.31017 5.31941C5.79743 5.31941 6.20409 5.31941 6.37221 5.31941C6.37221 5.03952 6.37221 4.70697 6.37221 4.25763C6.37221 1.97937 9.13095 2.78261 9.55831 2.13407C9.98567 1.48554 9.19775 1.10032 10.6203 1.07229C10.6203 0.392009 11.5858 2.75425e-08 11.5858 2.75425e-08C11.5858 2.75425e-08 13.9066 2.75425e-08 14.4823 2.75425e-08C15.058 2.75425e-08 15.9305 1.07229 15.9305 1.07229C15.9305 1.07229 18.522 1.07229 19.1166 1.07229C20.5503 1.07229 21.2407 3.19585 21.2407 3.19585H29.737V5.31941H21.2407ZM17.9979 4.24712L12.4093 10.3294L9.61502 7.28827L8.49723 8.50475L12.4093 12.7624L19.1157 5.4636L17.9979 4.24712Z" fill="#9CC3D4"/>
</svg>
