<?xml version="1.0" encoding="UTF-8"?>
<svg width="89px" height="106px" viewBox="0 0 89 106" version="1.1" xmlns="http://www.w3.org/2000/svg" xmlns:xlink="http://www.w3.org/1999/xlink">
    <!-- Generator: sketchtool 52.5 (67469) - http://www.bohemiancoding.com/sketch -->
    <title>038D3CAB-52E8-441F-963A-86E0DD1280FD</title>
    <desc>Created with sketchtool.</desc>
    <g id="Symbols" stroke="none" stroke-width="1" fill="none" fill-rule="evenodd">
        <g id="Icon_alert" transform="translate(3.000000, 3.000000)">
            <g>
                <polygon id="Path" stroke="#A9AEAE" stroke-width="6" fill-rule="nonzero" points="4.13867187 68.2236328 41.8320312 98.9960938 79.9707031 68.2236328 82.796875 17.9306641 41.9072266 0.436523437 0.8671875 17.9306641"></polygon>
                <path d="M46.5626741,56 L37.4373259,56 L36,24 L48,24 L46.5626741,56 Z M36,66.5 C36,64.8944693 36.5721868,63.5764351 37.7165775,62.545858 C38.8609683,61.5152808 40.2887615,61 42,61 C43.7112385,61 45.1390317,61.5152808 46.2834225,62.545858 C47.4278132,63.5764351 48,64.8944693 48,66.5 C48,68.1055307 47.4278132,69.4235649 46.2834225,70.454142 C45.1390317,71.4847192 43.7112385,72 42,72 C40.2887615,72 38.8609683,71.4847192 37.7165775,70.454142 C36.5721868,69.4235649 36,68.1055307 36,66.5 Z" id="!" fill="#A9AEAE"></path>
            </g>
        </g>
    </g>
</svg>