<svg width="18" height="20" viewBox="0 0 18 20" fill="none" xmlns="http://www.w3.org/2000/svg">
<path fill-rule="evenodd" clip-rule="evenodd" d="M8.49718 19.3698C8.49718 19.3698 0 12.8348 0 12.8249C0 10.656 1.85212 9.14579 4.11132 8.53227C5.16249 9.88516 6.73657 10.8979 8.49594 10.8979C10.2656 10.8979 11.8475 9.87336 12.8993 8.50867C15.1999 9.10646 17.1026 10.6265 17.1026 12.8249C17.1026 12.8702 8.49718 19.3698 8.49718 19.3698ZM8.49636 8.21174C6.90579 8.21174 5.61635 6.23943 5.61635 4.65254V2.87489C5.61635 1.288 6.90579 0 8.49636 0C10.0869 0 11.3764 1.288 11.3764 2.87489V4.65254C11.3764 6.23943 10.0871 8.21174 8.49718 8.21174H8.49636Z" fill="#ffffff"/>
</svg>
