<svg width="18" height="18" viewBox="0 0 18 18" fill="none" xmlns="http://www.w3.org/2000/svg">
<path fill-rule="evenodd" clip-rule="evenodd" d="M2.68478 3.375H1.125V1.125H4.5L5.0625 4.5H16.875L15.75 10.125L4.49121 12.3965L2.68478 3.375ZM5.06249 16.875C4.13051 16.875 3.37499 16.1195 3.37499 15.1875C3.37499 14.2555 4.13051 13.5 5.06249 13.5C5.99447 13.5 6.74999 14.2555 6.74999 15.1875C6.74999 16.1195 5.99447 16.875 5.06249 16.875ZM14.0626 16.875C13.1306 16.875 12.3751 16.1195 12.3751 15.1875C12.3751 14.2555 13.1306 13.5 14.0626 13.5C14.9946 13.5 15.7501 14.2555 15.7501 15.1875C15.7501 16.1195 14.9946 16.875 14.0626 16.875Z" fill="black" fill-opacity="0.75"/>
</svg>
