<svg width="16" height="16" viewBox="0 0 16 16" version="1.1" xmlns="http://www.w3.org/2000/svg" xmlns:xlink="http://www.w3.org/1999/xlink">
    <g id="Canvas" transform="translate(-4203 -428)">
<g id="Group">
<g id="Ellipse">
<mask id="mask0_outline_ins">
<use xlink:href="#path0_fill" fill="white" transform="translate(4203 428)"/>
</mask>
<g mask="url(#mask0_outline_ins)">
<use xlink:href="#path1_stroke_2x" transform="translate(4203 428)" fill="#CED6D5" fill-opacity="0.6"/>
</g>
</g>
<g id="Vector">
<use xlink:href="#path2_stroke" transform="translate(4211 430.909)" fill="#CED6D5" fill-opacity="0.6"/>
</g>
</g>
</g>
<defs>
<path id="path0_fill" d="M 16 8C 16 12.4183 12.4183 16 8 16C 3.58172 16 0 12.4183 0 8C 0 3.58172 3.58172 0 8 0C 12.4183 0 16 3.58172 16 8Z"/>
<path id="path1_stroke_2x" d="M 14 8C 14 11.3137 11.3137 14 8 14L 8 18C 13.5228 18 18 13.5228 18 8L 14 8ZM 8 14C 4.68629 14 2 11.3137 2 8L -2 8C -2 13.5228 2.47715 18 8 18L 8 14ZM 2 8C 2 4.68629 4.68629 2 8 2L 8 -2C 2.47715 -2 -2 2.47715 -2 8L 2 8ZM 8 2C 11.3137 2 14 4.68629 14 8L 18 8C 18 2.47715 13.5228 -2 8 -2L 8 2Z"/>
<path id="path2_stroke" d="M 0 5.54972L -1 5.54972L -1 6.01489L -0.644216 6.31456L 0 5.54972ZM -1 0L -1 5.54972L 1 5.54972L 1 0L -1 0ZM -0.644216 6.31456L 2.26488 8.76484L 3.55331 7.23516L 0.644216 4.78487L -0.644216 6.31456Z"/>
</defs>
</svg>
