<svg width="30" height="31" viewBox="0 0 30 31" fill="none" xmlns="http://www.w3.org/2000/svg">
<rect width="30" height="30" fill="black" fill-opacity="0" transform="translate(0 0.139648)"/>
<rect width="30" height="30" fill="black" fill-opacity="0" transform="translate(0 0.139648)"/>
<path fill-rule="evenodd" clip-rule="evenodd" d="M15 27.7396C21.9588 27.7396 27.6 22.0984 27.6 15.1396C27.6 8.18086 21.9588 2.53965 15 2.53965C8.04121 2.53965 2.4 8.18086 2.4 15.1396C2.4 22.0984 8.04121 27.7396 15 27.7396ZM15 30.1397C23.2843 30.1397 30 23.4239 30 15.1396C30 6.85538 23.2843 0.139648 15 0.139648C6.71573 0.139648 0 6.85538 0 15.1396C0 23.4239 6.71573 30.1397 15 30.1397Z" fill="#EC5858"/>
<path fill-rule="evenodd" clip-rule="evenodd" d="M24 11L14.13 21L7.5 14.5L9.5 12.5L14 16.5L21.5 9L24 11Z" fill="#EC5858"/>
</svg>
