<?xml version="1.0" encoding="utf-8"?>
<!-- Generator: Adobe Illustrator 18.0.0, SVG Export Plug-In . SVG Version: 6.00 Build 0)  -->
<!DOCTYPE svg PUBLIC "-//W3C//DTD SVG 1.1//EN" "http://www.w3.org/Graphics/SVG/1.1/DTD/svg11.dtd">
<svg version="1.1" id="Layer_1" xmlns="http://www.w3.org/2000/svg" xmlns:xlink="http://www.w3.org/1999/xlink" x="0px" y="0px"
	 viewBox="0 0 14 10" enable-background="new 0 0 14 10" xml:space="preserve">
<g>
	<polygon fill="none" points="14,10 14,0 14,10 	"/>
	<polygon fill="none" points="0,7 0,6 0,4 0,3 0,1.1 0,0 0,0 0,10 0,10 0,8.9 	"/>
	<rect x="0" y="3" fill="#FFFFFF" width="0.1" height="1"/>
	<polygon fill="#FFFFFF" points="0.1,6 0.1,7 1.9,7 0.1,8.8 0.1,10 0.3,10 3.9,7.2 4.9,7.2 1.3,10 2.3,10 4.9,8 4.9,10 6,10 6,6 	
		"/>
	<polygon fill="#FFFFFF" points="0,8.9 0,10 0.1,10 0.1,8.8 	"/>
	<polygon fill="#FFFFFF" points="0.1,1.2 0.1,0.1 0,0 0,0 0,1.1 	"/>
	<polygon fill="#FFFFFF" points="4,3 0.1,0.1 0.1,1.2 1.9,3 0.1,3 0.1,4 6,4 6,0 4.9,0 4.9,2 2.3,0 1,0 4.9,3 	"/>
	<rect x="0" y="6" fill="#FFFFFF" width="0.1" height="1"/>
	<path fill="#FFFFFF" d="M9.9,3h-1l3.9-3h-1.2L9,2V0H8v4h5.9v2H8v4h1V8l2.6,2h1.1L9.1,7.2h1l3.6,2.8H14l0-10h-0.2L9.9,3z M13.9,9
		l-2-2h2V9z M13.9,3h-2l2-2V3z"/>
	<polygon fill="#C9161A" points="9.9,3 13.8,0 12.9,0 8.9,3 	"/>
	<polygon fill="#C9161A" points="9.1,7.2 12.7,10 13.7,10 10,7.2 	"/>
	<polygon fill="#C9161A" points="4,3 4.9,3 1,0 0.1,0 0.1,0.1 	"/>
	<polygon fill="#C9161A" points="0.1,0 0,0 0.1,0.1 	"/>
	<polygon fill="#C9161A" points="3.9,7.2 0.3,10 1.3,10 4.9,7.2 	"/>
	<polygon fill="#243879" points="2.3,10 4.9,10 4.9,8 	"/>
	<polygon fill="#243879" points="9,10 11.6,10 9,8 	"/>
	<polygon fill="#243879" points="11.6,0 9,0 9,2 	"/>
	<polygon fill="#243879" points="4.9,0 2.3,0 4.9,2 	"/>
	<polygon fill="#243879" points="0.1,1.2 0,1.1 0,3 0.1,3 	"/>
	<polygon fill="#243879" points="1.9,3 0.1,1.2 0.1,3 	"/>
	<polygon fill="#243879" points="0,8.9 0.1,8.8 0.1,7 0,7 	"/>
	<polygon fill="#243879" points="1.9,7 0.1,7 0.1,8.8 	"/>
	<polygon fill="#243879" points="13.9,3 13.9,1 11.9,3 	"/>
	<polygon fill="#243879" points="13.9,9 13.9,7 11.9,7 	"/>
	<rect x="0" y="4" fill="#C9161A" width="0.1" height="2"/>
	<polygon fill="#C9161A" points="13.9,6 13.9,4 8,4 8,0 6,0 6,4 0.1,4 0.1,6 6,6 6,10 8,10 8,6 	"/>
</g>
</svg>
