<svg width="27" height="31" viewBox="0 0 27 31" fill="none" xmlns="http://www.w3.org/2000/svg">
<mask id="mask0" maskUnits="userSpaceOnUse" x="3" y="3" width="21" height="24">
<path fill-rule="evenodd" clip-rule="evenodd" d="M9.46289 23.3164L0.773438 16.1094L0.728516 15.2666C0.65625 13.8623 0.554688 11.9619 0.447266 9.98047C0.294922 7.17773 0.126953 4.64551 0 2.83008C2.49414 1.10254 5.81836 0 9.54297 0C13.2656 0 16.5879 1.10059 19.082 2.8252C18.9316 4.80664 18.7422 7.4375 18.5762 10.2852L18.3496 14.2354L18.2852 15.3594L18.2461 16.0781L9.46289 23.3164Z" transform="translate(3.9707 3.34766)" fill="#ffffff"/>
</mask>
<g mask="url(#mask0)">
<path fill-rule="evenodd" clip-rule="evenodd" d="M14.3086 13.8857L14.6289 13.9307C15.1367 14.0029 15.9531 14.1191 16.1621 14.1191C19.0918 14.1191 18.7168 7.78223 18.7168 7.77734C18.7168 6.62891 17.752 5.83105 16.5801 5.50977C16.0391 6.22168 15.2363 6.76074 14.332 6.76074C13.4199 6.76074 12.6152 6.2168 12.0723 5.49902C11.416 5.67188 10.832 6.00098 10.4297 6.44922C10.4199 6.47266 10.3594 6.55957 10.2969 6.64746C12.3086 7.29199 14.3281 8.92871 14.3281 11.6074L14.3086 13.8857ZM14.3281 11.6074C14.3301 11.6035 14.3281 11.5996 14.3281 11.5947V11.6074ZM0.779297 9.61816C1.31836 8.90137 2.14062 8.37695 3.0625 8.07715C3.125 8.05762 3.19922 8.03418 3.26172 8.0166C3.32031 8.09082 3.38281 8.16309 3.44531 8.23438C4.23438 9.12109 5.2793 9.73828 6.42969 9.73828C7.67773 9.73828 8.80078 9.00977 9.60742 7.99902C10.8359 8.33301 11.9258 9.05371 12.4668 10.0947C12.6973 10.5391 12.8281 11.04 12.8281 11.5947L12.7598 19.5996L0 19.8896L0.117188 11.5947C0.117188 11.4141 0.130859 11.2393 0.158203 11.0693C0.212891 10.7197 0.322266 10.3936 0.478516 10.0947L0.566406 9.9375C0.630859 9.82715 0.703125 9.7207 0.779297 9.61816ZM6.47266 7.76465C5.11719 7.76465 4.01758 5.90039 4.01758 4.40039V2.71777C4.01758 1.2168 5.11719 0 6.47266 0C7.82812 0 8.92773 1.2168 8.92773 2.71777V4.40039C8.92773 5.90039 7.82812 7.76465 6.47266 7.76465ZM12.793 3.30566C12.793 4.09863 13.4473 5.08398 14.2539 5.08398C15.0586 5.08398 15.7109 4.09863 15.7109 3.30566V2.41602C15.7109 1.62207 15.0586 0.978516 14.2539 0.978516C13.4473 0.978516 12.793 1.62207 12.793 2.41602V3.30566Z" transform="translate(7.00781 7.92676)" fill="#9BC3D4"/>
<path fill-rule="evenodd" clip-rule="evenodd" d="M0 5.66211C0.0605469 5.57617 0.117188 5.49414 0.126953 5.4707C0.529297 5.02246 1.11328 4.69336 1.76953 4.52051C2.3125 5.23828 3.11719 5.78223 4.02734 5.78223C4.93359 5.78223 5.73438 5.24316 6.27734 4.53125C7.44922 4.85254 8.41406 5.65039 8.41406 6.79883C8.41406 6.80371 8.78906 13.1406 5.85938 13.1406C5.65234 13.1406 4.84375 13.0254 4.33594 12.9531L4.00586 12.9072L4.02539 10.6289C4.02539 7.95117 2.01172 6.30664 0 5.66211ZM4.02539 10.6289C4.02734 10.625 4.02539 10.6211 4.02539 10.6162V10.6289ZM2.49023 2.32715C2.49023 3.12012 3.14453 4.10547 3.94922 4.10547C4.75586 4.10547 5.4082 3.12012 5.4082 2.32715V1.4375C5.4082 0.643555 4.75586 0 3.94922 0C3.14453 0 2.49023 0.643555 2.49023 1.4375V2.32715Z" transform="translate(9.61133 8.90527) scale(-1 1)" fill="#9BC3D4"/>
</g>
<path fill-rule="evenodd" clip-rule="evenodd" d="M24.9477 21.0805C24.9477 21.0805 25.6951 8.12111 26 4.64718C22.7732 1.79041 18.1431 0 12.9991 0C7.85609 0 3.22671 1.78985 0 4.64593C0.23011 7.24285 0.976256 21.102 0.976256 21.102L12.9129 31L24.9477 21.0805ZM12.9155 29.2588L23.6492 20.4117C23.6702 20.0319 23.7006 19.4857 23.738 18.8196C23.8129 17.4865 23.9159 15.6727 24.0285 13.75C24.2272 10.357 24.457 7.27244 24.6144 5.23192C21.675 2.85325 17.5756 1.34783 12.9991 1.34783C8.4224 1.34783 4.32278 2.8535 1.38329 5.23261C1.51251 7.03095 1.72068 10.0349 1.90574 13.4368C2.01346 15.4169 2.11396 17.3157 2.18754 18.7193C2.22433 19.4211 2.25439 19.9992 2.27525 20.4019L2.27709 20.4373L12.9155 29.2588Z" transform="translate(0.515625)" fill="#9BC3D4"/>
</svg>
