<svg width="192" height="192" viewBox="0 0 48 48" fill="none" xmlns="http://www.w3.org/2000/svg"><path d="M12.138 13.42l-.107-.078.009-.04.011-.016v-.04l-.01-.029.005-.06.069.044.006.018.047.031.007.06-.006.036-.031.074zm-.62 8.564l-.022.07-.009.035-.003.083.002.037.017.096.018.058.023.034.028.026.029.012.055-.012.055-.035.06.024.053.008.104-.035.011.008-.018.04-.003.058.02.043.025-.001.025.007-.008.027.068.073.062.052-.014.015-.04-.024-.02.008.005.041L12 22.72l-.02.025.002.038.005.036v.026l-.034.01-.02.02.079.042.11.036.03.014.042.037.02.01.001-.024.009-.02.05.045.043.008h.043l.103-.018.005.012v.024l.02.018.026-.007.008-.017.033.023.006-.02.007-.009.067.068.015-.003.014-.019-.033-.05-.019-.01-.017-.026.029-.014.028.003.014.023.012.03.006.006.114.041.023-.011.004-.022.043-.018.04-.048-.015-.027-.017-.019-.096-.06-.04-.037-.1-.13-.095-.176-.051-.12-.048-.136-.015-.07-.017-.066-.04-.05.018-.06.006-.071.021-.058.006-.03-.028-.072-.002-.05-.007-.024v-.044l.013-.029-.003-.037.009-.02.04-.02.02-.057.004-.04v-.035l.023-.019h.06l.01-.014.01-.033.006-.046-.006-.063.005-.04.033-.065.015-.02.007-.051-.018-.02-.05-.026-.08-.01-.107-.032-.046-.04-.041-.022-.032-.004-.029.015-.08.058-.029.015-.025.004-.052-.019-.026.005-.027.027-.028.018-.036.011-.024.034-.012.03-.002.035.01.075.003.03.028.046-.027.01-.027-.007h-.025l-.026.01-.023.02-.053.067-.007.019-.005.025.017.026.018.017.054.011-.018.04-.003.021.009.033-.027.053-.008.036-.002.036-.01.042-.009.028-.008.013-.028.024-.013.043-.017.034-.019.018-.042-.001-.042-.017-.018.009-.035.032-.017.022zm.223-8.256l.013.015.007.017.05.008.153-.017.03-.052.03-.008.016-.056-.084-.077-.032-.06-.004-.051-.033-.015-.076.015-.032.077-.008.041-.024.03-.07.03-.013.017.03.07.047.016zm.728-1.443l.109-.055.04.07.033.005.036-.035.035-.062.078.092.067.066.073-.052.033-.043.023-.089-.023-.075-.013-.102.118-.03.044-.05-.029-.072-.096-.031-.036-.036-.012-.064-.021-.03-.06.035-.021.012-.063-.01-.027.05-.059.139-.072.057-.057.132-.086-.041-.072.028.024.13.034.06zm-.308.606l.036.005.02.027.01.039.104-.02.097.072.04.096.039.013.099-.007.115-.045.175-.134.026-.054-.029-.04-.15-.14-.101-.128-.07-.047-.16.014-.173-.146-.02.004-.049.193-.011.124-.03.003-.044.044.004.087.072.04zm.824-1.412l.076-.032.244-.072v-.036l.011-.074-.033-.048-.259.044-.034.051-.01.082-.008.042.003.019.01.024zm-2.039 1.806l-.106.01-.037-.07-.014-.016-.023.01-.022.026-.072.021-.055.04-.058.08-.174.205.021.06.025.028.033.075.06.004.021-.012.024-.057.045-.022.058.009.019.037-.058.085-.021.054.024.042.046-.01.02-.015.016-.031.017-.014.05.05.018-.02.015-.066.006-.034.006-.017.05.047.021.008.02-.01.007-.062-.004-.048-.007-.033-.009-.015-.053-.02-.003-.013.03-.076.02-.022.159-.01.047-.07-.01-.066.022-.036.1-.043.156-.019.043-.091.128-.122-.026-.078-.031-.005-.123-.216-.027-.036-.085.005-.035-.024-.036.005-.141.087-.06.065-.023.161.01.082-.001.141-.023.062zm.304-.84l.025.059.022.006.032-.01.008-.036.036-.056-.016-.065-.037-.03-.029.001-.016.018-.003.02-.01.029-.022.005.002.03.008.028zm-.335 11.38l-.025.01-.049.04-.05.06-.021.052-.006.057-.003.058v.037l.003.037.005.027.028.09.052.047.056-.006.062-.023.103-.053.049-.075.018-.053.04-.048.011.019.005.04.013-.008.015-.026-.005-.064-.022-.048-.04-.035-.176-.135h-.063zm-.818-10.604l.057.034.076-.047.012.041.008.082.02.053.054-.015.03-.026.026-.094.012-.03h.077l.03-.068.013-.009.024.013.026-.1.022-.02.02-.078.025-.034.016.013.061.129.134.056.013-.005v-.124l-.031-.09-.023-.04-.024-.019-.023-.007-.079.016-.105-.06h-.02l-.077.058-.05.087-.109.03-.276.121-.05.06.055.018.056.055zm1.306.877l.081.015.001-.015-.006-.017-.019-.038-.019-.026-.001-.026.004-.052-.073-.063-.06.063-.047.018-.087.075.083.076.143-.01zm-.236-.194l.005-.048.057-.087-.002-.018-.014-.047-.084-.016-.075.1.007.03.088.104.018-.018zm3-1.281l-.067.109-.052.06-.017.047.055.087.056.074.043.022.042-.004.27-.08.103-.095.101-.166-.015-.056-.003-.06.005-.074-.016-.06-.032-.074-.033-.039-.052-.043-.052-.002-.06.036-.013.048-.01.058-.01.107-.017.057-.055.026h-.055l-.115.022zm-1.697 1.24l.02.023.09.015.18.007.022-.032-.002-.061.01-.076.002-.172-.01-.047-.031-.022-.055.004-.012.046-.145-.015-.008.03.005.162-.016.056-.05.081zm-.121-.17l.065-.065-.01-.04-.019-.022-.026-.01-.034.041-.026.055.016.04.034.001zm.896-1.57l.05-.02.014-.03-.022-.065-.047-.05-.045.01-.056.049-.006.036.025.037.087.034zm-.208.306l-.02-.03-.013-.007-.09.133-.056-.023-.046.045.044.153.08.04.043.141.08.042.082-.004.05-.017.016-.077-.007-.099-.02-.053-.012-.087-.032-.076-.026-.031-.073-.05zm.256.709l-.004.065.004.074.01.023.069.106.057-.021.087-.07.102.086.076.023.053-.123.072-.043.02-.074.02-.022.07-.023.009-.097.018-.068.008-.094-.014-.06-.015-.047-.058-.03-.058-.01-.065.046-.113.053-.078.033-.047.004-.01-.053-.032-.017-.087.019-.028.03-.01.048-.013.025-.025.08-.018.137zm.076 10.544l.02.01.02.008.025-.001.024-.014.044.02.025-.019.026-.007.009-.046v-.063l-.006-.034-.013-.02-.051-.04-.05-.06-.073-.062-.025-.036-.024-.043-.026-.036-.051-.053-.01-.017-.009-.003-.049.023-.026.052-.015.006-.022.023-.01.036.021.077.01.018.006.03.01.025.063.109.012.006.018-.019.014-.007.028.016.026.005.028.017.018.052v.035l.013.012zm1.277-5.585l-.029.003-.028.012-.056.059-.056.048-.215.069-.127.072-.044-.008-.071.014-.054-.01-.103-.05-.05-.007-.085.016-.01.008-.028.04v.064l.004.049-.013.03-.012.017-.033.003-.016-.035-.029-.004-.075.012-.037.029-.018.08-.059.038-.1.038-.054.032-.027.002-.026.016-.052.075-.054.055-.083.054.004.042.004.025-.07.082-.018.049-.018.092-.005.014-.07-.03-.05-.01-.022.008-.034.022-.008.022.005.047.01.031-.07.136-.019.001-.022-.039-.023-.024-.029-.02-.03-.008-.025.024-.026.04.003.032.01.03.03.05.079-.01.02.038.016.014-.064.054-.07.092-.058.125-.018.026.006.033.012.03.02.014.046-.001.043.04-.013.014-.152.04-.018.014-.073.203-.023.05-.02.029-.023.053-.021.064-.008.007-.05.013-.05.043-.048.054-.026.018-.02.03.017.057.084.13-.016.051.038.108.061-.056.047-.026.055-.003.063.05.061.03.112.009.044.026.047.014.046-.006.076-.051.04-.114.074-.088.02-.04-.019-.075-.04-.058.005-.02.031.011.036.043.013.006.022-.001.02-.03.007-.039-.005-.04-.017-.065-.002-.034.155-.1.04-.085.011-.054-.005-.034-.019-.082-.014-.037.008-.03.09.031.026-.02.014-.02.01-.039.003-.052.006-.049.013-.024.082.07.018.003.018-.023.004-.025-.008-.028.002-.045.054.001.023-.01.033-.036.018-.037.031-.035.015-.026-.011-.038-.05-.022.01-.034.045-.043.013-.004.028.004.015-.012.025-.04.024-.048.05-.054.022-.054.025-.032.03.004.03-.009.103-.1.225-.14.062-.026.08-.063.027-.003.11-.045.111-.066.105-.05.096-.063.152-.077.087-.062.054-.024.053-.035.055-.053.092-.075.092-.047.013-.029.077-.136.079-.126-.01-.038.008-.05.011-.05-.007-.054-.008-.03-.04-.084-.05-.065-.107-.06-.084-.022-.027.004-.062.046-.1.042-.111.107-.065.077-.024.06-.022.076-.025.035h-.027l-.025.012-.05.05-.026.019zm-1.866-4.78l-.014.036.016.033.024.07.006.039v.056l.016.188.011.05.014.026.094.048.036-.026.047-.102.022-.007.007-.064v-.07l.025-.03.197-.034-.032-.064-.033-.039-.113-.07-.22-.014-.102-.027zm.862-.639l.072-.03.076-.092.022-.06-.025-.081-.2.024-.1.108-.017.027-.004.022.06.043.116.04zm.392-1.12l.01.023.07.04.149.02.028-.021.03-.066-.003-.023-.014-.038-.21-.052-.117.02-.04.045.093.033.004.02zm-.83 2.468l.042.028.015.022.008.02.03.014.082-.044.05-.053-.024-.12-.06-.05-.124.089-.013.016-.006.078zM4.887 31.5l.028-.084-.001-.014-.02-.023-.026-.017-.013-.037-.051-.002-.048.002-.015-.002-.046-.015-.044-.024-.029-.015-.025-.016-.013-.017-.021.005h-.014l-.003.064-.008.071-.044.014-.025-.003-.026-.016-.022-.003-.02-.011.061-.083.023-.04-.013-.003-.013.023-.038.053-.037.045-.028.018-.066-.003-.031.015-.005.037-.002.033-.02.047-.023.037-.035.035.009.005.064.005.066.005.104.006.11.006.113.006.123.007.13.004.007-.003-.01-.02-.01-.035.001-.028.006-.03zm7.005-8.833l-.003-.04-.012-.02-.015.003-.019-.04-.02-.054-.03-.026-.01-.002-.003.01.003.025-.026-.02-.024-.002-.05.021-.013.024.002.03.01.01.03.023.029-.008.043.05.012.049.01.021.027.023.013.03.004.032.022-.01-.003-.012-.013-.023.005-.025.03-.069zm10.193-8.893l-.107.022-.162.067-.032-.008-.026.018-.07-.018-.083.006-.024.045-.012.042-.013.016-.068-.091-.01.01-.03.075-.021.032-.086.094-.02.151-.05.098-.045.072-.101.093-.077.177.046.048.048-.006.064.015.106.063.021.121.04.113.03.033.004.065.004.017.032.05.053.043.026.004.07-.062.021.002.04.107.021.013.127-.018.019.016.087.022.014.026.014.037.073.081.07.05h.03l.05.02.035-.012.052.031.03.009.094-.037.142-.02.023-.022.09-.134-.008-.055-.019-.112-.015-.014-.053-.029-.046-.122-.063-.083.014-.016.014-.001.051.04.034-.002.033-.06.01-.079-.004-.1.004-.037.006-.03.005-.069.003-.08.005-.032.008-.02.017-.092.034-.052-.027-.096-.029-.066-.021-.03-.044-.028-.014-.04-.024-.021-.017-.041-.099-.04-.062-.01-.015.013-.013.047.006.076-.034.093-.018.013-.048-.036-.044.065-.034.095-.017.028-.014-.019.009-.1.03-.062.011-.082.023-.064.025-.026-.026-.099-.053-.087-.02-.014zm-.229 4.602l.006-.043-.019-.014-.06-.027-.027.033-.084-.022-.044.044-.05-.039-.013.027-.002.047.084.02.038.034.06.005.045.033.012-.055v-.034l.03-.022.024.013zm.066-.134l-.01.01v.021l-.021.066v.05l.003.012.01.007.013-.01.028-.038.018-.065-.002-.013-.013-.028-.026-.012zm.704-3.797l-.006.092.05-.016.039-.074-.037-.018-.017-.023-.025.015-.004.024zm-.604 3.458l.007.062.02.04.024.006.013-.016-.048-.11-.016.018zm2.362-.673l-.025-.019h-.028l-.022.063.008.05h.026l.06-.028-.003-.034-.008-.021-.008-.011zM22.7 15.752l-.001.069-.01.045-.012.038-.01.04-.014.106-.01.048-.077.123-.03.063-.025.11-.035.051.024.043.025.028.079.022.054-.02.106-.083.114-.11.038-.056.112-.003.112-.012.1-.023.014.027.014.013.014.003.047-.079.165-.003.133-.09.05-.016.052.011.02-.015.11-.173.008-.112-.008-.087-.012-.08-.012-.057-.014-.048-.03-.03-.03-.013-.057.024-.042-.055.006-.053-.006-.05-.01-.017-.073-.044-.02-.062-.018-.075-.029-.033-.029-.001-.055.03-.054.068-.028.019h-.029l-.024.052-.022.08-.037.096-.04.044.008-.05.068-.284.01-.088.022-.098.013-.022.026-.014.01-.021-.013-.042-.058-.077-.088-.053-.028.004-.014.022-.01.05v.078l.017.072-.029.005-.028-.014-.021-.061-.02-.075-.015-.002-.027.013-.012.014-.008.048-.003.074-.053.028-.027.036-.01.06-.023.042.004.033-.009.091-.015.021-.015.033-.008.067-.002.034.01.104.013.03-.019.006-.058-.017-.024.011-.023.043-.03.089-.005.057zm1.38.5l.046-.044.008-.02.04-.004h.009v-.034l-.007-.026-.011-.023-.043-.004-.024.079-.067.009-.008.051.03.025.027-.009zm-2.91-2l.046-.117-.074-.05-.204-.075-.096-.066-.097-.01-.075.004-.045.026-.036.067.012.103.058.093.07.06.108.14.066.013.056-.013.056-.025.052-.044.053-.062.05-.043zm-1.587 5.423l.054.016.02-.028.025-.071-.016-.039-.012-.008-.06.026-.02-.017-.011-.01-.023.024-.04.025-.017.041.03.039.07.002zm13.32 14.023l-.018-.024-.04-.04-.021-.048-.016-.047-.007-.044-.01-.042-.013-.04-.021-.086-.054-.142-.018-.083-.046-.277-.01-.011-.005-.009v-.038l-.004-.027-.008-.018-.022-.024-.005-.019-.001-.042-.01-.04-.014-.037-.008-.053.004-.102.006-.036.015-.014.007-.02.006-.032.002-.034-.002-.103-.008-.067-.006-.032-.009-.031-.03-.077-.04-.121.004-.007-.005-.027.003-.03.01-.03.004-.023-.002-.022-.05-.102-.015-.01-.007.024-.011.022-.015.01h-.05l.03.053.047.072.009.03-.006.031-.009.032.01.002-.002.023-.029.008-.01.026.017.02-.013.036-.023.014-.012.003h-.012l-.032-.032-.009-.005-.04.016-.026.026-.007.02.004.08.008.038-.005.096-.011.093-.013.039-.015.037-.005.033.001.13.012.034.02.022-.008.014-.011.006.011.017.023.023.03.041.02.035.027.078v.084l-.014.04-.01.043-.009.055.002.042.016.075.002.036-.002.236-.008.047-.01.047-.01.084-.01.038-.025.08.001.017.006.017.03.063.025.066.01.098-.007.04-.017.032-.014.038-.012.04v.014l.005.069.007.036.005.036-.006.038-.033.116-.009.083.02.096.003.028.008.025.012.018.014.015.017-.028.013-.03.022-.092.01-.035.014-.032.016-.031.023-.02.013-.005.013.002.013.014.011.017.008.005.05.005.054.011.016.028.004.04.011.047.003.066.008-.014.004-.016.002-.02.004-.019.016-.044v-.016l-.009-.057-.012-.061-.01-.014-.014-.005h-.015l-.023.004-.01-.017-.02-.054-.019-.077-.015-.035-.008-.013-.01-.01-.014-.01-.012-.012-.018-.03-.02-.05-.006-.02-.002-.051.006-.066.018-.062.074-.239.012-.067.018-.034.03-.023.034-.01.08-.008.02.002.034.011.019.01.018.015.036.05.03.03.028.033.02.028.011.049.01.014-.002-.064-.005-.018zM19.128 20.075l.01-.053.027-.05-.044.003-.032.02-.035.031.01.022.064.027zm-.299.312l.01-.01.01.003.012-.02.016-.015-.024-.029-.084-.025-.056.02-.02.032.078.014.058.03zm1.89-6.754l.058.029.046.036.025.061.184.107.15.126h.05l.105-.09.054-.07.022.005.07-.038.205-.036.303-.09.028-.044.027-.07-.03-.028-.008-.029-.031-.19-.01-.033-.01-.022.02-.114.024-.055.102-.038.02-.03.024.001.003-.095-.008-.052-.03-.042-.066-.023-.152-.173-.014-.055-.03-.054-.008-.07-.013-.035-.065-.13-.026-.014-.02-.029-.02-.076-.023-.03-.147.014-.023.129-.051.074-.052.038-.054.011-.054.028-.058.047-.058.03h-.032l-.032.01-.067.066-.03.094-.04.05-.012.03-.023.093-.004.043.042.018.112-.034-.064.13-.036.123-.057.123-.076.049-.08.03-.048.085-.038.085.026.124zm3.394 2.696l.135.05.078-.003.032.047.029-.028.02-.056-.028-.063-.015-.004-.212.025-.039.032zm-2.465 1.23l.019.032.02.016.055-.029.027.011.01-.016.007-.02.032-.047.032-.062v-.026l-.008-.055-.155.115-.1.043-.034.04.022.008.073-.01zm-1.31-5.159l.286.076.079-.118-.02-.066-.085-.024-.24-.022-.038.066.004.034.013.054zm10.558 6.758l.017-.027-.013-.045.004-.034.043-.079-.01-.019-.05-.065-.014-.034-.014-.066-.02-.045-.02.076-.008.054-.004.07.008.057-.016.076-.012.03-.005.07.068.007.046-.026zm.243.163l.049.103.053.064.027.012.027.03.053.124.02.04.02.027.178.087.027.024.027.015.027-.003.025-.024.024-.056.019-.08.008-.06.013-.037.018-.017h.017l.058.063.06.043.044-.008.046-.023.149-.038.05-.022.05-.032.055-.008.026.037.02.046.023.045.021.02.022.007.035-.015.035-.028.08-.093-.045-.084-.054-.037-.018-.028-.081-.197-.015-.044-.011-.06-.015-.193.05-.03.057-.028.09.007.013.051-.003.026-.028.058-.03.026-.008.09.007.105.02.065.024.046.057.093.052.031h.053l.09.035.045-.013.044-.04.11-.154-.016-.051-.02-.038.017-.048.05-.07.078-.038-.012-.031-.012-.02-.36-.267-.03.003-.057.037-.029.008-.059-.013-.06-.035-.047-.039-.106-.136-.06-.063-.058-.03-.043.073-.061.073-.011.024-.008.036-.006.059v.065l.004.048v.047l-.012.046-.017.02-.036-.003-.013-.01-.013-.018-.011-.025-.025-.102-.026-.025-.028.012-.024-.019-.07-.12-.05-.059-.072-.066-.024-.027-.02-.051-.023-.036-.025-.003-.088.069-.051.014-.026.034-.013.033-.014.019-.046.012-.035.027-.015.032-.013.044.021.084.026.06-.08-.02-.02.03-.013.186.017.194-.028.002-.042-.018-.009.037.004.052.01.033zm5.431 3.603l.016-.013-.017-.043-.019-.03-.027-.007-.001.009-.001.051.015.023.034.01zm-2.63-5.008l.016-.072.031-.036-.157.037-.063.071-.011.03.172-.012.013-.018zm-.523 1.564l.05.059.027.012.084.024.027.024.053.068.027.028.047.023.173.025h.126l.055-.02.114-.065.057-.047.015-.023.04-.194-.015-.006-.015.007-.018.032-.019.019-.026-.032-.031-.027-.04-.051-.106-.024-.13-.016-.043.032-.07-.008-.026-.034.003-.034.007-.025-.002-.048-.017-.024-.215-.026-.013.003-.088.069-.06-.006-.011-.055v-.077l-.049-.067-.022.022-.022.073-.02.082-.016.092-.009.09.128.078.05.047zm1.37-1.006l-.006-.041-.006-.022-.008-.01-.036.02-.02.031.053.057.022-.035zm5.95 4.438l.016-.003.066-.04.114-.012.054-.056.027-.013.061.016.052.035.021.003.06-.015.144-.054.107-.02.055-.019.069-.072.006-.038-.008-.033-.012-.013-.053-.043-.037-.038-.018-.035-.018-.02-.019-.012-.032-.036-.02-.009-.1-.026-.027-.013-.027-.002-.033.018-.034.004-.033-.011-.033.003-.035.02-.036.01-.026.01-.04.043-.038.014-.071.091-.08.069-.014.039-.033.052-.013.043.005.034.033.129zm-4.058 1.123l.002.058.011.019.042.024.022.032-.001.02-.008.044.01-.001.01-.018.002-.027-.005-.031-.024-.06-.003-.058-.002-.066-.005-.05.006-.03.038-.016.016-.043.002-.062-.023-.028-.003-.004-.022.03-.02.037-.049.048-.006.043.019.048-.009.091zm1.577-.39l.035.043.047.033.13.063.066-.006.01-.014.004-.019.008-.072.008-.024.02-.006.003-.036-.003-.017-.01-.018-.234-.092-.037.005-.031.024-.045.05-.012.02-.006.025.008.011.04.03zm-12.825-5.599l.033.012.022.055.032.034.01-.003.002-.03.007-.017.01-.01-.006-.044-.036-.07-.019-.023-.026.026-.062-.015-.01.007.008.024.035.054zm5.35 2.22l.043.051.019.053.077.112.016.038.017-.025.015-.06-.051-.091-.094-.113-.056-.029.004.045.01.02zm-2.518.285l.014-.002.025-.032-.004-.01-.02-.029-.027-.008-.022.013v.015l.007.03.027.023zm3.492.354l.023.058h.032l.023-.005.084-.06.062-.015.021.005.099.047.095.065.121.024.05.024h.056l.058.006.081.02.06-.009.009-.012-.007-.175-.012-.052-.015-.04-.162-.197-.047-.04-.057-.039-.059-.016-.057.01-.085.027-.028-.004-.024.009-.023.03-.023.045-.043.125-.024.054-.049.068-.052.02-.053.008-.054.02zm-4.52.312l.058-.036-.005-.015-.037-.04-.026-.009-.046.01-.028.026.035.064h.049zm4.686-.729l.022.003.116-.07.008-.043.012-.101-.004-.036-.01-.03-.021-.018-.022-.008-.102.006-.024.008-.025.018-.02.046.018.154.052.071zm-13.306-.132l.031.017.022-.03-.005-.017-.018-.032-.019-.012-.033.011-.012.016.012.027.022.02zm12.71 1.994l-.122.006-.027.017-.008.001-.011.01-.005.01.004.02.043.035.018-.004.013-.012.013-.005.012.007.023.03.023.008.057-.063-.006-.026-.017-.03-.01-.003zm-11.143-4.964l.05-.005.034-.07.003-.028-.014-.033-.077.01-.019.032-.013.049.008.018.028.027zM37.909 31.37l-.018-.023-.035-.066-.005-.031.011-.03-.015-.004-.064-.012-.023.019-.019.005.056.043.017.023.004.024.008.02.025.038.022.03.013.01.02.005.012.024.029.03.001-.06-.017-.027-.022-.018zm-2.726 2.144v.031l.023.01.022-.016.005-.013-.006-.044.018-.035.004-.023-.017-.007-.049.097zm-.36.564l-.014.025.005.005.011.002.01-.02-.004-.016-.007.004zm.68-1.07l-.028.028-.025.075-.022.03-.056.012-.025.028-.025-.002-.005.012.01.02v.043l.012.012.024.007.012-.013.016-.025.02-.011.043-.01.03-.036.028-.056.013-.04.005-.041-.006-.038-.022.006zm.085-.039l-.037.03-.01.02.006.01.03.023.009.002.009-.008.018-.035v-.034l-.007-.007h-.018zm-17.18-13.737l.018.039.01.008.037-.034.01.05.017.015.017-.088.03.002.01-.01-.004-.035-.008-.03-.002-.09-.033.001-.025.015v.036l.003.047-.02.002-.029-.041-.049.078.008.027.01.008zM35.4 32.989l.021-.004.002-.01-.003-.023-.016-.01-.024.008.004.017.007.012.01.01zm-.778 1.329l-.029.033-.04.05-.034.006.002.008.006.014h.015l.042-.038.066-.084h-.012l-.016.01zm.45-.632l-.008.026-.022.02.002.007.01.006.008-.018.028-.024.006-.013-.007-.005h-.017zm-1.855 1.863l-.005.004.001.005.003-.001.006-.004.004-.003.003-.003-.003-.003-.009.005zm.066-.07l-.006-.001-.006.004-.002.003.003.002.01.001.006-.001-.002-.007h-.003zm-.03-.278l-.021-.001-.04.075-.011.008-.01.018-.017.021-.006.019-.019.024-.047.042-.008.02.003.023.027.024.007-.059.041-.031.028-.035.006-.019.046-.046.014-.008.028-.004.032-.031h.019l.012-.021-.05.005-.033-.024zm-.063.34h-.004l-.004.001-.003-.002h-.003v.003l.003.002v.004l.003.004h.003l.005-.002h.003v-.006l-.003-.004zm.665-.66v-.01l-.003-.008-.01-.005-.014.002-.022.012-.066.068-.045.008-.017-.002-.021-.038-.01-.002-.011.028.003.025-.027.011-.025.033-.023.01-.03.04-.042.029-.021.03-.003.034-.038.032-.01.018-.008.035.046-.041.025-.008.024-.04.058-.053.01-.017.003-.02.009-.01.029.006.03-.01.02-.027.06-.05.034-.01.043-.023.044-.002.01-.013-.007-.017.005-.014zm.34-.251l-.079.06-.038.05-.03.012-.05.083.02.001.035-.017.045-.048.016-.013.024-.01.031-.027.01-.027.073-.067-.047-.002-.01.005zm-.8.78l-.046.015-.002.006-.001.018.017.008.007-.009.042-.02-.003-.008-.014-.01zm.883-5.868l-.017.029-.028.02v.008l.009.013.018-.005.032-.035-.004-.013-.01-.017zm3.194-.028l-.013-.003-.072.06-.102.037.002.02.004.02-.014.06-.034.07-.034.029v.015l.004.01.006.006.037-.042.075-.064.073-.043.078-.021.01-.04-.007-.064-.013-.05zM17.163 14.567l.07.043.04.002.003.066.037.005.18-.016-.01-.03-.043-.041-.205-.113-.022.036-.029-.047-.023-.017-.022.026.005.025.019.06zm-.004 6.231l-.013.026.035.04.098.03.022-.006-.116-.09h-.026zm-.072.08l.018-.02.034-.056-.003-.008-.025-.012-.083.028-.044.052-.007.038.036-.02.074-.003zm-.32.45l.036.021.011.014.006-.008.008-.027-.008-.018-.003-.032.022-.051.05-.024-.054-.037-.03-.012-.043-.007-.049.018-.012.028-.01.043.018.037.059.055zm1.072-8.474l.213-.054.073-.03.007-.021.012-.068-.034-.033-.109-.038-.135.022-.024.055-.03.113.006.02.02.034zm-2.063 8.354l.042.01.018-.004.068-.038.049-.02.107-.035.063-.009v-.041l-.009-.048-.033-.049-.021-.025-.028-.062-.02-.025-.028-.022-.019-.009-.136.031-.046.027-.035.07.005.112-.007.045-.013.035-.002.034.027.038.018-.015zm2.013.245l.126.032.016-.009.009-.038v-.12l-.029-.051-.013-.045-.044-.045-.116.163-.006.033.013.038.044.041zM38.23 31.476l-.04-.032-.027-.011-.018-.025h-.016l.01.026.044.04.093.075-.01-.021-.036-.052zM17.444 21.6l-.027.062-.026.037-.056.058-.008.037.008.016.055.012.112-.007.034-.014.052-.065.034-.02.049-.05-.003-.018-.017-.038-.122-.062h-.04l-.045.052zm13.693 9.711l-.046.035-.019.022.012.004.031-.006.016.015.02-.001.028-.072-.005-.003-.018.007h-.02zm.238.017l-.021-.017-.007-.007-.077-.036-.007.014-.025.061-.012.006-.025.046-.01.04h.01l.043-.033.014.02.032.07.013-.004.016-.014.018-.022.021-.016.007-.013.006-.032.019-.037.025-.018-.008-.01-.032.002zm11.987-5.392l-.026-.012-.081-.004.012-.018-.005-.021-.008-.02-.012-.014-.014-.002-.028.012-.028.017.014-.025.016-.017-.008-.014-.01-.008-.086-.102-.051-.037-.049-.05-.048-.085-.052-.068-.054-.025-.056.005-.04-.016-.04-.022-.088-.023.001.02.097.033.014.015-.007.014-.02.003-.075-.01-.022-.009-.02-.026-.01.003-.009.016.003.034.01.028-.02.015-.02-.007v-.035l.005-.027.023-.049.013-.01.002-.01-.077-.022-.021-.017-.021-.007-.047.023-.13.002-.023.008-.001.016.008.009.02.007.02-.002.014.024.03.011.015.024.01.04.006.03.003.029-.013.053-.018.022-.021.012.008.03.022.024.041.011.018.02.016.032-.013.04-.016.033-.013.014-.009.024-.007.01h-.009l.011-.09-.015-.054-.028.013-.012.014-.025.047-.006.002-.006-.016-.008-.034-.006-.037-.005-.027-.026-.028-.014-.01-.043-.007-.014-.006.012-.06.023-.036-.003-.08-.01-.026-.013-.024-.012-.056.001-.067.014-.04.005-.049-.016-.036-.02-.018-.014.015-.013.022-.007.007-.05.005.032-.055-.002-.046-.006-.028-.01-.022-.008-.047-.359-.277-.06-.035-.03-.03-.025-.015-.026.006-.015.008-.012-.011.01-.026.016-.008-.036-.044-.13-.115-.028-.015.02.03.097.09.015.026-.029.033-.03.014.008-.037-.007-.042-.011-.024-.034-.027-.053-.022-.05-.029-.01-.03-.003-.044.031.037.017.012-.034-.058-.042-.052-.093-.046-.018-.018-.026-.039-.01-.003-.019.007-.047-.023-.046-.028-.03-.019-.137-.164-.074-.024-.006-.02-.004-.024-.013-.017-.093-.044-.117-.029-.124-.078-.108-.024-.118-.083-.07-.063-.043-.024-.039-.006-.104.03-.117.003-.108-.018-.085.006-.05-.012-.067-.039-.02.016-.017.07-.05-.03-.044-.037-.07-.033-.136-.022-.166-.053-.087-.014-.088-.008.01.118-.006.056-.033.072-.036.046-.01.039.097.029.03.131.04.084.025.086v.059l-.105.144-.108.018-.105.008-.045-.088-.024-.105-.084-.055-.082-.044-.038-.007-.027-.021-.017-.118-.018-.088-.024-.033-.022-.05-.022-.02-.052-.008-.128.127-.043.037h-.015l-.193-.032-.05-.026-.287-.016-.08-.075-.05-.011-.055.023-.048.005-.068-.014-.059.022-.13.023-.049.025-.05.045-.094.111-.013.054v.065l.02.091v.105l-.017.036-.03.018-.03.11-.03.06-.057.015.033-.045.03-.03.049-.164-.008-.05-.038-.038-.025-.04-.012-.156-.012-.084-.004-.1-.04-.033-.142-.05-.066-.038-.023-.058.025-.083-.002-.063.013-.054.022-.043.005-.062-.01-.08-.011-.058-.025-.07-.018-.032-.086-.101-.15-.104-.152-.076-.136-.025-.175-.014-.181-.002-.069.042-.13.003-.141.043-.143.069h-.076l-.152.032H34.7l-.172-.106.055-.015.021-.015-.076-.142-.04-.05-.101-.065-.041-.005-.034.013-.133.07-.033.03.066-.082.032-.035.033-.051-.008-.033-.008-.016-.123.007-.008-.007-.026-.045-.013-.015-.083-.047-.06-.018-.061-.002-.01-.018.007-.022.002-.015.02-.024.052-.023.138-.013.032-.04-.005-.042-.008-.032-.045-.076-.06-.056-.124-.068-.13-.046-.222-.023-.04.01-.03.028-.053.073-.122.212-.067.086-.062.047-.141.038-.026-.009-.02-.034.006-.03.013-.029.001-.018-.007-.035.004-.02h.014l.034.025.03.003.081-.039v-.06l-.021-.036.01-.085v-.022l.012-.015.009.003.058.061.02-.003.02.007-.05.147h.024l.066-.069.046-.067.047-.088.006-.045-.055-.006-.357.033-.13.066-.04-.014-.03-.05.044-.006.052-.031.044-.06.028-.01.072.002.059.024.176.01.004-.073-.039-.022-.085-.02-.052-.036-.066-.022-.145-.031-.06-.027-.144-.024-.038-.02-.334-.017-.124-.055-.049-.055-.115-.026h-.023l-.007.015-.005.023.073.1.003.07.022.034-.086.053-.059.02-.195-.002-.03.023-.076.107.001.05.008.079h.058l.017-.034.026-.014.119.012.012.014-.04.023-.038.01-.048.116-.064.036.044.018.04.032-.007.14.056.107.01.049-.08.002-.072.033h-.026l-.047-.083-.051-.055-.026-.004-.033.054-.047-.03-.02.005-.026.022-.016.03-.013.047-.015.025-.002.034.024.015.017.003.05.025-.052.013-.013.016-.005.019-.038.024.013.024.016.02.005.018-.012.007-.033-.022-.034-.033-.053-.067-.024-.044-.046-.042-.163-.115-.072-.037-.047-.008-.075.015-.046.05-.077.021-.048.04-.026.055-.138.006-.095-.04-.06-.043-.068-.086-.067-.112-.008-.01-.008-.023-.012-.055-.014-.041-.021.023-.055.128-.022.063-.03.118-.022.1-.003.042.01.036-.029.03-.032.074-.047.145-.03.053-.038.045-.025.017-.031-.003-.029-.041-.015-.095-.017-.02-.02.054-.03-.003-.06-.04-.058-.085-.06-.04-.086-.21-.038-.077-.02-.063-.05-.006-.018-.047.025-.033.065-.028.052.004-.039-.083-.018-.051-.02-.028.007.057-.009.04-.018.033-.029.02-.127-.253-.076-.125-.043-.045-.026-.082.018-.016.09.097.064.05.105.128.08-.01.03-.057v-.116l-.03-.095-.038-.038-.13-.008-.03-.03.02-.01.03-.002.04-.029.07-.072.03-.022-.004-.056-.049-.078-.079-.01-.017-.008.032-.038.027-.024.046-.059.01-.054-.009.004-.034-.003-.01-.023.005-.042-.036-.035-.033-.024-.076-.004.002-.027.003-.025-.032-.018-.026-.031-.007-.03-.01-.016-.049-.03-.163-.054-.017.016-.027.078-.066.082-.05-.045-.01-.004-.008-.021.012-.037.009-.035-.011-.025-.01-.01-.034.026-.05.016-.022.024-.045.018.005-.061-.189-.16-.059-.033-.035-.003-.084.035-.02.02-.032.052-.07-.033-.017.025-.026.087.005.085.007.023.007.046.027.07.027.056-.011.013-.012.003-.014.024-.013.047-.024.069-.032.037-.037-.008-.088-.05-.02.008-.006.038.053.031.005.02-.014.013-.036.01-.063-.002-.053-.013-.033-.052-.032-.007h-.09l-.083.027-.091-.036-.155.008-.04-.006-.074-.069-.107-.043-.122-.106-.012-.099.018-.08h.069l.041-.014-.005-.031-.01-.017-.096-.043-.262-.008-.187-.064-.266-.023-.12.08-.174.02-.046.042-.08.024.007.059.04.046.018.009.021.018-.013.015-.014.008-.03.036-.018.034.005.073-.009.072-.028.098-.025.044-.022.058.02.053.02.022.055.027.02.018-.012.016-.08-.018-.03-.058-.006-.031-.007-.05.028-.052.028-.037.024-.085.003-.08v-.164l-.049-.037-.027-.057.047-.102.012-.054-.02-.05-.034-.11-.034-.066-.022-.027-.023-.014.024.108-.02.054-.013.022-.091.03-.058.001-.079-.03-.092-.07-.024-.049-.016-.071.053-.032.02-.02-.047-.016-.049-.005-.017.098-.03-.008-.152-.06-.041.02-.05.055-.021.042-.025.069.01.048.01.017.078.012.068-.014.077-.046.017.017.016.025-.022.035-.079.05-.132.13-.05.016-.07-.028-.038.073-.017.018-.119.049-.051.007-.015.036-.031.007-.034.018-.058.051-.088.008-.06-.011-.144.03-.038.028-.024.037-.011.047-.022.042-.082.091-.07.038-.06.01.057-.051.066-.095.117-.284.113-.019.026-.038.086-.177.024-.026.113-.003.1-.058.201-.288.1-.048.07-.07.011-.034.011-.046-.01-.027-.006-.026.089-.05.034-.076.119-.073.093-.098.13-.073.075-.102.169-.147.158-.256.026-.148-.039-.048-.046-.03-.026-.074-.02-.008-.046.046-.052-.158-.064-.09.003-.012.007-.006.03.014.115.131.06.02.019.02.01.033-.006.055.018-.004.012-.023.03-.107.028-.145-.003-.064-.068.03-.03-.216-.015-.066-.022-.072-.042-.006-.023.018.018.024.02.04-.014.041-.01.019-.053.054-.037.005.015-.023.017-.051-.012-.057-.014-.032-.015-.164-.047-.025-.027-.026-.035.01-.046.044.017-.04.018-.06-.036-.074-.035-.051-.043-.02-.047-.065-.064-.038-.148-.036-.113.047-.14-.038-.168.03h-.066l-.04-.019-.035.02-.018.06-.01.093-.042.048-.023.012-.107-.014-.076.044-.033-.035-.062.003-.006-.079.037.004.021.013.07-.161.057-.095.055-.108-.035-.068-.077-.045-.037.002-.018.02-.084-.037-.044.003-.074.05-.026-.004-.015-.104-.075.008-.256-.01.027-.032.135-.045.11-.067.08-.123.074-.041-.017-.062-.02-.045-.043-.04-.092-.026-.08-.05-.034-.064-.145-.086h-.039l-.104.109-.053-.01-.046.016-.12.13-.25.334-.052.103-.025.077-.045.04-.019.094.003.081.02.043.022.08-.022.09-.018.06.017.026.049-.005.108.05-.02.048-.066-.04-.057.001-.05-.048-.12.046-.089-.01-.082.018-.163-.038-.014.029.037.05.029.047.084.109.036.035.048.103.006.201-.026.048-.03.067-.015.012-.023-.004.037-.047.02-.101.018-.07-.024-.05-.011-.003-.012-.027-.087-.067-.046-.03-.049-.016-.025-.019-.074.062-.034.014-.04.032-.023.044-.057.01-.007.049-.032.047-.034-.051-.034.014-.075.085-.087.04.01-.03.014-.067-.022-.015-.131.077-.044.053-.021-.02.076-.114.02-.071-.035-.03-.078-.024-.05-.003-.074.026-.107-.038-.015.043-.028.006-.065-.02-.06.021-.045.046-.066-.045-.023.002-.036.071-.03-.048-.026.093.007.068.022.007.02-.01.01-.03.015-.015.052.056.016-.03.022-.023.026.034.108-.037-.019.045-.12.057-.218.072-.045.029-.129.024-.084.071h-.109l-.188.056-.136.125-.065-.01-.133.094-.052.073-.191.15-.115-.058-.038.02-.02.053.004.04.047-.003.033.018.042.036-.011.066-.087.146-.041.055-.049.032-.103-.12-.019.053-.014.026-.04-.011-.021.085.074.015.071.038.063.056.045.064.049.04.028.036-.076.034-.054-.078-.029-.027-.032-.005-.05.024-.041.094.04.032.09.03.03.043.117.272.03.027.038.012.016.018-.047.047-.017.043-.04.075-.17.039-.052.028-.014.014-.021.027-.014.025-.007.054.014.036.035.033.136.148-.009.016-.037-.028-.047-.045-.048-.063-.065-.044-.003-.037-.003-.055.002-.017.006-.029.062-.07.062-.035.076-.082.077-.09-.016-.032-.016-.022-.069-.006-.14.032-.085.03-.038.073-.056.011-.029.002-.078-.037-.073.035-.173.03-.028.016-.397.007-.08.015-.203.06-.005.045.008.034-.032.05-.014.047.005.055.002.048.007.063.012.056.03.03.027.019.02.061-.016.071-.023.082-.004.037.014.051.018.101.007.025.062.077.043.024.07.006.047.02.07.047.02.021.006.02.016.082.009.026.075.112.025.017.102.021.033.036.044.108.004.026.005.042-.005.038-.005.022-.017.034-.044.142-.026.126.042.084.056.16.017.067.02.09-.009.057-.01.034-.037.05-.046.018-.05.031.004.039.009.044-.005.033-.007.012-.028.003-.024-.011-.02-.035-.02-.044.014-.048.041-.085.025-.122.007-.082-.002-.086-.01-.058-.032-.043-.03.01-.033.037-.033.144-.044.104-.006.043v.037l-.003.024-.008-.081-.005-.062.025-.077.015-.072-.005-.052-.017-.085.003-.043.005-.027.01-.122.04-.024.098-.094.013-.023.03-.083.013-.03.016-.05-.03-.039-.027-.02-.052-.012-.049.004-.107.039-.096-.007-.035-.023-.15-.17-.01-.064-.012-.027-.014-.007-.052-.042-.12-.054-.122-.123-.215-.01-.06.013-.059.038-.053.077-.025.021-.036.008-.007.027-.007.038.02.027.065-.032.054.017.03.036.02.07-.01.035-.094.054-.052-.005-.113-.123-.043-.022-.104.02-.068.061-.021.013.016.061.026.11.022.066.028.032.1.08.056.027.085.072.051.008.047-.017.07.042.04.132.024.044.022.023.031.013.018.002.02-.017.045-.004-.016.038-.017.012-.095.016-.047-.014-.059-.04-.11-.133-.136-.01-.015.04-.043-.055-.145-.012-.087-.034-.092-.056-.008-.027-.004-.039.032-.048.011-.03.008-.09-.058-.119.006-.11.027-.019.036-.144.022-.047.011-.017.011-.033-.011-.042-.011-.025-.012-.058.002-.044v-.054l-.03-.082-.023-.09-.05-.044h-.048l-.018.012-.018.02.025.082.026.072.012.055.008.101-.002.123-.008.05-.014.041-.043.052-.073.061-.04.03-.086.033-.061.053-.135.3.015.044.05.049.032.041.016.035.035.108.134.299.007.053-.031.094-.062.122-.025.067-.058.258-.004.065.024.061.039.077.013.058-.026.147.014.036.032.02.088-.02.104.035.055-.017.084-.081.033-.009.1.011.149.078.157.105.031.035.043.002.03.177.029.096.012.067.008.076-.03.015-.025.008-.02.02-.03.116-.004.062.016.099.131.046.091.024.065.005.011.011.008.015-.076.007-.14.011-.048-.006-.023-.012-.022-.034-.042-.034-.016-.023-.034-.027.016-.102.003-.237-.005-.099-.029-.081-.086-.118-.03-.079-.034-.053-.033-.008-.048.01-.119.05-.106.025-.126.072-.022.06-.02.154.027.075.028.054.025.092.008.055.002.056-.004.082-.021.045-.139.173-.02.053-.023.148-.021.054-.064.081-.04.033-.212.146-.008.033-.014.103-.059.046-.034.004-.08-.052-.048-.015-.05-.004-.184.015-.082-.035-.065-.05-.066-.015-.05-.04-.012-.037-.012-.05-.01-.025-.008-.013.015-.017.032-.007.12.008.032-.019.016.01.033.045.044.041.037-.007.03-.034h.013l.013.006-.028.026-.029.02-.007.012-.006.027.04.032.038.017.05-.017.029-.034.063-.049.045.003.003-.047-.024-.07-.019-.05.07.013.041-.041.172-.355.081-.068.027-.044.02-.06.005-.069-.01-.074.002-.058.029-.072.046-.087.029-.033-.005-.032-.005-.027-.082-.086-.087-.07-.031-.04-.023-.061-.012-.074v-.049l.007-.15.014-.07-.004-.21-.016-.262-.014-.071.021-.05.021-.04.011-.039.007-.26-.006-.101-.028-.137-.116-.114-.048-.112.004-.04.006-.027.05-.046.034-.065.022-.095.046-.145.012-.051.03-.204.007-.11.006-.164-.041-.042-.043-.037-.08-.03-.039.007-.072-.066-.026-.01-.194.02-.111-.01-.066.016-.034-.002-.022-.01.004-.028.011-.02-.003-.017-.02-.003-.05.02-.08.23-.049.218-.05.293-.032.122-.047.128-.07.1-.097.102-.061.047-.082.049-.034.104-.03.043.012.029.036-.016-.02.073-.022.045.002.026.006.033.028.015.074-.029.015.029.017.042-.008.17-.021.144-.002.053.011.034.01.044-.022.053-.017.018-.033-.006-.022.118-.007.07v.055l.01.034.012.037.009-.029.007-.04.023-.026.128.075.035.036.053.034.015.04.01.123.055.112.043.067.027.026.024.006.037-.025.05.003-.027.087-.045.163-.075.141-.03.022-.05-.057-.064-.047-.034-.024-.02-.042-.113-.114-.034-.078-.056-.012-.078-.037-.012-.008-.064-.05-.063-.027-.018-.036-.047-.028-.047-.018-.068-.046-.03.015.007-.052-.077-.074-.093-.067-.19-.095-.168-.046-.197-.014-.174-.06-.024.003-.022.018-.059.088-.065.026-.024.042.038.09.075.232.045-.023.017.105-.027.06-.04.07-.035.039-.075.019-.061-.005-.007.066.017.061-.004.025-.006.032-.008.017-.008.01-.023.018h-.028l-.067-.031-.049-.029.003-.11.025-.05.018-.01.016-.02-.034-.072-.025-.03-.012-.05v-.023l-.033.002-.13.057-.026.054-.015-.037-.167.162-.073.057-.05-.008-.066-.034-.08-.003-.053-.017-.027.008-.058.04-.059.005-.061.057-.052.068-.015.11-.033.01-.035-.056-.02-.013-.019.012-.037.006-.03.004-.03.02-.013-.002-.092-.018-.025.002-.033-.007.008-.028.011-.02.051-.016.029-.023.032.013.023-.034-.003-.065-.036-.063.017-.048.013-.06.009-.007.01-.021-.013-.018-.027-.009v-.015l.017-.012.115-.025.027-.019-.07-.007-.089.005-.089.055-.167.118-.078.08.02-.001.027.011.022.056.018.014-.013.037-.044.029-.018.02-.018.007-.014-.007-.017-.015.01-.029.013-.026-.036-.047-.017-.006-.014.002-.087.04-.064.048-.06.025-.054.008-.032.021-.066.063-.041.028-.07.07-.178.122-.046.01-.026-.01-.02-.016-.014.014.016.03.026.059-.01.031-.041-.009-.086.028-.093.041.002.043.005.037-.015.061-.017.05-.013.14-.013.041-.036.028-.185.063-.032.004-.014.011-.01-.011-.034-.015h-.05l-.022-.006-.023-.023-.03-.059-.044-.119-.098-.06-.045-.04-.01-.039.01-.04.1-.13.035-.043.148-.038.059-.004.06-.015-.002-.077-.058-.094-.063-.11-.06-.12-.086-.043-.102-.02-.207.023-.03-.005-.132-.084-.013-.002-.019.006.006.024.01.018.176.18.009.048.005.063-.003.026.004.026-.002.048-.043.204-.041.143-.014.067-.003.046.016.04.05.013.05.041.026.058.006.04.002.086.012.074-.04.113-.022.044-.028.1.011.072-.003.028-.006.033-.02-.024-.017-.029-.023-.025-.025-.01-.026.007-.019.014.002-.03.024-.045-.011-.023-.012-.018-.073-.056-.053-.003-.045.006-.047-.007-.035-.035-.032-.02-.023-.002-.03.032-.069.121-.07.08-.092.06-.07.019-.018.014-.041.069-.043.053-.117.088-.008.036-.008.05.011.055.023.054.057.107.031.037.022.057.016.065-.008.013-.047-.016-.034.008-.048.044-.003.019-.018.043-.043.004-.118-.079-.102-.04-.016-.003-.023-.02-.007-.016-.042.003-.026-.002-.024-.013-.11-.129-.09-.048h-.02l-.039.012-.022.104-.03.029-.028-.002-.001.051.011.031.01.023.034.036.062.108.033.044.025.016.032.003.071-.013.024.017.025.025.006.061.02.063.001.035-.024.041-.076.03-.044.043-.016-.002-.092-.05-.06-.018-.08-.031-.014-.017-.036-.084-.079-.08-.036-.023-.049.017-.034-.008-.057-.043-.038-.066-.003-.08.01-.018.012-.01-.028-.024-.001-.062-.005-.041-.03-.102-.032-.062-.03-.067.032-.034.016-.03.023-.089.005-.03.01-.03.003-.027-.001-.028-.022-.05-.067-.103-.066-.057-.126-.056-.034.003-.013-.008.027-.01.027-.022.014-.035-.032-.017-.026-.007-.043-.028-.008-.025.01-.018-.01-.045-.058-.015-.015-.01-.001-.015-.04-.05-.05-.052.008-.053-.037-.039-.032-.027-.05-.01-.02-.02.116.006.121.04-.01.015-.009.024.036.069.034.038.076.048h.01l.016-.012.038.02.03.026.059.003.07.03-.005.013-.008.01.02.038.03-.006.048-.03.124.107.035.02.197.055.091.005.05.012.07.028.077.056.063.02.114.018.059-.003.146-.037.187-.098.096-.086.153-.226.02-.053.018-.125.001-.054-.022-.005-.03-.03v-.073l-.016-.036-.022-.166-.046-.019-.025-.019-.03-.01-.033-.026-.04-.07-.04-.045-.032-.063-.02-.023-.014-.007.01.031.008.034-.059-.008-.17-.161-.028-.013-.011.015-.052-.022-.017-.038-.144-.179-.256-.203-.174-.125-.13-.056-.014.007-.013.023-.038.006-.033-.004-.118-.05-.028-.007-.125.002-.014.014-.044.106-.023.021-.044.02.012-.032.03-.023.02-.077.001-.032.01-.042-.001-.034-.016-.01-.03.01-.063.04-.009-.01.018-.042-.005-.016-.026.006-.057-.02-.06.008-.01-.05-.04-.03-.015-.024.02-.028.132.046.037.003.018-.017.004-.03v-.035l-.016-.02-.086-.037-.04-.043-.094-.058-.003.027.014.054-.008.017-.027-.015-.02.011-.029.065-.027.017-.022.005-.093-.055-.04-.01.012.09v.031l-.007.03-.008.016-.016.007-.04-.003-.054-.035-.035-.034-.011-.001-.005.004.009.033-.003.026-.005.028-.007.025-.01.021-.022.027-.037.021-.102.042-.008.018-.033.116-.009.017-.012.014-.035.018-.016.009-.047.032-.029.021-.035.016.01.02.057.005.009.006.006.011.002.017-.006.028-.063.152-.002.031.02.088.03.103.086.046.065.035.041.084.068.11.036.04.003.013-.011.075-.044.074-.04.063-.043.075-.033.064-.036.076-.005.024v.024l.006.025.046.092.018.047.021.05.019.055.01.049.019.047.011.025.02.033.022.05.008.04.034.137.004.035-.002.025-.015.006-.034.005-.036.016-.002.006.024.032-.021.054-.003.077-.023.04-.002.01.001.008.004.006.042.011.003.01v.024l-.003.02-.021.016-.022.023-.005.02v.02l.008.031.015.037.018.023.067.022.009.018.003.024-.001.024-.031.048v.018l.013.045.015.042.065.045.022.025.006.02.003.032v.035l-.005.03-.02.04-.047.077-.048.03-.003.006.015.025.083.098.055.046.073.061.047.049.016.034.02.039.023.031.017.027.006.018v.019l-.023.056-.012.044-.022.063-.023.044-.058.08-.085.1-.02.03-.04.052-.068.104-.017.023-.056.082-.025.026-.02.024-.056.077-.06.059-.057.053-.018.028-.022.02-.026.02-.01.011-.06.073-.08.101.087-.017.077-.05.015.011.016.02-.002.033-.004.024-.03-.023.007.028.028.051.039.021.058.067.07.007.045-.012.035.003.035.035.024.045.019.011.026.022-.004.024-.008.015-.104-.039-.12-.02-.015.018-.015.028-.008.022-.008.012-.018.008-.027.002-.033-.005-.02-.015-.015.017-.007.037-.02.02-.028-.015-.019-.03-.017.003-.01.027.008.036.004.043-.012.033.012.014.015.024.004.013-.005.008-.015.006-.004.008-.006.012-.018.002-.01.009-.01.039-.022.065-.031.049-.025.026-.011.02-.007.025-.002.025.024.135v.024l-.006.025-.004.025.004.022.015.037.017.056.007.035.011.013.01.01.003.005v.006l-.006.007-.048.019-.007.015-.005.018-.021.025-.006.024-.004.028v.01l.026.001.01.007.006.035.03.027.03.022.007.01.002.02-.002.023-.004.012-.012.014-.01.035-.001.033-.017.058h.004l.034-.01.01.006.008.013.002.036.011.016.012.025.004.02.022.023.001.015.014.052.005.03.002.024-.006.03-.006.02.031.037.008.001.017-.014.003-.002h.036l.017.012.012.025.012.02.012.005.035-.025.02-.008h.013l.044.023.022.012.004.01v.014l-.005.02-.004.02.013.026.016.016.034-.027.013-.008h.013l.019-.01.013-.017.013-.005.024.004.044-.004.05.025.005.007.026.029.009.014.008.005.014.014.018.008.013-.002.006.004.005.011v.019l-.001.053-.009.016-.01.012-.002.01.001.011.015.023.018.036.005.02v.016l-.026.045-.008.01-.006.022-.003.023.001.01.043.035.032.02.007.009v.005l-.017.039-.001.01.025.016.014.025.012.04.024.039.052.034.037.022.008.01.003.012-.003.026-.01.033-.006.017.015.008.04-.002.047.006.058.035v.016l-.006.014.004.015.006.013.05.04.004.01.001.02-.001.014-.014.003-.015.006-.025.017-.01.023-.04.032-.025.015h-.02l-.047-.006-.017-.016-.007-.014-.018-.007h-.024l-.033.002-.007.004-.006.018-.014.031-.01.017.008.01.014.023.02.028.021.025.007.015v.01l-.01.014.001.025.021.034-.007.005-.002.041v.044l.006.01.01.01.01.015.016.037v.01h.005l.022.011.022.01h.016l.018-.002.022-.013.015-.012.019-.06.006-.01.01-.004h.017l.032.01.037.011.021-.001.057-.033.032-.005.038.008h.037l.028-.005.02.012.023.025.021.036.023.068.065.076.001.015-.005.01-.032.008-.027.005-.002.013.007.014.013.02.002.027v.025l.004.021.01.009.002.01-.012.014-.003.008.004.004.06.003.028.012.022.012.011.001.025-.007.028-.005h.017l.007.008.005.022.01.023.009.006.016-.001.01.001.005.009-.006.012.002.014.007.017.008.04.008.011.006.015v.017l-.007.015-.005.012.005.026.018.03.013.007.01.026.02.009.027-.022.022-.012.027.007.025.004.017.015.012.02.015.012.014-.006.03.006.014.017.013.01.018-.014.015-.017.052-.018.033-.004.01-.004.018-.012.02-.009.019.002.018.027.019.018.005.028.023.039.056.053.022.016.015-.003.008-.004.004-.005.003-.026.007-.01h.012l.044.032.023.004h.022l.03.025.033.022.025.002.02-.008.013-.005.009.008.008.019.013.014.015.004.022.001.037.028.036.029.022.002.018-.009.017-.002.012.007.003.013-.009.016v.024l.016.023v.022l-.004.02-.009.019-.021.025-.02.024-.03.01-.017.01.004.017.011.017.026.013.029.01.003.01-.004.005-.019.005-.025-.005-.009.009-.012.015-.008.028-.006.025.028.007.016.01.005.021.006.023.002.021-.01.01v.01l.004.006.012.002.01.005v.01l-.017.025-.016.047-.01.025.001.027-.01.015H8.78l-.061.004-.054-.002-.023-.004-.036-.002-.018.006-.024.043-.018.017-.03.015-.032.005-.019.018-.006.027v.025l-.004.012-.007.011-.002.008.001.008.008.003.009.004v.006l-.004.008-.01.008-.004.013v.014l.003.015.062-.029.021-.022.042-.008-.006.01-.02.007-.022.022.027.002.06-.011.022-.034.039.002.011.024.011.032v.012l-.005.01-.033.007-.075.04-.039.012-.044.02.011.028.003.024-.036-.005-.026-.008-.016.003-.044.025-.023-.005h-.023l.01.035.024.043.014.008.023-.004.055.052.04.051-.02.004-.021-.005h-.03l-.011.031-.012.023-.003-.012.001-.016-.013-.01-.019.016-.021.068-.04.05-.013.03v.021l.005.005.009-.001v.02l-.006.017-.088.023-.011.012-.026-.01-.028-.027-.026-.014-.017.005-.017.013.01.008.011.003.03.017-.015.012-.059.022.002.012.006.008.067.02.06.032.018.022.016.039.013.017.02.014.017.008.03.003.034-.012.076.092.03.015.074.018.02.01.14.128.043.056.082.082.024.018.01-.021.014-.023.015-.005.044.009.04.01.03-.007.036.017.032.02.032.014.064.014.023.018.028.019.107.009.01-.003.007-.002.036-.007.032.001.034.022h.022l.023-.004.03.012.023.013.002.013.02.02.06.03.048.017.015.011.036.02.004.006v.008l-.011.014-.003.013.005.008.015.007.03.001.012-.009.022-.007.022-.011.03-.016.04-.015h.017l.015.005.011.008.018.03.019-.042.004-.004.017.009.03.011.02.007.01.008.032.038.05-.002.022.006.011.006.005.008-.009.037-.012.04v.009l.021.014.027.016.015.012.01.012.022.008.026.005.012.001.012.01.033.017.005.004.024.007.004.018.004.004.01-.002.017-.008.014.006.017.022.024.023.014.015.005.01.012.011.018.012.015.02.013.044.013.01.046.017.016.003.046.006.016-.004.024-.038.021-.04.02-.008.036-.019.021-.017.01-.02.02-.036.012-.021-.022-.02-.012-.005-.01-.01-.018-.04-.017-.032-.035-.055-.059-.083-.012-.01-.01-.011-.004-.042-.017-.03-.024-.02-.01-.01-.005-.012.011-.06v-.016l-.005-.036.004-.042.014-.057.014-.039.004-.026-.02.017-.022.09-.008-.072-.015-.07-.013-.036-.018-.03-.024-.022-.023-.027-.025-.015-.037-.01-.008-.01-.003-.018.002-.019.01-.032.02-.02.026-.021.006-.014.004-.017.009.012.01.007.007-.03.01-.02.014-.019.018-.041.012-.023.01-.026.004-.042.01-.004.008-.008.006-.012.003-.013-.001-.024-.014-.026.003-.003.007.005.015.013.014.017.004-.024.011-.01.015.006.015.001.051-.02.025-.005.022-.013.053-.053.011-.003.012.002.011.01.013.006.009-.003.004-.008-.01-.019-.004-.017v-.02l.013-.005h.015l.062-.03.007-.013.004-.018.027-.004-.003-.015-.01-.004-.053-.032-.042-.023-.038-.02-.005-.003-.01-.01-.008-.015-.001-.017.003-.012.01-.008.01-.003.01.002.01.008.02.009.024.002.016-.007.002-.017-.03-.062-.027-.05-.026-.057-.01-.02-.033-.047-.032-.047-.024-.041-.014-.013-.04-.005-.077-.01-.027-.006-.022.013-.021.01-.021-.018-.017-.03-.008-.025.004-.026.002-.037-.013-.038-.014-.018-.034-.014-.044-.031-.012-.058.021-.083.035-.058.025-.025.012-.021.004-.02-.003-.017-.015-.02-.023-.018-.012-.022.005-.05.015-.07.024-.057.031-.032.027-.022.011-.022V33.21l.007-.02.012-.017.012-.015.017-.016.022-.004.024.013.034.035.048.07.028.045.01.014.025.027.023.01.038-.016.036-.02.012-.012.008-.019-.006-.032-.008-.02-.008-.027-.011-.046-.008-.073-.01-.023.007-.003.019.005.017.002.024-.016.033-.03.06-.047.014-.031.01-.035.017-.02.039-.008.036-.01.025-.026.04-.021.032-.013.014-.012.01-.019.038-.051.03-.032.025-.032.009-.02.02.003.031.014.033.013.025.02.005.02.002.017.01.008.012.002.018-.004h.03l.04-.028.052-.045.049-.014.026.011.02.033.018.031.017.012h.015l.021-.006h.002l.02.001.018.01.031.002.044-.008.004-.003.021.004.025.014.02.017.035.056.02.014.042.02.02.017.022.028.012.017.024.03.029.05.005.04.006.034.011.016.009.001.009-.005.01-.015.002-.026-.002-.045-.008-.037-.009-.011-.005-.013.007-.017.015-.008.02.005.032.022.034.026.042.047.038.03.041.023.033.007.026-.007.03-.02.028-.022.012-.023.01-.025.041-.034.038-.032.018.006.012.009.039-.02.014-.005.037-.007.038.011.031.033.03.022.026-.002.022-.011.015-.021.01-.025.016-.016h.002l.047.008.03-.002.003-.003.04.007.043.034.027.039.034.049.016.016.023.007.018.002.025.008.064.01.01.006.007.008-.006.027.006.007.052-.02.014-.014.017-.04.016-.04.011-.015.013-.004.012.006.017.024.023.024.032.01.019.003.03.002.07-.012.065-.03.037-.032.018-.048.01-.055.017-.035-.007-.035-.033-.034-.01-.01-.08-.02-.006-.014-.004-.003-.08-.03-.037-.013-.01-.02-.008-.026-.025-.024-.049-.021-.008-.017.008-.016.026-.013.013-.005.044-.04.017-.007.039-.002.036-.032.025-.018.013-.022-.003-.022-.037-.068-.01-.041.006-.027.021-.029.012-.016.014-.029.01-.015.036-.006.045-.003.03.007.043.003.039.006.02.004.014-.008.01-.016v-.02l-.015-.02-.057-.026-.025-.021-.019.002-.032-.007-.03-.014-.025-.005-.008-.02.005-.027.01-.015.019-.008.02.004.023-.012.006-.006.002-.009-.003-.012-.01-.01-.016-.003-.016.008-.02.006-.035-.013-.027-.015.001-.014.02-.021.01-.017V31.803l.006-.033.02-.022.024-.012.06.022.077.02.013-.004.004-.01.008-.01.106-.003.02-.013.01-.01.102-.014.012-.014.014-.013h.024l.028-.005.038-.015.028-.009h.004l.03.003.035-.013.008-.005.006-.01.031-.017.06-.015.015.009.029.004.036-.007.027-.011.016.011.021.012.016-.01.008-.031.01-.03.019-.015.014-.005.013-.012.01-.012.053.002.047-.03.01.013.06-.003.077-.02.046-.009.079-.02.036-.017.053-.01.048-.008.031-.03.025-.003.031-.003.019-.007.012-.01.008-.02-.004-.027-.005-.019.022-.01.032-.003.02-.005.043-.043.03-.02.03-.013.063.007.056.006.057.02.03.026.025.02.024.009.022.006.026-.009.018-.012.01-.017.016-.012.058-.01.012.02.027.054.02.073.03.096.014.048-.006.024v.034l-.002.037-.023.042.01.02.055.021.079-.008.048-.017.027.006.014-.01.009-.031.019-.007.019.021.014.037.013.023-.001.028.005.036.01.01.018-.015.013-.008.003-.01-.005-.014-.003-.014.005-.012.009-.005.027.004.04.007.047.05.025.01h.011l.024-.002.029-.015.019-.018.006-.01.011.002.011.009v.018l-.008.027-.028.025-.036.022-.021.042-.005.043.01.022.007.015.003.02.008.003.014-.008.04-.043.02-.01.03-.007.048.003.032.014.016.02.017.015.011-.006.006-.019v-.02l.006-.018.052-.043.036-.028.012-.004.023.006.015-.003.038-.026.036-.031.004-.02.001-.02.01-.008.05-.007.008-.003.043-.021.06-.037.029-.022.052-.01.01-.006.018-.014.033-.02.018-.002-.011.048-.02.057-.011.015-.054-.003v.015l.009.024.006.013.006.012.015.02.056.048.072.06.077.069.054.047.022.025.014.019.04.068.037.065.064.114.056.109.063.119.035.068.074.143.02.043.037.082.033.077.029.068.018.006.002-.019.003-.012.01-.007.02-.02.012-.004.017.002.018-.01.007-.02-.004-.035-.003-.017.006-.017.01-.007.013-.006.013-.003.01-.02.02-.006.018.004h.015l.012.015.008.02.014.002.023-.002.003.016-.006.028-.009.022-.001.017.012.008.045-.007.016.004.005.017.006.015.003.017-.004.02.008.012h.038l.027-.01h.042l.038.02.026-.003.026-.008.039.005.027-.016.018-.02.006-.017.01-.009h.036l.023-.001.017-.024.016-.01.026-.003h.019l.051.022.032.019.032.025.02.017.013.036.022.027.018.031.004.03.015.056.015.018h.017l.023.008.025.006.053.04.02.002.015.01.002.018-.006.022.006.02.018.027.014.026.016.031.006.018.013.006.018-.009.03.007.087.018.012.002.01.018.012-.001h.015l.02.001.014-.017.012-.015.029-.018.024-.025.02-.023.015-.003.012.01v.02l-.014.014-.012.017.003.017.02.002.022.026.033.06.01.012.017.012.017.005.02.009.015.025.006.022.021.003.014-.005.009-.011.014-.004.02-.005.023-.007.012.001h.027l.012-.009.01-.012.02-.013.004-.015v-.03l.013-.025.034-.008.012-.004.014.004.021-.004h.02l.012.007.015.007.02-.001.006-.012v-.017l.009-.004.01.011.006.009.009.004.023-.01.016-.012.005-.023.01-.011.012.006h.023l.018-.018.024-.014.017-.007.003-.012-.008-.027.003-.029.023-.016.03-.002.023-.011.006-.032.012-.008.011-.004.028-.005.02-.013.012-.005.035-.018.032-.003.013-.014.011-.017.018-.006.018-.015.024-.02.01-.002.039-.01.015-.005.01-.002h.016l.008-.02.017-.014.017-.005.009-.015.016-.019.023-.01.035-.002.034.002.02-.003.017-.028.003-.014.004-.014.013-.005.017.023.014.014.02.015.012.013.012.002.013-.01.01-.025.017-.004.02.004.005.012.002.012.009.022.021.019.028-.001.01-.003.027.002.027.004.028.005h.009l.03.002.045.004.02-.002.04.006.008.017.008.04.006.037.002.03.01.016.014.005.008.012.016.016.011.024.014-.002.01-.005.021-.002.028.002.019.013.007.017.015.01.013-.004h.037l.013.001.013.01.019.001.01-.012.032-.008.02-.017h.014l.01.008.009.011.012-.005.007-.009h.01l.011.006.027.01.02.02.015.002.02-.006.009-.002.008.01.013.004.01-.007.016-.005.063.01.014.02.012.01.009.015.016.011.035-.004.013-.011.028-.026.012-.025.014-.008.016-.004h.03l.02-.02.015-.006.023-.023.004-.01.01-.028.008-.017.011-.027.006-.045.004-.024-.003-.017-.013-.009-.018-.004-.015-.013-.011-.015-.007-.022-.009-.025v-.018l-.002-.014-.008-.012-.014-.02-.007-.016.002-.025.017-.043.002-.02.002-.012v-.011l.005-.026.01-.01.01-.028.015-.013h.02l.007-.008.004-.028.01-.02.005-.016.012-.017.066-.031.027-.04.01-.02.01-.043.011-.018.015.006.017.025h.014l.019.014.053.029.029.009.018.003.025.008.015.017.031.027.026.007.045.003.055.001.015.005.04.02.045.022.041.019.032.015.019.015.017.008.02-.007.024.002.057.017.037.015.03.01.01.016.001.02-.004.016.002.041.01.021.004.029.003.027-.002.027.005.014.009.009.01.018-.004.02-.004.012v.018l.012.015.016.003.014.004.018.024.032.027.018.008.022.012.041.012.028.004.017.01.016.023.027.005.017.008.032.01.02-.006.019-.008.012.002.023.005.028.001.023-.005.019-.017.021-.022.026-.012.03-.004.02-.009.067-.015.027-.003.021-.014.019-.012.027-.005.036.012.035.01.042.004.027.014.02.013.031.01.035-.005.047-.004.032.006.032.024.02.019.023.04.024.02.02.016h.027l.065.002.036.009.03.004.007.009-.003.027V33.402l.007.014.01.002.005.02.015.01.026.014.045.047.027.02.02.007.028-.005H24.76l.05.014.017.01.05.01.057.013.047.012.028-.016.024-.001.024.011.023.018.018-.002.027-.008.087-.05.03-.019.021.005.02-.006.014-.006.037-.008.022-.002.023-.004.034-.003.067-.033.028-.007.046.01.026-.006.024-.017.033-.017.008-.028.017-.038.035-.028.03-.025.029-.024.036-.02.034-.014.044-.038.035-.02.017-.006.02.007.039.005.028-.001.015.004.032.019.028.016.022.03.04.04.021.013.015.006.037.004.03.001.017-.009.03-.017.048-.021h.019l.03.012.047.021.018.016.012.02.047.03.03.017.052.025.053.005.051.027.026.008h.014l.072-.065.061-.055.07-.044.051-.005.039-.013.026-.02.015-.032.005-.046-.01-.027-.026-.01-.006-.01.012-.01.009-.019.006-.028.014-.027.023-.026.013-.028.003-.032.014-.031.025-.031.015-.03.002-.026.013-.033.035-.059.023-.068.04-.046.062-.048.04-.047.015-.048-.001-.042-.018-.036-.004-.037.011-.038-.01-.028-.03-.019-.038-.005-.043.01-.024-.012-.005-.033.011-.027.029-.02.046-.05.066-.08.064-.045.097-.013.077-.026.08-.027.057-.013.01.009.03.002.053-.005.05-.011.044-.019.036-.004.026.01h.015l.01.001h.006l.012-.008.03.014.058.042.037.019.015-.005.017.012.017.027.023.017.04.007.04.03.015.002.006-.017.015-.01.023-.002.035.015.045.032.029.014.011-.004.012.006.01.015.001.019-.003.01.01.015h.013l.02.008.017.028.014.012.01.011.002.01v.009l-.002.007-.006.012-.001.013.006.014.026.01.009.011.002.014.008.015.017.017.006.015-.004.011.005.01.009.008.002.027v.016l.015.018.002.037.01.04.033.055.01.03-.002.035.005.017.015.008.007.015v.022l.005.013.005.015-.003.022.004.02.008.012.005.022.003.027.022.043.041.058.025.045.01.033v.026l-.01.02v.016l.008.01.002.012-.003.016.013.02.045.032-.018.05-.004.036.002.037.011.026.02.016.012.016.005.016.024.018.042.02.055.003.066-.013.041-.002.015.008.005.013-.005.017.012.011.027.006.019.01.01.017.013.004.015-.007.014.001.014.01.01-.004.008-.01H29.413l.008.024.013.014.018.002.028.03.056.08.037.03.036.009.046.002.015.031-.012.033-.003.028.01.01.014.032.02.02.004.014.01.017-.004.03-.018.046.005.038.027.031.015.03.004.03.007.017.01.007.027-.002.045-.011.033.002.022.014h.052l.084-.013.053-.004.022.005.02-.018.017-.043.016-.02.015.002.024-.013.033-.03.028-.015.036.002.039.001.024-.013.022-.026.04-.023.083-.03.02-.006.01.002.027.005.025.012.023.024.004.015-.002.02-.006.012-.01.013-.008.022.006.016.013.036.011.025.012.03-.005.011-.007.021-.023.035-.013.014-.013.013-.023.003-.01.003-.011.006-.008.012-.008.009-.013.018v.015l.005.022.003.023-.015.02-.011.032-.004.01-.006.023-.002.008-.003.05-.015.034-.021.04.005.023.003.022-.005.01-.001.01-.003.02-.007.008-.019.013-.011.016.002.024-.006.02-.008.019-.01.011-.012.008-.009.007-.007.023-.002.017-.006.018.004.018-.006.016-.02.01-.01.007-.01.003-.018.017-.017.058-.004.034.004.03-.023.019-.018.015-.01-.006-.012-.005-.027-.006-.013-.005-.026-.01-.043-.012-.042-.014-.026-.008-.02-.006-.016-.01-.014-.018-.013.008-.012.02-.02.013-.01.023-.007.018-.021.023-.01.01-.04.016-.01.005-.033.003-.011.007-.012.015-.003.015.008.015.013.032.006.02.009.042.03.131-.01.023-.009.097.002.018v.047l.006.005.008.007.004.011-.001.018-.004.013-.006.026-.009.038-.01.014-.005.011-.005.008v.026l-.004.018-.015.006-.014.01-.017-.004-.015.002-.019.007-.033.008-.02.01-.009.008-.006.009-.001.009.004.004.019.004.013.016.001.018-.013.01.006.02.015.019.008.013.001.014.007.008.01-.007.024-.063-.029-.042.01-.006.044.013.019-.004.03.006.02-.023.011-.023.023-.017.029-.055.047-.067.016-.017.034-.015.008.002.008.005-.026.035-.007.025h.019l.018-.008.047-.04.018-.023.005.024-.007.115.041-.008.022.012.03-.002.036.027.014-.004h.017l.014.027.023.008.039-.022.06-.02h.027l.07-.038.033-.031.123-.08.052-.044.049-.032.03-.052.05-.05.002-.02.01-.024.079-.132.025-.022.036-.016.015-.024.01-.035.048-.051.033-.052.03-.034.016-.03.079-.075.064-.083.06-.06.019-.037.077-.11.024-.072.03-.027.012-.07.025-.05.006-.03.014-.027.095-.114.038-.087.047-.089.034-.03.036-.041.02-.032.054-.05.026-.036.013-.036.013-.089.035-.068-.01-.011-.006-.021.004-.024.005-.014.004-.023.008-.024.007-.015.02-.096-.001-.06-.011-.024v-.031l.027-.045.007-.008.003-.01-.014-.009-.007-.009-.014-.153.01-.095.03-.07.005-.024.004-.068.035-.068.021-.078.046-.041.03-.05.024-.024.004-.052.023-.047-.017-.021-.018-.014-.037-.038-.009-.026.026-.044.005-.04-.002-.073-.04-.022-.048-.056-.008-.019.01-.001.068.03.034-.032.017-.035-.006-.043-.036-.016-.047-.047-.002-.016-.073-.04-.078-.087-.024-.075-.015-.02-.073-.062-.015-.021-.02-.008-.09.034-.049-.01-.094-.042-.008.009.013.03-.002.03.004.043-.006.07-.009.05-.034.069-.014.013-.03.005h-.016l.01-.027.026-.033.037-.057v-.052l-.009-.005h-.008l-.026.02-.03.073-.069.05-.049.017-.094.008-.017-.003-.007-.013.021-.02.047-.03.03-.064.031-.015.012-.018-.05-.01-.033-.022-.031-.03.015-.008.01-.003.015-.01.035-.052-.032-.003-.034.003-.055.04-.01.022.018.03.02.012-.024.081-.032-.01-.03.003-.02.023-.018-.008-.009-.051.01-.052.01-.118.012-.04v-.045l-.006-.024-.018-.001-.031.004h-.079l-.089.012-.095-.044-.025-.006-.016-.01-.01-.045.005-.025.006-.017.064-.07.048-.02.098-.078.04-.066.025-.028.077-.049.05-.042.04-.04.045-.036.044-.058.027-.011.088-.125.015-.028.01-.038.008-.018.102-.145.07-.053.05-.075.06-.03.014-.012.025-.043.043-.026.013-.015.033-.061.102-.056.01-.023.044-.154.025-.041.045-.051.083-.05.058-.055.035-.044.062-.116.07-.07.058-.04.14-.06.077.012.079-.032.058.002.083.015.246-.018.046.019.017.02.024.06.027.014.051-.024.04-.097.02-.012.062.04.054.003.11.044.039-.01.043-.045.088-.012.053.07.054.002.043-.011.012-.04-.017-.015-.034.013-.008-.035.02-.039.03.027.048-.003.016-.003-.007-.018-.01-.015-.015-.034.052-.045.03-.016.05-.004.13.056.027.006.03.022.05.016-.03.015-.013.014.03-.006.026.018.022.003.01-.006.01-.022.016-.023.012-.007.032.002.04.01.032.017.072.093.033.018.037-.003.015.006.021.025-.062.03-.059.006-.053-.008-.088.037.048.095.086.004.088-.02.018-.04.036-.015.018.002.04.033.056.013.015-.006.045-.066.027-.005.018.001.02-.057.077-.004.045.05.027.018.054-.015.03-.036.019-.013.056.034.028-.021.044-.004.033.003-.002-.037.004-.042-.045-.041-.09-.042-.051.027-.02.003-.014-.004-.014-.02.014-.034.013-.027v-.034l.006-.048.022-.02.012-.004.031-.1.09-.133.105-.083.067-.064.031-.046.047-.106.066-.077.032-.025.034-.033.011-.102.026-.025.023-.017.044-.055.066-.036.023-.026.075.002.063.021.018-.006.042-.03.05.007.063-.02.058-.035.026-.004.024.008.03.053.016.013.013.031.039-.02.106-.071h.012l.017.004.003.028-.001.022-.017.073-.019.054-.053.106-.011.016.007.028.008.052-.026.055-.01.028.021.007.028-.031.041-.02.022.002.023.009-.035.094-.006.05-.005.018-.001.025.026-.014.018-.02.027-.015.065-.006.034-.067.028-.035.264-.283.047-.06.026-.004.024.01.02-.002.005-.02.008-.009.024.003.015.054.017.026.012-.005.008-.008.013-.02.013-.017.014-.027-.011-.018-.046-.028.002-.05.026-.08-.003-.051.01-.054.012-.028.01-.012.01-.018-.013-.042.01-.029.01-.02.212-.075.038-.004.034.015.051.054.058.027.081.012.005.024-.032-.008-.015.008.003.021-.004.017-.02-.02-.054-.01-.05-.021-.016.001-.072.064-.018.027-.03.125-.002.086-.011.081-.032.035-.01.041-.008.048.039.02.005.016.003.022-.026.05-.063.064-.007.013-.008.029.036.053-.03.019-.026.013-.026.024-.087.008-.06.06-.103.06-.045.033-.015.022-.037.09-.02.037-.07.06-.053.085-.084.103-.033.011-.038.026-.045.07-.116.124-.058.148-.032.05-.033.038-.023.041-.04.043-.08.064-.055.053-.029.036-.01.033-.016-.007-.054.017-.07-.015-.05.098-.054.01-.053-.024-.026.012-.01.01-.008.015.025.031.01.027.004.024.003.042-.029.077-.028.06-.045.057-.106.103-.01.013-.01.024-.06.266-.018.117-.02.186.002.062.013.137.02.14.045.24.01.073.035.292.002.055.01.046.018.047.03.045.004.055.026.175.002.166.005.036.005.026.03.032.009.039.002.029.006.029.023-.014.081-.078.066-.074.01-.027.022-.02.045-.027.064-.078.052-.107.03-.083.008-.03.001-.03-.004-.064.012-.024.017-.072-.011-.02-.03-.013.01-.03.021-.006.017.013.01.032.015.01.047-.055.042-.027.104-.047.042.003.04.041.018-.002-.005-.057-.024-.042v-.026l.014-.041-.01-.028-.01-.02-.006-.045.018-.09.02-.049.015-.023.05-.04.052-.058.058-.045.038-.015.044-.008.038.032.076.001.023-.006.056-.064.032-.026-.006-.055-.02-.046-.039-.058-.009-.027-.013-.063-.001-.058.012-.066.034-.078.037-.105.014-.016.043-.025.03-.02.015-.011-.01-.06.024-.023.019-.015.047.006.015-.014.022-.005-.015.03-.018.022-.042.029-.02.042.05.07.03.014.017-.005.033-.039.016-.015.017-.025-.01-.092-.011-.05.003-.053-.021-.016-.027-.006-.029.008-.016-.015-.011-.024-.003-.027.005-.064-.001-.035-.01-.061v-.018l.003-.032.041-.052.035-.039.018-.032.006-.021.003-.046-.019-.02-.098-.05h-.014l-.03.02-.014.06-.017.022v-.012l.005-.015-.05-.022-.022-.02-.014-.02-.008-.028-.01-.042.02-.088.022-.079.071-.118.044-.041.047-.064.02-.011.008-.01.008-.016-.015-.043.008-.01.008-.006.018.008.043-.079-.001-.1.012-.087.01-.036.01-.025.02-.024.018-.013.026-.03.013-.024.008-.006.03.002.025.01.027.015-.005.04.032-.035.028-.04.015-.007.02.005.032.03.026.058.017.016.023-.001.015-.008.012-.04.003-.072.025-.013.02-.005.03-.033.04-.015.082-.057.054-.06.04-.001-.01.033-.004.033-.014.08-.014.042-.008.052.003.027.009.034.02-.003.013-.008.028-.035.117-.17.06-.048.092-.03.028-.019.09-.031.075-.009.047.014h.027l.101-.016.011.02.079.056.045.082.01.008.007.015.002.033.007.02.013.018.039.039.045.01.01-.022.007-.017.02-.1.018-.04v-.025l.004-.02.044-.029.035-.013.124-.097.055-.057.023.003.02-.013.019-.018.015-.007.034-.04.041-.031-.007-.027.008-.025.023-.009.02-.002.026-.029-.002-.022.01-.01.013.002.018.009.01-.01-.017-.03-.007-.03.012-.017.045.031h.018l.06-.074.053-.08.046.019.072-.058.034-.011.053-.003.022-.022.024-.04.019.004.09-.048.018-.034.022-.01.018-.003.04-.029.163-.082.025-.033.061-.048.047-.016.058-.012.007-.016-.042-.018-.01-.016v-.018l.006-.015.008-.029.015-.006.02.02h.019l.009-.017.01.001.004.023-.01.027-.005.02v.024l.013.006.072.003.082.018.216.098.019.016.018.001.003-.038.01-.037.025-.021.043-.053.022-.038v-.045l-.014-.046-.03-.01-.018-.03-.01-.035.016-.026.018-.01-.004-.037-.013-.022-.07-.048-.024-.033-.001-.03-.029-.073-.004.016.002.035-.01.025-.014-.003-.003-.02.01-.043-.013-.02-.043-.008-.006-.017.043-.024h.012l.012-.009-.01-.093-.009-.066-.026-.006-.02-.02.006-.041v-.021l-.021-.072-.016-.03-.02-.026-.014.03-.008.04-.02.008-.02-.001-.062-.045-.058-.076-.006-.07.014-.091-.01-.015-.009-.006-.077.03-.048.048-.025.005-.052-.032-.084.053.018-.03.015-.013.015-.023-.011-.043-.013-.033-.017-.023-.026-.011-.026.022-.02.022-.041.024-.08.02h-.054l-.091.036-.035-.002.127-.051.068-.004.088-.034.065-.064.084.058.03.009.063-.005.054.034.018-.01.018-.031-.023-.048-.02-.03-.022-.008-.068.005-.044-.01-.026-.013.017-.013.048.019.06-.025.068.038.016.034.02.012.056.085.038.034.124.025.053.038.042-.016.103-.083.069-.022.047-.055.04-.063.04-.019.067-.067.016-.032.027-.08.015-.034.023-.04.002-.034-.005-.036-.02-.028-.043-.04-.02-.027-.014-.056.001-.068.01-.051.013-.046.016.033.044-.008.022-.012.002-.034-.005-.04.01-.01.024-.004.003-.024.008-.013.009.017v.067l.018.017.026.014.01-.004.011-.01.016-.02.032-.069.02-.027-.002.05-.012.069-.007.019-.018.024-.008.051-.004.014-.025-.014-.019.003.014.055.02.042.026.04.028.024h.007l.005.008.001.025-.006.06.005.03.021.025.024.006.14-.003.048-.008.072-.056.028-.007.03.007.087.03.104.045.039.067.015.067.006.072-.006.029v.024l.033.036.044.044.01.01.008.018.011.008.032.005.026-.009.025-.002.047.02.06.033.058.044.026.033.046.07.024.022.039.025.014.004.015-.005.03-.034.018-.028.015-.033.004.029v.024l-.015.018v.03l.023.036.027.005.034-.01.012-.016.01-.023-.008-.075.01-.01.026.014.008.022.004.026.01.003.068-.004.005-.01-.004-.023-.01-.023-.011-.015-.03-.019-.03-.014-.024-.003-.01-.011.002-.02-.008-.022.005-.013.02-.018.003-.016-.022-.02-.023-.006-.02.01.004-.016.015-.016.024-.007.024.003.046-.014.044-.031.022-.021.021-.026-.002-.045-.015-.043-.021-.012-.024.003-.02-.004-.021-.011.081-.016.009-.015.013-.07-.005-.017-.016.005-.026-.001.006-.014.009-.013-.047-.066-.052-.04.015-.006.025.002.04.011.026.03.01.02.01.007.024.002.04.014.002.02.01.007.026-.009.074-.013.024.004.034.014h.01l.015-.005.012-.022-.018-.045-.04-.04-.022-.03-.011-.025.007-.01.01.004.033.039.026.024.027.017.024.013.053.012.024-.02.005-.03-.005-.066.005-.024.032-.037.055-.046.036-.015.013.002.013.014.014.005.023-.035-.01-.05zm-17.947-5.993l-.017.02-.005.027-.001.035-.008.06-.016.021-.056-.01-.015.006-.015.014.032.07.061.046.045.049.02.015.135.044.007-.007.038-.081.05-.037.015-.03.009-.038.012-.031.008-.042-.023-.036-.077-.034-.199-.061zm-10.483 3.004l-.006.011-.005.022.003.08.01.038.015.033.012.01-.002-.03-.024-.11.002-.051-.005-.003zm.835 2.662l-.037-.009-.027-.015-.042-.001-.026-.008-.008.021.042.09.044.045.04-.008.01-.009.011-.03-.012-.018v-.017l.005-.04zm-.646-1.738l.018-.059-.003-.029-.026-.002-.044.063.005.01.012.014.038.003z" fill="#1F252D"/></svg>
