<svg width="50" height="44" viewBox="0 0 50 44" version="1.1" xmlns="http://www.w3.org/2000/svg" xmlns:xlink="http://www.w3.org/1999/xlink">
<title>Group 2.9</title>
<desc>Created using Figma</desc>
<g id="Canvas" transform="translate(-17388 -13019)">
<g id="Group 2.9">
<g id="Vector">
<use xlink:href="#path0_fill" transform="translate(17388 13019)" fill="#F5AF00"/>
<use xlink:href="#path1_fill" transform="translate(17388 13019)" fill="#F5AF00"/>
<use xlink:href="#path2_fill" transform="translate(17388 13019)" fill="#F5AF00"/>
<use xlink:href="#path3_fill" transform="translate(17388 13019)" fill="#F5AF00"/>
<use xlink:href="#path4_fill" transform="translate(17388 13019)" fill="#F5AF00"/>
<use xlink:href="#path5_fill" transform="translate(17388 13019)" fill="#F5AF00"/>
<use xlink:href="#path6_fill" transform="translate(17388 13019)" fill="#F5AF00"/>
<use xlink:href="#path7_fill" transform="translate(17388 13019)" fill="#F5AF00"/>
<use xlink:href="#path8_fill" transform="translate(17388 13019)" fill="#F5AF00"/>
<use xlink:href="#path9_fill" transform="translate(17388 13019)" fill="#F5AF00"/>
</g>
</g>
</g>
<defs>
<path id="path0_fill" d="M 31.6176 34.0984C 35.464 29.5584 42.0079 28.2061 47.8024 29.0755L 49.0013 29.2687L 48.252 30.2346C 44.5555 34.9194 37.7618 36.4166 32.0172 35.2575L 30.8184 35.016L 31.6176 34.0984Z"/>
<path id="path1_fill" d="M 33.1186 0.676157C 37.1648 3.81546 39.6125 9.03153 38.5635 14.0544L 38.3636 15.1652L 37.4145 14.4891C 33.2684 11.4947 30.4711 5.98882 31.9197 1.01424L 32.2194 0L 33.1186 0.676157Z"/>
<path id="path2_fill" d="M 49.8004 16.8061C 49.0011 22.312 44.9549 27.8178 39.1603 29.0736L 38.1113 29.3151L 38.3111 28.2525C 39.3602 22.795 43.3065 17.7721 48.9012 16.0334L 50.0002 15.6953L 49.8004 16.8061Z"/>
<path id="path3_fill" d="M 43.7608 4.82913C 45.9088 9.61053 45.2594 15.4062 41.9625 19.5597L 41.1632 20.5256L 40.6637 19.3665C 38.6656 14.5851 39.1651 8.78948 42.512 4.68424L 43.2613 3.7666L 43.7608 4.82913Z"/>
<path id="path4_fill" d="M 7.44172 4.68567C 10.7886 8.8392 11.2881 14.5865 9.28998 19.3679L 8.79045 20.5271L 7.9912 19.5611C 4.6943 15.4076 4.0449 9.61196 6.19289 4.83056L 6.69242 3.71973L 7.44172 4.68567Z"/>
<path id="path5_fill" d="M 17.9313 35.2558C 12.1867 36.415 5.39309 34.9178 1.69656 30.233L 0.947266 29.267L 2.14614 29.0738C 7.9407 28.2045 14.4846 29.5085 18.3309 34.0967L 19.0802 35.0144L 17.9313 35.2558Z"/>
<path id="path6_fill" d="M 18.0322 1.01424C 19.5307 5.98882 16.7334 11.4947 12.5373 14.4891L 11.5882 15.1652L 11.3884 14.0544C 10.3893 9.03153 12.7871 3.81546 16.8333 0.676157L 17.7324 0L 18.0322 1.01424Z"/>
<path id="path7_fill" d="M 1.09897 16.0334C 6.69372 17.7238 10.64 22.7467 11.689 28.2525L 11.8888 29.3151L 10.8398 29.0736C 4.99531 27.8178 0.949109 22.312 0.149859 16.8061L 0 15.6953L 1.09897 16.0334Z"/>
<path id="path8_fill" d="M 29.0242 39.1702C 29.9733 40.1362 30.9224 41.0538 32.0713 41.8266L 32.8706 42.3096L 32.1712 42.9374C 31.8715 43.1789 31.6217 43.4204 31.322 43.7102L 30.9723 43.9999L 30.5228 43.8068C 27.8253 42.6959 27.076 39.8947 24.978 38.5907C 22.8799 39.8947 22.1306 42.6959 19.4332 43.8068L 18.9836 43.9999L 18.6339 43.6619C 18.3342 43.4204 18.0844 43.1789 17.7847 42.8891L 17.0854 42.2613L 17.8846 41.7783C 19.0335 41.0538 19.9827 40.0879 20.9318 39.122C 19.633 39.7498 18.3842 40.4743 16.8856 40.7158C 14.288 41.1504 11.4407 41.2953 8.94302 40.2328L 7.74414 39.7015L 8.84311 38.9771C 11.2908 37.335 13.9383 35.7895 17.0354 35.548C 19.4332 35.4031 21.8809 35.4997 24.2786 35.9827L 24.3785 35.9827C 24.8281 36.1275 25.2777 36.1275 25.7273 35.9827L 25.8272 35.9827C 28.175 35.4514 30.6227 35.4031 33.0704 35.548C 36.1175 35.7895 38.765 37.335 41.2627 38.9771L 42.3616 39.7015L 41.1628 40.2328C 38.6651 41.2953 35.8677 41.1504 33.2202 40.7158C 31.6217 40.5226 30.3229 39.7981 29.0242 39.1702Z"/>
<path id="path9_fill" d="M 26.0117 29L 23.2383 29L 23.2383 18.1406L 20.5332 19.1855L 20.5332 16.8809L 25.7188 14.7617L 26.0117 14.7617L 26.0117 29Z"/>
</defs>
</svg>
