<svg width="40" height="40" viewBox="0 0 40 40" fill="none" xmlns="http://www.w3.org/2000/svg">
<path fill-rule="evenodd" clip-rule="evenodd" d="M8.5 5H31.5C33.433 5 35 6.567 35 8.5V39L27 32L28 35H8.5C6.567 35 5 33.433 5 31.5V8.5C5 6.567 6.567 5 8.5 5ZM12.5501 14.7999C12.5501 14.7999 14.5 13 17.4001 13L17.6001 13.2002C15.2532 13.8681 13.8534 14.7257 13.037 15.5895C14.4766 14.4946 16.7373 13.801 20 13.7002C23.3491 13.8069 25.6883 14.5789 27.1408 15.7883C26.3558 14.8584 24.9268 13.9193 22.3999 13.2002L22.5999 13C25.5 13 27.4499 14.7999 27.4499 14.7999C27.4499 14.7999 29.8999 19 29.8999 24.8C29.3999 25.6333 27.5 27.5 24.7 27.4L23.4999 26.0002C24.3518 25.8297 25.5908 25.1432 26.4291 24.0689C24.7956 25.199 22.5186 25.9002 20 25.9002C17.4814 25.9002 15.2044 25.199 13.5709 24.0689C14.4092 25.1432 15.6482 25.8297 16.5001 26.0002L15.3 27.4C12.5 27.5 10.6001 25.6333 10.1001 24.8C10.1001 19 12.5501 14.7999 12.5501 14.7999ZM17.0001 23.1999C18.0494 23.1999 18.9001 22.3492 18.9001 21.2999C18.9001 20.2506 18.0494 19.3999 17.0001 19.3999C15.9508 19.3999 15.1001 20.2506 15.1001 21.2999C15.1001 22.3492 15.9508 23.1999 17.0001 23.1999ZM23.0001 23.1999C24.0494 23.1999 24.9001 22.3492 24.9001 21.2999C24.9001 20.2506 24.0494 19.3999 23.0001 19.3999C21.9508 19.3999 21.1001 20.2506 21.1001 21.2999C21.1001 22.3492 21.9508 23.1999 23.0001 23.1999Z" fill="white"/>
</svg>
