<svg width="31" height="29" viewBox="0 0 31 29" version="1.1" xmlns="http://www.w3.org/2000/svg" xmlns:xlink="http://www.w3.org/1999/xlink">
<title>Position</title>
<desc>Created using Figma</desc>
<g id="Canvas" transform="translate(-10464 -1035)">
<g id="Position">
<g id="Group">
<g id="Vector">
<use xlink:href="#path0_fill" transform="translate(10483.1 1053.75)" fill="#CED6D5"/>
</g>
<g id="Vector">
<use xlink:href="#path1_fill" transform="translate(10483.6 1035.81)" fill="#CED6D5"/>
</g>
<g id="Vector">
<use xlink:href="#path2_fill" transform="translate(10487.6 1045.58)" fill="#CED6D5"/>
</g>
<g id="Vector">
<use xlink:href="#path3_fill" transform="translate(10488.5 1038.15)" fill="#CED6D5"/>
</g>
<g id="Vector">
<use xlink:href="#path4_fill" transform="translate(10467.1 1038.12)" fill="#CED6D5"/>
</g>
<g id="Vector">
<use xlink:href="#path5_fill" transform="translate(10464.6 1053.75)" fill="#CED6D5"/>
</g>
<g id="Vector">
<use xlink:href="#path6_fill" transform="translate(10470.9 1035.81)" fill="#CED6D5"/>
</g>
<g id="Vector">
<use xlink:href="#path7_fill" transform="translate(10464 1045.58)" fill="#CED6D5"/>
</g>
<g id="Vector">
<use xlink:href="#path8_fill" transform="translate(10468.8 1057.89)" fill="#CED6D5"/>
</g>
</g>
<g id="2">
<use xlink:href="#path9_fill" transform="translate(10475.5 1038.85)" fill="#CED6D5"/>
</g>
</g>
</g>
<defs>
<path id="path0_fill" d="M 0.495502 3.28084C 2.8801 0.455163 6.93702 -0.386527 10.5294 0.15456L 11.2727 0.2748L 10.8081 0.876007C 8.51644 3.79186 4.30467 4.72373 0.743252 4.00229L 2.36274e-07 3.85198L 0.495502 3.28084Z"/>
<path id="path1_fill" d="M 0.982861 0.420845C 3.49134 2.37477 5.00881 5.62129 4.35847 8.74757L 4.23459 9.43895L 3.64618 9.01811C 1.07577 7.15437 -0.658489 3.72749 0.239608 0.631268L 0.425421 0L 0.982861 0.420845Z"/>
<path id="path2_fill" d="M 7.24671 0.691388C 6.75121 4.11827 4.24273 7.54515 0.650347 8.32672L 9.45095e-07 8.47702L 0.123875 7.81569C 0.774221 4.41887 3.22076 1.2926 6.68927 0.210423L 7.37059 0L 7.24671 0.691388Z"/>
<path id="path3_fill" d="M 2.65 0.661328C 3.98166 3.6373 3.57907 7.24455 1.53512 9.82974L 1.03962 10.4309L 0.729931 9.7095C -0.508823 6.73352 -0.199136 3.12628 1.87578 0.571147L 2.34031 5.73356e-08L 2.65 0.661328Z"/>
<path id="path4_fill" d="M 1.54646 0.601207C 3.62137 3.1864 3.93106 6.76358 2.6923 9.73956L 2.38262 10.461L 1.88711 9.8598C -0.156831 7.27461 -0.559427 3.66736 0.772234 0.691388L 1.08192 -5.73356e-08L 1.54646 0.601207Z"/>
<path id="path5_fill" d="M 10.5294 4.00491C 6.96799 4.72636 2.75623 3.79448 0.464533 0.878628L -7.38355e-09 0.277421L 0.743253 0.15718C 4.33564 -0.383906 8.39256 0.427723 10.7772 3.28346L 11.2417 3.85461L 10.5294 4.00491Z"/>
<path id="path6_fill" d="M 4.25914 0.631268C 5.18821 3.72749 3.45395 7.15437 0.85257 9.01811L 0.264162 9.43895L 0.140286 8.74757C -0.479091 5.62129 1.00741 2.37477 3.51589 0.420845L 4.07333 0L 4.25914 0.631268Z"/>
<path id="path7_fill" d="M 0.681315 0.210423C 4.14983 1.26254 6.59637 4.38881 7.24671 7.81569L 7.37059 8.47702L 6.72024 8.32672C 3.09689 7.54515 0.588408 4.11827 0.0929066 0.691388L 0 0L 0.681315 0.210423Z"/>
<path id="path8_fill" d="M 13.1927 2.29837C 13.7811 2.89958 14.3696 3.47072 15.0818 3.95169L 15.5773 4.25229L 15.1438 4.64308C 14.958 4.79338 14.8031 4.94368 14.6173 5.12404L 14.4005 5.3044L 14.1218 5.18416C 12.4495 4.49277 11.985 2.74927 10.6843 1.93765C 9.38357 2.74927 8.91903 4.49277 7.24671 5.18416L 6.96799 5.3044L 6.75121 5.09398C 6.5654 4.94368 6.41055 4.79338 6.22474 4.61302L 5.79118 4.22223L 6.28668 3.92163C 6.99896 3.47072 7.58737 2.86952 8.17578 2.26831C 7.37059 2.65909 6.59637 3.11 5.6673 3.2603C 4.05692 3.53084 2.2917 3.62103 0.743253 2.9597L 5.50118e-16 2.62903L 0.681315 2.17813C 2.19879 1.15607 3.84014 0.194143 5.76021 0.0438415C 7.24671 -0.0463396 8.76419 0.0137816 10.2507 0.314385L 10.2817 0.314385L 10.3126 0.314385C 10.5914 0.404566 10.8701 0.404566 11.1488 0.314385L 11.1798 0.314385L 11.2107 0.314385C 12.6663 -0.0162788 14.1837 -0.0463396 15.7012 0.0438415C 17.5903 0.194143 19.2317 1.15607 20.7801 2.17813L 21.4614 2.62903L 20.7182 2.9597C 19.1697 3.62103 17.4355 3.53084 15.7941 3.2603C 14.8031 3.14006 13.9979 2.68915 13.1927 2.29837Z"/>
<path id="path9_fill" d="M 7.27344 15L 0.914062 15L 0.914062 13.9609L 4.15625 9.66406C 4.64583 9.0026 4.98438 8.46094 5.17188 8.03906C 5.36458 7.61198 5.46094 7.16146 5.46094 6.6875C 5.46094 6.08333 5.32031 5.59375 5.03906 5.21875C 4.75781 4.84375 4.38802 4.65625 3.92969 4.65625C 3.35156 4.65625 2.90365 4.85677 2.58594 5.25781C 2.27344 5.65365 2.11719 6.22656 2.11719 6.97656L 0.734375 6.97656C 0.734375 5.92969 1.02083 5.08333 1.59375 4.4375C 2.16667 3.79167 2.94531 3.46875 3.92969 3.46875C 4.83594 3.46875 5.54948 3.7474 6.07031 4.30469C 6.59115 4.85677 6.85156 5.59375 6.85156 6.51562C 6.85156 7.64062 6.26562 8.97135 5.09375 10.5078L 2.5625 13.8203L 7.27344 13.8203L 7.27344 15Z"/>
</defs>
</svg>
