<svg width="363" height="249" viewBox="0 0 363 249" fill="none" xmlns="http://www.w3.org/2000/svg">
<path d="M90.5412 228.217L45.2767 241.221L45.2769 241.26L0.03125 228.256V235.985L45.2769 248.988L45.2767 248.95L90.5412 235.946V228.217Z" fill="#EC0F69"/>
<path d="M90.5412 207.524L45.2767 220.547L45.2769 220.586L0.03125 207.582V215.311L45.2769 228.314L45.2767 228.256L90.5412 215.253V207.524Z" fill="#EC0F69"/>
<path d="M90.5412 186.85L45.2767 199.853V199.892L0.03125 186.889V194.617L45.2769 207.621V207.582L90.5412 194.578V186.85Z" fill="#EC0F69"/>
<path d="M90.5412 166.156L45.2767 179.16V179.198L0.03125 166.176V173.904L45.2769 186.927V186.908L90.5412 173.885V166.156Z" fill="#EC0F69"/>
<path d="M90.5412 145.463L45.2767 158.485V158.524L0.03125 145.521V153.249L45.2769 166.253V166.195L90.5412 153.191V145.463Z" fill="#EC0F69"/>
<path d="M90.5412 124.788L45.2767 137.792V137.831L0.03125 124.827V132.556L45.2769 145.559V145.521L90.5412 132.517V124.788Z" fill="#EC0F69"/>
<path d="M90.5412 104.095L45.2767 117.098V117.137L0.03125 104.114V111.843L45.2769 124.866V124.846L90.5412 111.824V104.095Z" fill="#EC0F69"/>
<path d="M90.5412 83.4013L45.2767 96.4048V96.4437L0.03125 83.4402V91.1689L45.2769 104.172V104.133L90.5412 91.13V83.4013Z" fill="#EC0F69"/>
<path d="M90.5412 62.7078L45.2767 75.7306V75.7694L0.03125 62.7659V70.4946L45.2769 83.4981V83.4399L90.5412 70.4364V62.7078Z" fill="#EC0F69"/>
<path d="M90.5412 42.0336L45.2767 55.037V55.0759L0.03125 42.0724V49.8011L45.2769 62.8046V62.7657L90.5412 49.7623V42.0336Z" fill="#EC0F69"/>
<path d="M90.5412 21.34L45.2767 34.3435V34.3823L0.03125 21.3595V29.0882L45.2769 42.111V42.0915L90.5412 29.0687V21.34Z" fill="#EC0F69"/>
<path d="M90.5412 8.37516V0.646484L45.2767 13.65V13.7081L0.03125 0.704649V8.43333L45.2769 21.4368V21.3787L90.5412 8.37516Z" fill="#EC0F69"/>
<path d="M135.786 241.221L181.031 228.217V235.946L135.786 248.95L135.786 248.988L90.5413 235.985V228.256L135.786 241.26L135.786 241.221Z" fill="#EC0F69"/>
<path d="M135.786 220.547L181.031 207.524V215.253L135.786 228.256L135.786 228.314L90.5413 215.311V207.582L135.786 220.586L135.786 220.547Z" fill="#EC0F69"/>
<path d="M135.786 199.853L181.031 186.85V194.578L135.786 207.582V207.621L90.5413 194.617V186.889L135.786 199.892V199.853Z" fill="#EC0F69"/>
<path d="M135.786 179.16L181.031 166.156V173.885L135.786 186.908V186.927L90.5413 173.904V166.176L135.786 179.198V179.16Z" fill="#EC0F69"/>
<path d="M135.786 158.485L181.031 145.463V153.191L135.786 166.195V166.253L90.5413 153.249V145.521L135.786 158.524V158.485Z" fill="#EC0F69"/>
<path d="M135.786 137.792L181.031 124.788V132.517L135.786 145.521V145.559L90.5413 132.556V124.827L135.786 137.831V137.792Z" fill="#EC0F69"/>
<path d="M135.786 117.098L181.031 104.095V111.824L135.786 124.846V124.866L90.5413 111.843V104.114L135.786 117.137V117.098Z" fill="#EC0F69"/>
<path d="M135.786 96.4048L181.031 83.4013V91.13L135.786 104.133V104.172L90.5413 91.1689V83.4402L135.786 96.4437V96.4048Z" fill="#EC0F69"/>
<path d="M135.786 75.7306L181.031 62.7078V70.4364L135.786 83.4399V83.4981L90.5413 70.4946V62.7659L135.786 75.7694V75.7306Z" fill="#EC0F69"/>
<path d="M135.786 55.037L181.031 42.0336V49.7623L135.786 62.7657V62.8046L90.5413 49.8011V42.0724L135.786 55.0759V55.037Z" fill="#EC0F69"/>
<path d="M135.786 34.3435L181.031 21.34V29.0687L135.786 42.0915V42.111L90.5413 29.0882V21.3595L135.786 34.3823V34.3435Z" fill="#EC0F69"/>
<path d="M181.031 0.646484V8.37516L135.786 21.3786V21.4368L90.5413 8.43333V0.704649L135.786 13.7081V13.65L181.031 0.646484Z" fill="#EC0F69"/>
<path d="M226.277 241.221L271.522 228.217L271.522 228.256L316.786 241.26V248.988L271.522 235.985L271.522 235.946L226.277 248.95V241.221Z" fill="#EC0F69"/>
<path d="M226.277 220.547L271.522 207.524L271.522 207.582L316.786 220.586V228.314L271.522 215.311L271.522 215.253L226.277 228.256V220.547Z" fill="#EC0F69"/>
<path d="M226.277 199.853L271.522 186.85L271.522 186.889L316.786 199.892V207.621L271.522 194.617L271.522 194.578L226.277 207.582V199.853Z" fill="#EC0F69"/>
<path d="M226.277 179.16L271.522 166.156L271.522 166.176L316.786 179.199V186.927L271.522 173.904L271.522 173.885L226.277 186.908V179.16Z" fill="#EC0F69"/>
<path d="M226.277 158.485L271.522 145.463L271.522 145.521L316.786 158.524V166.253L271.522 153.249L271.522 153.191L226.277 166.195V158.485Z" fill="#EC0F69"/>
<path d="M226.277 137.792L271.522 124.788L271.522 124.827L316.786 137.831V145.559L271.522 132.556L271.522 132.517L226.277 145.521V137.792Z" fill="#EC0F69"/>
<path d="M226.277 117.098L271.522 104.095L271.522 104.114L316.786 117.137V124.866L271.522 111.843L271.522 111.824L226.277 124.846V117.098Z" fill="#EC0F69"/>
<path d="M226.277 96.4048L271.522 83.4013L271.522 83.4402L316.786 96.4437V104.172L271.522 91.1689L271.522 91.13L226.277 104.133V96.4048Z" fill="#EC0F69"/>
<path d="M226.277 75.7306L271.522 62.7078L271.522 62.7659L316.786 75.7695V83.4981L271.522 70.4946L271.522 70.4364L226.277 83.44V75.7306Z" fill="#EC0F69"/>
<path d="M226.277 55.037L271.522 42.0336L271.522 42.0724L316.786 55.0759V62.8046L271.522 49.8011L271.522 49.7623L226.277 62.7657V55.037Z" fill="#EC0F69"/>
<path d="M226.277 34.3435L271.522 21.34L271.522 21.3595L316.786 34.3824V42.111L271.522 29.0882L271.522 29.0687L226.277 42.0915V34.3435Z" fill="#EC0F69"/>
<path d="M271.522 0.646484V0.704685L316.786 13.7082V21.4368L271.522 8.43333L271.522 8.37516L226.277 21.3787V13.65L271.522 0.646484Z" fill="#EC0F69"/>
<path d="M226.277 248.988V241.26L181.032 228.179V235.908L226.277 248.988Z" fill="#EC0F69"/>
<path d="M226.277 228.314V220.586L181.032 207.582V215.311L226.277 228.314Z" fill="#EC0F69"/>
<path d="M226.277 207.621V199.892L181.032 186.889V194.617L226.277 207.621Z" fill="#EC0F69"/>
<path d="M226.277 186.927V179.199L181.031 166.156V173.885L226.277 186.927Z" fill="#EC0F69"/>
<path d="M226.277 166.253V158.524L181.032 145.521V153.249L226.277 166.253Z" fill="#EC0F69"/>
<path d="M226.277 145.559V137.831L181.032 124.827V132.556L226.277 145.559Z" fill="#EC0F69"/>
<path d="M226.277 124.866V117.137L181.032 104.114V111.843L226.277 124.866Z" fill="#EC0F69"/>
<path d="M226.277 104.172V96.4437L181.032 83.4402V91.1689L226.277 104.172Z" fill="#EC0F69"/>
<path d="M226.277 83.4981V75.7695L181.032 62.7659V70.4946L226.277 83.4981Z" fill="#EC0F69"/>
<path d="M226.277 62.8046V55.0759L181.032 42.0724V49.8011L226.277 62.8046Z" fill="#EC0F69"/>
<path d="M226.277 42.111V34.3824L181.032 21.2436V28.9723L226.277 42.111Z" fill="#EC0F69"/>
<path d="M226.277 21.4368V13.7082L181.032 0.704649V8.43333L226.277 21.4368Z" fill="#EC0F69"/>
<path d="M316.786 241.221L362.031 228.217V235.946L316.786 248.95V241.221Z" fill="#EC0F69"/>
<path d="M316.786 220.547L362.031 207.524V215.253L316.786 228.256V220.547Z" fill="#EC0F69"/>
<path d="M316.786 199.853L362.031 186.85V194.578L316.786 207.582V199.853Z" fill="#EC0F69"/>
<path d="M316.786 179.16L362.031 166.156V173.885L316.786 186.908V179.16Z" fill="#EC0F69"/>
<path d="M316.786 158.485L362.031 145.463V153.191L316.786 166.195V158.485Z" fill="#EC0F69"/>
<path d="M316.786 137.792L362.031 124.788V132.517L316.786 145.521V137.792Z" fill="#EC0F69"/>
<path d="M316.786 117.098L362.031 104.095V111.824L316.786 124.846V117.098Z" fill="#EC0F69"/>
<path d="M316.786 96.4048L362.031 83.4013V91.13L316.786 104.133V96.4048Z" fill="#EC0F69"/>
<path d="M316.786 75.7306L362.031 62.7078V70.4364L316.786 83.44V75.7306Z" fill="#EC0F69"/>
<path d="M316.786 55.037L362.031 42.0336V49.7623L316.786 62.7657V55.037Z" fill="#EC0F69"/>
<path d="M316.786 34.3435L362.031 21.34V29.0687L316.786 42.0915V34.3435Z" fill="#EC0F69"/>
<path d="M362.031 0.646484V8.37516L316.786 21.3787V13.65L362.031 0.646484Z" fill="#EC0F69"/>
</svg>
