<svg width="48" height="42" viewBox="0 0 48 42" version="1.1" xmlns="http://www.w3.org/2000/svg" xmlns:xlink="http://www.w3.org/1999/xlink">
<title>Vector</title>
<desc>Created using Figma</desc>
<g id="Canvas" transform="translate(-17386 -13353)">
<g id="Vector">
<use xlink:href="#path0_fill" transform="translate(17386 13353)" fill="#9BC3D4"/>
<use xlink:href="#path1_fill" transform="translate(17386 13353)" fill="#9BC3D4"/>
<use xlink:href="#path2_fill" transform="translate(17386 13353)" fill="#9BC3D4"/>
<use xlink:href="#path3_fill" transform="translate(17386 13353)" fill="#9BC3D4"/>
<use xlink:href="#path4_fill" transform="translate(17386 13353)" fill="#9BC3D4"/>
<use xlink:href="#path5_fill" transform="translate(17386 13353)" fill="#9BC3D4"/>
<use xlink:href="#path6_fill" transform="translate(17386 13353)" fill="#9BC3D4"/>
<use xlink:href="#path7_fill" transform="translate(17386 13353)" fill="#9BC3D4"/>
<use xlink:href="#path8_fill" transform="translate(17386 13353)" fill="#9BC3D4"/>
<use xlink:href="#path9_fill" transform="translate(17386 13353)" fill="#9BC3D4"/>
</g>
</g>
<defs>
<path id="path0_fill" d="M 30.3532 32.3992C 34.0455 28.0855 40.3271 26.8005 45.8896 27.6266L 47.0404 27.8101L 46.3211 28.728C 42.7727 33.1793 36.2512 34.602 30.7368 33.5006L 29.5859 33.2711L 30.3532 32.3992Z"/>
<path id="path1_fill" d="M 31.7933 0.642469C 35.6774 3.62536 38.0271 8.58155 37.0201 13.3542L 36.8283 14.4097L 35.9172 13.7672C 31.9372 10.922 29.2519 5.69044 30.6425 0.963703L 30.9302 0L 31.7933 0.642469Z"/>
<path id="path2_fill" d="M 47.8067 15.9695C 47.0394 21.2011 43.1553 26.4326 37.5929 27.6258L 36.5859 27.8552L 36.7777 26.8456C 37.7847 21.66 41.5729 16.8874 46.9435 15.2353L 47.9985 14.9141L 47.8067 15.9695Z"/>
<path id="path3_fill" d="M 42.0056 4.5887C 44.0675 9.13187 43.4441 14.6387 40.2793 18.5853L 39.5121 19.5032L 39.0326 18.4018C 37.1145 13.8586 37.594 8.35173 40.8068 4.45102L 41.5261 3.5791L 42.0056 4.5887Z"/>
<path id="path4_fill" d="M 7.14647 4.45199C 10.3592 8.39859 10.8388 13.8596 8.92068 18.4027L 8.44117 19.5041L 7.67394 18.5863C 4.50912 14.6397 3.88574 9.13284 5.94767 4.58966L 6.42719 3.53418L 7.14647 4.45199Z"/>
<path id="path5_fill" d="M 17.2138 33.4997C 11.6993 34.6011 5.17787 33.1785 1.62943 28.7271L 0.910156 27.8093L 2.061 27.6257C 7.62341 26.7997 13.9051 28.0387 17.5974 32.3983L 18.3167 33.2702L 17.2138 33.4997Z"/>
<path id="path6_fill" d="M 17.3097 0.963703C 18.7482 5.69044 16.0629 10.922 12.035 13.7672L 11.1239 14.4097L 10.9321 13.3542C 9.97302 8.58155 12.2747 3.62536 16.1588 0.642469L 17.0219 0L 17.3097 0.963703Z"/>
<path id="path7_fill" d="M 1.05494 15.2353C 6.42554 16.8415 10.2137 21.6141 11.2207 26.8456L 11.4125 27.8552L 10.4055 27.6258C 4.79518 26.4326 0.911084 21.2011 0.143855 15.9695L 0 14.9141L 1.05494 15.2353Z"/>
<path id="path8_fill" d="M 27.8611 37.2177C 28.7722 38.1355 29.6832 39.0074 30.7861 39.7417L 31.5534 40.2006L 30.882 40.7972C 30.5943 41.0266 30.3546 41.2561 30.0669 41.5314L 29.7312 41.8068L 29.2996 41.6232C 26.7102 40.5677 25.9909 37.9061 23.977 36.667C 21.963 37.9061 21.2437 40.5677 18.6543 41.6232L 18.2228 41.8068L 17.8871 41.4855C 17.5994 41.2561 17.3596 41.0266 17.0719 40.7513L 16.4006 40.1547L 17.1678 39.6958C 18.2707 39.0074 19.1818 38.0896 20.0929 37.1718C 18.8461 37.7684 17.6473 38.4568 16.2088 38.6862C 13.7153 39.0992 10.982 39.2369 8.58444 38.2273L 7.43359 37.7225L 8.48853 37.0341C 10.8382 35.4739 13.3796 34.0054 16.3526 33.7759C 18.6543 33.6382 21.004 33.73 23.3056 34.1889L 23.4015 34.1889C 23.8331 34.3266 24.2647 34.3266 24.6962 34.1889L 24.7922 34.1889C 27.0459 33.6841 29.3955 33.6382 31.7452 33.7759C 34.6702 34.0054 37.2117 35.4739 39.6093 37.0341L 40.6642 37.7225L 39.5134 38.2273C 37.1158 39.2369 34.4305 39.0992 31.889 38.6862C 30.3546 38.5027 29.1078 37.8143 27.8611 37.2177Z"/>
<path id="path9_fill" d="M 28.3066 27L 19.9277 27L 19.9277 25.0469L 23.7754 20.1543C 24.2637 19.4772 24.6217 18.8848 24.8496 18.377C 25.084 17.8626 25.2012 17.3711 25.2012 16.9023C 25.2012 16.2708 25.0905 15.776 24.8691 15.418C 24.6543 15.0599 24.3418 14.8809 23.9316 14.8809C 23.4824 14.8809 23.1243 15.0892 22.8574 15.5059C 22.597 15.9225 22.4668 16.5085 22.4668 17.2637L 19.6934 17.2637C 19.6934 16.3913 19.8724 15.5938 20.2305 14.8711C 20.5951 14.1484 21.1029 13.5885 21.7539 13.1914C 22.4115 12.7878 23.1536 12.5859 23.9805 12.5859C 25.25 12.5859 26.2331 12.9375 26.9297 13.6406C 27.6328 14.3372 27.9844 15.3301 27.9844 16.6191C 27.9844 17.4199 27.7891 18.2337 27.3984 19.0605C 27.0143 19.8809 26.3145 20.8932 25.2988 22.0977L 23.4727 24.7051L 28.3066 24.7051L 28.3066 27Z"/>
</defs>
</svg>
