<svg width="50" height="50" viewBox="0 0 50 50" fill="none" xmlns="http://www.w3.org/2000/svg">
<path d="M18.3325 14.4972L32.6775 16.9982L35.7707 7.52401L42.333 18.1853L39.241 20.9476L34.6703 35.5095L15.9581 42.3178L5.39844 28.5742L10.922 13.7724L9.17416 11.8067L21.3904 3.95312L18.3325 14.4972Z" fill="url(#paint0_linear_873_161839)"/>
<path d="M38.1978 9.24503L44.649 18.8672L44.1334 20.1461L44.6064 20.2586L38.7341 39.6855L15.2756 48.5003L14.1919 47.8242L1.73437 30.5557L1.88695 29.614L14.196 46.7728L37.5191 38.0414L42.7865 20.7519L42.3454 20.7523L42.3455 18.2396L35.7659 7.52344L38.1978 9.24503Z" fill="url(#paint1_linear_873_161839)"/>
<path fill-rule="evenodd" clip-rule="evenodd" d="M22.8926 6.90261L20.6413 13.123L20.1441 14.5571L26.4144 15.7313L32.6846 16.9054L33.0634 15.7506L34.1502 12.4534L34.1492 12.4521L34.4058 11.6844L37.5555 16.8474L38.2715 17.9519L40.0925 18.2931L34.6684 35.5093L15.9561 42.3181L5.39062 28.6378L11.253 12.8926L12.9712 13.214L16.1695 10.3527L19.5802 8.91458L21.3991 3.94141L22.8926 6.90261ZM6.55063 28.8423L16.4009 41.6585L34.1489 35.2696L39.401 18.4995L35.9955 17.8898L32.5899 17.28L25.7789 16.0605L19.9874 15.0235L15.8853 14.2891L12.1568 13.6215L6.55063 28.8423ZM33.7297 15.9487L33.3514 17.0303L37.5915 17.8246L37.1354 17.0871L34.6154 13.1758L33.7297 15.9487ZM14.4858 13.4974L16.0787 13.7955L17.6716 14.0937L17.8452 13.6612L18.9881 10.5335L14.4858 13.4974Z" fill="#3B150E"/>
<path d="M20.0044 8.73988L13.947 12.6136L13.0626 13.5611L11.8581 13.4648L10.476 15.0364L5.38516 28.6369L15.9852 42.2886L34.6683 35.4452L39.4909 20.1676L39.8673 18.3632L38.218 18.0464L34.3992 11.6828L35.7629 7.52359L43.311 19.1218L43.3313 19.1261L37.515 38.0403L14.1888 46.8039L1.88281 29.6129L8.24646 12.7097L8.90926 11.9809L21.3706 3.95313L20.0044 8.73988Z" fill="url(#paint2_linear_873_161839)"/>
<path d="M9.41656 13.0529L3.07812 26.4136L8.40413 12.2854L8.66524 12.1028L16.1447 7.35156L9.41656 13.0529Z" fill="#FFCBAD"/>
<path d="M37.6534 37.9989L41.4716 25.1797L36.2073 36.9144L19.1719 44.9268L37.6534 37.9989Z" fill="#DD8A62"/>
<g opacity="0.7" filter="url(#filter0_f_873_161839)">
<path d="M19.7227 15.3174L20.3184 14.5933L32.6797 16.9082L32.9072 16.2134L33.0352 17.6587L33 17.6509L44.5186 20.5415L42.8501 26.061L33.2153 31.0356L32.8657 41.8921L27.1763 44.0298L20.3633 36.792L8.8833 40.4727L5.48438 35.7612L12.438 25.1914L6.9165 16.2339L7.76904 13.9727L19.7227 15.3174Z" fill="#150601"/>
</g>
<path d="M29.9948 1.03516L28.3144 2.80592L19.2368 13.8396L4.85801 12.2214L11.9408 23.7119L1.71875 39.2507L18.8157 33.6987L30.8815 46.6307L31.4682 28.0503L47.3507 19.8977L31.3341 15.8778L29.9948 1.03516Z" fill="url(#paint3_linear_873_161839)"/>
<path d="M28.3273 2.79297L19.2263 13.8409L19.7398 13.948L4.4375 36.0212L18.6515 31.244L16.5376 28.837L29.1041 17.3058L29.5607 26.0023L43.2085 19.4987L29.4489 15.6322L28.3273 2.79297Z" fill="url(#paint4_linear_873_161839)"/>
<path d="M12.6243 22.8297L18.7961 14.1796L6.3844 12.807L12.6243 22.8297Z" fill="url(#paint5_linear_873_161839)"/>
<path d="M27.8414 19.1563L28.7646 41.8881L17.3368 28.8889L27.8414 19.1563Z" fill="url(#paint6_linear_873_161839)"/>
<path d="M31.3526 2.74035L29.9948 1.03516L31.3311 15.9091L32.5379 16.179L31.3526 2.74035Z" fill="url(#paint7_linear_873_161839)"/>
<path d="M48.2765 21.524L47.3544 19.8971L31.4587 28.0509L30.8815 46.6307L18.8157 33.6988L1.71875 39.2507L3.13407 40.677L19.8662 35.3123L32.1141 48.3243L32.7182 29.556L48.2765 21.524Z" fill="url(#paint8_linear_873_161839)"/>
<path d="M19.7273 13.9414L6.67188 32.8113L20.5195 15.3495L29.3691 15.6235L19.7273 13.9414Z" fill="white"/>
<path d="M27.8405 19.1211L28.001 23.1788L27.519 20.5442L19.1186 28.7033L22.9617 35.2819L17.3359 28.8537L27.8405 19.1211Z" fill="#F8F0E6"/>
<defs>
<filter id="filter0_f_873_161839" x="3.48438" y="11.9727" width="43.0312" height="34.0586" filterUnits="userSpaceOnUse" color-interpolation-filters="sRGB">
<feFlood flood-opacity="0" result="BackgroundImageFix"/>
<feBlend mode="normal" in="SourceGraphic" in2="BackgroundImageFix" result="shape"/>
<feGaussianBlur stdDeviation="1" result="effect1_foregroundBlur_873_161839"/>
</filter>
<linearGradient id="paint0_linear_873_161839" x1="23.8657" y1="8.05413" x2="26.8744" y2="42.3178" gradientUnits="userSpaceOnUse">
<stop stop-color="#60352A"/>
<stop offset="1" stop-color="#612D1B"/>
</linearGradient>
<linearGradient id="paint1_linear_873_161839" x1="30.964" y1="-0.499681" x2="17.464" y2="45.7503" gradientUnits="userSpaceOnUse">
<stop stop-color="#864326"/>
<stop offset="1" stop-color="#2D0D08"/>
</linearGradient>
<linearGradient id="paint2_linear_873_161839" x1="22.607" y1="3.95313" x2="22.607" y2="46.8039" gradientUnits="userSpaceOnUse">
<stop stop-color="#DD966A"/>
<stop offset="1" stop-color="#913B1F"/>
</linearGradient>
<linearGradient id="paint3_linear_873_161839" x1="7.37689" y1="11.1873" x2="24.5347" y2="34.3745" gradientUnits="userSpaceOnUse">
<stop stop-color="#AC4316"/>
<stop offset="1" stop-color="#6D1900"/>
</linearGradient>
<linearGradient id="paint4_linear_873_161839" x1="18.4863" y1="13.6947" x2="28.2642" y2="41.0039" gradientUnits="userSpaceOnUse">
<stop stop-color="#F6F1EC"/>
<stop offset="0.548722" stop-color="#D5833B"/>
<stop offset="1" stop-color="#B34500"/>
</linearGradient>
<linearGradient id="paint5_linear_873_161839" x1="18.4863" y1="13.6947" x2="28.2642" y2="41.0039" gradientUnits="userSpaceOnUse">
<stop stop-color="#F6F1EC"/>
<stop offset="0.548722" stop-color="#D5833B"/>
<stop offset="1" stop-color="#B34500"/>
</linearGradient>
<linearGradient id="paint6_linear_873_161839" x1="18.4863" y1="13.6947" x2="28.2642" y2="41.0039" gradientUnits="userSpaceOnUse">
<stop stop-color="#F6F1EC"/>
<stop offset="0.548722" stop-color="#D5833B"/>
<stop offset="1" stop-color="#B34500"/>
</linearGradient>
<linearGradient id="paint7_linear_873_161839" x1="27.7401" y1="0.826008" x2="16.7692" y2="40.0979" gradientUnits="userSpaceOnUse">
<stop stop-color="#601811"/>
<stop offset="1" stop-color="#2E0E08"/>
</linearGradient>
<linearGradient id="paint8_linear_873_161839" x1="27.7401" y1="0.826008" x2="16.7692" y2="40.0979" gradientUnits="userSpaceOnUse">
<stop stop-color="#601811"/>
<stop offset="1" stop-color="#2E0E08"/>
</linearGradient>
</defs>
</svg>
