<svg width="398" height="398" viewBox="0 0 398 398" fill="none" xmlns="http://www.w3.org/2000/svg">
<path d="M199 0L221.318 101.219L285.343 19.7072L261.534 120.585L354.584 74.9255L289.364 155.483L393.011 154.718L299.296 199L393.011 243.282L289.364 242.517L354.584 323.074L261.534 277.415L285.343 378.293L221.318 296.781L199 398L176.682 296.781L112.657 378.293L136.466 277.415L43.4155 323.074L108.636 242.517L4.98935 243.282L98.704 199L4.98935 154.718L108.636 155.483L43.4155 74.9255L136.466 120.585L112.657 19.7072L176.682 101.219L199 0Z" fill="white" fill-opacity="0.1"/>
</svg>
