<svg width="30" height="24" viewBox="0 0 30 24" fill="none" xmlns="http://www.w3.org/2000/svg">
<path fill-rule="evenodd" clip-rule="evenodd" d="M26.5568 18.72C23.7244 22.5746 18.6881 24 18.6881 24C17.354 23.534 13.6082 21.8461 11.3112 18.72C11.094 18.4244 10.8909 18.1201 10.7002 17.8099L13.724 16.5451L13.2783 18.72L15.7373 17.28V19.68L18.6881 16.8V22.0342C19.4384 21.7951 23.0226 20.5334 25.1432 17.6448C28.1475 13.5521 28.0321 7.5648 28.0321 7.5648C28.0321 7.5648 26.595 7.00462 25.9686 5.952C25.2209 4.69571 25.1432 3.1296 25.1432 3.1296C25.1432 3.1296 23.882 2.05167 19.3647 1.932L19.3652 1.92H18.6881V7.2L15.2455 3.36L15.7373 7.2L11.9888 4.91334C11.9632 4.98982 11.9329 5.06607 11.9035 5.14342L12.7641 8.08309L8.40891 6.46375C8.97568 6.16375 9.84845 5.60444 10.3276 4.8C11.2186 3.30436 11.3112 1.44 11.3112 1.44C11.3112 1.44 12.814 0.156764 18.1969 0.0142911L18.1963 0H19.6717L19.6711 0.0142911C25.054 0.156764 26.5568 1.44 26.5568 1.44C26.5568 1.44 26.6495 3.30436 27.5403 4.8C28.2868 6.05313 29.9993 6.72 29.9993 6.72C29.9993 6.72 30.1368 13.8478 26.5568 18.72ZM13.7702 9.6H14.7538C14.7538 9.6 23.1142 10.0642 23.1142 12.5105C23.1142 14.8261 14.8917 15.3513 14.7652 15.3592V15.3751H3.07348e-08V9.61364H13.7702V9.6ZM13.6149 11.04H12.7866V13.92H13.6149C13.6149 13.92 20.6553 13.662 20.6553 12.4953C20.6553 11.2721 13.6149 11.04 13.6149 11.04Z" fill="#9CC3D4"/>
</svg>
