<svg width="24" height="24" viewBox="0 0 24 24" fill="none" xmlns="http://www.w3.org/2000/svg">
<path fill-rule="evenodd" clip-rule="evenodd" d="M12.0714 4.5C14.0708 4.50036 15.3199 5.2992 15.7181 7.07797C15.8038 7.46109 15.8038 8.08557 15.8038 8.83954C15.8038 8.96081 15.8055 9.06778 15.807 9.16529C15.8147 9.67398 15.8185 9.92485 15.5662 10.6033C15.539 10.6763 15.2856 10.7706 15.2728 10.7688C15.0801 11.6807 14.6591 12.7298 13.9751 13.2387V13.8742C14.1381 14.1408 14.2342 14.224 14.518 14.3048C14.868 14.4044 15.7356 14.5597 17.1586 14.8145C17.789 14.9274 18.5284 15.0597 19.3802 15.2154L20.3761 17.0652L12.3906 21L4.44786 17.0652L5.43108 15.2154C9.1427 14.6563 10.1834 14.2362 10.1834 13.8742V13.2387C9.49948 12.7298 9.14248 11.7474 8.94973 10.8355C8.94302 10.8364 8.91099 10.818 8.88019 10.8003C8.85231 10.7843 8.82543 10.7688 8.81925 10.7688C8.49896 10.7688 8.46087 9.80861 8.43375 9.12479C8.43332 9.11409 8.4329 9.10346 8.43248 9.0929C8.41088 8.55693 8.38345 7.73105 8.43248 7.46109C8.81925 5.33172 9.74655 4.5 12.0714 4.5ZM6.21283 5.4775L6.39986 5.47732C6.39675 5.52847 6.39518 5.58079 6.39518 5.63431V7.6944V7.85573C5.78038 7.81852 5.13039 7.60134 4.48685 7.2773C4.02988 7.45171 3.51777 8.08718 3.51777 8.40489C3.96906 8.33275 4.35404 8.57343 4.60477 8.73019C4.68197 8.77846 4.74645 8.81877 4.79622 8.83954C4.99632 8.89295 5.1697 8.9401 5.3216 8.9814L5.32211 8.98154L5.32212 8.98154C5.89615 9.13763 6.16337 9.21029 6.40748 9.22287C6.44332 9.94247 6.5627 10.6444 6.83257 11.3522C6.96331 11.695 7.10621 11.9494 7.23168 12.1727C7.34858 12.3808 7.45036 12.5619 7.51312 12.7627C7.04851 13.2601 6.39508 13.642 5.09131 13.6441C3.21864 12.8224 2.54381 10.7877 2.49641 9.67744C1.94449 8.90327 2.44981 7.29925 2.75116 6.85924C3.29515 6.06495 4.62951 5.4775 6.21283 5.4775ZM16.4731 12.4847C16.4359 12.4299 16.3962 12.3715 16.3525 12.309C16.6154 11.6861 16.953 11.0369 16.953 11.0369C16.953 11.0369 17.3465 9.70814 17.3465 8.80285V7.63047V7.07797V5.4775L17.3465 5.46959C17.5955 5.47364 17.8588 5.4775 18.1349 5.4775C19.831 5.4775 20.6023 5.92629 21.1448 6.24195C21.5626 6.48505 21.8447 6.64918 22.309 6.46859C22.5018 6.73894 22.7062 7.88057 22.0659 8.24862C21.2372 8.72494 20.6282 8.61361 20.0939 8.51593C19.5816 8.42226 19.138 8.34115 18.6351 8.80285C19.2734 8.77767 19.5121 8.98814 19.7648 9.21094C20.0716 9.48139 20.399 9.77001 21.4865 9.67744C21.4865 9.67744 21.0109 13.0392 18.3757 13.5273C16.9676 13.2131 16.8317 13.013 16.4731 12.4847Z" fill="white" fill-opacity="0.25"/>
</svg>
