<svg width="64" height="60" viewBox="0 0 64 60" fill="none" xmlns="http://www.w3.org/2000/svg">
<path fill-rule="evenodd" clip-rule="evenodd" d="M22.6665 28.5611L3.17981 9.35202V0H12.7839L31.992 19.393L51.2001 0H60.8042V9.35202L22.3879 46.7601L28.7906 52.9948L22.3879 56.1121L3.17981 40.5254V31.1734L12.7839 37.4081L22.6665 28.5611ZM44.7974 31.1734L51.2001 37.4081L57.6028 31.1734L60.8042 37.4081L44.7974 56.1121L38.3947 52.9948L44.7974 46.7601L35.1934 37.4081L44.7974 31.1734ZM57.6028 46.7601L63.1764 55.2579C64.2745 56.3489 64.2745 58.0948 63.1764 59.1858C62.6493 59.7067 61.9297 60 61.1787 60C60.4278 60 59.7082 59.7067 59.1811 59.1858L51.2001 52.9948L57.6028 46.7601ZM6.38117 46.7601L12.7839 52.9948L4.82211 59.1858C4.29406 59.7061 3.57409 59.9989 2.82286 59.9989C2.07163 59.9989 1.35167 59.7061 0.823617 59.1858C-0.274539 58.0948 -0.274539 56.3489 0.823617 55.2579L6.38117 46.7601Z" fill="white"/>
</svg>
