<svg width="14" height="11" viewBox="0 0 14 11" version="1.1" xmlns="http://www.w3.org/2000/svg" xmlns:xlink="http://www.w3.org/1999/xlink">
<title>Vector</title>
<desc>Created using Figma</desc>
<g id="Canvas" transform="translate(-45452 -4123)">
<g id="Vector">
<use xlink:href="#path0_fill" transform="translate(45453 4124)" fill="#CED6D5" fill-opacity="0.6"/>
<use xlink:href="#path1_stroke" transform="translate(45453 4124)" fill="#CED6D5" fill-opacity="0.6"/>
</g>
</g>
<defs>
<path id="path0_fill" d="M 4.50824 9L 0 4.2167L 0.8539 3.29368L 4.50824 7.15613L 11.1461 0L 12 0.920849L 4.50824 9Z"/>
<path id="path1_stroke" d="M 4.50824 9L 4.14438 9.34294L 4.51121 9.73215L 4.87487 9.33997L 4.50824 9ZM 0 4.2167L -0.367029 3.87715L -0.684083 4.21987L -0.36386 4.55963L 0 4.2167ZM 0.8539 3.29368L 1.2171 2.95004L 0.849801 2.56182L 0.486871 2.95413L 0.8539 3.29368ZM 4.50824 7.15613L 4.14504 7.49976L 4.51185 7.88747L 4.87482 7.49616L 4.50824 7.15613ZM 11.1461 0L 11.5127 -0.339974L 11.1462 -0.73529L 10.7795 -0.34003L 11.1461 0ZM 12 0.920849L 12.3666 1.26082L 12.6819 0.920849L 12.3666 0.580875L 12 0.920849ZM 4.8721 8.65706L 0.36386 3.87376L -0.36386 4.55963L 4.14438 9.34294L 4.8721 8.65706ZM 0.367029 4.55624L 1.22093 3.63322L 0.486871 2.95413L -0.367029 3.87715L 0.367029 4.55624ZM 0.490697 3.63731L 4.14504 7.49976L 4.87144 6.8125L 1.2171 2.95004L 0.490697 3.63731ZM 4.87482 7.49616L 11.5127 0.34003L 10.7795 -0.34003L 4.14166 6.8161L 4.87482 7.49616ZM 10.7795 0.339974L 11.6334 1.26082L 12.3666 0.580875L 11.5127 -0.339974L 10.7795 0.339974ZM 11.6334 0.580875L 4.14161 8.66003L 4.87487 9.33997L 12.3666 1.26082L 11.6334 0.580875Z"/>
</defs>
</svg>
