<svg width="30" height="16" viewBox="0 0 30 16" fill="none" xmlns="http://www.w3.org/2000/svg">
<path d="M28.539 14.4752C27.4118 15.1522 25.6169 16 25.6169 16H25.2029L17.8779 8.5322L23.2721 3.03277C23.4519 3.28937 23.5714 3.66916 23.5714 4.2661C23.5714 4.71745 23.5714 5.05149 23.5714 5.33262C23.8559 5.33262 24.7862 5.33262 25.7143 5.33262C26.6569 5.33262 27.5971 5.33262 27.8571 5.33262C28.3731 5.33262 28.9286 6.39915 28.9286 6.39915H30V11.4256C30 11.4256 29.6661 13.7983 28.539 14.4752ZM10.5829 1.09511C10.6293 1.08668 10.653 1.06652 10.7143 1.06652C11.3142 1.06652 13.9286 1.06652 13.9286 1.06652C13.9286 1.06652 14.4192 -4.31258e-07 15 -4.31258e-07C15.5808 -4.31258e-07 18.2143 -4.31258e-07 18.2143 -4.31258e-07C18.2143 -4.31258e-07 19.2857 0.383202 19.2857 1.06652C20.2342 1.08508 20.6741 1.2633 20.9895 1.56811L16.0182 6.63634L10.5829 1.09511ZM6.98089 15.8498C5.70643 15.3174 1.50975 13.3608 1.50975 10.6631C1.50975 7.48412 2.97075 8.37595 2.97075 8.37595H7.35386C7.35386 8.37595 7.43464 7.61349 8.08446 7.61349C8.73418 7.61349 9.54546 7.61349 9.54546 7.61349C9.54546 7.61349 8.57143 7.1471 8.57143 6.39915C8.57143 5.65119 8.57143 5.33262 8.57143 5.33262H1.77792e-08V3.19957H8.928L14.1586 8.5322L6.98089 15.8498ZM21.4836 16H10.5528L16.0182 10.4281L21.4836 16Z" fill="#9CC3D4"/>
</svg>
