<svg width="26" height="26" viewBox="0 0 26 26" fill="none" xmlns="http://www.w3.org/2000/svg">
<path d="M13.0557 1.87695C16.6381 1.87761 18.6902 4.73334 17.6426 7.86621C17.6626 7.896 17.6428 8.71531 17.6426 8.72266C18.0075 8.72266 18.5429 8.6728 18.5137 9.41504C18.4764 10.3647 18.0098 12.0998 17.5654 12.1006C17.5477 12.1006 17.3378 12.0239 17.3203 12.0215C17.057 13.285 16.4675 14.6337 15.5332 15.3389V18.0977C15.7371 17.1772 15.9545 16.7045 16.3984 16.8164C17.0956 16.9922 19.3395 17.431 23.1299 18.1338L24.8184 19.8457L13 24.123L1.18164 19.8457L2.87012 18.1338C7.93992 17.3592 10.4754 16.7213 10.4766 16.2197V15.3389C9.5422 14.6338 9.05438 13.2723 8.79102 12.0088C8.77323 12.0114 8.56593 12.0873 8.54688 12.0879C8.10243 12.0879 7.63588 10.3522 7.59863 9.40234C7.56917 8.65974 7.99247 8.72266 8.35742 8.72266C8.34346 8.67957 8.3631 8.43659 8.36426 8.35645C7.84542 7.88929 7.81585 7.0527 7.81055 6.67285C7.76924 3.71069 9.87955 1.87704 13.0557 1.87695ZM15.4678 5.35254C14.0587 7.00718 9.56642 8.12217 9.52344 8.13281C9.5607 8.13278 13.735 8.12582 15.4678 6.54395C15.7787 6.70419 17.152 7.33069 17.1699 7.33887C17.166 7.33389 15.8512 5.6691 15.4678 5.35254Z" fill="#F5F5F5" fill-opacity="1"/>
</svg>
