<svg width="50" height="50" viewBox="0 0 50 50" fill="none" xmlns="http://www.w3.org/2000/svg">
<g clip-path="url(#clip0_873_161828)">
<path d="M29.9948 1.03516L28.3144 2.80592L19.2368 13.8396L4.85801 12.2214L11.9408 23.7119L1.71875 39.2507L18.8157 33.6987L30.8815 46.6307L31.4682 28.0503L47.3507 19.8977L31.3341 15.8778L29.9948 1.03516Z" fill="url(#paint0_linear_873_161828)"/>
<path d="M28.3273 2.79297L19.2263 13.8409L19.7398 13.948L4.4375 36.0212L18.6515 31.244L16.5376 28.837L29.1041 17.3058L29.5607 26.0023L43.2085 19.4987L29.4489 15.6322L28.3273 2.79297Z" fill="url(#paint1_linear_873_161828)"/>
<path d="M12.6243 22.8297L18.7961 14.1796L6.3844 12.807L12.6243 22.8297Z" fill="url(#paint2_linear_873_161828)"/>
<path d="M27.8414 19.1563L28.7646 41.8881L17.3368 28.8889L27.8414 19.1563Z" fill="url(#paint3_linear_873_161828)"/>
<path d="M31.3526 2.74035L29.9948 1.03516L31.3311 15.9091L32.5379 16.179L31.3526 2.74035Z" fill="url(#paint4_linear_873_161828)"/>
<path d="M48.2765 21.524L47.3544 19.8971L31.4587 28.0509L30.8815 46.6307L18.8157 33.6988L1.71875 39.2507L3.13407 40.677L19.8662 35.3123L32.1141 48.3243L32.7182 29.556L48.2765 21.524Z" fill="url(#paint5_linear_873_161828)"/>
<path d="M19.7273 13.9414L6.67188 32.8113L20.5195 15.3495L29.3691 15.6235L19.7273 13.9414Z" fill="white"/>
<path d="M27.8405 19.1211L28.001 23.1788L27.519 20.5442L19.1186 28.7033L22.9617 35.2819L17.3359 28.8537L27.8405 19.1211Z" fill="#D9E7EB"/>
</g>
<defs>
<linearGradient id="paint0_linear_873_161828" x1="12.3164" y1="2.70389" x2="25.3763" y2="37.7622" gradientUnits="userSpaceOnUse">
<stop stop-color="#567A8C"/>
<stop offset="1" stop-color="#314C5D"/>
</linearGradient>
<linearGradient id="paint1_linear_873_161828" x1="19.39" y1="13.0516" x2="28.9655" y2="41.8881" gradientUnits="userSpaceOnUse">
<stop stop-color="#ECF4F6"/>
<stop offset="0.549427" stop-color="#8299A3"/>
<stop offset="1" stop-color="#3E6A81"/>
</linearGradient>
<linearGradient id="paint2_linear_873_161828" x1="19.39" y1="13.0516" x2="28.9655" y2="41.8881" gradientUnits="userSpaceOnUse">
<stop stop-color="#ECF4F6"/>
<stop offset="0.549427" stop-color="#8299A3"/>
<stop offset="1" stop-color="#3E6A81"/>
</linearGradient>
<linearGradient id="paint3_linear_873_161828" x1="19.39" y1="13.0516" x2="28.9655" y2="41.8881" gradientUnits="userSpaceOnUse">
<stop stop-color="#ECF4F6"/>
<stop offset="0.549427" stop-color="#8299A3"/>
<stop offset="1" stop-color="#3E6A81"/>
</linearGradient>
<linearGradient id="paint4_linear_873_161828" x1="28.7707" y1="-5.30212" x2="16.7692" y2="40.0979" gradientUnits="userSpaceOnUse">
<stop stop-color="#34566A"/>
<stop offset="0.625" stop-color="#152F40"/>
</linearGradient>
<linearGradient id="paint5_linear_873_161828" x1="28.7707" y1="-5.30212" x2="16.7692" y2="40.0979" gradientUnits="userSpaceOnUse">
<stop stop-color="#34566A"/>
<stop offset="0.625" stop-color="#152F40"/>
</linearGradient>
<clipPath id="clip0_873_161828">
<rect width="48" height="48" fill="white" transform="translate(1 1)"/>
</clipPath>
</defs>
</svg>
