<svg width="22" height="26" viewBox="0 0 22 26" fill="none" xmlns="http://www.w3.org/2000/svg">
<path d="M21.1539 16.7742C19.4361 22.651 11 26 11 26C11 26 2.56388 22.651 0.84612 16.7742C0.0236499 15.0779 0 1.67743 0 1.67743C0 1.67743 4.27559 0 11 0C17.7244 0 22 1.67743 22 1.67743C22 1.67743 21.9764 15.0779 21.1539 16.7742ZM11 3.25C6.29288 3.25 3.3 4.36833 3.3 4.36833C3.3 4.36833 3.3165 14.3853 3.89235 15.5161C5.09465 19.434 11 22.75 11 22.75C11 22.75 16.9053 19.434 18.1077 15.5161C18.6835 14.3853 18.7 4.36833 18.7 4.36833C18.7 4.36833 15.7071 3.25 11 3.25Z" fill="#9CC3D4"/>
</svg>
