<svg width="43" height="51" viewBox="0 0 43 51" fill="none" xmlns="http://www.w3.org/2000/svg">
<path fill-rule="evenodd" clip-rule="evenodd" d="M43 7.64551C42.4961 13.3604 41.2598 34.6816 41.2598 34.6816L21.3555 51.001L1.61523 34.7168C1.61523 34.7168 1.24023 27.8076 0.841797 20.8828C0.515625 15.2285 0.171875 9.56445 0 7.64355C5.33594 2.94434 12.9922 0 21.498 0C30.0059 0 37.6641 2.94531 43 7.64551ZM39.1113 33.5811L21.3594 48.1357L3.76562 33.623L3.76367 33.5645L3.61719 30.7969C3.49609 28.4873 3.33008 25.3633 3.15234 22.1064C2.8457 16.5088 2.50195 11.5674 2.28711 8.6084C7.14844 4.69434 13.9297 2.21777 21.498 2.21777C29.0664 2.21777 35.8477 4.69434 40.709 8.60742C40.5898 10.1426 40.4453 12.0361 40.293 14.1729C40.1113 16.71 39.918 19.5908 39.7402 22.6211C39.5527 25.7842 39.3828 28.7686 39.2598 30.9619L39.1113 33.5811ZM8.82031 29.7988C8.82031 29.8145 21.4199 39.9141 21.4199 39.9141C21.4199 39.9141 34.1797 29.8691 34.1797 29.7988C34.1797 26.4014 31.3574 24.0518 27.9473 23.1279C26.3867 25.2373 24.041 26.8203 21.418 26.8203C18.8086 26.8203 16.4746 25.2559 14.916 23.165C11.5664 24.1133 8.82031 26.4473 8.82031 29.7988ZM17.1484 17.1689C17.1484 19.6211 19.0605 22.6689 21.418 22.6689C23.7773 22.6689 25.6895 19.6211 25.6895 17.1689V14.4219C25.6895 11.9688 23.7773 9.97852 21.418 9.97852C19.0605 9.97852 17.1484 11.9688 17.1484 14.4219V17.1689Z" fill="#9BC3D4"/>
</svg>
