<svg width="202" height="172" viewBox="0 0 202 172" fill="none" xmlns="http://www.w3.org/2000/svg">
<path d="M30.2302 0H201.503L171.273 171.273H0.00012207L30.2302 0Z" fill="#C9B768"/>
<mask id="mask0_2_255" style="mask-type:alpha" maskUnits="userSpaceOnUse" x="0" y="0" width="202" height="172">
<path d="M30.23 0H201.503L171.273 171.273H0L30.23 0Z" fill="#EBD384"/>
</mask>
<g mask="url(#mask0_2_255)">
<path d="M-21.6327 -5.07426L-21.5093 -4.93242C-20.2956 -3.5261 -17.1399 0.0950676 -11.4355 0.0950676C-11.1442 0.0950676 -10.8449 0.0849326 -10.5394 0.0666951C-7.73574 -0.11568 -3.58891 -1.1309 0.250445 -4.93444L0.36777 -5.04792C0.410672 -5.0897 0.444937 -5.13953 0.468613 -5.19458C0.492289 -5.24962 0.504909 -5.3088 0.505754 -5.36873C0.506599 -5.42866 0.495653 -5.48818 0.473539 -5.54387C0.451426 -5.59957 0.418579 -5.65034 0.376873 -5.69332C0.335167 -5.7363 0.285417 -5.77063 0.230468 -5.79434C0.175519 -5.81806 0.116444 -5.83071 0.056618 -5.83155C-0.00320856 -5.8324 -0.062615 -5.82143 -0.118211 -5.79928C-0.173807 -5.77713 -0.224504 -5.74422 -0.267406 -5.70244L-0.388776 -5.58289C-3.30976 -2.68717 -6.74657 -1.09848 -10.6001 -0.845181C-16.4239 -0.470299 -19.6179 -4.13807 -20.8215 -5.5302L-20.949 -5.6761C-23.1619 -8.20098 -25.8887 -7.09457 -25.9171 -7.09457C-26.0286 -7.04782 -26.1171 -6.95857 -26.163 -6.84646C-26.2089 -6.73436 -26.2085 -6.60858 -26.1618 -6.49679C-26.1151 -6.38501 -26.0261 -6.29637 -25.9141 -6.25039C-25.8022 -6.20441 -25.6767 -6.20484 -25.5651 -6.25159C-25.5449 -6.2597 -23.4148 -7.11484 -21.6327 -5.07426Z" fill="#7D401F" fill-opacity="0.3"/>
<path d="M43.6277 3.865C43.6825 3.84078 43.7319 3.80601 43.7732 3.76266C43.8145 3.71931 43.8469 3.66823 43.8685 3.61234C43.8901 3.55646 43.9005 3.49686 43.8991 3.43695C43.8977 3.37703 43.8845 3.31798 43.8604 3.26316C43.8362 3.20834 43.8015 3.15883 43.7582 3.11745C43.7149 3.07607 43.6639 3.04364 43.6082 3.022C43.5524 3.00036 43.4929 2.98994 43.4331 2.99133C43.3733 2.99273 43.3143 3.00591 43.2596 3.03013C43.0249 3.1355 42.675 3.27329 42.232 3.44756C37.357 5.31429 32.7206 7.75425 28.42 10.7162C21.1014 15.7498 17.2822 26.1553 17.1224 26.595C17.0819 26.709 17.0879 26.8344 17.139 26.944C17.1901 27.0536 17.2823 27.1386 17.3955 27.1807C17.4456 27.1981 17.4982 27.207 17.5513 27.207C17.6447 27.2067 17.7358 27.1778 17.8125 27.1242C17.8891 27.0706 17.9476 26.9949 17.9801 26.9071C18.0165 26.8017 21.8539 16.3374 28.9338 11.468C33.1779 8.54466 37.754 6.13729 42.5658 4.29662C43.0189 4.1183 43.3749 3.97645 43.6277 3.865Z" fill="#7D401F" fill-opacity="0.3"/>
<path d="M48.0946 1.49464H48.1654C48.2423 1.48249 56.0242 0.215989 64.3886 -4.22586C65.3657 -4.74462 66.3002 -5.27148 67.2044 -5.7801C74.248 -9.74575 80.3327 -13.1683 103.098 -12.2787C103.158 -12.2758 103.218 -12.2848 103.274 -12.3052C103.33 -12.3257 103.382 -12.3573 103.426 -12.398C103.47 -12.4388 103.506 -12.4879 103.531 -12.5426C103.556 -12.5973 103.569 -12.6564 103.571 -12.7164C103.575 -12.8373 103.532 -12.9549 103.45 -13.0437C103.368 -13.1325 103.255 -13.1854 103.134 -13.1906C80.1102 -14.0924 73.6249 -10.4408 66.7574 -6.57445C65.8592 -6.06785 64.9368 -5.54504 63.9638 -5.03236C55.739 -0.663461 48.1007 0.582768 48.0238 0.594926C47.9113 0.613497 47.8099 0.673683 47.7396 0.763578C47.6693 0.853473 47.6352 0.966529 47.6441 1.08039C47.653 1.19425 47.7042 1.30061 47.7876 1.37845C47.8711 1.45628 47.9806 1.49992 48.0946 1.50072V1.49464Z" fill="#7D401F" fill-opacity="0.3"/>
<path d="M46.7611 7.75853C60.1995 5.27406 64.2494 4.48981 68.184 2.974C71.6412 1.64057 78.0721 0.947511 86.2893 1.01641C93.1673 1.07518 98.4148 0.54424 103.83 -0.756764C104.304 -0.870248 104.755 -0.981703 105.194 -1.09113C109.49 -2.15099 112.331 -2.85215 119.026 -1.76393C126.22 -0.594646 132.882 -4.23016 135.615 -6.95782C135.695 -7.04425 135.739 -7.15857 135.737 -7.2767C135.735 -7.39482 135.687 -7.50752 135.603 -7.59106C135.52 -7.6746 135.408 -7.72245 135.29 -7.72454C135.172 -7.72662 135.058 -7.68278 134.971 -7.60224C133.179 -5.80677 126.847 -1.4174 119.192 -2.66369C112.314 -3.78231 109.244 -3.0244 104.995 -1.97671C104.558 -1.86728 104.109 -1.75785 103.64 -1.64437C98.2995 -0.359574 93.1208 0.163261 86.3176 0.104493C80.4268 0.0558569 72.4423 0.363883 67.8765 2.13098C64.0188 3.61842 59.9871 4.39659 46.6154 6.87093C33.4016 9.31487 29.8534 15.749 29.7077 16.0205C29.6509 16.128 29.6389 16.2537 29.6746 16.37C29.7103 16.4863 29.7906 16.5837 29.8979 16.6406C30.0052 16.6976 30.1307 16.7095 30.2468 16.6738C30.3629 16.6381 30.46 16.5576 30.5169 16.4501C30.525 16.3792 34.0227 10.1153 46.7611 7.75853Z" fill="#7D401F" fill-opacity="0.3"/>
<path d="M45.7332 13.0254C50.5478 12.292 52.9389 12.3244 55.0387 12.3507C56.9909 12.3771 58.68 12.3973 61.7245 11.8078C62.7542 11.6052 63.7232 11.4026 64.6598 11.1858C69.5149 10.1099 73.7165 9.182 83.6168 10.74C88.3383 11.4856 91.668 12.2839 94.6033 12.989C99.1246 14.0769 102.695 14.934 108.966 15.0575C116.307 15.2014 120.05 13.7406 124.381 12.0509C126.22 11.3337 128.119 10.5921 130.468 9.8972C140.271 6.99995 150.396 9.38663 162.329 17.4118C172.646 24.349 177.501 29.2804 180.738 32.5444C181.925 33.7478 182.951 34.7872 183.946 35.6179C184.861 36.3797 185.874 37.2934 186.948 38.2518C190.092 41.0882 194.008 44.6115 197.992 46.6072L198.979 47.0995C203.773 49.4882 207.56 51.3765 212.433 56.4437C212.858 56.8853 213.301 57.3533 213.76 57.8396C218.886 63.2552 226.632 71.4384 237.4 72.3846C247.92 73.3105 251.713 72.4008 256.948 71.1426C257.476 71.017 258.018 70.8853 258.583 70.7536C264.277 69.4225 273.755 69.8561 281.118 73.9507C285.257 76.2544 287.11 77.9258 288.463 79.1455C289.475 80.0491 290.187 80.6995 291.31 81.0743C291.356 81.0904 291.404 81.0986 291.453 81.0986C291.561 81.0979 291.665 81.0591 291.746 80.989C291.828 80.9189 291.882 80.8221 291.9 80.7157C291.917 80.6094 291.896 80.5004 291.84 80.408C291.785 80.3157 291.699 80.2459 291.597 80.2112C290.654 79.8952 290.025 79.3279 289.072 78.4688C287.765 77.2897 285.789 75.5067 281.559 73.1525C273.989 68.9423 264.237 68.4926 258.376 69.8662C257.81 69.9979 257.266 70.1296 256.736 70.2573C251.583 71.4952 247.863 72.3887 237.481 71.4729C227.055 70.5571 219.752 62.8419 214.42 57.2075C213.957 56.7212 213.514 56.2512 213.087 55.8075C208.106 50.6269 204.257 48.7163 199.381 46.285L198.398 45.7947C194.522 43.8538 190.658 40.373 187.555 37.5771C186.475 36.6046 185.453 35.6847 184.521 34.9108C183.56 34.1004 182.597 33.1319 181.377 31.8981C178.141 28.6078 173.231 23.6379 162.837 16.648C150.669 8.46681 140.301 6.04365 130.217 9.03005C127.834 9.73512 125.914 10.4827 124.059 11.2081C119.811 12.8633 116.156 14.2937 108.99 14.1519C102.82 14.0303 99.2925 13.1835 94.8299 12.1096C91.8784 11.4005 88.5305 10.5962 83.7725 9.84655C73.7023 8.26015 69.2215 9.25292 64.4778 10.3024C63.5472 10.505 62.5843 10.7218 61.5647 10.9102C58.6092 11.4836 56.9666 11.4613 55.065 11.437C52.9207 11.4107 50.4912 11.3782 45.6017 12.1238C37.4715 13.3617 32.7581 19.0286 31.2004 20.8905C31.0507 21.0709 30.895 21.2573 30.8363 21.314C30.7451 21.3766 30.6795 21.4702 30.6517 21.5774C30.6238 21.6846 30.6355 21.7982 30.6846 21.8975C30.7384 22.0048 30.8325 22.0864 30.9462 22.1244C31.06 22.1623 31.1841 22.1536 31.2915 22.1001C31.4351 22.0292 31.5423 21.8975 31.8984 21.474C33.4034 19.6769 37.953 14.2127 45.7332 13.0254Z" fill="#7D401F" fill-opacity="0.3"/>
<path d="M285.99 83.7376C286.08 83.7376 286.168 83.7108 286.242 83.6607C286.317 83.6106 286.376 83.5394 286.41 83.4562C286.444 83.3729 286.453 83.2813 286.436 83.1929C286.418 83.1046 286.375 83.0234 286.311 82.9596C277.532 74.1666 270.514 74.2476 261.559 75.3336C250.584 76.6566 241.329 76.6586 234.081 75.3336C225.514 73.7715 216.789 68.1472 209.383 62.8491C202.438 57.8812 194.397 54.1067 187.94 51.0737L187.471 50.8528C182.328 48.4398 178.45 44.8355 172.582 39.3793C171.178 38.0745 169.584 36.5935 167.858 35.0233C159.235 27.1805 154.173 27.4722 147.166 27.8734L146.389 27.9159C139.015 28.3211 136.75 27.4742 131.66 24.7289C126.93 22.1781 124.06 22.0343 117.127 21.6899C116.201 21.6433 115.197 21.5946 114.105 21.5339C111.313 21.3799 108.659 21.4386 106.092 21.4954C100.153 21.625 94.011 21.7608 85.8626 19.2262C74.8619 15.8123 65.8133 16.1182 54.3614 16.489L51.7195 16.5741C44.892 16.7888 40.4214 19.6132 37.8725 21.9614C35.1051 24.502 33.9682 26.9697 33.9217 27.0731C33.8718 27.1832 33.8676 27.3087 33.9101 27.4219C33.9526 27.5352 34.0382 27.6269 34.1482 27.6768C34.2582 27.7268 34.3835 27.731 34.4966 27.6884C34.6096 27.6459 34.7012 27.5601 34.7511 27.4499C34.7612 27.4256 35.8738 25.0187 38.5178 22.6056C40.9453 20.377 45.2198 17.6904 51.7478 17.4858L54.3897 17.4007C65.7587 17.0239 74.7385 16.7281 85.5834 20.0994C93.8775 22.6765 100.094 22.5408 106.106 22.4091C108.655 22.3524 111.291 22.2957 114.048 22.4456C115.143 22.5064 116.148 22.557 117.083 22.6036C124.066 22.9521 126.679 23.0818 131.227 25.5353C136.705 28.4893 139.216 29.2328 146.437 28.8317L147.218 28.7871C154.003 28.3981 158.905 28.1165 167.245 35.704C168.967 37.2702 170.482 38.6844 171.961 40.052C177.892 45.5669 181.813 49.2097 187.08 51.6835L187.552 51.9043C193.981 54.9211 201.981 58.6754 208.857 63.5947C216.342 68.9515 225.178 74.6407 233.923 76.2331C241.271 77.5724 250.607 77.5724 261.672 76.2331C270.646 75.1512 277.164 75.0783 285.672 83.5999C285.713 83.6426 285.763 83.6768 285.817 83.7005C285.872 83.7241 285.93 83.7367 285.99 83.7376V83.7376Z" fill="#7D401F" fill-opacity="0.3"/>
<path d="M279.918 85.1616C279.981 85.162 280.043 85.1492 280.1 85.1241C280.158 85.099 280.209 85.0621 280.252 85.0157C280.292 84.9718 280.324 84.9204 280.345 84.8642C280.365 84.8081 280.375 84.7484 280.373 84.6886C280.37 84.6287 280.356 84.5699 280.331 84.5155C280.307 84.4611 280.271 84.4122 280.227 84.3715C274.941 79.4846 267.926 80.5422 256.302 82.2907L255.373 82.4325C243.954 84.1466 224.042 77.3087 214.18 72.1463C208.755 69.3098 203.293 67.1703 198.013 65.1078C194.574 63.7645 191.02 62.3746 187.451 60.7862C179.91 57.4311 176.958 55.0322 173.538 52.2545C172.85 51.6953 172.138 51.1179 171.365 50.5121C170.353 49.7199 169.389 48.867 168.369 47.9634C164.744 44.7581 160.637 41.1275 152.792 38.8846C145.914 36.9153 140.467 37.8493 136.087 38.601C134.064 38.9454 132.169 39.2716 130.423 39.2716C125.853 39.2716 123.371 37.6791 119.938 35.4728C119.234 35.0209 118.506 34.5529 117.713 34.0707L117.557 33.9755C112.997 31.1958 111.622 30.357 102.081 30.7622C94.8251 31.0722 88.9485 29.7046 78.2835 27.2207C75.0772 26.4751 71.442 25.6282 67.2019 24.6942C57.5808 22.577 50.6785 24.06 46.5821 25.6788C42.1134 27.4435 39.959 29.6965 39.8679 29.7917C39.788 29.8801 39.7458 29.9963 39.7505 30.1154C39.7551 30.2346 39.8061 30.3472 39.8927 30.4291C39.9792 30.511 40.0943 30.5557 40.2134 30.5535C40.3324 30.5514 40.4459 30.5027 40.5294 30.4178C40.5517 30.3955 42.6697 28.1891 46.9685 26.5055C50.9395 24.9474 57.6394 23.5231 67.0077 25.5856C71.2397 26.5176 74.8729 27.3625 78.0772 28.1081C88.821 30.6102 94.7401 31.988 102.122 31.6739C111.385 31.2687 112.593 32.0143 117.092 34.7555L117.247 34.8487C118.032 35.3269 118.754 35.7908 119.454 36.2406C122.893 38.4429 125.594 40.1833 130.431 40.1833C132.251 40.1833 134.202 39.851 136.257 39.4985C140.768 38.7266 145.88 37.8493 152.558 39.7599C160.198 41.946 164.222 45.5058 167.774 48.6461C168.806 49.5599 169.781 50.421 170.809 51.2293C171.577 51.8372 172.285 52.4065 172.971 52.9636C176.44 55.7819 179.445 58.2152 187.089 61.6209C190.676 63.2175 194.24 64.6094 197.687 65.9567C203.188 68.1063 208.385 70.1364 213.766 72.9526C217.84 75.0861 225.129 78.2204 233.372 80.5848C239.696 82.4082 248.669 84.3613 255.513 83.3321L256.444 83.1943C267.798 81.4843 274.65 80.4511 279.614 85.0401C279.697 85.1166 279.805 85.1599 279.918 85.1616V85.1616Z" fill="#7D401F" fill-opacity="0.3"/>
<path d="M-18.4176 73.1859C-18.3039 73.2263 -18.1788 73.22 -18.0696 73.1684C-17.9605 73.1167 -17.8762 73.024 -17.8351 72.9103C-17.8148 72.8536 -15.7414 67.1533 -9.80639 59.0437C-5.21251 52.7619 -0.371848 48.9117 1.76427 47.8337C1.85823 47.7727 1.92644 47.6791 1.95588 47.5709C1.98532 47.4627 1.97392 47.3475 1.92385 47.2472C1.87378 47.1468 1.78856 47.0685 1.68449 47.0272C1.58041 46.9859 1.46478 46.9844 1.35971 47.0231C-1.29224 48.3504 -6.14504 52.5126 -10.5346 58.5087C-16.5586 66.7379 -18.6037 72.3713 -18.6887 72.6063C-18.7285 72.7192 -18.7224 72.8433 -18.6717 72.9517C-18.621 73.0602 -18.5297 73.1443 -18.4176 73.1859V73.1859Z" fill="#7D401F" fill-opacity="0.3"/>
<path d="M7.63701 44.2461C7.69822 44.2457 7.75876 44.2333 7.8152 44.2096C8.09262 44.094 14.6555 41.2541 19.9284 35.1686C19.9709 35.1238 20.0039 35.0709 20.0254 35.013C20.0469 34.9551 20.0565 34.8935 20.0535 34.8317C20.0505 34.77 20.0351 34.7096 20.0081 34.654C19.9811 34.5985 19.9431 34.549 19.8964 34.5086C19.8498 34.4682 19.7954 34.4377 19.7367 34.419C19.6779 34.4002 19.616 34.3936 19.5546 34.3996C19.4932 34.4055 19.4337 34.4239 19.3796 34.4536C19.3255 34.4832 19.278 34.5236 19.2399 34.5722C14.1107 40.5015 7.52564 43.3475 7.45881 43.3759C7.36223 43.4171 7.28281 43.4905 7.234 43.5836C7.18519 43.6767 7.16998 43.7838 7.19093 43.8869C7.21189 43.9899 7.26773 44.0826 7.34901 44.1491C7.43029 44.2157 7.53202 44.2521 7.63701 44.2522V44.2461Z" fill="#7D401F" fill-opacity="0.3"/>
<path d="M27.1023 34.9815C25.304 37.1817 20.0325 42.0217 11.6741 46.2073C2.92327 50.5895 0.71432 52.4878 -6.65692 60.2796C-14.1151 68.1586 -18.6443 80.371 -18.6888 80.4946C-18.7094 80.5507 -18.7188 80.6104 -18.7163 80.6701C-18.7138 80.7299 -18.6996 80.7886 -18.6744 80.8428C-18.6492 80.897 -18.6136 80.9457 -18.5695 80.9861C-18.5255 81.0265 -18.4739 81.0577 -18.4177 81.0781C-18.3681 81.0974 -18.3152 81.107 -18.262 81.1064C-18.1686 81.1069 -18.0774 81.0782 -18.0009 81.0245C-17.9245 80.9708 -17.8666 80.8947 -17.8352 80.8066C-17.7906 80.6871 -13.3283 68.6509 -5.99747 60.9077C1.28476 53.2212 3.46134 51.3391 12.0827 47.0218C20.5786 42.7672 25.9634 37.8138 27.8063 35.5569C27.8483 35.5112 27.8807 35.4573 27.9012 35.3986C27.9217 35.3399 27.9301 35.2777 27.9257 35.2156C27.9213 35.1536 27.9043 35.0931 27.8757 35.0379C27.8471 34.9828 27.8076 34.934 27.7595 34.8947C27.7113 34.8554 27.6557 34.8263 27.596 34.8093C27.5363 34.7923 27.4737 34.7878 27.4122 34.7959C27.3506 34.804 27.2914 34.8247 27.2381 34.8566C27.1848 34.8885 27.1386 34.931 27.1023 34.9815V34.9815Z" fill="#7D401F" fill-opacity="0.3"/>
<path d="M-0.555591 62.3515C3.69238 58.7736 8.34492 56.8166 12.8457 54.9243C16.5314 53.3765 20.0127 51.9138 23.2695 49.6406C28.4075 46.0547 31.9212 42.8679 33.7154 40.1733C33.779 40.0729 33.8008 39.9515 33.7762 39.8351C33.7516 39.7187 33.6826 39.6166 33.5838 39.5505C33.4851 39.4844 33.3645 39.4596 33.2477 39.4813C33.1309 39.503 33.0273 39.5696 32.9589 39.6669C31.2273 42.2682 27.7925 45.3719 22.7496 48.8931C19.5717 51.1216 16.1329 52.556 12.4938 54.0856C7.92821 56.0021 3.2069 57.9856 -1.14222 61.6546C-7.83783 67.3029 -13.4735 75.7471 -17.8691 86.7521C-20.6242 93.6525 -24.8297 101.641 -26.6503 105.026V106.927C-25.8169 105.419 -20.3673 95.4657 -17.0236 87.0925C-12.6927 76.2252 -7.14601 67.9026 -0.555591 62.3515Z" fill="#7D401F" fill-opacity="0.3"/>
<path d="M-7.41053 82.2552C-6.45373 78.726 -5.54952 75.3933 -2.15114 71.854C2.98891 66.5075 4.94904 65.689 9.68654 63.7137L9.83421 63.6529C10.7162 63.2842 11.6709 62.8304 12.6824 62.3482C17.1872 60.2068 22.7966 57.5426 27.2367 60.0386C29.3085 61.2086 31.2867 62.5376 33.1535 64.0135C34.5493 65.0873 35.4697 65.7964 36.5115 65.9139C36.6316 65.9273 36.7522 65.8924 36.8467 65.8168C36.9411 65.7412 37.0017 65.6311 37.0152 65.5107C37.0286 65.3904 36.9937 65.2696 36.9182 65.175C36.8427 65.0804 36.7328 65.0197 36.6126 65.0062C35.8237 64.9191 34.9822 64.2708 33.7078 63.2903C31.8075 61.7846 29.7927 60.4299 27.6818 59.2383C22.8269 56.5094 16.987 59.287 12.292 61.5196C11.2805 61.9957 10.346 62.4454 9.48223 62.804L9.33659 62.8668C4.61729 64.834 2.45892 65.7336 -2.80047 71.2158C-6.36472 74.9233 -7.29928 78.3654 -8.28642 82.0101C-8.78404 83.8335 -9.29784 85.7379 -10.1717 87.7618C-12.7549 93.7222 -17.7634 100.813 -17.814 100.886C-17.8848 100.984 -17.9137 101.107 -17.8944 101.226C-17.8751 101.346 -17.809 101.453 -17.7108 101.524C-17.6127 101.595 -17.4904 101.624 -17.3709 101.605C-17.2514 101.585 -17.1445 101.519 -17.0737 101.421C-17.0231 101.35 -11.9579 94.1881 -9.34032 88.1346C-8.44218 86.0478 -7.91624 84.1191 -7.41053 82.2552Z" fill="#7D401F" fill-opacity="0.3"/>
<path d="M45.1924 52.1396C44.7243 51.7994 44.1901 51.5615 43.6244 51.4414C43.0586 51.3213 42.474 51.3216 41.9084 51.4423C41.7935 51.4741 41.6957 51.5497 41.6359 51.6529C41.5761 51.7562 41.559 51.8788 41.5884 51.9944C41.6178 52.1101 41.6913 52.2096 41.7931 52.2716C41.8949 52.3336 42.0169 52.3532 42.133 52.3261C42.5696 52.237 43.02 52.2404 43.4553 52.336C43.8905 52.4317 44.3009 52.6175 44.6603 52.8815C45.8156 53.749 46.449 55.4659 46.5461 57.9834C46.8476 65.8035 48.2539 69.298 51.9183 71.3372C52.024 71.3958 52.1487 71.4099 52.2648 71.3764C52.3809 71.343 52.479 71.2647 52.5375 71.1588C52.596 71.0529 52.6101 70.928 52.5767 70.8117C52.5433 70.6954 52.4651 70.5971 52.3594 70.5385C49.0268 68.6839 47.744 65.388 47.4566 57.9469C47.3474 55.1335 46.5866 53.1794 45.1924 52.1396Z" fill="#7D401F" fill-opacity="0.3"/>
<path d="M51.5606 57.5266C51.5043 57.5064 51.4445 57.4975 51.3847 57.5006C51.3249 57.5036 51.2663 57.5185 51.2123 57.5443C51.1583 57.5701 51.1099 57.6064 51.0699 57.6511C51.03 57.6958 50.9992 57.7479 50.9795 57.8045C50.5189 59.3512 50.3967 60.9792 50.6211 62.5776C50.939 65.0767 52.2228 68.6894 56.544 71.718C56.5929 71.7525 56.6481 71.777 56.7065 71.7901C56.7648 71.8032 56.8252 71.8046 56.8841 71.7943C56.943 71.7839 56.9993 71.7619 57.0497 71.7297C57.1001 71.6975 57.1437 71.6555 57.1778 71.6064C57.2123 71.5574 57.2368 71.5021 57.2499 71.4437C57.263 71.3852 57.2644 71.3247 57.254 71.2657C57.2437 71.2067 57.2218 71.1503 57.1896 71.0998C57.1574 71.0493 57.1155 71.0057 57.0665 70.9715C49.3514 65.5635 51.7328 58.409 51.836 58.1068C51.8763 57.9932 51.8699 57.8684 51.8182 57.7596C51.7666 57.6508 51.6739 57.567 51.5606 57.5266V57.5266Z" fill="#7D401F" fill-opacity="0.3"/>
<path d="M56.5763 66.9969C55.7729 65.5963 55.3101 64.0257 55.2257 62.4125C55.2262 62.3527 55.2149 62.2933 55.1925 62.2379C55.1701 62.1824 55.1369 62.1319 55.095 62.0893C55.053 62.0467 55.0031 62.0129 54.948 61.9897C54.8929 61.9665 54.8338 61.9544 54.7741 61.9541V61.9541C54.6541 61.9546 54.5391 62.0023 54.4539 62.0869C54.3687 62.1715 54.3201 62.2863 54.3185 62.4065C54.3934 64.1645 54.8893 65.8788 55.7643 67.4047C57.0987 69.78 59.9458 72.8289 66.0085 73.8715C66.0348 73.8735 66.0612 73.8735 66.0874 73.8715C66.2021 73.8722 66.3128 73.8296 66.3975 73.7522C66.4821 73.6748 66.5346 73.5682 66.5443 73.4538C66.554 73.3393 66.5203 73.2254 66.4499 73.1348C66.3794 73.0442 66.2775 72.9835 66.1644 72.9648C61.5981 72.1899 58.3765 70.1776 56.5763 66.9969Z" fill="#7D401F" fill-opacity="0.3"/>
<path d="M22.3558 72.455C18.9756 68.2705 13.6798 70.7751 9.98809 73.0224C4.83591 76.1633 2.26285 81.8412 2.15766 82.0804C2.12949 82.1354 2.11279 82.1956 2.1086 82.2573C2.1044 82.3191 2.11278 82.381 2.13324 82.4394C2.1537 82.4978 2.1858 82.5513 2.22759 82.5969C2.26938 82.6424 2.31999 82.679 2.37633 82.7043C2.43267 82.7296 2.49357 82.7432 2.55532 82.7442C2.61707 82.7452 2.67838 82.7336 2.73551 82.7101C2.79264 82.6866 2.8444 82.6518 2.88764 82.6076C2.93088 82.5634 2.96469 82.5109 2.98703 82.4532C3.01332 82.3965 5.55806 76.7894 10.4614 73.8025C15.8624 70.5117 19.4166 70.2665 21.6498 73.0305C24.2957 76.3051 24.8459 77.0468 25.833 79.0266C26.7757 80.9172 26.9557 85.511 25.8634 87.1099C25.8297 87.1595 25.8061 87.2152 25.7939 87.274C25.7818 87.3327 25.7814 87.3933 25.7926 87.4522C25.8039 87.5112 25.8267 87.5673 25.8596 87.6174C25.8926 87.6674 25.9351 87.7105 25.9847 87.7441C26.0341 87.7778 26.0896 87.8014 26.1481 87.8135C26.2066 87.8257 26.2669 87.8261 26.3255 87.8148C26.3842 87.8035 26.44 87.7807 26.4899 87.7477C26.5397 87.7147 26.5825 87.6722 26.6159 87.6225C27.9348 85.6792 27.7466 80.824 26.6462 78.6173C25.6247 76.5706 25.0158 75.7479 22.3558 72.455Z" fill="#7D401F" fill-opacity="0.3"/>
<path d="M-0.455576 92.8627C-0.334528 92.8627 -0.218439 92.8146 -0.132845 92.729C-0.0472516 92.6434 0.000834875 92.5273 0.000834875 92.4062C0.000834875 91.035 1.04551 88.5399 1.6074 87.1991C1.96644 86.3451 2.02933 86.1849 2.02933 86.0165C2.03225 85.8981 1.98904 85.7832 1.90882 85.6961C1.82861 85.609 1.71767 85.5564 1.59944 85.5496C1.48121 85.5427 1.36496 85.5821 1.27522 85.6594C1.18549 85.7367 1.1293 85.8458 1.11853 85.9637C1.08811 86.0794 0.915686 86.4688 0.765578 86.8461C0.138773 88.3452 -0.911987 90.8524 -0.911987 92.4062C-0.911987 92.4662 -0.900182 92.5255 -0.877245 92.5809C-0.854308 92.6363 -0.820689 92.6866 -0.778307 92.729C-0.735925 92.7714 -0.685612 92.805 -0.630237 92.8279C-0.574863 92.8509 -0.515513 92.8627 -0.455576 92.8627V92.8627Z" fill="#7D401F" fill-opacity="0.3"/>
<path d="M15.8771 107.999V117.711C15.8771 117.832 15.925 117.948 16.0104 118.034C16.0957 118.119 16.2115 118.167 16.3322 118.167C16.4529 118.167 16.5687 118.119 16.654 118.034C16.7394 117.948 16.7874 117.832 16.7874 117.711V107.999C16.7874 102.574 17.9262 98.005 20.3698 93.6147C23.2989 88.3655 20.4831 83.6409 20.3698 83.4424C20.3048 83.3441 20.2043 83.2748 20.0893 83.2492C19.9744 83.2235 19.8541 83.2435 19.7535 83.3049C19.653 83.3662 19.5801 83.4642 19.5502 83.5783C19.5202 83.6923 19.5356 83.8135 19.593 83.9165C19.6193 83.9611 22.247 88.3979 19.593 93.1711C17.0523 97.7011 15.8771 102.411 15.8771 107.999Z" fill="#7D401F" fill-opacity="0.3"/>
<path d="M14.7559 128.016C14.6361 128.004 14.5165 128.04 14.4229 128.116C14.3294 128.192 14.2695 128.301 14.2562 128.421C14.2562 128.518 13.2448 138.166 12.0433 142.74C9.60169 152.118 9.60168 152.924 9.60168 153.19C9.60168 153.311 9.64964 153.427 9.73499 153.512C9.82035 153.598 9.93611 153.646 10.0568 153.646C10.1775 153.646 10.2933 153.598 10.3787 153.512C10.464 153.427 10.512 153.311 10.512 153.19C10.512 152.833 10.8255 151.032 12.9252 142.971C14.1389 138.33 15.12 128.914 15.1625 128.514C15.1744 128.394 15.1382 128.274 15.062 128.181C14.9858 128.088 14.8757 128.028 14.7559 128.016V128.016Z" fill="#7D401F" fill-opacity="0.3"/>
<path d="M0.553626 154.729C0.616335 154.729 0.678363 154.716 0.735681 154.69C0.791551 154.666 0.842096 154.632 0.884313 154.588C0.926531 154.544 0.959564 154.493 0.981449 154.436C1.00333 154.379 1.01363 154.319 1.01172 154.258C1.00981 154.197 0.995734 154.138 0.970331 154.082C-0.548824 150.596 -0.324287 143.953 -0.10582 137.551C-0.0694089 136.457 -0.030976 135.365 -0.00265621 134.287C0.110623 130.061 1.38501 125.133 3.78613 119.645C4.0228 119.102 4.04303 119.06 4.04303 118.934C4.04224 118.823 4.00067 118.715 3.92619 118.632C3.85171 118.549 3.74947 118.497 3.63884 118.484C3.5282 118.472 3.41683 118.5 3.32581 118.565C3.23478 118.629 3.17042 118.724 3.14489 118.833C3.12061 118.898 3.03768 119.084 2.95272 119.28C0.505078 124.876 -0.795611 129.917 -0.912936 134.273C-0.941256 135.348 -0.977667 136.438 -1.0161 137.528C-1.23659 144.044 -1.46517 150.782 0.13692 154.457C0.172617 154.538 0.231014 154.607 0.304999 154.655C0.378984 154.703 0.465365 154.729 0.553626 154.729V154.729Z" fill="#7D401F" fill-opacity="0.3"/>
<path d="M-0.0178557 120.5C0.00499246 120.383 -0.0190521 120.261 -0.0848167 120.162C-0.150581 120.062 -0.252806 119.992 -0.369483 119.967C-0.486159 119.942 -0.607958 119.964 -0.708658 120.028C-0.809359 120.092 -0.880909 120.193 -0.907906 120.31C-0.907906 120.342 -1.61995 123.638 -2.50798 126.067C-4.02581 130.277 -4.6547 134.756 -4.35483 139.222C-3.95026 144.846 -3.24631 149.775 -3.24025 149.824C-3.22426 149.932 -3.16994 150.031 -3.08716 150.103C-3.00437 150.175 -2.89863 150.215 -2.78915 150.215H-2.72442C-2.60495 150.197 -2.49727 150.133 -2.42488 150.036C-2.3525 149.94 -2.32128 149.818 -2.33806 149.698C-2.33806 149.65 -3.04808 144.755 -3.4486 139.163C-3.73787 134.826 -3.12695 130.475 -1.65434 126.386C-0.742033 123.894 -0.0461755 120.636 -0.0178557 120.5Z" fill="#7D401F" fill-opacity="0.3"/>
<path d="M4.22938 177.154C4.29915 177.253 4.40528 177.32 4.52443 177.341C4.64359 177.361 4.766 177.334 4.86474 177.264C4.96349 177.194 5.03047 177.088 5.05096 176.968C5.07145 176.849 5.04377 176.726 4.97401 176.627C2.54589 173.196 2.25047 166.545 2.62683 163.158C2.87438 160.865 2.73276 158.546 2.20797 156.301C2.19548 156.24 2.1707 156.182 2.13516 156.131C2.09963 156.08 2.05408 156.037 2.00131 156.005C1.94855 155.972 1.88968 155.95 1.82832 155.941C1.76696 155.932 1.7044 155.936 1.64448 155.952C1.58456 155.968 1.52854 155.996 1.47987 156.035C1.4312 156.073 1.39089 156.121 1.36142 156.176C1.33196 156.231 1.31395 156.291 1.30852 156.353C1.30308 156.415 1.31032 156.477 1.3298 156.536C1.81654 158.673 1.94848 160.876 1.72033 163.057C1.3298 166.578 1.66772 173.516 4.22938 177.154Z" fill="#7D401F" fill-opacity="0.3"/>
<path d="M7.64519 151.966C7.6839 151.861 7.68245 151.745 7.6411 151.641C7.59976 151.536 7.52143 151.451 7.42109 151.401C7.32075 151.351 7.20544 151.339 7.09721 151.369C6.98897 151.398 6.89541 151.466 6.8344 151.561C6.59521 152.037 5.16619 157.603 4.96349 160.449C4.74863 163.445 5.18241 169.641 5.89996 171.638C5.93235 171.724 5.99018 171.799 6.06582 171.852C6.14145 171.904 6.23134 171.933 6.3236 171.934C6.3763 171.934 6.42863 171.925 6.47765 171.905C6.5912 171.865 6.68398 171.781 6.73564 171.671C6.78731 171.562 6.79367 171.437 6.75332 171.324C6.08441 169.467 5.66078 163.386 5.8655 160.508C6.06414 157.745 7.45263 152.398 7.64519 151.966Z" fill="#7D401F" fill-opacity="0.3"/>
<path d="M23.8394 96.0877C23.9016 95.984 23.9202 95.8598 23.891 95.7424C23.8617 95.625 23.7872 95.524 23.6836 95.4617C23.5801 95.3993 23.456 95.3808 23.3388 95.41C23.2216 95.4393 23.1208 95.514 23.0585 95.6177C22.9473 95.8041 20.3336 100.223 20.1273 104.532C20.0504 106.177 20.3094 107.717 20.5824 109.348C21.0396 112.07 21.5595 115.158 20.7847 119.883C20.2426 123.195 20.0929 127.004 19.9331 131.04C19.7308 136.37 19.5022 141.882 18.3431 146.591C17.7362 149.04 16.7753 151.613 15.7577 154.338C13.3626 160.744 10.8845 167.369 13.0814 172.792C14.8414 177.144 17.1273 178.491 20.0079 180.197C22.3019 181.553 24.9034 183.09 28.1422 186.508C35.7201 194.509 49.1605 215.277 51.3291 219.624C51.367 219.699 51.4248 219.763 51.4961 219.807C51.5675 219.851 51.6497 219.875 51.7337 219.876C51.8039 219.875 51.873 219.858 51.9359 219.827C52.0431 219.773 52.1246 219.679 52.1625 219.565C52.2004 219.451 52.1917 219.327 52.1382 219.219C49.9555 214.849 36.4281 193.937 28.7976 185.884C25.4759 182.385 22.7065 180.746 20.4813 179.423C17.635 177.742 15.5797 176.526 13.9331 172.46C11.8717 167.367 14.285 160.912 16.6195 154.67C17.6492 151.919 18.6202 149.322 19.2372 146.82C20.4186 142.024 20.6391 136.463 20.8555 131.088C21.0154 127.081 21.1651 123.298 21.6971 120.043C22.4961 115.162 21.9641 111.996 21.4948 109.202C21.2176 107.553 20.9769 106.128 21.0518 104.583C21.2318 100.498 23.8131 96.1302 23.8394 96.0877Z" fill="#7D401F" fill-opacity="0.3"/>
<path d="M60.0234 225.957C60.0934 225.958 60.1627 225.943 60.2257 225.912C60.3346 225.86 60.4184 225.767 60.4586 225.653C60.4988 225.539 60.4922 225.413 60.4402 225.304C56.2102 216.449 32.024 181.949 25.1541 173.152C21.2599 168.168 21.7495 163.444 22.6396 154.866C22.9167 152.214 23.2282 149.207 23.4649 145.709C23.6086 143.579 23.5944 141.049 23.5802 138.368C23.5479 132.647 23.5135 126.162 24.8709 120.048C25.945 115.206 26.1433 109.715 26.121 105.967C26.1089 104.166 26.0421 102.321 25.9329 100.771C25.7771 98.5726 25.674 98.4713 25.5566 98.3538C25.481 98.2782 25.3811 98.2317 25.2747 98.2224C25.1682 98.2131 25.0618 98.2417 24.9742 98.3031C24.8867 98.3644 24.8234 98.4547 24.7957 98.5581C24.7679 98.6614 24.7773 98.7713 24.8223 98.8684C25.0388 99.7598 25.9005 111.204 23.9808 119.849C22.6032 126.063 22.6375 132.613 22.6699 138.373C22.6841 141.037 22.6962 143.551 22.5546 145.648C22.3199 149.13 22.0104 152.131 21.7353 154.765C20.8189 163.577 20.3193 168.432 24.438 173.707C31.2896 182.474 55.4111 216.878 59.6189 225.689C59.6543 225.767 59.7111 225.834 59.7826 225.881C59.8542 225.929 59.9377 225.955 60.0234 225.957V225.957Z" fill="#7D401F" fill-opacity="0.3"/>
<path d="M27.859 137.687C27.8596 137.628 27.8483 137.568 27.8259 137.513C27.8035 137.457 27.7705 137.407 27.7286 137.364C27.6867 137.321 27.6368 137.287 27.5818 137.264C27.5268 137.24 27.4677 137.228 27.4079 137.228V137.228C27.287 137.229 27.1715 137.278 27.0865 137.364C27.0016 137.45 26.9542 137.566 26.9548 137.687C26.9548 137.77 26.89 145.961 26.1456 149.691C25.4214 153.362 23.7181 161.96 29.2933 171.253C35.0162 180.804 56.3278 215.825 61.0655 222.934C61.6239 223.772 62.1701 224.579 62.696 225.365C66.6731 231.24 69.5477 235.472 68.6819 240.851C68.6626 240.97 68.6914 241.092 68.762 241.191C68.8325 241.289 68.9391 241.354 69.0582 241.374H69.131C69.239 241.374 69.3436 241.335 69.4258 241.265C69.5081 241.195 69.5628 241.098 69.5801 240.991C70.5046 235.253 67.545 230.89 63.4506 224.848C62.9246 224.072 62.3804 223.27 61.8221 222.431C57.0965 215.316 35.795 180.326 30.0762 170.779C24.6891 161.788 26.2771 153.735 27.0418 149.863C27.7943 146.051 27.857 138.03 27.859 137.687Z" fill="#7D401F" fill-opacity="0.3"/>
<path d="M30.2408 139.989C30.176 141.16 30.0789 142.487 29.9758 143.889C29.4377 151.221 28.6993 161.262 31.2907 167.143C33.8355 172.919 45.077 191.514 51.7932 202.622C53.0838 204.757 54.1843 206.576 54.9853 207.916C59.7858 215.928 66.2511 226.453 66.3138 226.554C66.3548 226.621 66.4119 226.675 66.4799 226.713C66.5479 226.751 66.6244 226.771 66.7022 226.771C66.7863 226.771 66.8688 226.748 66.9409 226.704C67.0437 226.641 67.1171 226.539 67.1451 226.421C67.1732 226.304 67.1536 226.18 67.0906 226.076C67.0259 225.971 60.5626 215.45 55.7622 207.438C54.953 206.098 53.8586 204.279 52.5679 202.142C45.8619 191.052 34.6407 172.49 32.1201 166.766C29.6218 161.094 30.348 151.185 30.88 143.948C30.9832 142.53 31.0823 141.211 31.1471 140.03C31.5516 132.832 33.5746 120.001 35.1747 114.608C36.3885 110.489 35.4053 108.551 34.5335 106.841C34.2061 106.258 33.9481 105.638 33.7647 104.995C33.2974 103.085 35.1808 98.4654 35.9576 96.8466C35.9842 96.7925 35.9998 96.7337 36.0035 96.6735C36.0073 96.6133 35.999 96.5529 35.9793 96.496C35.9596 96.439 35.9287 96.3865 35.8886 96.3415C35.8485 96.2965 35.7998 96.26 35.7455 96.234C35.6912 96.208 35.6322 96.193 35.5721 96.19C35.5119 96.187 35.4518 96.196 35.3951 96.2164C35.3384 96.2368 35.2864 96.2683 35.2419 96.309C35.1975 96.3497 35.1616 96.3989 35.1363 96.4536C35.0169 96.7048 32.2415 102.596 32.8787 105.212C33.0776 105.924 33.3608 106.609 33.7223 107.254C34.5557 108.889 35.4155 110.581 34.3008 114.345C32.6643 119.904 30.6514 132.601 30.2408 139.989Z" fill="#7D401F" fill-opacity="0.3"/>
<path d="M35.9014 133.08C35.7902 137.758 35.7113 141.137 34.718 144.123C33.2534 148.518 31.5461 158.99 35.5494 167.158C39.5953 175.424 56.8591 205.56 61.0668 211.981C65.758 219.142 72.7553 231.487 73.1316 235.077C73.144 235.188 73.1971 235.291 73.2808 235.366C73.3644 235.441 73.4726 235.482 73.5847 235.482H73.6332C73.7533 235.469 73.8632 235.408 73.939 235.314C74.0148 235.22 74.0503 235.1 74.0378 234.979C73.607 230.883 65.8733 217.653 61.8274 211.478C57.6298 205.07 40.4085 175.011 36.3667 166.753C32.774 159.421 33.927 149.373 35.5798 144.407C36.6176 141.293 36.6985 137.855 36.8118 133.096C36.8563 131.232 36.9048 129.119 37.014 126.739C37.3316 120.093 38.509 117.456 40.1375 113.805C40.5421 112.875 40.979 111.915 41.4301 110.804C43.0707 106.775 43.4126 101.282 43.6857 96.8557C43.7889 95.2167 43.888 93.6709 44.0357 92.4554C44.6102 87.7957 43.6007 85.2409 41.7882 82.6173C40.0019 80.0342 39.6439 78.0751 39.6439 75.7514V68.699C39.6439 68.5781 39.5959 68.4622 39.5106 68.3767C39.4252 68.2912 39.3094 68.2432 39.1887 68.2432C39.068 68.2432 38.9522 68.2912 38.8669 68.3767C38.7815 68.4622 38.7335 68.5781 38.7335 68.699V75.7554C38.7335 78.2554 39.1199 80.3624 41.0397 83.14C42.7754 85.6502 43.6695 87.9618 43.1314 92.346C42.9777 93.5899 42.8806 95.1499 42.7774 96.8031C42.5083 101.155 42.1705 106.572 40.5886 110.464C40.1415 111.56 39.7167 112.514 39.306 113.436C37.6998 117.038 36.4314 119.883 36.1037 126.698C35.9965 129.091 35.9459 131.21 35.9014 133.08Z" fill="#7D401F" fill-opacity="0.3"/>
<path d="M56.485 86.4192C56.5389 86.3905 56.5865 86.3513 56.625 86.3038C56.6634 86.2563 56.692 86.2015 56.7089 86.1428C56.7258 86.084 56.7307 86.0225 56.7234 85.9617C56.7161 85.901 56.6966 85.8424 56.6662 85.7894C56.6358 85.7364 56.5951 85.69 56.5464 85.6531C56.4978 85.6162 56.4422 85.5894 56.383 85.5744C56.3238 85.5595 56.2623 85.5566 56.2019 85.5659C56.1416 85.5753 56.0838 85.5967 56.0319 85.6289C55.7143 85.8113 48.2743 90.1579 47.8454 94.8996C47.6917 96.6018 47.7443 98.4965 47.8009 100.505C47.898 103.921 48.0032 107.453 47.0929 110.481C47.0589 110.596 47.0719 110.721 47.1291 110.827C47.1863 110.933 47.2831 111.013 47.3984 111.048C47.4412 111.06 47.4854 111.066 47.5299 111.066C47.6276 111.066 47.7227 111.035 47.8011 110.976C47.8794 110.918 47.9369 110.836 47.9648 110.742C48.9115 107.575 48.8103 103.968 48.7112 100.478C48.6546 98.4985 48.602 96.6281 48.7517 94.9807C49.14 90.7009 56.4142 86.4516 56.485 86.4192Z" fill="#7D401F" fill-opacity="0.3"/>
<path d="M40.0776 139.097C37.5934 147.809 34.7775 157.669 41.8213 171.223C47.8153 182.752 54.4303 194.266 59.2611 202.672C60.6468 205.081 61.9536 207.356 63.0703 209.325C68.0629 218.124 70.1202 222.23 70.1404 222.271C70.1783 222.346 70.2361 222.409 70.3075 222.453C70.3789 222.498 70.4611 222.521 70.545 222.522C70.6153 222.521 70.6844 222.505 70.7473 222.473C70.8545 222.42 70.9359 222.325 70.9738 222.211C71.0118 222.097 71.003 221.973 70.9496 221.866C70.9294 221.825 68.864 217.702 63.8592 208.879C62.7405 206.908 61.4317 204.625 60.046 202.222C55.2193 193.822 48.6103 182.319 42.6265 170.805C35.7485 157.574 38.5098 147.894 40.9474 139.352C41.2064 138.447 41.4512 137.594 41.6838 136.733C44.0324 128.068 47.5321 113.029 47.5321 112.5C47.5356 112.38 47.491 112.262 47.4081 112.174C47.3252 112.086 47.2108 112.035 47.0901 112.031C46.9694 112.028 46.8522 112.073 46.7644 112.156C46.6766 112.239 46.6253 112.353 46.6218 112.474C46.5328 113.179 43.2273 127.563 40.8058 136.494C40.5772 137.339 40.3345 138.19 40.0776 139.097Z" fill="#7D401F" fill-opacity="0.3"/>
<path d="M83.8999 237.307C83.9648 237.307 84.029 237.294 84.088 237.266C84.1428 237.242 84.1922 237.206 84.2332 237.162C84.2743 237.118 84.3063 237.066 84.3273 237.01C84.3484 236.953 84.3581 236.893 84.3559 236.833C84.3537 236.773 84.3397 236.713 84.3146 236.659C83.2606 234.335 71.4042 214.576 66.891 207.232C62.1938 199.594 52.1883 181.846 45.6138 168.376C40.0244 156.927 44.1431 147.284 46.1235 142.646C46.4209 141.951 46.6556 141.404 46.8053 140.967C48.5106 135.997 49.7729 131.963 50.5578 128.981C51.4742 125.494 52.4493 122.322 55.1317 118.799C56.7574 116.66 58.0738 114.303 59.042 111.797C59.0643 111.74 59.0749 111.679 59.0732 111.618C59.0715 111.557 59.0575 111.497 59.0322 111.441C59.0068 111.386 58.9705 111.336 58.9255 111.294C58.8804 111.253 58.8276 111.221 58.77 111.201C58.7124 111.181 58.6514 111.172 58.5905 111.176C58.5295 111.179 58.47 111.195 58.4153 111.223C58.3607 111.25 58.3121 111.288 58.2724 111.334C58.2327 111.381 58.2027 111.435 58.1843 111.493C57.2412 113.907 55.9702 116.179 54.4075 118.246C51.6239 121.892 50.6185 125.166 49.6758 128.75C48.899 131.71 47.6428 135.721 45.9435 140.671C45.8059 141.076 45.5773 141.611 45.286 142.292C43.4128 146.68 39.0149 156.955 44.7965 168.779C51.3832 182.266 61.4088 200.058 66.1142 207.716C71.2302 216.04 82.5 234.864 83.4852 237.042C83.5218 237.121 83.5803 237.188 83.6538 237.235C83.7273 237.282 83.8127 237.307 83.8999 237.307V237.307Z" fill="#7D401F" fill-opacity="0.3"/>
<path d="M48.759 155.657C49.119 150.717 55.0159 142.488 59.3227 136.479C59.8406 135.756 60.3342 135.061 60.8055 134.4C64.3073 129.459 65.0881 126.633 66.5062 121.497C66.9108 120.038 67.3639 118.383 67.9506 116.432C70.3457 108.509 75.7085 105.346 79.6249 103.038C79.9263 102.862 80.2217 102.688 80.5049 102.518C81.1118 102.149 81.7086 101.805 82.2871 101.468C85.5582 99.5558 88.3843 97.9067 92.7133 93.7434C97.0424 89.58 98.2076 88.8669 102.579 86.1724C103.287 85.7348 104.078 85.2465 104.978 84.6853C110.999 80.9312 115.057 81.8267 119.355 82.7748L120.015 82.9207C122.691 83.5236 125.431 83.7998 128.173 83.7432H128.283C128.403 83.7432 128.519 83.6952 128.604 83.6097C128.69 83.5242 128.738 83.4083 128.738 83.2874C128.738 83.1665 128.69 83.0506 128.604 82.9651C128.519 82.8796 128.403 82.8316 128.283 82.8316H128.145C125.477 82.8821 122.812 82.61 120.209 82.0212L119.552 81.8773C115.067 80.8887 110.833 79.9527 104.497 83.9033C103.599 84.4645 102.808 84.9507 102.102 85.3863C97.6655 88.1213 96.474 88.8568 92.0822 93.0849C87.834 97.1713 85.0484 98.7961 81.8279 100.678C81.2473 101.017 80.6546 101.363 80.0376 101.734L79.1637 102.252C75.1178 104.635 69.577 107.901 67.0807 116.175C66.49 118.128 66.0328 119.789 65.6282 121.254C64.2385 126.286 63.4738 129.06 60.0652 133.871C59.5979 134.53 59.1002 135.225 58.5823 135.946C54.2128 142.042 48.231 150.393 47.8608 155.598L47.8365 155.942C47.4178 161.645 46.9848 167.543 54.3847 180.762C58.9606 188.937 69.0591 206.204 77.1731 220.078C82.2952 228.836 86.7194 236.401 88.3701 239.314C88.4107 239.386 88.4696 239.445 88.5408 239.485C88.612 239.526 88.6928 239.547 88.7747 239.545C88.8534 239.546 88.9308 239.526 88.9992 239.487C89.1041 239.427 89.181 239.328 89.2132 239.211C89.2454 239.095 89.2303 238.97 89.1712 238.865C87.5164 235.945 83.0902 228.378 77.9661 219.618C69.8541 205.746 59.7597 188.483 55.1858 180.315C47.9194 167.334 48.3443 161.576 48.7529 156.003L48.759 155.657Z" fill="#7D401F" fill-opacity="0.3"/>
<path d="M93.6512 242.852C93.0626 239.76 92.0329 238.192 90.6047 236.002C90.01 235.09 89.3343 234.059 88.5818 232.748C86.4375 229.035 59.0894 180.497 53.9895 168.422C49.9437 157.782 54.1655 152.443 57.8938 147.735L58.1649 147.393C61.9195 142.644 65.8015 137.733 70.786 134.771C74.6053 132.502 75.7806 127.611 76.6383 124.033C76.9721 122.646 77.2614 121.446 77.6336 120.601C78.993 117.522 83.0227 114.195 86.9189 110.976L86.9472 110.954C90.0464 108.395 90.8292 107.19 92.925 103.962C93.544 103.01 94.3127 101.827 95.2918 100.38C101.417 93.3482 106.473 92.8275 119.96 91.4377C131.84 90.2221 136.281 86.389 139.849 83.3156C140.456 82.7869 141.045 82.2865 141.637 81.8205C142.23 81.3545 142.744 80.9412 143.27 80.5178C146.547 77.8841 149.136 75.8034 152.304 75.6373C156.241 75.4347 159.346 74.4095 161.28 72.6855C162.128 71.9318 162.425 71.8548 163.216 71.6502C164.007 71.4456 165.239 71.1295 167.745 69.9565C172.281 67.8475 180.105 69.4196 188.675 74.1624C193.402 76.7779 196.196 77.1365 199.433 77.5518C201.484 77.8152 203.81 78.113 206.97 79.0632C208.902 79.6426 210.441 80.0761 211.797 80.457C216.197 81.6969 218.851 82.4445 227.764 86.1297C238.358 90.5199 247.625 92.321 256.085 91.6322C263.086 91.0649 264.513 94.3531 264.527 94.3855C264.571 94.498 264.658 94.5884 264.769 94.6366C264.88 94.6849 265.005 94.6871 265.117 94.6428C265.23 94.5984 265.32 94.5112 265.368 94.4003C265.416 94.2893 265.419 94.1637 265.374 94.0512C265.312 93.8911 263.756 90.0965 256.012 90.7246C247.69 91.3992 238.562 89.6204 228.096 85.2869C219.134 81.5733 216.46 80.8298 212.027 79.5717C210.674 79.1908 209.141 78.7613 207.217 78.1798C203.98 77.2094 201.619 76.9055 199.53 76.6381C196.386 76.2329 193.663 75.8885 189.097 73.356C180.275 68.4735 172.143 66.8912 167.343 69.1218C164.915 70.2604 163.74 70.5602 162.971 70.7608C162.132 70.9756 161.67 71.0951 160.657 71.9966C158.903 73.5586 155.913 74.525 152.238 74.7175C148.774 74.8998 146.086 77.0615 142.683 79.7986C142.159 80.22 141.619 80.6535 141.065 81.0952C140.458 81.5733 139.867 82.0818 139.244 82.6167C135.773 85.607 131.454 89.3267 119.856 90.5179C106.483 91.8976 100.946 92.4669 94.5697 99.7887L94.5373 99.8333C93.5461 101.298 92.7692 102.493 92.1462 103.454C90.0686 106.691 89.3525 107.787 86.3626 110.257L86.3343 110.279C82.3552 113.565 78.2425 116.965 76.7961 120.239C76.3915 121.16 76.0921 122.394 75.7482 123.825C74.8824 127.429 73.8042 131.914 70.3146 133.987C65.1845 137.026 61.2499 142.012 57.4467 146.825L57.1757 147.168C53.2936 152.068 48.8958 157.622 53.1399 168.762C58.262 180.89 85.6424 229.488 87.7888 233.204C88.5595 234.537 89.2412 235.58 89.8441 236.502C91.2601 238.674 92.2028 240.108 92.7571 243.022C93.6249 247.584 97.8994 255.658 101.531 260.824C101.571 260.886 101.627 260.936 101.691 260.972C101.756 261.007 101.829 261.026 101.903 261.026C101.996 261.027 102.088 260.998 102.164 260.943C102.213 260.909 102.255 260.866 102.287 260.815C102.319 260.765 102.341 260.708 102.351 260.649C102.361 260.591 102.36 260.53 102.347 260.472C102.334 260.413 102.309 260.358 102.275 260.309C98.1968 254.495 94.4078 246.831 93.6512 242.852Z" fill="#7D401F" fill-opacity="0.3"/>
<path d="M144.71 68.9316C146.802 68.3045 148.855 67.5528 150.858 66.6806C153.814 65.4468 156.605 64.2818 162.662 63.2708C169.868 62.0673 180.199 65.6129 193.277 70.1026C197.727 71.6282 202.324 73.2065 207.359 74.8031C221.151 79.1814 226.577 81.4019 231.343 83.3611C233.582 84.2809 235.696 85.1481 238.439 86.1327C246.867 89.1536 258.689 87.8751 262.86 86.5562C265.783 85.6303 267.988 86.5704 268.929 86.9715C269.137 87.0812 269.364 87.1499 269.598 87.1741C269.715 87.1726 269.826 87.1263 269.91 87.0449C269.993 86.9635 270.043 86.8532 270.047 86.7366C270.052 86.62 270.012 86.506 269.935 86.4182C269.858 86.3303 269.751 86.2753 269.635 86.2644C269.576 86.2462 269.433 86.1814 269.285 86.1226C268.251 85.683 265.83 84.6497 262.583 85.6748C259.035 86.7973 247.138 88.2722 238.745 85.2696C236.02 84.2931 233.914 83.428 231.687 82.5142C226.892 80.5469 221.461 78.3183 207.632 73.9319C202.607 72.3353 198.013 70.7591 193.57 69.2355C180.371 64.7052 169.942 61.1313 162.51 62.3672C156.35 63.3964 153.512 64.5816 150.506 65.8358C148.534 66.694 146.513 67.4341 144.453 68.0523C138.445 69.821 131.207 69.8494 123.518 68.1353C121.881 67.7686 119.952 67.0453 117.908 66.2795C111.569 63.9049 103.681 60.9489 98.1403 66.3402C95.5428 68.8667 93.8921 71.0002 92.4356 72.8702C89.9191 76.1119 87.7424 78.9159 81.6412 82.4818C78.625 84.2424 76.1611 85.4135 74.1826 86.3536C69.6593 88.5012 67.1691 89.6844 64.8771 94.4274C61.6404 101.089 60.5015 106.76 60.4894 106.817C60.4777 106.875 60.4777 106.936 60.4893 106.995C60.501 107.054 60.5241 107.11 60.5574 107.159C60.5906 107.209 60.6333 107.252 60.6831 107.285C60.7329 107.319 60.7887 107.342 60.8474 107.354C60.9061 107.365 60.9666 107.365 61.0253 107.354C61.084 107.342 61.1398 107.319 61.1896 107.285C61.2394 107.252 61.2821 107.209 61.3154 107.16C61.3487 107.11 61.3718 107.054 61.3835 106.995C61.3936 106.94 62.5244 101.375 65.6944 94.8245C67.8508 90.3672 70.0983 89.3035 74.5771 87.1762C76.5717 86.23 79.0539 85.0488 82.1024 83.2679C88.3574 79.621 90.5826 76.7481 93.1598 73.4294C94.5961 71.5756 96.2266 69.4766 98.7795 66.9926C103.906 62.0045 111.176 64.7295 117.593 67.1345C119.666 67.9104 121.627 68.6459 123.324 69.0248C131.161 70.7773 138.557 70.7449 144.71 68.9316Z" fill="#7D401F" fill-opacity="0.3"/>
<path d="M132.494 76.9945C132.494 76.8735 132.446 76.7576 132.36 76.6721C132.275 76.5866 132.159 76.5385 132.039 76.5385C130.218 76.5385 127.993 76.1859 125.418 75.7786C121.133 75.1018 115.803 74.2588 109.365 74.5121C98.9833 74.9174 88.9885 85.252 88.5677 85.6958C88.4843 85.7831 88.439 85.9001 88.4416 86.0209C88.4443 86.1418 88.4947 86.2566 88.5819 86.3402C88.6656 86.4223 88.7782 86.4681 88.8954 86.4678C88.9569 86.468 89.0178 86.4556 89.0745 86.4316C89.1312 86.4076 89.1824 86.3724 89.2251 86.328C89.3243 86.2226 99.3899 75.8171 109.401 75.424C115.749 75.1748 121.03 76.0096 125.274 76.6783C127.904 77.0836 130.155 77.4504 132.039 77.4504C132.159 77.4504 132.275 77.4024 132.36 77.3169C132.446 77.2314 132.494 77.1154 132.494 76.9945V76.9945Z" fill="#7D401F" fill-opacity="0.3"/>
<path d="M66.6397 37.2995C66.5236 37.3207 66.4201 37.3862 66.3513 37.4823C66.2824 37.5784 66.2535 37.6974 66.2705 37.8145C66.2876 37.9315 66.3493 38.0373 66.4428 38.1096C66.5362 38.182 66.654 38.2151 66.7713 38.2022C66.8058 38.2022 70.0882 37.7559 72.5505 40.1455C74.9339 42.462 75.8147 46.5839 75.1627 52.3955C75.1496 52.5163 75.1849 52.6373 75.2609 52.732C75.3368 52.8267 75.4471 52.8874 75.5677 52.9006H75.6183C75.7304 52.9004 75.8385 52.8589 75.9221 52.7842C76.0057 52.7094 76.059 52.6065 76.0719 52.4949C76.7563 46.379 75.7823 41.9995 73.1762 39.4781C70.3818 36.7822 66.7916 37.2772 66.6397 37.2995Z" fill="#7D401F" fill-opacity="0.3"/>
<path d="M79.9947 45.3925C79.0632 41.7534 76.0582 38.6559 75.9306 38.5261C75.8888 38.4832 75.8389 38.449 75.7838 38.4254C75.7287 38.4018 75.6695 38.3894 75.6096 38.3887C75.5498 38.388 75.4903 38.3992 75.4347 38.4216C75.3792 38.4439 75.3285 38.477 75.2857 38.519C75.2429 38.5609 75.2087 38.6109 75.1852 38.6661C75.1617 38.7213 75.1492 38.7805 75.1486 38.8405C75.1479 38.9005 75.1591 38.9601 75.1814 39.0157C75.2037 39.0714 75.2367 39.1221 75.2786 39.165C75.309 39.1955 78.2431 42.222 79.1118 45.6177C79.2374 46.1086 79.3467 46.5974 79.452 47.0701C80.1101 50.0357 80.7338 52.8371 85.1765 54.2449C85.2202 54.26 85.266 54.2675 85.3122 54.2672C85.4216 54.268 85.5276 54.2294 85.6109 54.1584C85.6942 54.0874 85.7492 53.9888 85.7659 53.8805C85.7826 53.7722 85.7599 53.6615 85.7018 53.5687C85.6438 53.4758 85.5544 53.4069 85.4499 53.3746C81.5094 52.1251 80.995 49.8085 80.341 46.8713C80.2336 46.3926 80.1243 45.8956 79.9947 45.3925Z" fill="#7D401F" fill-opacity="0.3"/>
<path d="M82.7576 43.3299C82.6986 43.3197 82.6382 43.3213 82.5799 43.3345C82.5215 43.3477 82.4663 43.3724 82.4175 43.407C82.3686 43.4416 82.3271 43.4856 82.2952 43.5363C82.2633 43.5871 82.2417 43.6436 82.2317 43.7027C82.1933 43.9378 81.372 49.4881 91.0513 53.5773C100.47 57.5571 106.277 57.9969 106.52 58.0151H106.55C106.671 58.0191 106.788 57.975 106.877 57.8923C106.965 57.8097 107.017 57.6953 107.021 57.5744C107.025 57.4535 106.981 57.3359 106.898 57.2475C106.816 57.1592 106.701 57.1073 106.581 57.1032C106.524 57.1032 100.684 56.6595 91.4093 52.7364C82.4623 48.9551 83.1157 43.9195 83.1359 43.8527C83.1454 43.7934 83.1432 43.7329 83.1293 43.6746C83.1154 43.6162 83.0902 43.5612 83.0551 43.5126C83.0199 43.4641 82.9756 43.4229 82.9245 43.3916C82.8735 43.3602 82.8168 43.3392 82.7576 43.3299V43.3299Z" fill="#7D401F" fill-opacity="0.3"/>
<path d="M95.9788 51.1202C97.0448 51.258 98.6752 51.6734 100.935 52.2489C106.105 53.5681 114.759 55.7728 129.38 58.0079C129.403 58.0099 129.426 58.0099 129.449 58.0079C129.563 58.0066 129.672 57.9626 129.755 57.8847C129.838 57.8067 129.889 57.7003 129.897 57.5866C129.906 57.4729 129.872 57.36 129.802 57.2703C129.731 57.1807 129.63 57.1206 129.518 57.1021C114.941 54.8731 106.313 52.6724 101.159 51.3593C98.7845 50.7514 97.2147 50.3461 96.1022 50.2103C88.6925 49.2579 87.9481 45.1748 87.9177 44.9985C87.8933 44.8849 87.8265 44.785 87.731 44.7191C87.6355 44.6532 87.5185 44.6263 87.4039 44.6439C87.2893 44.6615 87.1857 44.7222 87.1143 44.8137C87.0429 44.9052 87.009 45.0206 87.0196 45.1363C87.0358 45.343 87.8449 50.0766 95.9788 51.1202Z" fill="#7D401F" fill-opacity="0.3"/>
<path d="M63.4915 151.386C66.1517 147.756 72.259 139.964 72.3196 139.885C72.3942 139.79 72.428 139.669 72.4136 139.549C72.3992 139.429 72.3377 139.32 72.2428 139.245C72.1478 139.17 72.0271 139.136 71.9072 139.151C71.7873 139.165 71.6781 139.227 71.6035 139.322C71.5428 139.401 65.4275 147.203 62.7592 150.847C62.5347 151.155 62.2636 151.494 61.9804 151.86C58.7842 155.874 52.8388 163.344 62.7228 182.452C73.0256 202.218 90.6394 232.696 92.195 235.283C93.1862 236.922 95.5834 241.007 96.4128 243.497C96.4429 243.587 96.5007 243.666 96.5781 243.722C96.6554 243.778 96.7483 243.808 96.8437 243.808C96.8926 243.808 96.9412 243.8 96.9873 243.784C97.0442 243.766 97.0967 243.736 97.142 243.697C97.1873 243.658 97.2244 243.61 97.2511 243.557C97.2778 243.503 97.2937 243.445 97.2977 243.385C97.3017 243.325 97.2939 243.265 97.2746 243.209C96.4492 240.723 94.226 236.88 92.9738 234.809C91.4162 232.234 73.8247 201.786 63.53 182.033C53.919 163.461 59.6257 156.291 62.6905 152.44C62.9818 152.063 63.2569 151.709 63.4915 151.386Z" fill="#7D401F" fill-opacity="0.3"/>
<path d="M69.2 154.628C71.8075 151.069 77.7266 143.512 78.0179 143.141C78.7988 142.286 79.4846 141.563 80.0894 140.925C83.227 137.618 84.4003 136.381 86.6883 129.748C89.3929 121.909 90.455 119.31 92.7712 115.957C93.4973 114.858 94.1333 113.701 94.6728 112.499C95.7834 110.183 96.8333 107.997 99.7301 106.155C103.938 103.473 109.932 102.484 119.521 101.599C128.31 100.789 133.641 99.0544 139.192 95.2051C140.223 94.4899 141.251 93.6978 142.341 92.859C146.917 89.3359 152.102 85.3448 161.357 83.7422C168.488 82.4983 174.087 82.7941 178.176 83.0068C180.761 83.1425 182.804 83.2499 184.331 82.9278C187.993 82.1559 197.721 80.1056 210.585 84.7349C214.526 86.1531 217.981 87.4923 221.03 88.6754C227.962 91.3618 233.436 93.4871 239.39 94.4798C241.492 94.8303 243.608 95.0086 245.661 95.1808C251.847 95.7014 257.192 96.1492 259.075 101.08C261.409 107.199 262.457 114.267 262.801 116.591C262.842 116.865 262.872 117.071 262.894 117.199C262.904 117.258 262.925 117.314 262.957 117.365C262.989 117.416 263.03 117.46 263.079 117.495C263.127 117.53 263.182 117.555 263.241 117.568C263.299 117.582 263.359 117.584 263.418 117.574C263.477 117.564 263.534 117.542 263.584 117.511C263.635 117.479 263.679 117.438 263.714 117.389C263.749 117.34 263.773 117.285 263.787 117.227C263.8 117.168 263.802 117.108 263.792 117.049C263.772 116.923 263.742 116.721 263.701 116.455C263.353 114.107 262.285 106.964 259.925 100.754C257.839 95.2841 251.96 94.7938 245.736 94.2711C243.713 94.1009 241.613 93.9247 239.547 93.5803C233.681 92.6017 228.518 90.598 221.365 87.8245C218.313 86.6414 214.851 85.2981 210.901 83.8759C197.794 79.1595 187.884 81.2422 184.153 82.0364C182.737 82.3342 180.751 82.239 178.232 82.0971C174.099 81.8804 168.441 81.5846 161.207 82.8427C151.726 84.4959 146.215 88.7382 141.787 92.1459C140.707 92.9785 139.685 93.7666 138.674 94.4656C133.198 98.2622 128.154 99.8952 119.438 100.701C109.707 101.599 103.606 102.614 99.2406 105.396C96.1334 107.377 94.9783 109.786 93.8596 112.116C93.3424 113.273 92.7336 114.388 92.0389 115.448C89.66 118.893 88.5817 121.526 85.8447 129.46C83.6195 135.907 82.5675 137.015 79.4461 140.307C78.8393 140.951 78.1434 141.681 77.3504 142.548L77.3281 142.574C77.2674 142.653 71.1521 150.455 68.4839 154.1C68.2593 154.408 67.9903 154.746 67.705 155.113C64.5088 159.126 58.5634 166.596 68.4474 185.705C78.7503 205.47 96.364 235.948 97.9196 238.535C98.5912 239.648 98.7955 241.048 99.01 242.531C99.1336 243.617 99.3543 244.689 99.6695 245.736C99.6996 245.826 99.7573 245.905 99.8347 245.961C99.912 246.017 100.005 246.047 100.1 246.048C100.149 246.048 100.198 246.039 100.244 246.023C100.301 246.005 100.353 245.975 100.399 245.936C100.444 245.897 100.481 245.849 100.508 245.796C100.534 245.742 100.55 245.684 100.554 245.624C100.558 245.565 100.551 245.505 100.531 245.448C100.237 244.455 100.029 243.438 99.9102 242.409C99.6917 240.9 99.4672 239.342 98.6964 238.069C97.1388 235.494 79.5473 205.046 69.2526 185.293C59.6396 166.721 65.3483 159.551 68.413 155.7C68.6902 155.305 68.9653 154.951 69.2 154.628Z" fill="#7D401F" fill-opacity="0.3"/>
<path d="M104.784 246.233C104.447 244.912 104.026 243.271 103.142 240.747C100.7 233.778 94.9348 223.824 88.2591 212.297C83.7924 204.584 79.172 196.61 74.9421 188.494C65.3311 169.922 71.0378 162.752 74.1026 158.9C74.3939 158.534 74.669 158.189 74.9117 157.867C77.5658 154.245 87.99 142.249 88.1074 142.115L89.5457 140.322C93.3306 135.628 97.245 130.774 98.6995 126.582C98.8815 126.06 99.0595 125.511 99.2497 124.929C100.755 120.29 102.632 114.514 109.207 112.07C113.123 110.616 116.337 110.045 119.447 109.483C122.331 108.967 125.054 108.47 128.004 107.33C129.419 106.767 130.802 106.126 132.147 105.409C135.015 103.934 136.909 102.96 142.737 103.383C151.28 104.011 154.589 103.957 161.55 98.6668C162.701 97.7936 163.666 96.9791 164.599 96.1931C169.16 92.3438 172.173 89.8113 187.067 89.8113C206.834 89.8113 219.457 92.7712 226.567 95.255C228.655 95.9844 230.656 96.6266 232.59 97.2486C238.543 99.1591 243.685 100.81 246.843 103.673C247.729 104.483 248.68 105.229 249.603 105.96C253.128 108.756 256.46 111.398 256.001 116.463C255.394 123.258 255.414 125.195 257.136 127.142C257.381 127.419 257.672 127.703 257.979 128.001C259.758 129.729 262.193 132.097 260.864 138.082C260.513 139.673 259.992 141.222 259.309 142.701C258.166 145.298 257.593 146.603 260.484 153.552C262.61 158.657 272.13 176.978 281.338 194.695C289.58 210.552 297.364 225.53 298.511 228.5C300.111 232.641 301.022 237.139 301.748 240.751C302.132 242.658 302.466 244.305 302.842 245.678L302.879 245.81C303.987 249.846 306.291 258.247 312.445 262.149C312.496 262.185 312.553 262.21 312.613 262.222C312.673 262.235 312.736 262.236 312.796 262.223C312.857 262.211 312.914 262.187 312.965 262.152C313.016 262.117 313.059 262.072 313.092 262.02C313.125 261.968 313.147 261.909 313.156 261.848C313.166 261.787 313.163 261.725 313.148 261.665C313.133 261.605 313.106 261.549 313.069 261.5C313.031 261.451 312.984 261.41 312.931 261.379C307.076 257.666 304.839 249.495 303.757 245.577L303.72 245.443C303.352 244.102 303.022 242.469 302.64 240.581C301.902 236.934 300.985 232.394 299.357 228.182C298.189 225.163 290.395 210.165 282.141 194.284C272.943 176.575 263.435 158.274 261.327 153.201C258.586 146.615 259.074 145.503 260.142 143.072C260.853 141.539 261.396 139.933 261.76 138.282C263.199 131.799 260.441 129.121 258.619 127.342C258.323 127.056 258.046 126.785 257.824 126.532C256.327 124.838 256.315 123.126 256.913 116.538C257.417 110.983 253.735 108.063 250.173 105.239C249.263 104.518 248.324 103.772 247.46 102.99C244.157 99.9958 238.927 98.3183 232.873 96.3734C230.945 95.7656 228.95 95.1153 226.873 94.39C219.697 91.8818 206.967 88.8936 187.074 88.8936C171.847 88.8936 168.732 91.5273 164.012 95.4901C163.088 96.268 162.133 97.0744 161 97.9334C154.276 103.043 151.274 103.089 142.793 102.469C136.725 102.024 134.621 103.1 131.724 104.591C130.407 105.294 129.053 105.924 127.666 106.477C124.799 107.595 122.117 108.075 119.279 108.584C116.129 109.147 112.874 109.731 108.883 111.218C101.894 113.815 99.8606 120.077 98.3758 124.65C98.1877 125.227 98.0117 125.77 97.8336 126.285C96.4297 130.337 92.574 135.118 88.8296 139.753C88.342 140.361 87.8606 140.957 87.3993 141.532C87.2941 141.654 76.8457 153.688 74.1713 157.334C73.9468 157.642 73.6757 157.981 73.3925 158.347C70.1963 162.361 64.2509 169.83 74.1349 188.939C78.3831 197.076 82.9994 205.06 87.4722 212.781C94.1236 224.268 99.8707 234.187 102.284 241.077C103.154 243.561 103.569 245.182 103.902 246.485C104.958 250.622 105.278 251.87 116.501 267.729C116.542 267.79 116.598 267.841 116.663 267.876C116.727 267.911 116.8 267.93 116.874 267.931C116.968 267.932 117.06 267.903 117.137 267.848C117.234 267.778 117.301 267.672 117.321 267.553C117.342 267.434 117.315 267.311 117.246 267.212C106.118 251.452 105.808 250.243 104.784 246.233Z" fill="#7D401F" fill-opacity="0.3"/>
<path d="M124.573 265.63C117.558 261.831 110.491 249.3 106.569 239.724C103.63 232.542 98.9243 224.351 93.4745 214.867C89.548 208.036 85.0975 200.28 80.643 191.745C71.032 173.173 76.7387 166.003 79.8035 162.152C80.0948 161.785 80.3699 161.441 80.6126 161.119C83.1939 157.596 89.0159 150.158 89.4185 149.646C94.4495 144.929 96.4725 140.871 97.2857 138.3C97.3219 138.185 97.3108 138.06 97.2549 137.952C97.1989 137.845 97.1027 137.764 96.9873 137.728C96.872 137.692 96.7469 137.703 96.6398 137.759C96.5326 137.815 96.452 137.911 96.4158 138.027C95.637 140.503 93.6768 144.417 88.7711 149.008L88.7246 149.058C88.6639 149.137 82.5486 156.939 79.8803 160.584C79.6558 160.892 79.3867 161.23 79.1015 161.597C75.9053 165.61 69.9598 173.08 79.8439 192.189C84.3085 200.752 88.763 208.506 92.6936 215.347C98.1272 224.803 102.808 232.973 105.735 240.092C109.711 249.817 116.918 262.544 124.144 266.456C124.211 266.492 124.285 266.511 124.361 266.511C124.462 266.511 124.56 266.477 124.64 266.415C124.72 266.353 124.777 266.265 124.802 266.167C124.827 266.068 124.818 265.965 124.778 265.872C124.737 265.779 124.666 265.702 124.577 265.654L124.573 265.63Z" fill="#7D401F" fill-opacity="0.3"/>
<path d="M136.8 267.409C128.892 265.788 121.514 259.031 114.242 246.744C107.378 235.157 97.5546 216.444 86.3617 194.977C76.7487 176.405 82.4575 169.235 85.5222 165.383C85.8135 165.017 86.0886 164.672 86.3314 164.35C88.9916 160.72 95.0988 152.928 95.1595 152.849C95.2341 152.754 95.2679 152.633 95.2534 152.513C95.239 152.393 95.1776 152.283 95.0826 152.209C94.9877 152.134 94.8669 152.1 94.7471 152.115C94.6272 152.129 94.5179 152.191 94.4434 152.286C94.3827 152.365 88.2673 160.167 85.5991 163.811C85.3745 164.119 85.1035 164.458 84.8203 164.824C81.624 168.838 75.6786 176.307 85.5627 195.416C96.7616 216.891 106.601 235.623 113.465 247.23C120.877 259.74 128.453 266.637 136.626 268.3C136.656 268.304 136.686 268.304 136.717 268.3C136.829 268.299 136.936 268.257 137.019 268.181C137.102 268.105 137.154 268.002 137.165 267.89C137.177 267.778 137.146 267.667 137.08 267.576C137.014 267.485 136.917 267.422 136.808 267.398L136.8 267.409Z" fill="#7D401F" fill-opacity="0.3"/>
<path d="M153.9 262.771C142.37 268.288 131.68 264.353 122.126 251.079L121.895 250.759C113.818 239.616 97.0132 207.724 92.057 198.216C82.4461 179.644 88.1528 172.474 91.2175 168.623C91.5088 168.256 91.7839 167.912 92.0267 167.59C94.6363 164.026 98.2391 158.22 98.4475 157.885C101.336 153.958 103.914 149.811 106.159 145.482C107.17 143.562 107.98 141.491 108.7 139.666C109.448 137.768 110.221 135.804 110.733 135.466C110.783 135.433 110.826 135.391 110.859 135.341C110.893 135.291 110.916 135.236 110.928 135.177C110.94 135.118 110.941 135.058 110.929 134.999C110.918 134.94 110.895 134.884 110.862 134.834C110.829 134.784 110.787 134.741 110.737 134.707C110.688 134.674 110.632 134.65 110.574 134.638C110.515 134.626 110.454 134.626 110.396 134.637C110.337 134.648 110.281 134.671 110.231 134.704C109.515 135.178 108.892 136.694 107.854 139.33C107.142 141.135 106.335 143.179 105.354 145.061C103.126 149.354 100.567 153.467 97.701 157.363L97.6828 157.391C97.6444 157.45 93.9465 163.428 91.2944 167.051C91.0698 167.359 90.7988 167.697 90.5156 168.064C87.3193 172.077 81.3739 179.547 91.258 198.656C96.2223 208.178 113.053 240.123 121.167 251.314L121.396 251.632C122.957 253.8 126.611 258.877 132.178 262.421C136.022 264.87 140.009 266.096 144.083 266.096C147.43 266.096 150.836 265.268 154.301 263.614C154.355 263.589 154.405 263.553 154.445 263.508C154.486 263.464 154.517 263.411 154.538 263.355C154.558 263.298 154.567 263.238 154.564 263.177C154.561 263.117 154.546 263.058 154.52 263.004C154.494 262.949 154.458 262.901 154.413 262.86C154.368 262.82 154.315 262.789 154.259 262.77C154.202 262.75 154.141 262.742 154.081 262.745C154.021 262.749 153.962 262.765 153.908 262.791L153.9 262.771Z" fill="#7D401F" fill-opacity="0.3"/>
<path d="M123.759 119.679C123.257 120.323 122.691 121.055 121.985 121.896C117.822 126.861 111.807 131.303 111.747 131.347C111.657 131.421 111.6 131.527 111.586 131.642C111.571 131.758 111.602 131.874 111.671 131.968C111.739 132.062 111.841 132.126 111.955 132.147C112.07 132.168 112.187 132.144 112.285 132.081C112.345 132.036 118.447 127.533 122.681 122.483C123.399 121.628 123.971 120.89 124.477 120.24C126.923 117.093 127.362 116.525 133.002 117.172C140.122 117.982 142.534 118.467 150.601 123.985L152.058 124.984C159.164 129.878 166.493 134.914 176.509 134.914C177.391 134.914 178.295 134.873 179.22 134.792C185.1 134.273 189.79 130.839 193.16 124.583C195.83 119.628 196.902 114.284 197.361 112.002L197.416 111.733C197.428 111.674 197.428 111.614 197.417 111.555C197.406 111.496 197.383 111.44 197.35 111.39C197.317 111.34 197.274 111.297 197.225 111.264C197.175 111.23 197.12 111.207 197.061 111.195C196.943 111.171 196.82 111.194 196.719 111.261C196.618 111.328 196.548 111.432 196.524 111.55L196.469 111.822C193.682 125.691 187.852 133.114 179.139 133.884C168.029 134.865 160.172 129.454 152.574 124.222L151.115 123.221C142.872 117.581 140.394 117.089 133.111 116.254C127.164 115.585 126.399 116.28 123.759 119.679Z" fill="#7D401F" fill-opacity="0.3"/>
<path d="M109.765 151.346C109.836 151.387 109.916 151.409 109.998 151.408C110.077 151.409 110.155 151.388 110.223 151.349C110.292 151.31 110.35 151.254 110.39 151.186C110.449 151.086 116.279 141.224 119.068 137.232C123.711 130.589 131.369 128.739 141.833 131.734C146.105 132.95 149.902 134.571 153.566 136.146C162.023 139.757 170.011 143.167 181.942 140.875C182.001 140.864 182.057 140.841 182.107 140.808C182.157 140.775 182.2 140.733 182.233 140.683C182.267 140.634 182.29 140.578 182.302 140.519C182.314 140.461 182.315 140.4 182.303 140.341C182.292 140.283 182.269 140.227 182.236 140.177C182.203 140.126 182.161 140.083 182.112 140.05C182.062 140.016 182.006 139.993 181.948 139.981C181.889 139.969 181.829 139.968 181.77 139.98C170.115 142.221 162.25 138.863 153.924 135.307C150.226 133.728 146.401 132.097 142.076 130.849C135.738 129.035 130.301 128.97 125.907 130.658C122.849 131.834 120.294 133.866 118.316 136.699C115.506 140.719 109.656 150.61 109.597 150.709C109.566 150.762 109.545 150.82 109.536 150.881C109.527 150.942 109.531 151.004 109.547 151.063C109.562 151.123 109.59 151.178 109.627 151.227C109.665 151.275 109.712 151.316 109.765 151.346Z" fill="#7D401F" fill-opacity="0.3"/>
<path d="M191.317 136.223C191.371 136.223 191.425 136.213 191.475 136.194C191.708 136.109 197.207 133.904 201.469 118.047C201.488 117.988 201.495 117.925 201.49 117.863C201.485 117.801 201.467 117.741 201.437 117.687C201.408 117.632 201.367 117.584 201.319 117.545C201.27 117.507 201.214 117.479 201.154 117.463C201.094 117.447 201.032 117.443 200.97 117.452C200.909 117.461 200.85 117.483 200.797 117.515C200.744 117.548 200.699 117.591 200.663 117.642C200.628 117.693 200.603 117.751 200.591 117.811C196.487 133.077 191.226 135.312 191.155 135.341C191.056 135.379 190.973 135.451 190.922 135.543C190.87 135.636 190.852 135.744 190.871 135.849C190.89 135.954 190.945 136.048 191.027 136.116C191.108 136.185 191.211 136.222 191.317 136.223V136.223Z" fill="#7D401F" fill-opacity="0.3"/>
<path d="M99.342 204.177C99.4175 204.229 99.5072 204.257 99.5989 204.256C99.6734 204.256 99.7467 204.237 99.8124 204.202C99.878 204.167 99.9339 204.116 99.9751 204.054C100.141 203.808 101.484 201.363 97.2605 191.29C96.4514 189.347 95.7049 187.706 95.0475 186.256C92.2722 180.121 91.3376 178.054 93.9936 173.672C97.3859 168.077 100.024 164.209 100.05 164.171C100.084 164.121 100.107 164.065 100.12 164.007C100.132 163.948 100.133 163.888 100.121 163.829C100.11 163.77 100.088 163.714 100.055 163.664C100.022 163.613 99.9801 163.57 99.9307 163.536C99.8812 163.503 99.8257 163.479 99.7671 163.467C99.7086 163.454 99.6482 163.454 99.5894 163.465C99.5306 163.476 99.4745 163.499 99.4244 163.531C99.3744 163.564 99.3312 163.607 99.2975 163.656C99.2712 163.695 96.6213 167.58 93.2168 173.198C90.31 177.994 91.4549 180.522 94.2283 186.632C94.8796 188.077 95.62 189.712 96.4311 191.643C100.392 201.088 99.2631 203.472 99.2206 203.549C99.1545 203.649 99.1301 203.771 99.1528 203.888C99.1756 204.006 99.2435 204.109 99.342 204.177Z" fill="#7D401F" fill-opacity="0.3"/>
<path d="M175.318 123.766C167.191 123.924 162.514 118.738 159.102 114.949C158.45 114.225 157.835 113.543 157.251 112.957C153.5 109.198 149.563 109.567 149.396 109.583C149.336 109.589 149.278 109.607 149.226 109.636C149.173 109.665 149.127 109.703 149.089 109.75C149.052 109.797 149.024 109.85 149.007 109.908C148.99 109.965 148.985 110.026 148.991 110.085C148.997 110.145 149.015 110.203 149.044 110.255C149.073 110.308 149.111 110.354 149.158 110.392C149.205 110.43 149.258 110.458 149.316 110.475C149.373 110.492 149.433 110.497 149.493 110.491C149.529 110.491 153.16 110.148 156.607 113.601C157.176 114.171 157.783 114.846 158.428 115.559C161.903 119.409 166.643 124.678 174.943 124.678H175.348H175.368C182.123 124.226 186.347 120.38 189.488 111.814C191.034 107.593 194.264 102.816 205.66 103.4C217.741 104.008 226.354 105.629 234.636 112.019C234.683 112.059 234.738 112.09 234.797 112.109C234.856 112.128 234.918 112.134 234.98 112.128C235.041 112.122 235.101 112.103 235.155 112.073C235.21 112.042 235.257 112.001 235.295 111.952C235.333 111.903 235.36 111.847 235.375 111.786C235.391 111.726 235.393 111.663 235.384 111.602C235.374 111.541 235.352 111.482 235.318 111.43C235.285 111.377 235.242 111.332 235.19 111.297C226.759 104.784 217.658 103.098 205.704 102.488C200.321 102.214 196.111 103.12 193.19 105.181C190.479 107.092 189.29 109.702 188.632 111.5C185.636 119.663 181.653 123.339 175.318 123.766Z" fill="#7D401F" fill-opacity="0.3"/>
<path d="M219.754 98.0463C209.406 95.2687 205.334 96.6848 200.179 98.4758C199.621 98.6784 199.051 98.8688 198.456 99.0674C192.59 101.026 188.795 100.471 188.758 100.467C188.642 100.455 188.526 100.487 188.433 100.558C188.34 100.63 188.278 100.734 188.26 100.849C188.241 100.965 188.268 101.083 188.335 101.18C188.401 101.276 188.502 101.343 188.617 101.367C188.779 101.393 192.64 101.975 198.743 99.9304C199.35 99.7278 199.916 99.5252 200.479 99.3368C205.485 97.5965 209.44 96.2229 219.52 98.9316C230.411 101.855 237.462 104.215 243.547 112.339C248.679 119.193 249.138 124.118 248.216 129.846C247.876 131.955 247.407 133.946 246.986 135.703C246.264 138.742 245.693 141.144 246.1 142.769C246.124 142.868 246.181 142.955 246.261 143.018C246.341 143.08 246.44 143.114 246.541 143.114C246.579 143.114 246.616 143.109 246.652 143.099C246.769 143.07 246.87 142.995 246.931 142.891C246.993 142.788 247.011 142.664 246.982 142.546C246.63 141.128 247.206 138.717 247.872 135.913C248.293 134.141 248.768 132.133 249.114 129.992C250.075 124.027 249.602 118.903 244.275 111.792C238.015 103.427 230.836 101.018 219.754 98.0463Z" fill="#7D401F" fill-opacity="0.3"/>
<path d="M98.6069 177.966C98.4886 177.942 98.3656 177.966 98.2649 178.033C98.1642 178.099 98.094 178.204 98.0699 178.322C98.0457 178.441 98.0696 178.564 98.1361 178.665C98.2027 178.766 98.3066 178.836 98.4249 178.86C98.5586 178.882 98.694 178.892 98.8294 178.89C99.8591 178.89 102.543 178.404 103.751 173.561C105.066 168.292 107.054 160.329 117.209 152.947C117.26 152.912 117.304 152.868 117.337 152.817C117.371 152.766 117.394 152.708 117.404 152.648C117.415 152.587 117.414 152.525 117.4 152.466C117.386 152.406 117.361 152.349 117.325 152.3C117.289 152.25 117.243 152.208 117.191 152.176C117.138 152.145 117.08 152.124 117.019 152.116C116.958 152.107 116.897 152.111 116.838 152.127C116.778 152.143 116.723 152.171 116.675 152.209C106.251 159.786 104.133 168.27 102.869 173.338C101.597 178.469 98.7404 177.993 98.6069 177.966Z" fill="#7D401F" fill-opacity="0.3"/>
<path d="M176.179 146.445C168.13 145.876 160.468 143.811 153.707 141.975C148.42 140.542 143.423 139.191 138.971 138.745C128.64 137.711 126.597 142.273 126.516 142.467C126.473 142.578 126.474 142.701 126.52 142.811C126.566 142.921 126.652 143.008 126.762 143.055C126.871 143.101 126.994 143.103 127.105 143.06C127.215 143.017 127.305 142.932 127.354 142.824C127.372 142.784 129.292 138.69 138.884 139.653C143.262 140.09 148.222 141.434 153.473 142.854C160.272 144.694 167.979 146.78 176.117 147.353H176.149C176.265 147.351 176.376 147.304 176.459 147.222C176.542 147.14 176.59 147.03 176.594 146.913C176.598 146.797 176.558 146.683 176.481 146.596C176.404 146.509 176.297 146.454 176.181 146.443L176.179 146.445Z" fill="#7D401F" fill-opacity="0.3"/>
<path d="M122.908 153.402C122.965 153.381 123.018 153.349 123.063 153.308C123.108 153.266 123.144 153.216 123.169 153.16C123.194 153.104 123.208 153.044 123.209 152.983C123.21 152.922 123.199 152.861 123.177 152.804C123.154 152.748 123.121 152.696 123.078 152.652C123.035 152.609 122.984 152.574 122.927 152.551C122.871 152.528 122.81 152.516 122.749 152.517C122.688 152.517 122.628 152.53 122.572 152.555C114.478 155.753 110.755 161.115 109.051 165.049C107.204 169.318 107.273 172.788 107.277 172.934C107.28 173.053 107.33 173.165 107.415 173.248C107.5 173.331 107.613 173.377 107.732 173.378H107.744C107.865 173.374 107.979 173.323 108.062 173.235C108.145 173.147 108.19 173.03 108.187 172.91C108.187 172.875 108.123 169.464 109.903 165.373C111.542 161.609 115.128 156.479 122.908 153.402Z" fill="#7D401F" fill-opacity="0.3"/>
<path d="M176.566 152.535C174.845 152.035 172.962 151.385 170.967 150.694C164.654 148.51 156.797 145.793 145.036 144.413C129.288 142.57 127.235 147.531 127.16 147.744C127.121 147.856 127.127 147.979 127.177 148.086C127.227 148.194 127.317 148.278 127.427 148.32C127.538 148.363 127.66 148.36 127.769 148.314C127.878 148.267 127.964 148.18 128.01 148.07C128.03 148.026 130.047 143.575 144.931 145.317C156.593 146.682 164.399 149.383 170.67 151.551C172.674 152.246 174.57 152.9 176.311 153.407C179.107 154.217 182.279 154.983 185.528 154.983C186.612 154.986 187.696 154.894 188.764 154.705C193.981 153.771 198.235 150.396 201.409 144.677C208.424 132.033 211.928 122.426 211.958 122.33C211.983 122.273 211.996 122.211 211.996 122.149C211.996 122.086 211.984 122.024 211.959 121.967C211.934 121.909 211.898 121.857 211.853 121.814C211.807 121.771 211.754 121.738 211.695 121.717C211.636 121.696 211.574 121.687 211.512 121.69C211.449 121.694 211.388 121.711 211.333 121.739C211.277 121.767 211.227 121.806 211.187 121.855C211.148 121.903 211.118 121.958 211.1 122.018C211.066 122.114 207.595 131.652 200.612 144.235C193.317 157.398 182.002 154.114 176.566 152.535Z" fill="#7D401F" fill-opacity="0.3"/>
<path d="M123.548 157.903H123.56C123.665 157.903 126.17 157.814 127.893 156.339C128.598 155.734 129.257 155.078 129.865 154.376C130.035 154.164 130.226 153.971 130.434 153.797C130.529 153.736 130.597 153.643 130.626 153.534C130.656 153.426 130.644 153.311 130.594 153.21C130.544 153.11 130.459 153.032 130.355 152.99C130.25 152.949 130.135 152.947 130.029 152.986C129.776 153.112 129.543 153.376 129.189 153.773C128.608 154.444 127.978 155.071 127.306 155.649C125.832 156.911 123.562 156.994 123.54 156.994C123.419 156.996 123.303 157.046 123.219 157.132C123.177 157.175 123.145 157.226 123.122 157.282C123.1 157.337 123.089 157.397 123.09 157.457C123.091 157.517 123.103 157.576 123.127 157.631C123.151 157.686 123.185 157.736 123.228 157.778C123.314 157.862 123.431 157.909 123.552 157.907L123.548 157.903Z" fill="#7D401F" fill-opacity="0.3"/>
<path d="M182.992 161.532H183.027C183.143 161.53 183.254 161.483 183.337 161.402C183.42 161.32 183.469 161.21 183.474 161.093C183.478 160.977 183.438 160.863 183.361 160.775C183.284 160.688 183.177 160.633 183.061 160.622C182.701 160.594 182.309 160.575 181.894 160.555C179.742 160.45 176.792 160.308 174.165 158.662L173.633 158.328C169.233 155.57 167.414 154.429 156.307 150.514C144.793 146.462 133.327 150.474 133.212 150.514C133.156 150.535 133.104 150.566 133.06 150.606C133.015 150.646 132.979 150.695 132.954 150.749C132.928 150.803 132.914 150.862 132.911 150.922C132.908 150.982 132.917 151.042 132.937 151.098C132.957 151.154 132.988 151.206 133.028 151.251C133.069 151.295 133.117 151.331 133.171 151.357C133.225 151.382 133.284 151.397 133.344 151.4C133.404 151.403 133.463 151.394 133.52 151.374C133.631 151.333 144.803 147.424 156.005 151.374C167.016 155.256 168.812 156.381 173.149 159.102L173.683 159.437C176.515 161.208 179.596 161.356 181.849 161.463C182.258 161.487 182.644 161.506 182.992 161.532Z" fill="#7D401F" fill-opacity="0.3"/>
<path d="M224.428 123.794C224.373 123.771 224.314 123.759 224.254 123.759C224.194 123.759 224.135 123.77 224.079 123.793C224.024 123.816 223.974 123.85 223.932 123.893C223.889 123.935 223.856 123.986 223.833 124.041C223.063 125.897 216.001 138.675 207.962 150.701C203.991 156.641 198.983 159.106 195.479 160.128C191.672 161.24 188.763 160.938 188.735 160.938C188.615 160.925 188.494 160.959 188.4 161.035C188.305 161.111 188.245 161.221 188.231 161.341C188.218 161.461 188.253 161.582 188.328 161.677C188.404 161.771 188.514 161.832 188.634 161.846C188.678 161.846 189.091 161.894 189.789 161.894C191.788 161.878 193.776 161.584 195.694 161.019C199.353 159.957 204.584 157.397 208.719 151.211C216.371 139.765 223.74 126.639 224.673 124.394C224.697 124.338 224.709 124.279 224.709 124.219C224.71 124.158 224.698 124.099 224.675 124.043C224.653 123.987 224.619 123.936 224.577 123.894C224.534 123.851 224.484 123.817 224.428 123.794V123.794Z" fill="#7D401F" fill-opacity="0.3"/>
<path d="M130.831 160.667C130.934 160.731 131.057 160.751 131.175 160.724C131.292 160.696 131.394 160.624 131.458 160.521C131.487 160.475 134.493 155.881 144.37 156.266C154.996 156.683 161.259 157.307 163.931 159.411C164.955 160.221 166.142 161.291 167.293 162.331C169.336 164.179 171.45 166.09 172.925 166.763C172.984 166.79 173.048 166.803 173.113 166.803C173.217 166.803 173.318 166.768 173.399 166.702C173.48 166.637 173.536 166.545 173.558 166.444C173.58 166.342 173.567 166.235 173.52 166.142C173.473 166.049 173.396 165.975 173.301 165.932C171.954 165.324 169.894 163.455 167.902 161.654C166.741 160.604 165.541 159.518 164.493 158.693C161.627 156.438 155.223 155.78 144.407 155.354C133.94 154.949 130.813 159.83 130.684 160.039C130.652 160.09 130.631 160.147 130.621 160.206C130.612 160.265 130.614 160.325 130.627 160.384C130.641 160.442 130.666 160.497 130.701 160.546C130.736 160.594 130.78 160.636 130.831 160.667Z" fill="#7D401F" fill-opacity="0.3"/>
<path d="M133.971 164.93C134.067 165.003 134.188 165.035 134.307 165.019C134.427 165.003 134.535 164.941 134.609 164.845C134.653 164.789 139.083 159.182 149.375 160.73C159.716 162.282 160.278 162.847 161.949 164.527L162.067 164.643C164.089 166.669 166.834 169.194 168.337 169.621C168.378 169.633 168.42 169.639 168.463 169.64C168.572 169.639 168.678 169.599 168.76 169.527C168.843 169.455 168.896 169.356 168.911 169.247C168.927 169.139 168.902 169.028 168.843 168.936C168.784 168.844 168.693 168.777 168.588 168.746C167.577 168.456 165.441 166.72 162.722 163.998L162.607 163.883C160.827 162.093 160.161 161.425 149.521 159.83C138.66 158.209 134.076 164.045 133.886 164.288C133.85 164.336 133.823 164.39 133.807 164.448C133.791 164.507 133.787 164.567 133.795 164.627C133.803 164.687 133.823 164.744 133.853 164.796C133.883 164.848 133.923 164.894 133.971 164.93V164.93Z" fill="#7D401F" fill-opacity="0.3"/>
<path d="M135.23 176.859C135.28 176.892 135.336 176.914 135.395 176.926C135.453 176.937 135.514 176.936 135.572 176.924C135.631 176.912 135.686 176.888 135.735 176.854C135.785 176.82 135.827 176.777 135.859 176.727C135.908 176.654 140.714 169.392 147.422 167.718C152.75 166.388 155.139 167.515 158.447 169.094C159.363 169.529 160.31 169.977 161.404 170.417C161.459 170.439 161.519 170.45 161.579 170.45C161.638 170.449 161.698 170.437 161.753 170.413C161.808 170.39 161.858 170.356 161.899 170.313C161.941 170.27 161.974 170.219 161.997 170.164C162.019 170.108 162.03 170.048 162.029 169.989C162.029 169.929 162.016 169.869 161.993 169.814C161.969 169.759 161.935 169.709 161.893 169.667C161.85 169.625 161.799 169.592 161.744 169.57C160.674 169.142 159.741 168.698 158.837 168.269C155.489 166.68 152.847 165.432 147.204 166.832C140.124 168.595 135.299 175.919 135.097 176.229C135.031 176.33 135.008 176.453 135.033 176.571C135.059 176.689 135.129 176.793 135.23 176.859Z" fill="#7D401F" fill-opacity="0.3"/>
<path d="M175.334 168.229C175.536 168.229 177.327 168.432 180.719 169.04C181.388 169.157 182.135 169.336 182.944 169.522C184.987 170.004 187.507 170.596 190.356 170.596C192.163 170.602 193.962 170.347 195.696 169.838C201.516 168.118 204.034 164.626 207.847 159.343C208.181 158.881 208.523 158.407 208.881 157.925C213.171 152.028 220.15 145.969 222.932 144.048C222.982 144.015 223.025 143.971 223.058 143.921C223.092 143.87 223.115 143.814 223.126 143.754C223.138 143.695 223.137 143.634 223.125 143.575C223.112 143.515 223.088 143.459 223.054 143.409C223.019 143.359 222.975 143.317 222.924 143.284C222.873 143.252 222.816 143.23 222.757 143.219C222.697 143.209 222.636 143.211 222.577 143.224C222.518 143.238 222.463 143.263 222.414 143.298C219.582 145.258 212.502 151.404 208.145 157.386C207.787 157.878 207.442 158.355 207.109 158.819C203.265 164.132 200.959 167.329 195.437 168.971C190.611 170.399 186.474 169.425 183.152 168.643C182.343 168.452 181.575 168.272 180.879 168.148C177.393 167.54 175.573 167.338 175.338 167.338C175.217 167.338 175.102 167.386 175.016 167.471C174.931 167.557 174.883 167.673 174.883 167.793C174.883 167.914 174.931 168.03 175.016 168.116C175.102 168.201 175.217 168.249 175.338 168.249L175.334 168.229Z" fill="#7D401F" fill-opacity="0.3"/>
<path d="M139.531 191.317H139.574C140.282 191.25 157.003 189.605 165.906 182.714C168.334 180.848 170.654 178.845 172.855 176.715C175.111 174.566 175.956 173.761 178.806 173.362C181.748 172.957 183.977 173.909 186.34 174.928C187.756 175.536 189.202 176.162 190.831 176.486C191.159 176.551 191.498 176.624 191.842 176.689C196.003 177.58 201.702 178.802 207.846 171.494C209.341 169.715 210.722 167.847 212.058 166.036C216.567 159.921 220.467 154.637 226.993 154.637H227.116C234.451 154.712 238.696 161.121 242.802 167.31C243.512 168.382 244.184 169.395 244.876 170.382C244.947 170.474 245.052 170.535 245.167 170.552C245.283 170.57 245.4 170.542 245.496 170.475C245.592 170.408 245.658 170.306 245.681 170.192C245.704 170.077 245.682 169.958 245.62 169.859C244.934 168.88 244.267 167.874 243.561 166.806C239.515 160.711 234.943 153.805 227.124 153.726H226.995C220.008 153.726 215.79 159.443 211.325 165.493C209.998 167.292 208.627 169.15 207.15 170.907C201.356 177.795 196.188 176.689 192.032 175.797C191.68 175.722 191.337 175.647 191.005 175.583C189.471 175.277 188.059 174.669 186.696 174.079C184.323 173.066 181.869 172.001 178.675 172.458C175.535 172.9 174.566 173.822 172.224 176.055C170.045 178.162 167.748 180.145 165.346 181.993C156.647 188.72 139.655 190.393 139.487 190.409C139.37 190.42 139.262 190.476 139.186 190.564C139.109 190.653 139.069 190.767 139.075 190.884C139.08 191.001 139.131 191.112 139.215 191.193C139.3 191.274 139.412 191.319 139.529 191.319L139.531 191.317Z" fill="#7D401F" fill-opacity="0.3"/>
<path d="M158.919 4.92287C158.998 4.91071 166.808 3.83488 174.635 10.689C177.789 13.4546 180.299 15.0936 182.506 16.5402C185.915 18.7689 188.373 20.3796 190.928 24.7579C191.854 26.3484 192.584 27.6734 193.228 28.8404C195.505 32.9695 196.648 35.0421 201.131 39.0517C203.413 41.0919 205.644 42.496 207.807 43.8433C211.11 45.918 214.232 47.8751 217.473 51.9617C222.564 58.3843 227.83 65.0236 235.964 66.3102C241.691 67.2158 248.304 66.683 254.687 66.1684C256.948 65.986 259.082 65.8138 261.144 65.7084C269.252 65.2911 281.104 66.9909 287.97 71.7076C295.354 76.7727 301.081 78.0734 304.588 78.27H304.613C304.733 78.2732 304.85 78.2282 304.938 78.145C305.026 78.0618 305.077 77.9471 305.08 77.8262C305.083 77.7053 305.038 77.5881 304.955 77.5003C304.872 77.4126 304.758 77.3615 304.637 77.3582C301.248 77.1698 295.693 75.9056 288.484 70.9539C281.444 66.1197 269.351 64.3733 261.095 64.7967C259.024 64.9041 256.881 65.0763 254.622 65.2587C248.286 65.7713 241.734 66.3001 236.114 65.4106C228.888 64.2679 224.128 58.8806 218.193 51.3944C214.855 47.1863 211.517 45.0934 208.299 43.0714C206.174 41.7382 203.98 40.3605 201.754 38.3709C197.387 34.4647 196.339 32.5643 194.041 28.4007C193.394 27.2277 192.661 25.8986 191.729 24.3C189.071 19.7353 186.534 18.074 183.03 15.7764C180.845 14.346 178.367 12.7252 175.26 10.0042C167.103 2.8563 159.145 3.9686 158.809 4.02128C158.75 4.03019 158.694 4.05068 158.642 4.08157C158.591 4.11246 158.546 4.15314 158.511 4.20131C158.475 4.24947 158.45 4.30417 158.435 4.36227C158.421 4.42037 158.418 4.48075 158.427 4.53994C158.436 4.59914 158.456 4.65601 158.487 4.70729C158.518 4.75858 158.559 4.80327 158.607 4.83883C158.655 4.87438 158.71 4.90011 158.768 4.91453C158.826 4.92895 158.886 4.93178 158.945 4.92287H158.919Z" fill="#7D401F" fill-opacity="0.3"/>
<path d="M295.923 67.585C295.007 67.2953 294.141 67.0218 293.383 66.8313C291.17 66.2762 288.675 65.3989 286.033 64.471C281.955 63.0345 277.335 61.4096 272.516 60.5445C268.124 59.7543 262.426 59.651 256.393 59.5436C251.635 59.4585 246.713 59.3694 242.419 58.9175C233.457 57.9754 227.4 52.8617 224.819 50.6776L224.382 50.3089C221.878 48.218 213.197 39.8909 208.866 34.5685C208.057 33.5798 207.274 32.6255 206.51 31.7016C203.091 27.5665 199.862 23.6602 196.563 18.2081C192.517 11.5222 185.192 5.97889 185.119 5.92418C185.022 5.85164 184.901 5.82049 184.782 5.83759C184.662 5.85469 184.554 5.91863 184.482 6.01535C184.409 6.11207 184.378 6.23365 184.395 6.35334C184.412 6.47303 184.476 6.58102 184.573 6.65356C184.646 6.70827 191.833 12.1502 195.786 18.6822C199.118 24.189 202.369 28.1196 205.808 32.2831C206.57 33.205 207.359 34.1592 208.162 35.1439C212.599 40.598 221.2 48.84 223.8 51.0099L224.233 51.3746C226.883 53.6032 233.087 58.8527 242.328 59.8252C246.663 60.2811 251.603 60.3682 256.381 60.4553C262.377 60.5627 268.039 60.6579 272.362 61.44C277.106 62.2929 281.692 63.9077 285.74 65.33C288.402 66.266 290.917 67.1534 293.168 67.7147C293.902 67.899 294.754 68.1685 295.656 68.4542C298.312 69.297 301.523 70.3141 304.994 70.3141C305.638 70.3145 306.282 70.278 306.922 70.2047C311.935 69.6273 316.068 66.7604 319.553 61.4461C327.645 49.0872 329.927 42.5471 331.932 36.7749C332.134 36.1792 332.336 35.5937 332.539 35.0081C332.574 34.8954 332.565 34.7732 332.512 34.6673C332.459 34.5614 332.368 34.4802 332.256 34.4407C332.145 34.4013 332.023 34.4067 331.915 34.4559C331.808 34.505 331.724 34.5941 331.681 34.7042C331.479 35.2898 331.276 35.8793 331.062 36.475C329.075 42.1966 326.814 48.684 318.783 60.9436C311.245 72.4475 302.025 69.528 295.923 67.585Z" fill="#7D401F" fill-opacity="0.3"/>
<path d="M187.555 -6.91638C186.83 -7.03414 186.096 -7.08231 185.362 -7.06023C183.922 -7.06023 182.289 -7.06023 179.121 -8.1158C172.666 -10.2715 170.736 -7.42492 170.204 -6.09988C169.361 -3.99684 170.639 -2.06399 174.108 -0.191919C176.702 1.20606 182.922 4.83066 182.985 4.87321C183.037 4.90674 183.095 4.92943 183.155 4.93993C183.216 4.95042 183.278 4.94849 183.338 4.93426C183.398 4.92002 183.454 4.89378 183.504 4.85711C183.553 4.82044 183.595 4.77411 183.626 4.72092C183.657 4.66773 183.677 4.60878 183.684 4.54763C183.692 4.48649 183.687 4.42442 183.67 4.36517C183.653 4.30593 183.625 4.25074 183.586 4.20295C183.547 4.15515 183.499 4.11574 183.444 4.0871C183.382 4.05063 177.147 0.419947 174.543 -0.978027C171.554 -2.59887 170.413 -4.1488 171.052 -5.74532C171.97 -8.03679 174.808 -8.5818 178.836 -7.2365C182.142 -6.1323 183.928 -6.1323 185.364 -6.1323C186.041 -6.15323 186.718 -6.11049 187.387 -6.00466C187.533 -5.97629 187.709 -5.94793 187.911 -5.91551C190.86 -5.43939 198.695 -4.17311 202.009 5.04744C202.844 7.3693 203.575 9.51691 204.218 11.4092C206.399 17.8136 207.972 22.4391 210.983 26.248C212.967 28.7603 215.2 31.5158 217.359 34.176C219.36 36.6437 221.249 38.9757 222.714 40.8336C225.161 43.9375 232.114 51.3893 243.825 53.5612C249.641 54.6411 254.494 55.1415 259.185 55.6257C263.296 56.0512 267.18 56.4524 271.339 57.2081C275.033 57.8807 278.621 58.8188 281.791 59.6394C286.381 60.8367 290.344 61.868 293.47 61.868C293.591 61.868 293.706 61.82 293.792 61.7345C293.877 61.649 293.925 61.533 293.925 61.4121C293.925 61.2912 293.877 61.1753 293.792 61.0898C293.706 61.0043 293.591 60.9563 293.47 60.9563C290.462 60.9563 286.549 59.9433 282.022 58.754C278.838 57.9233 275.229 56.9832 271.503 56.3045C267.309 55.5407 263.411 55.1375 259.282 54.712C254.607 54.2278 249.774 53.7294 243.993 52.6576C232.586 50.5424 225.813 43.2831 223.432 40.2622C221.961 38.3962 220.07 36.0642 218.067 33.5925C215.91 30.9323 213.681 28.1809 211.697 25.6726C208.786 21.9893 207.311 17.6596 205.082 11.1074C204.436 9.21098 203.704 7.05526 202.869 4.73138C199.371 -4.99366 190.856 -6.37137 188.059 -6.8171L187.555 -6.91638Z" fill="#7D401F" fill-opacity="0.3"/>
</g>
</svg>
