<svg width="50" height="50" viewBox="0 0 50 50" fill="none" xmlns="http://www.w3.org/2000/svg">
<g clip-path="url(#clip0_873_161753)">
<path d="M23.7493 5.75647L21.7188 7.25831L25.6795 6.31232C29.1725 6.28806 32.1318 8.13156 34.6059 9.90228C37.0801 11.673 40.2819 14.9719 42.623 19.4836C44.9641 23.9953 45.8609 26.9546 45.6669 30.5446C45.5116 33.4165 43.8603 36.0225 43.054 36.9665C44.2049 36.2286 46.6851 34.5017 47.3988 33.4973C48.2909 32.2418 49.4246 28.9854 48.7232 25.2566C48.0954 21.9196 45.987 16.4158 42.623 12.5005C38.4283 7.6183 35.9329 6.64144 34.2699 5.65685C32.1781 4.69904 29.3353 3.94812 27.2894 4.23929C25.6527 4.47223 24.2474 5.34781 23.7493 5.75647Z" fill="url(#paint0_linear_873_161753)"/>
<path d="M21.3931 22.944C22.9804 26.4832 25.937 30.1008 27.4618 31.6793C29.2548 33.6792 32.8263 36.3597 35.9135 37.5028C39.7726 38.9316 44.7275 37.9036 45.7176 32.6719C46.7077 27.4402 44.5958 22.2249 43.1556 19.6146C41.7155 17.0044 37.9352 11.6377 33.5698 8.74624C29.2045 5.85475 26.147 5.47231 23.8068 6.12487C21.4666 6.77742 19.1824 9.43495 19.0637 13.2663C18.9998 15.328 19.2246 18.109 21.3931 22.944Z" fill="url(#paint1_linear_873_161753)"/>
<path d="M26.8049 28.4912C29.1309 31.293 31.7666 33.1828 32.8074 33.7775C36.954 35.9844 39.7463 35.5399 41.6619 33.7775C43.516 32.0718 44.3821 28.1112 42.3501 22.8083C40.3182 17.5054 37.0431 13.9125 33.6097 11.1809C30.1233 8.40706 25.982 7.55771 23.8179 8.84627C21.6538 10.1348 20.6622 12.5383 21.0394 16.2829C21.4327 20.1872 23.8974 24.9889 26.8049 28.4912Z" fill="url(#paint2_linear_873_161753)"/>
<path d="M27.4697 8.36164C25.7893 8.07982 23.9814 8.40964 22.8563 9.46722C21.7312 10.5248 20.7974 12.6175 20.9549 15.4301C21.1124 18.2428 22.1814 21.0782 23.2728 23.1596C24.3641 25.241 26.0882 28.2483 29.1234 31.0239C32.5436 34.1515 34.7711 35.1756 38.1351 35.2543C40.8263 35.3173 42.2568 33.3678 42.6356 32.3852C42.0843 33.0377 40.491 34.1269 38.9788 34.2079C37.0888 34.3092 35.7048 34.298 32.7571 32.5429C29.9455 30.8688 27.7391 28.3236 26.3665 26.4784C24.9939 24.6333 23.8466 22.2705 23.0028 20.0654C22.3436 18.3428 22.0916 16.5986 22.0916 16.5986C22.0916 16.5986 21.4705 13.8131 22.2899 11.4609C23.1393 9.02242 25.1913 8.55318 27.4697 8.36164Z" fill="#274A5F"/>
<path d="M22.2951 11.4603C21.4757 13.8128 21.9276 16.4601 22.2029 17.1925C21.4761 9.775 25.9956 8.33805 30.4064 9.99006C33.9351 11.3117 38.0221 15.6509 39.6245 17.6553C38.2534 15.6068 36.3085 13.1306 33.2689 10.8839C30.2292 8.63721 27.8623 8.30501 26.8877 8.33805C25.913 8.37109 23.3194 8.51977 22.2951 11.4603Z" fill="#031723"/>
<mask id="mask0_873_161753" style="mask-type:alpha" maskUnits="userSpaceOnUse" x="19" y="4" width="30" height="35">
<path d="M27.2932 4.23929C29.339 3.94813 32.1818 4.699 34.2737 5.65677C35.9367 6.64135 38.432 7.61844 42.6267 12.5005C45.9907 16.4159 48.0995 21.9198 48.7273 25.2569C49.4286 28.9855 48.2946 32.2421 47.4026 33.4976C46.7187 34.4599 44.4129 36.0837 43.2087 36.8672C41.1755 38.3278 38.3301 38.3966 35.9138 37.502C32.8265 36.3589 29.2547 33.6787 27.4617 31.6787C25.9368 30.1002 22.9806 26.4825 21.3933 22.9434C19.2248 18.1084 18.9998 15.3274 19.0637 13.2657C19.1463 10.5988 20.2787 8.50108 21.7483 7.25199L21.7229 7.25834L21.8855 7.13773C22.0131 7.03525 22.1433 6.93936 22.2751 6.84964L23.7532 5.75638C24.2512 5.34771 25.6566 4.47224 27.2932 4.23929Z" fill="#031723"/>
</mask>
<g mask="url(#mask0_873_161753)">
<g filter="url(#filter0_f_873_161753)">
<ellipse cx="13.7891" cy="21.2131" rx="13.7891" ry="21.2131" transform="matrix(0.956995 -0.290106 0.296301 0.955095 6.8125 11.1797)" fill="#15252F" fill-opacity="0.75"/>
</g>
</g>
<path d="M31.9335 12.3503C38.445 17.4735 38.5944 28.1457 32.2675 36.1874C25.9404 44.2291 15.5324 46.5951 9.02085 41.4719L6.375 39.3198C12.8924 44.3455 23.2292 41.9646 29.5255 33.9621C35.69 26.1269 35.7054 15.7953 29.6795 10.5312L31.9335 12.3503Z" fill="url(#paint3_linear_873_161753)"/>
<path d="M29.5266 33.9651C23.1995 42.0068 12.7917 44.3728 6.28015 39.2496C-0.231451 34.1264 -0.381046 23.4541 5.94602 15.4124C12.2731 7.37064 22.6809 5.00468 29.1925 10.1279C35.7041 15.251 35.8537 25.9233 29.5266 33.9651Z" fill="url(#paint4_linear_873_161753)"/>
<path d="M24.3545 10.5117C25.4017 10.8904 26.3909 11.4297 27.292 12.1387C32.8348 16.4997 32.9618 25.5842 27.5762 32.4297C22.6353 38.7095 14.7718 40.9227 9.22656 37.8789C14.6211 39.8287 21.5661 37.4852 26.0762 31.7529C31.462 24.9074 31.335 15.823 25.792 11.4619C25.3343 11.1018 24.8536 10.7858 24.3545 10.5117Z" fill="#D9E7EB"/>
<path d="M7.50409 16.6332C12.6641 10.0749 21.0127 7.95206 26.5783 11.6206C21.0889 9.12957 13.6763 11.4143 8.94452 17.4282C3.55863 24.2737 3.68572 33.3591 9.2287 37.7202C9.46011 37.9022 9.69813 38.0719 9.94061 38.2319C9.183 37.8878 8.46143 37.4541 7.78924 36.9252C2.24627 32.5641 2.1182 23.4787 7.50409 16.6332Z" fill="#274A5F"/>
<path d="M19.4731 21.9139L24.6422 14.1094L13.9003 22.1291L16.1294 25.5727L10.1094 34.5111L23.371 26.0031L19.4731 21.9139Z" fill="#618296"/>
<path d="M15.0114 25.5726L10.1094 34.5112L16.8876 25.5885L14.8785 22.4844C18.4731 19.2137 21.0475 17.38 24.6422 14.1094L12.7825 22.1291L15.0114 25.5726Z" fill="#1E4157"/>
<path d="M20.5953 21.9353L24.6422 14.1094L18.0368 22.0973L22.0729 25.7434L10.1094 34.5112L24.4902 26.018L20.5953 21.9353Z" fill="#F1FCFF"/>
</g>
<defs>
<filter id="filter0_f_873_161753" x="8.14779" y="3.26107" width="36.2904" height="48.3568" filterUnits="userSpaceOnUse" color-interpolation-filters="sRGB">
<feFlood flood-opacity="0" result="BackgroundImageFix"/>
<feBlend mode="normal" in="SourceGraphic" in2="BackgroundImageFix" result="shape"/>
<feGaussianBlur stdDeviation="1.76204" result="effect1_foregroundBlur_873_161753"/>
</filter>
<linearGradient id="paint0_linear_873_161753" x1="30.0425" y1="5.36685" x2="47.4079" y2="30.8807" gradientUnits="userSpaceOnUse">
<stop stop-color="#ECF4F6"/>
<stop offset="1" stop-color="#274A5F"/>
</linearGradient>
<linearGradient id="paint1_linear_873_161753" x1="25.371" y1="7.10401" x2="42.2021" y2="36.7589" gradientUnits="userSpaceOnUse">
<stop stop-color="#607E94"/>
<stop offset="1" stop-color="#3C586B"/>
</linearGradient>
<linearGradient id="paint2_linear_873_161753" x1="27.6445" y1="12.1788" x2="40.869" y2="36.2233" gradientUnits="userSpaceOnUse">
<stop stop-color="#143548"/>
<stop offset="1" stop-color="#3A6075"/>
</linearGradient>
<linearGradient id="paint3_linear_873_161753" x1="37.8955" y1="10.4231" x2="28.3418" y2="44.2287" gradientUnits="userSpaceOnUse">
<stop offset="0.504617" stop-color="#34566A"/>
<stop offset="1" stop-color="#152F40"/>
</linearGradient>
<linearGradient id="paint4_linear_873_161753" x1="6.78571" y1="14.3458" x2="27.363" y2="36.8829" gradientUnits="userSpaceOnUse">
<stop stop-color="#ECF4F6"/>
<stop offset="1" stop-color="#627C8B"/>
</linearGradient>
<clipPath id="clip0_873_161753">
<rect width="48" height="48" fill="white" transform="translate(1 1)"/>
</clipPath>
</defs>
</svg>
