<svg width="70" height="84" viewBox="0 0 70 84" fill="none" xmlns="http://www.w3.org/2000/svg">
<path fill-rule="evenodd" clip-rule="evenodd" d="M70 12.5918C69.1797 22.0059 67.166 57.1211 67.166 57.1211L34.7656 84L2.62891 57.1797C2.62891 57.1797 0.619141 19.625 0 12.5898C8.6875 4.84961 21.1504 0 34.998 0C48.8477 0 61.3125 4.85156 70 12.5918ZM63.6699 55.3086L34.7715 79.2812L6.13086 55.3789L6.125 55.2832L5.88867 50.7227C5.69141 46.9199 5.41992 41.7754 5.13086 36.4102C4.63281 27.1914 4.07227 19.0508 3.72461 14.1777C11.6387 7.73242 22.6758 3.65234 34.998 3.65234C47.3184 3.65234 58.3555 7.73047 66.2695 14.1777C65.8457 19.7051 65.2266 28.0645 64.6914 37.2578C64.3887 42.4688 64.1113 47.3828 63.9102 50.9961L63.6699 55.3086ZM14.3594 49.0781C14.3594 49.1035 34.8691 65.7383 34.8691 65.7383C34.8691 65.7383 55.6406 49.1934 55.6406 49.0781C55.6406 43.4824 51.0488 39.6133 45.4961 38.0918C42.957 41.5664 39.1387 44.1738 34.8672 44.1738C30.6191 44.1738 26.8203 41.5957 24.2832 38.1523C18.8301 39.7129 14.3594 43.5586 14.3594 49.0781ZM27.916 28.2754C27.916 32.3164 31.0293 37.3359 34.8672 37.3359C38.707 37.3359 41.8203 32.3164 41.8203 28.2754V23.752C41.8203 19.7129 38.707 16.4336 34.8672 16.4336C31.0293 16.4336 27.916 19.7129 27.916 23.752V28.2754Z" fill="#9BC3D4"/>
</svg>
