<svg width="17" height="17" viewBox="0 0 17 17" version="1.1" xmlns="http://www.w3.org/2000/svg" xmlns:xlink="http://www.w3.org/1999/xlink">
<title>Vector</title>
<desc>Created using Figma</desc>
<g id="Canvas" transform="translate(-3353 -2436)">
<g id="Vector">
<use xlink:href="#path0_fill" transform="translate(3353 2436)" fill="#9CDA4E"/>
</g>
</g>
<defs>
<path id="path0_fill" d="M 16.5641 0L 0.435897 0C 0.196154 0 0 0.197419 0 0.43871L 0 12.7226C 0 12.9639 0.196154 13.1613 0.435897 13.1613L 6.8 13.1613L 10.4397 16.7806C 10.5705 16.9123 10.7667 17 10.9628 17C 11.0718 17 11.159 16.9781 11.2462 16.9342C 11.4641 16.8245 11.5731 16.5832 11.5513 16.3639L 11.4641 13.1613L 16.5641 13.1613C 16.8038 13.1613 17 12.9639 17 12.7226L 17 0.43871C 17 0.197419 16.8038 0 16.5641 0ZM 12.0308 8.86194L 4.62051 8.86194L 4.62051 7.98452L 12.0308 7.98452L 12.0308 8.86194ZM 12.0308 5.57161L 4.62051 5.57161L 4.62051 4.69419L 12.0308 4.69419L 12.0308 5.57161Z"/>
</defs>
</svg>
