<svg width="78" height="78" viewBox="0 0 78 78" fill="none" xmlns="http://www.w3.org/2000/svg">
<path fill-rule="evenodd" clip-rule="evenodd" d="M35.1 60.6125C24.5375 54.925 22.75 44.6875 31.85 31.85C32.0125 35.2625 32.175 38.5125 33.9625 40.4625C33.475 37.375 31.2 26.8125 43.0625 17.875C39.4875 36.5625 65 41.925 44.85 60.45C50.2125 48.2625 41.1125 48.75 40.95 37.375C36.8875 41.7625 36.4 46.475 38.025 51.675C36.4 51.025 34.775 49.075 33.6375 46.6375C31.85 51.8375 33.475 57.0375 35.1 60.6125Z" fill="white" fill-opacity="0.1"/>
<path d="M39 71.5C21.125 71.5 6.5 56.875 6.5 39C6.5 21.125 21.125 6.5 39 6.5C56.875 6.5 71.5 21.125 71.5 39C71.5 56.875 56.875 71.5 39 71.5ZM39 12.025C24.2125 12.025 12.025 24.2125 12.025 39C12.025 53.7875 24.05 65.975 39 65.975C53.7875 65.975 65.975 53.95 65.975 39C65.975 24.2125 53.7875 12.025 39 12.025Z" fill="white" fill-opacity="0.1"/>
</svg>
