<svg width="126" height="107" viewBox="0 0 126 107" fill="none" xmlns="http://www.w3.org/2000/svg">
<path d="M18.8499 0.000366211H125.646L106.796 106.797H6.10352e-05L18.8499 0.000366211Z" fill="#EBD384"/>
<mask id="mask0_3_258" style="mask-type:alpha" maskUnits="userSpaceOnUse" x="0" y="0" width="126" height="107">
<path d="M18.8498 0H125.646L106.796 106.796H0L18.8498 0Z" fill="#EBD384"/>
</mask>
<g mask="url(#mask0_3_258)">
<path d="M-13.4884 -3.16323L-13.4114 -3.07478C-12.6546 -2.19788 -10.6869 0.0600907 -7.12998 0.0600907C-6.94835 0.0600907 -6.76167 0.0537711 -6.57121 0.0423991C-4.82299 -0.0713203 -2.23725 -0.704358 0.156766 -3.07604L0.229923 -3.1468C0.256674 -3.17285 0.278041 -3.20393 0.292803 -3.23825C0.307566 -3.27257 0.315436 -3.30947 0.315963 -3.34684C0.31649 -3.38421 0.309664 -3.42132 0.295875 -3.45605C0.282086 -3.49078 0.261605 -3.52244 0.235599 -3.54924C0.209593 -3.57604 0.178573 -3.59744 0.144309 -3.61223C0.110046 -3.62702 0.0732101 -3.63491 0.0359055 -3.63543C-0.00139915 -3.63596 -0.0384418 -3.62912 -0.0731085 -3.61531C-0.107775 -3.6015 -0.139387 -3.58098 -0.166138 -3.55493L-0.241818 -3.48038C-2.06319 -1.67477 -4.2062 -0.684142 -6.60905 -0.526198C-10.2404 -0.292442 -12.2321 -2.57947 -12.9826 -3.44752L-13.062 -3.5385C-14.4419 -5.11288 -16.1422 -4.42298 -16.1599 -4.42298C-16.2295 -4.39383 -16.2846 -4.33818 -16.3133 -4.26828C-16.3419 -4.19837 -16.3416 -4.11994 -16.3125 -4.05024C-16.2834 -3.98054 -16.2279 -3.92527 -16.1581 -3.8966C-16.0883 -3.86792 -16.01 -3.86819 -15.9404 -3.89735C-15.9278 -3.9024 -14.5996 -4.43562 -13.4884 -3.16323Z" fill="#C9B768"/>
<path d="M27.2037 2.40935C27.2378 2.39425 27.2686 2.37257 27.2944 2.34554C27.3201 2.3185 27.3403 2.28665 27.3538 2.25181C27.3673 2.21696 27.3737 2.1798 27.3729 2.14244C27.372 2.10508 27.3638 2.06826 27.3487 2.03408C27.3337 1.99989 27.312 1.96902 27.285 1.94322C27.258 1.91742 27.2262 1.89719 27.1915 1.8837C27.1567 1.87021 27.1196 1.86371 27.0823 1.86458C27.045 1.86545 27.0082 1.87367 26.9741 1.88877C26.8278 1.95447 26.6096 2.04039 26.3334 2.14906C23.2936 3.31305 20.4026 4.83448 17.7209 6.68141C13.1574 9.82007 10.776 16.3084 10.6764 16.5826C10.6511 16.6537 10.6548 16.7318 10.6867 16.8002C10.7186 16.8685 10.776 16.9215 10.8467 16.9477C10.8779 16.9586 10.9107 16.9642 10.9438 16.9642C11.0021 16.964 11.0589 16.946 11.1067 16.9125C11.1544 16.8791 11.1909 16.8319 11.2112 16.7772C11.2339 16.7115 13.6266 10.1865 18.0413 7.15019C20.6877 5.32733 23.5412 3.82623 26.5415 2.67849C26.824 2.56729 27.046 2.47884 27.2037 2.40935Z" fill="#C9B768"/>
<path d="M29.9897 0.93116H30.0339C30.0818 0.923579 34.9342 0.133859 40.1498 -2.63584C40.759 -2.95931 41.3418 -3.28783 41.9056 -3.60498C46.2976 -6.07775 50.0917 -8.21189 64.2867 -7.65719C64.3241 -7.65532 64.3615 -7.66094 64.3966 -7.67371C64.4318 -7.68648 64.4641 -7.70615 64.4915 -7.73156C64.519 -7.75698 64.5412 -7.78763 64.5567 -7.82172C64.5722 -7.85581 64.5808 -7.89266 64.5819 -7.93012C64.5846 -8.00544 64.5575 -8.0788 64.5065 -8.13419C64.4555 -8.18957 64.3846 -8.2225 64.3095 -8.22579C49.9529 -8.78807 45.9091 -6.51115 41.6268 -4.1003C41.0668 -3.78441 40.4916 -3.45841 39.8849 -3.13873C34.7563 -0.414519 29.9935 0.362562 29.9456 0.370144C29.8755 0.381723 29.8122 0.419252 29.7684 0.475306C29.7245 0.531359 29.7033 0.601855 29.7088 0.672851C29.7144 0.743847 29.7463 0.810171 29.7983 0.858705C29.8504 0.907239 29.9187 0.934449 29.9897 0.934951V0.93116Z" fill="#C9B768"/>
<path d="M29.1584 4.8361C37.5378 3.28691 40.0631 2.7979 42.5166 1.85272C44.6723 1.02127 48.6823 0.589111 53.806 0.632074C58.0948 0.668718 61.3669 0.337653 64.7436 -0.473584C65.0388 -0.544346 65.3201 -0.613844 65.5938 -0.682079C68.273 -1.34295 70.044 -1.78016 74.2192 -1.1016C78.7047 -0.372495 82.8585 -2.63941 84.5627 -4.34023C84.6128 -4.39412 84.6401 -4.46541 84.6388 -4.53907C84.6375 -4.61272 84.6077 -4.683 84.5557 -4.73509C84.5037 -4.78718 84.4335 -4.81702 84.36 -4.81832C84.2865 -4.81961 84.2153 -4.79228 84.1615 -4.74205C83.0439 -3.6225 79.0958 -0.885521 74.3226 -1.66264C70.0339 -2.36015 68.1191 -1.88756 65.4702 -1.23428C65.1977 -1.16604 64.9177 -1.09781 64.625 -1.02705C61.295 -0.225917 58.0658 0.100094 53.8237 0.0634498C50.1505 0.0331232 45.1718 0.225192 42.3248 1.32706C39.9193 2.25455 37.4054 2.73977 29.0676 4.28264C20.8281 5.80655 18.6156 9.81851 18.5248 9.98783C18.4894 10.0549 18.4819 10.1333 18.5042 10.2058C18.5264 10.2783 18.5765 10.339 18.6434 10.3745C18.7103 10.41 18.7886 10.4175 18.8609 10.3952C18.9333 10.3729 18.9939 10.3227 19.0294 10.2557C19.0344 10.2115 21.2154 6.30568 29.1584 4.8361Z" fill="#C9B768"/>
<path d="M28.5168 8.12243C31.5189 7.6651 33.0099 7.68532 34.3192 7.70174C35.5365 7.71816 36.5897 7.73079 38.4881 7.36316C39.1302 7.23683 39.7344 7.1105 40.3184 6.97532C43.3458 6.30449 45.9657 5.72588 52.139 6.69739C55.0831 7.16229 57.1593 7.66005 58.9896 8.09969C61.8088 8.7781 64.0352 9.31249 67.9455 9.38955C72.5231 9.47925 74.8567 8.56839 77.5573 7.51476C78.7039 7.06754 79.8884 6.60516 81.3529 6.17184C87.4656 4.36527 93.7789 5.85348 101.22 10.8576C107.653 15.1832 110.68 18.2582 112.699 20.2934C113.439 21.0438 114.078 21.6919 114.699 22.2099C115.269 22.6849 115.901 23.2547 116.571 23.8522C118.531 25.6209 120.973 27.8178 123.457 29.0622L124.073 29.3692C127.062 30.8587 129.423 32.0361 132.462 35.1957C132.727 35.4711 133.003 35.7629 133.29 36.0661C136.486 39.443 141.316 44.5457 148.03 45.1356C154.589 45.713 156.955 45.1457 160.219 44.3612C160.548 44.2829 160.886 44.2008 161.238 44.1187C164.789 43.2886 170.699 43.559 175.29 46.1122C177.871 47.5486 179.026 48.5909 179.87 49.3514C180.501 49.9148 180.945 50.3204 181.645 50.5541C181.674 50.5641 181.704 50.5693 181.735 50.5693C181.802 50.5688 181.867 50.5446 181.917 50.5009C181.968 50.4572 182.002 50.3968 182.013 50.3305C182.024 50.2642 182.011 50.1962 181.976 50.1386C181.942 50.081 181.888 50.0376 181.824 50.0159C181.236 49.8188 180.844 49.4651 180.25 48.9294C179.435 48.1942 178.203 47.0824 175.565 45.6144C170.845 42.9892 164.764 42.7088 161.11 43.5653C160.756 43.6474 160.417 43.7295 160.087 43.8091C156.874 44.581 154.554 45.1382 148.081 44.5671C141.579 43.9961 137.026 39.1853 133.701 35.672C133.412 35.3688 133.136 35.0757 132.87 34.799C129.764 31.5687 127.364 30.3774 124.324 28.8613L123.711 28.5556C121.294 27.3453 118.884 25.1749 116.949 23.4315C116.276 22.8251 115.639 22.2516 115.057 21.769C114.458 21.2636 113.858 20.6598 113.097 19.8904C111.079 17.8387 108.017 14.7398 101.536 10.3813C93.9492 5.27992 87.4845 3.76897 81.1964 5.63113C79.7105 6.07077 78.5135 6.53694 77.3568 6.98922C74.7078 8.02136 72.4285 8.91328 67.9606 8.82484C64.1134 8.74904 61.9135 8.22097 59.1309 7.5514C57.2905 7.10923 55.2029 6.60769 52.2361 6.14025C45.9569 5.15106 43.1629 5.7701 40.2049 6.42451C39.6247 6.55084 39.0242 6.68602 38.3885 6.80351C36.5456 7.16103 35.5213 7.14713 34.3356 7.13197C32.9985 7.11555 31.4836 7.09534 28.4348 7.56024C23.3653 8.33214 20.4262 11.8657 19.4549 13.0267C19.3616 13.1391 19.2645 13.2554 19.2279 13.2907C19.171 13.3298 19.1301 13.3881 19.1128 13.455C19.0954 13.5218 19.1027 13.5927 19.1333 13.6546C19.1668 13.7215 19.2255 13.7724 19.2964 13.796C19.3674 13.8197 19.4448 13.8143 19.5117 13.7809C19.6013 13.7367 19.6681 13.6546 19.8901 13.3905C20.8286 12.27 23.6655 8.86274 28.5168 8.12243Z" fill="#C9B768"/>
<path d="M178.328 52.2132C178.384 52.2131 178.439 52.1964 178.485 52.1652C178.532 52.134 178.568 52.0896 178.59 52.0377C178.611 51.9858 178.617 51.9286 178.606 51.8735C178.595 51.8184 178.568 51.7678 178.528 51.7281C173.054 46.2452 168.678 46.2957 163.094 46.9729C156.251 47.7978 150.48 47.7991 145.961 46.9729C140.619 45.9988 135.178 42.4918 130.56 39.1882C126.23 36.0905 121.216 33.7369 117.189 31.8457L116.897 31.708C113.69 30.2033 111.272 27.9559 107.613 24.5537C106.737 23.7401 105.743 22.8166 104.667 21.8375C99.2901 16.9471 96.1341 17.1291 91.7646 17.3792L91.2803 17.4057C86.6825 17.6584 85.2697 17.1303 82.096 15.4185C79.1469 13.828 77.357 13.7383 73.0342 13.5235C72.4565 13.4945 71.8308 13.4641 71.1497 13.4262C69.4089 13.3302 67.754 13.3669 66.1533 13.4022C62.4498 13.4831 58.6202 13.5677 53.5393 11.9873C46.6798 9.85857 41.0376 10.0493 33.8968 10.2805L32.2495 10.3336C27.9923 10.4675 25.2046 12.2286 23.6152 13.6928C21.8896 15.277 21.1807 16.8158 21.1517 16.8802C21.1206 16.9489 21.118 17.0271 21.1445 17.0977C21.171 17.1683 21.2244 17.2255 21.293 17.2567C21.3616 17.2878 21.4397 17.2904 21.5102 17.2639C21.5807 17.2374 21.6378 17.1839 21.6689 17.1152C21.6752 17.1 22.369 15.5992 24.0176 14.0945C25.5313 12.7049 28.1966 11.0297 32.2671 10.9021L33.9145 10.849C41.0036 10.614 46.6029 10.4296 53.3652 12.5318C58.537 14.1388 62.4132 14.0541 66.1621 13.972C67.7515 13.9366 69.3951 13.9012 71.1143 13.9947C71.7967 14.0326 72.4237 14.0642 73.0064 14.0933C77.3608 14.3106 78.9905 14.3914 81.8261 15.9213C85.242 17.7633 86.8074 18.2269 91.3105 17.9768L91.7974 17.949C96.0282 17.7064 99.0845 17.5308 104.285 22.262C105.359 23.2386 106.303 24.1204 107.226 24.9731C110.924 28.4119 113.369 30.6834 116.653 32.2259L116.947 32.3636C120.956 34.2447 125.945 36.5857 130.232 39.6531C134.899 42.9934 140.409 46.5408 145.862 47.5338C150.444 48.3688 156.265 48.3688 163.165 47.5338C168.76 46.8592 172.824 46.8137 178.13 52.1273C178.156 52.1539 178.186 52.1753 178.22 52.19C178.254 52.2047 178.291 52.2126 178.328 52.2132V52.2132Z" fill="#C9B768"/>
<path d="M174.543 53.0997C174.582 53.1 174.62 53.092 174.656 53.0763C174.692 53.0607 174.724 53.0377 174.751 53.0088C174.776 52.9814 174.796 52.9493 174.809 52.9143C174.822 52.8793 174.828 52.8421 174.826 52.8048C174.825 52.7675 174.816 52.7308 174.801 52.6969C174.785 52.6629 174.763 52.6324 174.736 52.607C171.44 49.5599 167.065 50.2193 159.817 51.3096L159.238 51.398C152.117 52.4668 139.702 48.203 133.552 44.9841C130.169 43.2154 126.763 41.8813 123.471 40.5952C121.327 39.7576 119.111 38.891 116.885 37.9005C112.183 35.8085 110.343 34.3127 108.21 32.5806C107.781 32.2319 107.337 31.8719 106.855 31.4942C106.224 31.0002 105.622 30.4683 104.987 29.9049C102.726 27.9063 100.166 25.6424 95.274 24.2439C90.9852 23.0159 87.5883 23.5983 84.8574 24.067C83.596 24.2818 82.414 24.4852 81.3254 24.4852C78.476 24.4852 76.9282 23.4922 74.7876 22.1164C74.3487 21.8347 73.8946 21.5429 73.4001 21.2422L73.303 21.1828C70.4598 19.4495 69.602 18.9265 63.6533 19.1792C59.1287 19.3725 55.4643 18.5197 48.8142 16.9709C46.8149 16.5059 44.5482 15.9779 41.9043 15.3955C35.9051 14.0753 31.6012 15 29.0469 16.0094C26.2605 17.1098 24.9171 18.5146 24.8603 18.574C24.8105 18.6291 24.7842 18.7016 24.7871 18.7759C24.79 18.8502 24.8218 18.9204 24.8758 18.9715C24.9297 19.0225 25.0015 19.0504 25.0757 19.0491C25.1499 19.0477 25.2207 19.0173 25.2728 18.9644C25.2867 18.9505 26.6074 17.5747 29.2878 16.5249C31.7639 15.5534 35.9417 14.6653 41.7832 15.9513C44.4221 16.5325 46.6875 17.0593 48.6856 17.5242C55.3848 19.0844 59.0757 19.9435 63.6785 19.7477C69.4544 19.495 70.2075 19.9599 73.0128 21.6692L73.11 21.7273C73.5994 22.0255 74.0497 22.3148 74.4862 22.5952C76.6305 23.9685 78.3145 25.0537 81.3305 25.0537C82.4657 25.0537 83.6817 24.8465 84.9633 24.6267C87.7762 24.1453 90.9638 23.5983 95.1276 24.7896C99.8919 26.1528 102.401 28.3725 104.616 30.3306C105.259 30.9004 105.867 31.4373 106.508 31.9414C106.987 32.3204 107.429 32.6754 107.856 33.0228C110.02 34.7801 111.893 36.2974 116.66 38.421C118.896 39.4165 121.119 40.2845 123.268 41.1246C126.698 42.465 129.938 43.7308 133.294 45.4869C135.834 46.8172 140.379 48.7715 145.519 50.2459C149.462 51.3829 155.058 52.6007 159.325 51.9589L159.905 51.873C166.986 50.8068 171.258 50.1625 174.353 53.0239C174.405 53.0717 174.472 53.0987 174.543 53.0997V53.0997Z" fill="#C9B768"/>
<path d="M-11.4836 45.6355C-11.4127 45.6607 -11.3347 45.6567 -11.2666 45.6245C-11.1986 45.5924 -11.146 45.5345 -11.1204 45.4636C-11.1078 45.4283 -9.81489 41.8739 -6.11412 36.8172C-3.24963 32.9002 -0.23125 30.4994 1.10072 29.8272C1.1593 29.7892 1.20184 29.7308 1.2202 29.6634C1.23855 29.5959 1.23144 29.524 1.20022 29.4615C1.169 29.3989 1.11587 29.3501 1.05097 29.3243C0.986076 29.2986 0.913975 29.2977 0.848454 29.3218C-0.805158 30.1494 -3.8311 32.7447 -6.56821 36.4836C-10.3245 41.6149 -11.5997 45.1275 -11.6527 45.2741C-11.6775 45.3445 -11.6737 45.4219 -11.6421 45.4895C-11.6104 45.5571 -11.5535 45.6095 -11.4836 45.6355V45.6355Z" fill="#C9B768"/>
<path d="M4.76299 27.5901C4.80116 27.5898 4.83891 27.5821 4.87411 27.5673C5.04709 27.4952 9.13932 25.7244 12.4272 21.9298C12.4538 21.9019 12.4743 21.8689 12.4878 21.8328C12.5012 21.7967 12.5071 21.7582 12.5053 21.7198C12.5034 21.6813 12.4937 21.6436 12.4769 21.609C12.4601 21.5743 12.4364 21.5435 12.4073 21.5183C12.3782 21.4931 12.3443 21.4741 12.3077 21.4624C12.2711 21.4507 12.2324 21.4466 12.1942 21.4503C12.1559 21.454 12.1188 21.4655 12.085 21.484C12.0513 21.5025 12.0217 21.5276 11.9979 21.5579C8.79967 25.2551 4.69355 27.0297 4.65188 27.0474C4.59165 27.0731 4.54214 27.1189 4.5117 27.1769C4.48126 27.235 4.47178 27.3018 4.48484 27.3661C4.49791 27.4303 4.53273 27.4881 4.58341 27.5296C4.63409 27.5711 4.69753 27.5938 4.76299 27.5939V27.5901Z" fill="#C9B768"/>
<path d="M16.8992 21.8101C15.7779 23.182 12.4908 26.1999 7.27897 28.8099C1.82243 31.5423 0.445047 32.726 -4.15126 37.5846C-8.80181 42.4975 -11.6259 50.1125 -11.6537 50.1896C-11.6666 50.2246 -11.6724 50.2618 -11.6708 50.299C-11.6693 50.3363 -11.6604 50.3729 -11.6447 50.4067C-11.629 50.4405 -11.6068 50.4709 -11.5793 50.4961C-11.5519 50.5212 -11.5197 50.5407 -11.4847 50.5534C-11.4537 50.5655 -11.4208 50.5715 -11.3876 50.5711C-11.3293 50.5714 -11.2725 50.5535 -11.2248 50.52C-11.1771 50.4865 -11.141 50.4391 -11.1214 50.3841C-11.0937 50.3096 -8.31115 42.8045 -3.74007 37.9762C0.800743 33.1833 2.15794 32.0098 7.53376 29.3177C12.8314 26.6648 16.189 23.5761 17.3381 22.1688C17.3644 22.1403 17.3845 22.1067 17.3973 22.0702C17.4101 22.0336 17.4153 21.9947 17.4126 21.9561C17.4099 21.9174 17.3993 21.8797 17.3814 21.8453C17.3636 21.8108 17.3389 21.7804 17.3089 21.7559C17.2789 21.7314 17.2443 21.7133 17.207 21.7027C17.1698 21.6921 17.1308 21.6893 17.0924 21.6943C17.054 21.6994 17.0171 21.7123 16.9838 21.7322C16.9506 21.7521 16.9218 21.7786 16.8992 21.8101V21.8101Z" fill="#C9B768"/>
<path d="M-0.34637 38.8781C2.30244 36.6471 5.20351 35.4268 8.00999 34.2469C10.3081 33.2818 12.4789 32.3697 14.5097 30.9523C17.7135 28.7163 19.9044 26.7291 21.0232 25.049C21.0628 24.9863 21.0764 24.9106 21.0611 24.8381C21.0457 24.7655 21.0027 24.7018 20.9411 24.6606C20.8796 24.6194 20.8044 24.6039 20.7316 24.6175C20.6588 24.631 20.5941 24.6725 20.5515 24.7332C19.4718 26.3552 17.33 28.2905 14.1855 30.4861C12.2039 31.8757 10.0597 32.7701 7.79051 33.7239C4.94368 34.919 1.99972 36.1557 -0.712158 38.4435C-4.88718 41.9655 -8.40127 47.2309 -11.1422 54.093C-12.8601 58.3957 -15.4824 63.3768 -16.6176 65.4878V66.6727C-16.0979 65.7328 -12.6999 59.5264 -10.6149 54.3052C-7.91439 47.529 -4.45581 42.3395 -0.34637 38.8781Z" fill="#C9B768"/>
<path d="M-4.62042 51.2886C-4.0238 49.088 -3.45999 47.0099 -1.34094 44.8029C1.86411 41.4691 3.08635 40.9588 6.0404 39.7271L6.13248 39.6892C6.68242 39.4593 7.27777 39.1763 7.90844 38.8756C10.7174 37.5404 14.2151 35.8791 16.9838 37.4355C18.2756 38.1651 19.5091 38.9937 20.6732 39.9141C21.5435 40.5836 22.1174 41.0257 22.767 41.099C22.8419 41.1074 22.9171 41.0856 22.976 41.0385C23.0349 40.9913 23.0727 40.9227 23.0811 40.8476C23.0894 40.7726 23.0677 40.6973 23.0206 40.6383C22.9735 40.5793 22.905 40.5414 22.8301 40.5331C22.3381 40.4787 21.8134 40.0745 21.0188 39.4631C19.8338 38.5242 18.5775 37.6795 17.2612 36.9365C14.234 35.2349 10.5926 36.9668 7.665 38.359C7.03433 38.6558 6.4516 38.9363 5.913 39.1599L5.82219 39.199C2.87949 40.4257 1.53364 40.9866 -1.74583 44.405C-3.96831 46.7168 -4.55104 48.8631 -5.16658 51.1357C-5.47686 52.2727 -5.79724 53.4602 -6.34214 54.7222C-7.95287 58.4388 -11.0759 62.8602 -11.1075 62.9057C-11.1516 62.967 -11.1697 63.0434 -11.1576 63.118C-11.1455 63.1926 -11.1044 63.2594 -11.0431 63.3036C-10.9819 63.3479 -10.9057 63.3659 -10.8312 63.3538C-10.7566 63.3418 -10.69 63.3005 -10.6458 63.2392C-10.6143 63.195 -7.4559 58.7293 -5.82373 54.9546C-5.2637 53.6535 -4.93575 52.4508 -4.62042 51.2886Z" fill="#C9B768"/>
<path d="M28.18 32.5108C27.8882 32.2987 27.5551 32.1503 27.2023 32.0754C26.8495 32.0005 26.485 32.0007 26.1323 32.076C26.0607 32.0958 25.9997 32.143 25.9624 32.2073C25.9251 32.2717 25.9145 32.3482 25.9328 32.4203C25.9511 32.4924 25.9969 32.5545 26.0604 32.5931C26.1239 32.6318 26.2 32.644 26.2723 32.6271C26.5446 32.5715 26.8255 32.5736 27.0968 32.6333C27.3682 32.6929 27.6242 32.8088 27.8482 32.9734C28.5687 33.5143 28.9636 34.5849 29.0241 36.1547C29.2121 41.0309 30.089 43.2099 32.374 44.4814C32.4399 44.5179 32.5176 44.5267 32.59 44.5059C32.6624 44.485 32.7236 44.4362 32.76 44.3701C32.7965 44.3041 32.8053 44.2263 32.7845 44.1537C32.7637 44.0812 32.7149 44.0199 32.649 43.9834C30.571 42.8269 29.7711 40.7718 29.5919 36.1319C29.5238 34.3776 29.0494 33.1592 28.18 32.5108Z" fill="#C9B768"/>
<path d="M32.1509 35.8696C32.1158 35.857 32.0785 35.8515 32.0412 35.8534C32.0039 35.8553 31.9674 35.8646 31.9337 35.8807C31.9 35.8968 31.8699 35.9194 31.8449 35.9472C31.82 35.9751 31.8009 36.0076 31.7885 36.0429C31.5014 37.0074 31.4251 38.0225 31.5651 39.0191C31.7633 40.5774 32.5638 42.8301 35.2583 44.7186C35.2888 44.7401 35.3232 44.7554 35.3596 44.7636C35.396 44.7717 35.4336 44.7726 35.4703 44.7662C35.5071 44.7597 35.5422 44.746 35.5736 44.7259C35.605 44.7058 35.6322 44.6797 35.6535 44.649C35.675 44.6185 35.6903 44.584 35.6984 44.5476C35.7066 44.5111 35.7075 44.4734 35.701 44.4366C35.6945 44.3998 35.6809 44.3646 35.6608 44.3331C35.6407 44.3017 35.6147 44.2745 35.5841 44.2531C30.7734 40.881 32.2582 36.4198 32.3226 36.2314C32.3477 36.1606 32.3437 36.0827 32.3115 36.0149C32.2793 35.947 32.2216 35.8948 32.1509 35.8696V35.8696Z" fill="#C9B768"/>
<path d="M35.2775 41.7752C34.7766 40.9018 34.488 39.9225 34.4354 38.9166C34.4357 38.8793 34.4287 38.8423 34.4147 38.8077C34.4007 38.7731 34.38 38.7416 34.3539 38.7151C34.3277 38.6885 34.2966 38.6674 34.2622 38.6529C34.2279 38.6384 34.191 38.6309 34.1538 38.6307V38.6307C34.079 38.6311 34.0073 38.6608 33.9542 38.7136C33.901 38.7663 33.8707 38.8379 33.8697 38.9128C33.9164 40.0091 34.2256 41.078 34.7712 42.0294C35.6033 43.5106 37.3786 45.4117 41.1589 46.0618C41.1753 46.063 41.1918 46.063 41.2082 46.0618C41.2797 46.0622 41.3487 46.0357 41.4015 45.9874C41.4543 45.9391 41.487 45.8727 41.493 45.8013C41.4991 45.73 41.4781 45.6589 41.4342 45.6024C41.3903 45.5459 41.3267 45.508 41.2562 45.4964C38.4089 45.0132 36.4 43.7585 35.2775 41.7752Z" fill="#C9B768"/>
<path d="M13.9404 45.1776C11.8327 42.5684 8.53052 44.1301 6.22858 45.5314C3.01596 47.4899 1.41154 51.0303 1.34595 51.1794C1.32838 51.2138 1.31797 51.2513 1.31535 51.2898C1.31274 51.3283 1.31796 51.3669 1.33072 51.4033C1.34348 51.4397 1.36349 51.4731 1.38955 51.5015C1.41561 51.5299 1.44717 51.5527 1.4823 51.5685C1.51743 51.5843 1.55541 51.5928 1.59391 51.5934C1.63241 51.594 1.67064 51.5868 1.70626 51.5721C1.74189 51.5575 1.77416 51.5357 1.80112 51.5082C1.82809 51.4806 1.84917 51.4479 1.8631 51.4119C1.87949 51.3765 3.46625 47.8803 6.52374 46.0178C9.89151 43.9658 12.1077 43.8129 13.5002 45.5364C15.15 47.5783 15.4931 48.0408 16.1086 49.2753C16.6964 50.4542 16.8087 53.3186 16.1276 54.3156C16.1065 54.3465 16.0918 54.3813 16.0843 54.4179C16.0767 54.4545 16.0764 54.4923 16.0835 54.529C16.0905 54.5658 16.1047 54.6008 16.1252 54.632C16.1458 54.6632 16.1723 54.6901 16.2032 54.7111C16.234 54.7321 16.2686 54.7468 16.3051 54.7543C16.3416 54.7619 16.3792 54.7622 16.4157 54.7551C16.4523 54.7481 16.4871 54.7339 16.5182 54.7133C16.5493 54.6927 16.576 54.6662 16.5968 54.6352C17.4192 53.4235 17.3019 50.396 16.6157 49.02C15.9787 47.7438 15.5991 47.2308 13.9404 45.1776Z" fill="#C9B768"/>
<path d="M-0.28401 57.9028C-0.208531 57.9028 -0.136144 57.8728 -0.0827723 57.8194C-0.0294006 57.7661 0.0005835 57.6937 0.0005835 57.6182C0.0005835 56.7632 0.651986 55.2074 1.00235 54.3713C1.22623 53.8388 1.26544 53.7389 1.26544 53.6339C1.26726 53.5601 1.24032 53.4884 1.1903 53.4341C1.14028 53.3798 1.07111 53.347 0.997388 53.3428C0.923668 53.3385 0.851176 53.363 0.795222 53.4112C0.739268 53.4594 0.704234 53.5275 0.697521 53.601C0.678548 53.6731 0.571036 53.916 0.477436 54.1512C0.0865945 55.086 -0.568604 56.6493 -0.568604 57.6182C-0.568604 57.6556 -0.561242 57.6926 -0.54694 57.7271C-0.532638 57.7616 -0.511675 57.793 -0.485248 57.8194C-0.458821 57.8459 -0.427448 57.8668 -0.392919 57.8811C-0.358391 57.8954 -0.321383 57.9028 -0.28401 57.9028V57.9028Z" fill="#C9B768"/>
<path d="M9.90021 67.341V73.3971C9.90021 73.4725 9.93011 73.5448 9.98333 73.5981C10.0366 73.6514 10.1087 73.6814 10.184 73.6814C10.2593 73.6814 10.3315 73.6514 10.3847 73.5981C10.4379 73.5448 10.4678 73.4725 10.4678 73.3971V67.341C10.4678 63.9579 11.1779 61.1092 12.7016 58.3717C14.5281 55.0985 12.7723 52.1526 12.7016 52.0288C12.6611 51.9675 12.5984 51.9243 12.5268 51.9083C12.4551 51.8923 12.38 51.9047 12.3173 51.943C12.2547 51.9813 12.2092 52.0424 12.1905 52.1135C12.1719 52.1846 12.1815 52.2602 12.2173 52.3244C12.2337 52.3522 13.8722 55.1187 12.2173 58.095C10.633 60.9197 9.90021 63.8568 9.90021 67.341Z" fill="#C9B768"/>
<path d="M9.20211 79.8226C9.12742 79.8151 9.05283 79.8375 8.9945 79.8848C8.93617 79.9321 8.89882 80.0006 8.89056 80.0753C8.89056 80.1359 8.25989 86.1517 7.51065 89.0035C5.98822 94.8512 5.98822 95.3541 5.98822 95.5196C5.98822 95.595 6.01812 95.6674 6.07134 95.7207C6.12457 95.774 6.19675 95.8039 6.27202 95.8039C6.34729 95.8039 6.41948 95.774 6.4727 95.7207C6.52592 95.6674 6.55582 95.595 6.55582 95.5196C6.55582 95.2973 6.75133 94.174 8.0606 89.1476C8.8174 86.254 9.42915 80.3823 9.45564 80.1334C9.46304 80.0585 9.44051 79.9838 9.39299 79.9255C9.34546 79.8672 9.27682 79.8302 9.20211 79.8226V79.8226Z" fill="#C9B768"/>
<path d="M0.345934 96.4806C0.385036 96.4807 0.423713 96.4725 0.459454 96.4566C0.494292 96.4418 0.525808 96.4202 0.552133 96.3929C0.578458 96.3657 0.599055 96.3335 0.612702 96.2981C0.626348 96.2628 0.632766 96.2251 0.631575 96.1872C0.630384 96.1493 0.621609 96.112 0.605769 96.0776C-0.341495 93.9035 -0.201485 89.7612 -0.0652609 85.7693C-0.0425569 85.0871 -0.0185922 84.4062 -0.000933462 83.7341C0.0697014 81.0989 0.864343 78.0266 2.36155 74.6044C2.50913 74.2659 2.52174 74.2393 2.52174 74.161C2.52125 74.0915 2.49533 74.0245 2.44888 73.9729C2.40244 73.9212 2.33869 73.8884 2.26971 73.8806C2.20072 73.8728 2.13127 73.8906 2.07452 73.9306C2.01776 73.9707 1.97762 74.0302 1.96171 74.0979C1.94657 74.1383 1.89486 74.2545 1.84188 74.377C0.315662 77.8662 -0.495377 81.0092 -0.568535 83.7253C-0.586194 84.3961 -0.608898 85.0757 -0.632863 85.7554C-0.770349 89.8181 -0.91288 94.0198 0.0860991 96.3113C0.108357 96.3618 0.144771 96.4046 0.190904 96.4346C0.237037 96.4647 0.2909 96.4807 0.345934 96.4806V96.4806Z" fill="#C9B768"/>
<path d="M-0.011176 75.1371C0.00307084 75.064 -0.0119221 74.9882 -0.0529293 74.926C-0.0939366 74.8639 -0.157679 74.8203 -0.230432 74.8047C-0.303185 74.7892 -0.379132 74.8028 -0.441924 74.8428C-0.504715 74.8828 -0.54933 74.9458 -0.566164 75.0184C-0.566164 75.0386 -1.01015 77.0939 -1.56388 78.6086C-2.51032 81.2335 -2.90246 84.0266 -2.71548 86.8111C-2.46321 90.3179 -2.02427 93.3915 -2.02049 93.4218C-2.01052 93.4895 -1.97665 93.5513 -1.92503 93.596C-1.87341 93.6408 -1.80747 93.6655 -1.73921 93.6656H-1.69884C-1.62435 93.6547 -1.55721 93.6147 -1.51207 93.5543C-1.46693 93.494 -1.44747 93.4182 -1.45793 93.3435C-1.45793 93.3132 -1.90066 90.2611 -2.1504 86.7744C-2.33078 84.0697 -1.94984 81.3569 -1.0316 78.807C-0.462734 77.2531 -0.0288347 75.2218 -0.011176 75.1371Z" fill="#C9B768"/>
<path d="M2.63733 110.462C2.68083 110.524 2.74701 110.566 2.82131 110.579C2.89561 110.592 2.97194 110.574 3.03351 110.531C3.09508 110.487 3.13685 110.421 3.14962 110.346C3.1624 110.272 3.14514 110.196 3.10164 110.134C1.58759 107.994 1.40338 103.847 1.63806 101.735C1.79242 100.305 1.70412 98.8596 1.37689 97.4593C1.3691 97.4213 1.35365 97.3854 1.33149 97.3536C1.30933 97.3219 1.28093 97.295 1.24803 97.2746C1.21512 97.2543 1.17842 97.2408 1.14015 97.2352C1.10189 97.2296 1.06288 97.2318 1.02552 97.2418C0.98816 97.2518 0.953232 97.2694 0.922882 97.2934C0.892531 97.3174 0.867398 97.3474 0.849025 97.3815C0.830651 97.4155 0.819425 97.453 0.816034 97.4916C0.812644 97.5302 0.817162 97.5691 0.829309 97.6059C1.13281 98.9386 1.21508 100.312 1.07282 101.672C0.829308 103.867 1.04001 108.194 2.63733 110.462Z" fill="#C9B768"/>
<path d="M4.76668 94.7576C4.79082 94.692 4.78991 94.6197 4.76413 94.5547C4.73835 94.4897 4.68951 94.4364 4.62695 94.4051C4.56438 94.3739 4.49248 94.3667 4.42499 94.3851C4.3575 94.4035 4.29916 94.4461 4.26112 94.5048C4.11197 94.8019 3.22091 98.2726 3.09452 100.047C2.96054 101.915 3.23102 105.779 3.67845 107.024C3.69865 107.078 3.73471 107.124 3.78187 107.157C3.82903 107.19 3.88508 107.208 3.94261 107.208C3.97547 107.209 4.0081 107.203 4.03866 107.191C4.10947 107.165 4.16732 107.113 4.19954 107.045C4.23176 106.977 4.23572 106.899 4.21056 106.828C3.79346 105.67 3.52931 101.879 3.65696 100.084C3.78083 98.3611 4.64661 95.0268 4.76668 94.7576Z" fill="#C9B768"/>
<path d="M14.8659 59.9126C14.9047 59.8479 14.9163 59.7704 14.8981 59.6972C14.8799 59.624 14.8334 59.5611 14.7688 59.5222C14.7042 59.4834 14.6269 59.4718 14.5538 59.49C14.4807 59.5083 14.4178 59.5548 14.379 59.6195C14.3097 59.7357 12.6799 62.4909 12.5513 65.1779C12.5033 66.2037 12.6648 67.1638 12.8351 68.1807C13.1202 69.8786 13.4443 71.8038 12.9612 74.7498C12.6232 76.8152 12.5298 79.1902 12.4302 81.7066C12.304 85.0303 12.1615 88.4677 11.4387 91.4036C11.0603 92.9309 10.4611 94.5352 9.82666 96.2343C8.33317 100.229 6.78796 104.36 8.15784 107.742C9.25525 110.455 10.6806 111.295 12.4769 112.359C13.9073 113.204 15.5294 114.163 17.5489 116.294C22.2741 121.283 30.6548 134.232 32.007 136.943C32.0307 136.99 32.0667 137.03 32.1112 137.057C32.1557 137.085 32.207 137.1 32.2593 137.1C32.3031 137.1 32.3462 137.089 32.3855 137.07C32.4523 137.036 32.5031 136.977 32.5267 136.906C32.5503 136.835 32.5449 136.758 32.5116 136.691C31.1505 133.966 22.7156 120.926 17.9576 115.905C15.8864 113.723 14.1596 112.701 12.772 111.876C10.9972 110.828 9.71566 110.07 8.68888 107.534C7.40352 104.358 8.90837 100.334 10.364 96.4415C11.0061 94.726 11.6115 93.1065 11.9963 91.5463C12.7329 88.5561 12.8704 85.0884 13.0054 81.737C13.105 79.2382 13.1984 76.8797 13.5301 74.8496C14.0284 71.8063 13.6966 69.8318 13.404 68.0898C13.2312 67.0615 13.0811 66.1734 13.1277 65.2095C13.24 62.6627 14.8495 59.9391 14.8659 59.9126Z" fill="#C9B768"/>
<path d="M37.4284 140.894C37.472 140.895 37.5152 140.885 37.5545 140.866C37.6224 140.834 37.6747 140.775 37.6998 140.704C37.7248 140.633 37.7207 140.555 37.6882 140.487C35.0507 134.965 19.9694 113.453 15.6857 107.968C13.2575 104.86 13.5628 101.914 14.1178 96.5655C14.2906 94.9119 14.4849 93.0372 14.6325 90.8555C14.722 89.5278 14.7132 87.95 14.7044 86.2786C14.6842 82.7111 14.6627 78.6674 15.5091 74.8548C16.1789 71.8356 16.3026 68.4121 16.2887 66.075C16.2811 64.952 16.2395 63.8011 16.1714 62.8347C16.0742 61.4641 16.0099 61.4009 15.9367 61.3276C15.8896 61.2805 15.8273 61.2515 15.7609 61.2457C15.6945 61.2399 15.6282 61.2577 15.5736 61.296C15.519 61.3342 15.4796 61.3905 15.4622 61.455C15.4449 61.5195 15.4508 61.588 15.4789 61.6485C15.6138 62.2044 16.1512 69.3406 14.9541 74.731C14.0951 78.6055 14.1166 82.6897 14.1367 86.2812C14.1456 87.9424 14.1531 89.5101 14.0648 90.8176C13.9185 92.9892 13.7255 94.8601 13.554 96.5023C12.9826 101.998 12.671 105.024 15.2392 108.314C19.5115 113.78 34.5524 135.233 37.1761 140.727C37.1982 140.776 37.2336 140.817 37.2782 140.847C37.3229 140.876 37.3749 140.893 37.4284 140.894V140.894Z" fill="#C9B768"/>
<path d="M17.3722 85.8526C17.3725 85.8152 17.3655 85.7782 17.3515 85.7436C17.3376 85.709 17.317 85.6775 17.2908 85.6508C17.2647 85.6242 17.2336 85.603 17.1993 85.5884C17.165 85.5738 17.1282 85.5661 17.0909 85.5658V85.5658C17.0155 85.5665 16.9434 85.597 16.8905 85.6507C16.8375 85.7045 16.808 85.7771 16.8083 85.8526C16.8083 85.9044 16.768 91.0118 16.3038 93.3375C15.8522 95.6265 14.7901 100.988 18.2665 106.783C21.835 112.738 35.1238 134.575 38.078 139.008C38.4261 139.531 38.7667 140.033 39.0947 140.523C41.5746 144.187 43.367 146.826 42.8271 150.18C42.8151 150.254 42.8331 150.33 42.8771 150.392C42.9211 150.453 42.9875 150.494 43.0617 150.506H43.1072C43.1745 150.506 43.2397 150.482 43.291 150.438C43.3423 150.394 43.3764 150.334 43.3872 150.267C43.9636 146.689 42.1182 143.968 39.5652 140.201C39.2372 139.717 38.8979 139.217 38.5497 138.694C35.6031 134.258 22.3206 112.44 18.7547 106.487C15.3956 100.881 16.3858 95.859 16.8626 93.4449C17.3318 91.0674 17.3709 86.0661 17.3722 85.8526Z" fill="#C9B768"/>
<path d="M18.8573 87.2894C18.8169 88.0196 18.7564 88.8471 18.692 89.7212C18.3565 94.293 17.8961 100.554 19.5119 104.221C21.0988 107.823 28.1083 119.417 32.2962 126.344C33.1009 127.675 33.7871 128.81 34.2867 129.645C37.2799 134.641 41.3114 141.204 41.3505 141.267C41.376 141.308 41.4117 141.342 41.454 141.366C41.4964 141.389 41.5441 141.402 41.5927 141.402C41.6451 141.402 41.6965 141.387 41.7415 141.36C41.8056 141.321 41.8513 141.257 41.8688 141.184C41.8863 141.11 41.8741 141.033 41.8348 140.969C41.7945 140.903 37.7643 134.343 34.771 129.346C34.2665 128.511 33.5841 127.377 32.7793 126.044C28.5978 119.129 21.6008 107.555 20.0291 103.986C18.4713 100.449 18.9241 94.2703 19.2559 89.7579C19.3202 88.8736 19.382 88.0512 19.4224 87.3147C19.6747 82.8263 20.936 74.8259 21.9338 71.4631C22.6907 68.8948 22.0776 67.6859 21.5339 66.6197C21.3298 66.2562 21.1689 65.8699 21.0546 65.4688C20.7632 64.2776 21.9376 61.3973 22.422 60.3879C22.4386 60.3542 22.4483 60.3175 22.4506 60.28C22.4529 60.2424 22.4478 60.2048 22.4355 60.1693C22.4232 60.1337 22.404 60.101 22.379 60.073C22.3539 60.0449 22.3236 60.0221 22.2897 60.0059C22.2558 59.9897 22.2191 59.9804 22.1816 59.9785C22.1441 59.9766 22.1066 59.9822 22.0712 59.9949C22.0359 60.0077 22.0034 60.0273 21.9757 60.0527C21.948 60.0781 21.9256 60.1087 21.9098 60.1429C21.8354 60.2995 20.1048 63.9731 20.5021 65.604C20.6261 66.048 20.8027 66.4755 21.0281 66.8774C21.5478 67.8969 22.0839 68.9517 21.3889 71.2989C20.3684 74.7653 19.1133 82.6823 18.8573 87.2894Z" fill="#C9B768"/>
<path d="M22.386 82.9792C22.3166 85.8961 22.2674 88.0033 21.6481 89.8653C20.7348 92.6054 19.6702 99.1353 22.1665 104.229C24.6893 109.383 35.454 128.174 38.0777 132.178C41.0029 136.643 45.3661 144.34 45.6007 146.579C45.6085 146.649 45.6416 146.713 45.6937 146.759C45.7459 146.806 45.8134 146.832 45.8833 146.832H45.9135C45.9884 146.823 46.0569 146.786 46.1042 146.727C46.1514 146.668 46.1736 146.593 46.1658 146.518C45.8971 143.964 41.0748 135.715 38.552 131.864C35.9346 127.869 25.1964 109.125 22.6761 103.976C20.4359 99.4044 21.1549 93.1385 22.1854 90.0422C22.8325 88.1005 22.883 85.9568 22.9536 82.9893C22.9814 81.8271 23.0116 80.5095 23.0798 79.0252C23.2778 74.8816 24.0119 73.2368 25.0273 70.9604C25.2796 70.3805 25.5521 69.7818 25.8334 69.0895C26.8564 66.5768 27.0695 63.1521 27.2398 60.3918C27.3042 59.3698 27.366 58.4059 27.4581 57.648C27.8163 54.7424 27.1869 53.1494 26.0566 51.5135C24.9428 49.9028 24.7196 48.6812 24.7196 47.2322V42.8348C24.7196 42.7594 24.6897 42.6871 24.6364 42.6338C24.5832 42.5805 24.511 42.5505 24.4358 42.5505C24.3605 42.5505 24.2883 42.5805 24.2351 42.6338C24.1818 42.6871 24.1519 42.7594 24.1519 42.8348V47.2348C24.1519 48.7937 24.3929 50.1075 25.5899 51.8394C26.6722 53.4046 27.2297 54.846 26.8942 57.5797C26.7983 58.3554 26.7378 59.3281 26.6735 60.359C26.5057 63.0725 26.2951 66.4505 25.3086 68.8773C25.0299 69.5607 24.765 70.1557 24.5089 70.7305C23.5074 72.9766 22.7165 74.7502 22.5121 78.9999C22.4453 80.4918 22.4137 81.8132 22.386 82.9792Z" fill="#C9B768"/>
<path d="M35.2219 53.8856C35.2555 53.8677 35.2852 53.8433 35.3091 53.8137C35.3331 53.784 35.3509 53.7499 35.3615 53.7133C35.372 53.6766 35.3751 53.6382 35.3705 53.6004C35.366 53.5625 35.3538 53.526 35.3349 53.4929C35.3159 53.4599 35.2905 53.431 35.2602 53.4079C35.2298 53.3849 35.1952 53.3682 35.1583 53.3589C35.1214 53.3495 35.083 53.3477 35.0454 53.3536C35.0077 53.3594 34.9717 53.3728 34.9393 53.3928C34.7413 53.5066 30.1021 56.2169 29.8347 59.1736C29.7388 60.235 29.7716 61.4164 29.8069 62.6686C29.8675 64.7989 29.9331 67.0013 29.3655 68.889C29.3443 68.9612 29.3524 69.0389 29.388 69.1052C29.4237 69.1714 29.484 69.2209 29.5559 69.2428C29.5826 69.2503 29.6102 69.2541 29.6379 69.2542C29.6988 69.2543 29.7582 69.2346 29.807 69.1982C29.8559 69.1618 29.8917 69.1105 29.9091 69.052C30.4994 67.0771 30.4364 64.828 30.3745 62.6521C30.3392 61.4176 30.3064 60.2514 30.3998 59.2241C30.6419 56.5555 35.1777 53.9058 35.2219 53.8856Z" fill="#C9B768"/>
<path d="M24.99 86.732C23.441 92.1641 21.6852 98.3124 26.0773 106.764C29.8149 113.953 33.9396 121.132 36.9518 126.374C37.8159 127.876 38.6307 129.294 39.327 130.522C42.4402 136.009 43.723 138.569 43.7356 138.595C43.7592 138.641 43.7953 138.681 43.8398 138.708C43.8843 138.736 43.9355 138.751 43.9879 138.751C44.0317 138.751 44.0748 138.74 44.114 138.721C44.1808 138.687 44.2316 138.629 44.2553 138.558C44.2789 138.486 44.2735 138.409 44.2402 138.342C44.2276 138.317 42.9397 135.746 39.819 130.244C39.1214 129.015 38.3053 127.591 37.4413 126.093C34.4316 120.856 30.3106 113.683 26.5794 106.504C22.2906 98.2531 24.0124 92.2171 25.5324 86.8912C25.6939 86.3265 25.8465 85.7946 25.9916 85.2577C27.4561 79.8547 29.6383 70.4774 29.6383 70.1477C29.6404 70.0723 29.6126 69.9991 29.5609 69.9443C29.5092 69.8894 29.4379 69.8574 29.3626 69.8552C29.2874 69.853 29.2143 69.8809 29.1596 69.9327C29.1048 69.9844 29.0728 70.0559 29.0706 70.1312C29.0151 70.5709 26.954 79.5401 25.4441 85.1087C25.3016 85.6355 25.1502 86.166 24.99 86.732Z" fill="#C9B768"/>
<path d="M52.3151 147.971C52.3556 147.971 52.3956 147.962 52.4324 147.945C52.4666 147.93 52.4973 147.908 52.523 147.88C52.5486 147.853 52.5685 147.82 52.5816 147.785C52.5948 147.75 52.6008 147.712 52.5994 147.675C52.5981 147.637 52.5893 147.6 52.5737 147.566C51.9165 146.117 44.5235 133.797 41.7093 129.217C38.7803 124.455 32.5415 113.388 28.4419 104.989C24.9567 97.85 27.5249 91.8368 28.7598 88.9451C28.9452 88.5118 29.0915 88.1707 29.1849 87.8979C30.2482 84.799 31.0354 82.2839 31.5248 80.4243C32.0962 78.2502 32.7042 76.2719 34.3768 74.0751C35.3905 72.7418 36.2113 71.2721 36.8151 69.7092C36.829 69.6737 36.8356 69.6358 36.8345 69.5977C36.8335 69.5595 36.8248 69.522 36.8089 69.4874C36.7931 69.4527 36.7705 69.4216 36.7424 69.3958C36.7143 69.3701 36.6813 69.3503 36.6455 69.3376C36.6096 69.3248 36.5715 69.3195 36.5335 69.3218C36.4955 69.3241 36.4584 69.3341 36.4243 69.3511C36.3902 69.3681 36.3599 69.3918 36.3352 69.4207C36.3104 69.4497 36.2917 69.4833 36.2802 69.5197C35.6922 71.0249 34.8997 72.4417 33.9252 73.7302C32.1895 76.0041 31.5626 78.0456 30.9748 80.2803C30.4904 82.1259 29.7071 84.6272 28.6475 87.7134C28.5618 87.9661 28.4192 88.2996 28.2376 88.724C27.0695 91.4603 24.3273 97.8677 27.9323 105.24C32.0394 113.65 38.2909 124.744 41.2249 129.519C44.415 134.71 51.4422 146.447 52.0565 147.805C52.0794 147.854 52.1159 147.896 52.1617 147.926C52.2075 147.955 52.2607 147.971 52.3151 147.971V147.971Z" fill="#C9B768"/>
<path d="M30.4035 97.0603C30.628 93.9804 34.305 88.849 36.9905 85.1021C37.3134 84.6511 37.6212 84.2178 37.9151 83.806C40.0986 80.7249 40.5855 78.9626 41.4697 75.7602C41.722 74.8506 42.0045 73.8185 42.3704 72.602C43.8638 67.6613 47.2078 65.6893 49.6499 64.2504C49.8378 64.1405 50.022 64.0319 50.1986 63.9258C50.577 63.6959 50.9491 63.4811 51.3099 63.2714C53.3495 62.0789 55.1117 61.0506 57.8111 58.4545C60.5105 55.8585 61.237 55.4138 63.9629 53.7337C64.4044 53.4608 64.8976 53.1563 65.4589 52.8064C69.2128 50.4656 71.7432 51.0239 74.4237 51.6151L74.8349 51.7061C76.5037 52.0821 78.2119 52.2543 79.9221 52.219H79.9902C80.0655 52.219 80.1377 52.189 80.1909 52.1357C80.2441 52.0824 80.274 52.0101 80.274 51.9347C80.274 51.8594 80.2441 51.7871 80.1909 51.7338C80.1377 51.6805 80.0655 51.6505 79.9902 51.6505H79.9044C78.2407 51.682 76.5792 51.5123 74.956 51.1452L74.546 51.0555C71.7495 50.439 69.1094 49.8554 65.1587 52.3188C64.5987 52.6687 64.1054 52.9719 63.6652 53.2435C60.899 54.9489 60.156 55.4075 57.4175 58.044C54.7686 60.592 53.0317 61.6051 51.0235 62.7787C50.6615 62.9897 50.2919 63.2057 49.9072 63.4369L49.3623 63.7603C46.8395 65.2459 43.3845 67.2823 41.828 72.4415C41.4596 73.6593 41.1746 74.6952 40.9223 75.6086C40.0557 78.7466 39.5789 80.476 37.4534 83.4763C37.1621 83.8868 36.8517 84.3201 36.5288 84.7699C33.8042 88.5711 30.0743 93.7783 29.8434 97.0237L29.8283 97.2384C29.5672 100.795 29.2973 104.472 33.9114 112.715C36.7647 117.812 43.0616 128.579 48.1211 137.23C51.3149 142.691 54.0736 147.408 55.1029 149.225C55.1282 149.269 55.165 149.306 55.2093 149.331C55.2537 149.357 55.3041 149.37 55.3552 149.369C55.4042 149.369 55.4525 149.356 55.4952 149.332C55.5606 149.295 55.6085 149.233 55.6286 149.16C55.6487 149.088 55.6393 149.01 55.6024 148.944C54.5706 147.124 51.8106 142.406 48.6155 136.943C43.5573 128.294 37.263 117.529 34.4109 112.436C29.88 104.342 30.1449 100.752 30.3997 97.2763L30.4035 97.0603Z" fill="#C9B768"/>
<path d="M58.3963 151.427C58.0292 149.499 57.3872 148.522 56.4966 147.156C56.1258 146.588 55.7045 145.945 55.2353 145.127C53.8982 142.812 36.8454 112.546 33.6654 105.017C31.1426 98.3822 33.7751 95.0534 36.0999 92.1176L36.2689 91.9041C38.6101 88.943 41.0307 85.8808 44.1388 84.0339C46.5203 82.619 47.2531 79.5694 47.788 77.3385C47.9961 76.4731 48.1765 75.7253 48.4086 75.1985C49.2562 73.2783 51.7689 71.204 54.1984 69.1967L54.216 69.1828C56.1485 67.5872 56.6367 66.8356 57.9435 64.8232C58.3295 64.2295 58.8088 63.4917 59.4193 62.5897C63.2388 58.2049 66.391 57.8802 74.8007 57.0136C82.2089 56.2556 84.9777 53.8655 87.2028 51.9491C87.5812 51.6194 87.9483 51.3074 88.3179 51.0168C88.6874 50.7263 89.0078 50.4686 89.3358 50.2045C91.3793 48.5623 92.9938 47.2649 94.9692 47.1613C97.4239 47.035 99.3601 46.3958 100.566 45.3207C101.095 44.8508 101.28 44.8028 101.773 44.6752C102.266 44.5476 103.035 44.3505 104.597 43.6191C107.425 42.304 112.305 43.2843 117.648 46.2416C120.596 47.8725 122.338 48.0961 124.356 48.3551C125.635 48.5193 127.086 48.705 129.056 49.2975C130.261 49.6588 131.22 49.9292 132.066 50.1666C134.809 50.9398 136.464 51.4059 142.022 53.7038C148.628 56.4413 154.406 57.5644 159.681 57.1349C164.047 56.7812 164.936 58.8315 164.945 58.8517C164.973 58.9219 165.027 58.9782 165.096 59.0083C165.165 59.0384 165.243 59.0398 165.313 59.0121C165.383 58.9845 165.44 58.9301 165.47 58.8609C165.5 58.7917 165.501 58.7134 165.474 58.6432C165.434 58.5434 164.464 56.1773 159.636 56.5689C154.446 56.9896 148.755 55.8804 142.229 53.1783C136.641 50.8627 134.973 50.3991 132.209 49.6146C131.365 49.3771 130.409 49.1093 129.21 48.7467C127.192 48.1416 125.719 47.9521 124.416 47.7854C122.456 47.5327 120.758 47.318 117.911 45.7389C112.411 42.6944 107.34 41.7077 104.346 43.0986C102.833 43.8086 102.1 43.9955 101.621 44.1206C101.097 44.2545 100.809 44.329 100.177 44.8912C99.0839 45.8652 97.2195 46.4678 94.9276 46.5878C92.7681 46.7015 91.0917 48.0494 88.97 49.7561C88.6433 50.0188 88.3065 50.2892 87.9609 50.5646C87.5825 50.8627 87.2141 51.1798 86.8256 51.5133C84.6611 53.3779 81.968 55.6973 74.7364 56.4401C66.3973 57.3004 62.9449 57.6554 58.969 62.2208L58.9488 62.2486C58.3307 63.162 57.8463 63.9073 57.4578 64.5061C56.1624 66.5248 55.7158 67.2083 53.8515 68.7482L53.8338 68.7621C51.3527 70.8111 48.7883 72.9309 47.8864 74.9724C47.6341 75.5472 47.4474 76.3165 47.233 77.2084C46.6931 79.4557 46.0208 82.2526 43.8449 83.545C40.646 85.4399 38.1925 88.5488 35.8211 91.5504L35.6521 91.7639C33.2315 94.8197 30.4892 98.2824 33.1356 105.229C36.3295 112.791 53.4024 143.095 54.7408 145.411C55.2214 146.243 55.6465 146.893 56.0224 147.468C56.9053 148.822 57.4931 149.717 57.8388 151.533C58.3799 154.378 61.0452 159.412 63.3094 162.634C63.3348 162.672 63.3693 162.704 63.4098 162.726C63.4502 162.748 63.4955 162.76 63.5415 162.76C63.5999 162.76 63.6568 162.742 63.7043 162.708C63.7348 162.687 63.7609 162.66 63.7809 162.628C63.801 162.597 63.8146 162.562 63.8211 162.525C63.8275 162.488 63.8267 162.451 63.8185 162.414C63.8104 162.378 63.7951 162.343 63.7736 162.313C61.2307 158.687 58.8681 153.908 58.3963 151.427Z" fill="#C9B768"/>
<path d="M90.2343 42.9798C91.5388 42.5888 92.8189 42.1201 94.0677 41.5762C95.9106 40.8069 97.6513 40.0804 101.428 39.45C105.921 38.6996 112.363 40.9105 120.518 43.71C123.293 44.6613 126.159 45.6454 129.298 46.6409C137.899 49.371 141.282 50.7556 144.254 51.9773C145.65 52.5508 146.968 53.0915 148.679 53.7055C153.934 55.5892 161.305 54.792 163.906 53.9696C165.729 53.3922 167.104 53.9784 167.69 54.2285C167.82 54.2969 167.962 54.3398 168.108 54.3549C168.18 54.3539 168.25 54.3251 168.302 54.2743C168.354 54.2236 168.385 54.1547 168.388 54.082C168.391 54.0093 168.366 53.9383 168.318 53.8835C168.27 53.8287 168.203 53.7944 168.131 53.7876C168.094 53.7763 168.004 53.7358 167.912 53.6992C167.268 53.4251 165.758 52.7808 163.733 53.42C161.521 54.1199 154.103 55.0396 148.869 53.1673C147.17 52.5584 145.857 52.019 144.468 51.4492C141.479 50.2225 138.092 48.8328 129.469 46.0977C126.335 45.1022 123.471 44.1193 120.701 43.1693C112.47 40.3445 105.968 38.116 101.333 38.8866C97.4924 39.5284 95.7226 40.2674 93.8482 41.0494C92.6186 41.5846 91.3584 42.0461 90.0741 42.4315C86.3278 43.5344 81.8145 43.5521 77.0199 42.4833C75.9994 42.2546 74.7961 41.8036 73.5221 41.3261C69.5689 39.8455 64.6507 38.0023 61.1957 41.364C59.5761 42.9394 58.5468 44.2697 57.6386 45.4357C56.0694 47.4571 54.7121 49.2055 50.9078 51.429C49.027 52.5268 47.4906 53.257 46.257 53.8432C43.4365 55.1824 41.8837 55.9202 40.4546 58.8776C38.4363 63.0315 37.7262 66.5676 37.7186 66.6029C37.7113 66.6396 37.7113 66.6773 37.7186 66.714C37.7259 66.7507 37.7403 66.7855 37.761 66.8166C37.7817 66.8477 37.8084 66.8744 37.8394 66.8952C37.8705 66.916 37.9053 66.9304 37.9419 66.9377C37.9785 66.945 38.0162 66.945 38.0528 66.9377C38.0894 66.9304 38.1242 66.916 38.1552 66.8952C38.1863 66.8745 38.2129 66.8478 38.2337 66.8167C38.2544 66.7856 38.2689 66.7508 38.2761 66.7141C38.2825 66.68 38.9876 63.2096 40.9642 59.1252C42.3088 56.3459 43.7102 55.6826 46.503 54.3561C47.7467 53.7662 49.2944 53.0296 51.1954 51.9192C55.0956 49.6452 56.4831 47.8537 58.0901 45.7844C58.9857 44.6285 60.0024 43.3196 61.5943 41.7708C64.7907 38.6605 69.3241 40.3596 73.3253 41.8592C74.6182 42.3431 75.8405 42.8017 76.8988 43.0379C81.7855 44.1307 86.3971 44.1105 90.2343 42.9798Z" fill="#C9B768"/>
<path d="M82.6163 48.0078C82.6163 47.9324 82.5864 47.8601 82.5331 47.8068C82.4799 47.7535 82.4077 47.7235 82.3325 47.7235C81.1973 47.7235 79.8098 47.5037 78.2041 47.2497C75.5326 46.8277 72.209 46.3021 68.1941 46.46C61.7209 46.7127 55.4887 53.1568 55.2263 53.4335C55.1743 53.488 55.1461 53.5609 55.1477 53.6363C55.1494 53.7116 55.1808 53.7832 55.2352 53.8353C55.2874 53.8865 55.3576 53.9151 55.4307 53.9149C55.469 53.915 55.507 53.9073 55.5423 53.8924C55.5777 53.8774 55.6096 53.8554 55.6363 53.8278C55.6981 53.7621 61.9745 47.2737 68.2168 47.0286C72.1749 46.8732 75.4683 47.3938 78.1146 47.8107C79.7543 48.0634 81.1582 48.2921 82.3325 48.2921C82.4077 48.2921 82.4799 48.2622 82.5331 48.2089C82.5864 48.1556 82.6163 48.0832 82.6163 48.0078V48.0078Z" fill="#C9B768"/>
<path d="M41.5532 23.2575C41.4808 23.2708 41.4163 23.3116 41.3733 23.3715C41.3304 23.4314 41.3124 23.5057 41.323 23.5787C41.3336 23.6516 41.3721 23.7176 41.4304 23.7627C41.4886 23.8078 41.5621 23.8285 41.6353 23.8204C41.6567 23.8204 43.7035 23.5421 45.2388 25.0321C46.725 26.4766 47.2742 29.0468 46.8677 32.6706C46.8595 32.7459 46.8815 32.8214 46.9289 32.8804C46.9762 32.9395 47.045 32.9773 47.1202 32.9856H47.1518C47.2216 32.9854 47.289 32.9596 47.3412 32.913C47.3933 32.8663 47.4266 32.8022 47.4346 32.7326C47.8614 28.9191 47.254 26.1882 45.629 24.616C43.8866 22.935 41.6479 23.2436 41.5532 23.2575Z" fill="#C9B768"/>
<path d="M49.8812 28.304C49.3004 26.0348 47.4266 24.1034 47.347 24.0224C47.3209 23.9957 47.2898 23.9744 47.2555 23.9597C47.2211 23.945 47.1842 23.9372 47.1469 23.9368C47.1095 23.9364 47.0725 23.9433 47.0378 23.9573C47.0032 23.9712 46.9716 23.9918 46.9449 24.018C46.9182 24.0442 46.8969 24.0753 46.8822 24.1097C46.8676 24.1441 46.8598 24.1811 46.8594 24.2185C46.859 24.2559 46.8659 24.2931 46.8798 24.3278C46.8938 24.3625 46.9144 24.3941 46.9405 24.4209C46.9594 24.4398 48.789 26.327 49.3307 28.4444C49.4089 28.7505 49.4771 29.0553 49.5428 29.35C49.9531 31.1992 50.342 32.946 53.1123 33.8238C53.1395 33.8333 53.1681 33.838 53.1969 33.8378C53.2651 33.8383 53.3312 33.8142 53.3831 33.7699C53.435 33.7256 53.4694 33.6641 53.4798 33.5966C53.4902 33.5291 53.476 33.4601 53.4398 33.4022C53.4037 33.3443 53.3479 33.3013 53.2827 33.2812C50.8256 32.5021 50.5049 31.0576 50.0971 29.2261C50.0302 28.9276 49.962 28.6177 49.8812 28.304Z" fill="#C9B768"/>
<path d="M51.6036 27.0174C51.5668 27.0111 51.5291 27.0121 51.4927 27.0203C51.4563 27.0286 51.4219 27.0439 51.3914 27.0655C51.361 27.0871 51.3351 27.1145 51.3152 27.1462C51.2953 27.1778 51.2819 27.2131 51.2756 27.2499C51.2516 27.3965 50.7395 30.8574 56.775 33.4072C62.6478 35.8888 66.2691 36.163 66.4205 36.1744H66.4394C66.5147 36.1769 66.5878 36.1493 66.6428 36.0978C66.6978 36.0463 66.7301 35.975 66.7327 35.8996C66.7352 35.8242 66.7077 35.7508 66.6562 35.6957C66.6048 35.6407 66.5336 35.6083 66.4583 35.6058C66.423 35.6058 62.7815 35.3291 56.9983 32.8828C51.4194 30.525 51.8268 27.3851 51.8394 27.3434C51.8454 27.3065 51.844 27.2688 51.8353 27.2324C51.8267 27.196 51.8109 27.1617 51.789 27.1314C51.7671 27.1011 51.7394 27.0755 51.7076 27.0559C51.6758 27.0363 51.6404 27.0233 51.6036 27.0174V27.0174Z" fill="#C9B768"/>
<path d="M59.8478 31.8737C60.5126 31.9596 61.5292 32.2186 62.9381 32.5775C66.1621 33.4001 71.5581 34.7748 80.675 36.1685C80.6893 36.1697 80.7036 36.1697 80.7179 36.1685C80.7889 36.1677 80.857 36.1403 80.9088 36.0916C80.9606 36.043 80.9923 35.9767 80.9977 35.9058C81.0031 35.8349 80.9818 35.7645 80.9379 35.7086C80.894 35.6527 80.8309 35.6152 80.7608 35.6037C71.6716 34.2138 66.292 32.8416 63.0781 32.0228C61.5973 31.6437 60.6185 31.391 59.9248 31.3064C55.3045 30.7125 54.8403 28.1664 54.8214 28.0565C54.8062 27.9857 54.7645 27.9234 54.705 27.8823C54.6454 27.8412 54.5725 27.8245 54.501 27.8354C54.4296 27.8464 54.365 27.8843 54.3204 27.9413C54.2759 27.9984 54.2548 28.0703 54.2614 28.1424C54.2715 28.2713 54.776 31.223 59.8478 31.8737Z" fill="#C9B768"/>
<path d="M39.5907 94.3962C41.2494 92.1324 45.0576 87.2738 45.0954 87.2246C45.1419 87.1653 45.163 87.0899 45.154 87.015C45.145 86.9402 45.1067 86.8719 45.0475 86.8254C44.9883 86.7788 44.913 86.7577 44.8383 86.7667C44.7635 86.7757 44.6954 86.8141 44.6489 86.8734C44.611 86.9226 40.7979 91.7875 39.1341 94.0602C38.9941 94.2522 38.825 94.4631 38.6484 94.6918C36.6554 97.1943 32.9482 101.852 39.1114 113.767C45.5356 126.092 56.5186 145.097 57.4886 146.71C58.1067 147.732 59.6015 150.279 60.1186 151.831C60.1374 151.888 60.1735 151.937 60.2217 151.972C60.2699 152.007 60.3278 152.026 60.3873 152.026C60.4178 152.026 60.4481 152.021 60.4769 152.011C60.5123 151.999 60.5451 151.98 60.5733 151.956C60.6016 151.932 60.6247 151.902 60.6414 151.869C60.658 151.835 60.6679 151.799 60.6704 151.762C60.6729 151.724 60.668 151.687 60.656 151.652C60.1413 150.102 58.7551 147.705 57.9743 146.414C57.003 144.809 46.0339 125.823 39.6147 113.506C33.6218 101.925 37.1802 97.4546 39.0912 95.0531C39.2728 94.8181 39.4444 94.5971 39.5907 94.3962Z" fill="#C9B768"/>
<path d="M43.1501 96.4174C44.776 94.1978 48.4668 89.4858 48.6485 89.2546C49.1354 88.7215 49.563 88.2705 49.9401 87.8726C51.8966 85.8109 52.6282 85.0391 54.0548 80.9031C55.7413 76.0155 56.4035 74.3947 57.8478 72.304C58.3006 71.6184 58.6971 70.8972 59.0336 70.1475C59.7261 68.7036 60.3807 67.3405 62.187 66.1922C64.8107 64.5196 68.5483 63.9032 74.5273 63.3511C80.008 62.8458 83.3318 61.7644 86.7931 59.3642C87.4364 58.9183 88.0772 58.4243 88.7571 57.9013C91.6103 55.7045 94.8433 53.2158 100.614 52.2166C105.061 51.4409 108.552 51.6254 111.101 51.758C112.713 51.8426 113.987 51.9096 114.94 51.7087C117.223 51.2274 123.289 49.949 131.31 52.8356C133.767 53.7199 135.922 54.5549 137.823 55.2927C142.146 56.9678 145.559 58.2929 149.271 58.9119C150.582 59.1305 151.901 59.2417 153.182 59.349C157.039 59.6737 160.372 59.9529 161.546 63.0277C163.002 66.8428 163.655 71.2504 163.869 72.6994C163.895 72.8699 163.914 72.9988 163.927 73.0783C163.934 73.1152 163.947 73.1504 163.967 73.1821C163.986 73.2138 164.012 73.2413 164.042 73.263C164.073 73.2847 164.107 73.3002 164.143 73.3086C164.18 73.317 164.217 73.3182 164.254 73.312C164.291 73.3059 164.326 73.2926 164.358 73.2728C164.389 73.253 164.417 73.2272 164.438 73.1969C164.46 73.1665 164.476 73.1321 164.484 73.0957C164.492 73.0594 164.494 73.0217 164.487 72.9849C164.475 72.9065 164.456 72.7802 164.431 72.6147C164.214 71.1506 163.548 66.6963 162.076 62.8243C160.775 59.4135 157.11 59.1078 153.228 58.7818C151.967 58.6757 150.658 58.5658 149.37 58.3511C145.712 57.7409 142.493 56.4915 138.032 54.7621C136.129 54.0243 133.971 53.1868 131.507 52.2999C123.334 49.359 117.155 50.6577 114.829 51.1529C113.946 51.3386 112.707 51.2792 111.137 51.1908C108.56 51.0556 105.032 50.8712 100.521 51.6557C94.6087 52.6865 91.1726 55.3318 88.4115 57.4566C87.7379 57.9759 87.1009 58.4673 86.4702 58.9031C83.0556 61.2705 79.9109 62.2887 74.4755 62.7915C68.4082 63.3511 64.6039 63.984 61.8818 65.7185C59.9443 66.954 59.224 68.456 58.5265 69.9088C58.204 70.6307 57.8244 71.3256 57.3912 71.9869C55.9078 74.1344 55.2355 75.7767 53.5288 80.7237C52.1413 84.7435 51.4854 85.4345 49.539 87.4873C49.1606 87.889 48.7267 88.3438 48.2322 88.8845L48.2183 88.9009C48.1805 88.9502 44.3673 93.8151 42.7035 96.0877C42.5635 96.2797 42.3957 96.4907 42.2179 96.7193C40.2249 99.2219 36.5176 103.88 42.6808 115.795C49.1051 128.119 60.0881 147.124 61.0581 148.737C61.4769 149.431 61.6043 150.304 61.738 151.228C61.8151 151.906 61.9527 152.574 62.1492 153.227C62.168 153.284 62.204 153.333 62.2522 153.368C62.3004 153.403 62.3584 153.421 62.4179 153.422C62.4484 153.422 62.4786 153.416 62.5074 153.406C62.5429 153.395 62.5756 153.376 62.6039 153.352C62.6321 153.328 62.6552 153.298 62.6719 153.265C62.6886 153.231 62.6984 153.195 62.701 153.158C62.7035 153.12 62.6986 153.083 62.6866 153.048C62.5028 152.428 62.3733 151.794 62.2993 151.153C62.1631 150.212 62.0231 149.24 61.5425 148.447C60.5712 146.841 49.6021 127.855 43.1829 115.538C37.1887 103.958 40.7484 99.4872 42.6594 97.0857C42.8322 96.8393 43.0037 96.6183 43.1501 96.4174Z" fill="#C9B768"/>
<path d="M65.3384 153.536C65.1277 152.713 64.8653 151.689 64.3141 150.115C62.7916 145.77 59.1966 139.563 55.034 132.375C52.2489 127.566 49.3678 122.594 46.7303 117.533C40.7374 105.952 44.2958 101.482 46.2068 99.0802C46.3884 98.8515 46.56 98.6368 46.7113 98.4359C48.3663 96.1772 54.8663 88.6973 54.9394 88.6139L55.8363 87.4959C58.1963 84.5689 60.6371 81.5421 61.5441 78.9284C61.6576 78.6024 61.7686 78.2601 61.8872 77.8975C62.8257 75.0046 63.9962 71.403 68.0958 69.8795C70.5378 68.9725 72.5422 68.6162 74.481 68.2663C76.2797 67.9442 77.9776 67.6347 79.8167 66.9234C80.6994 66.5727 81.5618 66.1729 82.4 65.7258C84.1887 64.8062 85.3693 64.1985 89.0034 64.4626C94.3303 64.8542 96.3939 64.8201 100.734 61.5217C101.452 60.9772 102.054 60.4693 102.635 59.9792C105.48 57.579 107.358 55.9999 116.646 55.9999C128.971 55.9999 136.842 57.8455 141.276 59.3943C142.577 59.8491 143.825 60.2495 145.031 60.6374C148.743 61.8286 151.95 62.8582 153.919 64.6432C154.471 65.1485 155.064 65.6134 155.639 66.0695C157.838 67.8128 159.915 69.4601 159.629 72.6183C159.251 76.8553 159.263 78.063 160.337 79.277C160.489 79.4501 160.671 79.627 160.863 79.8127C161.971 80.8902 163.49 82.367 162.661 86.0987C162.443 87.091 162.117 88.0567 161.691 88.979C160.979 90.5985 160.622 91.4121 162.424 95.7451C163.75 98.9286 169.686 110.352 175.428 121.4C180.567 131.287 185.421 140.627 186.136 142.479C187.134 145.061 187.701 147.865 188.154 150.118C188.394 151.307 188.602 152.334 188.837 153.19L188.859 153.272C189.551 155.789 190.987 161.028 194.824 163.461C194.856 163.483 194.891 163.498 194.929 163.506C194.967 163.514 195.006 163.514 195.043 163.507C195.081 163.499 195.117 163.484 195.148 163.462C195.18 163.44 195.207 163.412 195.228 163.38C195.248 163.347 195.262 163.311 195.268 163.273C195.274 163.235 195.272 163.196 195.263 163.159C195.253 163.121 195.237 163.086 195.213 163.056C195.19 163.025 195.161 162.999 195.127 162.981C191.477 160.665 190.082 155.57 189.407 153.127L189.384 153.044C189.154 152.207 188.949 151.189 188.71 150.012C188.25 147.738 187.679 144.907 186.663 142.28C185.935 140.398 181.075 131.046 175.929 121.143C170.193 110.101 164.265 98.6898 162.95 95.5266C161.241 91.4197 161.545 90.7261 162.211 89.2102C162.654 88.2543 162.993 87.2529 163.22 86.2238C164.117 82.1813 162.398 80.5112 161.261 79.4021C161.077 79.224 160.904 79.0547 160.765 78.8968C159.832 77.8407 159.824 76.7732 160.198 72.665C160.512 69.2011 158.216 67.3807 155.995 65.6197C155.427 65.17 154.842 64.7051 154.303 64.2175C152.243 62.3504 148.983 61.3044 145.207 60.0916C144.005 59.7126 142.762 59.3071 141.466 58.8549C136.992 57.2909 129.054 55.4276 116.649 55.4276C107.155 55.4276 105.212 57.0699 102.27 59.5408C101.693 60.0259 101.098 60.5287 100.391 61.0644C96.1984 64.2503 94.3265 64.2794 89.0387 63.8928C85.2545 63.6149 83.9427 64.2857 82.1364 65.2155C81.3154 65.6543 80.4706 66.0469 79.606 66.3916C77.8186 67.0889 76.146 67.3883 74.3763 67.7054C72.4123 68.0566 70.3827 68.4204 67.894 69.3477C63.5358 70.9672 62.2681 74.872 61.3423 77.7232C61.225 78.0832 61.1152 78.4218 61.0042 78.7427C60.1288 81.2692 57.7246 84.2505 55.3897 87.1409C55.0857 87.5199 54.7855 87.8913 54.4979 88.2501C54.4323 88.3259 47.9172 95.8298 46.2497 98.1037C46.1097 98.2957 45.9406 98.5066 45.764 98.7353C43.771 101.238 40.0638 105.896 46.227 117.811C48.8759 122.884 51.7544 127.863 54.5433 132.677C58.6908 139.84 62.2744 146.025 63.7793 150.321C64.3217 151.87 64.5803 152.881 64.7884 153.693C65.4468 156.273 65.6461 157.051 72.6444 166.94C72.67 166.978 72.7045 167.009 72.7449 167.031C72.7853 167.053 72.8305 167.065 72.8765 167.066C72.9352 167.066 72.9925 167.048 73.0404 167.014C73.1015 166.97 73.1429 166.904 73.1557 166.83C73.1684 166.756 73.1515 166.679 73.1086 166.618C66.1696 156.79 65.9766 156.036 65.3384 153.536Z" fill="#C9B768"/>
<path d="M77.6773 165.632C73.3028 163.263 68.8967 155.45 66.4509 149.479C64.6181 145 61.6841 139.893 58.2859 133.979C55.8375 129.72 53.0624 124.884 50.2848 119.562C44.292 107.981 47.8504 103.51 49.7614 101.109C49.943 100.88 50.1146 100.666 50.2659 100.465C51.8755 98.2679 55.5058 93.6304 55.7568 93.3108C58.8939 90.3699 60.1553 87.8395 60.6623 86.2364C60.6849 86.1644 60.678 86.0863 60.6431 86.0194C60.6082 85.9524 60.5482 85.9021 60.4763 85.8795C60.4044 85.8569 60.3264 85.8638 60.2596 85.8988C60.1928 85.9337 60.1425 85.9938 60.1199 86.0659C59.6343 87.6096 58.412 90.0502 55.3531 92.9128L55.3241 92.9444C55.2863 92.9937 51.4731 97.8586 49.8093 100.131C49.6693 100.323 49.5015 100.534 49.3237 100.763C47.3307 103.265 43.6234 107.923 49.7866 119.838C52.5705 125.178 55.3481 130.013 57.799 134.279C61.1871 140.175 64.106 145.269 65.9312 149.709C68.4098 155.772 72.9042 163.708 77.4099 166.148C77.4515 166.17 77.4978 166.181 77.5449 166.182C77.6081 166.182 77.6694 166.161 77.7193 166.122C77.7692 166.083 77.8047 166.028 77.8202 165.967C77.8357 165.906 77.8303 165.841 77.8049 165.783C77.7794 165.725 77.7354 165.677 77.6798 165.647L77.6773 165.632Z" fill="#C9B768"/>
<path d="M85.301 166.741C80.3702 165.731 75.7699 161.518 71.2351 153.856C66.9552 146.631 60.8299 134.962 53.8506 121.577C47.8564 109.996 51.4161 105.525 53.3271 103.124C53.5087 102.895 53.6803 102.681 53.8317 102.48C55.4904 100.216 59.2985 95.3573 59.3364 95.308C59.3829 95.2487 59.404 95.1734 59.395 95.0985C59.386 95.0236 59.3477 94.9554 59.2885 94.9089C59.2292 94.8623 59.154 94.8412 59.0792 94.8502C59.0045 94.8592 58.9364 94.8976 58.8899 94.9569C58.852 95.0061 55.0388 99.871 53.375 102.144C53.235 102.336 53.066 102.547 52.8894 102.775C50.8964 105.278 47.1892 109.936 53.3523 121.851C60.3354 135.242 66.4708 146.922 70.7508 154.159C75.3725 161.96 80.0964 166.26 85.1925 167.297C85.2113 167.3 85.2304 167.3 85.2492 167.297C85.3191 167.297 85.3863 167.27 85.4379 167.223C85.4895 167.176 85.5219 167.111 85.5289 167.042C85.536 166.972 85.5171 166.902 85.476 166.846C85.4348 166.789 85.3743 166.75 85.306 166.735L85.301 166.741Z" fill="#C9B768"/>
<path d="M95.9645 163.847C88.7746 167.287 82.1094 164.834 76.1518 156.557L76.008 156.357C70.9712 149.409 60.4928 129.523 57.4024 123.594C51.4095 112.014 54.9679 107.543 56.8789 105.142C57.0606 104.913 57.2321 104.698 57.3835 104.497C59.0107 102.275 61.2572 98.6546 61.3871 98.4461C63.1883 95.9973 64.796 93.4116 66.1956 90.7124C66.8263 89.5148 67.3308 88.2237 67.7799 87.0855C68.2466 85.9018 68.7285 84.6777 69.0476 84.4667C69.0787 84.4461 69.1055 84.4196 69.1264 84.3887C69.1474 84.3577 69.162 84.323 69.1695 84.2864C69.177 84.2498 69.1772 84.2121 69.1701 84.1754C69.1631 84.1387 69.1489 84.1037 69.1283 84.0726C69.1078 84.0414 69.0813 84.0145 69.0504 83.9936C69.0195 83.9727 68.9848 83.958 68.9483 83.9505C68.9117 83.943 68.8741 83.9428 68.8374 83.9498C68.8008 83.9569 68.7659 83.9711 68.7348 83.9917C68.2882 84.2873 67.8997 85.2323 67.2526 86.8758C66.8086 88.0014 66.3053 89.276 65.6935 90.4496C64.3043 93.1267 62.7089 95.6914 60.9217 98.1202L60.9103 98.1379C60.8864 98.1745 58.5805 101.902 56.9269 104.161C56.7868 104.353 56.6178 104.564 56.4412 104.793C54.4482 107.295 50.741 111.953 56.9041 123.868C59.9996 129.806 70.4944 149.725 75.5539 156.703L75.6964 156.902C76.6702 158.253 78.9483 161.419 82.4197 163.629C84.8163 165.156 87.3025 165.92 89.843 165.92C91.9301 165.92 94.0539 165.404 96.2143 164.373C96.2483 164.357 96.2789 164.335 96.3043 164.307C96.3296 164.279 96.3492 164.247 96.362 164.211C96.3747 164.176 96.3803 164.138 96.3784 164.101C96.3765 164.063 96.3672 164.026 96.351 163.992C96.3348 163.958 96.3121 163.928 96.2841 163.903C96.2561 163.878 96.2234 163.859 96.1879 163.846C96.1524 163.834 96.1149 163.829 96.0774 163.831C96.0399 163.834 96.0032 163.843 95.9696 163.86L95.9645 163.847Z" fill="#C9B768"/>
<path d="M77.1703 74.6241C76.8575 75.0259 76.5043 75.4821 76.0641 76.0065C73.4682 79.1023 69.718 81.8721 69.6802 81.8999C69.6245 81.9462 69.5885 82.0121 69.5797 82.0841C69.5709 82.156 69.5898 82.2287 69.6327 82.2871C69.6755 82.3455 69.7391 82.3854 69.8103 82.3984C69.8815 82.4115 69.955 82.3968 70.0157 82.3574C70.0536 82.3296 73.8579 79.5218 76.498 76.3729C76.9458 75.8397 77.3028 75.3797 77.6181 74.9741C79.1432 73.0117 79.4169 72.6579 82.9337 73.061C87.3738 73.5664 88.8774 73.8684 93.9078 77.3093L94.816 77.9322C99.2473 80.9838 103.817 84.1239 110.062 84.1239C110.612 84.1239 111.176 84.0986 111.753 84.0481C115.42 83.7246 118.344 81.5828 120.445 77.682C122.11 74.5925 122.779 71.2604 123.065 69.8375L123.099 69.6695C123.106 69.6329 123.107 69.5952 123.1 69.5585C123.092 69.5219 123.078 69.487 123.058 69.4558C123.037 69.4247 123.011 69.3979 122.98 69.377C122.949 69.3561 122.914 69.3415 122.878 69.334C122.804 69.3189 122.727 69.3338 122.664 69.3754C122.602 69.417 122.558 69.4819 122.543 69.5558L122.509 69.7251C120.77 78.3732 117.135 83.0018 111.702 83.482C104.775 84.0936 99.8755 80.7197 95.1377 77.4571L94.2282 76.8329C89.088 73.3163 87.5428 73.0092 83.0018 72.4886C79.2933 72.0716 78.8165 72.505 77.1703 74.6241Z" fill="#C9B768"/>
<path d="M68.4444 94.3706C68.4884 94.3963 68.5385 94.4098 68.5894 94.4098C68.6388 94.4099 68.6873 94.3972 68.7302 94.3728C68.7731 94.3484 68.8089 94.3133 68.8341 94.2708C68.8707 94.2089 72.5059 88.0592 74.2453 85.57C77.14 81.4281 81.9155 80.2745 88.4403 82.142C91.1043 82.9001 93.4718 83.911 95.7561 84.8928C101.03 87.1444 106.011 89.2709 113.45 87.8419C113.487 87.8348 113.522 87.8206 113.553 87.8001C113.584 87.7795 113.611 87.753 113.632 87.7221C113.652 87.6912 113.667 87.6564 113.675 87.6199C113.682 87.5833 113.682 87.5456 113.675 87.5089C113.668 87.4723 113.654 87.4373 113.634 87.4062C113.613 87.375 113.587 87.3481 113.556 87.3272C113.525 87.3063 113.49 87.2916 113.454 87.2841C113.417 87.2766 113.38 87.2763 113.343 87.2834C106.075 88.6809 101.171 86.5872 95.9794 84.3696C93.6736 83.3853 91.2884 82.3682 88.5917 81.5898C84.6399 80.459 81.2495 80.4185 78.5098 81.471C76.6027 82.2039 75.0096 83.4713 73.7761 85.2377C72.0241 87.7446 68.3763 93.912 68.3397 93.9739C68.3199 94.0067 68.307 94.0431 68.3015 94.081C68.2961 94.1189 68.2983 94.1575 68.3081 94.1945C68.3179 94.2315 68.335 94.2662 68.3584 94.2964C68.3818 94.3267 68.411 94.3519 68.4444 94.3706Z" fill="#C9B768"/>
<path d="M119.296 84.9396C119.33 84.9399 119.363 84.9338 119.394 84.9219C119.539 84.8688 122.969 83.4936 125.626 73.606C125.638 73.5692 125.643 73.5303 125.639 73.4917C125.636 73.4532 125.625 73.4157 125.606 73.3816C125.588 73.3475 125.563 73.3175 125.532 73.2935C125.502 73.2695 125.467 73.2519 125.43 73.2419C125.392 73.2319 125.353 73.2297 125.315 73.2353C125.277 73.241 125.24 73.2544 125.207 73.2747C125.174 73.2951 125.146 73.322 125.124 73.3537C125.102 73.3855 125.086 73.4214 125.078 73.4594C122.52 82.978 119.239 84.3721 119.195 84.3898C119.133 84.4136 119.082 84.4583 119.049 84.5161C119.017 84.574 119.006 84.6414 119.018 84.7066C119.03 84.7719 119.064 84.8308 119.115 84.8734C119.166 84.9159 119.23 84.9393 119.296 84.9396V84.9396Z" fill="#C9B768"/>
<path d="M61.9452 127.315C61.9923 127.347 62.0482 127.364 62.1054 127.364C62.1519 127.364 62.1976 127.352 62.2385 127.33C62.2794 127.308 62.3143 127.276 62.34 127.238C62.4434 127.085 63.281 125.56 60.6473 119.279C60.1428 118.068 59.6773 117.044 59.2674 116.14C57.5368 112.315 56.9541 111.026 58.6102 108.294C60.7255 104.804 62.3703 102.393 62.3867 102.369C62.4077 102.338 62.4225 102.303 62.4301 102.267C62.4378 102.23 62.4382 102.192 62.4312 102.156C62.4243 102.119 62.4103 102.084 62.3899 102.053C62.3694 102.021 62.3431 101.994 62.3123 101.973C62.2815 101.952 62.2468 101.938 62.2103 101.93C62.1738 101.922 62.1361 101.922 62.0995 101.929C62.0628 101.936 62.0279 101.95 61.9966 101.97C61.9654 101.991 61.9385 102.017 61.9175 102.048C61.9011 102.072 60.2487 104.495 58.1259 107.998C56.3134 110.988 57.0273 112.565 58.7566 116.375C59.1627 117.275 59.6244 118.295 60.1302 119.499C62.5999 125.388 61.896 126.875 61.8695 126.923C61.8283 126.985 61.8131 127.061 61.8273 127.134C61.8414 127.208 61.8838 127.272 61.9452 127.315Z" fill="#C9B768"/>
<path d="M109.32 77.1711C104.252 77.2697 101.336 74.0361 99.2082 71.6732C98.802 71.2221 98.4185 70.7962 98.054 70.431C95.7154 68.087 93.2607 68.317 93.156 68.3271C93.1189 68.3311 93.0829 68.3424 93.0502 68.3603C93.0174 68.3782 92.9885 68.4024 92.9651 68.4315C92.9416 68.4606 92.9242 68.494 92.9136 68.5299C92.9031 68.5657 92.8997 68.6033 92.9037 68.6405C92.9077 68.6777 92.9189 68.7137 92.9368 68.7465C92.9547 68.7793 92.9788 68.8083 93.0079 68.8318C93.0369 68.8552 93.0703 68.8727 93.1061 68.8833C93.1419 68.8938 93.1794 68.8972 93.2165 68.8932C93.2392 68.8932 95.5034 68.6797 97.6529 70.8329C98.0073 71.1879 98.3857 71.6087 98.7881 72.0535C100.955 74.4544 103.911 77.7397 109.086 77.7397H109.338H109.351C113.563 77.458 116.197 75.0596 118.156 69.7184C119.119 67.0863 121.134 64.1079 128.239 64.4719C135.772 64.8509 141.143 65.8618 146.307 69.846C146.337 69.8714 146.371 69.8905 146.408 69.9022C146.444 69.9139 146.483 69.9179 146.522 69.9141C146.56 69.9102 146.597 69.8985 146.631 69.8796C146.665 69.8608 146.695 69.8353 146.718 69.8046C146.742 69.7739 146.759 69.7387 146.768 69.7011C146.778 69.6636 146.78 69.6245 146.774 69.5863C146.767 69.548 146.754 69.5114 146.733 69.4787C146.712 69.446 146.685 69.4179 146.653 69.3961C141.396 65.3349 135.721 64.2836 128.267 63.9032C124.91 63.7326 122.285 64.2975 120.464 65.5826C118.774 66.7742 118.032 68.4017 117.622 69.5225C115.754 74.6123 113.27 76.9045 109.32 77.1711Z" fill="#C9B768"/>
<path d="M137.027 61.1352C130.574 59.4032 128.035 60.2863 124.821 61.403C124.473 61.5293 124.117 61.6481 123.746 61.7719C120.089 62.9935 117.722 62.6473 117.7 62.6448C117.627 62.6369 117.554 62.6572 117.496 62.7016C117.439 62.746 117.4 62.811 117.389 62.8831C117.377 62.9552 117.394 63.029 117.435 63.089C117.477 63.1491 117.54 63.1909 117.611 63.2057C117.712 63.2221 120.12 63.5847 123.926 62.31C124.304 62.1837 124.657 62.0574 125.008 61.9399C128.13 60.8547 130.596 59.9982 136.881 61.6872C143.672 63.5101 148.069 64.9819 151.863 70.0476C155.063 74.3213 155.349 77.3923 154.774 80.9636C154.562 82.2787 154.27 83.5204 154.007 84.6157C153.557 86.5106 153.201 88.0089 153.455 89.022C153.47 89.0835 153.505 89.138 153.555 89.177C153.605 89.2159 153.666 89.237 153.73 89.2368C153.753 89.2369 153.776 89.2339 153.799 89.2279C153.872 89.2095 153.935 89.1628 153.973 89.0981C154.012 89.0334 154.023 88.9561 154.005 88.8831C153.785 87.9988 154.145 86.4955 154.56 84.7471C154.822 83.6417 155.118 82.3898 155.334 81.0545C155.933 77.3354 155.638 74.1406 152.317 69.7065C148.413 64.4904 143.937 62.9884 137.027 61.1352Z" fill="#C9B768"/>
<path d="M61.4862 110.97C61.4125 110.955 61.3358 110.97 61.273 111.011C61.2102 111.053 61.1664 111.118 61.1514 111.192C61.1363 111.266 61.1512 111.342 61.1927 111.405C61.2342 111.468 61.299 111.512 61.3727 111.527C61.4561 111.541 61.5405 111.547 61.625 111.546C62.267 111.546 63.9408 111.243 64.6938 108.223C65.5137 104.938 66.7536 99.972 73.0855 95.3689C73.1173 95.3477 73.1444 95.3202 73.1654 95.2882C73.1863 95.2562 73.2006 95.2203 73.2073 95.1826C73.214 95.145 73.2131 95.1063 73.2046 95.069C73.1961 95.0317 73.1801 94.9965 73.1577 94.9655C73.1353 94.9345 73.1068 94.9084 73.0741 94.8887C73.0413 94.869 73.005 94.8561 72.9671 94.8509C72.9293 94.8456 72.8908 94.848 72.8539 94.858C72.817 94.868 72.7825 94.8853 72.7525 94.909C66.2528 99.6334 64.9322 104.924 64.1439 108.084C63.3505 111.283 61.5695 110.986 61.4862 110.97Z" fill="#C9B768"/>
<path d="M109.857 91.3142C104.838 90.9592 100.06 89.6716 95.8446 88.5268C92.5475 87.6335 89.432 86.7907 86.6558 86.5127C80.2141 85.8683 78.9402 88.7126 78.8897 88.8339C78.8625 88.9028 78.8632 88.9797 78.8918 89.0482C78.9203 89.1166 78.9744 89.1711 79.0426 89.2001C79.1107 89.2291 79.1875 89.2303 79.2565 89.2035C79.3255 89.1766 79.3812 89.1238 79.4119 89.0563C79.4233 89.031 80.6203 86.4786 86.6015 87.0788C89.3311 87.3517 92.4239 88.1895 95.6983 89.0752C99.9376 90.2225 104.743 91.5227 109.818 91.8803H109.838C109.91 91.8788 109.98 91.8496 110.031 91.7986C110.083 91.7476 110.113 91.6788 110.116 91.6062C110.118 91.5336 110.093 91.4628 110.045 91.4083C109.997 91.3537 109.93 91.3196 109.858 91.313L109.857 91.3142Z" fill="#C9B768"/>
<path d="M76.6389 95.6509C76.6747 95.638 76.7075 95.618 76.7355 95.5921C76.7635 95.5662 76.7859 95.535 76.8016 95.5002C76.8172 95.4654 76.8258 95.4279 76.8266 95.3898C76.8275 95.3516 76.8207 95.3137 76.8067 95.2783C76.7926 95.2429 76.7716 95.2106 76.7448 95.1835C76.7181 95.1563 76.6862 95.1349 76.651 95.1203C76.6158 95.1058 76.578 95.0985 76.54 95.0989C76.5019 95.0993 76.4643 95.1073 76.4294 95.1226C71.3826 97.117 69.061 100.46 67.9987 102.913C66.8468 105.575 66.8897 107.739 66.8922 107.83C66.8945 107.904 66.9253 107.974 66.9783 108.026C67.0313 108.077 67.1022 108.106 67.1761 108.107H67.1836C67.2588 108.104 67.3301 108.072 67.3818 108.018C67.4336 107.963 67.4616 107.89 67.4599 107.815C67.4599 107.793 67.4196 105.666 68.5299 103.116C69.5519 100.768 71.7876 97.5695 76.6389 95.6509Z" fill="#C9B768"/>
<path d="M110.098 95.1108C109.024 94.7988 107.85 94.3933 106.606 93.9625C102.67 92.6007 97.7708 90.9067 90.4374 90.0464C80.6179 88.8968 79.3376 91.9906 79.2909 92.1232C79.2666 92.193 79.2703 92.2695 79.3014 92.3366C79.3324 92.4036 79.3883 92.4559 79.4572 92.4824C79.5262 92.5089 79.6027 92.5074 79.6705 92.4783C79.7384 92.4492 79.7922 92.3948 79.8207 92.3266C79.8333 92.2988 81.0909 89.5234 90.3718 90.6098C97.6434 91.4612 102.511 93.1452 106.421 94.4969C107.671 94.9302 108.853 95.3382 109.939 95.6541C111.682 96.1594 113.66 96.6369 115.686 96.6369C116.362 96.6391 117.037 96.5812 117.704 96.4638C120.957 95.8815 123.609 93.7768 125.588 90.2106C129.963 82.3265 132.147 76.336 132.166 76.2766C132.182 76.2409 132.19 76.2023 132.19 76.1633C132.19 76.1243 132.182 76.0857 132.167 76.0498C132.151 76.014 132.129 75.9817 132.101 75.9549C132.072 75.9281 132.039 75.9074 132.002 75.8941C131.966 75.8808 131.927 75.8751 131.888 75.8775C131.849 75.8798 131.811 75.8901 131.776 75.9077C131.741 75.9253 131.711 75.9499 131.686 75.9799C131.661 76.0099 131.642 76.0447 131.631 76.0821C131.61 76.1415 129.445 82.089 125.091 89.9352C120.543 98.1427 113.487 96.0949 110.098 95.1108Z" fill="#C9B768"/>
<path d="M77.0376 98.4586H77.0452C77.1108 98.4586 78.6727 98.403 79.7472 97.4834C80.1866 97.1061 80.5977 96.6968 80.977 96.259C81.083 96.1273 81.2019 96.0066 81.3318 95.8985C81.3905 95.8605 81.4331 95.8021 81.4514 95.7346C81.4698 95.667 81.4627 95.5951 81.4314 95.5324C81.4002 95.4698 81.347 95.4209 81.282 95.3952C81.2171 95.3694 81.1449 95.3684 81.0793 95.3926C80.9215 95.471 80.7763 95.6355 80.5553 95.8834C80.1928 96.3014 79.8003 96.6925 79.3811 97.0534C78.4618 97.8401 77.0464 97.892 77.0325 97.892C76.9572 97.893 76.8853 97.9239 76.8328 97.978C76.8067 98.0048 76.7862 98.0364 76.7724 98.0712C76.7586 98.1059 76.7517 98.143 76.7522 98.1804C76.7527 98.2177 76.7606 98.2546 76.7753 98.289C76.79 98.3233 76.8114 98.3544 76.8381 98.3805C76.8921 98.4331 76.9648 98.4622 77.0401 98.4612L77.0376 98.4586Z" fill="#C9B768"/>
<path d="M114.104 100.721H114.126C114.198 100.719 114.268 100.69 114.32 100.639C114.372 100.588 114.402 100.52 114.405 100.447C114.407 100.374 114.382 100.303 114.334 100.249C114.287 100.194 114.22 100.16 114.147 100.153C113.923 100.135 113.678 100.124 113.42 100.111C112.078 100.046 110.238 99.9573 108.6 98.9313L108.268 98.7228C105.525 97.0032 104.391 96.2918 97.4649 93.8506C90.2854 91.3235 83.1361 93.8253 83.0642 93.8506C83.0291 93.8632 82.9968 93.8826 82.9692 93.9077C82.9416 93.9329 82.9192 93.9632 82.9032 93.997C82.8873 94.0307 82.8782 94.0674 82.8764 94.1047C82.8746 94.142 82.8801 94.1793 82.8927 94.2145C82.9053 94.2497 82.9247 94.282 82.9497 94.3097C82.9748 94.3374 83.0051 94.3598 83.0388 94.3758C83.0725 94.3917 83.1091 94.4009 83.1463 94.4027C83.1836 94.4045 83.2208 94.3989 83.256 94.3863C83.3253 94.3611 90.2917 91.9237 97.277 94.3863C104.142 96.8073 105.263 97.5086 107.967 99.2055L108.3 99.414C110.066 100.518 111.987 100.611 113.392 100.678C113.647 100.693 113.888 100.704 114.104 100.721Z" fill="#C9B768"/>
<path d="M139.942 77.1908C139.907 77.1764 139.87 77.1689 139.833 77.1688C139.796 77.1688 139.759 77.1761 139.724 77.1904C139.69 77.2048 139.659 77.2258 139.632 77.2523C139.606 77.2788 139.585 77.3103 139.571 77.3449C139.09 78.5021 134.687 86.4696 129.675 93.9684C127.199 97.6723 124.075 99.2098 121.891 99.8464C119.517 100.54 117.703 100.352 117.686 100.352C117.611 100.343 117.535 100.365 117.477 100.412C117.418 100.459 117.38 100.528 117.371 100.603C117.363 100.678 117.385 100.753 117.432 100.812C117.479 100.871 117.548 100.909 117.622 100.918C117.65 100.918 117.908 100.948 118.343 100.948C119.589 100.938 120.828 100.754 122.025 100.402C124.306 99.7403 127.568 98.1435 130.146 94.2868C134.918 87.1492 139.513 78.9645 140.094 77.5648C140.109 77.5302 140.117 77.493 140.117 77.4555C140.117 77.4179 140.11 77.3807 140.096 77.3459C140.082 77.3111 140.061 77.2795 140.034 77.2529C140.008 77.2263 139.976 77.2052 139.942 77.1908V77.1908Z" fill="#C9B768"/>
<path d="M81.58 100.182C81.644 100.222 81.721 100.234 81.7942 100.217C81.8674 100.2 81.931 100.155 81.971 100.091C81.9887 100.062 83.863 97.1975 90.0221 97.4376C96.6479 97.6979 100.553 98.0871 102.219 99.3987C102.857 99.9041 103.598 100.571 104.316 101.219C105.59 102.372 106.908 103.563 107.827 103.983C107.864 104 107.904 104.008 107.944 104.008C108.009 104.008 108.072 103.986 108.123 103.945C108.173 103.904 108.208 103.847 108.222 103.784C108.236 103.72 108.227 103.654 108.198 103.596C108.169 103.538 108.121 103.492 108.062 103.465C107.222 103.086 105.938 101.921 104.695 100.797C103.971 100.143 103.223 99.4656 102.57 98.9514C100.783 97.545 96.7892 97.1344 90.0448 96.869C83.5187 96.6163 81.5686 99.6602 81.4879 99.7904C81.4683 99.8221 81.455 99.8575 81.449 99.8943C81.443 99.9312 81.4443 99.969 81.4529 100.005C81.4614 100.042 81.477 100.076 81.4989 100.106C81.5207 100.137 81.5482 100.162 81.58 100.182Z" fill="#C9B768"/>
<path d="M83.5376 102.841C83.5975 102.887 83.6728 102.907 83.7472 102.897C83.8216 102.887 83.889 102.848 83.935 102.788C83.9627 102.753 86.725 99.2568 93.1427 100.222C99.5907 101.19 99.9413 101.543 100.983 102.59L101.056 102.662C102.318 103.926 104.029 105.5 104.966 105.767C104.992 105.774 105.018 105.778 105.045 105.778C105.113 105.778 105.179 105.753 105.23 105.708C105.281 105.663 105.315 105.601 105.324 105.533C105.334 105.466 105.319 105.397 105.282 105.339C105.245 105.282 105.188 105.24 105.123 105.221C104.492 105.04 103.16 103.957 101.465 102.26L101.393 102.188C100.283 101.073 99.8682 100.656 93.2335 99.6611C86.4614 98.6503 83.6032 102.289 83.4847 102.441C83.4617 102.471 83.4449 102.505 83.4351 102.541C83.4253 102.577 83.4228 102.615 83.4278 102.652C83.4327 102.69 83.4449 102.725 83.4638 102.758C83.4826 102.79 83.5077 102.819 83.5376 102.841V102.841Z" fill="#C9B768"/>
<path d="M84.3234 110.278C84.3545 110.298 84.3893 110.312 84.4259 110.319C84.4625 110.326 84.5001 110.326 84.5365 110.318C84.573 110.311 84.6076 110.296 84.6383 110.275C84.669 110.254 84.6953 110.227 84.7156 110.195C84.7459 110.15 87.7428 105.621 91.9254 104.578C95.2478 103.749 96.7374 104.451 98.7997 105.436C99.3711 105.707 99.9614 105.987 100.644 106.261C100.678 106.275 100.715 106.282 100.753 106.281C100.79 106.281 100.827 106.273 100.861 106.258C100.896 106.244 100.927 106.223 100.953 106.196C100.979 106.169 100.999 106.138 101.013 106.103C101.027 106.068 101.034 106.031 101.034 105.994C101.033 105.956 101.026 105.919 101.011 105.885C100.996 105.851 100.975 105.819 100.949 105.793C100.922 105.767 100.89 105.747 100.856 105.733C100.188 105.466 99.607 105.189 99.0431 104.921C96.9556 103.931 95.3083 103.152 91.7892 104.026C87.3745 105.125 84.3662 109.691 84.2401 109.885C84.1992 109.948 84.185 110.025 84.2006 110.098C84.2162 110.172 84.2603 110.237 84.3234 110.278Z" fill="#C9B768"/>
<path d="M109.329 104.896C109.455 104.896 110.571 105.023 112.687 105.402C113.104 105.475 113.569 105.586 114.074 105.702C115.348 106.003 116.92 106.372 118.696 106.372C119.822 106.376 120.944 106.217 122.026 105.9C125.654 104.827 127.225 102.65 129.602 99.3557C129.81 99.0676 130.024 98.7719 130.247 98.4712C132.922 94.7943 137.274 91.0163 139.008 89.8184C139.04 89.7975 139.066 89.7705 139.087 89.739C139.108 89.7076 139.123 89.6723 139.13 89.6352C139.137 89.5981 139.136 89.56 139.129 89.523C139.121 89.4861 139.106 89.4511 139.084 89.42C139.063 89.389 139.035 89.3625 139.004 89.3422C138.972 89.3219 138.936 89.3081 138.899 89.3016C138.862 89.2952 138.824 89.2962 138.787 89.3047C138.751 89.3132 138.716 89.3289 138.685 89.3509C136.919 90.5727 132.505 94.4051 129.788 98.1351C129.565 98.4417 129.35 98.7395 129.142 99.0284C126.745 102.341 125.308 104.335 121.864 105.359C118.855 106.25 116.275 105.642 114.204 105.154C113.699 105.035 113.22 104.923 112.786 104.846C110.613 104.467 109.478 104.34 109.331 104.34C109.256 104.34 109.184 104.37 109.131 104.424C109.078 104.477 109.048 104.549 109.048 104.625C109.048 104.7 109.078 104.772 109.131 104.826C109.184 104.879 109.256 104.909 109.331 104.909L109.329 104.896Z" fill="#C9B768"/>
<path d="M87.0038 119.294H87.0303C87.4718 119.252 97.8985 118.227 103.45 113.93C104.964 112.766 106.41 111.517 107.783 110.189C109.189 108.849 109.717 108.347 111.494 108.098C113.328 107.846 114.718 108.439 116.191 109.075C117.074 109.454 117.976 109.844 118.992 110.046C119.196 110.087 119.408 110.132 119.622 110.173C122.217 110.729 125.77 111.49 129.601 106.934C130.533 105.824 131.395 104.66 132.227 103.53C135.039 99.7174 137.471 96.4226 141.54 96.4226H141.617C146.191 96.4694 148.837 100.465 151.398 104.325C151.841 104.993 152.26 105.625 152.691 106.24C152.736 106.298 152.801 106.336 152.873 106.346C152.945 106.357 153.018 106.34 153.078 106.298C153.137 106.256 153.179 106.193 153.193 106.122C153.208 106.05 153.194 105.976 153.155 105.914C152.728 105.304 152.311 104.676 151.871 104.01C149.348 100.21 146.498 95.9034 141.622 95.8541H141.542C137.185 95.8541 134.555 99.4193 131.771 103.192C130.943 104.313 130.088 105.472 129.167 106.567C125.555 110.863 122.332 110.173 119.741 109.617C119.521 109.57 119.307 109.523 119.1 109.483C118.144 109.292 117.263 108.913 116.413 108.546C114.934 107.914 113.404 107.249 111.412 107.535C109.454 107.81 108.85 108.385 107.389 109.777C106.03 111.092 104.599 112.328 103.101 113.48C97.6765 117.674 87.0808 118.718 86.9761 118.728C86.9035 118.735 86.8363 118.77 86.7885 118.825C86.7407 118.88 86.7159 118.951 86.7193 119.024C86.7227 119.097 86.754 119.166 86.8068 119.217C86.8595 119.267 86.9296 119.295 87.0026 119.295L87.0038 119.294Z" fill="#C9B768"/>
<path d="M99.0933 3.06619C99.1424 3.05861 104.013 2.38778 108.893 6.66165C110.86 8.3861 112.425 9.40814 113.801 10.3102C115.927 11.6998 117.459 12.7042 119.052 15.4343C119.63 16.426 120.085 17.2522 120.487 17.9799C121.907 20.5546 122.62 21.847 125.415 24.3471C126.838 25.6193 128.229 26.4948 129.577 27.3349C131.637 28.6285 133.584 29.8489 135.604 32.3971C138.779 36.4019 142.063 40.5418 147.135 41.344C150.706 41.9087 154.829 41.5765 158.809 41.2556C160.219 41.1419 161.55 41.0345 162.835 40.9688C167.891 40.7086 175.282 41.7685 179.563 44.7096C184.167 47.8679 187.738 48.679 189.925 48.8015H189.94C190.015 48.8035 190.088 48.7755 190.143 48.7236C190.198 48.6717 190.23 48.6002 190.232 48.5248C190.234 48.4494 190.206 48.3763 190.154 48.3216C190.102 48.2669 190.031 48.235 189.955 48.233C187.842 48.1155 184.379 47.3272 179.883 44.2396C175.493 41.2253 167.953 40.1363 162.805 40.4003C161.513 40.4673 160.178 40.5747 158.769 40.6884C154.818 41.008 150.732 41.3377 147.228 40.7831C142.722 40.0706 139.754 36.7114 136.053 32.0433C133.972 29.4194 131.891 28.1144 129.884 26.8536C128.559 26.0223 127.191 25.1632 125.803 23.9226C123.08 21.4869 122.427 20.3019 120.994 17.7057C120.59 16.9743 120.133 16.1455 119.552 15.1487C117.894 12.3024 116.313 11.2665 114.128 9.83389C112.766 8.94197 111.22 7.9313 109.283 6.23464C104.197 1.77759 99.2345 2.47116 99.0251 2.50401C98.9883 2.50957 98.9529 2.52234 98.9209 2.5416C98.889 2.56086 98.8612 2.58623 98.8391 2.61627C98.8169 2.6463 98.8009 2.6804 98.7919 2.71663C98.7829 2.75286 98.7812 2.79051 98.7867 2.82742C98.7923 2.86434 98.805 2.8998 98.8243 2.93177C98.8435 2.96375 98.8688 2.99162 98.8988 3.01379C98.9288 3.03596 98.9628 3.052 98.999 3.06099C99.0352 3.06998 99.0728 3.07175 99.1097 3.06619H99.0933Z" fill="#C9B768"/>
<path d="M184.523 42.1406C183.951 41.9599 183.411 41.7894 182.938 41.6706C181.558 41.3245 180.003 40.7775 178.356 40.1989C175.813 39.3032 172.932 38.29 169.927 37.7505C167.188 37.2578 163.635 37.1934 159.874 37.1264C156.907 37.0734 153.838 37.0178 151.16 36.7361C145.572 36.1486 141.795 32.9599 140.186 31.5981L139.913 31.3681C138.352 30.0644 132.939 24.8721 130.238 21.5533C129.734 20.9368 129.246 20.3417 128.769 19.7657C126.637 17.1872 124.624 14.7515 122.567 11.3518C120.044 7.18283 115.476 3.72634 115.431 3.69223C115.371 3.647 115.295 3.62757 115.22 3.63823C115.146 3.6489 115.079 3.68877 115.034 3.74908C114.988 3.80939 114.969 3.8852 114.98 3.95983C114.99 4.03446 115.03 4.1018 115.09 4.14703C115.136 4.18114 119.617 7.57446 122.082 11.6475C124.16 15.0812 126.187 17.5321 128.331 20.1282C128.807 20.7031 129.299 21.2981 129.799 21.9121C132.566 25.313 137.929 30.4522 139.55 31.8053L139.82 32.0327C141.472 33.4223 145.341 36.6956 151.103 37.302C153.806 37.5863 156.887 37.6406 159.866 37.6949C163.605 37.7619 167.136 37.8213 169.831 38.3089C172.789 38.8408 175.649 39.8477 178.173 40.7345C179.833 41.3182 181.401 41.8715 182.805 42.2215C183.262 42.3364 183.794 42.5044 184.356 42.6826C186.012 43.2081 188.014 43.8423 190.179 43.8423C190.58 43.8426 190.982 43.8198 191.381 43.7741C194.507 43.414 197.084 41.6264 199.257 38.3127C204.303 30.6063 205.725 26.5283 206.975 22.9291C207.102 22.5576 207.228 22.1925 207.354 21.8274C207.376 21.7571 207.37 21.6809 207.337 21.6149C207.305 21.5489 207.247 21.4982 207.178 21.4736C207.109 21.449 207.032 21.4524 206.965 21.4831C206.898 21.5137 206.846 21.5693 206.819 21.6379C206.693 22.003 206.567 22.3707 206.433 22.7421C205.194 26.3097 203.784 30.3549 198.776 37.9994C194.076 45.1726 188.327 43.3521 184.523 42.1406Z" fill="#C9B768"/>
<path d="M116.95 -4.31475C116.498 -4.38818 116.04 -4.41822 115.582 -4.40445C114.684 -4.40445 113.666 -4.40445 111.691 -5.06265C107.666 -6.40684 106.462 -4.63185 106.131 -3.80563C105.605 -2.49429 106.402 -1.28906 108.565 -0.121739C110.182 0.749963 114.061 3.01007 114.1 3.0366C114.132 3.05751 114.168 3.07166 114.206 3.0782C114.244 3.08475 114.283 3.08354 114.32 3.07467C114.357 3.06579 114.392 3.04943 114.423 3.02657C114.454 3.0037 114.48 2.97481 114.499 2.94164C114.519 2.90847 114.531 2.87172 114.536 2.83359C114.541 2.79546 114.538 2.75676 114.527 2.71982C114.517 2.68288 114.499 2.64847 114.475 2.61866C114.45 2.58886 114.42 2.56429 114.386 2.54643C114.347 2.52369 110.46 0.259788 108.836 -0.611914C106.972 -1.62258 106.26 -2.58904 106.659 -3.58454C107.232 -5.01338 109.001 -5.35322 111.513 -4.51436C113.574 -3.82584 114.688 -3.82584 115.583 -3.82584C116.005 -3.83889 116.428 -3.81224 116.845 -3.74625C116.936 -3.72856 117.045 -3.71088 117.172 -3.69066C119.011 -3.39378 123.896 -2.6042 125.962 3.14525C126.483 4.59303 126.939 5.93217 127.34 7.11212C128.699 11.1055 129.681 13.9897 131.558 16.3648C132.795 17.9313 134.188 19.6495 135.534 21.3082C136.781 22.847 137.959 24.3011 138.873 25.4596C140.399 27.395 144.734 32.0415 152.037 33.3958C155.663 34.0692 158.689 34.3812 161.614 34.6832C164.177 34.9485 166.599 35.1986 169.193 35.6698C171.496 36.0893 173.734 36.6742 175.71 37.1858C178.572 37.9325 181.044 38.5755 182.992 38.5755C183.068 38.5755 183.14 38.5456 183.193 38.4923C183.246 38.4389 183.276 38.3666 183.276 38.2913C183.276 38.2159 183.246 38.1436 183.193 38.0903C183.14 38.037 183.068 38.007 182.992 38.007C181.117 38.007 178.677 37.3753 175.854 36.6338C173.869 36.1158 171.618 35.5296 169.295 35.1064C166.68 34.6301 164.249 34.3787 161.675 34.1134C158.76 33.8115 155.746 33.5007 152.141 32.8324C145.028 31.5135 140.805 26.9869 139.32 25.1033C138.403 23.9398 137.224 22.4857 135.975 20.9444C134.631 19.2856 133.24 17.57 132.003 16.006C130.188 13.7093 129.268 11.0095 127.878 6.92389C127.476 5.7414 127.019 4.39721 126.498 2.94817C124.317 -3.11585 119.008 -3.97492 117.264 -4.25285L116.95 -4.31475Z" fill="#C9B768"/>
</g>
</svg>
