<svg id="Layer_1" data-name="Layer 1" xmlns="http://www.w3.org/2000/svg" width="117.81" height="173.96" viewBox="0 0 117.81 173.96"><defs><style>.cls-1{fill:#fff;fill-rule:evenodd;}</style></defs><path class="cls-1" d="M40,165.74H52V174H30.62V145.47H40ZM55.1,174h9.34V145.47H55.1Zm12.5-20.27h7.59V174h9.3V153.65h7.57v-8.22H67.6Zm27.11,0h9.85L94.06,168v6h23.75v-8.22h-11l8.85-12.08h2.12v-8.22h-23Zm-68,7.63a7.44,7.44,0,0,1,1.35,4.5,8.17,8.17,0,0,1-.94,4,7,7,0,0,1-2.57,2.49,11.78,11.78,0,0,1-3.68,1.29,25,25,0,0,1-4.31.37H.07v-8.22H2.71V153.7H.07v-8.22H16.79a16.85,16.85,0,0,1,5.42.77,6.79,6.79,0,0,1,3.42,2.37,8,8,0,0,1,.24,7.83,6.21,6.21,0,0,1-3.12,2.41,7.49,7.49,0,0,1,3.92,2.41Zm-14.65-4.8h3.52a2.68,2.68,0,0,0,1.36-.3,1.79,1.79,0,0,0,.77-.77,2.13,2.13,0,0,0,.27-1,2.17,2.17,0,0,0-.58-1.51,2.53,2.53,0,0,0-1.76-.61H12.1Zm6.67,8.22A2.18,2.18,0,0,0,18,163a3,3,0,0,0-2-.59h-4v4.65h4a3,3,0,0,0,2-.59,2.18,2.18,0,0,0,.63-1.74ZM7.49,141.45H15v-15h7.38v-6.1H0v6.1H7.43Zm28.47-21,8.63,21H36.81l-1.11-3.1H27l-1.09,3.09H18.34L27,120.37Zm-2.19,12.33L31.35,126l-2.42,6.7ZM69,141.43v-21H61.88V131.5l-9.16-11.08H46.15v21h7.07V130.37l9.12,11.06Zm18.31-21.1-7.44,7.3v-7.19H72.36v21h7.52v-5.84l2.45-2.21,5.42,8.1h8.47l-9-12.92,8.13-8.1Zm19.75,16.36c-2.24,0-3.51-.81-3.83-2.44H95.79q.66,7.65,11.17,7.62,11,0,11-7a5.38,5.38,0,0,0-1.82-4.39,12.65,12.65,0,0,0-6-2.26l-4.78-.83A4.11,4.11,0,0,1,104,127a.77.77,0,0,1-.36-.7,1.08,1.08,0,0,1,.8-1,5.58,5.58,0,0,1,2.29-.34,4.53,4.53,0,0,1,2.29.46,2.78,2.78,0,0,1,1.16,1.59l7.14-.61a6.49,6.49,0,0,0-3-5,13.49,13.49,0,0,0-7.25-1.62,14.83,14.83,0,0,0-7.89,1.78,5.5,5.5,0,0,0-2.85,4.93A5.43,5.43,0,0,0,98.41,131a13.37,13.37,0,0,0,6.38,2.34l3.75.59a5.41,5.41,0,0,1,1.53.46.88.88,0,0,1,.48.78c-.07,1.12-1.22,1.64-3.65,1.64ZM14.41,100.75,32,79.69l-10.42-11V20.89L35.74,9.7H79.11L95.33,0,61.16,37,88.27,64.75V24.24L82.36,19.6l3.89-5.9,9,7.08V68.6l-36.77,39-15-15.78L51,89.43l7.51,7.82L85.84,68.49ZM36.59,74.21,49.24,59.15,37,34.6,67.25,16.68H38.16l-9.48,7.55V65.75Z"/></svg>