<svg width="118" height="175" viewBox="0 0 118 175" fill="none" xmlns="http://www.w3.org/2000/svg">
<path fill-rule="evenodd" clip-rule="evenodd" d="M40 165.74H52V174H30.62V145.47H40V165.74ZM55.1 174H64.44V145.47H55.1V174ZM67.6 153.73H75.19V174H84.49V153.65H92.06V145.43H67.6V153.73ZM94.71 153.73H104.56L94.06 168V174H117.81V165.78H106.81L115.66 153.7H117.78V145.48H94.78L94.71 153.73ZM26.71 161.36C27.6342 162.675 28.1079 164.254 28.06 165.86C28.0926 167.252 27.769 168.629 27.12 169.86C26.4935 170.899 25.6079 171.757 24.55 172.35C23.4035 172.981 22.1598 173.417 20.87 173.64C19.4467 173.888 18.0047 174.011 16.56 174.01H0.0700073V165.79H2.71001V153.7H0.0700073V145.48H16.79C18.6266 145.439 20.4574 145.7 22.21 146.25C23.5699 146.663 24.7661 147.492 25.63 148.62C26.338 149.795 26.7319 151.132 26.774 152.504C26.816 153.875 26.5047 155.234 25.87 156.45C25.1194 157.571 24.0242 158.417 22.75 158.86C24.2772 159.232 25.6486 160.075 26.67 161.27L26.71 161.36ZM12.06 156.56H15.58C16.0519 156.582 16.521 156.478 16.94 156.26C17.2704 156.09 17.5395 155.82 17.71 155.49C17.8809 155.184 17.9737 154.84 17.98 154.49C17.9885 153.931 17.7807 153.39 17.4 152.98C16.9123 152.56 16.2829 152.342 15.64 152.37H12.1L12.06 156.56ZM18.73 164.78C18.7526 164.447 18.6985 164.114 18.572 163.805C18.4454 163.497 18.2497 163.221 18 163C17.4253 162.571 16.7158 162.361 16 162.41H12V167.06H16C16.7158 167.109 17.4253 166.899 18 166.47C18.2262 166.244 18.3999 165.971 18.5088 165.67C18.6177 165.369 18.6591 165.048 18.63 164.73L18.73 164.78ZM14.41 100.75L32 79.69L21.58 68.69V20.89L35.74 9.7H79.11L95.33 0L61.16 37L88.27 64.75V24.24L82.36 19.6L86.25 13.7L95.25 20.78V68.6L58.48 107.6L43.48 91.82L51 89.43L58.51 97.25L85.84 68.49L14.41 100.75ZM36.59 74.21L49.24 59.15L37 34.6L67.25 16.68H38.16L28.68 24.23V65.75L36.59 74.21Z" fill="white"/>
<path d="M7.10938 118.878V126.446H10.8931C11.4116 126.446 11.8994 126.349 12.3564 126.156C12.8135 125.954 13.2134 125.681 13.5562 125.338C13.8989 124.996 14.167 124.596 14.3604 124.139C14.5625 123.673 14.6636 123.181 14.6636 122.662C14.6636 122.144 14.5625 121.656 14.3604 121.199C14.167 120.733 13.8989 120.329 13.5562 119.986C13.2134 119.643 12.8135 119.375 12.3564 119.182C11.8994 118.979 11.4116 118.878 10.8931 118.878H7.10938ZM7.10938 134H3.32568V115.095H10.8931C11.5874 115.095 12.2554 115.187 12.897 115.372C13.5386 115.547 14.1362 115.802 14.6899 116.136C15.2524 116.461 15.7622 116.857 16.2192 117.323C16.6851 117.78 17.0806 118.29 17.4058 118.852C17.7397 119.415 17.9946 120.017 18.1704 120.658C18.355 121.3 18.4473 121.968 18.4473 122.662C18.4473 123.699 18.2495 124.679 17.854 125.602C17.4585 126.516 16.918 127.316 16.2324 128.001C15.5469 128.687 14.7427 129.228 13.8198 129.623C12.9058 130.019 11.9302 130.216 10.8931 130.216H7.10938V134ZM24.459 118.878V126.446H28.2427C28.7612 126.446 29.249 126.349 29.7061 126.156C30.1631 125.954 30.563 125.681 30.9058 125.338C31.2485 124.996 31.5166 124.596 31.71 124.139C31.9121 123.673 32.0132 123.181 32.0132 122.662C32.0132 122.144 31.9121 121.656 31.71 121.199C31.5166 120.733 31.2485 120.329 30.9058 119.986C30.563 119.643 30.1631 119.375 29.7061 119.182C29.249 118.979 28.7612 118.878 28.2427 118.878H24.459ZM24.459 134H20.6753V115.095H28.2427C28.937 115.095 29.605 115.187 30.2466 115.372C30.8882 115.547 31.4858 115.802 32.0396 116.136C32.6021 116.461 33.1118 116.857 33.5688 117.323C34.0347 117.78 34.4302 118.29 34.7554 118.852C35.0894 119.415 35.3442 120.017 35.52 120.658C35.7046 121.3 35.7969 121.968 35.7969 122.662C35.7969 123.312 35.7134 123.945 35.5464 124.561C35.3882 125.176 35.1553 125.76 34.8477 126.314C34.5488 126.868 34.1797 127.377 33.7402 127.843C33.3008 128.309 32.8086 128.713 32.2637 129.056L34.3599 134H30.3389L28.6909 130.19L24.459 130.216V134ZM56.8115 124.626C56.8115 125.523 56.6929 126.389 56.4556 127.224C56.2271 128.05 55.9019 128.828 55.48 129.557C55.0581 130.278 54.5483 130.937 53.9507 131.535C53.353 132.132 52.6938 132.646 51.9731 133.077C51.2524 133.499 50.4746 133.824 49.6396 134.053C48.8047 134.29 47.939 134.409 47.0425 134.409C46.146 134.409 45.2803 134.29 44.4453 134.053C43.6191 133.824 42.8413 133.499 42.1118 133.077C41.3911 132.646 40.7319 132.132 40.1343 131.535C39.5366 130.937 39.0225 130.278 38.5918 129.557C38.1699 128.828 37.8403 128.05 37.603 127.224C37.3745 126.389 37.2603 125.523 37.2603 124.626C37.2603 123.73 37.3745 122.864 37.603 122.029C37.8403 121.194 38.1699 120.417 38.5918 119.696C39.0225 118.975 39.5366 118.316 40.1343 117.718C40.7319 117.121 41.3911 116.611 42.1118 116.189C42.8413 115.767 43.6191 115.442 44.4453 115.213C45.2803 114.976 46.146 114.857 47.0425 114.857C47.939 114.857 48.8047 114.976 49.6396 115.213C50.4746 115.442 51.2524 115.767 51.9731 116.189C52.6938 116.611 53.353 117.121 53.9507 117.718C54.5483 118.316 55.0581 118.975 55.48 119.696C55.9019 120.417 56.2271 121.194 56.4556 122.029C56.6929 122.864 56.8115 123.73 56.8115 124.626ZM53.0542 124.626C53.0542 123.8 52.896 123.022 52.5796 122.293C52.2632 121.555 51.8325 120.917 51.2876 120.381C50.7515 119.836 50.1143 119.406 49.376 119.089C48.6465 118.773 47.8687 118.615 47.0425 118.615C46.2075 118.615 45.4253 118.773 44.6958 119.089C43.9663 119.406 43.3291 119.836 42.7842 120.381C42.2393 120.917 41.8086 121.555 41.4922 122.293C41.1758 123.022 41.0176 123.8 41.0176 124.626C41.0176 125.453 41.1758 126.23 41.4922 126.96C41.8086 127.681 42.2393 128.313 42.7842 128.858C43.3291 129.403 43.9663 129.834 44.6958 130.15C45.4253 130.467 46.2075 130.625 47.0425 130.625C47.8687 130.625 48.6465 130.467 49.376 130.15C50.1143 129.834 50.7515 129.403 51.2876 128.858C51.8325 128.313 52.2632 127.681 52.5796 126.96C52.896 126.23 53.0542 125.453 53.0542 124.626ZM66.8179 126.446C66.8179 127.492 66.6201 128.476 66.2246 129.399C65.8291 130.313 65.2886 131.113 64.603 131.798C63.9263 132.475 63.1265 133.011 62.2036 133.407C61.2896 133.802 60.3096 134 59.2637 134C58.6309 134 57.998 133.921 57.3652 133.763V129.702C57.6465 129.869 57.9497 129.997 58.2749 130.084C58.6001 130.172 58.9297 130.216 59.2637 130.216C59.7822 130.216 60.27 130.12 60.7271 129.926C61.1929 129.724 61.5972 129.452 61.9399 129.109C62.2827 128.766 62.5508 128.366 62.7441 127.909C62.9463 127.452 63.0474 126.964 63.0474 126.446V115.095H66.8179V126.446ZM83.0732 134H70.1138V115.095H83.0732V118.878H73.8975V122.662H80.1069V126.446H73.8975V130.216H83.0732V134ZM100.37 132.062C99.4912 132.818 98.5068 133.398 97.417 133.802C96.3271 134.207 95.1978 134.409 94.0288 134.409C93.1323 134.409 92.2666 134.29 91.4316 134.053C90.6055 133.824 89.8276 133.499 89.0981 133.077C88.3774 132.646 87.7183 132.132 87.1206 131.535C86.5229 130.937 86.0088 130.278 85.5781 129.557C85.1562 128.828 84.8267 128.05 84.5894 127.224C84.3608 126.389 84.2466 125.523 84.2466 124.626C84.2466 123.73 84.3608 122.864 84.5894 122.029C84.8267 121.194 85.1562 120.417 85.5781 119.696C86.0088 118.966 86.5229 118.303 87.1206 117.705C87.7183 117.107 88.3774 116.598 89.0981 116.176C89.8276 115.745 90.6055 115.416 91.4316 115.187C92.2666 114.95 93.1323 114.831 94.0288 114.831C95.1978 114.831 96.3271 115.033 97.417 115.438C98.5068 115.833 99.4912 116.413 100.37 117.178L98.3662 120.474C97.8125 119.876 97.1577 119.419 96.4019 119.103C95.646 118.777 94.855 118.615 94.0288 118.615C93.1938 118.615 92.4116 118.773 91.6821 119.089C90.9526 119.406 90.3154 119.836 89.7705 120.381C89.2256 120.917 88.7949 121.555 88.4785 122.293C88.1621 123.022 88.0039 123.8 88.0039 124.626C88.0039 125.453 88.1621 126.23 88.4785 126.96C88.7949 127.681 89.2256 128.313 89.7705 128.858C90.3154 129.403 90.9526 129.834 91.6821 130.15C92.4116 130.467 93.1938 130.625 94.0288 130.625C94.855 130.625 95.646 130.467 96.4019 130.15C97.1577 129.825 97.8125 129.364 98.3662 128.766L100.37 132.062ZM110.508 134H106.738V118.878H101.056V115.095H116.177V118.878H110.508V134Z" fill="white"/>
</svg>
