<svg width="86" height="129" viewBox="0 0 86 129" fill="none" xmlns="http://www.w3.org/2000/svg">
<path d="M6.83 89.3799H4.76V98.9999H0V75.4199H4.76V84.8499H6.37L10.45 75.4199H16.24L10.48 86.4199L16.89 99.0199H11.22L6.83 89.3799Z" fill="white"/>
<path d="M29.9 94.1799H23.41L22.17 98.9999H17.17L24.53 75.4199H28.87L36.28 98.9999H31.17L29.9 94.1799ZM24.45 90.1799H28.84L26.65 81.7299L24.45 90.1799Z" fill="white"/>
<path d="M42.11 90.7101V99.0001H37.36V75.4201H45.36C46.3886 75.3714 47.416 75.5394 48.3756 75.9133C49.3351 76.2871 50.2054 76.8584 50.93 77.5901C51.6325 78.3459 52.1781 79.2335 52.5351 80.2017C52.8922 81.1698 53.0536 82.1991 53.01 83.2301C53.0638 84.2348 52.9085 85.2397 52.5539 86.1812C52.1993 87.1228 51.6532 87.9805 50.95 88.7001C50.1821 89.3949 49.2834 89.9297 48.3064 90.2731C47.3294 90.6165 46.2937 90.7617 45.26 90.7001L42.11 90.7101ZM42.11 86.7101H45.38C45.7749 86.7334 46.1699 86.6652 46.5341 86.5108C46.8984 86.3564 47.2221 86.1201 47.48 85.8201C48.0256 85.0716 48.2879 84.1538 48.22 83.2301C48.2713 82.2379 48.0089 81.2547 47.47 80.4201C47.2393 80.1073 46.9378 79.8535 46.5902 79.6797C46.2425 79.5059 45.8586 79.4169 45.47 79.4201H42.11V86.7101Z" fill="white"/>
<path d="M69.75 79.3899H63.92V98.9999H59.17V79.3899H53.45V75.3899H69.78L69.75 79.3899Z" fill="white"/>
<path d="M79.65 94.1799H73.17L71.9 98.9999H66.9L74.25 75.4199H78.6L86.01 98.9999H80.91L79.65 94.1799ZM74.23 90.1799H78.63L76.4 81.7299L74.23 90.1799Z" fill="white"/>
<path d="M76.17 0H22.71C21.4042 -2.68625e-06 20.1518 0.518034 19.2275 1.44043C18.3033 2.36282 17.7827 3.61422 17.78 4.92V17.18H20.37V14.6H78.52V35.94C78.52 36.5633 78.2724 37.161 77.8317 37.6017C77.391 38.0424 76.7933 38.29 76.17 38.29H72.48V40.88H76.17C77.4737 40.8645 78.7197 40.3404 79.6425 39.4195C80.5653 38.4985 81.0919 37.2536 81.11 35.95V4.95C81.1113 4.30043 80.9845 3.65698 80.7369 3.05647C80.4892 2.45597 80.1255 1.91021 79.6667 1.45043C79.2078 0.990645 78.6628 0.625873 78.0628 0.376989C77.4628 0.128106 76.8196 -1.33089e-06 76.17 0ZM78.52 7.54H20.37V4.92C20.37 4.29939 20.6166 3.70421 21.0554 3.26537C21.4942 2.82654 22.0894 2.58 22.71 2.58H76.17C76.7898 2.57998 77.3846 2.82482 77.8247 3.26121C78.2648 3.69761 78.5148 4.29021 78.52 4.91V7.54Z" fill="white"/>
<path d="M41.3649 36.0937V44.2022L45.4192 40.148L41.3649 36.0937Z" fill="white"/>
<path d="M45.2077 32.0315H40.1673L48.2844 40.1486L40.1702 48.2628H45.2112C46.2762 48.2628 47.2975 47.8396 48.0505 47.0873L54.9914 40.1486L48.047 33.207C47.2939 32.4539 46.2727 32.0315 45.2077 32.0315Z" fill="white"/>
<path fill-rule="evenodd" clip-rule="evenodd" d="M10.08 19.5601H64.75C65.4513 19.5588 66.1459 19.6956 66.7943 19.9627C67.4427 20.2299 68.0321 20.6221 68.5289 21.117C69.0257 21.612 69.4201 22.1999 69.6897 22.8473C69.9593 23.4947 70.0987 24.1888 70.1 24.8901V55.4101C70.0973 56.8272 69.5325 58.1855 68.5295 59.1866C67.5264 60.1878 66.1672 60.7501 64.75 60.7501H10.08C8.66373 60.7501 7.30548 60.1875 6.30404 59.186C5.3026 58.1846 4.73999 56.8263 4.73999 55.4101V24.8801C4.7413 24.1801 4.88047 23.4873 5.14954 22.8411C5.41861 22.195 5.81231 21.6081 6.30818 21.1141C6.80404 20.6201 7.39236 20.2286 8.03952 19.962C8.68669 19.6953 9.38004 19.5588 10.08 19.5601ZM23.2514 44.0685C23.4592 43.8625 23.5774 43.5827 23.58 43.2901L23.6 36.9801C23.6 36.6857 23.483 36.4033 23.2749 36.1952C23.0667 35.987 22.7844 35.8701 22.49 35.8701H11.11C10.8156 35.8701 10.5333 35.987 10.3251 36.1952C10.1169 36.4033 9.99999 36.6857 9.99999 36.9801V43.2901C10.0026 43.5827 10.1207 43.8625 10.3286 44.0685C10.5365 44.2745 10.8173 44.3901 11.11 44.3901H22.47C22.7627 44.3901 23.0435 44.2745 23.2514 44.0685ZM55.3835 28.0001H38.3164C36.3191 28.0001 34.7 29.6192 34.7 31.6165V48.6836C34.7 50.6809 36.3191 52.3001 38.3164 52.3001H55.3835C57.3809 52.3001 59 50.6809 59 48.6836V31.6165C59 29.6192 57.3809 28.0001 55.3835 28.0001ZM41.3649 36.0937V44.2022L45.4192 40.148L41.3649 36.0937ZM45.2077 32.0315H40.1673L48.2844 40.1486L40.1702 48.2628H45.2112C46.2762 48.2628 47.2975 47.8396 48.0505 47.0873L54.9914 40.1486L48.047 33.207C47.2939 32.4539 46.2727 32.0315 45.2077 32.0315Z" fill="white"/>
<path d="M80.7873 127.732H86.01L80.2608 104.933H72.5485L66.7589 127.732H71.9816L72.8402 123.929H79.9428L80.7873 127.732ZM73.856 119.42L75.9493 110.138H76.8801L78.9411 119.42H73.856Z" fill="white"/>
<path d="M4.87842 104.952V105.033L3.44121 117.986C3.44121 118.027 3.42096 118.087 3.42096 118.128C3.31975 119.137 3.15781 120.045 2.85418 121.376C2.48982 122.99 1.57891 123.495 0 123.495V128.337C2.99587 128.337 6.39666 128.337 7.57072 123.111C7.93508 121.457 8.15775 119.984 8.29944 118.673V118.652H8.31969L9.31156 109.593H12.4694V127.752H17.5503V104.952H4.87842Z" fill="white"/>
<path d="M26.4763 118.391H33.5814V113.952H26.4763V109.573H34.2089V104.933H21.3974V127.732H34.2089V123.092H26.4763V118.391Z" fill="white"/>
<path d="M44.1081 104.51C39.1892 104.51 36.5374 107.335 36.5374 111.915V120.611C36.5374 125.191 39.1892 128.016 44.1081 128.016C49.027 128.016 51.5374 125.191 51.5374 120.611V119.683H46.8206L46.8004 120.611C46.8004 122.568 46.0109 123.395 44.0879 123.395C42.1649 123.395 41.3147 122.568 41.3147 120.611V111.915C41.3147 109.958 42.1649 109.13 44.0879 109.13C46.0109 109.13 46.8004 109.958 46.8004 111.915V112.56H51.5374V111.915C51.5374 107.355 49.027 104.51 44.1081 104.51Z" fill="white"/>
<path d="M67.9337 104.913H53.2375V109.554H58.0553V127.713H63.1361V109.554H67.9337V104.913Z" fill="white"/>
</svg>
