<svg width="280" height="125" viewBox="0 0 280 125" fill="none" xmlns="http://www.w3.org/2000/svg">
<g clip-path="url(#clip0_148_6243)">
<path fill-rule="evenodd" clip-rule="evenodd" d="M95.8905 102.603H96.8494L102.603 88.2192H111.233L103.543 105.48L111.233 124.658H102.593L96.8494 109.315H95.8905V124.658H88.2192V88.2192H95.8905V102.603Z" fill="white"/>
<path fill-rule="evenodd" clip-rule="evenodd" d="M20.6164 101.644L17.2603 115.069H11.5068L8.15069 101.644H7.67123L7.59452 124.658H0V88.2192H10.5479L14.1151 103.562H14.6616L18.2288 88.2192H28.7671V124.658H21.0959V101.644H20.6164Z" fill="white"/>
<path fill-rule="evenodd" clip-rule="evenodd" d="M47.466 102.603L41.2331 124.658H31.644V88.2192H39.3153V110.274H39.7947L46.0276 88.2192H55.6166V124.658H47.9454V102.603H47.466Z" fill="white"/>
<path fill-rule="evenodd" clip-rule="evenodd" d="M271.888 102.603L265.655 124.658H256.027V88.2192H263.699V110.274H264.216L270.449 88.2192H280V124.658H272.329V102.603H271.888Z" fill="white"/>
<path fill-rule="evenodd" clip-rule="evenodd" d="M262.74 84.3838H273.288L275.205 78.6304H260.822L262.74 84.3838Z" fill="white"/>
<path fill-rule="evenodd" clip-rule="evenodd" d="M69.0411 88.2192H58.4932V124.658H66.1644V113.151H70C76.7123 113.151 79.5891 109.315 79.5891 100.685C79.5891 92.0549 76.7123 88.2192 69.0411 88.2192ZM68.0822 106.438H66.1644V94.9316H68.0822C70.9589 94.9316 71.9178 96.8494 71.9178 100.685C71.9178 104.521 70.9589 106.438 68.0822 106.438Z" fill="white"/>
<path fill-rule="evenodd" clip-rule="evenodd" d="M147.671 88.2192H137.123V124.658H144.794V113.151H148.63C155.342 113.151 158.219 109.315 158.219 100.685C158.219 92.0549 155.342 88.2192 147.671 88.2192ZM146.712 106.438H144.794V94.9316H146.712C149.589 94.9316 150.548 96.8494 150.548 100.685C150.548 104.521 149.589 106.438 146.712 106.438Z" fill="white"/>
<path fill-rule="evenodd" clip-rule="evenodd" d="M194.657 101.644H192.74V94.9316H204.246V88.2192H185.068V124.658H194.657C202.329 124.658 206.164 122.74 206.164 113.151C206.164 103.562 201.37 101.644 194.657 101.644ZM194.657 117.945H192.74V108.356H194.657C197.534 108.356 198.493 110.274 198.493 113.151C198.493 116.027 197.534 117.945 194.657 117.945Z" fill="white"/>
<path fill-rule="evenodd" clip-rule="evenodd" d="M253.151 88.2192V94.9316H242.603V102.603H251.233V109.315H242.603V117.945H253.151V124.658H234.932V88.2192H253.151Z" fill="white"/>
<path fill-rule="evenodd" clip-rule="evenodd" d="M175.479 88.2192H163.973C163.973 88.2192 157.634 117.945 156.301 124.658H164.931L165.89 118.904H173.562L174.52 124.658H183.151C181.808 117.792 175.479 88.2192 175.479 88.2192ZM166.849 112.192L169.486 95.8905H169.966L172.603 112.192H166.849Z" fill="white"/>
<path fill-rule="evenodd" clip-rule="evenodd" d="M225.343 88.2192H213.836C213.836 88.2192 207.497 117.945 206.165 124.658H214.795L219.349 95.8905H219.829L224.384 124.658H233.014C231.681 117.792 225.343 88.2192 225.343 88.2192Z" fill="white"/>
<path fill-rule="evenodd" clip-rule="evenodd" d="M122.26 87.7397C115.548 87.7397 110.274 90.137 110.274 106.438C110.274 122.74 115.548 125.137 122.26 125.137C128.973 125.137 134.247 122.74 134.247 106.438C134.247 90.137 128.973 87.7397 122.26 87.7397ZM122.26 117.945C119.384 117.945 118.425 116.027 118.425 106.438C118.425 96.8493 119.384 94.9315 122.26 94.9315C125.137 94.9315 126.096 96.8493 126.096 106.438C126.096 116.027 125.137 117.945 122.26 117.945Z" fill="white"/>
<path fill-rule="evenodd" clip-rule="evenodd" d="M155.343 0H124.658L111.233 9.58904V54.6575L140 74.7945L168.767 54.6575V9.58904L155.343 0ZM123.699 46.0274V33.5616L134.726 41.7123H135.685V32.1233H129.932L127.534 23.9726H135.685V19.6575H132.808L130.411 12.4658H149.589L147.192 19.6575H144.315V23.9726H152.466L150.069 32.1233H144.315V41.7123H145.274L156.301 33.5616V46.0274L140 57.5342L123.699 46.0274Z" fill="white"/>
</g>
<defs>
<clipPath id="clip0_148_6243">
<rect width="280" height="125" fill="white"/>
</clipPath>
</defs>
</svg>
