<svg width="340" height="123" viewBox="0 0 340 123" fill="none" xmlns="http://www.w3.org/2000/svg">
<g clip-path="url(#clip0_17_91)">
<path fill-rule="evenodd" clip-rule="evenodd" d="M46.337 67.2409L64.1349 78.4346L59.1422 57.9109L75.2991 44.522L54.1848 43.1288L46.3372 23.4514L38.4856 43.1288L17.3751 44.5226L33.5307 57.9109L28.538 78.4346L46.337 67.2409ZM0 84.1579V18.2605L21.7871 -0.00135912H70.8886L92.6758 18.2605V84.1579L46.338 123L0 84.1579Z" fill="white"/>
<path fill-rule="evenodd" clip-rule="evenodd" d="M164.219 8.83296H175.551V36.8965L186.342 8.83296H199.912V56.5533H188.58V29.5082L177.791 56.5533H164.219V8.83296ZM238.56 19.949V37.1696C238.56 44.2175 233.808 48.2856 226.683 48.2856H217.592V56.5533H205.579V8.83296H226.753C233.808 8.83296 238.56 12.901 238.56 19.949ZM225.122 37.2354C226.004 37.2354 226.547 36.6948 226.547 35.8144V21.3041C226.547 20.4238 226.004 19.8831 225.122 19.8831H217.592V37.2354H225.122ZM114.308 76.9515H125.165V113.622H137.108V76.9515H147.966V65.9016H114.308V76.9515ZM188.698 65.9016H200.71V83.9996H211.023V65.9016H223.035V113.622H211.023V95.0498H200.71V113.622H188.698V65.9016ZM240.713 95.0498V113.622H228.702V65.9016H240.713V83.9996H244.852L252.181 65.9016H264.936L255.641 89.1519L264.936 113.622H251.637L244.783 95.0498H240.713ZM266.679 103.047V76.4768C266.679 69.4255 271.43 65.3579 278.555 65.3579H289.141C296.267 65.3579 301.016 69.4255 301.016 76.4768V103.047C301.016 110.097 296.267 114.166 289.141 114.166H278.555C271.43 114.166 266.679 110.097 266.679 103.047ZM280.116 103.116H287.581C288.462 103.116 289.004 102.573 289.004 101.692V77.8319C289.004 76.9515 288.462 76.4076 287.581 76.4076H280.116C279.232 76.4076 278.691 76.9515 278.691 77.8319L278.691 101.692C278.691 102.572 279.232 103.116 280.116 103.116ZM306.682 65.9016H328.126C335.25 65.9016 340 69.9695 340 77.0176V81.3558C340 84.27 338.913 86.3038 336.406 87.8632L333.895 89.422L336.267 90.7773C338.847 92.2704 340 94.2354 340 97.2186V102.506C340 109.554 335.25 113.622 328.126 113.622H306.682V65.9016ZM326.565 84.6789C327.447 84.6789 327.991 84.1347 327.991 83.2545V78.2376C327.991 77.3572 327.447 76.8165 326.565 76.8165H318.694V84.6789H326.565ZM326.565 102.708C327.447 102.708 327.991 102.166 327.991 101.286V95.725C327.991 94.8455 327.447 94.3039 326.565 94.3039H318.694V102.708H326.565ZM160.717 105.354L159.654 113.622H147.1L153.683 65.9016H178.231L184.812 113.622H172.328C171.973 110.866 171.618 108.11 171.264 105.354H160.717ZM169.799 94.3039L167.509 76.9515H164.405L162.152 94.3039H169.799ZM125.641 56.5533H114.308V8.83296H128.693L136.429 33.0988L144.167 8.83296H158.552V56.5533H147.22V30.1847L140.501 50.1814H132.36L125.641 30.1847V56.5533Z" fill="white"/>
</g>
<defs>
<clipPath id="clip0_17_91">
<rect width="340" height="123" fill="white"/>
</clipPath>
</defs>
</svg>
