<svg width="76" height="111" viewBox="0 0 76 111" fill="none" xmlns="http://www.w3.org/2000/svg">
<path d="M7.42 104.39H20.42V110.45H0V74.04H7.39L7.42 104.39Z" fill="white"/>
<path d="M46.91 106.37C45.4585 107.92 43.6638 109.109 41.67 109.84C39.4919 110.634 37.1881 111.027 34.87 111C30.67 111 27.4034 109.703 25.07 107.11C22.75 104.51 21.53 100.74 21.53 95.78V89.21C21.53 84.19 22.6167 80.3134 24.79 77.58C26.9634 74.8467 30.1734 73.5134 34.42 73.58C38.42 73.58 41.42 74.58 43.42 76.51C45.42 78.44 46.61 81.51 46.93 85.7H39.72C39.52 83.39 39.03 81.8 38.26 80.97C37.7841 80.512 37.2158 80.1609 36.5933 79.9401C35.9707 79.7194 35.3082 79.6341 34.65 79.69C33.7974 79.6232 32.9426 79.7887 32.1766 80.1691C31.4106 80.5494 30.7621 81.1303 30.3 81.85C29.3934 83.3033 28.9234 85.6167 28.89 88.79V95.39C28.89 98.7233 29.39 101.14 30.39 102.64C30.9357 103.415 31.6758 104.033 32.5359 104.432C33.396 104.83 34.3459 104.995 35.29 104.91C36.5329 104.972 37.7669 104.67 38.84 104.04L39.53 103.58V96.88H34.32V91.32H46.91V106.37Z" fill="white"/>
<path d="M75.92 98.3499C75.7333 102.51 74.56 105.66 72.4 107.8C70.24 109.94 67.2 111.007 63.28 111C59.1466 111 55.98 109.667 53.78 107C51.58 104.333 50.4766 100.447 50.47 95.3399V89.1899C50.47 84.1832 51.61 80.3199 53.89 77.5999C55.0633 76.2552 56.528 75.1959 58.1725 74.5027C59.8171 73.8096 61.5981 73.5008 63.38 73.5999C67.38 73.5999 70.42 74.7132 72.5 76.9399C74.58 79.1666 75.7466 82.3432 76 86.4699H68.53C68.47 83.9099 68.07 82.1299 67.34 81.1499C66.61 80.1699 65.34 79.6799 63.28 79.6799C62.4656 79.5998 61.6449 79.7438 60.9064 80.0963C60.1679 80.4488 59.5398 80.9964 59.09 81.6799C58.27 83.0599 57.8333 85.3266 57.78 88.4799V95.3699C57.78 98.9899 58.19 101.43 59 102.84C59.4474 103.523 60.0736 104.071 60.8106 104.424C61.5475 104.776 62.367 104.92 63.18 104.84C65.18 104.84 66.46 104.37 67.18 103.42C67.9 102.47 68.34 100.78 68.44 98.2999L75.92 98.3499Z" fill="white"/>
<path fill-rule="evenodd" clip-rule="evenodd" d="M15.5248 0H60.4752C65.7356 0 70 4.2644 70 9.5248V54.4752C70 59.7356 65.7356 64 60.4752 64H15.5248C10.2644 64 6 59.7356 6 54.4752V9.5248C6 4.2644 10.2644 0 15.5248 0ZM23.5537 42.6725V21.3169L34.2315 31.9947L23.5537 42.6725ZM20.3993 10.6175H33.6744C36.4794 10.6175 39.169 11.73 41.1524 13.7134L59.4423 31.9957L41.1617 50.2706C39.1786 52.252 36.4887 53.3666 33.6838 53.3666H20.4069L41.7777 31.9957L20.3993 10.6175Z" fill="white"/>
</svg>
