<svg width="173" height="116" viewBox="0 0 173 116" fill="none" xmlns="http://www.w3.org/2000/svg">
<path d="M20.39 83.5095H14.52V59.3295H5.9V83.5095H0V54.4395H20.39V83.5095Z" fill="white"/>
<path d="M31.0001 73.2901V83.5101H25.1201V54.4401H35.0001C36.2698 54.3793 37.5382 54.5856 38.7233 55.0455C39.9083 55.5054 40.9838 56.2087 41.8801 57.1101C42.7519 58.0477 43.4281 59.1497 43.8694 60.3515C44.3106 61.5534 44.508 62.8311 44.4501 64.1101C44.5151 65.3495 44.3229 66.589 43.8858 67.7506C43.4487 68.9123 42.776 69.9709 41.9101 70.8601C40.9656 71.7162 39.8604 72.3763 38.6588 72.802C37.4572 73.2277 36.183 73.4106 34.9101 73.3401L31.0001 73.2901ZM31.0001 68.3901H35.0001C35.488 68.419 35.9759 68.3358 36.4266 68.1468C36.8773 67.9579 37.2787 67.6682 37.6001 67.3001C38.2709 66.3735 38.5964 65.2414 38.5201 64.1001C38.5808 62.8763 38.2517 61.6649 37.5801 60.6401C37.301 60.2306 36.9247 59.8966 36.485 59.668C36.0452 59.4394 35.5557 59.3233 35.0601 59.3301H31.0001V68.3901Z" fill="white"/>
<path d="M63.3899 70.9295H54.2499V78.6395H65.0699V83.5095H48.3799V54.4395H64.9999V59.3295H54.2499V66.1994H63.3899V70.9295Z" fill="white"/>
<path d="M76.1104 54.4395L81.6004 75.4395L87.0704 54.4395H94.7304V83.5095H88.8404V75.6395L89.3804 63.5195L83.5704 83.5195H79.5704L73.7604 63.5195L74.3004 75.6395V83.5095H68.4404V54.4395H76.1104Z" fill="white"/>
<path d="M113.68 54.4395H119.55V83.5095H113.68V64.2595L105.11 83.5095H99.2305V54.4395H105.11V73.7095L113.68 54.4395Z" fill="white"/>
<path d="M133.4 67.3595L137.31 54.4395H143.62L135.62 77.7995C135.044 79.603 134.038 81.2398 132.69 82.5695C131.65 83.4287 130.349 83.9083 129 83.9295H128.36L126.96 83.8495L126.86 78.9794C127.289 79.0545 127.725 79.0813 128.16 79.0594C128.766 79.1025 129.366 78.9249 129.85 78.5594C130.383 77.9187 130.729 77.1438 130.85 76.3195L131.13 75.2595L122.82 54.4395H129.11L133.4 67.3595Z" fill="white"/>
<path d="M154.4 54.4395L159.89 75.4395L165.36 54.4395H173V83.5095H167.11V75.6395L167.65 63.5195L161.84 83.5195H157.84L152.03 63.5195L152.57 75.6395V83.5095H146.7V54.4395H154.4Z" fill="white"/>
<path d="M12.4903 85.54L17.9803 106.54L23.4503 85.54H31.1103V114.62H25.2203V106.75L25.7603 94.63L19.9503 114.63H16.0003L10.1903 94.63L10.7303 106.75V114.62H4.82031V85.54H12.4903Z" fill="white"/>
<path d="M50.0598 108.67H42.0598L40.4998 114.67H34.2998L43.3798 85.5898H48.7498L57.8898 114.67H51.6098L50.0598 108.67ZM43.3298 103.78H48.7598L45.9998 93.4099L43.3298 103.78Z" fill="white"/>
<path d="M77.0002 90.44H66.5302V114.62H60.6602V85.54H77.0002V90.44Z" fill="white"/>
<path d="M90.3598 108.67H82.3598L80.7999 114.67H74.5898L83.6798 85.5898H88.9998L98.1498 114.67H91.9198L90.3598 108.67ZM83.6398 103.78H89.0598L86.3498 93.4099L83.6398 103.78Z" fill="white"/>
<path d="M112.54 93.5506C112.583 92.6176 112.265 91.7039 111.65 91.0006C111.346 90.6701 110.974 90.4095 110.56 90.2368C110.146 90.0641 109.699 89.9835 109.25 90.0006C108.839 89.9873 108.431 90.0636 108.053 90.2242C107.674 90.3848 107.336 90.6259 107.06 90.9306C106.47 91.6103 106.166 92.4916 106.21 93.3906H100.34C100.315 91.8754 100.721 90.3842 101.51 89.0906C102.29 87.8302 103.41 86.8148 104.74 86.1606C106.547 85.3167 108.549 84.9798 110.532 85.1859C112.515 85.392 114.405 86.1333 116 87.3306C116.826 88.1079 117.472 89.057 117.892 90.1109C118.312 91.1648 118.496 92.298 118.43 93.4306C118.444 94.7167 118.098 95.9811 117.43 97.0806C116.759 98.1783 115.806 99.0761 114.67 99.6806C115.935 100.188 117.009 101.08 117.74 102.23C118.659 103.905 119.005 105.834 118.727 107.724C118.449 109.613 117.562 111.361 116.2 112.7C114.253 114.303 111.779 115.123 109.26 115C107.618 115.032 105.99 114.69 104.5 114C103.136 113.371 101.983 112.36 101.18 111.09C100.362 109.727 99.9494 108.159 99.99 106.57H105.88C105.862 107.511 106.197 108.424 106.82 109.13C107.124 109.475 107.501 109.748 107.922 109.931C108.344 110.114 108.801 110.203 109.26 110.19C109.755 110.211 110.248 110.127 110.708 109.945C111.168 109.762 111.585 109.485 111.93 109.13C112.613 108.385 112.972 107.4 112.93 106.39C113.033 105.246 112.728 104.102 112.07 103.16C111.755 102.82 111.368 102.554 110.937 102.381C110.507 102.208 110.043 102.132 109.58 102.16H106.58V97.4306H109.58C111.56 97.4106 112.547 96.1172 112.54 93.5506Z" fill="white"/>
<path d="M137.28 85.54H143.14V114.62H137.28V95.37L128.71 114.62H122.82V85.54H128.71V104.82L137.28 85.54Z" fill="white"/>
<path d="M168.2 114.62H162.35V102.18H153.68V114.62H147.82V85.54H153.68V97.31H162.35V85.54H168.2V114.62Z" fill="white"/>
<path d="M107.203 9.42433H94.5716V6.43533C94.5716 2.891 91.0022 0 86.6015 0C82.2009 0 78.6152 2.891 78.6152 6.43533V9.42433H66V49H107.203V9.42433ZM96.0873 13.5077C96.091 13.964 95.9708 14.4127 95.7395 14.8057C95.5082 15.1988 95.1746 15.5214 94.7743 15.739C94.3741 15.9566 93.9223 16.061 93.4674 16.041C93.0125 16.021 92.5716 15.8773 92.1919 15.6255C91.8123 15.3736 91.5081 15.023 91.312 14.6111C91.116 14.1993 91.0354 13.7417 91.0789 13.2875C91.1225 12.8333 91.2885 12.3995 91.5592 12.0326C91.8299 11.6657 92.1951 11.3795 92.6157 11.2047V13.622C92.6157 13.8819 92.7188 14.1312 92.9022 14.315C93.0855 14.4988 93.3343 14.602 93.5936 14.602C93.853 14.602 94.1017 14.4988 94.2851 14.315C94.4685 14.1312 94.5716 13.8819 94.5716 13.622V11.2047C95.0206 11.3988 95.4033 11.7202 95.6726 12.1293C95.9419 12.5385 96.0861 13.0175 96.0873 13.5077ZM86.6015 1.94367C89.8613 1.94367 92.6157 3.95267 92.6157 6.43533V9.42433H80.571V6.43533C80.571 3.95267 83.2766 1.94367 86.6015 1.94367ZM77.0994 13.5077C77.0975 13.0189 77.2406 12.5406 77.5105 12.1335C77.7804 11.7263 78.1649 11.4087 78.6152 11.221V13.622C78.6152 13.8819 78.7182 14.1312 78.9016 14.315C79.085 14.4988 79.3337 14.602 79.5931 14.602C79.8525 14.602 80.1012 14.4988 80.2846 14.315C80.468 14.1312 80.571 13.8819 80.571 13.622V11.2047C80.9841 11.378 81.343 11.6595 81.61 12.0198C81.8771 12.38 82.0423 12.8057 82.0885 13.2521C82.1347 13.6985 82.0601 14.1491 81.8725 14.5566C81.685 14.9641 81.3914 15.3135 81.0225 15.568C80.6537 15.8225 80.2233 15.9729 79.7765 16.0032C79.3297 16.0335 78.883 15.9426 78.4833 15.7402C78.0837 15.5378 77.7458 15.2312 77.5051 14.8528C77.2645 14.4743 77.1299 14.0379 77.1157 13.5893L77.0994 13.5077Z" fill="white"/>
<path d="M98.6062 19.5439H74.5986V43.5514H98.6062V19.5439Z" fill="#1C1C1C"/>
<path d="M81.2348 27.4663V35.6241L85.1863 31.5456L81.2348 27.4663Z" fill="white"/>
<path d="M84.9541 23.4502H80L87.9783 31.5466L80.0028 39.6402H84.9576C86.004 39.6402 87.008 39.218 87.7484 38.4675L94.571 31.5466L87.7449 24.623C87.0045 23.8724 86.0011 23.4502 84.9541 23.4502Z" fill="white"/>
</svg>
