<svg width="114" height="121" viewBox="0 0 114 121" fill="none" xmlns="http://www.w3.org/2000/svg">
<g clip-path="url(#clip0_74_62)">
<path d="M20.43 69.9102H14.52V94.2102H5.89V69.9102H0V99.1102H18.12V104.01H23.69L24.01 94.2302H20.43V69.9102Z" fill="white"/>
<path d="M44.3406 94.2102H33.4806V86.4702H42.6606V81.7202H33.4806V74.8202H44.3006V69.9102H27.6006V99.1102H44.3406V94.2102Z" fill="white"/>
<path d="M68.1707 99.1102V69.9102H62.3007V81.7202H53.6107V69.9102H47.7207V99.1102H53.6107V86.6102H62.3007V99.1102H68.1707Z" fill="white"/>
<path d="M70.9902 74.8202H78.0802V99.1102H83.9902V74.8202H91.2002V69.9102H70.9902V74.8202Z" fill="white"/>
<path d="M113.99 79.5699C114.045 78.2912 113.846 77.0144 113.405 75.813C112.964 74.6116 112.289 73.5094 111.42 72.5699C110.517 71.6623 109.434 70.9547 108.24 70.493C107.046 70.0313 105.769 69.8258 104.49 69.8899H94.5801V99.1099H100.49V88.8899H104.42C105.693 88.9574 106.968 88.7721 108.169 88.3447C109.37 87.9174 110.475 87.2564 111.42 86.3999C112.298 85.5014 112.98 84.4304 113.422 83.2547C113.865 82.079 114.058 80.8242 113.99 79.5699ZM107.12 82.8199C106.795 83.1898 106.388 83.479 105.931 83.6647C105.475 83.8504 104.981 83.9275 104.49 83.8899H100.49V74.7899H104.6C105.096 74.7831 105.585 74.8991 106.025 75.1277C106.465 75.3563 106.841 75.6903 107.12 76.0999C107.797 77.1297 108.126 78.3492 108.06 79.5799C108.142 80.7373 107.809 81.8859 107.12 82.8199Z" fill="white"/>
<path d="M0 118.65H1.93V110.7H4.76V118.65H6.69V109.09H0V118.65Z" fill="white"/>
<path d="M16.4198 108.95C15.941 108.927 15.4633 109.015 15.0243 109.207C14.5853 109.4 14.197 109.692 13.8898 110.06C13.2335 110.947 12.9112 112.038 12.9798 113.14V114.77C12.9102 115.85 13.2413 116.918 13.9098 117.77C14.2243 118.126 14.6152 118.406 15.0534 118.59C15.4915 118.773 15.9655 118.855 16.4398 118.83C16.9133 118.853 17.3858 118.768 17.8221 118.583C18.2585 118.398 18.6474 118.116 18.9598 117.76C19.611 116.901 19.9305 115.836 19.8598 114.76V113.09C19.9166 112.011 19.5869 110.947 18.9298 110.09C18.6262 109.721 18.2422 109.426 17.8071 109.229C17.372 109.031 16.8975 108.936 16.4198 108.95ZM17.9298 114.78C17.9698 115.405 17.8421 116.03 17.5598 116.59C17.4421 116.778 17.2761 116.931 17.0791 117.033C16.8821 117.135 16.6613 117.182 16.4398 117.17C16.2103 117.184 15.9811 117.136 15.7768 117.03C15.5725 116.925 15.4007 116.766 15.2798 116.57C14.9922 116.001 14.8644 115.365 14.9098 114.73V113.03C14.8734 112.391 15.0044 111.753 15.2898 111.18C15.4121 110.99 15.5801 110.834 15.7784 110.726C15.9767 110.618 16.1989 110.561 16.4248 110.561C16.6507 110.561 16.8729 110.618 17.0712 110.726C17.2695 110.834 17.4375 110.99 17.5598 111.18C17.8459 111.778 17.9733 112.439 17.9298 113.1V114.78Z" fill="white"/>
<path d="M32.7603 109.08H27.2704L27.0004 113.54C26.9628 114.303 26.8489 115.06 26.6604 115.8C26.5593 116.267 26.3308 116.696 26.0004 117.04H25.3604L25.5004 120.99H27.3204V118.65H31.8404V121H33.6104L33.7803 117H32.7803L32.7603 109.08ZM30.8404 117.08H28.0704C28.6165 115.917 28.9161 114.654 28.9504 113.37L29.1104 110.73H30.8404V117.08Z" fill="white"/>
<path d="M46.6002 109.08H41.1102L40.8402 113.54C40.8026 114.303 40.6887 115.06 40.5002 115.8C40.3991 116.267 40.1706 116.696 39.8402 117.04H39.2002L39.3102 120.99H41.1302V118.65H45.6502V121H47.4202L47.5902 117H46.5902L46.6002 109.08ZM44.6802 117.08H41.9102C42.4563 115.917 42.756 114.654 42.7902 113.37L42.9502 110.73H44.6802V117.08Z" fill="white"/>
<path d="M55.4105 114.51H58.4105V112.96H55.4105V110.7H58.9505V109.09H53.4805V118.65H58.9605V117.05H55.4105V114.51Z" fill="white"/>
<path d="M68.2197 109.08H64.9697V118.65H66.8997V115.28H68.1797C68.5993 115.306 69.0197 115.247 69.4163 115.108C69.813 114.969 70.1779 114.752 70.4897 114.47C70.7751 114.178 70.9963 113.83 71.1392 113.448C71.2821 113.066 71.3436 112.658 71.3197 112.25C71.3382 111.833 71.2734 111.417 71.1292 111.026C70.985 110.634 70.7642 110.275 70.4797 109.97C70.1859 109.673 69.833 109.44 69.4438 109.286C69.0546 109.133 68.6377 109.063 68.2197 109.08ZM69.0797 113.31C68.9733 113.432 68.8408 113.529 68.6919 113.593C68.543 113.657 68.3817 113.687 68.2197 113.68H66.8997V110.68H68.2397C68.4026 110.679 68.5634 110.717 68.7081 110.792C68.8527 110.867 68.9769 110.976 69.0697 111.11C69.2855 111.45 69.3935 111.848 69.3797 112.25C69.4083 112.628 69.302 113.004 69.0797 113.31Z" fill="white"/>
<path d="M88.0599 109.09H85.6599L84.1599 112.93H83.3999V109.09H81.4699V112.93H80.6899L79.1299 109.09H76.7299L79.0299 113.41L76.6299 118.65H79.0299L80.5299 114.77H81.4699V118.65H83.3999V114.77H84.3099L85.7599 118.65H88.1599L85.8099 113.39L88.0599 109.09Z" fill="white"/>
<path d="M100.54 109.09H98.1902L96.5302 112.91H95.8802V109.09H93.9502V118.65H95.8802V114.75H96.7202L98.5002 118.65H100.8L98.2002 113.54L100.54 109.09Z" fill="white"/>
<path d="M108.28 115.42V109.09H106.34V118.65H108.28L111.09 112.32V118.65H113.02V109.09H111.09L108.28 115.42Z" fill="white"/>
<path d="M74.3622 54.0954C74.6122 54.3723 74.9152 54.5951 75.253 54.7502C75.5908 54.9053 75.9563 54.9894 76.3274 54.9976C76.6984 55.0058 77.0672 54.9379 77.4114 54.7978C77.7556 54.6578 78.068 54.4486 78.3297 54.183L82.1464 50.333C82.4094 50.0687 82.6165 49.7532 82.755 49.4057C82.8936 49.0582 82.9607 48.686 82.9524 48.3115C82.944 47.937 82.8604 47.5681 82.7066 47.2272C82.5527 46.8864 82.3318 46.5806 82.0573 46.3285L65.1651 30.5942L58.7734 37.0455L74.3622 54.0954Z" fill="white"/>
<path d="M53.3012 0.00163813C48.8544 -0.0490507 44.7387 1.07302 41.3237 3.86782C37.2604 7.19255 32.485 10.1095 31.8686 16.2244C31.7385 17.5008 30.992 17.7635 29.8598 16.9894C28.9125 16.3442 28.0108 16.6967 27.3602 17.5792C26.7096 18.4616 27.0132 19.2565 27.6912 19.9523C29.0882 21.3854 30.5035 22.7978 31.9097 24.2217C32.6653 24.989 33.5281 25.3046 34.4709 24.6411C35.384 24.0052 35.6899 23.0697 35.0142 22.1319C34.1308 20.9039 34.9571 20.4039 35.7903 19.8763C36.9066 19.1735 38.1233 18.7865 39.4313 19.1413C40.1869 19.3464 40.826 19.3717 41.4173 18.7865L42.1021 18.1229L50.1373 27.5902L51.2924 26.4267L54.5042 23.1849L55.8076 21.8693L46.5398 13.8628C47.3433 12.4043 46.5397 10.7431 46.2703 9.34222C46.0238 8.00357 46.469 6.80779 47.2565 5.7272C48.843 3.55218 51.0253 2.32183 53.5592 1.64445C53.7379 1.60127 53.9194 1.57121 54.1024 1.55456C55.0338 1.44166 54.9653 0.0431401 54.0271 0.0316199L53.3012 0.00163813Z" fill="white"/>
<path d="M86.1127 12.8002C86.1572 12.1981 86.1572 11.5936 86.1127 10.9916C86.095 10.7697 86.0159 10.5572 85.8845 10.3784C85.7531 10.1996 85.5745 10.0617 85.3692 9.98033C85.1639 9.89894 84.9402 9.87732 84.7233 9.91801C84.5065 9.9587 84.3053 10.06 84.1427 10.2105L79.349 14.6365C78.8032 15.1429 78.1461 15.5113 77.4318 15.7116C76.7175 15.9118 75.9664 15.9382 75.24 15.7885L73.0372 15.3277C72.5462 15.2239 72.0958 14.9779 71.7411 14.6199C71.3864 14.2619 71.1427 13.8073 71.0398 13.3117L70.5832 11.0883C70.4349 10.3552 70.461 9.59702 70.6595 8.87607C70.8579 8.15512 71.2229 7.49193 71.7246 6.94104L76.1098 2.10256C76.2596 1.93821 76.3606 1.73455 76.4011 1.51496C76.4416 1.29537 76.42 1.0687 76.3387 0.860931C76.2575 0.653162 76.1199 0.472701 75.9417 0.340216C75.7636 0.207732 75.552 0.128628 75.3313 0.111894C74.9958 0.0865494 74.6465 0.0749977 74.3132 0.0796058C71.113 0.131231 68.0581 1.43718 65.7947 3.72129C63.5313 6.0054 62.2368 9.08858 62.1851 12.3187C62.1699 13.5501 62.3431 14.7764 62.6987 15.9544C62.8717 16.5417 62.8778 17.1663 62.7164 17.7569C62.5549 18.3476 62.2325 18.8806 61.7856 19.2953L32.9181 46.4461C32.463 46.874 32.1218 47.4106 31.926 48.0065C31.7301 48.6024 31.6859 49.2384 31.7973 49.8561C32.0284 51.1403 32.6484 52.3206 33.572 53.2343C34.4956 54.1479 35.6772 54.7498 36.954 54.9572C37.5482 55.0491 38.1557 54.9921 38.723 54.7912C39.2902 54.5903 39.7998 54.2516 40.2069 53.8051L67.1066 24.6683C67.5271 24.2167 68.0648 23.8932 68.6584 23.7348C69.252 23.5763 69.8778 23.5893 70.4645 23.772C71.8959 24.2046 73.3952 24.361 74.8839 24.2329C77.7942 23.9791 80.5206 22.6904 82.5771 20.5965C84.6336 18.5027 85.8866 15.7397 86.1127 12.8002Z" fill="white"/>
</g>
<defs>
<clipPath id="clip0_74_62">
<rect width="114" height="121" fill="white"/>
</clipPath>
</defs>
</svg>
