<svg baseProfile="tiny" xmlns="http://www.w3.org/2000/svg" preserveAspectRatio="xMinYMin meet" xmlns:xlink="http://www.w3.org/1999/xlink" viewBox="0 0 100 2730" width="100" height="2730"><path fill="#CF181A" d="M18.9 15L10.4.4C10.1.1 9-.1 8.8.1L.1 15c-.3.3.5 1.6.6 1.9l.1.1H18l.1-.1c.3-.3 1.1-1.6.8-1.9zM17 16H2.2l-.2-.2c-.3-.3 0-2.1.2-2.3L9 2c.3-.3.7-.3 1 0l7 11.6c.2.1.2 2.1 0 2.4z"/><path fill="#CF181A" d="M8.7 6v6h1.7V6H8.1h.6zm0 7h1.7v2H8.7z"/><g transform="translate(0 30)"><g fill="#FFF"><path d="M.9 4.9c-.5 0-.9.4-.9.9v3.9c0 .5.4.9.9.9s.9-.4.9-.9V5.8c.1-.5-.4-.9-.9-.9zm1.4 6.3c0 .5.4.8.8.8H4v2.1c0 .5.4.9.9.9s.9-.4.9-.9V12H7v2.1c.1.5.5.9 1 .9.6 0 1-.4 1-.9V12h.9c.5 0 .8-.4.8-.8V5H2.3v6.2zm6.3-9.9L9.3.2V0h-.2l-.8 1.2C7.8 1 7.2.8 6.5.8s-1.3.2-1.8.4L3.9.1c0-.1-.1-.1-.2-.1s-.1.1 0 .2l.7 1.1c-1.3.6-2.1 1.8-2.1 3.1v.2h8.4v-.2c0-1.3-.8-2.5-2.1-3.1zM4.5 3.2c-.2 0-.4-.2-.4-.4s.2-.4.4-.4.4.2.4.4-.1.4-.4.4zm4 0c-.2 0-.4-.2-.4-.4s.2-.4.4-.4.4.2.4.4c0 .3-.2.4-.4.4zm3.6 1.7c-.5 0-.9.4-.9.9v3.9c0 .5.4.9.9.9s.9-.4.9-.9V5.8c0-.5-.4-.9-.9-.9z"/></g></g><g transform="translate(0 60)"><path fill="#FFF" d="M8.9 0h-.4C7.1.6 6 1.4 5.9 3.3c1.9.3 3-1.3 3-3.3zM3.4 15h.8c1.1-.8 3-.7 4.2 0H9c1.1-.5 3-2.8 3-4-2.4-.5-2.6-5-.4-5.8-.6-1-1.5-1.6-2.8-1.6h-.3c-.9.1-1.7.7-2.5.7s-1.5-.7-2.3-.7C-2.2 3.4-.1 13 3.4 15zm0 0"/></g><g transform="translate(0 90)"><g opacity=".75" fill="#B5B5B5"><path d="M8.376 7.973L7.107 6.705a1 1 0 1 0-1.414 1.414L7.045 9.47l-1.929 3.643a1 1 0 0 0 .14 1.136l4.784 5.341a1 1 0 0 1 .243.511l.854 5.414a1 1 0 0 0 .281.55l1.039 1.04 13.637-13.638-1.038-1.039a1 1 0 0 0-.552-.28l-5.413-.855a1 1 0 0 1-.511-.243l-5.355-4.796a1 1 0 0 0-1.114-.15l-3.735 1.87zm16.446 9.707a1 1 0 0 1 .833 1.143 9 9 0 0 1-7.286 7.455 1 1 0 1 1-.357-1.968 7 7 0 0 0 5.667-5.798 1 1 0 0 1 1.143-.832z"/></g></g><g transform="translate(0 140)"><path d="M18.9 15L10.4.4C10.1.1 9-.1 8.8.1L.1 15c-.3.3.5 1.6.6 1.9l.1.1H18l.1-.1c.3-.3 1.1-1.6.8-1.9zM17 16H2.2l-.2-.2c-.3-.3 0-2.1.2-2.3L9 2c.3-.3.7-.3 1 0l7 11.6c.2.1.2 2.1 0 2.4z"/><path d="M8.7 6v6h1.7V6H8.1h.6zm0 7h1.7v2H8.7z"/></g><g transform="translate(0 170)"><path fill="#A7A6A7" d="M13.9 1.1C7 1.1 1.4 6.7 1.4 13.6S7 26.1 13.9 26.1s12.5-5.6 12.5-12.5S20.7 1.1 13.9 1.1zm0 23.7c-6.2 0-11.3-5.1-11.3-11.3S7.7 2.4 13.9 2.4s11.3 5.1 11.3 11.3S20 24.8 13.9 24.8z"/></g><g transform="translate(0 210)"><path fill="#FFF" d="M7.1 5.8c-2.1 0-4-.7-4.6-1.8.8.7 2.1 1.1 3.6 1.1 2.4 0 4.4-1.1 4.4-2.5S8.4 0 6.1 0 1.6 1.1 1.6 2.5c0 .4.2.9.6 1.3v1.9C2.7 7 4.8 7.9 7.1 7.9c.8 0 1.4-.1 2.1-.2-.9.9-2.5 1.4-4.3 1.4-2.4 0-4.4-1-4.9-2.2v1.9C.4 10.1 2.5 11 4.9 11c2.5 0 4.5-1 5-2.2V7.5c1.1-.4 1.9-1 2.2-1.8V3.6c-.5 1.2-2.6 2.2-5 2.2z"/></g><g transform="translate(0 240)"><path fill="#FFF" d="M18 17.2c0-.1 0-.3-.1-.5l-.3-.6c-.7-1.7-2-2.2-3-2.4-.9-.2-2.1-.7-2.4-1v-1.2c.5-.7.9-1.4 1-1.9.4 0 .8-.5.9-1.6.2-.6.2-1.3-.1-2 .3-3.6-1.7-5.3-3.1-5.8C10.4 0 10 0 9.5 0h-1C8 0 7.6 0 7.1.2 5.8.7 3.7 2.4 4 6c-.3.7-.3 1.4-.1 2 .2 1 .5 1.5.9 1.7.2.5.5 1.2 1 1.9v1.2c-.3.3-1.5.9-2.4 1-1.1.2-2.3.6-3 2.4l-.3.6c-.1.1-.1.3-.1.4 0 .2 0 .4.1.5 0 .1.1.1.1.2C1.1 19.1 5.4 20 9 20c3.6 0 7.9-.9 8.7-2.1 0-.1.1-.1.1-.2.2-.1.2-.3.2-.5zm-9 1.3c-3.1 0-6.1-.8-6.8-1.6-.1-.1-.1-.2 0-.3.7-1.7 1.4-1.7 2.1-1.9.6-.1 1.6-.5 2.2-.9.3-.2.5-.3.6-.5v-.7c.1.1.3.2.5.3 0 0 .1 0 .1.1.1.1.2.1.4.2h.1c.3.1.5.1.8.1h.4c.3 0 .5-.1.8-.1h.1c.1 0 .3-.1.4-.2 0 0 .1 0 .1-.1.2-.1.3-.2.5-.3v.7c.1.2.3.3.6.5.6.4 1.6.8 2.2.9.7.2 1.4.2 2.1 1.9v.3c-1.1.7-4.1 1.6-7.2 1.6zM5.2 6.8h.2c-.7-3.9 2.2-5.1 2.2-5.1.3-.2.7-.2 1-.2h.6c.3 0 .7 0 1 .2 0 0 2.9 1.2 2.2 5.1h.2c.2 0 .3.2 0 1 0 .9-.2 1.2-.4 1.2l-.1-.1h-.2s0 1-1 2.2c-.3.4-.8 1-1.5 1.1-.1 0-.3.1-.4.1-.1 0-.3 0-.4-.1-.7-.2-1.2-.7-1.5-1.1-1-1.2-1-2.2-1-2.2h-.2l-.1.1c-.2 0-.4-.3-.6-1.1-.3-.9-.1-1.1 0-1.1z"/></g><g transform="translate(0 270)"><path fill="#FFF" d="M18 17.2c0-.1 0-.3-.1-.5-.9-2.2-2.2-2.7-3.3-2.9-.6-.1-1.5-.4-2.1-.7-.2-.1-.4-.2-.5-.3v-1.3c.1-.1.1-.2.2-.3.5-.6.6-1.2.8-1.6.4 0 .8-.5 1-1.6.2-.7.3-1.4-.2-2.1.3-3.5-1.6-5.2-3-5.8 0 0-.1 0-.1-.1h-2c-.6 0-.9 0-1.4.2 0 0-.1 0-.1.1-1.4.5-3.3 2.2-3 5.7-.5.7-.3 1.4-.2 2 .2 1 .5 1.5.9 1.7.1.4.3 1 .8 1.6.1.1.1.2.2.3v1.3c-.1.1-.3.2-.5.3-.6.2-1.4.5-2.1.7-1 .2-2.4.7-3.3 2.9v.4c0 .2 0 .4.1.5 0 .1.1.1.1.2C1.1 19.1 5.4 20 9 20c3.6 0 7.9-.9 8.7-2.1 0-.1.1-.1.1-.2.2-.1.2-.3.2-.5z"/></g><g transform="translate(0 300)"><g fill="#FFF"><path d="M14.1 15.8c-.8-.2-2-.7-2.3-.9v-1.4c.5-.7.8-1.4.8-1.9-.2-.2-.5-.5-.8-.9h-.2s0 1-1 2.2c-.3.5-1 1.2-1.8 1.2-.7 0-1.3-.3-2-1-1-1.2-1-2.2-1-2.2-.2 0-.5 0-.7-1.2-.3-.9-.2-1 0-1h.2c-.7-4 2.2-5.2 2.2-5.2.3-.2.7-.2 1-.2h.6c.3 0 .7 0 1 .2 0 0 .2 0 .3.2 0-.5.3-.9.5-1.4-.2-.2-.3-.2-.5-.3-.4-.1-.9-.1-1.4-.1h-.6c-.5 0-.8 0-1.3.2-1.5.5-3.5 2.2-3.1 5.8-.4.7-.4 1.4-.2 2.1.2 1 .5 1.5.8 1.7.2.5.5 1.2 1 1.9v1.2c-.3.3-1.5.9-2.3 1-1.2.2-2.5.7-3.2 2.9-.2.3-.2.9.2 1.2.8 1.2 5.2 2.1 8.5 2.1 3.5 0 7.7-.9 8.5-2.1.2-.3.3-.7.2-1.2-.8-2.2-2.2-2.7-3.4-2.9zm-5.3 4.7c-3.7 0-7.2-1.2-6.9-2.1.7-1.7 1.5-1.7 2.2-1.9.7 0 2.5-.7 2.7-1.2v-.7c.7.5 1.3.7 2 .7H9c.7 0 1.3-.3 1.8-.7v.7c.2.5 1.8 1.2 2.7 1.4.7.2 1.3.2 2 1.9.3.8-3.2 1.9-6.7 1.9z"/><path d="M17.2 0c-3.2 0-5.8 2.8-5.8 6s2.7 6 5.8 6S23 9.5 23 6c0-3.2-2.7-6-5.8-6zm0 11c-2.7 0-4.8-2.2-4.8-5s2.2-5 4.8-5C19.7 1 22 3.3 22 6s-2.2 5-4.8 5z"/><path d="M16.1 2.9h2v4h-2zm0 5.1h2v1h-2z"/></g></g><g transform="translate(0 340)"><g fill="#FFF"><path d="M14.3 15.8c-.8-.2-2-.7-2.5-.9v-1.4c.5-.7.8-1.4.8-1.9v-.2c-1.3-1.4-2.5-3.3-2.5-5.5 0-1.2.3-2.4 1-3.4-.2-.3-.5-.3-.7-.5-.4-.1-.8-.1-1.3-.1h-.6c-.5 0-.8 0-1.3.2-1.3.5-3.3 2.2-3 5.8-.6.7-.4 1.4-.2 2.1.2 1 .5 1.5.8 1.7.2.5.3 1.2 1 1.9v1.2c-.3.3-1.5.9-2.5 1-1 .2-2.3.7-3.2 2.9-.2.3-.2.9.2 1.2.8 1.2 5.2 2.1 8.5 2.1 3.5 0 7.7-.9 8.5-2.1.2-.3.3-.7.2-1.2-.8-2.2-2.2-2.7-3.2-2.9z"/><path d="M17.2 0c-3.2 0-5.8 2.8-5.8 6s2.7 6 5.8 6S23 9.3 23 6c0-3.4-2.7-6-5.8-6zm.9 9h-1.9V8h1.9v1zm0-2h-1.9V2.9h1.9V7z"/></g></g><g transform="translate(0 380)"><g fill="#966E2A"><path d="M5.9 11.8l.3.3.1-.5c.6-2.2-1.1-5.7-2.7-7.2L3.1 4l-.1.5c-.7 2.2.8 5.9 2.9 7.3zM24 4.5l-.1-.5-.4.3c-1.7 1.5-3 4.9-2.5 7.2l.1.5.3-.3c2-1.4 3.3-5 2.6-7.2zM5.7 23.2c.2-.2.2-.2 0 0zm15.7 0c0-.2-.1-.2 0 0zM18.8 6.3c.4.6.8 1.1 1.4 1.4l.4.3v-.4c.6-2.4-.8-6.2-2.8-7.3l-.4-.3-.1.6c-.1 1.1.1 2.5.6 3.8.4.5.7 1.2.9 1.9zM6.5 8.1l.4-.3c.4-.3.8-.7 1.2-1.2.2-.9.6-1.6 1.1-2.2.5-1.3.7-2.7.6-3.8L9.7 0l-.4.3c-2 1.1-3.4 4.9-2.8 7.3v.5zm19.8 1c-2.6.9-4.5 3-5.4 5.6.4.4.7.8 1 1.4 2.7-1 4.6-3.8 4.8-6.7l.3-.5-.7.2zm-.7 7.2c-1-.1-2.3 0-3.5.2 0 .1.1.1.1.2.2.4.2.7.2 1 0 .4-.1.7-.2.9l-.2.5c-.2.3-.6.6-1 .9 2-.3 3.7-1.3 5-2.9l.3-.5-.7-.3zM5 19.1l-.3-.4v-.1c-.2-.4-.2-.8-.2-1V17l.1-.3c0-.1.1-.1.1-.2-1.2-.2-2.4-.2-3.6-.1l-.7.2.3.5c1.4 1.7 3.4 2.6 5.4 2.9-.4-.2-.8-.5-1.1-.9zm.9-4.2C5.2 12.3 3.2 10 .6 9.1L0 8.9l.2.7C.5 12.3 2.3 15 5 16.1c.3-.5.6-.9.9-1.2zm7.6 6.5c-1.2 0-3.1-.1-4.8-.5L6 23.2c1 .2 2.2.2 3.2 0 .8-.2 1.5-.5 2.2-.8-.5.5-1 1-1.7 1.5l-.3.3.3.3.5.5v-.2l.2-.2c1.5-.7 1.9-2.2 3-3 1.2.7 1.5 2.3 3 3l.2.2.2-.2.5-.5.3-.3-.3-.3c-.7-.5-1.2-1-1.7-1.5.7.3 1.4.8 2.2.8 1.2.2 2.4.3 3.4 0l-2.4-2c-2.4.6-5.3.6-5.3.6z"/></g><path fill="#A4782D" d="M21 17.8c0-.1 0-.2-.1-.4s-.2-.3-.3-.5c-.6-1.4-1.5-1.9-2.3-2-.8-.2-1.8-.6-2-.8v-1c.4-.6.8-1.1.8-1.5.3 0 .4-.8.5-1.7.2-.5.2-1-.1-1.6.3-2.9-1.2-3.8-2.4-4.2-.3-.2-.6-.2-1-.2h-.9c-.4 0-.8 0-1.2.2-1 .4-2.7 1.9-2.5 4.8-.4.6-.4 1.1-.2 1.6.2.8.4 1 .7 1.2.2.4.4 1 .8 1.5v1c-.2.2-1.2.7-1.9.7-.9.2-1.9.5-2.5 1.9-.1.2-.2.3-.3.5-.1.1-.1.2-.1.3 0 .2 0 .3.1.4 0 .1.1.1.1.2.8 1 4.3 1.7 7.4 1.7 3 0 6.4-.6 7.1-1.6 0-.1.1-.1.1-.2.2 0 .2-.2.2-.3zm-7.4.9c-2.6 0-5.1-.6-5.7-1.3-.1-.1-.1-.2 0-.2.6-1.4 1.2-1.4 1.8-1.5.5-.1 1.3-.4 1.8-.7.3-.2.4-.2.5-.4V14c.1.1.3.2.4.2 0 0 .1 0 .1.1.1.1.2.1.3.2h.1c.3.1.4.1.7.1h.4c.3 0 .4-.1.7-.1h.1c.1 0 .3-.1.3-.2 0 0 .1 0 .1-.1.2-.1.3-.2.4-.2v.6c.1.2.3.2.5.4.5.3 1.3.6 1.8.7.6.2 1.2.2 1.8 1.5v.2c-.9.6-3.4 1.3-6.1 1.3zm-3.2-9.4h.2c-.6-3.1 1.8-4.1 1.8-4.1.4-.2.7-.2.9-.2h.6c.3 0 .6 0 .8.2 0 0 2.4 1 1.8 4.1h.2c.2 0 .3.2 0 .8 0 .7-.2 1-.3 1l-.1-.1h-.2s0 .8-.8 1.8c-.3.3-.7.8-1.3.9-.1 0-.3.1-.3.1-.1 0-.3 0-.3-.1-.6-.2-1-.6-1.3-.9-.8-1-.8-1.8-.8-1.8H11l-.1.1c-.2 0-.3-.2-.5-.9-.3-.7-.1-.9 0-.9z"/></g><g transform="translate(0 420)"><g><g fill="#CF9930"><path d="M5.9 11.8l.3.3.1-.5c.6-2.2-1.1-5.7-2.7-7.2L3.1 4l-.1.5c-.7 2.2.8 5.9 2.9 7.3zM24 4.5l-.1-.5-.4.3c-1.7 1.5-3 4.9-2.5 7.2l.1.5.3-.3c2-1.4 3.3-5 2.6-7.2zM5.7 23.2c.2-.2.2-.2 0 0zm15.7 0c0-.2-.1-.2 0 0zM18.8 6.3c.4.6.8 1.1 1.4 1.4l.4.3v-.4c.6-2.4-.8-6.2-2.8-7.3l-.4-.3-.1.6c-.1 1.1.1 2.5.6 3.8.4.5.7 1.2.9 1.9zM6.5 8.1l.4-.3c.4-.3.8-.7 1.2-1.2.2-.9.6-1.6 1.1-2.2.5-1.3.7-2.7.6-3.8L9.7 0l-.4.3c-2 1.1-3.4 4.9-2.8 7.3v.5zm19.8 1c-2.6.9-4.5 3-5.4 5.6.4.4.7.8 1 1.4 2.7-1 4.6-3.8 4.8-6.7l.3-.5-.7.2zm-.7 7.2c-1-.1-2.3 0-3.5.2 0 .1.1.1.1.2.2.4.2.7.2 1 0 .4-.1.7-.2.9l-.2.5c-.2.3-.6.6-1 .9 2-.3 3.7-1.3 5-2.9l.3-.5-.7-.3zM5 19.1l-.3-.4v-.1c-.2-.4-.2-.8-.2-1V17l.1-.3c0-.1.1-.1.1-.2-1.2-.2-2.4-.2-3.6-.1l-.7.2.3.5c1.4 1.7 3.4 2.6 5.4 2.9-.4-.2-.8-.5-1.1-.9zm.9-4.2C5.2 12.3 3.2 10 .6 9.1L0 8.9l.2.7C.5 12.3 2.3 15 5 16.1c.3-.5.6-.9.9-1.2zm7.6 6.5c-1.2 0-3.1-.1-4.8-.5L6 23.2c1 .2 2.2.2 3.2 0 .8-.2 1.5-.5 2.2-.8-.5.5-1 1-1.7 1.5l-.3.3.3.3.5.5v-.2l.2-.2c1.5-.7 1.9-2.2 3-3 1.2.7 1.5 2.3 3 3l.2.2.2-.2.5-.5.3-.3-.3-.3c-.7-.5-1.2-1-1.7-1.5.7.3 1.4.8 2.2.8 1.2.2 2.4.3 3.4 0l-2.4-2c-2.4.6-5.3.6-5.3.6z"/></g><path fill="#F1B03E" d="M21 17.8c0-.1 0-.2-.1-.4-.7-1.8-1.8-2.2-2.7-2.3-.5-.1-1.2-.3-1.7-.6-.2-.1-.3-.2-.4-.2v-1.1c.1-.1.1-.2.2-.2.4-.5.5-1 .7-1.3.3 0 .7-.4.8-1.3.2-.6.2-1.1-.2-1.7.2-2.8-1.4-4.1-2.5-4.6 0 0-.1 0-.1-.1h-1.6c-.5 0-.7 0-1.2.2 0 0-.1 0-.1.1-1.2.4-2.7 1.8-2.5 4.6-.4.6-.2 1.1-.2 1.6.2.8.4 1.2.7 1.4.1.3.2.8.7 1.3.1.1.1.2.2.2v1.1c-.1.1-.2.2-.4.2-.5 0-1.2.3-1.8.4-.8.2-2 .6-2.7 2.3v.3c0 .2 0 .3.1.4 0 .1.1.1.1.2.7 1 4.3 1.7 7.3 1.7s6.6-.7 7.2-1.7c0-.1.1-.1.1-.2.1 0 .1-.2.1-.3z"/></g></g><g transform="translate(0 460)"><path fill="#FD6920" d="M6.5 5.3c-2 0-3.7-.7-4.3-1.7.7.6 1.9 1 3.3 1 2.2 0 4.1-1 4.1-2.3C9.6 1 7.7 0 5.5 0 3.3 0 1.4 1 1.4 2.3c0 .4.2.8.6 1.2v1.7c.4 1.2 2.3 2 4.5 2 .7 0 1.3-.1 1.9-.2-.8.8-2.3 1.3-4 1.3-2.2 0-4.1-.9-4.5-2V8c.4 1.2 2.3 2 4.5 2 2.3 0 4.2-.9 4.6-2V6.8c1-.4 1.8-.9 2-1.6V3.3c-.4 1.1-2.3 2-4.5 2z"/></g><g transform="translate(0 480)"><path fill="#FFF" d="M0 0h1l2 2h1l2-2h1v1L4 4H3L0 1z"/></g><g transform="translate(0 500)"><path fill="#FFC000" d="M12.1 15l-4.6-3.5L2.9 15l1.7-5.8L0 5.8h5.8L7.5 0l1.7 5.8H15l-4.6 3.4 1.7 5.8z"/></g><g transform="translate(0 530)"><g fill="#FFF"><path d="M16.8 4.3v1.3h-2.2c-.6 0-1.1-.5-1.1-1.1V1.1c0-.6.5-1.1 1.1-1.1H18c.5 0 1 .5 1 1.1V7c0 .6-.4 1.1-1 1.1h-4.5V6.8h3.7c.4 0 .5-.1.5-.5V2c0-.4-.1-.5-.5-.5h-1.8c-.4 0-.5.2-.5.5v1.9c0 .3.2.5.5.5.3-.1.8-.1 1.4-.1-.1 0-.1 0 0 0zM0 8.1V6.8h3.6c.4 0 .5-.1.5-.5V2c0-.4-.1-.6-.5-.6H1.8c-.4 0-.5.1-.5.5v1.9c0 .4.1.5.5.5h1.5v1.3H1c-.6 0-1-.4-1-1.1V1.1C0 .4.4 0 1.1 0h3.4c.7 0 1.1.5 1.1 1.1V7c0 .6-.4 1.1-1.1 1.1H0zm19 1.4V15h-1.3V11.1c0-.2-.1-.3-.2-.2h-.6c-.4 0-.5.1-.5.5v3.7h-1.3v-4.2H14c-.2 0-.3.2-.3.5v3.7h-1.3v-4.4c0-.7.4-1.1 1.1-1.1h5.3c0-.1.1-.1.2-.1zm-6.7-6.7v1.7c0 .7-.4 1.1-1.1 1.1H7.9c-.7 0-1.1-.4-1.1-1.1V1.1C6.7.4 7.2 0 7.8 0h3.3c.7 0 1.1.4 1.1 1.1.1.6.1 1.2.1 1.7zM9.5 4.3h1c.3 0 .5-.2.5-.4v-2c0-.3-.2-.4-.5-.4h-2c-.3-.1-.4 0-.5.3v2c0 .3.2.5.5.5h1zm1.7 7.9v1.7c0 .7-.4 1.1-1.1 1.1H6.8c-.7 0-1.1-.4-1.1-1.1v-3.3c0-.7.4-1.1 1.1-1.1h3.3c.7 0 1.1.4 1.1 1.1v1.6zm-1.4 0v-1c0-.3-.2-.4-.4-.4h-2c-.3 0-.4.2-.4.4v2c0 .3.2.4.4.4h1.9c.3 0 .4-.2.4-.4.1-.3.1-.6.1-1zM4.6 15H1.1c-.6 0-1-.5-1-1.1v-3.4c0-.6.4-1 1-1h3.6v1.3H2.1c-.4 0-.5.1-.5.5v1.8c0 .4.1.5.5.5h2.7c-.2.5-.2.9-.2 1.4z"/></g></g><g transform="translate(0 560)"><path fill="#FFC000" d="M6.5 5.3c-2 0-3.7-.7-4.3-1.7.7.6 1.9 1 3.3 1 2.2 0 4.1-1 4.1-2.3C9.6 1 7.7 0 5.5 0 3.3 0 1.4 1 1.4 2.3c0 .4.2.8.6 1.2v1.7c.4 1.2 2.3 2 4.5 2 .7 0 1.3-.1 1.9-.2-.8.8-2.3 1.3-4 1.3-2.2 0-4.1-.9-4.5-2V8c.4 1.2 2.3 2 4.5 2 2.3 0 4.2-.9 4.6-2V6.8c1-.4 1.8-.9 2-1.6V3.3c-.4 1.1-2.3 2-4.5 2z"/></g><g transform="translate(0 580)"><path fill="#FFF" d="M6 12c-3.3 0-6-2.7-6-6s2.7-6 6-6 6 2.7 6 6-2.7 6-6 6zM6 1C3.2 1 1 3.2 1 6s2.2 5 5 5 5-2.2 5-5-2.2-5-5-5z"/><g><g><path fill="#FFF" d="M7.1 3v4.1h-2V3h2z"/></g></g><path fill="#FFF" d="M5.1 8.2h2v1h-2z"/></g><g transform="translate(0 610)"><g><g fill="#91c7ab"><path d="M9.558 4.047A2.913 2.913 0 0 0 9.02 4L9 4.001V4H4v.007c-.193 0-.369.015-.534.047C1.166 4.099 0 5.533 0 8.318c0 1.295 1.03 1.933 1.781 2.399l.181.112a.985.985 0 0 0-.015.173V12a1 1 0 0 0 1 1h7.135a1 1 0 0 0 1-1v-.998a.994.994 0 0 0-.017-.182l.17-.107C11.979 10.247 13 9.608 13 8.315c0-2.787-1.158-4.223-3.442-4.268zM1 8.318c0-2.099.636-3.265 2.577-3.265.14-.035.284-.046.429-.046.25 0 .505.032.757.032.076 0 .151-.003.226-.01-2.869.948-2.434 3.574 0 5.919-.596 0-.651.009-.854.009-.102 0-.24-.002-.502-.009C2.821 9.817 1 9.578 1 8.318zM10.081 12H2.947v-.998h3.049a7.88 7.88 0 0 1-.766-.797c-.731-.884-1.233-1.628-1.252-2.928-.001.021-.01.043-.01.063l-.001.182-.001-.17.002-.012.002-.333.001.201c0 .026.007.044.007.07.065-.948 1.338-2.159 2.028-2.254v5.979h1.022v-5h.004v-.979c.691.099 1.96 1.307 2.024 2.253 0-.025.007-.044.007-.07v-.201l.003.334.002.012v.17l-.002-.182c0-.02-.009-.042-.01-.063-.02 1.3-.521 2.044-1.252 2.928a7.88 7.88 0 0 1-.766.797h3.043V12zm-.691-1.053c-.26.007-.397.009-.498.009-.201 0-.255-.009-.846-.009 2.412-2.346 2.843-4.976 0-5.925.075.008.149.01.225.01.249 0 .502-.032.749-.032.144 0 .287.011.426.046C11.369 5.046 12 6.25 12 8.315c0 1.26-1.804 1.501-2.61 2.632zM6 3h1V2h1V1H7V0H6v1H5v1h1z"/></g></g></g><g transform="translate(0 640)"><g><g fill="#FFC000"><path d="M9 6H3l1-3h4zm-3 4H0l1-3h4zm6 0H7l1-3h3z"/><path d="M10 5L9 2H6l2-2h4l1 3zm1 1l2 2v1h2l2-2V6l-2-2h-2z"/></g></g></g><g transform="translate(0 660)"><path fill="#FFF" d="M.257 5.063L4.22.263c.199-.1.397-.2.595-.2.198 0 .396.1.495.2.297.2.396.7.1 1l-2.972 3.5h7.726c.495 0 .792.4.792.8s-.297.7-.792.7H2.437l2.971 3.5c.297.3.198.8-.099 1.1-.099.1-.297.2-.495.2s-.396-.1-.595-.3l-3.962-4.8c-.099-.1-.198-.2-.198-.4s.1-.3.198-.5z"/></g><g transform="translate(0 690)"><g><g><path fill="#FFF" d="M12.7 12.2c-.4-.2-.7-.4-.7-.9s-.4-.8-.4-.8.3-1.1 0-2c-.3-.9-1.3-2.3-2.1-3.4-.8-1-.1-2.2-.8-3.8C8-.3 6.1-.2 5.1.5s-.7 2.4-.6 3.1c0 .8 0 1.4-.1 1.6-.1.2-.7 1-1.2 1.6-.4.6-.7 1.9-1 2.5-.3.5-.1 1-.1 1s-.2.1-.4.4c-.2.3-.5.5-1.1.6-.6.1-.6.5-.4.9.1.4 0 .7-.2 1.2s.7.7 1.5.8c.8.1 1.7.6 2.5.7.8.1 1-.5 1-.5s.9-.2 1.8-.2 1.8.2 1.8.2.2.4.5.5c.3.2 1 .2 1.4-.3.4-.4 1.6-1 2.2-1.4.5-.3.4-.8 0-1zM7.1 2c.4 0 .7.4.7.9 0 .3-.2.6-.4.8-.1 0-.1-.1-.2-.1.1-.1.2-.3.2-.5 0-.3-.2-.5-.4-.5s-.4.2-.4.5c0 .1 0 .2.1.3-.1 0-.2-.1-.3-.1 0-.1-.1-.3-.1-.4.1-.5.4-.9.8-.9zm0 1.8c.2.1.4.2.4.3 0 .1-.1.1-.4.3-.3.2-.9.6-1.1.6-.2 0-.3-.1-.5-.2s-.6-.5-.5-.6c0 0 .3-.2.4-.3.1-.1.5-.4.7-.4.2 0 .8.3 1 .3zM5.2 2.1c.3 0 .6.4.6.8v.2c-.1 0-.2.1-.2.1l-.1.1c.1-.1.1-.2 0-.4 0-.3-.2-.4-.4-.4s-.3.3-.2.5c0 .3.2.4.4.4-.1.2-.2.3-.2.3-.3-.1-.5-.4-.5-.8s.3-.8.6-.8zm-.6 11.8c-.1.3-.5.6-.5.6-.4.1-1.4-.3-1.8-.5-.5-.2-1.6-.2-1.8-.4-.2-.2.1-.5.1-.9.1-.4-.1-.6-.1-.8.1-.2.8-.2 1.1-.4.4-.3.4-.7.7-.9.2-.1.6.3.8.6.2.3.8 1.4 1.1 1.7.2.3.5.6.4 1zm4.2-3.3c-.1.3-.1 1.5-.1 1.5s-.7 1-1.9 1.2c-1.1.2-1.7 0-1.7 0l-.6-.7s.5-.1.4-.6c-.1-.5-1.5-1.2-1.8-1.8-.3-.6 0-1.6.3-2.1s.5-1.6.9-2c.3-.3.6-1.1.5-1.5 0 0 .7.8 1.2.7.5-.1 1.6-1 1.8-.8.2.1 1.6 3.2 1.7 4.2.1 1-.1 1.7-.1 1.7s-.5-.1-.6.2zm3.6 2.2c-.2.2-1.5.7-1.8 1.1-.4.4-.8.7-1.1.6-.3-.1-.6-.5-.5-1.1.1-.6.2-1.2.2-1.6 0-.4-.1-.9 0-.9.1-.1.2 0 .2 0s-.1.7.4.9c.4.2 1-.1 1.2-.3.2-.2.3-.5.3-.5s.2.1.2.4c0 .3.1.7.4.9.3.1.8.3.5.5z"/></g></g></g><g transform="translate(0 720)"><g fill-rule="evenodd" clip-rule="evenodd" fill="#FFF"><path d="M9.5 1.4c3.4 0 6.2 1.7 7.3 4.1h.3c.5 0 1.1.1 1.6.2C17.5 2.4 13.9 0 9.5 0 4.2 0 0 3.4 0 7.6c0 1.4.5 2.7 1.3 3.9.2.3.5.6.8.9l-.5 5.1 4.2-2.9c.8.3 1.7.5 2.6.5v-.4c0-.3 0-.7.1-1-1-.1-1.8-.3-2.7-.7l-2.9 1.8.6-3.3c-.3-.2-.5-.5-.7-.7-.7-.9-1.1-2-1.1-3.2 0-3.4 3.5-6.2 7.8-6.2z"/><path d="M22.9 15.3c.1-.2.2-.3.3-.5.5-.9.7-1.9.6-2.9-.4-3.1-3.7-5.2-7.5-4.8-3.8.4-6.6 3.3-6.2 6.3.4 3.1 3.7 5.2 7.5 4.8 1.1-.1 2-.4 2.9-.9L24 19l-1.1-3.7zm-.8-.9c-.8 1.4-2.5 2.5-4.5 2.7-3.1.3-5.8-1.4-6.1-3.8-.3-2.5 2-4.8 5-5.1 3.1-.3 5.8 1.4 6.1 3.8.1.9-.1 1.7-.5 2.4z"/></g></g><g transform="translate(0 750)"><g fill-rule="evenodd" clip-rule="evenodd" fill="#FFF"><path d="M9.5 1.4c3.4 0 6.2 1.7 7.3 4.1h.3c.5 0 1.1.1 1.6.2C17.5 2.4 13.9 0 9.5 0 4.2 0 0 3.4 0 7.6c0 1.4.5 2.7 1.3 3.9.2.3.5.6.8.9l-.5 5.1 4.2-2.9c.8.3 1.7.5 2.6.5v-.4c0-.3 0-.7.1-1-1-.1-1.8-.3-2.7-.7l-2.9 1.8.6-3.3c-.3-.2-.5-.5-.7-.7-.7-.9-1.1-2-1.1-3.2 0-3.4 3.5-6.2 7.8-6.2z"/><path d="M22.9 15.3c.1-.2.2-.3.3-.5.5-.9.7-1.9.6-2.9-.4-3.1-3.7-5.2-7.5-4.8-3.8.4-6.6 3.3-6.2 6.3.4 3.1 3.7 5.2 7.5 4.8 1.1-.1 2-.4 2.9-.9L24 19l-1.1-3.7z"/></g></g><g transform="translate(0 780)"><g fill-rule="evenodd" clip-rule="evenodd" fill="#FFF"><path d="M9.6 1.4c3.4 0 6.3 1.7 7.4 4.1h1c.2-.3.4-.5.6-.8C17.1 2 13.7 0 9.6 0 4.3 0 0 3.4 0 7.6c0 1.4.5 2.7 1.3 3.9.2.3.5.6.8.9l-.6 5.1 4.3-2.9c.8.3 1.7.5 2.7.5v-.4c0-.3 0-.7.1-1-1-.1-1.9-.3-2.7-.7L3 14.8l.6-3.3-.7-.7c-.7-.9-1.1-2-1.1-3.2 0-3.4 3.5-6.2 7.8-6.2zM22.5 4C20.1 4 18 6 18 8.5s2 4.5 4.5 4.5S27 11 27 8.5 25 4 22.5 4zm2.5 6.3c-.2.3-.4.5-.7.7l-1.8-1.8-1.7 1.8c-.3-.2-.5-.4-.7-.7l1.8-1.8-1.8-1.8c.2-.3.4-.5.7-.7l1.8 1.8L24.3 6c.3.2.5.4.7.7l-1.8 1.8 1.8 1.8z"/><path d="M23.6 14.8c.2-.4.4-.8.5-1.1-.5.2-1 .2-1.5.3-.1.2-.1.3-.2.5-.8 1.4-2.5 2.5-4.6 2.7-3.1.3-5.9-1.4-6.2-3.8-.3-2.5 2-4.8 5.1-5.1h.2c0-.4.1-.7.2-1.1h-.5c-3.8.4-6.7 3.3-6.3 6.3.4 3.1 3.8 5.2 7.6 4.8 1.1-.1 2.1-.4 2.9-.9l3.5 1.7-1.1-3.7c.2-.2.3-.4.4-.6z"/></g></g><g transform="translate(0 810)"><g fill-rule="evenodd" clip-rule="evenodd" fill="#FFF"><path d="M23.6 14.8c.2-.3.3-.7.5-1.1-.5.1-1 .2-1.6.2-3 0-5.5-2.5-5.5-5.5 0-.5.1-.9.2-1.4h-.6c-3.8.4-6.7 3.3-6.3 6.3.4 3.1 3.8 5.2 7.6 4.8 1.1-.1 2.1-.4 2.9-.9l3.5 1.7-1.1-3.7c.2 0 .3-.2.4-.4z"/><path d="M22.5 4C20.1 4 18 6 18 8.5s2 4.5 4.5 4.5S27 11 27 8.5 25 4 22.5 4zm2.5 6.3c-.2.3-.4.5-.7.7l-1.8-1.8-1.7 1.8c-.3-.2-.5-.4-.7-.7l1.8-1.8-1.8-1.8c.2-.3.4-.5.7-.7l1.8 1.8L24.3 6c.3.2.5.4.7.7l-1.8 1.8 1.8 1.8zM9.6 1.4c3.4 0 6.3 1.7 7.4 4.1h.8c.2-.3.4-.6.7-.9C17 1.9 13.6 0 9.6 0 4.3 0 0 3.4 0 7.6c0 1.4.5 2.7 1.3 3.9.2.3.5.6.8.9l-.6 5.1 4.3-2.9c.8.3 1.7.5 2.7.5v-.4c0-.3 0-.7.1-1-1-.1-1.9-.3-2.7-.7L3 14.8l.6-3.3-.7-.7c-.7-.9-1.1-2-1.1-3.2 0-3.4 3.5-6.2 7.8-6.2z"/></g></g><g transform="translate(0 840)"><path fill-rule="evenodd" clip-rule="evenodd" fill="#000003" d="M19.2 9.9L13.4.4c-.7-.6-1.5-.6-2.2 0L0 18.4c-.2.2 19.2-8.5 19.2-8.5z"/><path fill-rule="evenodd" clip-rule="evenodd" fill="#EE3332" d="M21.9 17.7L13.1 4c-.3-.3-1.4-.5-1.7-.2L2.6 17.5c-.3.3.2 2.1.5 2.3l.1.2h17.7l.2-.2c.2-.3 1.1-1.8.8-2.1zm-2.1 1.1l-.1.2H4.8l-.1-.1c-.2-.2-.2-1.6 0-1.8l7.1-10.9c.3-.2.7-.2 1 0l7 10.8c.2.3.2 1.6 0 1.8z"/><path fill="#EE3332" d="M11.3 9.4l.2 5H13l.2-5h-1.9zm1.7 8.1c.2-.2.3-.9.3-1.2 0-.2-.1-.4-.3-.6-.2-.2-.5-.2-.8-.2-.3 0-.6.1-.8.2-.2.2-.3.4-.3.6 0 .2.1 1 .3 1.2.2.2.5.2.8.2.4 0 .6-.1.8-.2z"/></g><g transform="translate(0 870)"><g><path fill="#000003" d="M3.4 19.1l16-15.4c-2-2.2-5-3.7-8.2-3.7C5 0 0 5 0 11.1c0 3.2 1.3 6 3.4 8z"/><path fill="#F3AA46" d="M10.9 20c-5 0-9.1-4.1-9.1-9.1s4.2-9 9.1-9S20 6 20 10.9 15.9 20 10.9 20zm0-16.6c-4.2 0-7.5 3.4-7.5 7.5s3.4 7.5 7.5 7.5 7.5-3.4 7.5-7.5-3.3-7.5-7.5-7.5z"/><g><g><path fill="#F3AA46" d="M10.2 13.5c.2-.3.5-.4.7-.4.3 0 .5.1.7.4.2.3.3.5.3.8 0 .3-.1.6-.3.8-.2.2-.4.3-.7.3-.3 0-.5-.1-.7-.3-.2-.1-.3-.4-.3-.8 0-.3.1-.5.3-.8zm1.7-6.9v5.9H10V6.6h1.9z"/></g></g></g></g><g transform="translate(0 900)"><path fill="#000003" d="M3.3 18.9L18.9 3.6c-2-2.2-4.8-3.6-8-3.6C4.9 0 0 4.9 0 11c0 3.1 1.3 5.9 3.3 7.9z"/><path fill="#FFF" d="M11.2 20c-4.8 0-8.8-4-8.8-8.9s3.9-8.9 8.8-8.9 8.8 4 8.8 8.9-3.9 8.9-8.8 8.9zm0-16.3c-4 0-7.3 3.3-7.3 7.4s3.3 7.4 7.3 7.4 7.3-3.3 7.3-7.4-3.2-7.4-7.3-7.4z"/><g><g><path fill="#FFF" d="M10.1 8c0-.3.1-.6.3-.8.2-.1.5-.2.7-.2.2 0 .5.1.7.3.2.2.3.4.3.8 0 .3-.1.6-.3.8-.2.2-.5.4-.7.4-.3 0-.5-.1-.7-.4-.2-.3-.3-.6-.3-.9zm.2 7.7V9.9h1.8v5.8h-1.8z"/></g></g></g><g transform="translate(0 930)"><g fill-rule="evenodd" clip-rule="evenodd"><path fill="#000003" d="M20 .5c-.4-.3-.9-.5-1.5-.5H2.2C.8 0 0 .9 0 2.4V14C0 14.9 20 .5 20 .5z"/><path fill="#FFF" d="M17 2H4c-1.1 0-2 .9-2 2v9.1c0 1.1.9 1.9 2 1.9h13c1.1 0 2-.9 2-2V3.9c0-1.1-.9-1.9-2-1.9zm-.9 1c.2 0 .3 0 .5.1l-6.2 5.5L5 3c.1 0-.1 0 0 0h11.1zm1.9 8.2c0 1.1-1.2 2.8-2.3 2.8H5c-1.1 0-2-1.6-2-2.8V5c0-.4.2-.6.5-.9l7 6.4L17.3 4c.3.4.7.5.7 1v6.2z"/></g></g><g transform="translate(0 960)"><g><path fill="#000002" d="M22.9 4c-.7-.9-1.6-2.8-5-3-.6 0-3 .7-4 2-.8-1.1-2.4-3-5.1-3-4.4.5-5.7 3-5.9 6-.4 1.1.7 4.5 1.1 5.1l-.2.2c-1.9.6-3.2 1.9-3.9 4.1-.3 1 23-11.4 23-11.4z"/><g fill-rule="evenodd" clip-rule="evenodd" fill="#FFF" stroke="#FFF" stroke-width=".25" stroke-miterlimit="10"><path d="M13.3 13.6c-.8-.1-1.8-.5-2.1-.7v-1s0-.1.1-.1c.5-.7.7-1.3.8-1.7.3-.2.6-.7.8-1.5 0-.6.1-1.2-.2-1.6.3-3.2-1.6-4.8-2.7-5.2-.4-.1-.8-.2-1.2-.2h-.4c-.4 0-.8.1-1.2.2-1.1.4-3 2-2.7 5.1-.4.5-.4 1.1-.3 1.6.2.9.5 1.3.8 1.5.1.4.3 1 .8 1.7l.1.1v1.1c-.3.2-1.3.5-2.1.7-.9.2-2.1.6-2.8 2.6-.1.3-.1.7.1 1 .7 1.1 4.4 1.8 7.4 1.8s6.7-.7 7.4-1.8c.2-.3.2-.7.1-1-.6-2-1.8-2.5-2.7-2.6zm-8-5.2c-.2-.7 0-.9.1-.9h.1C4.9 4.2 7.4 3 7.4 3c.3-.1.6-.2.9-.2h.4c.2 0 .5 0 .9.2 0 0 2.5 1.1 1.9 4.6h.1c.1 0 .3.1.1.9-.2 1-.6 1-.6 1s0 .9-.8 1.9c-.3.3-.9.9-1.7.9-.6 0-1.2-.3-1.8-.9-.8-1.1-.8-2-.8-2-.1 0-.5 0-.7-1zm3.2 9.3c-3.2 0-6.2-1-6-1.7.5-1.4 1.3-1.5 1.9-1.6.6-.1 2.2-.8 2.4-1.2 0-.1.1-.4.1-.6.5.4 1.1.6 1.6.6h.1c.6 0 1.2-.3 1.6-.6 0 .2 0 .5.1.6.1.4 1.6 1.1 2.3 1.2.7.1 1.3.1 1.8 1.6.2.7-2.7 1.7-5.9 1.7zm15.4-3.1c-.6-1.6-1.5-2-2.3-2.1-.6-.1-1.4-.4-1.7-.6V11s0-.1.1-.1c.4-.5.6-1.1.6-1.4.2-.2.5-.6.7-1.3.1-.4.2-.9-.1-1.3.2-2.6-1.3-3.9-2.2-4.3-.3-.1-.7-.2-1-.2h-.4c-.3 0-.6.1-1 .2-1 .4-2.6 1.7-2.3 4.3-.3.4-.3.9-.2 1.3.2.7.4 1.1.7 1.3.1.4.3.9.6 1.4v1c-.2.5-.1.8-.3.7.5.1.2.1.5.1.2-.1.4-.2.4-.3 0-.1.1-.3.1-.5.5.4 1 .6 1.5.6h.1c.6 0 1-.3 1.4-.6 0 .2 0 .4.1.5.1.4 1.7.7 2.3.8.6.1 1.1.4 1.5 1.7.2.6-2.2 1.3-4.8 1.4.1.3.2.5.2.8 2.3-.1 4.8-.7 5.4-1.5.1-.5.2-.8.1-1zm-4.7-4c-.3.3-.8.8-1.5.8-.5 0-1.1-.3-1.6-.8-.6-.9-.7-1.6-.7-1.6-.1 0-.4-.1-.6-.9-.1-.7 0-.8.1-.8h.1c-.5-3.1 1.7-3.9 1.7-3.9.3-.1.6-.1.8-.1h.4c.2 0 .5 0 .8.1 0 0 2.2.8 1.7 3.9h.1c.1 0 .3.1.1.8-.3.8-.6.9-.7.9s0 .8-.7 1.6z"/></g></g></g><g transform="translate(0 990)"><path fill-rule="evenodd" clip-rule="evenodd" fill="#FFF" d="M12.7.4c-.4-.5-1.1-.5-1.5 0L4.2 9 1.8 6.3c-.4-.5-1.1-.5-1.5 0-.4.5-.4 1.3 0 1.7l3.1 3.6c.3.4.8.4 1.2.2.2-.1.3-.1.4-.3L12.7 2c.4-.4.4-1.2 0-1.6z"/></g><g transform="translate(0 1020)"><g fill-rule="evenodd" clip-rule="evenodd" fill="#FFF"><path d="M53 0H8C3.2 0 0 3.4 0 7.5S3.2 15 8 15h45c4.8 0 8-3.4 8-7.5S57.8 0 53 0zm0 13.2H8c-3.8 0-6.1-2.5-6.1-5.7 0-3.1 2.3-5.7 6.1-5.7h45c3.8 0 6.1 2.5 6.1 5.7 0 3.1-2.3 5.7-6.1 5.7z"/><path d="M6.1 4h2.2l3 4.9V4h2.2v7h-2.2L8.2 6.1V11H6.1V4zm19.3.7h2.1v.9h1.2v.7h-1.2V11h-2.1V6.3h-1.2v-.7h1.2v-.9zM14.7 6.3h2.1V11h-2.1V6.3zm0-2.3h2.1v1.4h-2.1V4zm38.1 4.6v1c0 .7-.4 1.1-.9 1.1-.4 0-.9-.3-.9-1.1v-2c0-.7.4-1.1.9-1.1.4 0 .9.3.9 1.1v1zM52 6c-1.7 0-3.1 1.2-3.1 2.6 0 1.5 1.4 2.6 3.1 2.6 1.7 0 3.1-1.2 3.1-2.6C55.1 7.2 53.7 6 52 6zm-5.9-2h2.1v7h-2.1v-.3c-.8.5-1.7.5-2.4.2-.2-.1-1.5-.7-1.5-2.3 0-1.2 1.2-2.6 2.7-2.5.5 0 .9.2 1.2.4V4zm0 4.6v-.8c0-.7-.5-.9-.8-.9-.3 0-.8.2-.8.9v1.6c0 .7.5.9.8.9.3 0 .8-.2.8-.9v-.8zM21.8 6.1c.8 0 2.4.5 2.4 2.4v2.6h-2.1V8c0-.4-.4-.9-1-.9s-1 .5-1 .9v3.1H18V6.4h2.1v.5c.4-.5 1-.8 1.7-.8zm17.3 0c.8 0 2.4.5 2.4 2.4v2.6h-2.1V8c0-.4-.4-.9-1-.9s-1 .5-1 .9v3.1h-2.1V6.4h2.1v.5c.4-.5 1-.8 1.7-.8zM30.6 8c0-.4 0-.7.1-.9.2-.3.5-.4.7-.4.3 0 .6.1.7.4.1.2.1.5.1.9h-1.6zm1.8 1.4v.3c0 .9-.6 1.1-.9 1.1-.3 0-.9-.2-.9-1.1v-1h4c0-1.5-1.4-2.7-3.1-2.7-1.7 0-3.1 1.2-3.1 2.6 0 1.5 1.4 2.6 3.1 2.6 1.4 0 2.6-.8 3-1.9l-2.1.1zm22.8-3.8H55V4h.6c.4 0 .6.1.6.5 0 .3-.2.4-.4.4l.5.7H56l-.4-.7h-.3v.7h-.1zm.3-.9c.2 0 .4 0 .4-.3 0-.2-.2-.2-.3-.2h-.3v.5h.2z"/><path d="M54.1 4.8c0-.8.7-1.4 1.4-1.4.8 0 1.4.6 1.4 1.4 0 .8-.6 1.4-1.4 1.4-.7 0-1.4-.6-1.4-1.4zM55.5 6c.6 0 1.1-.5 1.1-1.2s-.5-1.2-1.1-1.2c-.6 0-1.1.5-1.1 1.2S54.9 6 55.5 6z"/></g></g><g transform="translate(0 1050)"><g fill="#FFF"><path d="M58.6.1V10h6.3c1.1 0 2.3-.2 3.3-.5.1 0 .2-.1.3-.1.1 0 .2-.1.3-.1h.1c.8-.4 1.4-.8 2-1.5.6-.8 1-1.7 1-2.7 0-.9-.2-1.7-.7-2.5-.4-.6-.9-1.1-1.5-1.4-.7-.5-1.5-.7-2.4-.9-1-.2-2-.3-3-.3h-5.6c0 .1-.1.1-.1.1zm3.2 1.3h1.7c.5 0 1.1 0 1.6.1.6.1 1.1.3 1.6.5.7.4 1.2.9 1.5 1.7.2.6.2 1.2.2 1.7 0 .4-.2.8-.3 1.1-.4.7-.9 1.1-1.6 1.4-.7.3-1.5.5-2.3.5h-2.4v-7zM46.1 7.9v1.6c.1 0 .3 0 .4.1.8.1 1.5.2 2.3.3.9.1 1.7.1 2.6.1h1.3c1.1-.1 2.2-.3 3.2-.8.4-.2.8-.5 1.1-.8.7-.7.7-1.7.1-2.5-.3-.4-.8-.7-1.3-.9-.4-.2-.9-.3-1.3-.3h-.1.2c.4-.3.9-.5 1.4-.7.3-.1.5-.3.7-.5.4-.5.6-1 .3-1.6-.1-.2-.3-.4-.5-.6-.3-.3-.7-.4-1.1-.6-.5-.2-1.1-.3-1.6-.4C52.5 0 51.3 0 50 0c-1 0-2 .1-2.9.2-.2 0-.5.1-.7.1v1.5c.3-.1.5-.1.8-.2 1.2-.3 2.4-.4 3.6-.4.7 0 1.4.1 2.1.3.3.1.5.2.7.4.3.3.3.6.1.9-.1.2-.2.3-.4.4-.2.1-.4.2-.7.3-.5.2-1 .2-1.5.3-1 .3-1.9.2-2.8.2h-.2v1.4h2.2c.8 0 1.6.1 2.3.3l.9.3.3.3c.4.4.4.9.1 1.3-.2.2-.4.4-.6.5-.4.2-.7.3-1.1.4-.7.1-1.3.2-2 .1-1.1 0-2.1-.2-3.2-.5-.2 0-.5-.1-.7-.1-.1 0-.1 0-.2-.1zm26.1.2v1.6c.2 0 .3.1.5.1.8.1 1.6.2 2.5.2.9 0 1.8 0 2.7-.1.8-.1 1.6-.2 2.4-.5.4-.1.7-.3 1-.6 1-.8 1-2.2.1-3-.3-.3-.7-.6-1.2-.8-.7-.4-1.5-.6-2.2-.9-.6-.2-1.1-.4-1.7-.6-.2-.1-.5-.2-.7-.4l-.3-.3c-.2-.3-.2-.6.1-.9.2-.2.5-.3.7-.4.5-.1 1.1-.2 1.6-.2 1 0 1.9.2 2.8.5.1 0 .3.1.4.1V.3c-.3-.1-.7-.1-1-.2-1.2-.1-2.4-.1-3.6 0-.9.1-1.7.2-2.5.6-.4.2-.7.4-1 .7-.7.7-.7 1.8 0 2.6.2.2.5.4.8.6.5.3 1.1.6 1.7.8.7.3 1.4.5 2 .8.3.1.6.3.8.4l.3.3c.3.3.4.7.1 1.1-.1.2-.3.4-.6.5-.3.1-.6.2-.9.2-.6.1-1.3 0-1.9 0-.6 0-1.2-.1-1.7-.2l-1.2-.3c.1-.1 0-.1 0-.1zm-30-8h-1.9c-.5 0-1 .4-1 1v2.7c0 .5.3.8.7.9h4c.5 0 1-.4 1-1V1c0-.6-.5-1-1-1h-.9c-.3.1-.6.1-.9.1zm0 3.9h-1.7c-.2 0-.3-.1-.3-.3V1.2c0-.2.1-.3.3-.3H44c.2 0 .3.1.3.3v2.5c0 .2-.1.3-.3.3h-1.8zm-9.1.7h3.4c.9 0 1.5-.5 1.8-1.3.3-.8.3-1.7-.1-2.5-.3-.6-.8-1-1.5-1h-3.6c-.1.3-.1 4.7 0 4.8zm.8-3.8h2.6c.5 0 .8.2 1 .7.1.3.2.6.1 1 0 .3-.1.6-.3.9-.2.3-.5.5-.8.5h-2.6V.9zM21.6 2.8h2.8V2h-2.9V.9h3.7V.1h-4.5v4.6h4.6v-.8h-3.7V2.8zm10.1 1.9V0h-.8v3.3l-.1-.1c-1-.9-1.9-1.9-2.9-2.8l-.4-.4c-.1-.1-.1-.1-.2-.1h-.6v4.7h.9V1.2l.1.1c1.1 1 2.2 2.1 3.2 3.1.1.1.2.1.3.1.2.2.3.2.5.2zm-23.1 0h.9V1.3l.1.1c1.1 1 2.2 2.1 3.2 3.1l.1.1.1.1h.6V0h-.8v3.6c-.1 0-.1-.1-.1-.1-1.1-1.1-2.2-2.1-3.3-3.2 0-.2-.1-.2-.2-.2h-.5c-.1.1-.1 4.4-.1 4.6zM0 .1v4.7h.8V1.4c.1 0 .1.1.1.1 1.1 1 2.2 2.1 3.3 3.2.1.1.1.1.2.1h.5V.1h-.8v3.4c0-.1 0-.1-.1-.2-1-1-2-1.9-3-2.9L.7.1.6 0C.4.1.2.1 0 .1zm16.8.8v3.8h.9V.8h2.1V0h-5.1v.8c.7.1 1.3.1 2.1.1zM6.4 4.7h.8V.1h-.9c0 .1 0 4.3.1 4.6zm32.9 1.5V9c0 .5.4.9.9.9h3.9c.5 0 .9-.4.9-.9V6.2c0-.5-.4-.9-.9-.9h-3.9c-.5 0-.9.4-.9.9zm.8.1c0-.2 0-.2.2-.2H44c.2 0 .2 0 .2.2v2.6c0 .2 0 .2-.2.2h-3.7c-.2 0-.2 0-.2-.2V6.3z"/></g></g><g transform="translate(0 1070)"><g><path fill="#FFF" d="M39 1v2.8c0 .5.4.9.9.9h3.8c.5 0 .9-.4.9-.9V1c0-.5-.4-.9-.9-.9h-3.8c-.5 0-.9.4-.9.9zm.8.1c0-.2 0-.2.2-.2h3.7c.2 0 .2 0 .2.2v2.6c0 .2 0 .2-.2.2H40c-.2 0-.2 0-.2-.2V1.1zM39 6.3V9c0 .5.4.9.9.9h3.8c.5 0 .9-.4.9-.9V6.3c0-.5-.4-.9-.9-.9h-3.8c-.5-.1-.9.3-.9.9zm.8 0c0-.2 0-.2.2-.2h3.7c.2 0 .2 0 .2.2v2.6c0 .2 0 .2-.2.2H40c-.2 0-.2 0-.2-.2V6.3zM4.2.1v3.4L.8.1H0v4.6h.8V1.2l3.5 3.5H5V.1zm8.6 0v3.4L9.4.1h-.8v4.6h.8V1.2l3.5 3.5h.7V.1zm17.8 0v3.4L27.2.1h-.8v4.6h.8V1.2l3.5 3.5h.7V.1zM6.4.1h.8v4.6h-.8zm10.3.8v3.8h.9V.9h2.1V.1h-5.1v.8zm3.9-.8v4.6h4.5v-.8h-3.6V2.7h2.8v-.8h-2.8v-1h3.6V.1zm12.2 0v4.6h3.8c.9 0 1.6-1 1.6-2.3S37.5.1 36.6.1h-3.8zm.8.8h2.7c.6 0 1.1.7 1.1 1.5s-.5 1.5-1.1 1.5h-2.7v-3zM45.8.1v9.8H52c4.9 0 7-2.2 7-4.9S56.9.1 52 .1h-6.2zM49 1.4h1.7c3.4 0 4.9 1.6 4.9 3.6s-1.5 3.6-4.9 3.6H49V1.4z"/><g><path fill="#FFF" d="M59.3 9.6V7.9c1.7.4 2.5.6 3.7.6h1.7c.4-.1.6-.1.9-.4.3-.3.3-.6.3-.8 0-.2-.1-.3-.2-.5s-.4-.3-.7-.5c-.4-.2-1.6-.7-2.9-1.2-.6-.1-.9-.2-1.1-.3-.5-.3-1-.6-1.2-.9-.3-.2-.4-.5-.4-.7-.1-.2-.1-.4-.1-.6 0-.5.1-.9.5-1.3s1-.7 1.9-.9c.8-.3 1.9-.4 3.1-.4.7 0 1.2 0 1.9.1.4.1.7.2 1.2.2v1.5c-1.4-.3-2.4-.5-3.4-.5-.7 0-1.2.1-1.7.3-.4.2-.7.4-.7.6v.3c0 .1.1.3.2.3l.3.3c.2.1.4.3.7.4.3.2 1.4.5 1.6.6l1.4.5c.3.2.7.3 1 .5.3.2.5.3.7.5l.4.4.3.6c.3.1.3.5.3.7 0 .4-.1.8-.4 1.2-.3.4-.8.8-1.3 1-.6.2-1.2.4-1.9.5-.7.1-1.2.1-2 .1-.5 0-1.2-.1-1.9-.1-.7-.2-1-.2-2.2-.4z"/></g></g></g><g transform="translate(0 1090)"><g clip-path="url(#notificationa)" fill="#fff"><path fill-rule="evenodd" clip-rule="evenodd" d="M20.917 6.88a1.001 1.001 0 0 0-.545-.294l-5.367-.84c-.21-.041-.378-.083-.504-.21L9.176.753a.963.963 0 0 0-1.09-.168L4.354 2.473l-1.258-1.26c-.377-.377-1.048-.377-1.425 0-.168.168-.294.42-.294.714s.126.504.294.672l1.342 1.343-1.93 3.61c-.209.377-.125.839.127 1.133l4.738 5.33c.125.126.21.336.251.504l.839 5.372c.042.21.126.42.293.546l1.049 1.049L21.965 7.929l-1.048-1.05zm-6.164.503a2.304 2.304 0 0 1-1.384-.587L8.38 2.305 4.858 4.068 2.803 7.929l4.486 4.953c.336.42.546.881.63 1.385l.712 4.617L19.365 8.097l-4.612-.714z"/><path d="M20.707 12.126a.995.995 0 0 0-1.132.84 6.77 6.77 0 0 1-1.887 3.777 6.76 6.76 0 0 1-3.732 1.973c-.545.084-.88.63-.796 1.175.083.546.629.882 1.174.798 1.76-.336 3.438-1.26 4.738-2.56a8.984 8.984 0 0 0 2.432-4.87c.125-.545-.252-1.049-.797-1.133z"/></g><defs><clipPath id="notificationa"><path fill="#fff" d="M0 0h22v22H0z"/></clipPath></defs></g><g transform="translate(0 1130)"><g clip-path="url(#notification-activea)" fill="#fff"><path d="M20.917 6.88a1.001 1.001 0 0 0-.545-.294l-5.367-.84c-.21-.041-.378-.083-.504-.21L9.176.753a.963.963 0 0 0-1.09-.168L4.354 2.473l-1.258-1.26c-.377-.377-1.048-.377-1.425 0-.168.168-.294.42-.294.714s.126.504.294.672l1.342 1.343-1.93 3.61c-.209.377-.125.839.127 1.133l4.738 5.33c.125.126.21.336.251.504l.839 5.372c.042.21.126.42.293.546l1.049 1.049L21.965 7.929l-1.048-1.05zm-.21 5.246a.995.995 0 0 0-1.132.84 6.77 6.77 0 0 1-1.887 3.777 6.76 6.76 0 0 1-3.732 1.973c-.545.084-.88.63-.796 1.175.083.546.629.882 1.174.798 1.76-.336 3.438-1.26 4.738-2.56a8.984 8.984 0 0 0 2.432-4.87c.125-.545-.252-1.049-.797-1.133z"/></g><defs><clipPath id="notification-activea"><path fill="#fff" d="M0 0h22v22H0z"/></clipPath></defs></g><g transform="translate(0 1170)"><g><g><g><g><path fill="#FFF" d="M5.1 10C2.3 10 0 7.8 0 5s2.3-5 5.1-5 5.1 2.2 5.1 5c-.1 2.8-2.3 5-5.1 5zm0-9.2C2.7.8.9 2.7.9 5c0 2.3 1.9 4.2 4.2 4.2 2.3 0 4.2-1.9 4.2-4.2C9.3 2.7 7.4.8 5.1.8z"/></g></g><g><g><path fill="#FFF" d="M15.5 10C13 10 11 8 11 5.6V.7c0-.2.2-.4.4-.4s.4.2.4.4v4.9c0 2 1.6 3.6 3.6 3.6S19 7.6 19 5.6V.7c0-.2.2-.4.4-.4s.4.2.4.4v4.9C20 8 18 10 15.5 10z"/></g></g><g><g><path fill="#FFF" d="M25.7 9.8c-.2 0-.4-.2-.4-.4V7.2C23 7 21.2 5 21.2 2.8V.7c0-.2.2-.4.4-.4s.4.2.4.4v2.1c0 2 1.6 3.6 3.6 3.6s3.6-1.6 3.6-3.6V.7c0-.2.2-.4.4-.4s.4.2.4.4v2.1c0 2.3-1.8 4.2-4.1 4.4v2.2c.2.2 0 .4-.2.4z"/></g></g><g><g><path fill="#FFF" d="M39.6 9.8c-.2 0-.4-.2-.4-.4V6.8h-7.3v2.6c0 .2-.2.4-.4.4s-.4-.2-.4-.4V4.7c0-2.4 2-4.4 4.5-4.4s4.5 2 4.5 4.4v4.7c0 .2-.2.4-.5.4zm-.4-3.9V4.7c0-2-1.6-3.6-3.6-3.6S32 2.7 32 4.7v1.2h7.2z"/></g></g></g><g><path fill="#FFF" d="M40.5 9.6h-.1.3-.2l.1.2h-.1v-.2zm.2-.1l.1.1.1-.1h.1v.3h-.1v-.2l-.1.1-.1-.2v.3-.3z"/></g></g></g><g transform="translate(0 1190)"><path d="M8.299 14.55s.897.6 1.694.6c.798 0 1.097-.6 1.097-.6s-.897-.6-1.695-.6c-.797 0-1.096.6-1.096.6zm3.389-2.2c-1.097.3-1.396 1.3-1.396 1.3s1.595.5 2.691.2c1.097-.3 1.396-1.3 1.396-1.3s-1.595-.5-2.691-.2zm1.794-2.1c-.997.6-.997 1.6-.997 1.6s1.595.1 2.492-.6.997-1.6.997-1.6-1.595 0-2.492.6zm.498-2.7c-.697 1-.498 2.1-.498 2.1s1.296-.4 1.993-1.4c.698-1 .499-2.1.499-2.1s-1.296.4-1.994 1.4zm-.697-.5s1.096-.7 1.594-1.7c.499-1 .1-1.8.1-1.8s-1.096.7-1.595 1.7c-.498 1-.1 1.8-.1 1.8zm.1-3.9c.099-1-.4-1.5-.4-1.5s-.697 1-.897 2c-.1 1 .4 1.5.4 1.5s.796-1 .896-2zm-1.595.4s.199-1 0-1.8c-.2-.7-.798-.9-.798-.9s-.2 1 0 1.7c.2.8.797 1 .797 1zm-5.283 10.3c-.797 0-1.694.6-1.694.6s.398.6 1.196.6c.797 0 1.694-.6 1.694-.6s-.399-.6-1.196-.6zm-2.193-1.5c-1.196-.3-2.69.2-2.69.2s.298.9 1.394 1.3c1.097.3 2.692-.2 2.692-.2s-.2-1-1.396-1.3zm-.797-.5s0-1-.997-1.6c-.997-.6-2.492-.5-2.492-.5s0 1 .997 1.6c.997.6 2.492.5 2.492.5zm-.997-2.2s.2-1.1-.498-2.1S.026 6.15.026 6.15s-.199 1.2.499 2.1c.697 1 1.993 1.4 1.993 1.4zm.2-2.6s.398-.8-.1-1.8c-.499-1-1.595-1.7-1.595-1.7s-.299.8.2 1.8c.498 1 1.494 1.7 1.494 1.7zm.797-1.9s.498-.6.399-1.5c-.1-1-.898-2-.898-2s-.598.5-.398 1.5c.1 1 .897 2 .897 2zm1.495-2.5c.2-.7 0-1.7 0-1.7s-.498.1-.698.8c-.2.7 0 1.8 0 1.8s.499-.2.698-.9zM9.7 8.788l2.29-1.923-2.952-.143-1.07-2.872-1.07 2.872-2.888.143L6.3 8.859l-.792 2.991 2.46-1.71 2.524 1.639-.791-2.991z" fill="#FFC000"/></g><g transform="translate(0 1220)"><g fill-rule="evenodd" clip-path="url(#cards-icons/premium-mka)" clip-rule="evenodd"><path fill-opacity=".2" d="M10.158 2.055l-.27 1.68h-.81v1.399h2.16l-.54 1.96h-1.62v2.798l3.24-2.24v3.36l-4.05 2.8h-.54l-4.048-2.8v-3.36l3.239 2.24V7.093h-1.62l-.54-1.96h2.16V3.735h-.81l-.27-1.68h4.319zM6.43 3.357h.866V5.51h-2.04l.33 1.204h1.71v3.898l-3.24-2.24v2.44l3.789 2.62h.305l3.789-2.62v-2.44l-3.24 2.24V6.715h1.71l.332-1.204H8.7V3.357h.866l.148-.924H6.283l.148.924z"/><path fill-opacity=".2" d="M14.095 11.969l-.027.17-.145.091L8 15.938 2.078 12.23l-.146-.091-.027-.17L0 0h16l-1.905 11.969zM.443.378L2.278 11.91l5.723 3.582 5.72-3.582L15.558.378H.443z"/><path fill="#FFD966" d="M13.723 11.91L8 15.494l-5.722-3.582L.443.379h15.115L13.723 11.91zM6.11 3.738h.81v1.4H4.76l.541 1.96h1.62v2.798l-3.24-2.239v3.36l4.048 2.798h.54l4.05-2.799v-3.36l-3.24 2.24v-2.8h1.62l.54-1.96H9.08V3.738h.81l.27-1.679H5.84l.27 1.68z"/></g><defs><clipPath id="cards-icons/premium-mka"><path fill="#fff" d="M0 0h16v16H0z"/></clipPath></defs></g><g transform="translate(0 1250)"><g clip-path="url(#cards-icons/premium-mta)" fill="#FFC000"><path d="M8.299 14.55s.897.6 1.694.6c.798 0 1.097-.6 1.097-.6s-.897-.6-1.695-.6c-.797 0-1.096.6-1.096.6zm3.389-2.2c-1.097.3-1.396 1.3-1.396 1.3s1.595.5 2.691.2c1.097-.3 1.396-1.3 1.396-1.3s-1.595-.5-2.691-.2zm1.794-2.1c-.997.6-.997 1.6-.997 1.6s1.595.1 2.492-.6.997-1.6.997-1.6-1.595 0-2.492.6zm.498-2.7c-.697 1-.498 2.1-.498 2.1s1.296-.4 1.993-1.4c.698-1 .499-2.1.499-2.1s-1.296.4-1.994 1.4zm-.697-.5s1.096-.7 1.594-1.7c.499-1 .1-1.8.1-1.8s-1.096.7-1.595 1.7c-.498 1-.1 1.8-.1 1.8zm.1-3.9c.099-1-.4-1.5-.4-1.5s-.697 1-.897 2c-.1 1 .4 1.5.4 1.5s.796-1 .896-2zm-1.595.4s.199-1 0-1.8c-.2-.7-.798-.9-.798-.9s-.2 1 0 1.7c.2.8.797 1 .797 1zm-5.283 10.3c-.797 0-1.694.6-1.694.6s.398.6 1.196.6c.797 0 1.694-.6 1.694-.6s-.399-.6-1.196-.6zm-2.193-1.5c-1.196-.3-2.69.2-2.69.2s.298.9 1.394 1.3c1.097.3 2.692-.2 2.692-.2s-.2-1-1.396-1.3zm-.797-.5s0-1-.997-1.6c-.997-.6-2.492-.5-2.492-.5s0 1 .997 1.6c.997.6 2.492.5 2.492.5zm-.997-2.2s.2-1.1-.498-2.1S.026 6.15.026 6.15s-.199 1.2.499 2.1c.697 1 1.993 1.4 1.993 1.4zm.2-2.6s.398-.8-.1-1.8c-.499-1-1.595-1.7-1.595-1.7s-.299.8.2 1.8c.498 1 1.494 1.7 1.494 1.7zm.797-1.9s.498-.6.399-1.5c-.1-1-.898-2-.898-2s-.598.5-.398 1.5c.1 1 .897 2 .897 2zm1.495-2.5c.2-.7 0-1.7 0-1.7s-.498.1-.698.8c-.2.7 0 1.8 0 1.8s.499-.2.698-.9z"/><path fill-rule="evenodd" clip-rule="evenodd" d="M10.472 4.05H5.488l-1.236 1.2.03 4.73 3.698 3.76 3.698-3.76.03-4.73-1.236-1.2zM9.275 8.553l1.715-1.442-2.212-.107-.802-2.154-.802 2.154-2.164.107 1.715 1.496-.593 2.243 1.844-1.282 1.892 1.229-.593-2.244z"/></g><defs><clipPath id="cards-icons/premium-mta"><path fill="#fff" d="M0 0h16v16H0z"/></clipPath></defs></g><g transform="translate(0 1280)"><path fill="#FFF" d="M11 10.1c-.5-1.3-1.3-1.7-2-1.8-.6-.1-1.3-.3-1.6-.5v-.7c.4-.5.6-1 .6-1.3.2-.2.4-.5.6-1.1.1-.3.1-.7-.1-1C8.7 1.5 7.4.4 6.6.2 6.2 0 5.9 0 5.7 0h-.4c-.3 0-.5 0-.8.1-.9.3-2.2 1.4-2 3.6-.2.3-.2.7-.1 1.1.1.6.4.9.6 1 0 .3.2.8.5 1.2 0 0 0 .1.1.1v.7c-.3.2-1 .4-1.5.5-.7.1-1.5.4-2 1.8-.1.2-.1.4 0 .6.5.8 3.2 1.3 5.4 1.3s4.9-.5 5.4-1.3c.1-.2.1-.4.1-.6z"/></g><g transform="translate(0 1310)"><g fill="#010202"><path d="M31 20v-3.4c0-3.2-2.3-5.6-5.6-5.6-3.2 0-5.4 2.4-5.4 5.5V20s-1 .4-1 .7v7.7c0 .3.7 1.4 1 1.6h11c.3-.1 1-1.4 1-1.7v-7.6c0-.3-1-.7-1-.7zm-5 4v3c0 .4-1.1.4-1.1 0v-3c-.5-.3-.9-.5-.9-1 0-1.3.1-2 1-2h1c.6.3 1.2.1 1 2 0 .5-.6.7-1 1zm4-5h-9v-3c0-2.1 1.9-4 4-4s5 1.9 5 4v3z"/><path d="M24 32v4H1V5h23v4.2c.3 0 .4-.1 1 .1V1.7C25-.1 22.8 0 21 0H3.2C1.3 0 0 0 0 1.8v38.5C0 42.1 1.1 43 3 43h18.2c1.9 0 3.7 0 3.7-1.8L25 32c-.7.1-.7 0-1 0zM20.3 2.1c.5 0 .9.4.9.8 0 .5-.4.8-.9.8s-.9-.4-.9-.8.4-.8.9-.8zM8 2h9v1H8V2zm4.7 39.7c-1.2 0-2.2-1-2.2-2.2s1-2.2 2.2-2.2 2.2 1 2.2 2.2-1 2.2-2.2 2.2z"/></g></g><g transform="translate(0 1370)"><g fill="#010202"><path d="M9.4 23.9c.9 0 1.6-.3 1.6-.8 0-.3-.3-.5-.8-.7l.1.1c0 .2-.4.4-.9.4s-.9-.2-.9-.4c0 0 0-.1.1-.1-.5.1-.8.4-.8.7 0 .5.7.8 1.6.8zM25 22.5l.1.1c0 .2-.4.4-.9.4s-.9-.2-.9-.4c0 0 0-.1.1-.1-.5.1-.8.4-.8.7 0 .4.7.8 1.6.8s1.6-.3 1.6-.8c0-.3-.3-.6-.8-.7z"/><path d="M23.7 16.3c-1.2.4-3.4 1.4-5.1 2.1l-1.3.4v.1c-.6.2-1 .4-1.2.4-.6 0-5.6-2.7-7.5-3C3.3 15.2 0 19 0 22.8S4 30 8.6 30c1.8 0 3.5-.5 4.9-1.3 1-.3 2.2-.6 2.8-.6.5 0 1.3.2 2.1.3 1.4.9 3.2 1.5 5.2 1.5 4.6 0 8.3-3.4 8.3-7.2.1-3.7-2.9-8.3-8.2-6.4zM8.4 26.7c-2.4 0-4.3-1.6-4.3-3.5 0-1.3.8-2.4 2-3l6.6 3c0 1.9-1.9 3.5-4.3 3.5zm15.3 0c-2.3 0-4.2-1.5-4.3-3.3l6.3-3.3c1.4.6 2.3 1.8 2.3 3.1 0 1.9-2 3.5-4.3 3.5zm-2.3 7.9h-.1s-3.9.6-5.2.6H16c-1.4 0-5.1-.5-5.1-.5-1.8 0-3.3 1.5-3.3 3.4v1.5c0 1.6.9 3.4 2.6 3.4.2 0 .7-.1.9-.2.4-.1.8-.2 1.2-.4.9-.4 2-.7 3.9-.8h.2c1.7 0 2.8.3 3.7.6.4.1.8.6 1.8.7 1.3.1 2.8-1.8 2.8-3.7v-1.5c0-1.7-1.5-3.1-3.3-3.1zM8.6 38.1c0-1.2.9-2.2 2.1-2.2.4.1 3.9.5 5.2.5h.1c1.3 0 5.2-.6 5.3-.6 1.2 0 2.2 1 2.2 2.2v.4c-1.3-.1-6.2-.4-8.1-.3-1.6 0-5.7.6-6.9.7l.1-.7zm14.3 3c-.3.3-.8.6-1.3.5-.4-.1-.7-.2-1.1-.3-1-.3-2.1-.7-4-.7h-.2c-2.1 0-3.3.5-4.3.9-.4.1-.7.3-1.1.4-1 .2-2-.8-2.1-2 1-.1 5.4-.7 6.9-.7 1.8-.1 6.9.3 8 .3-.1.5-.3 1.1-.8 1.6zm5.7-34.5C26.6 2.7 21.8 0 16.1 0S5.6 2.8 3.6 6.7c2.8-.3 7.8-.8 12.7-.8 4.7 0 9.4.3 12.3.7zm-12.5 6.1c5.4 0 10.4.6 14.7 1.7h.4l-.6-6.5c-2.5-.3-8.3-.9-14.3-.9-6.5 0-13.2.8-14.6 1l-.6 6.4h.4c4.2-1.1 9.2-1.7 14.6-1.7z"/></g></g><g transform="translate(0 1430)"><g><g fill="#FFF"><path d="M3.5 12.1c.5.2 1.3.1 1.9-.1l1.6-.6V13c-.1 0-.2 0-.3.1-1.6.3-3.2.1-4.9-.4C.3 12.3 0 11.4.7 10.9c.6-.5 1.7-.8 1.7-.8l4.5-1.6v1.8l-3.3 1.2c-.5.2-.6.5-.1.6zm16-.6c-.4.5-1.3.8-1.3.8l-6.9 2.5V13l5.1-1.8c.6-.2.7-.5.2-.7-.5-.2-1.3-.1-1.9.1l-3.4 1.2V9.9l.2-.1s1-.3 2.4-.5c1.4-.1 3.1 0 4.4.5 1.5.5 1.6 1.2 1.2 1.7z"/><path d="M12 8.4V3.7c0-.5-.1-1.1-.6-1.2-.4-.1-.6.2-.6.8V15l-3.2-1V0c1.3.2 3.3.8 4.4 1.2 2.7.9 3.6 2.1 3.6 4.6-.1 2.6-1.7 3.5-3.6 2.6z"/></g></g></g><g transform="translate(0 1460)"><g><g fill="#FFF"><path d="M3.5 12.1c.5.2 1.3.1 1.9-.1l1.6-.6V13c-.1 0-.2 0-.3.1-1.6.3-3.2.1-4.9-.4C.3 12.3 0 11.4.7 10.9c.6-.5 1.7-.8 1.7-.8l4.5-1.6v1.8l-3.3 1.2c-.5.2-.6.5-.1.6zm16-.6c-.4.5-1.3.8-1.3.8l-6.9 2.5V13l5.1-1.8c.6-.2.7-.5.2-.7-.5-.2-1.3-.1-1.9.1l-3.4 1.2V9.9l.2-.1s1-.3 2.4-.5c1.4-.1 3.1 0 4.4.5 1.5.5 1.6 1.2 1.2 1.7z"/><path d="M12 8.4V3.7c0-.5-.1-1.1-.6-1.2-.4-.1-.6.2-.6.8V15l-3.2-1V0c1.3.2 3.3.8 4.4 1.2 2.7.9 3.6 2.1 3.6 4.6-.1 2.6-1.7 3.5-3.6 2.6z"/></g></g></g><g transform="translate(0 1490)"><g><g fill="#FFF"><path d="M3.5 12.1c.5.2 1.3.1 1.9-.1l1.6-.6V13c-.1 0-.2 0-.3.1-1.6.3-3.2.1-4.9-.4C.3 12.3 0 11.4.7 10.9c.6-.5 1.7-.8 1.7-.8l4.5-1.6v1.8l-3.3 1.2c-.5.2-.6.5-.1.6zm16-.6c-.4.5-1.3.8-1.3.8l-6.9 2.5V13l5.1-1.8c.6-.2.7-.5.2-.7-.5-.2-1.3-.1-1.9.1l-3.4 1.2V9.9l.2-.1s1-.3 2.4-.5c1.4-.1 3.1 0 4.4.5 1.5.5 1.6 1.2 1.2 1.7z"/><path d="M12 8.4V3.7c0-.5-.1-1.1-.6-1.2-.4-.1-.6.2-.6.8V15l-3.2-1V0c1.3.2 3.3.8 4.4 1.2 2.7.9 3.6 2.1 3.6 4.6-.1 2.6-1.7 3.5-3.6 2.6z"/></g></g></g><g transform="translate(0 1520)"><path fill="#FFF" d="M48.677 10.26V5.935c0-.882.414-1.514 1.298-1.514h5.45c.033 0 .065-.033.065-.066v-.861a.054.054 0 0 0-.005-.022h-6.664c-1.444.183-2.15 1.183-2.15 2.462v4.325c0 .882-.426 1.514-1.298 1.514h-5.755c-.033 0-.065.022-.065.065v.862c0 .036.022.063.048.072h6.534c1.704-.044 2.542-1.125 2.542-2.512zm-22.39 2.513H28.2a.075.075 0 0 0 .048-.072V9.944c0-.882.501-1.493 1.232-1.493h7.882C39.139 8.451 40 7.362 40 5.935c0-1.279-.705-2.28-2.15-2.462H26.252c-.003.007-.009.013-.009.022v.861c0 .044.022.066.065.066h10.389c.883 0 1.297.632 1.297 1.514 0 .883-.414 1.514-1.297 1.514h-8.219c-1.275 0-2.235 1.079-2.235 2.495v2.757c-.001.034.015.061.044.071zM7.312 0c.85.158 1.686.383 2.518.617.476.137.95.28 1.422.431.741.234 1.478.5 2.149.896.3.181.589.386.836.636.267.26.486.568.646.903.292.607.393 1.286.422 1.953.014.435.013.874-.069 1.304a3.064 3.064 0 0 1-.39 1.066 1.942 1.942 0 0 1-.723.694 1.925 1.925 0 0 1-.941.221c-.494.005-.973-.151-1.416-.356-.008-1.465-.001-2.93-.003-4.395-.003-.265.015-.533-.039-.794-.038-.203-.121-.407-.281-.544a.821.821 0 0 0-.382-.178.393.393 0 0 0-.375.144c-.144.179-.182.416-.188.638-.003 3.92 0 7.842-.003 11.764l-3.184-1.004C7.31 9.33 7.311 4.665 7.312 0zM2.541 9.925c1.384-.487 2.766-.979 4.15-1.464.002.54 0 1.08.001 1.621-.001.073.004.147-.005.22-1.094.386-2.186.778-3.279 1.166-.152.057-.307.121-.424.236-.054.054-.099.134-.069.211.037.091.131.141.217.178.24.097.502.111.757.122.285-.004.571-.026.85-.087.189-.037.37-.1.55-.167.467-.168.934-.337 1.402-.504.003.457.001.914.001 1.371-.001.091.004.183-.005.274a10.458 10.458 0 0 1-5.211-.339c-.366-.105-.73-.246-1.036-.477a1.177 1.177 0 0 1-.396-.493.678.678 0 0 1 .02-.53c.077-.163.212-.292.36-.393a6.106 6.106 0 0 1 1.105-.576c.332-.137.675-.246 1.012-.369zm11.133-.615c.314-.036.63-.045.945-.056 1.038.004 2.081.132 3.074.442.195.059.383.135.578.197.346.126.692.278.969.525.166.151.31.354.312.586a.732.732 0 0 1-.199.51c-.235.261-.545.441-.856.598-.331.168-.688.276-1.035.404l-6.363 2.272v-1.771c.003-.024-.01-.065.024-.071 1.614-.571 3.227-1.143 4.841-1.716.218-.081.453-.14.638-.287.076-.059.15-.153.113-.255-.039-.089-.131-.138-.217-.175-.242-.095-.505-.114-.761-.121a3.849 3.849 0 0 0-1.191.18c-1.149.4-2.297.806-3.447 1.205V9.875a12.002 12.002 0 0 1 2.575-.565zm56.259 1.463H68.06c-.032 0-.065-.033-.065-.065V4.42c0-.513-.192-.84-.514-.948h-.546a2.07 2.07 0 0 0-.553.24L55.11 10.63c-.436.272-.589.577-.48.806.087.197.337.338.828.338h10.465c.032 0 .054.022.054.044v.883c0 .044.033.065.065.065h1.886c.033 0 .065-.022.065-.065v-.861c0-.033.033-.065.065-.065h1.875c.044 0 .065-.033.065-.065v-.872c0-.033-.022-.065-.065-.065zm-3.944-.066c0 .033-.033.065-.065.065h-8.777c-.076 0-.109-.022-.12-.044-.012-.044.01-.076.065-.109l8.732-5.371a.109.109 0 0 1 .103-.017c.034.012.062.045.062.105v5.371z"/></g><g transform="translate(0 1550)"><path d="M23.89 2.984v.957h9.528c.262 0 .535.055.773.18.38.172.805.555.805 1.305 0 .734-.426 1.097-.805 1.273a1.72 1.72 0 0 1-.773.172h-7.07c-.41 0-.825.09-1.2.281-.585.297-1.238 1.008-1.238 2.16v2.649h1.836V9.332c0-.176.035-.352.086-.508.152-.402.531-1.027 1.422-1.027h7.125c.242 0 .48-.035.707-.106.652-.191 1.75-.73 1.75-2.28 0-2.407-2.352-2.427-2.352-2.427zm12.364 8.02v.976h5.351c.637 0 1.254-.226 1.75-.644.516-.438.79-1.082.778-1.762V5.426c0-.453.183-.887.547-1.184.242-.191.55-.3.86-.3h4.667v-.958H44.66s-2.402.036-2.402 2.618v3.867c0 .312-.086.629-.238.89a1.292 1.292 0 0 1-1.153.63zm28.441-8.02H52.094v3.47s-.035 1.343 1.597 1.343h7.707c.309 0 .598.05.875.176.43.187.91.59.91 1.394 0 .711-.343 1.13-.687 1.36a1.628 1.628 0 0 1-.945.277h-9.457v.976h10.554s2.403-.105 2.403-2.601c0-1.27-.735-1.899-1.387-2.211a3.42 3.42 0 0 0-1.36-.297h-7.636a.824.824 0 0 1-.36-.086.652.652 0 0 1-.343-.61V3.942h10.73zm2.676 8.77l.274-.805h.207v1.047h-.137v-.871l-.309.871h-.09l-.308-.871v.871h-.137V10.95h.207zm-.926.242h-.136v-.906H66v-.121h.734v.12h-.308zm-48.664 3c.207 0 .395-.09.551-.226a.828.828 0 0 0 0-1.118.722.722 0 0 0-.55-.226c-.43 0-.774.367-.774.8 0 .211.09.403.226.544a.798.798 0 0 0 .547.226zm-.652-.789a.69.69 0 0 1 .187-.469.62.62 0 0 1 .895-.015l.02.015c.253.262.238.68 0 .942a.62.62 0 0 1-.895 0 .656.656 0 0 1-.207-.473zm1.031.367c-.02 0-.02-.015-.02-.035v-.191c0-.032 0-.086-.035-.121-.015-.02-.03-.036-.046-.036a.137.137 0 0 0 .066-.066.372.372 0 0 0 .035-.14.236.236 0 0 0-.12-.208.462.462 0 0 0-.153-.039h-.399v.89h.157v-.366h.242c.035 0 .066 0 .082.015.035.02.054.055.054.09v.207c0 .02 0 .02.016.035v.02h.172zM17.988 14c0 .035-.02.07-.035.105a.212.212 0 0 1-.121.036h-.238v-.246h.258c.035 0 .05 0 .082.02.035 0 .054.05.054.085zM11.344 1.191c2.61.922 3.504 2.055 3.504 4.637 0 2.512-1.512 3.45-3.434 2.512V3.664c0-.539-.101-1.043-.601-1.2-.376-.124-.618.243-.618.782v11.695l-3.09-.992V.008C8.41.25 10.316.84 11.344 1.19zm-.582 11.727l4.96-1.793c.567-.207.653-.488.188-.645-.46-.156-1.285-.101-1.851.106l-3.313 1.184v-1.9l.188-.07a10.51 10.51 0 0 1 2.3-.489c1.336-.156 2.985.02 4.29.524 1.46.473 1.613 1.168 1.253 1.637-.375.472-1.27.82-1.27.82l-6.745 2.441zm-9.336-.188C-.07 12.293-.328 11.406.359 10.88c.637-.469 1.7-.832 1.7-.832l4.43-1.606v1.829l-3.192 1.168c-.567.21-.652.507-.188.648.461.152 1.286.101 1.852-.106l1.527-.558v1.637l-.308.054a9.813 9.813 0 0 1-4.754-.383zm0 0" fill="#fff"/></g><g transform="translate(0 1580)"><defs><style>.cls-1{fill:#fff}</style></defs><path class="cls-1" d="M1 0v11.3L7.1 15l6-3.7V0zm6.1 14.2L3.45 12v-.1c.3-4.4 4.83-7.7 4.83-7.7a4.33 4.33 0 0 1 .49 1.3 15 15 0 0 0 1.48-3.4 11.22 11.22 0 0 0-3.84 0 3.16 3.16 0 0 1 1.08 1 17.57 17.57 0 0 0-5.91 3.2V.7h10.65v1.4a14.06 14.06 0 0 1-3.75 5.6A3.49 3.49 0 0 1 8 6.5a16.63 16.63 0 0 0-1.3 3.2 8.86 8.86 0 0 0 3.3-.3 5.1 5.1 0 0 1-.89-.8 16.73 16.73 0 0 0 3.16-1.8v4.1zM.49 0H0v1.5h.49V0zM14 0h-.49v1.5H14V0z"/></g><g transform="translate(0 1610)"><path fill="#FFF" d="M7.7 9.7l-2.4 2.4c-1.2 1.2-3.2 1.2-4.4 0-1.2-1.2-1.2-3.2 0-4.4L3.6 5C4.8 3.8 6.8 3.8 8 5c.1.1.3.3.4.5l-.7.7c-.2.2-.6.3-.8.1l-.1-.1c-.6-.6-1.5-.6-2 0L2.1 8.9c-.6.6-.6 1.5 0 2 .6.6 1.5.6 2 0l1.5-1.5c.7.3 1.4.4 2.1.3zM12.1.9C10.9-.3 8.9-.3 7.7.9L5.3 3.3c.7-.1 1.4 0 2.1.3l1.5-1.5c.6-.6 1.5-.6 2 0 .6.6.6 1.5 0 2L8.2 6.8c-.6.6-1.5.6-2 0l-.1-.1c-.2-.2-.6-.1-.8.1l-.7.7c.1.2.3.3.4.5 1.2 1.2 3.2 1.2 4.4 0l2.7-2.7c1.2-1.2 1.2-3.2 0-4.4z"/></g><g transform="translate(0 1640)"><path fill="#FFF" d="M10.8 5L6.8.2C6.6.1 6.4 0 6.2 0c-.2 0-.4.1-.5.2-.3.2-.4.7-.1 1l3 3.5H.8c-.5 0-.8.4-.8.8s.3.7.8.7h7.8l-3 3.5c-.3.3-.2.8.1 1.1.1.1.3.2.5.2s.4-.1.6-.3l4-4.8c.1-.1.2-.2.2-.4s-.1-.3-.2-.5z"/></g><g transform="translate(0 1670)"><path d="M1.999 4v22.416l12.098 7.281L26 26.417V4H2zm12.098 28.164l-7.242-4.31v-.096c.666-8.814 9.655-15.328 9.655-15.328.456.817.81 1.685 1.053 2.587a35.251 35.251 0 0 0 3.05-6.802c-3.05-.862-7.627.096-7.627.096a6.978 6.978 0 0 1 2.192 2.012C7.53 12.813 3.814 16.07 3.33 16.549V5.341h21.338V8.12c-.386 1.341-1.931 5.556-7.521 11.017-.462-.7-.79-1.48-.966-2.3 0 0-2.192 4.216-2.481 6.228a18.29 18.29 0 0 0 6.478-.575 14.864 14.864 0 0 1-1.805-1.533 34.44 34.44 0 0 0 6.285-3.449v8.143l-10.562 6.514zM1.043 4H0v2.97h1.043V4zM28 4h-.956v2.97H28V4z" fill="#fff"/></g><g transform="translate(0 1720)" fill="#fff"><path d="M30.87 0H7.78a2.12 2.12 0 0 0-2.14 2.11v5.25h1.12V6.25h25.12v9.14a1 1 0 0 1-1 1h-1.6v1.09h1.6a2.11 2.11 0 0 0 2.13-2.09V2.11A2.11 2.11 0 0 0 30.87 0zm1 3.23H6.76V2.11a1 1 0 0 1 1-1h23.1a1 1 0 0 1 1 1l.01 1.12z"/><path fill-rule="evenodd" clip-rule="evenodd" d="M2.32 8.37h23.61a2.31 2.31 0 0 1 2.32 2.29v13.06A2.3 2.3 0 0 1 25.93 26H2.32A2.302 2.302 0 0 1 0 23.72V10.66a2.31 2.31 0 0 1 2.32-2.29zm5.676 10.513a.48.48 0 0 0 .144-.333l.02-2.72a.48.48 0 0 0-.48-.47H2.75a.47.47 0 0 0-.47.47v2.73a.47.47 0 0 0 .48.46h4.9a.48.48 0 0 0 .336-.137zM21.86 12h-7.312A1.55 1.55 0 0 0 13 13.55v7.31c0 .856.694 1.55 1.55 1.55h7.31a1.55 1.55 0 0 0 1.55-1.55v-7.31A1.55 1.55 0 0 0 21.86 12z"/><path d="M15.855 15.467v3.474l1.737-1.737-1.737-1.737z"/><path d="M17.501 13.727h-2.159l3.478 3.477-3.477 3.476h2.16c.456 0 .894-.18 1.216-.503l2.974-2.973-2.975-2.973a1.72 1.72 0 0 0-1.217-.504z"/></g><g transform="translate(0 1760)" fill-rule="evenodd" clip-rule="evenodd" fill="#FFF"><path d="M0 3.7L6.6 0h15.7L29 3.7V26l-14.5 9L0 26.1V3.7zm21.8-2.1H7.3L1.6 4.8v20.7l12.9 7.7 12.9-7.7V4.8l-5.6-3.2z"/><path d="M25 8l-10.5 6v5.2l6.4-4.1v6.4l-6.4 4-6.4-4V8l6.4 3.6 10.5-6-4.2-2.4-6.3 3.6-6.3-3.6L4 5.6v18.6l10.5 6 10.5-6V8z"/></g><g transform="translate(0 1810)" fill="#fff"><path d="M14.448 21.068c.972-.195 1.944-.324 2.917-.324 1.49 0 2.917.259 4.213.713 3.112-7.001 9.53-11.733 9.53-11.733a17 17 0 0 1 1.231 2.982c1.426-2.464 2.593-5.122 3.5-7.844-3.565-.973-8.816.13-8.816.13.973.583 1.88 1.36 2.529 2.333-8.752 2.852-13.03 6.677-13.549 7.196V1.556h24.439v3.241c-.454 1.556-2.204 6.417-8.622 12.77-.518-.842-.907-1.685-1.102-2.658 0 0-2.528 4.862-2.852 7.196 2.463.26 4.992 0 7.39-.648a17.46 17.46 0 0 1-2.074-1.75c2.528-1.102 4.926-2.399 7.195-4.02v9.4l-11.474 7.13a7.497 7.497 0 0 1-.518 2.075l13.548-8.362V0H14.448v21.068zM13.346 0h-1.167v3.436h1.167V0zm30.921 0h-1.102v3.436h1.102V0zM18.272 26.189l-2.01.842-1.166.454v1.426l1.685-.648v6.741h1.686V26.19h-.195zm3.241 11.214c-1.62-.26-3.046.13-3.111.324 0 .195 1.232.908 2.852 1.167 1.62.26 3.047-.194 3.047-.26 0-.064-1.167-.971-2.788-1.23z"/><path d="M22.94 27.55c.13-.065.259-1.232-.13-2.528s-1.232-2.14-1.297-2.14c-.064 0-.324 1.232.065 2.529.39 1.296 1.232 2.204 1.362 2.14zm1.685 2.27c.13 0 .713-1.102.972-2.593.195-1.491-.259-2.723-.324-2.723s-.778 1.102-.972 2.528c-.26 1.491.13 2.788.324 2.788zm.972 2.852c.26-.26.584-.52.843-.843.065-.065.13-.195.194-.26.908-1.231 1.167-2.592 1.102-2.592-.064-.065-1.36.518-2.463 1.815l-.065.064a6.09 6.09 0 0 0-.777 1.167c-.454.908-.649 1.75-.52 1.815.066.065.844-.389 1.686-1.166zm-1.426 1.944c-1.75.454-3.046 1.556-2.982 1.75.065.195 1.686.325 3.436-.064 1.75-.454 2.982-1.556 2.982-1.62-.065-.195-1.685-.52-3.436-.066zm-12.316-9.594c-.39 1.296-.26 2.528-.13 2.528s1.037-.843 1.361-2.204c.39-1.297.13-2.528.065-2.528s-.907.907-1.296 2.204zm-1.751 4.798c.13 0 .584-1.297.325-2.788-.195-1.491-.973-2.593-.973-2.528-.065 0-.518 1.231-.324 2.722.26 1.491.843 2.593.972 2.593zm.714 3.953c.13-.13-.195-1.62-1.297-2.982-1.102-1.296-2.528-1.944-2.528-1.88-.065.066.194 1.556 1.296 2.918 1.102 1.296 2.399 2.074 2.529 1.944zm2.787 2.529c.065-.195-1.232-1.297-2.982-1.75-1.75-.454-3.37-.066-3.37 0 0 .064 1.166 1.231 2.981 1.62 1.685.519 3.306.324 3.37.13zm-.389 1.102c-1.62.259-2.787 1.166-2.787 1.231 0 .065 1.426.584 3.046.26 1.62-.26 2.853-1.038 2.853-1.167-.065-.195-1.491-.649-3.112-.325z"/></g><g transform="translate(0 1860)"><path fill-rule="evenodd" clip-rule="evenodd" d="M33.174.218H16.899L9.847 5.066v23.161L25.037 39l15.189-10.773V5.066L33.174.218zm-16.817 23.7v-6.463l5.967 4.309h.542v-4.848h-3.254l-1.085-4.31h4.34v-2.154h-1.628l-1.085-3.77h9.765l-1.085 3.77h-1.628v2.155h4.34l-1.085 4.309h-3.255v4.848h.543l5.967-4.31v6.464l-8.68 6.195-8.68-6.195z" fill="#fff"/></g><g transform="translate(0 1910)" fill="#fff"><path d="M32.541 0H18.604l-6.223 5.186v15.558c6.418 0 11.668 4.667 11.668 10.372 0 .842-.13 1.62-.324 2.333l1.815 1.556L38.7 23.92V5.186L32.54 0zm-1.944 22.3l-5.057-3.177-5.056 3.176 1.426-5.834-4.602-3.824 6.028-.39 2.204-5.574 2.204 5.575 6.029.389-4.603 3.824 1.427 5.834zm-17.114 3.889h-.194l-3.177 1.296v1.427l1.686-.649v6.742h1.685v-8.816z"/><path d="M16.53 22.883c-.065 0-.324 1.232.065 2.528s1.231 2.204 1.36 2.204c.13-.065.26-1.232-.129-2.528-.324-1.361-1.231-2.204-1.296-2.204zm2.722 4.213c-.194 1.427.195 2.723.39 2.723.129 0 .712-1.102.972-2.593.194-1.49-.26-2.723-.324-2.723-.065 0-.778 1.102-1.038 2.593zm3.501 1.88c-.065-.065-1.297.519-2.399 1.686l-.194.194c-1.102 1.296-1.426 2.852-1.297 2.982.13.13 1.427-.648 2.529-1.945.064-.065.064-.13.13-.194 1.036-1.297 1.296-2.723 1.23-2.723zm-3.565 5.64c-1.75.454-3.047 1.556-2.982 1.75.064.195 1.685.324 3.435-.065 1.75-.453 2.982-1.555 2.982-1.62-.065-.195-1.685-.519-3.435-.065zm-2.658 2.787c-1.62-.26-3.047.13-3.112.324 0 .195 1.232.908 2.852 1.167 1.621.26 3.047-.194 3.047-.26 0-.064-1.167-.971-2.787-1.23zM8.168 25.41c.388-1.296.13-2.527.064-2.527-.064 0-.972.843-1.296 2.139-.39 1.297-.26 2.528-.13 2.528.13.065.973-.843 1.362-2.14zM5.12 29.82c.13 0 .584-1.297.325-2.788-.195-1.491-.972-2.593-.972-2.528-.065 0-.519 1.231-.325 2.722.26 1.491.843 2.593.973 2.593zm.714 3.953c.13-.13-.195-1.62-1.297-2.982-1.102-1.296-2.528-1.944-2.528-1.88-.065.066.195 1.556 1.297 2.918 1.102 1.296 2.398 2.074 2.528 1.944zm2.787 2.528c.065-.194-1.231-1.296-2.982-1.75-1.75-.454-3.37-.065-3.37 0s1.166 1.231 2.981 1.62c1.686.519 3.306.325 3.371.13zm-.389 1.102c-1.62.26-2.787 1.167-2.787 1.232 0 .065 1.426.583 3.047.26 1.62-.26 2.852-1.038 2.852-1.168 0-.13-1.491-.648-3.112-.324z"/></g><g transform="translate(0 1960)" fill="#fff"><path d="M33.228 7.12l2.087 2.15v12.89l-8.594-8.655L37.771 0l-5.648 3.315H16.9l-4.788 4.972v14.548c.552-.061 1.104-.123 1.718-.123.307 0 .614 0 .921.062l-.184-.184V9.27l3.376-3.5H27.95l-10.498 6.14 4.051 7.98-3.069 3.744c2.271.92 4.174 2.578 5.28 4.604l10.68-4.788-9.514 9.944c-.062.982-.369 1.78-.737 2.64l.798.798 12.83-13.32V8.286l-3.193-3.253-1.35 2.087zM14.69 27.869l-3.008 1.227v1.35l1.596-.613v6.384h1.596v-8.348h-.184zm3.069 10.619c-1.535-.245-2.885.123-2.947.307 0 .184 1.167.86 2.701 1.105 1.535.245 2.885-.184 2.885-.246 0-.061-1.104-.92-2.64-1.166z"/><path d="M19.11 29.158c.122-.061.245-1.166-.123-2.394-.369-1.228-1.167-2.026-1.228-2.026-.061 0-.307 1.167.061 2.394.369 1.228 1.167 2.087 1.29 2.026zm1.595 2.148c.062 0 .123-.122.246-.306.184-.369.491-1.044.614-1.842 0-.123.061-.245.061-.307.184-1.412-.245-2.578-.307-2.578-.061 0-.736 1.044-.92 2.394-.062.368-.062.737-.062 1.043 0 .614.123 1.167.246 1.412.061.123.061.184.122.184zm1.228 2.456c.184-.184.307-.307.491-.553.43-.49.737-1.043.92-1.534.246-.676.37-1.167.308-1.167 0 0-.43.123-.982.491-.43.307-.983.737-1.474 1.29-.122.122-.184.245-.306.43-.799 1.104-1.044 2.27-.921 2.393.184.061 1.043-.43 1.964-1.35zm-1.657 2.086c-1.658.43-2.885 1.474-2.824 1.658.061.184 1.596.307 3.253-.062 1.658-.43 2.824-1.473 2.824-1.534-.061-.184-1.596-.491-3.253-.062zM8.613 26.764c-.369 1.227-.246 2.394-.123 2.394s.982-.798 1.289-2.087c.368-1.228.123-2.394.061-2.394 0 .061-.86.86-1.227 2.087zm-1.658 4.542c.123 0 .553-1.228.307-2.64-.184-1.411-.92-2.455-.92-2.393-.062 0-.492 1.166-.308 2.578.246 1.412.798 2.455.921 2.455zm.675 3.744c.123-.122-.184-1.534-1.227-2.823-1.044-1.29-2.394-1.842-2.394-1.78-.062.06.184 1.473 1.227 2.762 1.044 1.227 2.272 1.964 2.394 1.841zm2.64 2.394c.061-.184-1.166-1.227-2.824-1.657-1.657-.43-3.192-.062-3.192 0 0 .061 1.105 1.166 2.824 1.535 1.719.368 3.13.306 3.192.122zm-.368 1.044c-1.535.246-2.64 1.105-2.64 1.167 0 .061 1.35.552 2.885.245 1.535-.245 2.701-.982 2.701-1.105-.061-.184-1.412-.614-2.946-.307z"/></g><g transform="translate(0 2010)" fill="#fff"><path d="M4.582 8.76v17.484l8.743-8.741-8.743-8.744z"/><path d="M12.868 0H2l17.503 17.503L2.006 35h10.87A8.665 8.665 0 0 0 19 32.465l14.968-14.962L18.99 2.535A8.662 8.662 0 0 0 12.868 0z"/></g><g transform="translate(0 2060)" fill="#fff"><path d="M5.582 7.054h2.216v-5.08H.5v12.76l5.082 3.696V7.054z"/><path d="M18.14 7.054v-5.08h-8.123v5.08h1.52v2.218H7.801v13.472l3.736 2.703v2.707l-5.955-4.313v-2.708L.5 17.438v9.042l13.578 9.869 13.578-9.869v-9.039l-5.08 3.696v2.708l-5.957 4.31v-2.708l3.735-2.703V9.272H16.62V7.054h1.52zm.578 7.906l-2.586 2.149.798 3.292-2.856-1.798-2.852 1.8.8-3.298-2.584-2.148 3.382-.227 1.257-3.162 1.26 3.175 3.382.226v-.009z"/><path d="M22.579 18.426l5.08-3.696V1.974H20.36v5.08h2.219v11.372z"/></g><g transform="translate(0 2110)"><path fill-rule="evenodd" clip-rule="evenodd" d="M14.026 20.587l4.811 3.094-1.35-5.673 4.368-3.7-5.707-.386-2.122-5.44-2.122 5.44-5.707.385 4.367 3.701-1.35 5.673 4.812-3.094zM1.5 25.263V7.048L7.39 2h13.273l5.89 5.048v18.215L14.026 36 1.5 25.263z" fill="#fff"/></g><g transform="translate(0 2160)" fill="#fff"><path d="M17.359 3.923C17.359 1.757 15.2 0 12.51 0 9.82 0 7.663 1.757 7.663 3.923v1.82L0 5.868V30l25.053-.094V5.774h-7.694V3.923zm-1.033 4.8c.125.126.25.19.407.19a.504.504 0 0 0 .407-.19c.125-.125.187-.25.187-.407V6.84c.282.126.5.314.657.565.156.25.25.533.25.847 0 .283-.062.565-.219.785-.125.25-.344.439-.594.565-.25.125-.532.188-.782.188-.281 0-.531-.094-.782-.251a1.727 1.727 0 0 1-.531-.628c-.126-.25-.157-.533-.157-.816.031-.282.125-.533.282-.753a1.33 1.33 0 0 1 .657-.502v1.475c.062.157.125.314.218.408zm-7.475-4.8c0-1.507 1.627-2.73 3.66-2.73 1.97 0 3.66 1.223 3.66 2.73v1.82H8.85v-1.82zM6.975 7.406c.156-.251.406-.44.657-.565v1.475c0 .157.062.314.187.408.125.125.25.188.407.188a.504.504 0 0 0 .406-.188c.125-.126.188-.251.188-.408V6.84c.25.094.47.282.626.502.156.22.25.47.281.753.031.283-.031.534-.125.785-.125.25-.282.47-.532.627-.219.157-.5.251-.75.251a1.355 1.355 0 0 1-.782-.156 1.626 1.626 0 0 1-.595-.534c-.156-.22-.219-.502-.25-.784v-.063c.031-.283.125-.565.282-.816zM5.223 26.579V11.925H19.83v14.654H5.223z"/><path d="M8.715 16.82v4.887l2.501-2.444-2.501-2.444z"/><path d="M11.078 14.316H8l4.957 4.948-4.955 4.947h3.078c.65 0 1.274-.258 1.734-.717l4.239-4.23-4.241-4.231a2.455 2.455 0 0 0-1.734-.717z"/></g><g transform="translate(0 2200)"><path fill="#FFF" d="M39.9 3.9v13s-2.5-.1-3 0-2.2.6-3.4-.6C31.6 14.4 25 7.6 25 7.6s-1.1-1.2-3-.2c-1.7.9-4.2 2.3-5.2 2.8-.4.3-.8.4-1.3.4-1.3 0-2.3-1.1-2.3-2.4 0-1 .6-1.9 1.5-2.2C17 4.5 22 1.6 24.1.5c1.3-.7 2.2-.8 3.9.8 2.2 1.9 4.1 3.6 4.1 3.6s.9.4 1.6.3c1.5-.3 6.3-1.5 6.3-1.5l-.1.2zM13.6 25c.3-.9.2-1.8-.4-2.5-.6-.6-1.4-.7-2.1-.6.2-.8.1-1.6-.5-2.2-.6-.6-1.4-.7-2.2-.5.2-.8.1-1.6-.5-2.2-.8-1-2.3-.9-3.3 0-1 1-1.6 2.8-.7 3.8.9 1 1.9.4 2.7.2-.2.8-.9 1.5-.1 2.6.8 1 1.9.4 2.7.2-.2.8-.8 1.6-.1 2.6.8 1 2 .5 2.9.2-.3.9-1 1.8-.1 2.8.9 1 2.9.6 3.9-.4s1.1-2.5.2-3.5c-.7-.6-1.6-.8-2.4-.5zm18-6.6c-7.1-7.4-3.8-3.9-7.6-7.9 0 0-1.2-1.2-2.7-.5-1.1.5-2.5 1.2-3.5 1.7-1.1.6-2.1.8-2.4.8-2.2 0-4-1.9-4-4.1 0-1.5.8-2.8 1.9-3.5 1.6-1.1 5.3-3.2 5.3-3.2S17.5.2 15 .2c-2.4 0-7.6 3.5-7.6 3.5s-1.3.9-3.4.1L0 2.3v14.4s1.1.3 2.2.8c.2-.7.6-1.3 1.1-1.8C5 14 7.8 14 9.4 15.7c.5.5.8 1.1 1 1.8.6.2 1.2.6 1.6 1 .5.5.8 1.1 1 1.8.6.2 1.2.6 1.6 1 .5.5.9 1.2 1 1.9.6.2 1.2.6 1.7 1.1.9 1 1.3 2.3 1.1 3.6 0 0 .6.7.9 1 .7.7 1.8.7 2.5 0s.7-1.9 0-2.6l-.1-.1c-2.3-2.4-2.4-2.6-2.2-2.8.2-.2.6.3 3.1 3 .1.1.1.2.2.2.7.7 1.8.7 2.5 0s.7-1.9 0-2.6l-.1-.1-.1-.1c-2.4-2.4-2.6-2.9-2.4-3.1.2-.2 1.3 1 3.6 3.5.7.7 1.8.6 2.4-.1.6-.7.7-1.7.1-2.4 0 0 0-.1-.1-.1-3-3.1-2.8-3.1-2.7-3.3.2-.2.2-.2 3.1 2.8.7.7 1.8.7 2.5 0 .8-.7.8-1.9 0-2.7.1.1.1.1 0 0zm0 0"/></g><g transform="translate(0 2250)" fill="#fff"><path d="M27.754 34.17a1.605 1.605 0 0 0 1.15.529 1.59 1.59 0 0 0 1.173-.477l2.235-2.254a1.619 1.619 0 0 0 .471-1.184 1.63 1.63 0 0 0-.523-1.16l-9.89-9.212-3.742 3.777 9.126 9.981zM15.424 2.501c-2.603-.03-5.013.627-7.012 2.263C6.032 6.711 3.237 8.42 2.876 12c-.076.747-.513.9-1.176.447-.554-.377-1.082-.17-1.463.346s-.203.982.194 1.39c.818.838 1.646 1.665 2.47 2.499.442.449.947.634 1.499.245.534-.372.713-.92.318-1.469-.517-.719-.033-1.012.454-1.32.654-.412 1.366-.638 2.132-.43.442.12.816.134 1.163-.208l.4-.389 4.705 5.543.676-.681 1.88-1.898.764-.77-5.426-4.688c.47-.854 0-1.826-.158-2.647-.144-.783.116-1.483.577-2.116.929-1.273 2.207-1.994 3.69-2.39.105-.026.211-.043.318-.053.545-.066.505-.885-.044-.891l-.425-.018z"/><path d="M34.634 9.994a7.17 7.17 0 0 0 0-1.059.699.699 0 0 0-.435-.592.684.684 0 0 0-.718.135l-2.807 2.591a2.735 2.735 0 0 1-2.406.675l-1.29-.27a1.508 1.508 0 0 1-.758-.414 1.53 1.53 0 0 1-.41-.766l-.268-1.302a2.794 2.794 0 0 1 .668-2.428l2.568-2.833a.699.699 0 0 0-.456-1.165 6.783 6.783 0 0 0-.596-.019 7.184 7.184 0 0 0-4.987 2.132 7.318 7.318 0 0 0-2.114 5.033c-.009.721.093 1.44.301 2.129a1.933 1.933 0 0 1-.534 1.956L3.49 29.692a2.195 2.195 0 0 0-.656 1.997 3.704 3.704 0 0 0 1.039 1.977c.54.535 1.232.888 1.98 1.01A2.128 2.128 0 0 0 7.758 34l15.749-17.058a1.902 1.902 0 0 1 1.966-.525 6.897 6.897 0 0 0 2.587.27 7.188 7.188 0 0 0 4.504-2.13 7.314 7.314 0 0 0 2.07-4.564z"/></g><g transform="translate(0 2300)"><path fill-rule="evenodd" clip-rule="evenodd" d="M0 32.813l5.714-7.027-3.287-3.43V7.89l4.537-4.736h14.363L26.685 0 16.261 12.819l8.113 8.23V8.781L22.4 6.741l1.274-2.005 3.01 3.112v14.477L14.542 35l-4.937-5.152 2.47-.762 2.467 2.576 8.986-9.382L0 32.812zm7.182-8.832l4.138-5.088-3.82-7.601 9.903-5.829H7.948L4.737 8.817v12.611l2.445 2.553z" fill="#fff"/></g><g transform="translate(0 2350)"><defs><style>.cls-2{fill:#c9c9c9}</style></defs><path d="M7.604-.014v1.086H1.093v9.044h6.511v1.085H.008V-.014h7.596zm1.922 3.161c.027.008.06.025.089.053l2.964 2.215c.115.114.115.243 0 .357L9.615 7.987c-.115.114-.232.064-.232-.108V6.45l-5.957-.105v-1.5l5.957-.109V3.307c0-.128.062-.184.143-.16z" id="path-1" class="cls-2" fill-rule="evenodd"/></g><g transform="translate(0 2380)"><g fill="#FFF"><path d="M9 6H3l1-3h4zm-3 4H0l1-3h4zm6 0H7l1-3h3z"/><path d="M10 5L9 2H6l2-2h4l1 3zm1 1l2 2v1h2l2-2V6l-2-2h-2z"/></g></g><g transform="translate(0 2400)"><path fill="#FFF" d="M11.7 3.7c0 .9.7 1.6 1.6 1.6.9 0 1.6-.7 1.6-1.6s-.7-1.6-1.6-1.6c-.9 0-1.6.7-1.6 1.6zm4.2-2.6c-1.5-1.4-3.8-1.4-5.3 0-.6.6-.9 1.3-1.1 2.1L6.2 8.3c-.5 0-.9.1-1.3.3l-2.6-2c-.6-.5-1.5-.4-2 .2-.5.6-.4 1.5.2 2l2.6 2c-.3 1.1 0 2.3.9 3.2 1.3 1.3 3.4 1.3 4.7 0 .8-.8 1.1-1.9.9-2.9l4.1-3.7c.8-.1 1.5-.5 2.1-1 1.6-1.5 1.6-3.9.1-5.3zM6.4 13.9c-1.2 0-2.2-1-2.2-2.2l1.1.9c.3.2.6.3.9.3.4 0 .8-.2 1.1-.5.5-.6.4-1.5-.2-2l-1.2-.9h.5c1.2 0 2.2 1 2.2 2.2 0 1.2-1 2.2-2.2 2.2zm6.9-7.5c-1.5 0-2.7-1.2-2.7-2.6s1.2-2.6 2.7-2.6c1.5 0 2.7 1.2 2.7 2.6s-1.3 2.6-2.7 2.6z"/></g><g transform="translate(0 2430)"><path d="M9.316 15.329s1.007.671 1.902.671c.896 0 1.231-.671 1.231-.671s-1.007-.672-1.902-.672c-.895-.111-1.23.672-1.23.672zm3.805-2.574c-1.231.336-1.567 1.455-1.567 1.455s1.79.56 3.021.224c1.23-.336 1.567-1.455 1.567-1.455s-1.79-.447-3.021-.224zm2.014-2.35c-1.12.672-1.12 1.79-1.12 1.79s1.79.113 2.798-.67c1.007-.784 1.119-1.79 1.119-1.79s-1.79.111-2.797.67zm.559-2.909c-.783 1.12-.56 2.35-.56 2.35S16.59 9.4 17.373 8.28c.784-1.12.56-2.35.56-2.35s-1.455.448-2.238 1.566zm-.783-.559s1.23-.783 1.79-1.902c.56-1.119.112-2.014.112-2.014s-1.23.783-1.79 1.902c-.56 1.007-.112 2.014-.112 2.014zm.112-4.364c.112-1.119-.448-1.678-.448-1.678s-.783 1.119-1.007 2.238c-.112 1.119.448 1.678.448 1.678s.895-1.119 1.007-2.238zm-1.79.448s.223-1.119 0-2.014C13.008.224 12.336 0 12.336 0s-.223 1.119 0 1.902a1.92 1.92 0 0 0 .896 1.119zm-5.93 11.413c-.896 0-1.903.671-1.903.671s.448.671 1.343.671 1.902-.671 1.902-.671-.448-.671-1.343-.671zM4.84 12.755c-1.343-.335-3.021.224-3.021.224s.335 1.007 1.566 1.455c1.231.335 3.021-.224 3.021-.224s-.224-1.007-1.566-1.455zm-.895-.56s0-1.118-1.12-1.79C1.709 9.736.03 9.847.03 9.847s0 1.12 1.118 1.79c1.12.672 2.798.56 2.798.56zm-1.12-2.349s.225-1.23-.559-2.35C1.484 6.378.03 5.93.03 5.93s-.224 1.343.559 2.35c.783 1.007 2.238 1.566 2.238 1.566zm.225-2.909s.447-.895-.112-2.014c-.56-1.119-1.79-1.902-1.79-1.902s-.336.895.223 2.014c.56 1.007 1.679 1.902 1.679 1.902zm.895-2.126s.56-.671.447-1.678C4.281 2.013 3.386.895 3.386.895s-.671.56-.447 1.678c.112 1.12 1.007 2.238 1.007 2.238zm1.678-2.797c.224-.783 0-1.902 0-1.902s-.56.112-.783.895c-.224.783 0 2.014 0 2.014s.56-.336.783-1.007z" fill="#FFD200"/><path fill-rule="evenodd" clip-rule="evenodd" d="M11.778 3.58H6.183L4.841 4.923v5.259l4.14 4.252 4.14-4.252V4.923c0-.112-1.343-1.343-1.343-1.343zm-1.343 5.035l1.902-1.566-2.461-.112-.895-2.461-.895 2.461-2.462.112 1.902 1.678-.671 2.462 2.014-1.455 2.126 1.343c.112 0-.56-2.462-.56-2.462z" fill="#128040" fill-opacity=".7"/></g><g transform="translate(0 2460)"><g><g><path fill="#FFF" d="M3.8 17c-.1 0-.2-.1-.2-.2v-.1L6 13.4c.1-.1.2-.1.3-.1h2.8v2.6l-.7.6c-.5.4-1 .5-1.9.5H3.8z"/><g><defs><path id="platforms/tizena" d="M3.8 17c-.1 0-.2-.1-.2-.2v-.1L6 13.4c.1-.1.2-.1.3-.1h2.8v2.6l-.7.6c-.5.4-1 .5-1.9.5H3.8z"/></defs><use xlink:href="#platforms/tizena" overflow="visible" fill="#FFF"/><clipPath id="platforms/tizenb"><use xlink:href="#platforms/tizena" overflow="visible"/></clipPath><g clip-path="url(#platforms/tizenb)"><image overflow="visible" width="10" height="17" xlink:href="142FF4CD.png" transform="matrix(.24 0 0 .24 6.866 13.118)"/></g></g><path fill="#FFF" d="M9.8 10.3c0-.1-.1-.1-.2-.1l-.4.1c-.1 0-.1.1-.1.2v3.8c0 .9-.3 1.7-.7 2.1l3.5-2.9c.2-.1.2-.4.1-.5l-2.2-2.7z"/><g><defs><path id="platforms/tizenc" d="M9.8 10.3c0-.1-.1-.1-.2-.1l-.4.1c-.1 0-.1.1-.1.2v3.8c0 .9-.3 1.7-.7 2.1l3.5-2.9c.2-.1.2-.4.1-.5l-2.2-2.7z"/></defs><use xlink:href="#platforms/tizenc" overflow="visible" fill="#FFF"/><clipPath id="platforms/tizend"><use xlink:href="#platforms/tizenc" overflow="visible"/></clipPath><g clip-path="url(#platforms/tizend)"><image overflow="visible" width="21" height="16" xlink:href="142FF4CF.png" transform="matrix(.24 0 0 .24 7.133 12.967)"/></g></g><path fill="#FFF" d="M9.1 14.4c0 .9-.3 1.7-.8 2.1-.5.4-1 .5-1.9.5.9 0 1.5-.1 1.9-.5.5-.4.8-1.3.8-2.1z"/></g><g><path fill="#FFF" d="M0 6.8c0-.1 0-.2.1-.3h.1L4 7.7c.1 0 .2.1.2.2l.9 2.6-2.5.8-.8-.5c-.4-.3-.7-.8-1-1.6L0 6.8z"/><g><defs><path id="platforms/tizene" d="M0 6.8c0-.1 0-.2.1-.3h.1L4 7.7c.1 0 .2.1.2.2l.9 2.6-2.5.8-.8-.5c-.4-.3-.7-.8-1-1.6L0 6.8z"/></defs><use xlink:href="#platforms/tizene" overflow="visible" fill="#FFF"/><clipPath id="platforms/tizenf"><use xlink:href="#platforms/tizene" overflow="visible"/></clipPath><g clip-path="url(#platforms/tizenf)"><image overflow="visible" width="19" height="12" xlink:href="142FF4CA.png" transform="matrix(.24 0 0 .24 .983 8.416)"/></g></g><path fill="#FFF" d="M8.3 10.3v-.2L8 9.8c0-.1-.1-.1-.2-.1l-3.6 1.2c-.8.3-1.7.3-2.3 0l3.9 2.4c.2.1.4.1.5-.1l2-2.9z"/><g><defs><path id="platforms/tizeng" d="M8.3 10.3v-.2L8 9.8c0-.1-.1-.1-.2-.1l-3.6 1.2c-.8.3-1.7.3-2.3 0l3.9 2.4c.2.1.4.1.5-.1l2-2.9z"/></defs><use xlink:href="#platforms/tizeng" overflow="visible" fill="#FFF"/><clipPath id="platforms/tizenh"><use xlink:href="#platforms/tizeng" overflow="visible"/></clipPath><g clip-path="url(#platforms/tizenh)"><image overflow="visible" width="20" height="18" xlink:href="142FF4CB.png" transform="matrix(.24 0 0 .24 1.7 9.347)"/></g></g><path fill="#FFF" d="M4.2 10.9c-.8.3-1.7.3-2.3-.1-.5-.3-.8-.8-1.1-1.6.3.8.6 1.3 1.1 1.6.5.4 1.4.3 2.3.1z"/></g><g><path fill="#FFF" d="M8.7 0c.1 0 .3 0 .3.1v4.1c0 .1-.1.2-.1.3L6.7 6.1 5.2 4l.2-.9c.1-.6.5-1 1.2-1.5L8.7 0z"/><g><defs><path id="platforms/tizeni" d="M8.7 0c.1 0 .3 0 .3.1v4.1c0 .1-.1.2-.1.3L6.7 6.1 5.2 4l.2-.9c.1-.6.5-1 1.2-1.5L8.7 0z"/></defs><use xlink:href="#platforms/tizeni" overflow="visible" fill="#FFF"/><clipPath id="platforms/tizenj"><use xlink:href="#platforms/tizeni" overflow="visible"/></clipPath><g clip-path="url(#platforms/tizenj)"><image overflow="visible" width="16" height="18" xlink:href="142FF4D5.png" transform="matrix(.24 0 0 .24 4.95 1.97)"/></g></g><path fill="#FFF" d="M7.8 8.9c.1 0 .2 0 .2-.1l.3-.4v-.2l-2.2-3c-.6-.7-.9-1.5-.7-2.1L4.3 7.4c0 .2.1.4.3.5l3.2 1z"/><g><defs><path id="platforms/tizenk" d="M7.8 8.9c.1 0 .2 0 .2-.1l.3-.4v-.2l-2.2-3c-.6-.7-.9-1.5-.7-2.1L4.3 7.4c0 .2.1.4.3.5l3.2 1z"/></defs><use xlink:href="#platforms/tizenk" overflow="visible" fill="#FFF"/><clipPath id="platforms/tizenl"><use xlink:href="#platforms/tizenk" overflow="visible"/></clipPath><g clip-path="url(#platforms/tizenl)"><image overflow="visible" width="13" height="22" xlink:href="142FF4D7.png" transform="matrix(.24 0 0 .24 4.149 2.857)"/></g></g><path fill="#FFF" d="M6.1 5.2c-.6-.7-.8-1.5-.7-2.1.1-.6.5-1 1.2-1.5-.7.4-1.1.9-1.2 1.5-.2.6.1 1.4.7 2.1z"/></g><g><path fill="#FFF" d="M17.9 6.1c.1.1.1.2.1.3l-.1.1L14 7.7h-.3l-2.2-1.6L13 4l1-.1c.6 0 1.1.2 1.9.7l2 1.5z"/><g><defs><path id="platforms/tizenm" d="M17.9 6.1c.1.1.1.2.1.3l-.1.1L14 7.7h-.3l-2.2-1.6L13 4l1-.1c.6 0 1.1.2 1.9.7l2 1.5z"/></defs><use xlink:href="#platforms/tizenm" overflow="visible" fill="#FFF"/><clipPath id="platforms/tizenn"><use xlink:href="#platforms/tizenm" overflow="visible"/></clipPath><g clip-path="url(#platforms/tizenn)"><image overflow="visible" width="17" height="18" xlink:href="142FF4DA.png" transform="matrix(.24 0 0 .24 11.256 3.371)"/></g></g><path fill="#FFF" d="M9.1 8c0 .1.1.2.1.2l.4.1c.1 0 .2 0 .2-.1l2.3-3.1c.5-.6 1.2-1.1 1.9-1.2l-4.6.3c-.2 0-.4.2-.4.4L9.1 8z"/><g><defs><path id="platforms/tizeno" d="M9.1 8c0 .1.1.2.1.2l.4.1c.1 0 .2 0 .2-.1l2.3-3.1c.5-.6 1.2-1.1 1.9-1.2l-4.6.3c-.2 0-.4.2-.4.4L9.1 8z"/></defs><use xlink:href="#platforms/tizeno" overflow="visible" fill="#FFF"/><clipPath id="platforms/tizenp"><use xlink:href="#platforms/tizeno" overflow="visible"/></clipPath><g clip-path="url(#platforms/tizenp)"><image overflow="visible" width="22" height="8" xlink:href="142FF4DB.png" transform="matrix(.24 0 0 .24 9.023 3.848)"/></g></g><path fill="#FFF" d="M12.1 5.2C12.6 4.5 13.3 4 14 4c.6 0 1.1.1 1.9.6-.7-.5-1.3-.7-1.9-.7-.7.1-1.4.6-1.9 1.3z"/></g><g><path fill="#FFF" d="M14.9 16.6c0 .1-.2.2-.3.1 0 0-.1 0-.1-.1l-2.4-3.2c-.1-.1-.1-.2-.1-.3l.9-2.6 2.5.8.4.9c.2.5.2 1.1-.1 1.9l-.8 2.5z"/><g><defs><path id="platforms/tizenq" d="M14.9 16.6c0 .1-.2.2-.3.1 0 0-.1 0-.1-.1l-2.4-3.2c-.1-.1-.1-.2-.1-.3l.9-2.6 2.5.8.4.9c.2.5.2 1.1-.1 1.9l-.8 2.5z"/></defs><use xlink:href="#platforms/tizenq" overflow="visible" fill="#FFF"/><clipPath id="platforms/tizenr"><use xlink:href="#platforms/tizenq" overflow="visible"/></clipPath><g clip-path="url(#platforms/tizenr)"><image overflow="visible" width="19" height="13" xlink:href="142FF4DD.png" transform="matrix(.24 0 0 .24 12.079 10.368)"/></g></g><path fill="#FFF" d="M10.3 8.9c-.1 0-.1.1-.1.2v.4c0 .1.1.2.1.2l3.6 1.2c.8.3 1.6.8 1.8 1.4L14 8.2c-.1-.2-.3-.3-.5-.2l-3.2.9z"/><g><defs><path id="platforms/tizens" d="M10.3 8.9c-.1 0-.1.1-.1.2v.4c0 .1.1.2.1.2l3.6 1.2c.8.3 1.6.8 1.8 1.4L14 8.2c-.1-.2-.3-.3-.5-.2l-3.2.9z"/></defs><use xlink:href="#platforms/tizens" overflow="visible" fill="#FFF"/><clipPath id="platforms/tizent"><use xlink:href="#platforms/tizens" overflow="visible"/></clipPath><g clip-path="url(#platforms/tizent)"><image overflow="visible" width="11" height="23" xlink:href="EAEE61A6.png" transform="matrix(.24 0 0 .24 13.464 7.689)"/></g></g><path fill="#FFF" d="M14 10.9c.8.3 1.5.8 1.8 1.4.2.5.2 1.1-.1 1.9.3-.8.3-1.4.1-2-.3-.6-1-1.1-1.8-1.3z"/></g><g><path fill="#FFF" d="M3.8 17c-.1 0-.2-.1-.2-.2v-.1L6 13.4c.1-.1.2-.1.3-.1h2.8v2.6l-.7.6c-.5.4-1 .5-1.9.5H3.8z"/><g><defs><path id="platforms/tizenu" d="M3.8 17c-.1 0-.2-.1-.2-.2v-.1L6 13.4c.1-.1.2-.1.3-.1h2.8v2.6l-.7.6c-.5.4-1 .5-1.9.5H3.8z"/></defs><use xlink:href="#platforms/tizenu" overflow="visible" fill="#FFF"/><clipPath id="platforms/tizenv"><use xlink:href="#platforms/tizenu" overflow="visible"/></clipPath><g clip-path="url(#platforms/tizenv)"><image overflow="visible" width="10" height="17" xlink:href="EAEE61A1.png" transform="matrix(.24 0 0 .24 6.866 13.118)"/></g></g><path fill="#FFF" d="M9.8 10.3c0-.1-.1-.1-.2-.1l-.4.1c-.1 0-.1.1-.1.2v3.8c0 .9-.3 1.7-.7 2.1l3.5-2.9c.2-.1.2-.4.1-.5l-2.2-2.7z"/><g><defs><path id="platforms/tizenw" d="M9.8 10.3c0-.1-.1-.1-.2-.1l-.4.1c-.1 0-.1.1-.1.2v3.8c0 .9-.3 1.7-.7 2.1l3.5-2.9c.2-.1.2-.4.1-.5l-2.2-2.7z"/></defs><use xlink:href="#platforms/tizenw" overflow="visible" fill="#FFF"/><clipPath id="platforms/tizenx"><use xlink:href="#platforms/tizenw" overflow="visible"/></clipPath><g clip-path="url(#platforms/tizenx)"><image overflow="visible" width="21" height="16" xlink:href="EAEE61A2.png" transform="matrix(.24 0 0 .24 7.133 12.967)"/></g></g><path fill="#FFF" d="M9.1 14.4c0 .9-.3 1.7-.8 2.1-.5.4-1 .5-1.9.5.9 0 1.5-.1 1.9-.5.5-.4.8-1.3.8-2.1z"/></g></g></g><g transform="translate(0 2490)"><g fill="#FFF"><path d="M3.6 14.5c.9-.2 3.1-.6 3.3-1.1.1-.2.1-.4.1-.7.5.4 1.2.7 2 .8h.1c.7 0 1.5-.3 2.2-.8 0 .3 0 .6.1.7.2.5 2.2 1 3 1.1.2 0 .4.1.6.2v-1.1h-.2c-.9-.2-2.1-.5-2.5-.7v-1.2l.1-.1c.6-.7.8-1.4.9-1.9.4-.3.7-.7 1-1.7.1-.6.2-1.3-.2-1.8.4-3.5-1.9-5.3-3.2-5.7-.5-.1-1-.2-1.4-.2h-.6C8.4.2 8 .2 7.5.4 6.1.9 3.9 2.6 4.2 6.1c-.4.6-.3 1.3-.2 1.8.2 1 .6 1.4 1 1.7.1.5.4 1.2.9 1.9l.1.1v1.2c-.4.2-1.6.6-2.5.7-1.1.2-2.5.7-3.4 2.9-.1.4-.1.8.2 1.2.8 1.2 5.3 2 8.9 2 1.6 0 3.3-.2 4.9-.4v-1.1c-1.4.3-3.1.5-4.9.5-4.1 0-8.1-1-7.8-1.8.7-1.8 1.4-2.2 2.2-2.3zm2.3-5.6c-.1 0-.6-.1-.9-1.2-.2-.9 0-1 .2-1h.1c-.7-4.1 2.5-5.3 2.5-5.3.4-.1.8-.2 1.1-.2h.6c.3 0 .7 0 1.1.2 0 0 3.2 1.1 2.4 5.2h.1c.2 0 .4.1.2 1-.3 1.1-.7 1.2-.8 1.2s-.1 1.1-1 2.2c-.8.8-1.6 1.2-2.3 1.1-1 0-1.7-.7-2.1-1.1-1.2-1-1.2-2.1-1.2-2.1zm14.9 6.9v-1.7c0-1.1-1-2-2.3-2-1.2 0-2.3.9-2.3 2v1.7s-1.2 0-1.2.1v5.9c0 .1.1.1.2.1h6.6c.1 0 .2-.1.2-.1v-5.9c0-.1-1.2-.1-1.2-.1zm-1.8 4h-1v-2h1v2zm.8-4h-2.6v-1.7c0-.7.6-1.2 1.3-1.2s1.3.5 1.3 1.2v1.7z"/></g></g><g transform="translate(0 2530)"><g fill="#FFF"><path d="M13.9 13.9h1v-1.2c-.4-.2-.8-.3-1.2-.4-.9-.2-1.9-.5-2.3-.7v-1.1l.1-.1c.5-.7.8-1.3.9-1.8.3-.2.7-.7.9-1.6.1-.5.2-1.1-.2-1.6.3-3.2-1.7-4.8-2.9-5.3h-2c-.3 0-.8 0-1.2.2-1.3.4-3.4 2-3 5.3-.4.4-.3 1.1-.2 1.6.2.9.5 1.3.9 1.6.1.4.3 1 .8 1.7 0 0 0 .1.1.1v1.1c-.4.2-1.5.5-2.3.7-1 .2-2.3.6-3.1 2.6-.1.3-.1.7.1 1 .8 1.1 4.9 1.9 8.2 1.9 1.8 0 3.8-.2 5.4-.6v-3.4zm7.8 1h-1v-1.7c0-1.1-1-2-2.3-2-1.2 0-2.3.9-2.3 2v1.7h-1c-.1 0-.2 0-.2.1v5.9c0 .1.1.1.2.1h6.6c.1 0 .2-.1.2-.1V15c0-.1-.1-.1-.2-.1zm-2.8 4h-1v-2h1v2zm.8-4h-2.6v-1.7c0-.7.6-1.2 1.3-1.2s1.3.5 1.3 1.2v1.7z"/></g></g><g transform="translate(0 2570)"><path fill="#FFF" d="M0 4h1l2-2h1l2 2h1V3L4 0H3L0 3z"/></g><g transform="translate(0 2590)"><path fill="#FFF" d="M9 4H0l4-4h1z"/></g><g transform="translate(0 2610)"><g><g fill="#FFF"><path d="M.1 9.2c.2.9.8 1.5 1.7 1.7.3.1.7.1 1 .1h9.4c.3 0 .6 0 .9-.1.9-.2 1.5-.8 1.8-1.7.1-.3.1-.6.1-.9V2.2c0-.2 0-.4-.1-.7-.2-.7-.8-1.1-1.6-1.2h-1.7c-.3 0-.3 0-.3.2v4.7c0 .4 0 .8-.1 1.2-.3 1.3-1.2 2.2-2.5 2.5-.7.2-1.5.2-2.3 0C5 8.6 4.2 7.8 3.8 6.5c-.1-.5-.1-.9-.1-1.3V.5c0-.1 0-.1-.1-.1H1.7C.9.4.3.8.1 1.6c-.1.2-.1.3-.1.5v6.3c0 .3 0 .5.1.8z"/><path d="M5.3 5.3c0 .3.1.6.2.9.4.7 1 1.1 1.8 1.1s1.4-.4 1.8-1.1c.2-.3.3-.7.3-1.1V.2C9.3 0 9.3 0 9.1 0H5.5c-.2 0-.2 0-.2.2v5.1z"/></g></g></g><g transform="translate(0 2640)"><g fill="#FFF"><path d="M4.4 1.4c-.1 0-.1-.1-.2-.1l-4 .9c-.1.1-.2.2-.2.3v4.2c0 .1.1.3.2.3h4c.1 0 .2-.1.2-.3V1.4zm6.4 6.7h-5c-.1 0-.2.1-.2.3v5.3c0 .1.1.2.2.2l5 1.1h.1c.1 0 .1 0 .2-.1.1 0 .1-.1.1-.2V8.3c-.2-.1-.3-.2-.4-.2zm.1-8c0-.1-.1-.1-.2-.1l-5 1.1c-.1 0-.2.1-.2.2v5.3c0 .1.1.3.2.3h5c.1 0 .2-.1.2-.3V.3c.1-.1.1-.2 0-.2zm-6.7 8h-4c-.1 0-.2.1-.2.2v4.2c0 .1.1.2.2.2l4 .9h.1c.1 0 .1 0 .2-.1.1 0 .1-.1.1-.2v-5c-.2-.1-.3-.2-.4-.2z"/></g></g><g transform="translate(0 2670)"><g fill="#FFF"><path d="M7.9 6.1v.3c0 .1.1.2 0 .2s-.2-.1-.3-.1v-.2c0-.1-.1-.2-.1-.2h-.1c-.1 0-.2-.1-.3-.1-.1 0-.2.1-.3 0-.1.1-.2.2-.3.2-.1 0-.1 0-.2-.1h-.2c-.1 0-.2.1-.4.2-.1 0-.2.1-.2.2v.2s0 .1-.1.1c-.1.2-.2.4-.1.6 0 0 .1.2.1.3l.2.1H6c.2-.1.1-.3.3-.4h.3l.1.1s0 .1-.1.1v.2c0 .1-.1.1-.1.1V8c0 .1-.1.1-.1.1.2.1.4 0 .5 0 .1 0 .2.1.2.2s-.1.1-.1.2-.1.2-.1.3c.1.2.3.4.5.4s.2-.1.4-.1c.1 0 .1.1.2.1s.1-.1.2-.2c0-.1 0-.1.1-.2h.1V5.5c-.1 0-.1.1-.2.1-.1.2-.3.3-.3.5z"/><path d="M14.3 10.7c0-.1.1-.1.1-.2.1-.1.1-.2.2-.3 0-.1.1-.2.1-.3.1-.2.2-.5.2-.7 0-.1.1-.2.1-.4 0-.1 0-.2.1-.4V6c-.1.1-.1 0-.1-.1s-.1-.2-.1-.4c-.1-.2-.1-.5-.2-.7 0-.1 0-.1-.1-.2-.1-.2-.1-.3-.2-.5 0-.1-.1-.1-.1-.2-.1-.1-.1-.2-.2-.3l-.6-.9c-.1-.1-.2-.3-.4-.4l-.3-.3c-.1-.1-.2-.2-.3-.2-.2-.2-.4-.3-.5-.4-.2-.2-.5-.3-.8-.5-.1-.1-.2-.1-.3-.2 0 0-.1 0-.1-.1-.1 0-.1-.1-.2-.1h-.1c-.1 0-.2-.1-.3-.1-.1 0-.2-.1-.3-.1h-.1S9.5.2 9.3.2h-.4C8.5 0 8.1 0 7.7 0h-.4c-.7 0-1.5.2-2.2.4-.1 0-.2.1-.3.1h-.1c-.1 0-.2.1-.2.1-.1 0-.2.1-.3.2-.2.1-.3.1-.4.2-.4.2-.8.5-1.2.8l-.1.1-.3.3c-.1 0-.2.1-.2.2-.2.1-.3.3-.4.4l-.6.9c-.1.1-.1.2-.2.3 0 .1-.1.1-.1.2s-.1.3-.2.5c0 .1 0 .1-.1.2 0 .2-.1.4-.2.6 0 .1-.1.2-.1.4 0 .1 0 .2-.1.4v2.4c0 .1 0 .2.1.4 0 .1.1.2.1.4.1.2.1.5.2.7 0 .1.1.2.1.3 0 .1.1.2.2.3 0 .1.1.1.1.2.1-.2.1-.1.2 0l.6.9c.1.1.2.3.4.4l.3.3c.1.1.2.2.3.2.4.4.8.7 1.3.9.1.1.2.1.3.2.2.1.4.2.7.3.1 0 .2.1.3.1.8.3 1.6.4 2.4.4h.8v-1.9c-.1-.1-.2-.1-.2-.2v-.1c0-.1-.1-.2-.2-.2-.1-.1-.2-.3-.3-.5-.1-.1-.1-.2-.2-.2 0 0-.1-.1-.2-.1 0-.1-.1-.2-.1-.2 0-.1.2-.1.2-.2s-.1-.1-.1-.1c0-.1 0-.2.1-.3v-.1l.1-.1s0-.1.1-.1c.2-.3.3-.4.3-.4v-.5c0-.1-.1-.1-.1-.2s0-.2-.1-.2-.1.1-.1.1c0 .1 0 .1-.1.1s-.1-.1-.2-.1h-.1c-.2 0-.2-.1-.3-.1-.1-.1-.1 0-.2-.1v-.2c-.1 0-.1-.2-.2-.2s-.2 0-.3-.1H6c-.2-.1-.3-.4-.5-.4-.1 0-.2.1-.2.1-.1 0-.3-.1-.3-.1-.1-.1-.3-.1-.3-.1-.1 0-.1-.1-.2-.1h-.1c-.1 0-.1-.1-.2-.1-.1-.1-.2-.2-.2-.3 0-.1.1-.1.1-.2S4 7 3.9 6.9c-.1-.1-.2-.1-.2-.2v-.1c-.1 0-.1-.1-.1-.2s-.1-.1-.2-.2v-.3c-.1-.1-.3 0-.3.2 0 .1.1.1.1.2v.2c0 .1.1.1.1.2s0 .2.1.3c0 .1.1.1.1.2 0-.1-.1-.2-.1-.2l-.1-.1v-.2c-.1-.1-.3-.1-.3-.3 0-.1.1-.1.1-.1 0-.1-.1-.1-.1-.2v-.4c0-.1-.1-.1-.2-.2-.1 0-.1 0-.2-.1l-.1-.2v-.6c0-.1.1-.1.2-.2 0-.1 0-.1.1-.2 0-.1.1-.2.2-.3.1-.1.2-.2.2-.3 0 0 .1-.1.1-.2s-.2-.1-.1-.2c0-.1.1-.1.1-.1V2.8c0-.1.1-.1.1-.2-.1-.1-.2 0-.2 0-.1 0 0-.1 0-.2v-.1l.1-.1s-.1-.1-.1-.2c.9-.7 2-1.2 3.2-1.4 0 0 0 .1.1.1h.4c.1 0 .4.2.5.1V.7l.1-.1h.2c.5 0 1 0 1.4.1 0 0-.1 0-.1.1-.1 0-.1.1-.1.1h-.4c0 .1.1.1.1.1.1.1.2.1.4 0h.3s0-.1.1-.1h.1c.1 0 .2 0 .2.1s-.1 0-.1.1c.1 0 .2 0 .2-.1h.1c.1 0 .2.1.3.1.2.1.3.1.5.2h-.1c-.1 0-.1-.1-.2-.1 0 .1.1.1.2.2.1 0 .1.1.2.2-.1.1-.2 0-.3 0-.1 0-.3.2-.4 0 0-.1.1-.1.2-.2h-.1s-.1 0-.1.1c-.1 0-.1.1-.2.1h-.2c-.1 0-.2.1-.3.1h-.1c-.3-.2-.4-.2-.5-.1-.1 0-.2.1-.3.2 0 0-.1.1-.1.2h.1s-.1.1 0 .1h.2c.1 0 .2.1.3.2.1 0 .2.1.3.1.1 0 .2 0 .3.1 0 .1-.1.1-.1.2.1.1 0 .1 0 .2-.2 0-.1.1-.1.1.1 0 .2-.1.2-.2s0-.2.1-.3c.4 0 .7-.2.7-.5v-.1c0-.1.1-.1.1-.2 0 0 .1 0 .1-.1s.1-.1.1-.1h.1c.1 0 .1.1.2 0h.1c.1 0 .1.1.2.1s.1 0 .1.1-.1.1-.1.2c.1.1.2.1.2.1h.2c.1 0 .1-.1.2-.1s.2 0 .3.1v.3c0 .1.2.1.3.2 0 0 0 .1.1.1 0 .1.1.1.1.1 0 .1-.1.1-.1.3 0 .1-.1.1-.1.1 0 .1.2 0 .2.1v.2c.1.1.1.2 0 .2s-.1-.1-.2-.1H12c.1-.1.2-.2.3-.4l.1-.1c-.1-.1-.2 0-.2 0-.1 0-.2.1-.2.1h-.4c0 .1.1 0 .1.1h-.1v-.1h-.3c-.1 0-.2.1-.2.1.1 0 .3 0 .3.1-.1.1-.2.2-.2.3 0 .1.1.1.1.1h.1s0 .1.1 0c.1 0 .1-.1.2-.1.1.1-.1.2-.2.2s-.3.1-.4.1c-.1 0-.2.2-.3.1 0-.1.1-.1.1-.2-.1 0-.2.1-.4.1-.2.1-.5.2-.5.4v.1h-.2c-.1 0-.1.1-.2.1h-.1c-.1 0-.1.1-.2.2 0 0-.1 0-.1.1 0 0 0 .1-.1.2H9h.1l5 6c.1-.1.2-.2.2-.3z"/><path d="M15.9 14.9L10 8.1s-.2-.1-.3 0c-.1 0-.2.2-.2.3v8.9c0 .2.1.3.2.3h.1c.1 0 .2-.1.3-.1l1.6-2.1 1.1 3c.1.4.6.6 1 .5.4-.1.6-.6.5-.9l-1.1-3 2.5.5c.2 0 .3 0 .4-.2-.1-.1-.1-.3-.2-.4z"/></g></g><g transform="translate(0 2700)"><path fill="#FFF" d="M7.5 0c1.5 0 2.9.4 4.1 1.2H11c-1.4.1-2.5.9-3.5 1.6-.9-.7-2.1-1.5-3.5-1.6h-.5C4.6.4 6 0 7.5 0zm4.9 1.8C14 3.2 15 5.2 15 7.5c0 1.7-.6 3.3-1.6 4.6-.2-1.9-.9-4-2.4-5.9-.5-.7-1.1-1.4-1.8-2 .9-1.1 2-1.9 3.2-2.4zm.6 10.8C11.7 14.1 9.7 15 7.5 15s-4.2-1-5.6-2.5c.5-1.5 1.4-2.9 2.5-4.2 1-1.1 2.2-2 3.1-2.7.8.7 2.1 1.6 3.1 2.7 1.1 1.3 2 2.7 2.4 4.3zM1.5 12C.6 10.8 0 9.2 0 7.5c0-2.2 1-4.3 2.6-5.6 1.3.5 2.3 1.3 3.2 2.3-.7.6-1.3 1.3-1.8 2-1.6 1.9-2.3 3.9-2.5 5.8z"/></g></svg>